<svg width="13" height="13" viewBox="0 0 13 13" fill="none" xmlns="http://www.w3.org/2000/svg">
<path d="M11.6561 2.54248C12.1667 3.20678 12.5517 3.97243 12.7759 4.8042H9.39441L11.6561 2.54248Z" fill="#0052B4"/>
<path d="M0.224047 4.80418C0.448221 3.97243 0.833245 3.20678 1.3438 2.54248L3.60547 4.80418H0.224047Z" fill="#0052B4"/>
<path d="M12.7759 8.1958C12.5517 9.02755 12.1667 9.7932 11.6561 10.4575L9.39448 8.1958H12.7759Z" fill="#0052B4"/>
<path d="M2.5425 1.3439C3.2068 0.833318 3.97243 0.44832 4.8042 0.224121V3.60557L2.5425 1.3439Z" fill="#0052B4"/>
<path d="M10.4575 11.6562C9.79322 12.1668 9.02757 12.5518 8.19582 12.776V9.39453L10.4575 11.6562Z" fill="#0052B4"/>
<path d="M8.19585 0.224121C9.0276 0.44832 9.79325 0.833318 10.4575 1.34387L8.19585 3.60554V0.224121Z" fill="#0052B4"/>
<path d="M4.8042 12.776C3.97245 12.5518 3.2068 12.1668 2.54253 11.6562L4.8042 9.39453V12.776Z" fill="#0052B4"/>
<path d="M3.60547 8.1958L1.3438 10.4575C0.833245 9.79323 0.448221 9.02755 0.224047 8.1958H3.60547Z" fill="#0052B4"/>
<path d="M0.0550213 5.65218H5.65213H5.65216V0.0550215C5.9297 0.0188906 6.21265 0 6.5 0C6.7874 0 7.0703 0.0188906 7.34782 0.0550215V5.65213V5.65216H12.945C12.9811 5.9297 13 6.21265 13 6.5C13 6.7874 12.9811 7.0703 12.945 7.34782H7.34787H7.34784V12.945C7.0703 12.9811 6.7874 13 6.5 13C6.21265 13 5.9297 12.9811 5.65218 12.945V7.34787V7.34784H0.0550213C0.0188904 7.0703 0 6.7874 0 6.5C0 6.21265 0.0188904 5.9297 0.0550213 5.65218Z" fill="#D80027"/>
<path d="M4.8042 8.19583L1.90368 11.0963C1.77027 10.963 1.64302 10.8236 1.5216 10.6791L4.00485 8.1958H4.8042V8.19583Z" fill="#D80027"/>
<path d="M8.19564 8.1958H8.19569L11.0962 11.0963C10.9628 11.2297 10.8234 11.357 10.6789 11.4784L8.19564 8.99507V8.1958Z" fill="#D80027"/>
<path d="M8.19591 4.80441V4.80436L11.0964 1.90381C11.2298 2.03716 11.3571 2.17658 11.4785 2.3211L8.99524 4.80438H8.19591V4.80441Z" fill="#D80027"/>
<path d="M4.8042 4.80411L1.90365 1.90354C2.037 1.77013 2.17642 1.64288 2.32095 1.52148L4.8042 4.00476V4.80411Z" fill="#D80027"/>
</svg>
