<svg width="13" height="13" viewBox="0 0 13 13" fill="none" xmlns="http://www.w3.org/2000/svg">
<path d="M0 6.4996C0 5.70451 0.143025 4.94289 0.404295 4.23873L6.5 3.67351L12.5957 4.23873C12.857 4.94289 13 5.70451 13 6.4996C13 7.29468 12.857 8.0563 12.5957 8.76046L6.5 9.32568L0.404295 8.76046C0.143025 8.0563 0 7.29468 0 6.4996Z" fill="#FFDA44"/>
<path d="M12.5957 8.76086C11.6773 11.236 9.29477 13 6.5 13C3.70523 13 1.3227 11.236 0.404297 8.76086H12.5957Z" fill="#D80027"/>
<path d="M0.404297 4.23926C1.3227 1.76408 3.70523 0.000115395 6.5 0.000115395C9.29477 0.000115395 11.6773 1.76408 12.5957 4.23926H0.404297Z" fill="#D80027"/>
</svg>
