<svg xmlns:osb="http://www.openswatchbook.org/uri/2009/osb" xmlns="http://www.w3.org/2000/svg" xmlns:xlink="http://www.w3.org/1999/xlink" width="15" height="15">
  <defs>
    <linearGradient id="a" osb:paint="solid">
      <stop offset="0" stop-color="#717171"/>
    </linearGradient>
    <linearGradient xlink:href="#a" id="b" x1="10.125779" y1="24.694221" x2="39.739357" y2="24.694221" gradientUnits="userSpaceOnUse" gradientTransform="matrix(.51841 0 0 .51724 -5.2313478 -5.2729283)"/>
  </defs>
  <path d="M7.7103541.04322395c-4.26143 0-7.70137997 3.43994995-7.70137997 7.70137985 0 3.3886082 2.20772897 6.2637902 5.28828097 7.2906412.41074.05134.513425-.154028.513425-.359398v-1.334906c-2.156386.462083-2.618469-1.026851-2.618469-1.026851-.359398-.872823-.872823-1.129536-.872823-1.129536-.718796-.462082.05134-.462082.05134-.462082.770138.05134 1.180879.770138 1.180879.770138.667453 1.180878 1.796988.82148 2.259071.61611.05134-.513425.256713-.821481.513426-1.026851-1.694304-.20537-3.491293-.872823-3.491293-3.7993482 0-.82148.308055-1.540276.770138-2.053701-.102685-.2053699-.359398-.9755079.05134-2.0537009 0 0 .667453-.205371 2.105044.770138.61611-.154028 1.283563-.256713 1.951016-.256713.667452 0 1.334905.102685 1.951015.256713 1.4889339-.975509 2.1050439-.770138 2.1050439-.770138.410741 1.078193.154028 1.848331.05134 2.0537009.513425.513425.770138 1.232221.770138 2.053701 0 2.9778682-1.796989 3.5939782-3.4912919 3.7993482.256712.256713.513425.718796.513425 1.437591v2.105044c0 .20537.154028.462083.5134249.359398 3.080552-1.026851 5.236939-3.902033 5.236939-7.2906402.05134-4.2100879-3.388607-7.65003785-7.6500369-7.65003785z" clip-rule="evenodd" fill="#181616" fill-rule="evenodd"/>
  <path d="M4.2838511 14.492008c-.865068-.422321-1.198628-.666171-1.985665-1.451626C.87250713 11.617568.18668513 10.117265.03652913 8.0927836-.18413487 5.1176656 1.5808271 2.1021747 4.3251091.76561265c1.299918-.633105 2.208625-.81756 3.713167-.753722.971399.04122 1.438729.119613 2.1620019.362681 2.44145.82048905 4.437842 2.99997705 5.015426 5.47540895.274302 1.175611.173761 3.013638-.230191 4.2082084-.619463 1.831882-2.10089 3.539615-3.81168 4.393964-.940084.469467-1.3385379.542606-1.4451999.265276-.03667-.09534-.06667-.775298-.06667-1.511024 0-1.088986-.03808-1.4122-.20481-1.738499l-.20481-.400818.543087-.116209c1.8125369-.387844 2.6560529-1.3336654 2.8955079-3.2466854.08529-.681349-.09787-1.620383-.415639-2.13095-.19263-.309506-.238385-.557084-.24446-1.3227659-.0088-1.107352-.124728-1.327516-.648591-1.231608-.191057.03498-.653632.21095-1.027945.39105l-.6805679.327453-.954732-.13522c-.754244-.106824-1.160912-.107106-1.936581-.0013l-.981851.133873-.67783-.327098c-.823179-.397238-1.446435-.527-1.575386-.327995-.05002.07719-.09806.568571-.10676 1.091959-.01339.805506-.06398 1.0494739-.329498 1.5889869-.27213.552952-.31307.760747-.309092 1.568848.0056 1.131417.23722 1.876438.780255 2.509424.417397.4865374 1.162362.9206754 1.796229 1.0467784.79956.159066.785865.147712.603214.500124-.09014.173911-.163884.389298-.163884.478638 0 .164198-.10979.215564-.72229.337927-.519575.103799-.924907-.108771-1.584196-.830809-.51423-.563172-.67351-.670632-1.070869-.722477-.605297-.07897-.610552.0874-.02131.674635.245014.244181.578631.688964.741371.988407.162739.299443.455211.65117.649936.781615.399152.267391 1.181895.418377 1.611377.310827l.286148-.07166v.767253c0 .598542-.0382.781879-.173732.83377-.09555.03658-.182046.06635-.192207.06614-.01016-.000219-.486352-.228795-1.0582-.507968z" fill="url(#b)"/>
  <path d="M4.8619391 15.03014c-.000677-.03659-.378451-.265687-.839549-.509109-1.614654-.852403-3.48240797-3.204754-3.73418397-4.7030337-.04191-.249428-.124402-.453507-.183304-.453507-.0589 0-.08063-.04304-.04829-.09566.03234-.05261.02144-.602494-.02424-1.221962-.04567-.619468-.04264-1.166926.0067-1.216572.04938-.04965.100436-.322655.113455-.606684.01302-.284028.06089-.516763.106381-.517187.04549-.000425.08271-.07054.08271-.155812 0-.08527.231049-.6216239.513443-1.1918929.41999597-.848143.68593797-1.210277 1.46120497-1.98972.775267-.779444 1.13546-1.046819 1.979058-1.46907797.567214-.283915 1.100691-.516209 1.185507-.516209.08481 0 .154209-.05284.154209-.117417 0-.06458.03956-.09283.08792-.06279.04836.03005.469395.0034.935641-.05926.608706-.08178 1.151368-.07712 1.924681.01651.592328.07172 1.176213.138747 1.297521.148954.1213079.01021.2453719.04689.2756989.08153.03032.03463.377707.214738.771957.400234 1.404008.66059297 2.591552 1.74864697 3.427329 3.14019597.20144.335392.393557.634752.426927.665242.03337.03049.07165.130277.08508.221748.02466.168035.350561 1.4667749.445159 1.7739799.08375.271989.02486 1.665213-.103112 2.439223-.06553.396374-.12517.820466-.132524.942427-.0074.1219607-.03976.2466937-.07201.2771837-.03226.03049-.22221.393745-.422123.807232-.663342 1.372021-1.983521 2.781235-3.246974 3.465959-.31524.170842-.597976.339495-.628303.374783-.08035.0935-.571289.137019-.8270969.07333-.200821-.05-.220561-.147138-.220561-1.085344 0-1.66075-.106995-2.306318-.420677-2.538196-.04941-.03652.173905-.120371.496259-.186325.8377309-.1714 1.3537969-.414572 1.8647539-.878678.407391-.3700347.974816-1.2523727.805393-1.2523727-.03899 0-.01189-.07146.06021-.158805.236487-.286485.337101-2.112484.134817-2.446729-.0369-.06098-.08088-.199852-.09773-.308604-.01684-.108752-.106559-.314236-.199359-.456631-.100745-.154585-.200774-.6764149-.248259-1.2951199-.07432-.968362-.09872-1.047026-.372533-1.201257-.25208-.141988-.336792-.143644-.606538-.01186-.172444.08425-.338348.159194-.368675.166543-.28257.06847-.551399.199447-.551399.268639 0 .09343-.06629.106184-.7229669.13914-.245998.01234-.496967-.0084-.557709-.04618-.130545-.08112-2.90344-.01459-2.989285.07172-.0324.03257-.195201-.01163-.361782-.09824-.166581-.08661-.33398-.126195-.371997-.08797-.03802.03822-.06912.003-.06912-.07834 0-.08131-.03134-.116325-.06964-.07782-.0383.03851-.174772.01117-.303268-.06075-.128496-.07192-.258443-.136839-.288769-.144267-.03033-.0074-.129579-.04356-.22056-.08029-.09098-.03673-.289484-.05737-.441118-.04586-.257351.01953-.277735.06519-.306289.686163-.01682.365883-.08801.939655-.158184 1.275048-.07018.3353929-.118444.6472259-.10726.6929609.01119.04573-.03222.08316-.09645.08316s-.08874.04563-.05445.101404c.03429.05577-.000006.122275-.0762.147784-.167404.05605-.248089 2.475759-.08591 2.576529.05674.03526.07521.137344.04104.226862-.03417.08952-.0043.16276.06647.16276.07072 0 .102403.04259.0704.09465-.0909.147874.582061 1.1419017.814436 1.2029967.114396.03008.235888.12777.269983.217097.03409.08933.111966.131359.173048.0934.06108-.03795.111058-.01322.111058.05495 0 .06818.04963.09313.11028.05544s.110279-.01803.110279.04368c0 .115072.753087.369189.873105.294614.03669-.0228.158282.02588.270209.108159.194917.143296.195526.17061.01444.647335-.119304.314077-.241588.477463-.331415.442807-.07829-.03021-.171918-.0068-.208058.05197-.08355.135916-.759916-.01195-1.089457-.238178-.135102-.09275-.468957-.382054-.741898-.642908-.272942-.260854-.533478-.464383-.578968-.452289-.04549.01209-.08271-.0279-.08271-.08888s-.198503-.110873-.441119-.110873c-.242615 0-.441118.0404-.441118.08978 0 .102412.956677 1.253939 1.144494 1.377598.06805.0448.08455.08222.03667.08315-.04788.000889-.0372.06406.02374.140289.491404.614708.8093.962642.871688.954055.04063-.0056.111092.002.156583.01682.04549.01484.119928.03753.165419.05042.04549.01289.17192.0628.280954.110903.109035.04811.39655.06073.638922.02805l.440678-.05943-.03239.738497-.03238.738497-.358408.01109c-.197125.0061-.358944-.01885-.359598-.05544z" fill="#666"/>
</svg>
