<?xml version="1.0" encoding="UTF-8" standalone="no"?>
<svg
   xmlns:osb="http://www.openswatchbook.org/uri/2009/osb"
   xmlns:dc="http://purl.org/dc/elements/1.1/"
   xmlns:cc="http://creativecommons.org/ns#"
   xmlns:rdf="http://www.w3.org/1999/02/22-rdf-syntax-ns#"
   xmlns:svg="http://www.w3.org/2000/svg"
   xmlns="http://www.w3.org/2000/svg"
   xmlns:xlink="http://www.w3.org/1999/xlink"
   xmlns:sodipodi="http://sodipodi.sourceforge.net/DTD/sodipodi-0.dtd"
   xmlns:inkscape="http://www.inkscape.org/namespaces/inkscape"
   viewBox="0 0 15 15"
   enable-background="new 0 0 50 50"
   id="svg2"
   version="1.1"
   inkscape:version="0.91 r13725"
   sodipodi:docname="github2.svg"
   width="15"
   height="15">
  <metadata
     id="metadata10">
    <rdf:RDF>
      <cc:Work
         rdf:about="">
        <dc:format>image/svg+xml</dc:format>
        <dc:type
           rdf:resource="http://purl.org/dc/dcmitype/StillImage" />
        <dc:title></dc:title>
      </cc:Work>
    </rdf:RDF>
  </metadata>
  <defs
     id="defs8">
    <linearGradient
       id="linearGradient4142"
       osb:paint="solid">
      <stop
         style="stop-color:#717171;stop-opacity:1;"
         offset="0"
         id="stop4144" />
    </linearGradient>
    <linearGradient
       inkscape:collect="always"
       xlink:href="#linearGradient4142"
       id="linearGradient4146"
       x1="10.125779"
       y1="24.694221"
       x2="39.739357"
       y2="24.694221"
       gradientUnits="userSpaceOnUse"
       gradientTransform="matrix(0.51841037,0,0,0.51724269,-5.2313478,-5.2729283)" />
  </defs>
  <sodipodi:namedview
     pagecolor="#ffffff"
     bordercolor="#666666"
     borderopacity="1"
     objecttolerance="10"
     gridtolerance="10"
     guidetolerance="10"
     inkscape:pageopacity="0"
     inkscape:pageshadow="2"
     inkscape:window-width="2651"
     inkscape:window-height="1359"
     id="namedview6"
     showgrid="false"
     inkscape:zoom="4.72"
     inkscape:cx="25.211864"
     inkscape:cy="14.830508"
     inkscape:window-x="853"
     inkscape:window-y="351"
     inkscape:window-maximized="0"
     inkscape:current-layer="svg2"
     units="px"
     width="15in"
     borderlayer="false" />
  <path
     d="m 7.7103541,0.04322395 c -4.26143,0 -7.70137997,3.43994995 -7.70137997,7.70137985 0,3.3886082 2.20772897,6.2637902 5.28828097,7.2906412 0.41074,0.05134 0.513425,-0.154028 0.513425,-0.359398 l 0,-1.334906 c -2.156386,0.462083 -2.618469,-1.026851 -2.618469,-1.026851 -0.359398,-0.872823 -0.872823,-1.129536 -0.872823,-1.129536 -0.718796,-0.462082 0.05134,-0.462082 0.05134,-0.462082 0.770138,0.05134 1.180879,0.770138 1.180879,0.770138 0.667453,1.180878 1.796988,0.82148 2.259071,0.61611 0.05134,-0.513425 0.256713,-0.821481 0.513426,-1.026851 -1.694304,-0.20537 -3.491293,-0.872823 -3.491293,-3.7993482 0,-0.82148 0.308055,-1.540276 0.770138,-2.053701 -0.102685,-0.2053699 -0.359398,-0.9755079 0.05134,-2.0537009 0,0 0.667453,-0.205371 2.105044,0.770138 0.61611,-0.154028 1.283563,-0.256713 1.951016,-0.256713 0.667452,0 1.334905,0.102685 1.951015,0.256713 1.4889339,-0.975509 2.1050439,-0.770138 2.1050439,-0.770138 0.410741,1.078193 0.154028,1.848331 0.05134,2.0537009 0.513425,0.513425 0.770138,1.232221 0.770138,2.053701 0,2.9778682 -1.796989,3.5939782 -3.4912919,3.7993482 0.256712,0.256713 0.513425,0.718796 0.513425,1.437591 l 0,2.105044 c 0,0.20537 0.154028,0.462083 0.5134249,0.359398 3.080552,-1.026851 5.236939,-3.902033 5.236939,-7.2906402 0.05134,-4.2100879 -3.388607,-7.65003785 -7.6500369,-7.65003785 z"
     id="path4"
     inkscape:connector-curvature="0"
     style="clip-rule:evenodd;fill:#181616;fill-rule:evenodd" />
  <path
     style="fill:url(#linearGradient4146);fill-opacity:1"
     d="M 4.2838511,14.492008 C 3.4187831,14.069687 3.0852231,13.825837 2.2981861,13.040382 0.87250713,11.617568 0.18668513,10.117265 0.03652913,8.0927836 -0.18413487,5.1176656 1.5808271,2.1021747 4.3251091,0.76561265 c 1.299918,-0.633105 2.208625,-0.81756 3.713167,-0.753722 0.971399,0.04122 1.438729,0.119613 2.1620019,0.362681 2.44145,0.82048905 4.437842,2.99997705 5.015426,5.47540895 0.274302,1.175611 0.173761,3.013638 -0.230191,4.2082084 -0.619463,1.831882 -2.10089,3.539615 -3.81168,4.393964 -0.940084,0.469467 -1.3385379,0.542606 -1.4451999,0.265276 -0.03667,-0.09534 -0.06667,-0.775298 -0.06667,-1.511024 0,-1.088986 -0.03808,-1.4122 -0.20481,-1.738499 l -0.20481,-0.400818 0.543087,-0.116209 c 1.8125369,-0.387844 2.6560529,-1.3336654 2.8955079,-3.2466854 0.08529,-0.681349 -0.09787,-1.620383 -0.415639,-2.13095 -0.19263,-0.309506 -0.238385,-0.557084 -0.24446,-1.3227659 -0.0088,-1.107352 -0.124728,-1.327516 -0.648591,-1.231608 -0.191057,0.03498 -0.653632,0.21095 -1.027945,0.39105 l -0.6805679,0.327453 -0.954732,-0.13522 c -0.754244,-0.106824 -1.160912,-0.107106 -1.936581,-0.0013 l -0.981851,0.133873 -0.67783,-0.327098 c -0.823179,-0.397238 -1.446435,-0.527 -1.575386,-0.327995 -0.05002,0.07719 -0.09806,0.568571 -0.10676,1.091959 -0.01339,0.805506 -0.06398,1.0494739 -0.329498,1.5889869 -0.27213,0.552952 -0.31307,0.760747 -0.309092,1.568848 0.0056,1.131417 0.23722,1.876438 0.780255,2.509424 0.417397,0.4865374 1.162362,0.9206754 1.796229,1.0467784 0.79956,0.159066 0.785865,0.147712 0.603214,0.500124 -0.09014,0.173911 -0.163884,0.389298 -0.163884,0.478638 0,0.164198 -0.10979,0.215564 -0.72229,0.337927 -0.519575,0.103799 -0.924907,-0.108771 -1.584196,-0.830809 -0.51423,-0.563172 -0.67351,-0.670632 -1.070869,-0.722477 -0.605297,-0.07897 -0.610552,0.0874 -0.02131,0.674635 0.245014,0.244181 0.578631,0.688964 0.741371,0.988407 0.162739,0.299443 0.455211,0.65117 0.649936,0.781615 0.399152,0.267391 1.181895,0.418377 1.611377,0.310827 l 0.286148,-0.07166 0,0.767253 c 0,0.598542 -0.0382,0.781879 -0.173732,0.83377 -0.09555,0.03658 -0.182046,0.06635 -0.192207,0.06614 -0.01016,-2.19e-4 -0.486352,-0.228795 -1.0582,-0.507968 z"
     id="path4140"
     inkscape:connector-curvature="0" />
  <path
     style="fill:#666666;fill-opacity:1"
     d="m 4.8619391,15.03014 c -6.77e-4,-0.03659 -0.378451,-0.265687 -0.839549,-0.509109 -1.614654,-0.852403 -3.48240797,-3.204754 -3.73418397,-4.7030337 -0.04191,-0.249428 -0.124402,-0.453507 -0.183304,-0.453507 -0.0589,0 -0.08063,-0.04304 -0.04829,-0.09566 0.03234,-0.05261 0.02144,-0.602494 -0.02424,-1.221962 -0.04567,-0.619468 -0.04264,-1.166926 0.0067,-1.216572 0.04938,-0.04965 0.100436,-0.322655 0.113455,-0.606684 0.01302,-0.284028 0.06089,-0.516763 0.106381,-0.517187 0.04549,-4.25e-4 0.08271,-0.07054 0.08271,-0.155812 0,-0.08527 0.231049,-0.6216239 0.513443,-1.1918929 0.41999597,-0.848143 0.68593797,-1.210277 1.46120497,-1.98972 0.775267,-0.779444 1.13546,-1.046819 1.979058,-1.46907797 0.567214,-0.283915 1.100691,-0.516209 1.185507,-0.516209 0.08481,0 0.154209,-0.05284 0.154209,-0.117417 0,-0.06458 0.03956,-0.09283 0.08792,-0.06279 0.04836,0.03005 0.469395,0.0034 0.935641,-0.05926 0.608706,-0.08178 1.151368,-0.07712 1.924681,0.01651 0.592328,0.07172 1.176213,0.138747 1.297521,0.148954 0.1213079,0.01021 0.2453719,0.04689 0.2756989,0.08153 0.03032,0.03463 0.377707,0.214738 0.771957,0.400234 1.404008,0.66059297 2.591552,1.74864697 3.427329,3.14019597 0.20144,0.335392 0.393557,0.634752 0.426927,0.665242 0.03337,0.03049 0.07165,0.130277 0.08508,0.221748 0.02466,0.168035 0.350561,1.4667749 0.445159,1.7739799 0.08375,0.271989 0.02486,1.665213 -0.103112,2.439223 -0.06553,0.396374 -0.12517,0.820466 -0.132524,0.942427 -0.0074,0.1219607 -0.03976,0.2466937 -0.07201,0.2771837 -0.03226,0.03049 -0.22221,0.393745 -0.422123,0.807232 -0.663342,1.372021 -1.983521,2.781235 -3.246974,3.465959 -0.31524,0.170842 -0.597976,0.339495 -0.628303,0.374783 -0.08035,0.0935 -0.571289,0.137019 -0.8270969,0.07333 -0.200821,-0.05 -0.220561,-0.147138 -0.220561,-1.085344 0,-1.66075 -0.106995,-2.306318 -0.420677,-2.538196 -0.04941,-0.03652 0.173905,-0.120371 0.496259,-0.186325 0.8377309,-0.1714 1.3537969,-0.414572 1.8647539,-0.878678 0.407391,-0.3700347 0.974816,-1.2523727 0.805393,-1.2523727 -0.03899,0 -0.01189,-0.07146 0.06021,-0.158805 0.236487,-0.286485 0.337101,-2.112484 0.134817,-2.446729 -0.0369,-0.06098 -0.08088,-0.199852 -0.09773,-0.308604 -0.01684,-0.108752 -0.106559,-0.314236 -0.199359,-0.456631 -0.100745,-0.154585 -0.200774,-0.6764149 -0.248259,-1.2951199 -0.07432,-0.968362 -0.09872,-1.047026 -0.372533,-1.201257 -0.25208,-0.141988 -0.336792,-0.143644 -0.606538,-0.01186 -0.172444,0.08425 -0.338348,0.159194 -0.368675,0.166543 -0.28257,0.06847 -0.551399,0.199447 -0.551399,0.268639 0,0.09343 -0.06629,0.106184 -0.7229669,0.13914 -0.245998,0.01234 -0.496967,-0.0084 -0.557709,-0.04618 -0.130545,-0.08112 -2.90344,-0.01459 -2.989285,0.07172 -0.0324,0.03257 -0.195201,-0.01163 -0.361782,-0.09824 -0.166581,-0.08661 -0.33398,-0.126195 -0.371997,-0.08797 -0.03802,0.03822 -0.06912,0.003 -0.06912,-0.07834 0,-0.08131 -0.03134,-0.116325 -0.06964,-0.07782 -0.0383,0.03851 -0.174772,0.01117 -0.303268,-0.06075 -0.128496,-0.07192 -0.258443,-0.136839 -0.288769,-0.144267 -0.03033,-0.0074 -0.129579,-0.04356 -0.22056,-0.08029 -0.09098,-0.03673 -0.289484,-0.05737 -0.441118,-0.04586 -0.257351,0.01953 -0.277735,0.06519 -0.306289,0.686163 -0.01682,0.365883 -0.08801,0.939655 -0.158184,1.275048 -0.07018,0.3353929 -0.118444,0.6472259 -0.10726,0.6929609 0.01119,0.04573 -0.03222,0.08316 -0.09645,0.08316 -0.06423,0 -0.08874,0.04563 -0.05445,0.101404 0.03429,0.05577 -6e-6,0.122275 -0.0762,0.147784 -0.167404,0.05605 -0.248089,2.475759 -0.08591,2.576529 0.05674,0.03526 0.07521,0.137344 0.04104,0.226862 -0.03417,0.08952 -0.0043,0.16276 0.06647,0.16276 0.07072,0 0.102403,0.04259 0.0704,0.09465 -0.0909,0.147874 0.582061,1.1419017 0.814436,1.2029967 0.114396,0.03008 0.235888,0.12777 0.269983,0.217097 0.03409,0.08933 0.111966,0.131359 0.173048,0.0934 0.06108,-0.03795 0.111058,-0.01322 0.111058,0.05495 0,0.06818 0.04963,0.09313 0.11028,0.05544 0.06065,-0.03769 0.110279,-0.01803 0.110279,0.04368 0,0.115072 0.753087,0.369189 0.873105,0.294614 0.03669,-0.0228 0.158282,0.02588 0.270209,0.108159 0.194917,0.143296 0.195526,0.17061 0.01444,0.647335 -0.119304,0.314077 -0.241588,0.477463 -0.331415,0.442807 -0.07829,-0.03021 -0.171918,-0.0068 -0.208058,0.05197 -0.08355,0.135916 -0.759916,-0.01195 -1.089457,-0.238178 -0.135102,-0.09275 -0.468957,-0.382054 -0.741898,-0.642908 -0.272942,-0.260854 -0.533478,-0.464383 -0.578968,-0.452289 -0.04549,0.01209 -0.08271,-0.0279 -0.08271,-0.08888 0,-0.06098 -0.198503,-0.110873 -0.441119,-0.110873 -0.242615,0 -0.441118,0.0404 -0.441118,0.08978 0,0.102412 0.956677,1.253939 1.144494,1.377598 0.06805,0.0448 0.08455,0.08222 0.03667,0.08315 -0.04788,8.89e-4 -0.0372,0.06406 0.02374,0.140289 0.491404,0.614708 0.8093,0.962642 0.871688,0.954055 0.04063,-0.0056 0.111092,0.002 0.156583,0.01682 0.04549,0.01484 0.119928,0.03753 0.165419,0.05042 0.04549,0.01289 0.17192,0.0628 0.280954,0.110903 0.109035,0.04811 0.39655,0.06073 0.638922,0.02805 l 0.440678,-0.05943 -0.03239,0.738497 -0.03238,0.738497 -0.358408,0.01109 c -0.197125,0.0061 -0.358944,-0.01885 -0.359598,-0.05544 z"
     id="path4148"
     inkscape:connector-curvature="0" />
</svg>
