<svg width="23" height="17" viewBox="0 0 23 17" fill="none" xmlns="http://www.w3.org/2000/svg">
<path fill-rule="evenodd" clip-rule="evenodd" d="M16.8525 9.29523C16.0489 10.2428 14.9524 10.9914 13.5629 11.5414C12.1736 12.0915 10.6622 12.3663 9.02907 12.3658C8.29379 12.3658 7.54126 12.3016 6.77184 12.1731C5.71164 12.8796 4.52305 13.3935 3.2063 13.7147C2.89854 13.787 2.53081 13.8512 2.10338 13.9074H2.06488C1.97068 13.9074 1.88317 13.8754 1.80191 13.8113C1.72073 13.7467 1.67159 13.6626 1.65438 13.5584C1.64576 13.5341 1.64154 13.5082 1.64154 13.4801C1.64154 13.4521 1.64369 13.4259 1.648 13.4019C1.65223 13.3777 1.66085 13.3537 1.67361 13.3297L1.70573 13.2697L1.75065 13.2034C1.78052 13.1593 1.79768 13.1392 1.80191 13.1435C1.80622 13.1473 1.82545 13.1273 1.85972 13.0832C1.89386 13.039 1.91107 13.0208 1.91107 13.0289C1.9537 12.9808 2.05208 12.8805 2.20607 12.7279C2.36002 12.5755 2.47115 12.4569 2.53957 12.3726C2.60803 12.2886 2.70412 12.1722 2.8281 12.0235C2.95218 11.8749 3.05896 11.7205 3.1488 11.5599C3.2386 11.3991 3.32624 11.2227 3.41168 11.0298C2.35153 10.4518 1.51782 9.74111 0.910836 8.89807C0.303852 8.05516 0 7.15551 0 6.20014C0 5.084 0.401916 4.0524 1.2057 3.105C2.00931 2.15755 3.1059 1.40884 4.49524 0.858803C5.88477 0.308771 7.39598 0.0336914 9.02907 0.0336914C10.6623 0.0336914 12.1735 0.308602 13.5629 0.858634C14.9524 1.40875 16.0489 2.15747 16.8525 3.10487C17.6562 4.0524 18.0581 5.08404 18.0581 6.20014C18.0581 7.31619 17.6562 8.34787 16.8525 9.29523ZM5.82277 10.9091L6.38717 10.536L7.06693 10.6562C7.73393 10.7685 8.38804 10.8249 9.02916 10.8249C10.3375 10.8249 11.5602 10.6161 12.6972 10.1986C13.8344 9.78115 14.7386 9.21525 15.41 8.50045C16.0811 7.78586 16.4166 7.01913 16.4166 6.20018C16.4166 5.38106 16.0811 4.61428 15.41 3.89974C14.7386 3.18515 13.8343 2.61908 12.6972 2.20147C11.5602 1.78406 10.3373 1.57517 9.02916 1.57517C7.72099 1.57517 6.49826 1.78406 5.36116 2.20147C4.22396 2.61913 3.31973 3.18515 2.64868 3.89974C1.97755 4.61433 1.6418 5.3811 1.6418 6.20018C1.6418 6.85862 1.8683 7.49294 2.32152 8.10312C2.77469 8.71335 3.41159 9.2433 4.23258 9.69281L5.47665 10.3672L5.02766 11.3791C5.31844 11.2184 5.58334 11.0616 5.82277 10.9091Z" fill="#7F8198"/>
<path fill-rule="evenodd" clip-rule="evenodd" d="M22.0724 11.9868C22.6796 11.1475 22.983 10.2465 22.983 9.2829C22.983 8.29534 22.6623 7.37186 22.0213 6.51287C21.38 5.65393 20.5077 4.93921 19.4048 4.36914C19.6013 4.97127 19.6997 5.58146 19.6997 6.19983C19.6997 7.27563 19.4136 8.29534 18.8403 9.25894C18.2675 10.2222 17.4466 11.0733 16.3779 11.8121C15.386 12.4865 14.2574 13.0042 12.9918 13.3656C11.7267 13.7268 10.4055 13.9076 9.02892 13.9076C8.7725 13.9076 8.39624 13.8917 7.90039 13.8597C9.61892 14.9193 11.6369 15.4493 13.9539 15.4493C14.6893 15.4493 15.4417 15.385 16.2113 15.2565C17.2714 15.9633 18.46 16.4769 19.7767 16.7983C20.0845 16.8708 20.4522 16.9348 20.8797 16.991C20.9823 16.9992 21.0765 16.9709 21.162 16.9068C21.2474 16.8425 21.3031 16.7544 21.3286 16.6421C21.3246 16.5939 21.3286 16.5674 21.3415 16.5636C21.3541 16.5598 21.352 16.5335 21.335 16.4855C21.3182 16.4372 21.3095 16.4131 21.3095 16.4131L21.2775 16.353C21.2686 16.3372 21.2542 16.315 21.2327 16.2869C21.2113 16.2591 21.1943 16.2389 21.1813 16.2267C21.1687 16.2148 21.1496 16.1946 21.1238 16.1667C21.0983 16.1388 21.0811 16.1206 21.0725 16.1126C21.0298 16.0643 20.9315 15.964 20.7776 15.8114C20.6236 15.659 20.5126 15.5406 20.4442 15.4563C20.3758 15.372 20.2796 15.2556 20.1556 15.1069C20.0317 14.9585 19.9247 14.8039 19.8349 14.6433C19.7452 14.4827 19.6575 14.306 19.572 14.1135C20.6319 13.5349 21.4658 12.8264 22.0724 11.9868Z" fill="#7F8198"/>
</svg>
