<svg width="48" height="45" viewBox="0 0 48 45" fill="none" xmlns="http://www.w3.org/2000/svg">
  <path d="M25.6606 31.4117C33.3118 31.4117 39.5143 25.1721 39.5143 17.4751C39.5143 9.77804 33.3118 3.53839 25.6606 3.53839C18.0094 3.53839 11.8069 9.77804 11.8069 17.4751C11.8069 25.1721 18.0094 31.4117 25.6606 31.4117Z" fill="#494A5A"/>
  <path d="M35.3903 13.2956C36.3831 14.6478 36.9024 16.2458 36.9024 17.9053C36.9024 19.9182 36.0776 21.7774 34.6724 23.2833L35.5277 26.4947H38.1243L40.8584 23.3755L41.5916 18.8119L41.7443 16.0921L39.0408 13.019L35.3903 13.2956Z" fill="#2C2D39"/>
  <path d="M5.30013 26.8635L5.77363 28.7535C5.77363 28.7535 11.364 40.2931 23.9499 44.5801C23.9499 44.5801 35.4004 39.6631 40.4867 31.3195L33.4658 25.1579C33.4658 25.1579 30.1054 27.8469 25.1108 27.8469C20.1161 27.8469 13.3344 24.8506 13.3344 18.6736C13.3344 12.4966 20.3605 10.2378 20.3605 10.2378L17.3668 9.50027H9.71437L4.85718 21.2704L5.30013 26.8635Z" fill="#2C2D39"/>
  <path d="M47.5944 13.8916C47.3805 13.6765 42.9828 8 25.748 1C24.8743 0.657513 24.0568 0.948486 24.0568 0.948486C8.26624 4.99919 0.519287 13.3594 0.519287 13.8916C0.519287 14.4238 2.77987 22.4228 4.24619 25.6803C4.36839 25.9569 6.32348 29.4295 7.77453 31.3195C6.91918 29.4295 5.98745 27.7854 5.98745 24.9581C5.98745 16.9834 12.1277 10.499 19.8106 10.2225C19.9939 10.2225 20.1925 10.2225 20.3758 10.2378L18.5428 8.39394C18.5428 8.39394 25.9203 7.14932 35.3903 12.9114C35.3903 12.9114 35.5278 13.2034 35.3903 14.0639C35.3903 14.0639 39.8504 15.9999 40.2322 19.7645C40.6141 23.5291 38.2466 25.6803 36.3373 25.9876C36.3373 25.9876 37.3301 24.4357 35.8027 23.606C35.4819 23.4216 35.1001 23.3447 34.7182 23.3601C31.8009 23.3601 31.4648 26.7098 31.4648 26.7098C31.4343 26.8788 31.4343 27.0479 31.4343 27.2169C31.4343 27.2169 30.9455 32.1185 39.6213 32.0263C39.6213 32.0263 44.0202 27.0171 45.1811 22.515C45.6087 20.8555 45.9142 19.6109 46.1128 18.6889C46.6016 17.3829 47.0751 15.4589 47.5333 14.0606L47.5944 13.8916Z" fill="white"/>
  <path opacity="0.895424" d="M31.6177 14.4019C31.7399 14.3405 32.137 14.1407 32.5953 13.6644C33.5117 13.7873 34.4129 14.0792 34.4129 14.0792C32.748 13.0651 30.4721 12.4658 27.9519 12.4812C27.9519 12.4812 28.9142 13.8641 31.5872 14.4326C31.5872 14.4326 31.6024 14.4173 31.6177 14.4019Z" fill="white"/>
  <path fill-rule="evenodd" clip-rule="evenodd" d="M24.5303 0.192009C26.9437 0.991131 38.5673 5.14343 47.7624 13.1346L47.9762 13.2913L47.9304 13.5577C47.9304 13.6204 46.9223 19.7 43.5315 26.5317C41.5305 30.5586 39.1019 34.0685 36.322 36.9516C32.9006 40.4928 28.9446 43.1095 24.5303 44.7391L24.2707 44.8331L23.9957 44.9428L23.7361 44.8488L23.4764 44.7548C19.0622 43.1252 15.0909 40.5085 11.6847 36.9673C8.90483 34.0685 6.47623 30.5743 4.47531 26.5474C1.22497 19.9838 0.178025 14.14 0.0833773 13.6117C0.0792852 13.5889 0.0769732 13.576 0.0763402 13.5734L0.0305176 13.307L0.229082 13.1346C9.42415 5.14343 21.0478 0.991131 23.4611 0.192009L23.9957 0.0196495L24.3012 0.113664L24.5303 0.192009ZM35.65 36.2935C38.3688 33.4731 40.7363 30.0416 42.6914 26.1086C45.624 20.2014 46.739 14.8896 46.9681 13.6831C37.544 5.58216 25.6148 1.53955 23.9957 1.0068C22.3614 1.53955 10.4475 5.58216 1.02334 13.6831C1.25245 14.9052 2.3522 20.2171 5.30012 26.14C7.25522 30.0729 9.62272 33.4887 12.3415 36.3092C15.7171 39.8034 19.6273 42.3574 23.9957 43.94C28.3642 42.3574 32.2744 39.7877 35.65 36.2935Z" fill="white"/>
</svg>
