<svg width="178" height="207" viewBox="0 0 178 207" fill="none" xmlns="http://www.w3.org/2000/svg">
<path d="M158.686 87.1217L151.071 79.7948L147.333 75.8179L139.517 71.8833L122.919 72.9937" stroke="#212B36" stroke-width="1.8"/>
<path d="M58.5977 176.722L89.0967 141.776" stroke="#212B36" stroke-width="1.8"/>
<path d="M87.9912 143.003V198.216" stroke="#212B36" stroke-width="1.8"/>
<path d="M150.943 79.7525H133.014L93.9387 144.737L89.1812 141.776L71.001 116.899" stroke="#212B36" stroke-width="1.8"/>
<path d="M96.2324 195.422L116.961 172.153L97.2944 139.28" stroke="#212B36" stroke-width="1.8"/>
<path d="M65.1387 47.5986L85.018 35.1601L109.995 32.0293L136.925 42.1832L142.617 50.9832" stroke="#212B36" stroke-width="1.8"/>
<path d="M57.4082 181.884L77.4574 86.0987" stroke="#212B36" stroke-width="1.8"/>
<path fill-rule="evenodd" clip-rule="evenodd" d="M77.6904 85.9718L122.907 73.1522L129.873 56.7368L121.548 54.5371L77.6904 85.9718Z" stroke="#212B36" stroke-width="1.8"/>
<path d="M113.18 60.5446L103.538 58.3448L102.391 54.4525L94.2354 51.1102" stroke="#212B36" stroke-width="1.8"/>
<path fill-rule="evenodd" clip-rule="evenodd" d="M5.07699 116.391L13.4906 105.672L10.3435 154.637L3.03809 150.745L5.07699 116.391Z" stroke="#212B36" stroke-width="1.8"/>
<path d="M105.492 125.191H173.966" stroke="#212B36" stroke-width="1.8"/>
<path d="M122.229 97.691L143.042 125.191" stroke="#212B36" stroke-width="1.8"/>
<path d="M116.791 172.153L144.911 166.484" stroke="#212B36" stroke-width="1.8"/>
<path fill-rule="evenodd" clip-rule="evenodd" d="M77.6906 86.1584L12.8262 106.492L13.416 105.634L65.0323 47.6894L121.549 54.4525L77.6906 86.1584Z" stroke="#212B36" stroke-width="1.8"/>
<path d="M65.2236 47.514L77.4571 86.0849" stroke="#212B36" stroke-width="1.8"/>
<path d="M121.634 54.4525L142.617 50.9829L155.87 55.0444L163.261 68.4137L157.569 69.9371L147.035 58.8521L129.704 56.7368" stroke="#212B36" stroke-width="1.8"/>
<path d="M89.2441 198.841L171.754 150.134V29.6081L89.2441 7.17727L6.73458 29.6081V150.134L89.2441 198.841ZM89.2539 205.84L89.1779 206.022L0.488281 153.678V24.8576L89.1779 0.746719L89.1816 0.760099L178 24.8576V153.678L89.3103 205.974L89.2539 205.84Z" fill="url(#paint0_linear)"/>
<path d="M157.569 69.9371L158.866 87.5019" stroke="#101010" stroke-width="1.8"/>
<path d="M158.884 87.2757L163.55 68.4389" stroke="#101010" stroke-width="1.8"/>
<defs>
<linearGradient id="paint0_linear" x1="12.3739" y1="-15.4999" x2="-14.2709" y2="219.579" gradientUnits="userSpaceOnUse">
<stop stop-color="#FA8B6A"/>
<stop offset="1" stop-color="#EE6293"/>
</linearGradient>
</defs>
</svg>
