<?xml version="1.0" encoding="UTF-8"?>
<svg width="318px" height="292px" viewBox="0 0 318 292" version="1.1" xmlns="http://www.w3.org/2000/svg" xmlns:xlink="http://www.w3.org/1999/xlink">
    <!-- Generator: sketchtool 52.2 (67145) - http://www.bohemiancoding.com/sketch -->
    <title>19CEA948-7C1E-4E37-B794-819691770EF5</title>
    <desc>Created with sketchtool.</desc>
    <defs>
        <radialGradient cx="50%" cy="93.9696908%" fx="50%" fy="93.9696908%" r="176.321363%" gradientTransform="translate(0.500000,0.939697),scale(0.664038,1.000000),rotate(-88.976146),scale(1.000000,1.141460),translate(-0.500000,-0.939697)" id="radialGradient-1">
            <stop stop-color="#121317" offset="0%"></stop>
            <stop stop-color="#2D2E39" offset="100%"></stop>
        </radialGradient>
        <path d="M305.970642,85.3343921 C304.585145,83.9385062 276.09173,47.1045267 164.424343,1.68230453 C160.650266,0.200731015 156.997799,0.0893088511 153.466939,1.34803803 C51.1570096,27.6326068 0.963235558,81.8809156 0.963235558,85.3343921 C0.963235558,88.7878685 15.6099248,140.692462 25.11048,161.830163 C25.9021929,163.624874 38.5695998,186.15846 47.9711909,198.422315 C42.4292004,186.15846 36.3923892,175.489904 36.3923892,157.143975 C36.3923892,105.396491 76.1759641,63.3205014 125.954915,61.525791 C127.142484,61.525791 128.429018,61.525791 129.616587,61.6254971 L117.740893,49.6607609 C117.740893,49.6607609 165.540561,41.5845639 226.898313,78.9743647 C226.898313,78.9743647 227.78899,80.8687812 226.898313,86.4523248 C226.898313,86.4523248 255.795835,99.0152979 258.269938,123.443301 C260.744041,147.871304 245.404603,161.830163 233.034089,163.824286 C233.034089,163.824286 239.466756,153.753966 229.570345,148.369835 C227.492098,147.173361 225.017995,146.674831 222.543892,146.774537 C203.641746,146.774537 201.464535,168.510474 201.464535,168.510474 C201.266607,169.607242 201.266607,170.704009 201.266607,171.800777 C201.266607,171.800777 198.099756,203.607034 254.311374,203.008797 C254.311374,203.008797 282.813039,170.504597 290.334312,141.290699 C293.105307,130.522437 295.08459,122.44624 296.371123,116.463872 C299.537975,107.98885 302.605863,95.5044179 305.574786,86.4311596 L305.970642,85.3343921 Z" id="path-2"></path>
        <filter x="-4.3%" y="-3.9%" width="108.5%" height="112.8%" filterUnits="objectBoundingBox" id="filter-4">
            <feOffset dx="0" dy="5" in="SourceAlpha" result="shadowOffsetOuter1"></feOffset>
            <feGaussianBlur stdDeviation="3.5" in="shadowOffsetOuter1" result="shadowBlurOuter1"></feGaussianBlur>
            <feColorMatrix values="0 0 0 0 0   0 0 0 0 0   0 0 0 0 0  0 0 0 0.0726052989 0" type="matrix" in="shadowBlurOuter1"></feColorMatrix>
        </filter>
    </defs>
    <g id="Page-1" stroke="none" stroke-width="1" fill="none" fill-rule="evenodd">
        <g id="Project@2x" transform="translate(-277.000000, -2336.000000)">
            <g id="Group-62" transform="translate(280.000000, 2336.000000)">
                <g id="Group-61">
                    <g id="Group-60">
                        <g id="Group-59">
                            <g id="Group-58">
                                <g id="Group-31">
                                    <ellipse id="Oval" fill="#4F5262" fill-rule="nonzero" cx="166.259716" cy="113.393671" rx="89.7604536" ry="90.4334648"></ellipse>
                                    <path d="M229.299858,86.2736024 C235.732525,95.0477423 239.097305,105.41718 239.097305,116.185443 C239.097305,129.246947 233.753243,141.311389 224.648544,151.08259 L230.190535,171.921173 L247.014435,171.921173 L264.729012,151.680827 L269.479289,122.068105 L270.46893,104.420119 L252.952282,84.478892 L229.299858,86.2736024 Z" id="Shape" fill="#5E6175" fill-rule="nonzero"></path>
                                    <path d="M34.3405484,174.31412 L37.408436,186.577975 C37.408436,186.577975 73.6293026,261.457282 155.175735,289.275294 C155.175735,289.275294 229.365132,257.369331 262.320183,203.228899 L216.830379,163.246739 C216.830379,163.246739 195.058274,180.695313 162.697007,180.695313 C130.335741,180.695313 86.3956737,161.252616 86.3956737,121.17075 C86.3956737,81.0888834 131.919167,66.4320815 131.919167,66.4320815 L112.5222,61.646187 L62.9411781,61.646187 L31.470589,138.021087 L34.3405484,174.31412 Z" id="Shape" fill="#3B3D4B" fill-rule="nonzero"></path>
                                    <g id="concrete-wall" transform="translate(2.401544, 4.806584)">
                                        <mask id="mask-3" fill="white">
                                            <use xlink:href="#path-2"></use>
                                        </mask>
                                        <g id="Mask">
                                            <use fill="black" fill-opacity="1" filter="url(#filter-4)" xlink:href="#path-2"></use>
                                            <use fill="url(#radialGradient-1)" fill-rule="evenodd" xlink:href="#path-2"></use>
                                        </g>
                                    </g>
                                    <path d="M204.855721,93.4524441 C205.647434,93.0536196 208.220501,91.7574398 211.189425,88.6665496 C217.127271,89.4641987 222.966154,91.3586153 222.966154,91.3586153 C212.179066,84.7780104 197.433412,80.8894711 181.104333,80.9891772 C181.104333,80.9891772 187.339072,89.9627294 204.657793,93.6518564 C204.657793,93.6518564 204.756757,93.5521503 204.855721,93.4524441 Z" id="Shape" fill="#191A20" fill-rule="nonzero" opacity="0.895424107"></path>
                                    <path d="M309.460792,85.2292558 C249.884394,33.3751403 174.572701,6.43133511 158.936371,1.24592355 L157.451909,0.73754987 L155.472627,0.127501452 L152.008883,1.24592355 C136.372552,6.43133511 61.0608599,33.3751403 1.48446175,85.2292558 L0.197928233,86.3476779 L0.494820582,88.0761485 C0.593784699,88.4828474 7.02645227,127.83097 28.9964861,172.26283 C41.9607854,198.393237 57.6960799,221.066704 75.7075491,239.87653 C97.7765471,262.85502 123.507217,279.834701 152.107847,290.408874 L153.790237,291.018922 L155.472627,291.628971 L157.253981,290.917248 L158.936371,290.307199 C187.537001,279.733027 213.168707,262.753346 235.336669,239.774855 C253.348138,221.066704 269.083433,198.291563 282.047732,172.161155 C304.017766,127.83097 310.549397,88.3811727 310.549397,87.9744737 L310.84629,86.2460032 L309.460792,85.2292558 Z M276.604705,169.415938 C263.937299,194.936296 248.597861,217.203064 230.982248,235.504516 C209.111178,258.177982 183.776364,274.852639 155.472627,285.121788 C127.16889,274.852639 101.834076,258.279657 79.9630061,235.606191 C62.3473934,217.304738 47.0079553,195.139646 34.3405484,169.619287 C15.2404739,131.186237 8.11505755,96.7185011 6.6305958,88.7878716 C67.6914557,36.2220329 144.883466,9.98995088 155.472627,6.53300985 C165.962823,9.98995088 243.253798,36.2220329 304.314658,88.7878716 C302.830196,96.6168263 295.605816,131.084562 276.604705,169.415938 Z" id="Shape" fill="#4F5262" fill-rule="nonzero"></path>
                                </g>
                            </g>
                        </g>
                    </g>
                </g>
            </g>
        </g>
    </g>
</svg>