<svg width="196" height="207" viewBox="0 0 196 139" fill="none" xmlns="http://www.w3.org/2000/svg">
<path d="M164.136 43.186L151.394 18.947L132.814 24.4615L164.136 43.186Z" fill="#212B36"/>
<path d="M142.103 97.4744L170.164 81.3908L141.976 60.7076L142.103 97.4744Z" fill="#212B36"/>
<path d="M184.938 69.874L169.082 50.6086L173.287 79.2351L184.938 69.874Z" fill="#212B36"/>
<path d="M184.596 65.6282L181.205 47.3535L169.764 47.6113L184.596 65.6282Z" fill="#212B36"/>
<path d="M166.257 48.2178L143.146 58.5544L170.754 78.813L166.257 48.2178Z" fill="#212B36"/>
<path d="M139.529 60.5888L110.696 80.0817L139.658 97.4188L139.529 60.5888Z" fill="#212B36"/>
<path d="M164.606 46.2971L131.961 26.784L141.496 56.6337L164.606 46.2971Z" fill="#212B36"/>
<path d="M138.287 99.433L109.872 82.4194L112.547 111.296L138.287 99.433Z" fill="#212B36"/>
<path d="M79.9604 2.45146L61.3379 8.27935L73.6706 6.62146L79.9604 2.45146Z" fill="#212B36"/>
<path d="M97.1268 15.2597L108.452 5.88855L79.4512 8.51944L97.1268 15.2597Z" fill="#212B36"/>
<path d="M104.531 3.8086L88.0089 0.0353851L78.7969 6.14128L104.531 3.8086Z" fill="#212B36"/>
<path d="M112.921 3.10097L111.61 2.93417L112.382 3.11108L112.921 3.10097Z" fill="#212B36"/>
<path d="M129.243 5.21881L129.149 5.16574L119.303 5.38309L142.026 12.9093L129.243 5.21881Z" fill="#212B36"/>
<path d="M147.957 17.4357L116.175 6.90451L130.216 22.7025L147.957 17.4357Z" fill="#212B36"/>
<path d="M179.239 44.9703L156.513 23.443L167.965 45.223L179.239 44.9703Z" fill="#212B36"/>
<path d="M161.147 24.3199L160.699 24.0546L162.061 25.3435L161.147 24.3199Z" fill="#212B36"/>
<path d="M138.319 58.471L104.058 41.8239L109.362 78.0473L138.319 58.471Z" fill="#212B36"/>
<path d="M71.624 29.3972L100.874 37.9748L96.4906 18.3606L71.624 29.3972Z" fill="#212B36"/>
<path d="M70.6622 62.4514L99.8662 40.2114L69.3945 31.2725L70.6622 62.4514Z" fill="#212B36"/>
<path d="M129.11 25.8894L105.114 39.6352L138.717 55.9639L129.11 25.8894Z" fill="#212B36"/>
<path d="M103.348 37.8459L126.516 24.5752L98.9746 18.2621L103.348 37.8459Z" fill="#212B36"/>
<path d="M107.433 82.5988L81.7646 104.551L110.113 111.534L107.433 82.5988Z" fill="#212B36"/>
<path d="M100.034 16.0153L126.38 22.0555L112.123 6.01491L100.034 16.0153Z" fill="#212B36"/>
<path d="M101.607 41.9452L71.9902 64.4985L106.919 78.2418L101.607 41.9452Z" fill="#212B36"/>
<path d="M35.7734 55.643L64.9978 30.6811L37.9167 29.2431L35.7734 55.643Z" fill="#212B36"/>
<path d="M69.9639 27.4765L94.1762 16.728L74.9402 9.39641L69.9639 27.4765Z" fill="#212B36"/>
<path d="M106.107 80.5341L71.2646 66.8236L79.9014 102.941L106.107 80.5341Z" fill="#212B36"/>
<path d="M68.8418 67.1825L41.832 92.9784L77.5015 103.411L68.8418 67.1825Z" fill="#212B36"/>
<path d="M37.0537 57.7507L68.2508 63.3739L66.9832 32.1873L37.0537 57.7507Z" fill="#212B36"/>
<path d="M67.1866 28.3661L72.1808 10.2127L41.167 26.9887L67.1866 28.3661Z" fill="#212B36"/>
<path d="M142.955 99.7868L166.623 120.933L170.902 83.774L142.955 99.7868Z" fill="#212B36"/>
<path d="M66.9682 65.608L35.7686 59.9823L40.3351 91.0425L66.9682 65.608Z" fill="#212B36"/>
<path d="M190.967 96.5014L195.183 81.3099L188.312 73.7029L190.967 96.5014Z" fill="#212B36"/>
<path d="M169.147 120.351L188.783 102.729L173.279 84.4539L169.147 120.351Z" fill="#212B36"/>
<path d="M174.124 81.6789L188.796 98.9756L185.698 72.3811L174.124 81.6789Z" fill="#212B36"/>
<path d="M21.2979 117.945L50.2982 131.593L38.9913 96.0818L21.2979 117.945Z" fill="#212B36"/>
<path d="M13.437 48.5161L4.13086 67.3493L9.97013 61.0564L13.437 48.5161Z" fill="#212B36"/>
<path d="M18.2051 87.2288L20.3585 115.231L37.4436 94.1156L18.2051 87.2288Z" fill="#212B36"/>
<path d="M3.58105 98.7305L17.8763 114.86L15.812 87.9794L3.58105 98.7305Z" fill="#212B36"/>
<path d="M0.600586 74.734L2.35695 91.5833L8.74095 65.9669L0.600586 74.734Z" fill="#212B36"/>
<path d="M41.9417 17.61L25.3174 31.8285L35.9574 27.0166L41.9417 17.61Z" fill="#212B36"/>
<path d="M133.415 134.605L165.248 122.962L141.586 101.826L133.415 134.605Z" fill="#212B36"/>
<path d="M35.2395 32.018L13.8271 60.0606L33.1726 57.4196L35.2395 32.018Z" fill="#212B36"/>
<path d="M19.0625 37.3253L13.9258 55.9184L32.8996 31.0652L19.0625 37.3253Z" fill="#212B36"/>
<path d="M81.2178 106.919L93.7541 137.456L109.508 113.886L81.2178 106.919Z" fill="#212B36"/>
<path d="M95.9277 138.598L129.215 135.543L111.615 115.132L95.9277 138.598Z" fill="#212B36"/>
<path d="M113.464 113.553L131.061 133.958L139.091 101.74L113.464 113.553Z" fill="#212B36"/>
<path d="M54.7783 133.026L91.5525 138.525L78.7667 107.384L54.7783 133.026Z" fill="#212B36"/>
<path d="M41.3223 95.3591L52.8379 131.529L76.9383 105.774L41.3223 95.3591Z" fill="#212B36"/>
<path d="M67.7035 9.87154L48.0729 12.51L40.3398 24.6738L67.7035 9.87154Z" fill="#212B36"/>
<path d="M192.749 74.9817L185.576 57.5106L187.798 69.4975L192.749 74.9817Z" fill="#212B36"/>
<path d="M33.5746 61.8702L18.7041 84.8279L37.9656 91.7274L33.5746 61.8702Z" fill="#212B36"/>
<path d="M31.849 60.0505L12.5723 62.6814L17.3628 82.4093L31.849 60.0505Z" fill="#212B36"/>
<path d="M3.98633 95.1341L15.4841 85.025L11.0551 66.7756L3.98633 95.1341Z" fill="#212B36"/>
</svg>
