<?xml version="1.0" encoding="UTF-8"?>
<svg width="280px" height="325px" viewBox="0 0 280 325" version="1.1" xmlns="http://www.w3.org/2000/svg" xmlns:xlink="http://www.w3.org/1999/xlink">
    <!-- Generator: Sketch 52.2 (67145) - http://www.bohemiancoding.com/sketch -->
    <title>Group</title>
    <desc>Created with Sketch.</desc>
    <defs>
        <polygon id="path-1" points="3.12647036 28.08771 0.0543403442 2.20544893 10.128826 0.374847611"></polygon>
        <path d="M9.18330402,0.140440692 L10.4063098,0.485197694 C6.66421415,15.5550783 4.48926195,24.27236 3.88145315,26.6371499 C3.27364436,29.0019399 2.76059656,30.1843081 2.34225621,30.1843081 L0.269024857,2.51401153 L1.33709369,2.43862438 L2.96976673,25.589654 L9.18330402,0.140440692 Z" id="path-3"></path>
        <path d="M102.379832,61.7528377 L83.0960765,2.45613262 L3.40748757,91.5662068 L102.379832,61.7528377 Z M83.5387228,0.3548229 L103.484841,61.6884802 L103.484841,62.2425865 L103.04696,62.6702801 L0.0724359465,93.6891474 L83.5387228,0.3548229 Z" id="path-5"></path>
        <path d="M139.832054,313.542599 L269.823312,236.492381 L269.823312,45.8300329 L139.832054,10.3462974 L9.84084895,45.8300329 L9.84084895,236.492381 L139.832054,313.542599 Z M139.847472,324.614283 L139.727763,324.902821 L0,242.099193 L0,38.3151977 L139.727763,0.17369028 L139.733545,0.194839374 L279.664161,38.3151977 L279.664161,242.099193 L139.936398,324.826738 L139.847472,324.614283 Z" id="path-7"></path>
    </defs>
    <g id="Page-1" stroke="none" stroke-width="1" fill="none" fill-rule="evenodd">
        <g id="Project---Contribute@2x" transform="translate(-793.000000, -771.000000)">
            <g id="Group" transform="translate(793.000000, 771.000000)">
                <g id="Group-91" transform="translate(246.806883, 107.084020)">
                    <mask id="mask-2" fill="white">
                        <use xlink:href="#path-1"></use>
                    </mask>
                    <g id="Clip-90"></g>
                    <polygon id="Fill-89" fill-opacity="0" fill="#363636" mask="url(#mask-2)" points="-2.6225239 30.7648105 12.8056795 30.7648105 12.8056795 -2.30225824 -2.6225239 -2.30225824"></polygon>
                </g>
                <g id="Group-94" transform="translate(246.806883, 107.084020)">
                    <mask id="mask-4" fill="white">
                        <use xlink:href="#path-3"></use>
                    </mask>
                    <g id="Clip-93"></g>
                    <polygon id="Fill-92" fill="#FFFFFF" mask="url(#mask-4)" points="-2.40783939 32.8614086 13.0831847 32.8614086 13.0831847 -2.53665445 -2.40783939 -2.53665445"></polygon>
                </g>
                <g id="Group-107" transform="translate(91.013384, 49.258649)" stroke="#FFFFFF" stroke-width="1.33749992">
                    <polyline id="Stroke-95" points="158.420199 87.6248456 146.223993 75.9627265 140.334629 69.6715404 128.021316 63.4472817 101.871174 65.2038676"></polyline>
                    <path d="M0.534837476,229.293122 L48.5850753,174.011532" id="Stroke-97"></path>
                    <path d="M46.8451243,175.95243 L46.8451243,263.295404" id="Stroke-99"></path>
                    <polyline id="Stroke-101" points="146.022945 75.895799 117.77587 75.895799 56.2141491 178.696458 48.7189293 174.011532 20.0764818 134.658155"></polyline>
                    <polyline id="Stroke-103" points="59.8279159 258.875618 92.4856597 222.065486 61.500956 170.062809"></polyline>
                    <polyline id="Stroke-105" points="10.8413002 25.0308896 42.1606119 5.35420099 81.5110516 0.401565074 123.938815 16.464168 132.90631 30.3850906"></polyline>
                </g>
                <g id="Group-110" transform="translate(18.202677, 73.352554)">
                    <mask id="mask-6" fill="white">
                        <use xlink:href="#path-5"></use>
                    </mask>
                    <g id="Clip-109"></g>
                    <polygon id="Fill-108" fill="#FFFFFF" mask="url(#mask-6)" points="-2.6044283 96.3662479 106.161706 96.3662479 106.161706 -2.32227759 -2.6044283 -2.32227759"></polygon>
                </g>
                <g id="Group-129" transform="translate(3.747610, 73.887974)" stroke="#FFFFFF" stroke-width="1.33749992">
                    <path d="M85.9273423,212.829489 L117.51434,61.3056013" id="Stroke-111"></path>
                    <polygon id="Stroke-113" points="117.882409 61.1048188 189.119924 40.8252578 200.095067 14.8573846 186.978967 11.3776771"></polygon>
                    <polyline id="Stroke-115" points="173.795149 20.8811215 158.604207 17.4011532 156.797323 11.2438221 143.948375 5.9565486"></polyline>
                    <polygon id="Stroke-117" points="3.48099426 109.2257 15.7935258 92.6276771 11.7782294 169.728171 0.26875717 163.57084"></polygon>
                    <path d="M161.6826,123.146623 L269.561568,123.146623" id="Stroke-119"></path>
                    <path d="M188.049713,79.6437397 L220.8413,123.146623" id="Stroke-121"></path>
                    <path d="M179.483748,197.436161 L223.785851,188.467875" id="Stroke-123"></path>
                    <path d="M98.2409303,0.267710049 L186.979503,11.2438221" id="Stroke-125"></path>
                    <polyline id="Stroke-127" points="187.112811 11.2438114 220.171559 5.75523064 241.05109 12.1802718 252.695449 33.3293657 243.728489 35.7392809 227.131407 18.2037479 199.827391 14.8573723"></polyline>
                </g>
                <g id="Group-132">
                    <mask id="mask-8" fill="white">
                        <use xlink:href="#path-7"></use>
                    </mask>
                    <g id="Clip-131"></g>
                    <polygon id="Fill-130" fill="#F9806D" mask="url(#mask-8)" points="-2.67686424 327.579922 282.341025 327.579922 282.341025 -2.50346376 -2.67686424 -2.50346376"></polygon>
                </g>
            </g>
        </g>
    </g>
</svg>