<svg width="1440" height="553" viewBox="0 0 1440 553" fill="none" xmlns="http://www.w3.org/2000/svg">
<rect width="1440" height="553" fill="url(#paint0_linear)"/>
<mask id="mask0" mask-type="alpha" maskUnits="userSpaceOnUse" x="366" y="0" width="708" height="553">
<rect x="366" width="708" height="553" fill="url(#paint1_linear)"/>
</mask>
<g mask="url(#mask0)">
<path opacity="0.1" d="M713.588 248.766C637.437 248.766 575.705 187.034 575.705 110.883C575.705 34.7324 637.437 -27 713.588 -27C789.738 -27 851.471 34.7324 851.471 110.883C851.471 187.034 789.738 248.766 713.588 248.766Z" fill="white"/>
<path opacity="0.1" d="M520.884 579.35C444.733 579.35 383 517.618 383 441.467C383 365.316 444.733 303.584 520.884 303.584C597.034 303.584 658.767 365.316 658.767 441.467C658.767 517.618 597.034 579.35 520.884 579.35Z" fill="white"/>
<path opacity="0.1" d="M906.293 579.35C830.142 579.35 768.41 517.618 768.41 441.467C768.41 365.316 830.142 303.584 906.293 303.584C982.443 303.584 1044.18 365.316 1044.18 441.467C1044.18 517.618 982.443 579.35 906.293 579.35Z" fill="white"/>
</g>
<defs>
<linearGradient id="paint0_linear" x1="77.1429" y1="64.1875" x2="375.205" y2="950.094" gradientUnits="userSpaceOnUse">
<stop stop-color="#FF9372"/>
<stop offset="1" stop-color="#FFD770"/>
</linearGradient>
<linearGradient id="paint1_linear" x1="403.929" y1="64.1875" x2="863.553" y2="735.854" gradientUnits="userSpaceOnUse">
<stop stop-color="#FF9372"/>
<stop offset="1" stop-color="#FFD770"/>
</linearGradient>
</defs>
</svg>
