<svg width="154" height="169" viewBox="0 0 154 169" fill="none" xmlns="http://www.w3.org/2000/svg">
<path fill-rule="evenodd" clip-rule="evenodd" d="M8.57442 54.9061H3.52478C2.12796 54.9061 1 56.0201 1 57.3993V102.277C1 103.655 2.12796 104.77 3.52478 104.77L8.57433 104.719C9.97114 104.719 11.0991 103.604 11.0991 102.226V57.3495C11.0992 55.9726 9.97123 54.9061 8.57442 54.9061Z" fill="url(#paint0_linear)"/>
<path d="M8.57442 54.9061H3.52478C2.12796 54.9061 1 56.0201 1 57.3993V102.277C1 103.655 2.12796 104.77 3.52478 104.77L8.57433 104.719C9.97114 104.719 11.0991 103.604 11.0991 102.226V57.3495C11.0992 55.9726 9.97123 54.9061 8.57442 54.9061Z" stroke="url(#paint1_linear)" stroke-width="0.8" stroke-dasharray="1"/>
<path fill-rule="evenodd" clip-rule="evenodd" d="M77.1408 56.6116C76.7907 55.9822 76.157 55.4611 75.2571 55.063C75.03 54.9633 74.791 54.8963 74.547 54.8635C72.402 54.592 62.2757 52.4177 44.5699 52.4177C46.8632 45.3765 47.1244 44.2078 47.1244 37.4538C47.1244 29.9741 42.4645 25.0694 39.5452 25C38.1619 25 37.0378 26.0992 37.0229 27.4627C36.9095 37.2967 32.0842 49.7126 19.0868 54.9986C17.7183 55.4247 16.7988 56.6055 16.7988 57.9446L16.8197 97.2902C16.8197 99.3938 19.1449 99.7833 19.1449 99.7833C19.8648 99.9929 20.4726 100.224 31.9254 102.951C32.12 102.995 39.6316 104.77 47.2061 104.77H62.2734C65.1137 104.77 66.455 103.835 67.2884 102.281C67.3918 102.082 77.3877 82.0514 77.4518 57.8181C77.4516 57.3968 77.348 56.9805 77.1408 56.6116Z" fill="url(#paint2_linear)"/>
<path fill-rule="evenodd" clip-rule="evenodd" d="M146.426 126.053H151.475C152.872 126.053 154 124.939 154 123.559V78.682C154 77.3039 152.872 76.1888 151.475 76.1888L146.426 76.2401C145.029 76.2401 143.901 77.3549 143.901 78.7331V123.609C143.901 124.986 145.029 126.053 146.426 126.053Z" fill="url(#paint3_linear)"/>
<path fill-rule="evenodd" clip-rule="evenodd" d="M77.8592 119.347C78.2093 119.976 78.843 120.498 79.7429 120.896C79.97 120.995 80.209 121.062 80.453 121.095C82.598 121.367 92.7243 123.541 110.43 123.541C108.137 130.582 107.876 131.751 107.876 138.505C107.876 145.985 112.536 150.889 115.455 150.959C116.838 150.959 117.962 149.859 117.977 148.496C118.091 138.662 122.916 126.246 135.913 120.96C137.282 120.534 138.201 119.353 138.201 118.014L138.18 78.6685C138.18 76.5648 135.855 76.1753 135.855 76.1753C135.135 75.9658 134.527 75.7346 123.075 73.0077C122.88 72.9639 115.368 71.1888 107.794 71.1888H92.7266C89.8863 71.1888 88.545 72.1238 87.7116 73.6773C87.6082 73.8767 77.6123 93.9073 77.5482 118.141C77.5484 118.562 77.652 118.978 77.8592 119.347Z" fill="url(#paint4_linear)"/>
<path d="M77.1408 56.6116C76.7907 55.9822 76.157 55.4611 75.2571 55.063C75.03 54.9633 74.791 54.8963 74.547 54.8635C72.402 54.592 62.2757 52.4177 44.5699 52.4177C46.8632 45.3765 47.1244 44.2078 47.1244 37.4538C47.1244 29.9741 42.4645 25.0694 39.5452 25C38.1619 25 37.0378 26.0992 37.0229 27.4627C36.9095 37.2967 32.0842 49.7126 19.0868 54.9986C17.7183 55.4247 16.7988 56.6055 16.7988 57.9446L16.8197 97.2902C16.8197 99.3938 19.1449 99.7833 19.1449 99.7833C19.8648 99.9929 20.4726 100.224 31.9254 102.951C32.12 102.995 39.6316 104.77 47.2061 104.77H62.2734C65.1137 104.77 66.455 103.835 67.2884 102.281C67.3918 102.082 77.3877 82.0514 77.4518 57.8181C77.4516 57.3968 77.348 56.9805 77.1408 56.6116Z" stroke="url(#paint5_linear)" stroke-width="0.8" stroke-dasharray="1"/>
<path d="M77.8592 119.347C78.2093 119.977 78.843 120.498 79.7429 120.896C79.97 120.995 80.209 121.062 80.453 121.095C82.598 121.367 92.7243 123.541 110.43 123.541C108.137 130.582 107.876 131.751 107.876 138.505C107.876 145.985 112.536 150.889 115.455 150.959C116.838 150.959 117.962 149.859 117.977 148.496C118.091 138.662 122.916 126.246 135.913 120.96C137.282 120.534 138.201 119.353 138.201 118.014L138.18 78.6686C138.18 76.5649 135.855 76.1754 135.855 76.1754C135.135 75.9658 134.527 75.7346 123.075 73.0077C122.88 72.9639 115.368 71.1889 107.794 71.1889H92.7266C89.8863 71.1889 88.545 72.1239 87.7116 73.6773C87.6082 73.8768 77.6123 93.9073 77.5482 118.141C77.5484 118.562 77.652 118.978 77.8592 119.347Z" stroke="url(#paint6_linear)" stroke-width="0.8" stroke-dasharray="1"/>
<path d="M58.5 138C69.2696 138 78 129.27 78 118.5C78 107.73 69.2696 99 58.5 99C47.7304 99 39 107.73 39 118.5C39 129.27 47.7304 138 58.5 138Z" stroke="url(#paint7_linear)" stroke-width="0.8" stroke-dasharray="1"/>
<path d="M96.5 65C107.27 65 116 56.2696 116 45.5C116 34.7304 107.27 26 96.5 26C85.7304 26 77 34.7304 77 45.5C77 56.2696 85.7304 65 96.5 65Z" stroke="url(#paint8_linear)" stroke-width="0.8" stroke-dasharray="1"/>
<path d="M131.784 1.09607L18.9375 168.5" stroke="url(#paint9_linear)" stroke-width="0.8" stroke-dasharray="1"/>
<defs>
<linearGradient id="paint0_linear" x1="52.3545" y1="-56.234" x2="1.2006" y2="-54.6744" gradientUnits="userSpaceOnUse">
<stop stop-color="#B0E4EF"/>
<stop offset="1" stop-color="#44C9E6" stop-opacity="0.01"/>
</linearGradient>
<linearGradient id="paint1_linear" x1="18.3078" y1="7.93333" x2="-6.16908" y2="11.0411" gradientUnits="userSpaceOnUse">
<stop stop-color="#5BCFE8" stop-opacity="0.01"/>
<stop offset="1" stop-color="#2CB2E1"/>
</linearGradient>
<linearGradient id="paint2_linear" x1="64.3313" y1="30.2998" x2="17.6852" y2="67.6803" gradientUnits="userSpaceOnUse">
<stop stop-color="#B0E4EF"/>
<stop offset="1" stop-color="#44C9E6" stop-opacity="0.293507"/>
</linearGradient>
<linearGradient id="paint3_linear" x1="121.447" y1="227.687" x2="168.029" y2="225.283" gradientUnits="userSpaceOnUse">
<stop stop-color="#B0E4EF"/>
<stop offset="1" stop-color="#44C9E6"/>
<stop offset="1" stop-color="#44C9E6"/>
</linearGradient>
<linearGradient id="paint4_linear" x1="111.871" y1="150.294" x2="163.043" y2="104.483" gradientUnits="userSpaceOnUse">
<stop stop-color="#B0E4EF" stop-opacity="0.428159"/>
<stop offset="1" stop-color="#44C9E6"/>
</linearGradient>
<linearGradient id="paint5_linear" x1="51.858" y1="39.2413" x2="15.9531" y2="83.4788" gradientUnits="userSpaceOnUse">
<stop stop-color="#5BCFE8" stop-opacity="0.01"/>
<stop offset="1" stop-color="#2CB2E1"/>
</linearGradient>
<linearGradient id="paint6_linear" x1="34.2543" y1="226.104" x2="155.972" y2="168.086" gradientUnits="userSpaceOnUse">
<stop stop-color="#5BCFE8" stop-opacity="0.01"/>
<stop offset="1" stop-color="#2CB2E1"/>
</linearGradient>
<linearGradient id="paint7_linear" x1="61.5431" y1="105.963" x2="45.5096" y2="131.944" gradientUnits="userSpaceOnUse">
<stop stop-color="#5BCFE8" stop-opacity="0.01"/>
<stop offset="1" stop-color="#2CB2E1"/>
</linearGradient>
<linearGradient id="paint8_linear" x1="109.24" y1="84.4631" x2="135.26" y2="39.0099" gradientUnits="userSpaceOnUse">
<stop stop-color="#5BCFE8" stop-opacity="0.01"/>
<stop offset="1" stop-color="#2CB2E1"/>
</linearGradient>
<linearGradient id="paint9_linear" x1="112.224" y1="252.043" x2="240.033" y2="101.542" gradientUnits="userSpaceOnUse">
<stop stop-color="#5BCFE8" stop-opacity="0.01"/>
<stop offset="1" stop-color="#2CB2E1"/>
</linearGradient>
</defs>
</svg>
