<svg width="303" height="232" viewBox="0 0 303 232" fill="none" xmlns="http://www.w3.org/2000/svg">
<path d="M166.425 156.686C200.891 156.686 228.831 128.712 228.831 94.2044C228.831 59.6966 200.891 31.7225 166.425 31.7225C131.959 31.7225 104.019 59.6966 104.019 94.2044C104.019 128.712 131.959 156.686 166.425 156.686Z" fill="#44C9E6"/>
<path d="M210.877 77.1559C215.348 83.2211 217.068 88.6953 217.068 96.1334C217.068 105.159 213.35 113.495 207.021 120.243L210.872 134.644H222.57L234.888 120.66L238.189 100.2L238.878 88.006L226.699 74.2305C215.875 72.9213 210.599 73.9003 210.877 77.1559Z" fill="#CAF2F9"/>
<mask id="mask0" mask-type="alpha" maskUnits="userSpaceOnUse" x="72" y="58" width="162" height="158">
<path d="M74.7089 136.301L76.8401 144.776C76.8401 144.776 102.026 196.512 158.722 215.733C158.722 215.733 210.305 193.685 233.215 156.281L201.589 128.655C201.589 128.655 186.451 140.71 163.952 140.71C141.453 140.71 110.904 127.276 110.904 99.5802C110.904 71.8845 142.553 61.7586 142.553 61.7586L129.065 58.4508H94.5902L72.7109 111.224L74.7089 136.301Z" fill="#CAF2F9"/>
</mask>
<g mask="url(#mask0)">
<circle cx="161.961" cy="112.62" r="89.4015" fill="#CAF2F9"/>
</g>
<mask id="mask1" mask-type="alpha" maskUnits="userSpaceOnUse" x="51" y="0" width="215" height="160">
<path d="M265.235 78.1408C264.273 77.1792 255.61 32.5799 179.026 6.19339C176.606 4.53663 95.7774 -8.49733 108.119 9.11878C36.9847 27.2794 53.1713 75.7542 53.1713 78.1408C53.1713 80.5275 63.3523 116.391 69.9601 130.995C70.5102 132.235 79.3187 147.806 85.857 156.281C82.0058 147.806 77.8072 140.437 77.8072 127.763C77.8072 92.0089 105.466 62.9345 140.075 61.6949C140.903 61.6949 141.795 61.6949 142.623 61.7644L134.364 53.4979C134.364 53.4979 167.6 47.9194 210.259 73.7498C210.259 73.7498 210.878 75.059 210.259 78.9171C210.259 78.9171 230.348 87.5948 232.068 104.475C233.788 121.356 223.121 131.001 214.521 132.374C214.521 132.374 218.992 125.416 212.112 121.697C210.664 120.869 208.944 120.527 207.224 120.597C194.084 120.597 192.566 135.618 192.566 135.618C192.427 136.377 192.427 137.135 192.427 137.888C192.427 137.888 190.227 159.867 229.306 159.45C229.306 159.45 249.124 136.991 254.353 116.808C256.282 109.37 257.654 103.786 258.552 99.6555C260.752 93.7989 262.889 85.1734 264.951 78.9055L265.235 78.1408Z" fill="url(#paint0_radial)"/>
</mask>
<g mask="url(#mask1)">
<circle cx="158.264" cy="107.915" r="87.3849" fill="#7ED7E8"/>
<circle cx="162.369" cy="112.202" r="86.6227" fill="url(#paint1_linear)"/>
</g>
<path d="M193.261 80.429C193.811 80.151 195.6 79.2588 197.662 77.1213C201.791 77.6716 205.851 78.9808 205.851 78.9808C198.351 74.4334 188.101 71.7455 176.744 71.815C176.744 71.815 181.082 78.0134 193.122 80.5622C193.122 80.568 193.191 80.4985 193.261 80.429Z" fill="white"/>
<path d="M161.287 206.713C154.911 206.713 148.534 206.07 142.338 204.802C136.292 203.562 130.35 201.72 124.669 199.316C119.092 196.958 113.718 194.039 108.685 190.638C103.704 187.273 99.0251 183.409 94.7686 179.151C90.512 174.893 86.6493 170.213 83.2846 165.231C79.8851 160.203 76.9663 154.821 74.6093 149.242C72.2059 143.56 70.3643 137.616 69.125 131.568C67.8567 125.37 67.2139 118.992 67.2139 112.614C67.2139 106.236 67.8567 99.8582 69.125 93.6599C70.3643 87.6179 72.2059 81.6686 74.6093 75.9858C76.9663 70.4073 79.8851 65.0315 83.2846 59.9975C86.6493 55.0157 90.512 50.335 94.7686 46.0773C99.0251 41.8195 103.704 37.9557 108.685 34.59C113.712 31.1896 119.092 28.27 124.669 25.9123C130.35 23.5083 136.292 21.6661 142.338 20.4264C148.534 19.1578 154.911 18.5148 161.287 18.5148C167.663 18.5148 174.039 19.1578 180.236 20.4264C186.282 21.6661 192.224 23.5083 197.905 25.9123C203.482 28.27 208.856 31.1896 213.889 34.59C218.869 37.9557 223.548 41.8195 227.805 46.0773C232.061 50.335 235.924 55.0157 239.289 59.9975C242.688 65.0257 245.607 70.4073 247.964 75.9858C250.368 81.6686 252.209 87.6121 253.449 93.6599C254.717 99.8582 255.36 106.236 255.36 112.614C255.36 118.992 254.717 125.37 253.449 131.568C252.209 137.616 250.368 143.56 247.964 149.242C245.607 154.821 242.688 160.197 239.289 165.231C235.924 170.213 232.061 174.893 227.805 179.151C223.548 183.409 218.869 187.273 213.889 190.638C208.862 194.039 203.482 196.958 197.905 199.316C192.224 201.72 186.282 203.562 180.236 204.802C174.039 206.07 167.663 206.713 161.287 206.713ZM161.287 31.8616C150.382 31.8616 139.813 33.9933 129.863 38.2048C125.08 40.2265 120.47 42.7348 116.156 45.6486C111.882 48.5392 107.857 51.8585 104.203 55.5138C100.548 59.1691 97.2241 63.1952 94.34 67.4761C91.427 71.7918 88.9194 76.4087 86.8983 81.1878C82.6881 91.14 80.5569 101.712 80.5569 112.62C80.5569 123.528 82.6881 134.1 86.8983 144.052C88.9194 148.837 91.427 153.448 94.34 157.764C97.2299 162.039 100.548 166.065 104.203 169.72C107.857 173.376 111.882 176.695 116.156 179.585C120.47 182.499 125.086 185.008 129.863 187.029C139.813 191.241 150.382 193.372 161.287 193.372C172.192 193.372 182.761 191.241 192.71 187.029C197.494 185.008 202.103 182.499 206.418 179.585C210.692 176.695 214.717 173.376 218.371 169.72C222.025 166.065 225.344 162.039 228.233 157.764C231.146 153.448 233.654 148.831 235.675 144.052C239.885 134.1 242.017 123.528 242.017 112.62C242.017 101.712 239.885 91.14 235.675 81.1878C233.654 76.4029 231.146 71.7918 228.233 67.4761C225.344 63.201 222.025 59.1749 218.371 55.5196C214.717 51.8643 210.692 48.545 206.418 45.6544C202.103 42.7406 197.488 40.2323 192.71 38.2106C182.761 33.9991 172.192 31.8616 161.287 31.8616Z" fill="url(#paint2_radial)"/>
<path fill-rule="evenodd" clip-rule="evenodd" d="M75.9238 205.754C75.9238 205.754 80.6707 186.05 91.9857 175.496C103.3 164.943 110.667 173.348 110.667 173.348L75.9238 205.754Z" fill="#6F6DA4"/>
<path fill-rule="evenodd" clip-rule="evenodd" d="M75.9778 205.813C75.9778 205.813 95.9401 202.47 107.255 191.917C118.569 181.364 110.722 173.407 110.722 173.407L75.9778 205.813Z" fill="#6F6DA4"/>
<path fill-rule="evenodd" clip-rule="evenodd" d="M115.541 168.259L74.6455 206.402L75.3283 207.136L116.224 168.992L115.541 168.259Z" fill="#3E3F71"/>
<path fill-rule="evenodd" clip-rule="evenodd" d="M22.6426 196.826C22.6426 196.826 38.7522 166.331 61.845 153.687C84.9366 141.042 93.551 157.997 93.551 157.997L22.6426 196.826Z" fill="#FFD08D"/>
<path fill-rule="evenodd" clip-rule="evenodd" d="M22.7079 196.946C22.7079 196.946 57.0278 199.825 80.1206 187.181C103.212 174.536 93.6174 158.118 93.6174 158.118L22.7079 196.946Z" fill="#FFD08D"/>
<path fill-rule="evenodd" clip-rule="evenodd" d="M103.727 151.654L20.2624 197.357L21.0798 198.854L104.544 153.151L103.727 151.654Z" fill="#3E3F71"/>
<defs>
<radialGradient id="paint0_radial" cx="0" cy="0" r="1" gradientUnits="userSpaceOnUse" gradientTransform="translate(25.1429 227.484) scale(0.38788 0.387989)">
<stop stop-color="#00C9FF"/>
<stop offset="1" stop-color="#7DD6E7"/>
</radialGradient>
<linearGradient id="paint1_linear" x1="113.756" y1="36.7326" x2="88.1628" y2="185.371" gradientUnits="userSpaceOnUse">
<stop stop-color="#98DEEE"/>
<stop offset="1" stop-color="#44C9E6"/>
</linearGradient>
<radialGradient id="paint2_radial" cx="0" cy="0" r="1" gradientUnits="userSpaceOnUse" gradientTransform="translate(161.287 112.62) scale(94.068 94.0944)">
<stop stop-color="#00C9FF"/>
<stop offset="1" stop-color="#54CDE7"/>
</radialGradient>
</defs>
</svg>
