<?xml version="1.0" encoding="UTF-8"?>
<svg width="956px" height="84px" viewBox="0 0 956 84" version="1.1" xmlns="http://www.w3.org/2000/svg" xmlns:xlink="http://www.w3.org/1999/xlink">
    <!-- Generator: Sketch 52.4 (67378) - http://www.bohemiancoding.com/sketch -->
    <title>Group 55</title>
    <desc>Created with Sketch.</desc>
    <defs>
        <linearGradient x1="-87.4172185%" y1="-37.6242898%" x2="81.9898702%" y2="87.5567036%" id="linearGradient-1">
            <stop stop-color="#FAF9F4" offset="0%"></stop>
            <stop stop-color="#F9F5DE" offset="100%"></stop>
        </linearGradient>
        <rect id="path-2" x="22" y="66" width="151" height="22" rx="10.9000002"></rect>
        <filter x="-1.3%" y="-4.5%" width="102.6%" height="118.2%" filterUnits="objectBoundingBox" id="filter-3">
            <feOffset dx="0" dy="1" in="SourceAlpha" result="shadowOffsetOuter1"></feOffset>
            <feGaussianBlur stdDeviation="0.5" in="shadowOffsetOuter1" result="shadowBlurOuter1"></feGaussianBlur>
            <feColorMatrix values="0 0 0 0 0   0 0 0 0 0   0 0 0 0 0  0 0 0 0.0492244112 0" type="matrix" in="shadowBlurOuter1"></feColorMatrix>
        </filter>
        <linearGradient x1="100%" y1="-101.598011%" x2="55.1161229%" y2="100%" id="linearGradient-4">
            <stop stop-color="#C4E5DF" offset="0%"></stop>
            <stop stop-color="#D4EFE6" offset="100%"></stop>
        </linearGradient>
        <linearGradient x1="85.2270987%" y1="-204.270241%" x2="55.1161229%" y2="100%" id="linearGradient-5">
            <stop stop-color="#C4E5DF" offset="0%"></stop>
            <stop stop-color="#D4EFE6" offset="100%"></stop>
        </linearGradient>
        <rect id="path-6" x="194" y="66" width="102" height="22" rx="10.9000002"></rect>
        <filter x="-2.0%" y="-4.5%" width="103.9%" height="118.2%" filterUnits="objectBoundingBox" id="filter-7">
            <feOffset dx="0" dy="1" in="SourceAlpha" result="shadowOffsetOuter1"></feOffset>
            <feGaussianBlur stdDeviation="0.5" in="shadowOffsetOuter1" result="shadowBlurOuter1"></feGaussianBlur>
            <feColorMatrix values="0 0 0 0 0   0 0 0 0 0   0 0 0 0 0  0 0 0 0.05 0" type="matrix" in="shadowBlurOuter1"></feColorMatrix>
        </filter>
        <rect id="path-8" x="317" y="66" width="189" height="22" rx="10.9000002"></rect>
        <filter x="-1.1%" y="-4.5%" width="102.1%" height="118.2%" filterUnits="objectBoundingBox" id="filter-9">
            <feOffset dx="0" dy="1" in="SourceAlpha" result="shadowOffsetOuter1"></feOffset>
            <feGaussianBlur stdDeviation="0.5" in="shadowOffsetOuter1" result="shadowBlurOuter1"></feGaussianBlur>
            <feColorMatrix values="0 0 0 0 0   0 0 0 0 0   0 0 0 0 0  0 0 0 0.04 0" type="matrix" in="shadowBlurOuter1"></feColorMatrix>
        </filter>
        <rect id="path-10" x="527" y="66" width="189" height="22" rx="10.9000002"></rect>
        <filter x="-1.1%" y="-4.5%" width="102.1%" height="118.2%" filterUnits="objectBoundingBox" id="filter-11">
            <feOffset dx="0" dy="1" in="SourceAlpha" result="shadowOffsetOuter1"></feOffset>
            <feGaussianBlur stdDeviation="0.5" in="shadowOffsetOuter1" result="shadowBlurOuter1"></feGaussianBlur>
            <feColorMatrix values="0 0 0 0 0   0 0 0 0 0   0 0 0 0 0  0 0 0 0.04 0" type="matrix" in="shadowBlurOuter1"></feColorMatrix>
        </filter>
        <rect id="path-12" x="737" y="66" width="218" height="22" rx="10.9000002"></rect>
        <filter x="-0.9%" y="-4.5%" width="101.8%" height="118.2%" filterUnits="objectBoundingBox" id="filter-13">
            <feOffset dx="0" dy="1" in="SourceAlpha" result="shadowOffsetOuter1"></feOffset>
            <feGaussianBlur stdDeviation="0.5" in="shadowOffsetOuter1" result="shadowBlurOuter1"></feGaussianBlur>
            <feColorMatrix values="0 0 0 0 0   0 0 0 0 0   0 0 0 0 0  0 0 0 0.04 0" type="matrix" in="shadowBlurOuter1"></feColorMatrix>
        </filter>
    </defs>
    <g id="Page-1" stroke="none" stroke-width="1" fill="none" fill-rule="evenodd">
        <g id="Project@2x" transform="translate(-240.000000, -978.000000)">
            <g id="Group-37" transform="translate(165.000000, 704.000000)">
                <g id="Group-56" transform="translate(75.000000, 71.000000)">
                    <g id="Group-57">
                        <g id="Group-55" transform="translate(0.000000, 197.000000)">
                            <g id="Group-47">
                                <g id="Group-46">
                                    <g id="Group-48">
                                        <g id="Group-51">
                                            <g id="Group-53">
                                                <g id="Rectangle-Copy-12">
                                                    <use fill="black" fill-opacity="1" filter="url(#filter-3)" xlink:href="#path-2"></use>
                                                    <use fill="url(#linearGradient-1)" fill-rule="evenodd" xlink:href="#path-2"></use>
                                                </g>
                                                <path d="M47.4655992,81.4000002 L50.6143993,72.248 L52.0735993,72.248 L55.1711994,81.4000002 L54.0703993,81.4000002 L53.1743993,78.7632001 L49.3983993,78.7632001 L48.5151993,81.4000002 L47.4655992,81.4000002 Z M51.2927993,73.1696001 L49.7055993,77.8800001 L52.8799993,77.8800001 L51.2927993,73.1696001 Z M56.7071994,81.4000002 L56.7071994,74.7056001 L57.7695994,74.7056001 L57.7695994,75.9088001 C58.1919994,75.1536001 58.7679994,74.6288001 59.9711994,74.5904001 L59.9711994,75.5888001 C58.6271994,75.6528001 57.7695994,76.0752001 57.7695994,77.7264001 L57.7695994,81.4000002 L56.7071994,81.4000002 Z M63.1967995,81.5152002 C61.9551995,81.5152002 60.9695994,80.9136002 60.9695994,79.5440002 C60.9695994,77.9952001 62.6079995,77.4704001 64.3231995,77.4704001 L65.2831995,77.4704001 L65.2831995,76.9840001 C65.2831995,75.9216001 64.8735995,75.4736001 63.8495995,75.4736001 C62.9279995,75.4736001 62.4159995,75.8576001 62.3135995,76.6768001 L61.2511995,76.6768001 C61.3919995,75.1536001 62.6079995,74.5904001 63.9007995,74.5904001 C65.1807995,74.5904001 66.3455995,75.1152001 66.3455995,76.9840001 L66.3455995,81.4000002 L65.2831995,81.4000002 L65.2831995,80.5552002 C64.7839995,81.1824002 64.1823995,81.5152002 63.1967995,81.5152002 Z M63.2991995,80.6704002 C64.4255995,80.6704002 65.2831995,80.0944002 65.2831995,79.0576001 L65.2831995,78.2256001 L64.3615995,78.2256001 C63.0175995,78.2256001 62.0319995,78.5584001 62.0319995,79.5440002 C62.0319995,80.2352002 62.3647995,80.6704002 63.2991995,80.6704002 Z M71.1071996,83.8448002 C69.1231996,83.8448002 68.2527996,82.9104002 68.0735996,81.7840002 L69.1615996,81.7840002 C69.3151996,82.5520002 69.9551996,82.9488002 71.0943996,82.9488002 C72.4127996,82.9488002 73.2447996,82.3216002 73.2447996,80.8880002 L73.2447996,79.9152002 C72.8607996,80.5680002 71.9519996,81.1824002 70.9791996,81.1824002 C69.2255996,81.1824002 67.9327996,79.8512002 67.9327996,78.0080001 L67.9327996,77.9184001 C67.9327996,76.1008001 69.2127996,74.5904001 71.0559996,74.5904001 C72.1695996,74.5904001 72.8607996,75.1280001 73.2447996,75.7808001 L73.2447996,74.7056001 L74.3071996,74.7056001 L74.3071996,80.9520002 C74.2943996,82.8976002 72.9759996,83.8448002 71.1071996,83.8448002 Z M71.0943996,80.2992002 C72.3359996,80.2992002 73.2831996,79.4288002 73.2831996,77.9312001 L73.2831996,77.8416001 C73.2831996,76.3440001 72.4639996,75.4736001 71.1583996,75.4736001 C69.8271996,75.4736001 69.0335996,76.4592001 69.0335996,77.8672001 L69.0335996,77.9696001 C69.0335996,79.4288002 69.9679996,80.2992002 71.0943996,80.2992002 Z M79.2479997,80.6320002 C80.5919997,80.6320002 81.4367998,79.6208002 81.4367998,78.1104001 L81.4367998,78.0208001 C81.4367998,76.4720001 80.5791997,75.4736001 79.2479997,75.4736001 C77.9039997,75.4736001 77.0591997,76.4720001 77.0591997,78.0080001 L77.0591997,78.1104001 C77.0591997,79.6336002 77.8911997,80.6320002 79.2479997,80.6320002 Z M79.2351997,81.5152002 C77.3279997,81.5152002 75.9583997,80.0688002 75.9583997,78.1104001 L75.9583997,78.0080001 C75.9583997,75.9984001 77.3535997,74.5904001 79.2479997,74.5904001 C81.1423997,74.5904001 82.5375998,75.9856001 82.5375998,77.9952001 L82.5375998,78.0976001 C82.5375998,80.1200002 81.1423997,81.5152002 79.2351997,81.5152002 Z M84.1887998,81.4000002 L84.1887998,74.7056001 L85.2511998,74.7056001 L85.2511998,75.7680001 C85.5583998,75.1408001 86.3007998,74.5904001 87.4015998,74.5904001 C88.7839999,74.5904001 89.7567999,75.3456001 89.7567999,77.2912001 L89.7567999,81.4000002 L88.6943999,81.4000002 L88.6943999,77.2144001 C88.6943999,76.0368001 88.1951999,75.5120001 87.1199998,75.5120001 C86.1343998,75.5120001 85.2511998,76.1392001 85.2511998,77.3424001 L85.2511998,81.4000002 L84.1887998,81.4000002 Z M96.5792,81.4000002 L94.5183999,74.7056001 L95.6704,74.7056001 L97.232,80.0944002 L98.8576,74.7056001 L99.7792,74.7056001 L101.3024,80.0944002 L102.8768,74.7056001 L103.9648,74.7056001 L101.8784,81.4000002 L100.7008,81.4000002 L99.3056,76.3824001 L97.744,81.4000002 L96.5792,81.4000002 Z M107.0752,81.5152002 C105.8336,81.5152002 104.848,80.9136002 104.848,79.5440002 C104.848,77.9952001 106.4864,77.4704001 108.2016,77.4704001 L109.1616,77.4704001 L109.1616,76.9840001 C109.1616,75.9216001 108.752,75.4736001 107.728,75.4736001 C106.8064,75.4736001 106.2944,75.8576001 106.192,76.6768001 L105.1296,76.6768001 C105.2704,75.1536001 106.4864,74.5904001 107.7792,74.5904001 C109.0592,74.5904001 110.224,75.1152001 110.224,76.9840001 L110.224,81.4000002 L109.1616,81.4000002 L109.1616,80.5552002 C108.6624,81.1824002 108.0608,81.5152002 107.0752,81.5152002 Z M107.1776,80.6704002 C108.304,80.6704002 109.1616,80.0944002 109.1616,79.0576001 L109.1616,78.2256001 L108.24,78.2256001 C106.896,78.2256001 105.9104,78.5584001 105.9104,79.5440002 C105.9104,80.2352002 106.2432,80.6704002 107.1776,80.6704002 Z M114.384,81.5152002 C112.784,81.5152002 111.824,80.7088002 111.76,79.3392002 L112.7968,79.3392002 C112.8736,80.1328002 113.296,80.6320002 114.3712,80.6320002 C115.3824,80.6320002 115.8304,80.2864002 115.8304,79.5696002 C115.8304,78.8656001 115.3056,78.6352001 114.2688,78.4432001 C112.528,78.1232001 111.9392,77.6368001 111.9392,76.4720001 C111.9392,75.2304001 113.1552,74.5904001 114.2048,74.5904001 C115.408,74.5904001 116.4448,75.0768001 116.624,76.5232001 L115.6,76.5232001 C115.4464,75.7936001 115.0368,75.4736001 114.192,75.4736001 C113.424,75.4736001 112.9248,75.8576001 112.9248,76.4336001 C112.9248,77.0352001 113.2576,77.2784001 114.4864,77.4960001 C115.8688,77.7520001 116.8416,78.0592001 116.8416,79.4800002 C116.8416,80.6960002 116.0096,81.5152002 114.384,81.5152002 Z M125.1744,81.5152002 C124.0864,81.5152002 123.2928,80.9648002 122.9088,80.2992002 L122.9088,81.4000002 L121.8464,81.4000002 L121.8464,71.5056 L122.9088,71.5056 L122.9088,75.8320001 C123.2928,75.1792001 124.2016,74.5904001 125.1744,74.5904001 C126.928,74.5904001 128.2208,75.8704001 128.2208,77.9568001 L128.2208,78.0592001 C128.2208,80.1072002 127.0176,81.5152002 125.1744,81.5152002 Z M125.072,80.6320002 C126.4032,80.6320002 127.12,79.7360002 127.12,78.1104001 L127.12,78.0080001 C127.12,76.3184001 126.1856,75.4736001 125.0592,75.4736001 C123.8176,75.4736001 122.8704,76.2928001 122.8704,78.0080001 L122.8704,78.1104001 C122.8704,79.8256002 123.7664,80.6320002 125.072,80.6320002 Z M132.662401,80.6320002 C134.006401,80.6320002 134.851201,79.6208002 134.851201,78.1104001 L134.851201,78.0208001 C134.851201,76.4720001 133.993601,75.4736001 132.662401,75.4736001 C131.3184,75.4736001 130.4736,76.4720001 130.4736,78.0080001 L130.4736,78.1104001 C130.4736,79.6336002 131.3056,80.6320002 132.662401,80.6320002 Z M132.649601,81.5152002 C130.7424,81.5152002 129.3728,80.0688002 129.3728,78.1104001 L129.3728,78.0080001 C129.3728,75.9984001 130.768,74.5904001 132.662401,74.5904001 C134.556801,74.5904001 135.952001,75.9856001 135.952001,77.9952001 L135.952001,78.0976001 C135.952001,80.1200002 134.556801,81.5152002 132.649601,81.5152002 Z M137.603201,81.4000002 L137.603201,74.7056001 L138.665601,74.7056001 L138.665601,75.9088001 C139.088001,75.1536001 139.664001,74.6288001 140.867201,74.5904001 L140.867201,75.5888001 C139.523201,75.6528001 138.665601,76.0752001 138.665601,77.7264001 L138.665601,81.4000002 L137.603201,81.4000002 Z M142.416001,81.4000002 L142.416001,74.7056001 L143.478401,74.7056001 L143.478401,75.7680001 C143.785601,75.1408001 144.528001,74.5904001 145.628801,74.5904001 C147.011201,74.5904001 147.984001,75.3456001 147.984001,77.2912001 L147.984001,81.4000002 L146.921601,81.4000002 L146.921601,77.2144001 C146.921601,76.0368001 146.422401,75.5120001 145.347201,75.5120001 C144.361601,75.5120001 143.478401,76.1392001 143.478401,77.3424001 L143.478401,81.4000002 L142.416001,81.4000002 Z" id="Aragon-was-born" fill="#7F8198"></path>
                                                <text id="NOV-2016" transform="translate(11.700000, 33.000000) rotate(-90.000000) translate(-11.700000, -33.000000) " font-family="Graphik-Regular, Graphik" font-size="10.8" font-weight="normal" line-spacing="19.3999996" letter-spacing="0.600000024" fill="#7F8198">
                                                    <tspan x="-15.6288003" y="36.3000002">NOV 201</tspan>
                                                    <tspan x="32.3435999" y="36.3000002">6</tspan>
                                                </text>
                                                <text id="FEB-2017" transform="translate(183.700000, 33.000000) rotate(-90.000000) translate(-183.700000, -33.000000) " font-family="Graphik-Regular, Graphik" font-size="10.8" font-weight="normal" line-spacing="19.3999996" letter-spacing="0.600000024" fill="#7F8198">
                                                    <tspan x="159.1738" y="36.3000002">FEB 201</tspan>
                                                    <tspan x="202.5562" y="36.3000002">7</tspan>
                                                </text>
                                                <text id="MAY-2017" transform="translate(306.700000, 33.000000) rotate(-90.000000) translate(-306.700000, -33.000000) " font-family="Graphik-Regular, Graphik" font-size="10.8" font-weight="normal" line-spacing="19.3999996" letter-spacing="0.600000024" fill="#7F8198">
                                                    <tspan x="280.4242" y="36.3000002">MAY 201</tspan>
                                                    <tspan x="327.3058" y="36.3000002">7</tspan>
                                                </text>
                                                <text id="MAR-2018" transform="translate(516.700000, 33.000000) rotate(-90.000000) translate(-516.700000, -33.000000) " font-family="Graphik-Regular, Graphik" font-size="10.8" font-weight="normal" line-spacing="19.3999996" letter-spacing="0.600000024" fill="#7F8198">
                                                    <tspan x="489.4414" y="36.3000002">MAR 201</tspan>
                                                    <tspan x="537.403" y="36.3000002">8</tspan>
                                                </text>
                                                <text id="NOV-2018" transform="translate(726.700000, 33.000000) rotate(-90.000000) translate(-726.700000, -33.000000) " font-family="Graphik-Regular, Graphik" font-size="10.8" font-weight="normal" line-spacing="19.3999996" letter-spacing="0.600000024" fill="#7F8198">
                                                    <tspan x="699.436" y="36.3000002">NOV 201</tspan>
                                                    <tspan x="747.4084" y="36.3000002">8</tspan>
                                                </text>
                                                <circle id="Oval" fill="#F9F5DE" cx="11.5" cy="77.5" r="5.5"></circle>
                                                <circle id="Oval-Copy-3" fill="#F9F5DE" opacity="0.207473028" cx="11.5" cy="77.5" r="11.5"></circle>
                                                <circle id="Oval-Copy-4" fill="#D4EFE6" opacity="0.313197545" cx="183.5" cy="77.5" r="11.5"></circle>
                                                <circle id="Oval-Copy-5" fill="#D4EFE6" opacity="0.313197545" cx="306.5" cy="77.5" r="11.5"></circle>
                                                <circle id="Oval-Copy-5" fill="#EBE4FF" opacity="0.313197545" cx="516.5" cy="77.5" r="11.5"></circle>
                                                <circle id="Oval-Copy-9" fill="#EBE4FF" opacity="0.313197545" cx="726.5" cy="77.5" r="11.5"></circle>
                                                <circle id="Oval-Copy-2" fill="url(#linearGradient-4)" cx="183.5" cy="77.5" r="5.5"></circle>
                                                <g id="Rectangle-Copy-12">
                                                    <use fill="black" fill-opacity="1" filter="url(#filter-7)" xlink:href="#path-6"></use>
                                                    <use fill="url(#linearGradient-5)" fill-rule="evenodd" xlink:href="#path-6"></use>
                                                </g>
                                                <circle id="Oval-Copy-6" fill="#D4EFE6" cx="306.5" cy="77.5" r="5.5"></circle>
                                                <circle id="Oval-Copy-7" fill="#EBE4FF" cx="516.5" cy="77.5" r="5.5"></circle>
                                                <circle id="Oval-Copy-8" fill="#EBE4FF" cx="726.5" cy="77.5" r="5.5"></circle>
                                                <g id="Rectangle-Copy-13">
                                                    <use fill="black" fill-opacity="1" filter="url(#filter-9)" xlink:href="#path-8"></use>
                                                    <use fill="url(#linearGradient-5)" fill-rule="evenodd" xlink:href="#path-8"></use>
                                                </g>
                                                <g id="Rectangle-Copy-14">
                                                    <use fill="black" fill-opacity="1" filter="url(#filter-11)" xlink:href="#path-10"></use>
                                                    <use fill="#EBE4FF" fill-rule="evenodd" xlink:href="#path-10"></use>
                                                </g>
                                                <g id="Rectangle-Copy-15">
                                                    <use fill="black" fill-opacity="1" filter="url(#filter-13)" xlink:href="#path-12"></use>
                                                    <use fill="#EBE4FF" fill-rule="evenodd" xlink:href="#path-12"></use>
                                                </g>
                                                <path d="M212.759063,81.4000002 L215.907863,72.248 L217.367063,72.248 L220.464663,81.4000002 L219.363863,81.4000002 L218.467863,78.7632001 L214.691863,78.7632001 L213.808663,81.4000002 L212.759063,81.4000002 Z M216.586263,73.1696001 L214.999063,77.8800001 L218.173463,77.8800001 L216.586263,73.1696001 Z M222.000663,81.4000002 L222.000663,74.7056001 L223.063063,74.7056001 L223.063063,75.9088001 C223.485463,75.1536001 224.061463,74.6288001 225.264663,74.5904001 L225.264663,75.5888001 C223.920663,75.6528001 223.063063,76.0752001 223.063063,77.7264001 L223.063063,81.4000002 L222.000663,81.4000002 Z M228.490263,81.5152002 C227.248663,81.5152002 226.263063,80.9136002 226.263063,79.5440002 C226.263063,77.9952001 227.901463,77.4704001 229.616663,77.4704001 L230.576663,77.4704001 L230.576663,76.9840001 C230.576663,75.9216001 230.167063,75.4736001 229.143063,75.4736001 C228.221463,75.4736001 227.709463,75.8576001 227.607063,76.6768001 L226.544663,76.6768001 C226.685463,75.1536001 227.901463,74.5904001 229.194263,74.5904001 C230.474263,74.5904001 231.639063,75.1152001 231.639063,76.9840001 L231.639063,81.4000002 L230.576663,81.4000002 L230.576663,80.5552002 C230.077463,81.1824002 229.475863,81.5152002 228.490263,81.5152002 Z M228.592663,80.6704002 C229.719063,80.6704002 230.576663,80.0944002 230.576663,79.0576001 L230.576663,78.2256001 L229.655063,78.2256001 C228.311063,78.2256001 227.325463,78.5584001 227.325463,79.5440002 C227.325463,80.2352002 227.658263,80.6704002 228.592663,80.6704002 Z M236.400663,83.8448002 C234.416663,83.8448002 233.546263,82.9104002 233.367063,81.7840002 L234.455063,81.7840002 C234.608663,82.5520002 235.248663,82.9488002 236.387863,82.9488002 C237.706263,82.9488002 238.538263,82.3216002 238.538263,80.8880002 L238.538263,79.9152002 C238.154263,80.5680002 237.245463,81.1824002 236.272663,81.1824002 C234.519063,81.1824002 233.226263,79.8512002 233.226263,78.0080001 L233.226263,77.9184001 C233.226263,76.1008001 234.506263,74.5904001 236.349463,74.5904001 C237.463063,74.5904001 238.154263,75.1280001 238.538263,75.7808001 L238.538263,74.7056001 L239.600663,74.7056001 L239.600663,80.9520002 C239.587863,82.8976002 238.269463,83.8448002 236.400663,83.8448002 Z M236.387863,80.2992002 C237.629463,80.2992002 238.576663,79.4288002 238.576663,77.9312001 L238.576663,77.8416001 C238.576663,76.3440001 237.757463,75.4736001 236.451863,75.4736001 C235.120663,75.4736001 234.327063,76.4592001 234.327063,77.8672001 L234.327063,77.9696001 C234.327063,79.4288002 235.261463,80.2992002 236.387863,80.2992002 Z M244.541463,80.6320002 C245.885464,80.6320002 246.730264,79.6208002 246.730264,78.1104001 L246.730264,78.0208001 C246.730264,76.4720001 245.872664,75.4736001 244.541463,75.4736001 C243.197463,75.4736001 242.352663,76.4720001 242.352663,78.0080001 L242.352663,78.1104001 C242.352663,79.6336002 243.184663,80.6320002 244.541463,80.6320002 Z M244.528663,81.5152002 C242.621463,81.5152002 241.251863,80.0688002 241.251863,78.1104001 L241.251863,78.0080001 C241.251863,75.9984001 242.647063,74.5904001 244.541463,74.5904001 C246.435864,74.5904001 247.831064,75.9856001 247.831064,77.9952001 L247.831064,78.0976001 C247.831064,80.1200002 246.435864,81.5152002 244.528663,81.5152002 Z M249.482264,81.4000002 L249.482264,74.7056001 L250.544664,74.7056001 L250.544664,75.7680001 C250.851864,75.1408001 251.594264,74.5904001 252.695064,74.5904001 C254.077464,74.5904001 255.050264,75.3456001 255.050264,77.2912001 L255.050264,81.4000002 L253.987864,81.4000002 L253.987864,77.2144001 C253.987864,76.0368001 253.488664,75.5120001 252.413464,75.5120001 C251.427864,75.5120001 250.544664,76.1392001 250.544664,77.3424001 L250.544664,81.4000002 L249.482264,81.4000002 Z M263.856664,80.5936002 C265.456664,80.5936002 266.275864,79.3648002 266.275864,77.0480001 L266.275864,76.5360001 C266.275864,74.4112001 265.379864,73.0288001 263.831064,73.0288001 C262.282264,73.0288001 261.360664,74.3088001 261.360664,76.5616001 L261.360664,77.0736001 C261.360664,79.3904002 262.333464,80.5936002 263.856664,80.5936002 Z M263.856664,81.5152002 C261.667864,81.5152002 260.221464,79.7488002 260.221464,77.0864001 L260.221464,76.5744001 C260.221464,73.8736001 261.591064,72.1328 263.831064,72.1328 C266.083864,72.1328 267.402264,73.9376001 267.402264,76.5488001 L267.402264,77.0608001 C267.402264,79.7232002 266.109464,81.5152002 263.856664,81.5152002 Z M269.975064,81.4640002 C269.527064,81.4640002 269.155864,81.1056002 269.155864,80.6448002 C269.155864,80.1840002 269.527064,79.8256002 269.975064,79.8256002 C270.423064,79.8256002 270.794264,80.1840002 270.794264,80.6448002 C270.794264,81.1056002 270.423064,81.4640002 269.975064,81.4640002 Z M274.250264,81.4000002 L274.250264,73.3488001 L272.202264,74.8208001 L272.202264,73.7840001 L274.327064,72.248 L275.363864,72.248 L275.363864,81.4000002 L274.250264,81.4000002 Z" id="Aragon-0.1" fill="#7F8198"></path>
                                                <path d="M329.967999,81.4000002 L333.116799,72.248 L334.575999,72.248 L337.673599,81.4000002 L336.572799,81.4000002 L335.676799,78.7632001 L331.900799,78.7632001 L331.017599,81.4000002 L329.967999,81.4000002 Z M333.795199,73.1696001 L332.207999,77.8800001 L335.382399,77.8800001 L333.795199,73.1696001 Z M339.209599,81.4000002 L339.209599,74.7056001 L340.271999,74.7056001 L340.271999,75.9088001 C340.694399,75.1536001 341.270399,74.6288001 342.473599,74.5904001 L342.473599,75.5888001 C341.129599,75.6528001 340.271999,76.0752001 340.271999,77.7264001 L340.271999,81.4000002 L339.209599,81.4000002 Z M345.699199,81.5152002 C344.457599,81.5152002 343.471999,80.9136002 343.471999,79.5440002 C343.471999,77.9952001 345.110399,77.4704001 346.825599,77.4704001 L347.785599,77.4704001 L347.785599,76.9840001 C347.785599,75.9216001 347.375999,75.4736001 346.351999,75.4736001 C345.430399,75.4736001 344.918399,75.8576001 344.815999,76.6768001 L343.753599,76.6768001 C343.894399,75.1536001 345.110399,74.5904001 346.403199,74.5904001 C347.683199,74.5904001 348.847999,75.1152001 348.847999,76.9840001 L348.847999,81.4000002 L347.785599,81.4000002 L347.785599,80.5552002 C347.286399,81.1824002 346.684799,81.5152002 345.699199,81.5152002 Z M345.801599,80.6704002 C346.927999,80.6704002 347.785599,80.0944002 347.785599,79.0576001 L347.785599,78.2256001 L346.863999,78.2256001 C345.519999,78.2256001 344.534399,78.5584001 344.534399,79.5440002 C344.534399,80.2352002 344.867199,80.6704002 345.801599,80.6704002 Z M353.609599,83.8448002 C351.625599,83.8448002 350.755199,82.9104002 350.575999,81.7840002 L351.663999,81.7840002 C351.817599,82.5520002 352.457599,82.9488002 353.596799,82.9488002 C354.915199,82.9488002 355.747199,82.3216002 355.747199,80.8880002 L355.747199,79.9152002 C355.363199,80.5680002 354.454399,81.1824002 353.481599,81.1824002 C351.727999,81.1824002 350.435199,79.8512002 350.435199,78.0080001 L350.435199,77.9184001 C350.435199,76.1008001 351.715199,74.5904001 353.558399,74.5904001 C354.671999,74.5904001 355.363199,75.1280001 355.747199,75.7808001 L355.747199,74.7056001 L356.809599,74.7056001 L356.809599,80.9520002 C356.796799,82.8976002 355.478399,83.8448002 353.609599,83.8448002 Z M353.596799,80.2992002 C354.838399,80.2992002 355.785599,79.4288002 355.785599,77.9312001 L355.785599,77.8416001 C355.785599,76.3440001 354.966399,75.4736001 353.660799,75.4736001 C352.329599,75.4736001 351.535999,76.4592001 351.535999,77.8672001 L351.535999,77.9696001 C351.535999,79.4288002 352.470399,80.2992002 353.596799,80.2992002 Z M361.750399,80.6320002 C363.094399,80.6320002 363.939199,79.6208002 363.939199,78.1104001 L363.939199,78.0208001 C363.939199,76.4720001 363.081599,75.4736001 361.750399,75.4736001 C360.406399,75.4736001 359.561599,76.4720001 359.561599,78.0080001 L359.561599,78.1104001 C359.561599,79.6336002 360.393599,80.6320002 361.750399,80.6320002 Z M361.737599,81.5152002 C359.830399,81.5152002 358.460799,80.0688002 358.460799,78.1104001 L358.460799,78.0080001 C358.460799,75.9984001 359.855999,74.5904001 361.750399,74.5904001 C363.644799,74.5904001 365.039999,75.9856001 365.039999,77.9952001 L365.039999,78.0976001 C365.039999,80.1200002 363.644799,81.5152002 361.737599,81.5152002 Z M366.691199,81.4000002 L366.691199,74.7056001 L367.753599,74.7056001 L367.753599,75.7680001 C368.060799,75.1408001 368.803199,74.5904001 369.903999,74.5904001 C371.286399,74.5904001 372.259199,75.3456001 372.259199,77.2912001 L372.259199,81.4000002 L371.196799,81.4000002 L371.196799,77.2144001 C371.196799,76.0368001 370.697599,75.5120001 369.622399,75.5120001 C368.636799,75.5120001 367.753599,76.1392001 367.753599,77.3424001 L367.753599,81.4000002 L366.691199,81.4000002 Z M377.8144,81.4000002 L377.8144,72.248 L379.2608,72.248 L383.7152,79.8128002 L383.7152,72.248 L384.7776,72.248 L384.7776,81.4000002 L383.4976,81.4000002 L378.8768,73.5536001 L378.8768,81.4000002 L377.8144,81.4000002 Z M389.744,81.5152002 C387.8496,81.5152002 386.5056,80.1840002 386.5056,78.1232001 L386.5056,78.0208001 C386.5056,75.9984001 387.7984,74.5904001 389.6416,74.5904001 C391.1904,74.5904001 392.6496,75.5248001 392.6496,77.9184001 L392.6496,78.2640001 L387.6064,78.2640001 C387.6576,79.7872002 388.3872,80.6320002 389.7568,80.6320002 C390.7936,80.6320002 391.3952,80.2480002 391.536,79.4672002 L392.5984,79.4672002 C392.368,80.8112002 391.2544,81.5152002 389.744,81.5152002 Z M387.6448,77.4064001 L391.5616,77.4064001 C391.4592,76.0240001 390.7424,75.4736001 389.6416,75.4736001 C388.5536,75.4736001 387.824,76.2160001 387.6448,77.4064001 Z M396.3104,81.4896002 C395.0944,81.4896002 394.5056,80.7728002 394.5056,79.7232002 L394.5056,75.6016001 L393.5456,75.6016001 L393.5456,74.7056001 L394.5056,74.7056001 L394.5056,73.1824001 L395.568,73.1824001 L395.568,74.7056001 L397.1296,74.7056001 L397.1296,75.6016001 L395.568,75.6016001 L395.568,79.6208002 C395.568,80.2736002 395.8624,80.5936002 396.4,80.5936002 C396.7328,80.5936002 396.9888,80.5424002 397.2192,80.4528002 L397.2192,81.3488002 C397.0016,81.4256002 396.7456,81.4896002 396.3104,81.4896002 Z M400.1632,81.4000002 L398.1024,74.7056001 L399.2544,74.7056001 L400.816,80.0944002 L402.4416,74.7056001 L403.3632,74.7056001 L404.8864,80.0944002 L406.4608,74.7056001 L407.5488,74.7056001 L405.4624,81.4000002 L404.2848,81.4000002 L402.8896,76.3824001 L401.328,81.4000002 L400.1632,81.4000002 Z M411.7728,80.6320002 C413.1168,80.6320002 413.9616,79.6208002 413.9616,78.1104001 L413.9616,78.0208001 C413.9616,76.4720001 413.104,75.4736001 411.7728,75.4736001 C410.4288,75.4736001 409.584,76.4720001 409.584,78.0080001 L409.584,78.1104001 C409.584,79.6336002 410.416,80.6320002 411.7728,80.6320002 Z M411.76,81.5152002 C409.8528,81.5152002 408.4832,80.0688002 408.4832,78.1104001 L408.4832,78.0080001 C408.4832,75.9984001 409.8784,74.5904001 411.7728,74.5904001 C413.6672,74.5904001 415.0624,75.9856001 415.0624,77.9952001 L415.0624,78.0976001 C415.0624,80.1200002 413.6672,81.5152002 411.76,81.5152002 Z M416.7136,81.4000002 L416.7136,74.7056001 L417.776,74.7056001 L417.776,75.9088001 C418.1984,75.1536001 418.7744,74.6288001 419.9776,74.5904001 L419.9776,75.5888001 C418.6336,75.6528001 417.776,76.0752001 417.776,77.7264001 L417.776,81.4000002 L416.7136,81.4000002 Z M421.5264,81.4000002 L421.5264,71.5056 L422.5888,71.5056 L422.5888,77.7904001 L425.3664,74.7056001 L426.608,74.7056001 L423.7408,77.8160001 L426.8512,81.4000002 L425.5584,81.4000002 L422.5888,77.9312001 L422.5888,81.4000002 L421.5264,81.4000002 Z M433.4816,81.4000002 L433.4816,73.1568001 L430.8192,73.1568001 L430.8192,72.248 L437.2576,72.248 L437.2576,73.1568001 L434.5952,73.1568001 L434.5952,81.4000002 L433.4816,81.4000002 Z M441.4944,80.6320002 C442.8384,80.6320002 443.683201,79.6208002 443.683201,78.1104001 L443.683201,78.0208001 C443.683201,76.4720001 442.8256,75.4736001 441.4944,75.4736001 C440.1504,75.4736001 439.3056,76.4720001 439.3056,78.0080001 L439.3056,78.1104001 C439.3056,79.6336002 440.1376,80.6320002 441.4944,80.6320002 Z M441.4816,81.5152002 C439.5744,81.5152002 438.2048,80.0688002 438.2048,78.1104001 L438.2048,78.0080001 C438.2048,75.9984001 439.6,74.5904001 441.4944,74.5904001 C443.3888,74.5904001 444.784001,75.9856001 444.784001,77.9952001 L444.784001,78.0976001 C444.784001,80.1200002 443.3888,81.5152002 441.4816,81.5152002 Z M446.435201,81.4000002 L446.435201,71.5056 L447.497601,71.5056 L447.497601,77.7904001 L450.275201,74.7056001 L451.516801,74.7056001 L448.649601,77.8160001 L451.760001,81.4000002 L450.467201,81.4000002 L447.497601,77.9312001 L447.497601,81.4000002 L446.435201,81.4000002 Z M455.779201,81.5152002 C453.884801,81.5152002 452.540801,80.1840002 452.540801,78.1232001 L452.540801,78.0208001 C452.540801,75.9984001 453.833601,74.5904001 455.676801,74.5904001 C457.225601,74.5904001 458.684801,75.5248001 458.684801,77.9184001 L458.684801,78.2640001 L453.641601,78.2640001 C453.692801,79.7872002 454.422401,80.6320002 455.792001,80.6320002 C456.828801,80.6320002 457.430401,80.2480002 457.571201,79.4672002 L458.633601,79.4672002 C458.403201,80.8112002 457.289601,81.5152002 455.779201,81.5152002 Z M453.680001,77.4064001 L457.596801,77.4064001 C457.494401,76.0240001 456.777601,75.4736001 455.676801,75.4736001 C454.588801,75.4736001 453.859201,76.2160001 453.680001,77.4064001 Z M460.310401,81.4000002 L460.310401,74.7056001 L461.372801,74.7056001 L461.372801,75.7680001 C461.680001,75.1408001 462.422401,74.5904001 463.523201,74.5904001 C464.905601,74.5904001 465.878401,75.3456001 465.878401,77.2912001 L465.878401,81.4000002 L464.816001,81.4000002 L464.816001,77.2144001 C464.816001,76.0368001 464.316801,75.5120001 463.241601,75.5120001 C462.256001,75.5120001 461.372801,76.1392001 461.372801,77.3424001 L461.372801,81.4000002 L460.310401,81.4000002 Z M473.430401,81.5152002 C471.830401,81.5152002 470.870401,80.7088002 470.806401,79.3392002 L471.843201,79.3392002 C471.920001,80.1328002 472.342401,80.6320002 473.417601,80.6320002 C474.428801,80.6320002 474.876801,80.2864002 474.876801,79.5696002 C474.876801,78.8656001 474.352001,78.6352001 473.315201,78.4432001 C471.574401,78.1232001 470.985601,77.6368001 470.985601,76.4720001 C470.985601,75.2304001 472.201601,74.5904001 473.251201,74.5904001 C474.454401,74.5904001 475.491201,75.0768001 475.670401,76.5232001 L474.646401,76.5232001 C474.492801,75.7936001 474.083201,75.4736001 473.238401,75.4736001 C472.470401,75.4736001 471.971201,75.8576001 471.971201,76.4336001 C471.971201,77.0352001 472.304001,77.2784001 473.532801,77.4960001 C474.915201,77.7520001 475.888001,78.0592001 475.888001,79.4800002 C475.888001,80.6960002 475.056001,81.5152002 473.430401,81.5152002 Z M479.177601,81.5152002 C477.936001,81.5152002 476.950401,80.9136002 476.950401,79.5440002 C476.950401,77.9952001 478.588801,77.4704001 480.304001,77.4704001 L481.264001,77.4704001 L481.264001,76.9840001 C481.264001,75.9216001 480.854401,75.4736001 479.830401,75.4736001 C478.908801,75.4736001 478.396801,75.8576001 478.294401,76.6768001 L477.232001,76.6768001 C477.372801,75.1536001 478.588801,74.5904001 479.881601,74.5904001 C481.161601,74.5904001 482.326401,75.1152001 482.326401,76.9840001 L482.326401,81.4000002 L481.264001,81.4000002 L481.264001,80.5552002 C480.764801,81.1824002 480.163201,81.5152002 479.177601,81.5152002 Z M479.280001,80.6704002 C480.406401,80.6704002 481.264001,80.0944002 481.264001,79.0576001 L481.264001,78.2256001 L480.342401,78.2256001 C478.998401,78.2256001 478.012801,78.5584001 478.012801,79.5440002 C478.012801,80.2352002 478.345601,80.6704002 479.280001,80.6704002 Z M484.438401,81.4000002 L484.438401,71.5056 L485.513601,71.5056 L485.513601,81.4000002 L484.438401,81.4000002 Z M490.428801,81.5152002 C488.534401,81.5152002 487.190401,80.1840002 487.190401,78.1232001 L487.190401,78.0208001 C487.190401,75.9984001 488.483201,74.5904001 490.326401,74.5904001 C491.875201,74.5904001 493.334401,75.5248001 493.334401,77.9184001 L493.334401,78.2640001 L488.291201,78.2640001 C488.342401,79.7872002 489.072001,80.6320002 490.441601,80.6320002 C491.478401,80.6320002 492.080001,80.2480002 492.220801,79.4672002 L493.283201,79.4672002 C493.052801,80.8112002 491.939201,81.5152002 490.428801,81.5152002 Z M488.329601,77.4064001 L492.246401,77.4064001 C492.144001,76.0240001 491.427201,75.4736001 490.326401,75.4736001 C489.238401,75.4736001 488.508801,76.2160001 488.329601,77.4064001 Z" id="Aragon-Network-Token" fill="#7F8198"></path>
                                                <path d="M541.334399,81.4000002 L544.483199,72.248 L545.942399,72.248 L549.039999,81.4000002 L547.939199,81.4000002 L547.043199,78.7632001 L543.267199,78.7632001 L542.383999,81.4000002 L541.334399,81.4000002 Z M545.161599,73.1696001 L543.574399,77.8800001 L546.748799,77.8800001 L545.161599,73.1696001 Z M550.575999,81.4000002 L550.575999,74.7056001 L551.638399,74.7056001 L551.638399,75.9088001 C552.060799,75.1536001 552.636799,74.6288001 553.839999,74.5904001 L553.839999,75.5888001 C552.495999,75.6528001 551.638399,76.0752001 551.638399,77.7264001 L551.638399,81.4000002 L550.575999,81.4000002 Z M557.065599,81.5152002 C555.823999,81.5152002 554.838399,80.9136002 554.838399,79.5440002 C554.838399,77.9952001 556.476799,77.4704001 558.191999,77.4704001 L559.151999,77.4704001 L559.151999,76.9840001 C559.151999,75.9216001 558.742399,75.4736001 557.718399,75.4736001 C556.796799,75.4736001 556.284799,75.8576001 556.182399,76.6768001 L555.119999,76.6768001 C555.260799,75.1536001 556.476799,74.5904001 557.769599,74.5904001 C559.049599,74.5904001 560.214399,75.1152001 560.214399,76.9840001 L560.214399,81.4000002 L559.151999,81.4000002 L559.151999,80.5552002 C558.652799,81.1824002 558.051199,81.5152002 557.065599,81.5152002 Z M557.167999,80.6704002 C558.294399,80.6704002 559.151999,80.0944002 559.151999,79.0576001 L559.151999,78.2256001 L558.230399,78.2256001 C556.886399,78.2256001 555.900799,78.5584001 555.900799,79.5440002 C555.900799,80.2352002 556.233599,80.6704002 557.167999,80.6704002 Z M564.975999,83.8448002 C562.991999,83.8448002 562.121599,82.9104002 561.942399,81.7840002 L563.030399,81.7840002 C563.183999,82.5520002 563.823999,82.9488002 564.963199,82.9488002 C566.281599,82.9488002 567.113599,82.3216002 567.113599,80.8880002 L567.113599,79.9152002 C566.729599,80.5680002 565.820799,81.1824002 564.847999,81.1824002 C563.094399,81.1824002 561.801599,79.8512002 561.801599,78.0080001 L561.801599,77.9184001 C561.801599,76.1008001 563.081599,74.5904001 564.924799,74.5904001 C566.038399,74.5904001 566.729599,75.1280001 567.113599,75.7808001 L567.113599,74.7056001 L568.175999,74.7056001 L568.175999,80.9520002 C568.163199,82.8976002 566.844799,83.8448002 564.975999,83.8448002 Z M564.963199,80.2992002 C566.204799,80.2992002 567.151999,79.4288002 567.151999,77.9312001 L567.151999,77.8416001 C567.151999,76.3440001 566.332799,75.4736001 565.027199,75.4736001 C563.695999,75.4736001 562.902399,76.4592001 562.902399,77.8672001 L562.902399,77.9696001 C562.902399,79.4288002 563.836799,80.2992002 564.963199,80.2992002 Z M573.116799,80.6320002 C574.460799,80.6320002 575.305599,79.6208002 575.305599,78.1104001 L575.305599,78.0208001 C575.305599,76.4720001 574.447999,75.4736001 573.116799,75.4736001 C571.772799,75.4736001 570.927999,76.4720001 570.927999,78.0080001 L570.927999,78.1104001 C570.927999,79.6336002 571.759999,80.6320002 573.116799,80.6320002 Z M573.103999,81.5152002 C571.196799,81.5152002 569.827199,80.0688002 569.827199,78.1104001 L569.827199,78.0080001 C569.827199,75.9984001 571.222399,74.5904001 573.116799,74.5904001 C575.011199,74.5904001 576.406399,75.9856001 576.406399,77.9952001 L576.406399,78.0976001 C576.406399,80.1200002 575.011199,81.5152002 573.103999,81.5152002 Z M578.057599,81.4000002 L578.057599,74.7056001 L579.119999,74.7056001 L579.119999,75.7680001 C579.427199,75.1408001 580.169599,74.5904001 581.270399,74.5904001 C582.652799,74.5904001 583.625599,75.3456001 583.625599,77.2912001 L583.625599,81.4000002 L582.563199,81.4000002 L582.563199,77.2144001 C582.563199,76.0368001 582.063999,75.5120001 580.988799,75.5120001 C580.003199,75.5120001 579.119999,76.1392001 579.119999,77.3424001 L579.119999,81.4000002 L578.057599,81.4000002 Z M592.432,80.5936002 C594.032,80.5936002 594.8512,79.3648002 594.8512,77.0480001 L594.8512,76.5360001 C594.8512,74.4112001 593.9552,73.0288001 592.4064,73.0288001 C590.8576,73.0288001 589.936,74.3088001 589.936,76.5616001 L589.936,77.0736001 C589.936,79.3904002 590.9088,80.5936002 592.432,80.5936002 Z M592.432,81.5152002 C590.2432,81.5152002 588.7968,79.7488002 588.7968,77.0864001 L588.7968,76.5744001 C588.7968,73.8736001 590.1664,72.1328 592.4064,72.1328 C594.6592,72.1328 595.9776,73.9376001 595.9776,76.5488001 L595.9776,77.0608001 C595.9776,79.7232002 594.6848,81.5152002 592.432,81.5152002 Z M598.5504,81.4640002 C598.1024,81.4640002 597.7312,81.1056002 597.7312,80.6448002 C597.7312,80.1840002 598.1024,79.8256002 598.5504,79.8256002 C598.9984,79.8256002 599.3696,80.1840002 599.3696,80.6448002 C599.3696,81.1056002 598.9984,81.4640002 598.5504,81.4640002 Z M603.952,81.5152002 C601.9808,81.5152002 601.0336,80.4272002 600.9056,78.9296001 L601.968,78.9296001 C602.1472,79.9280002 602.544,80.6192002 603.9392,80.6192002 C605.1808,80.6192002 605.9488,79.7872002 605.9488,78.4048001 C605.9488,77.1120001 605.1936,76.2672001 604.0288,76.2672001 C602.9664,76.2672001 602.352,76.6000001 601.8656,77.1504001 L601.456,77.1504001 L601.456,72.248 L606.6016,72.248 L606.6016,73.2080001 L602.3776,73.2080001 L602.3776,75.9984001 C602.7488,75.6528001 603.376,75.3712001 604.2464,75.3712001 C605.8848,75.3712001 607.088,76.5360001 607.088,78.4048001 C607.088,80.3376002 605.6928,81.5152002 603.952,81.5152002 Z M612.784,75.1536001 L611.7728,74.6928001 L613.2704,72.1072 L613.9232,72.4400001 L612.784,75.1536001 Z M615.0496,75.1536001 L614.0384,74.6928001 L615.536,72.1072 L616.1888,72.4400001 L615.0496,75.1536001 Z M619.824,81.4000002 L619.824,73.1568001 L617.1616,73.1568001 L617.1616,72.248 L623.6,72.248 L623.6,73.1568001 L620.9376,73.1568001 L620.9376,81.4000002 L619.824,81.4000002 Z M625.0464,81.4000002 L625.0464,71.5056 L626.1088,71.5056 L626.1088,75.7680001 C626.416,75.1408001 627.1584,74.5904001 628.2592,74.5904001 C629.6416,74.5904001 630.6144,75.3456001 630.6144,77.2912001 L630.6144,81.4000002 L629.552,81.4000002 L629.552,77.2144001 C629.552,76.0368001 629.0528,75.5120001 627.9776,75.5120001 C626.992,75.5120001 626.1088,76.1392001 626.1088,77.3424001 L626.1088,81.4000002 L625.0464,81.4000002 Z M635.44,81.5152002 C633.5456,81.5152002 632.2016,80.1840002 632.2016,78.1232001 L632.2016,78.0208001 C632.2016,75.9984001 633.4944,74.5904001 635.3376,74.5904001 C636.8864,74.5904001 638.3456,75.5248001 638.3456,77.9184001 L638.3456,78.2640001 L633.3024,78.2640001 C633.3536,79.7872002 634.0832,80.6320002 635.4528,80.6320002 C636.4896,80.6320002 637.0912,80.2480002 637.232,79.4672002 L638.2944,79.4672002 C638.064,80.8112002 636.9504,81.5152002 635.44,81.5152002 Z M633.3408,77.4064001 L637.2576,77.4064001 C637.1552,76.0240001 636.4384,75.4736001 635.3376,75.4736001 C634.2496,75.4736001 633.52,76.2160001 633.3408,77.4064001 Z M642.7488,81.4000002 L645.8976,72.248 L647.3568,72.248 L650.4544,81.4000002 L649.3536,81.4000002 L648.4576,78.7632001 L644.6816,78.7632001 L643.7984,81.4000002 L642.7488,81.4000002 Z M646.576,73.1696001 L644.9888,77.8800001 L648.1632,77.8800001 L646.576,73.1696001 Z M651.9904,81.4000002 L651.9904,74.7056001 L653.0528,74.7056001 L653.0528,75.9088001 C653.4752,75.1536001 654.0512,74.6288001 655.2544,74.5904001 L655.2544,75.5888001 C653.9104,75.6528001 653.0528,76.0752001 653.0528,77.7264001 L653.0528,81.4000002 L651.9904,81.4000002 Z M659.580801,81.5152002 C657.712001,81.5152002 656.304001,80.1968002 656.304001,78.1232001 L656.304001,78.0208001 C656.304001,75.9728001 657.763201,74.5904001 659.555201,74.5904001 C660.950401,74.5904001 662.256001,75.2304001 662.460801,76.9328001 L661.411201,76.9328001 C661.244801,75.8704001 660.476801,75.4736001 659.555201,75.4736001 C658.339201,75.4736001 657.404801,76.4464001 657.404801,78.0208001 L657.404801,78.1232001 C657.404801,79.7616002 658.300801,80.6320002 659.593601,80.6320002 C660.540801,80.6320002 661.398401,80.0816002 661.513601,78.9936001 L662.499201,78.9936001 C662.358401,80.4400002 661.193601,81.5152002 659.580801,81.5152002 Z M664.099201,81.4000002 L664.099201,71.5056 L665.161601,71.5056 L665.161601,75.7680001 C665.468801,75.1408001 666.211201,74.5904001 667.312001,74.5904001 C668.694401,74.5904001 669.667201,75.3456001 669.667201,77.2912001 L669.667201,81.4000002 L668.604801,81.4000002 L668.604801,77.2144001 C668.604801,76.0368001 668.105601,75.5120001 667.030401,75.5120001 C666.044801,75.5120001 665.161601,76.1392001 665.161601,77.3424001 L665.161601,81.4000002 L664.099201,81.4000002 Z M671.779201,81.4000002 L671.779201,74.7056001 L672.841601,74.7056001 L672.841601,81.4000002 L671.779201,81.4000002 Z M672.291201,73.3104001 C671.907201,73.3104001 671.587201,72.9904001 671.587201,72.6064001 C671.587201,72.2224 671.907201,71.9024 672.291201,71.9024 C672.675201,71.9024 672.995201,72.2224 672.995201,72.6064001 C672.995201,72.9904001 672.675201,73.3104001 672.291201,73.3104001 Z M677.052801,81.4896002 C675.836801,81.4896002 675.248001,80.7728002 675.248001,79.7232002 L675.248001,75.6016001 L674.288001,75.6016001 L674.288001,74.7056001 L675.248001,74.7056001 L675.248001,73.1824001 L676.310401,73.1824001 L676.310401,74.7056001 L677.872001,74.7056001 L677.872001,75.6016001 L676.310401,75.6016001 L676.310401,79.6208002 C676.310401,80.2736002 676.604801,80.5936002 677.142401,80.5936002 C677.475201,80.5936002 677.731201,80.5424002 677.961601,80.4528002 L677.961601,81.3488002 C677.744001,81.4256002 677.488001,81.4896002 677.052801,81.4896002 Z M682.300801,81.5152002 C680.406401,81.5152002 679.062401,80.1840002 679.062401,78.1232001 L679.062401,78.0208001 C679.062401,75.9984001 680.355201,74.5904001 682.198401,74.5904001 C683.747201,74.5904001 685.206401,75.5248001 685.206401,77.9184001 L685.206401,78.2640001 L680.163201,78.2640001 C680.214401,79.7872002 680.944001,80.6320002 682.313601,80.6320002 C683.350401,80.6320002 683.952001,80.2480002 684.092801,79.4672002 L685.155201,79.4672002 C684.924801,80.8112002 683.811201,81.5152002 682.300801,81.5152002 Z M680.201601,77.4064001 L684.118401,77.4064001 C684.016001,76.0240001 683.299201,75.4736001 682.198401,75.4736001 C681.110401,75.4736001 680.380801,76.2160001 680.201601,77.4064001 Z M689.609601,81.5152002 C687.740801,81.5152002 686.332801,80.1968002 686.332801,78.1232001 L686.332801,78.0208001 C686.332801,75.9728001 687.792001,74.5904001 689.584001,74.5904001 C690.979201,74.5904001 692.284801,75.2304001 692.489601,76.9328001 L691.440001,76.9328001 C691.273601,75.8704001 690.505601,75.4736001 689.584001,75.4736001 C688.368001,75.4736001 687.433601,76.4464001 687.433601,78.0208001 L687.433601,78.1232001 C687.433601,79.7616002 688.329601,80.6320002 689.622401,80.6320002 C690.569601,80.6320002 691.427201,80.0816002 691.542401,78.9936001 L692.528001,78.9936001 C692.387201,80.4400002 691.222401,81.5152002 689.609601,81.5152002 Z M696.163201,81.4896002 C694.947201,81.4896002 694.358401,80.7728002 694.358401,79.7232002 L694.358401,75.6016001 L693.398401,75.6016001 L693.398401,74.7056001 L694.358401,74.7056001 L694.358401,73.1824001 L695.420801,73.1824001 L695.420801,74.7056001 L696.982401,74.7056001 L696.982401,75.6016001 L695.420801,75.6016001 L695.420801,79.6208002 C695.420801,80.2736002 695.715201,80.5936002 696.252801,80.5936002 C696.585601,80.5936002 696.841601,80.5424002 697.072001,80.4528002 L697.072001,81.3488002 C696.854401,81.4256002 696.598401,81.4896002 696.163201,81.4896002 Z M698.851201,75.1536001 L698.198401,74.8208001 L699.337601,72.1072 L700.348801,72.5680001 L698.851201,75.1536001 Z M701.116801,75.1536001 L700.464001,74.8208001 L701.603201,72.1072 L702.614401,72.5680001 L701.116801,75.1536001 Z" id="Aragon-0.5-“The-Arch" fill="#7F8198"></path>
                                                <path d="M752.326241,81.4000002 L755.475041,72.248 L756.934241,72.248 L760.031841,81.4000002 L758.931041,81.4000002 L758.035041,78.7632001 L754.259041,78.7632001 L753.375841,81.4000002 L752.326241,81.4000002 Z M756.153441,73.1696001 L754.566241,77.8800001 L757.740641,77.8800001 L756.153441,73.1696001 Z M761.567841,81.4000002 L761.567841,74.7056001 L762.630241,74.7056001 L762.630241,75.9088001 C763.052641,75.1536001 763.628641,74.6288001 764.831841,74.5904001 L764.831841,75.5888001 C763.487841,75.6528001 762.630241,76.0752001 762.630241,77.7264001 L762.630241,81.4000002 L761.567841,81.4000002 Z M768.057441,81.5152002 C766.815841,81.5152002 765.830241,80.9136002 765.830241,79.5440002 C765.830241,77.9952001 767.468641,77.4704001 769.183841,77.4704001 L770.143841,77.4704001 L770.143841,76.9840001 C770.143841,75.9216001 769.734241,75.4736001 768.710241,75.4736001 C767.788641,75.4736001 767.276641,75.8576001 767.174241,76.6768001 L766.111841,76.6768001 C766.252641,75.1536001 767.468641,74.5904001 768.761441,74.5904001 C770.041441,74.5904001 771.206241,75.1152001 771.206241,76.9840001 L771.206241,81.4000002 L770.143841,81.4000002 L770.143841,80.5552002 C769.644641,81.1824002 769.043041,81.5152002 768.057441,81.5152002 Z M768.159841,80.6704002 C769.286241,80.6704002 770.143841,80.0944002 770.143841,79.0576001 L770.143841,78.2256001 L769.222241,78.2256001 C767.878241,78.2256001 766.892641,78.5584001 766.892641,79.5440002 C766.892641,80.2352002 767.225441,80.6704002 768.159841,80.6704002 Z M775.967842,83.8448002 C773.983842,83.8448002 773.113441,82.9104002 772.934241,81.7840002 L774.022242,81.7840002 C774.175842,82.5520002 774.815842,82.9488002 775.955042,82.9488002 C777.273442,82.9488002 778.105442,82.3216002 778.105442,80.8880002 L778.105442,79.9152002 C777.721442,80.5680002 776.812642,81.1824002 775.839842,81.1824002 C774.086242,81.1824002 772.793441,79.8512002 772.793441,78.0080001 L772.793441,77.9184001 C772.793441,76.1008001 774.073442,74.5904001 775.916642,74.5904001 C777.030242,74.5904001 777.721442,75.1280001 778.105442,75.7808001 L778.105442,74.7056001 L779.167842,74.7056001 L779.167842,80.9520002 C779.155042,82.8976002 777.836642,83.8448002 775.967842,83.8448002 Z M775.955042,80.2992002 C777.196642,80.2992002 778.143842,79.4288002 778.143842,77.9312001 L778.143842,77.8416001 C778.143842,76.3440001 777.324642,75.4736001 776.019042,75.4736001 C774.687842,75.4736001 773.894242,76.4592001 773.894242,77.8672001 L773.894242,77.9696001 C773.894242,79.4288002 774.828642,80.2992002 775.955042,80.2992002 Z M784.108642,80.6320002 C785.452642,80.6320002 786.297442,79.6208002 786.297442,78.1104001 L786.297442,78.0208001 C786.297442,76.4720001 785.439842,75.4736001 784.108642,75.4736001 C782.764642,75.4736001 781.919842,76.4720001 781.919842,78.0080001 L781.919842,78.1104001 C781.919842,79.6336002 782.751842,80.6320002 784.108642,80.6320002 Z M784.095842,81.5152002 C782.188642,81.5152002 780.819042,80.0688002 780.819042,78.1104001 L780.819042,78.0080001 C780.819042,75.9984001 782.214242,74.5904001 784.108642,74.5904001 C786.003042,74.5904001 787.398242,75.9856001 787.398242,77.9952001 L787.398242,78.0976001 C787.398242,80.1200002 786.003042,81.5152002 784.095842,81.5152002 Z M789.049442,81.4000002 L789.049442,74.7056001 L790.111842,74.7056001 L790.111842,75.7680001 C790.419042,75.1408001 791.161442,74.5904001 792.262242,74.5904001 C793.644642,74.5904001 794.617442,75.3456001 794.617442,77.2912001 L794.617442,81.4000002 L793.555042,81.4000002 L793.555042,77.2144001 C793.555042,76.0368001 793.055842,75.5120001 791.980642,75.5120001 C790.995042,75.5120001 790.111842,76.1392001 790.111842,77.3424001 L790.111842,81.4000002 L789.049442,81.4000002 Z M803.423842,80.5936002 C805.023842,80.5936002 805.843042,79.3648002 805.843042,77.0480001 L805.843042,76.5360001 C805.843042,74.4112001 804.947042,73.0288001 803.398242,73.0288001 C801.849442,73.0288001 800.927842,74.3088001 800.927842,76.5616001 L800.927842,77.0736001 C800.927842,79.3904002 801.900642,80.5936002 803.423842,80.5936002 Z M803.423842,81.5152002 C801.235042,81.5152002 799.788642,79.7488002 799.788642,77.0864001 L799.788642,76.5744001 C799.788642,73.8736001 801.158242,72.1328 803.398242,72.1328 C805.651042,72.1328 806.969442,73.9376001 806.969442,76.5488001 L806.969442,77.0608001 C806.969442,79.7232002 805.676642,81.5152002 803.423842,81.5152002 Z M809.542242,81.4640002 C809.094242,81.4640002 808.723042,81.1056002 808.723042,80.6448002 C808.723042,80.1840002 809.094242,79.8256002 809.542242,79.8256002 C809.990242,79.8256002 810.361442,80.1840002 810.361442,80.6448002 C810.361442,81.1056002 809.990242,81.4640002 809.542242,81.4640002 Z M815.404642,81.5152002 C812.908642,81.5152002 812.115042,79.6464002 812.115042,77.3552001 L812.115042,77.1376001 C812.115042,73.8480001 813.599842,72.1328 815.699042,72.1328 C817.119842,72.1328 818.131042,72.8752001 818.374242,74.3472001 L817.311842,74.3472001 C817.107042,73.5024001 816.646242,73.0416001 815.622242,73.0416001 C814.239842,73.0416001 813.267042,74.2832001 813.215842,76.7024001 C813.651042,75.9600001 814.508642,75.4608001 815.571042,75.4608001 C817.388642,75.4608001 818.566242,76.7792001 818.566242,78.4560001 C818.566242,80.2864002 817.337442,81.5152002 815.404642,81.5152002 Z M815.404642,80.6448002 C816.607842,80.6448002 817.427042,79.8000002 817.427042,78.5072001 C817.427042,77.1888001 816.633442,76.3312001 815.391842,76.3312001 C814.163042,76.3312001 813.292642,77.1632001 813.292642,78.3536001 C813.292642,79.8512002 814.175842,80.6448002 815.404642,80.6448002 Z M825.414242,81.5152002 C824.172642,81.5152002 823.187042,80.9136002 823.187042,79.5440002 C823.187042,77.9952001 824.825442,77.4704001 826.540642,77.4704001 L827.500642,77.4704001 L827.500642,76.9840001 C827.500642,75.9216001 827.091042,75.4736001 826.067042,75.4736001 C825.145442,75.4736001 824.633442,75.8576001 824.531042,76.6768001 L823.468642,76.6768001 C823.609442,75.1536001 824.825442,74.5904001 826.118242,74.5904001 C827.398242,74.5904001 828.563042,75.1152001 828.563042,76.9840001 L828.563042,81.4000002 L827.500642,81.4000002 L827.500642,80.5552002 C827.001442,81.1824002 826.399842,81.5152002 825.414242,81.5152002 Z M825.516642,80.6704002 C826.643042,80.6704002 827.500642,80.0944002 827.500642,79.0576001 L827.500642,78.2256001 L826.579042,78.2256001 C825.235042,78.2256001 824.249442,78.5584001 824.249442,79.5440002 C824.249442,80.2352002 824.582242,80.6704002 825.516642,80.6704002 Z M830.649442,81.4000002 L830.649442,74.7056001 L831.711842,74.7056001 L831.711842,75.7680001 C832.019042,75.1408001 832.761442,74.5904001 833.862242,74.5904001 C835.244642,74.5904001 836.217442,75.3456001 836.217442,77.2912001 L836.217442,81.4000002 L835.155042,81.4000002 L835.155042,77.2144001 C835.155042,76.0368001 834.655842,75.5120001 833.580642,75.5120001 C832.595042,75.5120001 831.711842,76.1392001 831.711842,77.3424001 L831.711842,81.4000002 L830.649442,81.4000002 Z M840.825443,81.5152002 C839.071842,81.5152002 837.804642,80.2736002 837.804642,78.1872001 L837.804642,78.0848001 C837.804642,76.0368001 839.084642,74.5904001 840.927843,74.5904001 C842.041443,74.5904001 842.732643,75.1280001 843.116643,75.7808001 L843.116643,71.5056 L844.179043,71.5056 L844.179043,81.4000002 L843.116643,81.4000002 L843.116643,80.2480002 C842.732643,80.9008002 841.798243,81.5152002 840.825443,81.5152002 Z M840.940643,80.6320002 C842.182243,80.6320002 843.155043,79.8128002 843.155043,78.0976001 L843.155043,77.9952001 C843.155043,76.2800001 842.335843,75.4736001 841.030243,75.4736001 C839.699042,75.4736001 838.905442,76.4080001 838.905442,78.0336001 L838.905442,78.1360001 C838.905442,79.8256002 839.814242,80.6320002 840.940643,80.6320002 Z M849.721443,81.4000002 L849.721443,74.7056001 L850.783843,74.7056001 L850.783843,75.7296001 C851.091043,75.1024001 851.820643,74.5904001 852.780643,74.5904001 C853.638243,74.5904001 854.393443,74.9488001 854.739043,75.8448001 C855.199843,74.9744001 856.198243,74.5904001 857.030243,74.5904001 C858.233443,74.5904001 859.283043,75.3072001 859.283043,77.2528001 L859.283043,81.4000002 L858.220643,81.4000002 L858.220643,77.1760001 C858.220643,75.9984001 857.721443,75.5120001 856.799843,75.5120001 C855.929443,75.5120001 855.033443,76.1008001 855.033443,77.3040001 L855.033443,81.4000002 L853.971043,81.4000002 L853.971043,77.1760001 C853.971043,75.9984001 853.471843,75.5120001 852.550243,75.5120001 C851.679843,75.5120001 850.783843,76.1008001 850.783843,77.3040001 L850.783843,81.4000002 L849.721443,81.4000002 Z M863.046243,81.5152002 C861.804643,81.5152002 860.819043,80.9136002 860.819043,79.5440002 C860.819043,77.9952001 862.457443,77.4704001 864.172643,77.4704001 L865.132643,77.4704001 L865.132643,76.9840001 C865.132643,75.9216001 864.723043,75.4736001 863.699043,75.4736001 C862.777443,75.4736001 862.265443,75.8576001 862.163043,76.6768001 L861.100643,76.6768001 C861.241443,75.1536001 862.457443,74.5904001 863.750243,74.5904001 C865.030243,74.5904001 866.195043,75.1152001 866.195043,76.9840001 L866.195043,81.4000002 L865.132643,81.4000002 L865.132643,80.5552002 C864.633443,81.1824002 864.031843,81.5152002 863.046243,81.5152002 Z M863.148643,80.6704002 C864.275043,80.6704002 865.132643,80.0944002 865.132643,79.0576001 L865.132643,78.2256001 L864.211043,78.2256001 C862.867043,78.2256001 861.881443,78.5584001 861.881443,79.5440002 C861.881443,80.2352002 862.214243,80.6704002 863.148643,80.6704002 Z M868.307043,81.4000002 L868.307043,74.7056001 L869.369443,74.7056001 L869.369443,81.4000002 L868.307043,81.4000002 Z M868.819043,73.3104001 C868.435043,73.3104001 868.115043,72.9904001 868.115043,72.6064001 C868.115043,72.2224 868.435043,71.9024 868.819043,71.9024 C869.203043,71.9024 869.523043,72.2224 869.523043,72.6064001 C869.523043,72.9904001 869.203043,73.3104001 868.819043,73.3104001 Z M871.545443,81.4000002 L871.545443,74.7056001 L872.607843,74.7056001 L872.607843,75.7680001 C872.915043,75.1408001 873.657443,74.5904001 874.758243,74.5904001 C876.140643,74.5904001 877.113443,75.3456001 877.113443,77.2912001 L877.113443,81.4000002 L876.051043,81.4000002 L876.051043,77.2144001 C876.051043,76.0368001 875.551843,75.5120001 874.476643,75.5120001 C873.491043,75.5120001 872.607843,76.1392001 872.607843,77.3424001 L872.607843,81.4000002 L871.545443,81.4000002 Z M879.199843,81.4000002 L879.199843,74.7056001 L880.262243,74.7056001 L880.262243,75.7680001 C880.569443,75.1408001 881.311843,74.5904001 882.412643,74.5904001 C883.795043,74.5904001 884.767843,75.3456001 884.767843,77.2912001 L884.767843,81.4000002 L883.705443,81.4000002 L883.705443,77.2144001 C883.705443,76.0368001 883.206243,75.5120001 882.131043,75.5120001 C881.145443,75.5120001 880.262243,76.1392001 880.262243,77.3424001 L880.262243,81.4000002 L879.199843,81.4000002 Z M889.593443,81.5152002 C887.699043,81.5152002 886.355043,80.1840002 886.355043,78.1232001 L886.355043,78.0208001 C886.355043,75.9984001 887.647843,74.5904001 889.491043,74.5904001 C891.039843,74.5904001 892.499043,75.5248001 892.499043,77.9184001 L892.499043,78.2640001 L887.455843,78.2640001 C887.507043,79.7872002 888.236643,80.6320002 889.606243,80.6320002 C890.643043,80.6320002 891.244643,80.2480002 891.385443,79.4672002 L892.447843,79.4672002 C892.217443,80.8112002 891.103843,81.5152002 889.593443,81.5152002 Z M887.494243,77.4064001 L891.411043,77.4064001 C891.308643,76.0240001 890.591843,75.4736001 889.491043,75.4736001 C888.403043,75.4736001 887.673443,76.2160001 887.494243,77.4064001 Z M896.159843,81.4896002 C894.943843,81.4896002 894.355043,80.7728002 894.355043,79.7232002 L894.355043,75.6016001 L893.395043,75.6016001 L893.395043,74.7056001 L894.355043,74.7056001 L894.355043,73.1824001 L895.417443,73.1824001 L895.417443,74.7056001 L896.979043,74.7056001 L896.979043,75.6016001 L895.417443,75.6016001 L895.417443,79.6208002 C895.417443,80.2736002 895.711843,80.5936002 896.249443,80.5936002 C896.582243,80.5936002 896.838243,80.5424002 897.068643,80.4528002 L897.068643,81.3488002 C896.851043,81.4256002 896.595043,81.4896002 896.159843,81.4896002 Z M902.086243,81.4000002 L902.086243,71.5056 L903.161443,71.5056 L903.161443,81.4000002 L902.086243,81.4000002 Z M907.014243,81.5152002 C905.772643,81.5152002 904.787043,80.9136002 904.787043,79.5440002 C904.787043,77.9952001 906.425443,77.4704001 908.140644,77.4704001 L909.100644,77.4704001 L909.100644,76.9840001 C909.100644,75.9216001 908.691044,75.4736001 907.667044,75.4736001 C906.745443,75.4736001 906.233443,75.8576001 906.131043,76.6768001 L905.068643,76.6768001 C905.209443,75.1536001 906.425443,74.5904001 907.718244,74.5904001 C908.998244,74.5904001 910.163044,75.1152001 910.163044,76.9840001 L910.163044,81.4000002 L909.100644,81.4000002 L909.100644,80.5552002 C908.601444,81.1824002 907.999844,81.5152002 907.014243,81.5152002 Z M907.116643,80.6704002 C908.243044,80.6704002 909.100644,80.0944002 909.100644,79.0576001 L909.100644,78.2256001 L908.179044,78.2256001 C906.835043,78.2256001 905.849443,78.5584001 905.849443,79.5440002 C905.849443,80.2352002 906.182243,80.6704002 907.116643,80.6704002 Z M914.515044,81.5152002 C913.183844,81.5152002 912.185444,80.7856002 912.185444,78.9424001 L912.185444,74.7056001 L913.247844,74.7056001 L913.247844,78.8912001 C913.247844,80.0688002 913.747044,80.5936002 914.796644,80.5936002 C915.743844,80.5936002 916.639844,79.9664002 916.639844,78.7632001 L916.639844,74.7056001 L917.702244,74.7056001 L917.702244,81.4000002 L916.639844,81.4000002 L916.639844,80.3376002 C916.332644,80.9648002 915.590244,81.5152002 914.515044,81.5152002 Z M919.852644,81.4000002 L919.852644,74.7056001 L920.915044,74.7056001 L920.915044,75.7680001 C921.222244,75.1408001 921.964644,74.5904001 923.065444,74.5904001 C924.447844,74.5904001 925.420644,75.3456001 925.420644,77.2912001 L925.420644,81.4000002 L924.358244,81.4000002 L924.358244,77.2144001 C924.358244,76.0368001 923.859044,75.5120001 922.783844,75.5120001 C921.798244,75.5120001 920.915044,76.1392001 920.915044,77.3424001 L920.915044,81.4000002 L919.852644,81.4000002 Z M930.284644,81.5152002 C928.415844,81.5152002 927.007844,80.1968002 927.007844,78.1232001 L927.007844,78.0208001 C927.007844,75.9728001 928.467044,74.5904001 930.259044,74.5904001 C931.654244,74.5904001 932.959844,75.2304001 933.164644,76.9328001 L932.115044,76.9328001 C931.948644,75.8704001 931.180644,75.4736001 930.259044,75.4736001 C929.043044,75.4736001 928.108644,76.4464001 928.108644,78.0208001 L928.108644,78.1232001 C928.108644,79.7616002 929.004644,80.6320002 930.297444,80.6320002 C931.244644,80.6320002 932.102244,80.0816002 932.217444,78.9936001 L933.203044,78.9936001 C933.062244,80.4400002 931.897444,81.5152002 930.284644,81.5152002 Z M934.803044,81.4000002 L934.803044,71.5056 L935.865444,71.5056 L935.865444,75.7680001 C936.172644,75.1408001 936.915044,74.5904001 938.015844,74.5904001 C939.398244,74.5904001 940.371044,75.3456001 940.371044,77.2912001 L940.371044,81.4000002 L939.308644,81.4000002 L939.308644,77.2144001 C939.308644,76.0368001 938.809444,75.5120001 937.734244,75.5120001 C936.748644,75.5120001 935.865444,76.1392001 935.865444,77.3424001 L935.865444,81.4000002 L934.803044,81.4000002 Z" id="Aragon-0.6-and-mainn" fill="#7F8198"></path>
                                            </g>
                                        </g>
                                    </g>
                                </g>
                            </g>
                        </g>
                    </g>
                </g>
            </g>
        </g>
    </g>
</svg>