<?xml version="1.0" encoding="UTF-8"?>
<svg width="227px" height="272px" viewBox="0 0 227 272" version="1.1" xmlns="http://www.w3.org/2000/svg" xmlns:xlink="http://www.w3.org/1999/xlink">
    <!-- Generator: Sketch 52.2 (67145) - http://www.bohemiancoding.com/sketch -->
    <title>Group 56</title>
    <desc>Created with Sketch.</desc>
    <defs>
        <linearGradient x1="-87.4172185%" y1="-37.6242898%" x2="81.9898702%" y2="87.5567036%" id="linearGradient-1">
            <stop stop-color="#FAF9F4" offset="0%"></stop>
            <stop stop-color="#F9F5DE" offset="100%"></stop>
        </linearGradient>
        <rect id="path-2" x="0" y="0" width="145" height="22" rx="10.9000002"></rect>
        <filter x="-1.4%" y="-4.5%" width="102.8%" height="118.2%" filterUnits="objectBoundingBox" id="filter-3">
            <feOffset dx="0" dy="1" in="SourceAlpha" result="shadowOffsetOuter1"></feOffset>
            <feGaussianBlur stdDeviation="0.5" in="shadowOffsetOuter1" result="shadowBlurOuter1"></feGaussianBlur>
            <feColorMatrix values="0 0 0 0 0   0 0 0 0 0   0 0 0 0 0  0 0 0 0.0492244112 0" type="matrix" in="shadowBlurOuter1"></feColorMatrix>
        </filter>
        <rect id="path-4" x="0" y="0" width="113" height="22" rx="10.9000002"></rect>
        <filter x="-1.8%" y="-4.5%" width="103.5%" height="118.2%" filterUnits="objectBoundingBox" id="filter-5">
            <feOffset dx="0" dy="1" in="SourceAlpha" result="shadowOffsetOuter1"></feOffset>
            <feGaussianBlur stdDeviation="0.5" in="shadowOffsetOuter1" result="shadowBlurOuter1"></feGaussianBlur>
            <feColorMatrix values="0 0 0 0 0   0 0 0 0 0   0 0 0 0 0  0 0 0 0.0492244112 0" type="matrix" in="shadowBlurOuter1"></feColorMatrix>
        </filter>
        <rect id="path-6" x="0" y="0" width="208" height="22" rx="10.9000002"></rect>
        <filter x="-1.0%" y="-4.5%" width="101.9%" height="118.2%" filterUnits="objectBoundingBox" id="filter-7">
            <feOffset dx="0" dy="1" in="SourceAlpha" result="shadowOffsetOuter1"></feOffset>
            <feGaussianBlur stdDeviation="0.5" in="shadowOffsetOuter1" result="shadowBlurOuter1"></feGaussianBlur>
            <feColorMatrix values="0 0 0 0 0   0 0 0 0 0   0 0 0 0 0  0 0 0 0.0492244112 0" type="matrix" in="shadowBlurOuter1"></feColorMatrix>
        </filter>
        <rect id="path-8" x="0" y="0" width="208" height="22" rx="10.9000002"></rect>
        <filter x="-1.0%" y="-4.5%" width="101.9%" height="118.2%" filterUnits="objectBoundingBox" id="filter-9">
            <feOffset dx="0" dy="1" in="SourceAlpha" result="shadowOffsetOuter1"></feOffset>
            <feGaussianBlur stdDeviation="0.5" in="shadowOffsetOuter1" result="shadowBlurOuter1"></feGaussianBlur>
            <feColorMatrix values="0 0 0 0 0   0 0 0 0 0   0 0 0 0 0  0 0 0 0.0492244112 0" type="matrix" in="shadowBlurOuter1"></feColorMatrix>
        </filter>
        <rect id="path-10" x="0" y="0" width="225" height="22" rx="10.9000002"></rect>
        <filter x="-0.9%" y="-4.5%" width="101.8%" height="118.2%" filterUnits="objectBoundingBox" id="filter-11">
            <feOffset dx="0" dy="1" in="SourceAlpha" result="shadowOffsetOuter1"></feOffset>
            <feGaussianBlur stdDeviation="0.5" in="shadowOffsetOuter1" result="shadowBlurOuter1"></feGaussianBlur>
            <feColorMatrix values="0 0 0 0 0   0 0 0 0 0   0 0 0 0 0  0 0 0 0.0492244112 0" type="matrix" in="shadowBlurOuter1"></feColorMatrix>
        </filter>
    </defs>
    <g id="Page-1" stroke="none" stroke-width="1" fill="none" fill-rule="evenodd">
        <g id="Mobile" transform="translate(-46.000000, -50.000000)">
            <g id="Group-56" transform="translate(47.000000, 50.000000)">
                <g id="Group-57">
                    <g id="Group-55">
                        <g id="Group-47">
                            <g id="Group-46">
                                <g id="Group-48">
                                    <g id="Group-51">
                                        <g id="Group-53">
                                            <g id="Group-3" transform="translate(0.000000, 28.000000)">
                                                <g id="Group-4">
                                                    <g id="Rectangle-Copy-12">
                                                        <use fill="black" fill-opacity="1" filter="url(#filter-3)" xlink:href="#path-2"></use>
                                                        <use fill="url(#linearGradient-1)" fill-rule="evenodd" xlink:href="#path-2"></use>
                                                    </g>
                                                    <path d="M24.5937493,15.4000002 L27.9562493,6.56875005 L28.8312494,6.56875005 L32.1937494,15.4000002 L30.9999994,15.4000002 L30.2624994,13.3375002 L26.5437493,13.3375002 L25.7937493,15.4000002 L24.5937493,15.4000002 Z M26.8874993,12.3937501 L29.9187494,12.3937501 L28.3999994,8.14375008 L26.8874993,12.3937501 Z M33.5499994,15.4000002 L33.5499994,9.15625009 L34.5812494,9.15625009 L34.5812494,10.3812501 C34.8812494,9.4812501 35.6937495,9.05000009 36.4249995,9.05000009 C36.7937495,9.05000009 37.1749995,9.15625009 37.4562495,9.3937501 L36.9687495,10.2687501 C36.7562495,10.1500001 36.5187495,10.0812501 36.2687495,10.0812501 C35.4812495,10.0812501 34.5749994,10.7375001 34.5749994,12.3937501 L34.5749994,15.4000002 L33.5499994,15.4000002 Z M40.7187495,9.05000009 C42.3562496,9.05000009 43.2812496,10.0437501 43.2812496,11.5937501 L43.2812496,15.4000002 L42.3999996,15.4000002 L42.3312496,14.2875002 C41.8874996,15.1000002 41.0249995,15.5062502 40.1687495,15.5062502 C38.8999995,15.5062502 37.9749995,14.7875002 37.9749995,13.5500002 C37.9749995,12.2562501 39.0124995,11.7625001 40.5499995,11.7625001 L42.3187496,11.7625001 C42.3124996,10.5437501 41.9124996,9.9750001 40.7312495,9.9750001 C39.9374995,9.9750001 39.4062495,10.3687501 39.0312495,10.9500001 L38.2187495,10.3625001 C38.8249995,9.5312501 39.5749995,9.05000009 40.7187495,9.05000009 Z M40.3749995,14.6000002 C41.4312495,14.6000002 42.1124996,13.8812502 42.3187496,12.9437501 L42.3187496,12.5375001 L40.6124995,12.5375001 C39.5624995,12.5375001 39.0624995,12.9562501 39.0624995,13.5875002 C39.0624995,14.1937502 39.5249995,14.6000002 40.3749995,14.6000002 Z M47.7624996,14.5625002 C48.9687497,14.7250002 50.2749997,14.9500002 50.2749997,16.3062502 C50.2749997,17.6250002 49.1499997,18.3187502 47.6249996,18.3187502 C45.8749996,18.3187502 44.8312496,17.4062502 44.8312496,16.1312502 C44.8312496,16.0187502 44.8437496,15.9437502 44.8562496,15.8687502 L45.6374996,15.1062502 C45.2062496,14.8812502 44.8999996,14.5187502 44.8874996,13.9062502 C44.8874996,13.4187502 45.0874996,13.0437501 45.4374996,12.7375001 C45.0999996,12.3562501 44.8999996,11.8562501 44.8999996,11.2937501 C44.8999996,9.9687501 45.9999996,9.05000009 47.3624996,9.05000009 C47.9624996,9.05000009 48.5124997,9.22500009 48.9374997,9.5437501 L49.8749997,8.71875009 L50.4312497,9.4000001 L49.5187497,10.1750001 C49.7187497,10.5062501 49.8312497,10.9000001 49.8312497,11.3437501 C49.8312497,12.6875001 48.7437497,13.5625002 47.3937496,13.5625002 C46.9062496,13.5625002 46.4624996,13.4500002 46.0874996,13.2500002 C45.8937496,13.3687502 45.7999996,13.5250002 45.7999996,13.7187502 C45.8187496,14.3312502 46.6562496,14.4125002 47.7624996,14.5625002 Z M47.3999996,9.8750001 C46.5374996,9.8750001 45.9937496,10.4687501 45.9937496,11.3000001 C45.9937496,12.1125001 46.5249996,12.6937501 47.3937496,12.6937501 C48.2624996,12.6937501 48.7812497,12.1187501 48.7812497,11.3062501 C48.7812497,10.4687501 48.2562496,9.8750001 47.3999996,9.8750001 Z M47.6187496,17.4937502 C48.5687497,17.4937502 49.2687497,17.1500002 49.2687497,16.4375002 C49.2687497,15.7625002 48.4999996,15.6625002 47.3874996,15.5187502 C47.0249996,15.4750002 46.6312496,15.4250002 46.2687496,15.3312502 L45.6999996,16.0937502 C45.6999996,16.1625002 45.7124996,16.2125002 45.7187496,16.2687502 C45.8374996,17.0812502 46.6124996,17.4937502 47.6187496,17.4937502 Z M54.2687497,15.5062502 C52.4374997,15.5062502 51.1937497,14.0500002 51.1937497,12.2625001 C51.1937497,10.4875001 52.4374997,9.05000009 54.2687497,9.05000009 C56.0999998,9.05000009 57.3562498,10.4875001 57.3562498,12.2625001 C57.3562498,14.0500002 56.0999998,15.5062502 54.2687497,15.5062502 Z M54.2687497,14.5875002 C55.5562498,14.5875002 56.2562498,13.5250002 56.2562498,12.2625001 C56.2562498,11.0062501 55.5562498,9.9687501 54.2687497,9.9687501 C52.9874997,9.9687501 52.2937497,11.0000001 52.2937497,12.2625001 C52.2937497,13.5312502 52.9874997,14.5875002 54.2687497,14.5875002 Z M58.8999998,15.4000002 L58.8999998,9.15625009 L59.9562498,9.15625009 L59.9562498,10.1062501 C60.3874998,9.3937501 61.1124998,9.05000009 61.8687498,9.05000009 C63.3874999,9.05000009 64.0562499,10.1750001 64.0749999,11.5125001 L64.0749999,15.4000002 L63.0187499,15.4000002 L63.0187499,11.7062501 C63.0187499,10.6750001 62.5249999,10.0312501 61.5812498,10.0312501 C60.5874998,10.0312501 59.9562498,10.6250001 59.9562498,11.8000001 L59.9562498,15.4000002 L58.8999998,15.4000002 Z M70.2625,15.4187502 L68.4124999,9.15625009 L69.54375,9.15625009 L70.80625,13.7937502 L72.31875,9.15625009 L73.25625,9.15625009 L74.7625,13.7875002 L76.0375001,9.15625009 L77.1687501,9.15625009 L75.30625,15.4000002 L74.33125,15.4000002 L72.7875,10.6312501 L71.2375,15.4187502 L70.2625,15.4187502 Z M80.6250001,9.05000009 C82.2625002,9.05000009 83.1875002,10.0437501 83.1875002,11.5937501 L83.1875002,15.4000002 L82.3062502,15.4000002 L82.2375002,14.2875002 C81.7937501,15.1000002 80.9312501,15.5062502 80.0750001,15.5062502 C78.8062501,15.5062502 77.8812501,14.7875002 77.8812501,13.5500002 C77.8812501,12.2562501 78.9187501,11.7625001 80.4562501,11.7625001 L82.2250002,11.7625001 C82.2187502,10.5437501 81.8187501,9.9750001 80.6375001,9.9750001 C79.8437501,9.9750001 79.3125001,10.3687501 78.9375001,10.9500001 L78.1250001,10.3625001 C78.7312501,9.5312501 79.4812501,9.05000009 80.6250001,9.05000009 Z M80.2812501,14.6000002 C81.3375001,14.6000002 82.0187501,13.8812502 82.2250002,12.9437501 L82.2250002,12.5375001 L80.5187501,12.5375001 C79.4687501,12.5375001 78.9687501,12.9562501 78.9687501,13.5875002 C78.9687501,14.1937502 79.4312501,14.6000002 80.2812501,14.6000002 Z M86.9687502,15.5062502 C85.7062502,15.5062502 84.7187502,14.7750002 84.4062502,13.8250002 L85.2625002,13.4500002 C85.4750002,14.0437502 86.0000002,14.6187502 86.9187502,14.6187502 C87.7812502,14.6187502 88.2187502,14.1562502 88.2187502,13.6062502 C88.2187502,12.1250001 84.7562502,13.0812502 84.7562502,10.8375001 C84.7562502,9.6625001 85.7562502,9.05000009 86.9562502,9.05000009 C87.9687502,9.05000009 88.7562502,9.5375001 89.2062503,10.3687501 L88.3875002,10.8125001 C88.1125002,10.3125001 87.6500002,9.8937501 86.9187502,9.8937501 C86.2125002,9.8937501 85.7687502,10.2312501 85.7687502,10.7000001 C85.7687502,12.0500001 89.2625003,11.2000001 89.2625003,13.5562502 C89.2625003,14.8687502 88.1750002,15.5062502 86.9687502,15.5062502 Z M97.2687504,15.5062502 C96.3937504,15.5062502 95.5875004,15.0625002 95.1812503,14.2687502 L95.1812503,15.4000002 L94.0875003,15.4000002 L94.0875003,6.56875005 L95.1812503,6.56875005 L95.1812503,10.2812501 C95.5875004,9.4937501 96.3687504,9.05000009 97.2500004,9.05000009 C98.9625004,9.05000009 99.9187504,10.5125001 99.9187504,12.2750001 C99.9187504,14.0312502 98.9625004,15.5062502 97.2687504,15.5062502 Z M97.0125004,14.5250002 C98.2312504,14.5250002 98.8562504,13.5437502 98.8562504,12.2750001 C98.8562504,11.0062501 98.2312504,10.0125001 97.0125004,10.0125001 C95.7937504,10.0125001 95.0875003,10.9937501 95.0875003,12.2750001 C95.0875003,13.5562502 95.7937504,14.5250002 97.0125004,14.5250002 Z M104.03125,15.5062502 C102.2,15.5062502 100.95625,14.0500002 100.95625,12.2625001 C100.95625,10.4875001 102.2,9.05000009 104.03125,9.05000009 C105.862501,9.05000009 107.118751,10.4875001 107.118751,12.2625001 C107.118751,14.0500002 105.862501,15.5062502 104.03125,15.5062502 Z M104.03125,14.5875002 C105.31875,14.5875002 106.018751,13.5250002 106.018751,12.2625001 C106.018751,11.0062501 105.31875,9.9687501 104.03125,9.9687501 C102.75,9.9687501 102.05625,11.0000001 102.05625,12.2625001 C102.05625,13.5312502 102.75,14.5875002 104.03125,14.5875002 Z M108.662501,15.4000002 L108.662501,9.15625009 L109.693751,9.15625009 L109.693751,10.3812501 C109.993751,9.4812501 110.806251,9.05000009 111.537501,9.05000009 C111.906251,9.05000009 112.287501,9.15625009 112.568751,9.3937501 L112.081251,10.2687501 C111.868751,10.1500001 111.631251,10.0812501 111.381251,10.0812501 C110.593751,10.0812501 109.687501,10.7375001 109.687501,12.3937501 L109.687501,15.4000002 L108.662501,15.4000002 Z M113.662501,15.4000002 L113.662501,9.15625009 L114.718751,9.15625009 L114.718751,10.1062501 C115.150001,9.3937501 115.875001,9.05000009 116.631251,9.05000009 C118.150001,9.05000009 118.818751,10.1750001 118.837501,11.5125001 L118.837501,15.4000002 L117.781251,15.4000002 L117.781251,11.7062501 C117.781251,10.6750001 117.287501,10.0312501 116.343751,10.0312501 C115.350001,10.0312501 114.718751,10.6250001 114.718751,11.8000001 L114.718751,15.4000002 L113.662501,15.4000002 Z" id="Aragon-was-born" fill="#7F8198"></path>
                                                </g>
                                            </g>
                                            <g id="Group-3-Copy" transform="translate(0.000000, 83.000000)">
                                                <g id="Group-5">
                                                    <g id="Rectangle-Copy-12">
                                                        <use fill="black" fill-opacity="1" filter="url(#filter-5)" xlink:href="#path-4"></use>
                                                        <use fill="#CEEBE3" fill-rule="evenodd" xlink:href="#path-4"></use>
                                                    </g>
                                                    <path d="M21.3125,15.4000002 L24.6750001,6.56875005 L25.5500001,6.56875005 L28.9125001,15.4000002 L27.7187501,15.4000002 L26.9812501,13.3375002 L23.2625,13.3375002 L22.5125,15.4000002 L21.3125,15.4000002 Z M23.60625,12.3937501 L26.6375001,12.3937501 L25.1187501,8.14375008 L23.60625,12.3937501 Z M30.2687501,15.4000002 L30.2687501,9.15625009 L31.3000002,9.15625009 L31.3000002,10.3812501 C31.6000002,9.4812501 32.4125002,9.05000009 33.1437502,9.05000009 C33.5125002,9.05000009 33.8937502,9.15625009 34.1750002,9.3937501 L33.6875002,10.2687501 C33.4750002,10.1500001 33.2375002,10.0812501 32.9875002,10.0812501 C32.2000002,10.0812501 31.2937502,10.7375001 31.2937502,12.3937501 L31.2937502,15.4000002 L30.2687501,15.4000002 Z M37.4375002,9.05000009 C39.0750003,9.05000009 40.0000003,10.0437501 40.0000003,11.5937501 L40.0000003,15.4000002 L39.1187503,15.4000002 L39.0500003,14.2875002 C38.6062503,15.1000002 37.7437502,15.5062502 36.8875002,15.5062502 C35.6187502,15.5062502 34.6937502,14.7875002 34.6937502,13.5500002 C34.6937502,12.2562501 35.7312502,11.7625001 37.2687502,11.7625001 L39.0375003,11.7625001 C39.0312503,10.5437501 38.6312503,9.9750001 37.4500002,9.9750001 C36.6562502,9.9750001 36.1250002,10.3687501 35.7500002,10.9500001 L34.9375002,10.3625001 C35.5437502,9.5312501 36.2937502,9.05000009 37.4375002,9.05000009 Z M37.0937502,14.6000002 C38.1500003,14.6000002 38.8312503,13.8812502 39.0375003,12.9437501 L39.0375003,12.5375001 L37.3312502,12.5375001 C36.2812502,12.5375001 35.7812502,12.9562501 35.7812502,13.5875002 C35.7812502,14.1937502 36.2437502,14.6000002 37.0937502,14.6000002 Z M44.4812503,14.5625002 C45.6875004,14.7250002 46.9937504,14.9500002 46.9937504,16.3062502 C46.9937504,17.6250002 45.8687504,18.3187502 44.3437503,18.3187502 C42.5937503,18.3187502 41.5500003,17.4062502 41.5500003,16.1312502 C41.5500003,16.0187502 41.5625003,15.9437502 41.5750003,15.8687502 L42.3562503,15.1062502 C41.9250003,14.8812502 41.6187503,14.5187502 41.6062503,13.9062502 C41.6062503,13.4187502 41.8062503,13.0437501 42.1562503,12.7375001 C41.8187503,12.3562501 41.6187503,11.8562501 41.6187503,11.2937501 C41.6187503,9.9687501 42.7187503,9.05000009 44.0812503,9.05000009 C44.6812504,9.05000009 45.2312504,9.22500009 45.6562504,9.5437501 L46.5937504,8.71875009 L47.1500004,9.4000001 L46.2375004,10.1750001 C46.4375004,10.5062501 46.5500004,10.9000001 46.5500004,11.3437501 C46.5500004,12.6875001 45.4625004,13.5625002 44.1125003,13.5625002 C43.6250003,13.5625002 43.1812503,13.4500002 42.8062503,13.2500002 C42.6125003,13.3687502 42.5187503,13.5250002 42.5187503,13.7187502 C42.5375003,14.3312502 43.3750003,14.4125002 44.4812503,14.5625002 Z M44.1187503,9.8750001 C43.2562503,9.8750001 42.7125003,10.4687501 42.7125003,11.3000001 C42.7125003,12.1125001 43.2437503,12.6937501 44.1125003,12.6937501 C44.9812504,12.6937501 45.5000004,12.1187501 45.5000004,11.3062501 C45.5000004,10.4687501 44.9750004,9.8750001 44.1187503,9.8750001 Z M44.3375003,17.4937502 C45.2875004,17.4937502 45.9875004,17.1500002 45.9875004,16.4375002 C45.9875004,15.7625002 45.2187504,15.6625002 44.1062503,15.5187502 C43.7437503,15.4750002 43.3500003,15.4250002 42.9875003,15.3312502 L42.4187503,16.0937502 C42.4187503,16.1625002 42.4312503,16.2125002 42.4375003,16.2687502 C42.5562503,17.0812502 43.3312503,17.4937502 44.3375003,17.4937502 Z M50.9875004,15.5062502 C49.1562504,15.5062502 47.9125004,14.0500002 47.9125004,12.2625001 C47.9125004,10.4875001 49.1562504,9.05000009 50.9875004,9.05000009 C52.8187505,9.05000009 54.0750005,10.4875001 54.0750005,12.2625001 C54.0750005,14.0500002 52.8187505,15.5062502 50.9875004,15.5062502 Z M50.9875004,14.5875002 C52.2750005,14.5875002 52.9750005,13.5250002 52.9750005,12.2625001 C52.9750005,11.0062501 52.2750005,9.9687501 50.9875004,9.9687501 C49.7062504,9.9687501 49.0125004,11.0000001 49.0125004,12.2625001 C49.0125004,13.5312502 49.7062504,14.5875002 50.9875004,14.5875002 Z M55.6187505,15.4000002 L55.6187505,9.15625009 L56.6750005,9.15625009 L56.6750005,10.1062501 C57.1062505,9.3937501 57.8312505,9.05000009 58.5875006,9.05000009 C60.1062506,9.05000009 60.7750006,10.1750001 60.7937506,11.5125001 L60.7937506,15.4000002 L59.7375006,15.4000002 L59.7375006,11.7062501 C59.7375006,10.6750001 59.2437506,10.0312501 58.3000006,10.0312501 C57.3062505,10.0312501 56.6750005,10.6250001 56.6750005,11.8000001 L56.6750005,15.4000002 L55.6187505,15.4000002 Z M68.6312507,15.5062502 C66.0125007,15.5062502 65.5187507,12.8812501 65.5187507,10.9812501 C65.5187507,9.06875009 65.9875007,6.45000005 68.5437507,6.45000005 C70.8625007,6.45000005 71.6375008,8.77500009 71.6375008,11.0000001 C71.6375008,13.2125002 70.8875007,15.5062502 68.6312507,15.5062502 Z M68.6062507,14.4625002 C70.1500007,14.4625002 70.5062507,12.6500001 70.5062507,10.9812501 C70.5062507,9.28750009 70.1375007,7.50625007 68.5437507,7.50625007 C66.8812507,7.50625007 66.6062507,9.3812501 66.6062507,10.9812501 C66.6062507,12.5687501 66.8875007,14.4625002 68.6062507,14.4625002 Z M73.7062508,15.4000002 L73.7062508,13.9312502 L74.7750008,13.9312502 L74.7750008,15.4000002 L73.7062508,15.4000002 Z M80.0625009,6.56875005 L81.1000009,6.56875005 L81.1000009,15.4000002 L80.0187509,15.4000002 L80.0187509,8.82500009 L77.8500008,8.82500009 L77.8500008,7.98125007 L79.2437509,7.98125007 C79.7687509,7.98125007 80.0625009,7.76875007 80.0625009,7.25625006 L80.0625009,6.56875005 Z" id="Aragon-0.1" fill="#7F8198"></path>
                                                </g>
                                            </g>
                                            <g id="Group-3-Copy-2" transform="translate(0.000000, 138.000002)">
                                                <g id="Group-6" transform="translate(0.000000, -0.000002)">
                                                    <g id="Group-12">
                                                        <g id="Rectangle-Copy-12">
                                                            <use fill="black" fill-opacity="1" filter="url(#filter-7)" xlink:href="#path-6"></use>
                                                            <use fill="#CEEBE3" fill-rule="evenodd" xlink:href="#path-6"></use>
                                                        </g>
                                                        <path d="M23.3125,15.4000002 L26.6750001,6.56875005 L27.5500001,6.56875005 L30.9125001,15.4000002 L29.7187501,15.4000002 L28.9812501,13.3375002 L25.2625,13.3375002 L24.5125,15.4000002 L23.3125,15.4000002 Z M25.60625,12.3937501 L28.6375001,12.3937501 L27.1187501,8.14375008 L25.60625,12.3937501 Z M32.2687501,15.4000002 L32.2687501,9.15625009 L33.3000002,9.15625009 L33.3000002,10.3812501 C33.6000002,9.4812501 34.4125002,9.05000009 35.1437502,9.05000009 C35.5125002,9.05000009 35.8937502,9.15625009 36.1750002,9.3937501 L35.6875002,10.2687501 C35.4750002,10.1500001 35.2375002,10.0812501 34.9875002,10.0812501 C34.2000002,10.0812501 33.2937502,10.7375001 33.2937502,12.3937501 L33.2937502,15.4000002 L32.2687501,15.4000002 Z M39.4375002,9.05000009 C41.0750003,9.05000009 42.0000003,10.0437501 42.0000003,11.5937501 L42.0000003,15.4000002 L41.1187503,15.4000002 L41.0500003,14.2875002 C40.6062503,15.1000002 39.7437502,15.5062502 38.8875002,15.5062502 C37.6187502,15.5062502 36.6937502,14.7875002 36.6937502,13.5500002 C36.6937502,12.2562501 37.7312502,11.7625001 39.2687502,11.7625001 L41.0375003,11.7625001 C41.0312503,10.5437501 40.6312503,9.9750001 39.4500002,9.9750001 C38.6562502,9.9750001 38.1250002,10.3687501 37.7500002,10.9500001 L36.9375002,10.3625001 C37.5437502,9.5312501 38.2937502,9.05000009 39.4375002,9.05000009 Z M39.0937502,14.6000002 C40.1500003,14.6000002 40.8312503,13.8812502 41.0375003,12.9437501 L41.0375003,12.5375001 L39.3312502,12.5375001 C38.2812502,12.5375001 37.7812502,12.9562501 37.7812502,13.5875002 C37.7812502,14.1937502 38.2437502,14.6000002 39.0937502,14.6000002 Z M46.4812503,14.5625002 C47.6875004,14.7250002 48.9937504,14.9500002 48.9937504,16.3062502 C48.9937504,17.6250002 47.8687504,18.3187502 46.3437503,18.3187502 C44.5937503,18.3187502 43.5500003,17.4062502 43.5500003,16.1312502 C43.5500003,16.0187502 43.5625003,15.9437502 43.5750003,15.8687502 L44.3562503,15.1062502 C43.9250003,14.8812502 43.6187503,14.5187502 43.6062503,13.9062502 C43.6062503,13.4187502 43.8062503,13.0437501 44.1562503,12.7375001 C43.8187503,12.3562501 43.6187503,11.8562501 43.6187503,11.2937501 C43.6187503,9.9687501 44.7187503,9.05000009 46.0812503,9.05000009 C46.6812504,9.05000009 47.2312504,9.22500009 47.6562504,9.5437501 L48.5937504,8.71875009 L49.1500004,9.4000001 L48.2375004,10.1750001 C48.4375004,10.5062501 48.5500004,10.9000001 48.5500004,11.3437501 C48.5500004,12.6875001 47.4625004,13.5625002 46.1125003,13.5625002 C45.6250003,13.5625002 45.1812503,13.4500002 44.8062503,13.2500002 C44.6125003,13.3687502 44.5187503,13.5250002 44.5187503,13.7187502 C44.5375003,14.3312502 45.3750003,14.4125002 46.4812503,14.5625002 Z M46.1187503,9.8750001 C45.2562503,9.8750001 44.7125003,10.4687501 44.7125003,11.3000001 C44.7125003,12.1125001 45.2437503,12.6937501 46.1125003,12.6937501 C46.9812504,12.6937501 47.5000004,12.1187501 47.5000004,11.3062501 C47.5000004,10.4687501 46.9750004,9.8750001 46.1187503,9.8750001 Z M46.3375003,17.4937502 C47.2875004,17.4937502 47.9875004,17.1500002 47.9875004,16.4375002 C47.9875004,15.7625002 47.2187504,15.6625002 46.1062503,15.5187502 C45.7437503,15.4750002 45.3500003,15.4250002 44.9875003,15.3312502 L44.4187503,16.0937502 C44.4187503,16.1625002 44.4312503,16.2125002 44.4375003,16.2687502 C44.5562503,17.0812502 45.3312503,17.4937502 46.3375003,17.4937502 Z M52.9875004,15.5062502 C51.1562504,15.5062502 49.9125004,14.0500002 49.9125004,12.2625001 C49.9125004,10.4875001 51.1562504,9.05000009 52.9875004,9.05000009 C54.8187505,9.05000009 56.0750005,10.4875001 56.0750005,12.2625001 C56.0750005,14.0500002 54.8187505,15.5062502 52.9875004,15.5062502 Z M52.9875004,14.5875002 C54.2750005,14.5875002 54.9750005,13.5250002 54.9750005,12.2625001 C54.9750005,11.0062501 54.2750005,9.9687501 52.9875004,9.9687501 C51.7062504,9.9687501 51.0125004,11.0000001 51.0125004,12.2625001 C51.0125004,13.5312502 51.7062504,14.5875002 52.9875004,14.5875002 Z M57.6187505,15.4000002 L57.6187505,9.15625009 L58.6750005,9.15625009 L58.6750005,10.1062501 C59.1062505,9.3937501 59.8312505,9.05000009 60.5875006,9.05000009 C62.1062506,9.05000009 62.7750006,10.1750001 62.7937506,11.5125001 L62.7937506,15.4000002 L61.7375006,15.4000002 L61.7375006,11.7062501 C61.7375006,10.6750001 61.2437506,10.0312501 60.3000006,10.0312501 C59.3062505,10.0312501 58.6750005,10.6250001 58.6750005,11.8000001 L58.6750005,15.4000002 L57.6187505,15.4000002 Z M73.4875008,6.56875005 L74.5500008,6.56875005 L74.5500008,15.4000002 L73.4125008,15.4000002 L69.2562507,8.35625008 L69.2562507,15.4000002 L68.1937507,15.4000002 L68.1937507,6.56875005 L69.3187507,6.56875005 L73.4875008,13.5937502 L73.4875008,6.56875005 Z M79.3875008,15.5062502 C77.4125008,15.5062502 76.3937508,14.0625002 76.3937508,12.3062501 C76.3937508,10.5875001 77.3687508,9.05000009 79.2812508,9.05000009 C81.3750009,9.05000009 82.0562509,10.7312501 82.0562509,12.0187501 C82.0562509,12.2500001 82.0312509,12.5000001 82.0062509,12.5937501 L77.5125008,12.5937501 C77.5937508,13.7937502 78.2250008,14.5437502 79.3937508,14.5437502 C80.0812509,14.5437502 80.5937509,14.3437502 81.1125009,13.7937502 L81.8500009,14.4375002 C81.1562509,15.1812502 80.4062509,15.5062502 79.3875008,15.5062502 Z M77.5125008,11.8187501 L81.0062509,11.8187501 C81.0062509,11.6812501 81.0062509,11.5500001 80.9812509,11.4250001 C80.8750009,10.6500001 80.3250009,9.9437501 79.2750008,9.9437501 C78.2187508,9.9437501 77.6312508,10.7250001 77.5125008,11.8187501 Z M85.6125009,15.5062502 C84.4687509,15.5062502 83.8312509,14.8312502 83.8312509,13.6562502 L83.8312509,10.0500001 L82.8000009,10.0500001 L82.8000009,9.15625009 L83.8437509,9.15625009 L83.8437509,7.43125007 L84.8875009,6.66875005 L84.8875009,9.15625009 L86.5750009,9.15625009 L86.5750009,10.0500001 L84.8875009,10.0500001 L84.8875009,13.4812502 C84.8875009,14.2687502 85.2187509,14.5687502 85.7937509,14.5687502 C86.0812509,14.5687502 86.3875009,14.4750002 86.5687509,14.3937502 L86.5750009,15.3562502 C86.3750009,15.4312502 86.0000009,15.5062502 85.6125009,15.5062502 Z M89.162501,15.4187502 L87.312501,9.15625009 L88.443751,9.15625009 L89.706251,13.7937502 L91.218751,9.15625009 L92.156251,9.15625009 L93.6625011,13.7875002 L94.9375011,9.15625009 L96.0687511,9.15625009 L94.2062511,15.4000002 L93.231251,15.4000002 L91.687501,10.6312501 L90.137501,15.4187502 L89.162501,15.4187502 Z M99.8687511,15.5062502 C98.0375011,15.5062502 96.7937511,14.0500002 96.7937511,12.2625001 C96.7937511,10.4875001 98.0375011,9.05000009 99.8687511,9.05000009 C101.700001,9.05000009 102.956251,10.4875001 102.956251,12.2625001 C102.956251,14.0500002 101.700001,15.5062502 99.8687511,15.5062502 Z M99.8687511,14.5875002 C101.156251,14.5875002 101.856251,13.5250002 101.856251,12.2625001 C101.856251,11.0062501 101.156251,9.9687501 99.8687511,9.9687501 C98.5875011,9.9687501 97.8937511,11.0000001 97.8937511,12.2625001 C97.8937511,13.5312502 98.5875011,14.5875002 99.8687511,14.5875002 Z M104.500001,15.4000002 L104.500001,9.15625009 L105.531251,9.15625009 L105.531251,10.3812501 C105.831251,9.4812501 106.643751,9.05000009 107.375001,9.05000009 C107.743751,9.05000009 108.125001,9.15625009 108.406251,9.3937501 L107.918751,10.2687501 C107.706251,10.1500001 107.468751,10.0812501 107.218751,10.0812501 C106.431251,10.0812501 105.525001,10.7375001 105.525001,12.3937501 L105.525001,15.4000002 L104.500001,15.4000002 Z M109.512501,15.4000002 L109.512501,6.56875005 L110.568751,6.56875005 L110.568751,12.2875001 L113.500001,9.15625009 L114.881251,9.15625009 L112.587501,11.5187501 L115.206251,15.4000002 L113.956251,15.4000002 L111.868751,12.1750001 L110.568751,13.5562502 L110.568751,15.4000002 L109.512501,15.4000002 Z M121.581251,15.5062502 C120.437501,15.5062502 119.800001,14.8312502 119.800001,13.6562502 L119.800001,10.0500001 L118.768751,10.0500001 L118.768751,9.15625009 L119.812501,9.15625009 L119.812501,7.43125007 L120.856251,6.66875005 L120.856251,9.15625009 L122.543751,9.15625009 L122.543751,10.0500001 L120.856251,10.0500001 L120.856251,13.4812502 C120.856251,14.2687502 121.187501,14.5687502 121.762501,14.5687502 C122.050001,14.5687502 122.356251,14.4750002 122.537501,14.3937502 L122.543751,15.3562502 C122.343751,15.4312502 121.968751,15.5062502 121.581251,15.5062502 Z M126.593752,15.5062502 C124.762502,15.5062502 123.518751,14.0500002 123.518751,12.2625001 C123.518751,10.4875001 124.762502,9.05000009 126.593752,9.05000009 C128.425002,9.05000009 129.681252,10.4875001 129.681252,12.2625001 C129.681252,14.0500002 128.425002,15.5062502 126.593752,15.5062502 Z M126.593752,14.5875002 C127.881252,14.5875002 128.581252,13.5250002 128.581252,12.2625001 C128.581252,11.0062501 127.881252,9.9687501 126.593752,9.9687501 C125.312502,9.9687501 124.618752,11.0000001 124.618752,12.2625001 C124.618752,13.5312502 125.312502,14.5875002 126.593752,14.5875002 Z M131.237502,15.4000002 L131.237502,6.56875005 L132.293752,6.56875005 L132.293752,12.2875001 L135.225002,9.15625009 L136.606252,9.15625009 L134.312502,11.5187501 L136.931252,15.4000002 L135.681252,15.4000002 L133.593752,12.1750001 L132.293752,13.5562502 L132.293752,15.4000002 L131.237502,15.4000002 Z M140.575002,15.5062502 C138.600002,15.5062502 137.581252,14.0625002 137.581252,12.3062501 C137.581252,10.5875001 138.556252,9.05000009 140.468752,9.05000009 C142.562502,9.05000009 143.243752,10.7312501 143.243752,12.0187501 C143.243752,12.2500001 143.218752,12.5000001 143.193752,12.5937501 L138.700002,12.5937501 C138.781252,13.7937502 139.412502,14.5437502 140.581252,14.5437502 C141.268752,14.5437502 141.781252,14.3437502 142.300002,13.7937502 L143.037502,14.4375002 C142.343752,15.1812502 141.593752,15.5062502 140.575002,15.5062502 Z M138.700002,11.8187501 L142.193752,11.8187501 C142.193752,11.6812501 142.193752,11.5500001 142.168752,11.4250001 C142.062502,10.6500001 141.512502,9.9437501 140.462502,9.9437501 C139.406252,9.9437501 138.818752,10.7250001 138.700002,11.8187501 Z M144.800002,15.4000002 L144.800002,9.15625009 L145.856252,9.15625009 L145.856252,10.1062501 C146.287502,9.3937501 147.012502,9.05000009 147.768752,9.05000009 C149.287502,9.05000009 149.956252,10.1750001 149.975002,11.5125001 L149.975002,15.4000002 L148.918752,15.4000002 L148.918752,11.7062501 C148.918752,10.6750001 148.425002,10.0312501 147.481252,10.0312501 C146.487502,10.0312501 145.856252,10.6250001 145.856252,11.8000001 L145.856252,15.4000002 L144.800002,15.4000002 Z M156.975002,15.5062502 C155.712502,15.5062502 154.725002,14.7750002 154.412502,13.8250002 L155.268752,13.4500002 C155.481252,14.0437502 156.006252,14.6187502 156.925002,14.6187502 C157.787502,14.6187502 158.225002,14.1562502 158.225002,13.6062502 C158.225002,12.1250001 154.762502,13.0812502 154.762502,10.8375001 C154.762502,9.6625001 155.762502,9.05000009 156.962502,9.05000009 C157.975002,9.05000009 158.762502,9.5375001 159.212502,10.3687501 L158.393752,10.8125001 C158.118752,10.3125001 157.656252,9.8937501 156.925002,9.8937501 C156.218752,9.8937501 155.775002,10.2312501 155.775002,10.7000001 C155.775002,12.0500001 159.268752,11.2000001 159.268752,13.5562502 C159.268752,14.8687502 158.181252,15.5062502 156.975002,15.5062502 Z M163.043752,9.05000009 C164.681252,9.05000009 165.606252,10.0437501 165.606252,11.5937501 L165.606252,15.4000002 L164.725002,15.4000002 L164.656252,14.2875002 C164.212502,15.1000002 163.350002,15.5062502 162.493752,15.5062502 C161.225002,15.5062502 160.300002,14.7875002 160.300002,13.5500002 C160.300002,12.2562501 161.337502,11.7625001 162.875002,11.7625001 L164.643752,11.7625001 C164.637502,10.5437501 164.237502,9.9750001 163.056252,9.9750001 C162.262502,9.9750001 161.731252,10.3687501 161.356252,10.9500001 L160.543752,10.3625001 C161.150002,9.5312501 161.900002,9.05000009 163.043752,9.05000009 Z M162.700002,14.6000002 C163.756252,14.6000002 164.437502,13.8812502 164.643752,12.9437501 L164.643752,12.5375001 L162.937502,12.5375001 C161.887502,12.5375001 161.387502,12.9562501 161.387502,13.5875002 C161.387502,14.1937502 161.850002,14.6000002 162.700002,14.6000002 Z M168.693752,15.5062502 C167.862502,15.5062502 167.487502,15.0625002 167.487502,14.1062502 L167.487502,6.56875005 L168.550002,6.56875005 L168.550002,13.8250002 C168.550002,14.2437502 168.656252,14.5500002 169.168752,14.5500002 C169.293752,14.5500002 169.468752,14.5312502 169.650002,14.5000002 L169.656252,15.3937502 C169.368752,15.4562502 168.993752,15.5062502 168.693752,15.5062502 Z M173.487502,15.5062502 C171.512502,15.5062502 170.493752,14.0625002 170.493752,12.3062501 C170.493752,10.5875001 171.468752,9.05000009 173.381252,9.05000009 C175.475002,9.05000009 176.156252,10.7312501 176.156252,12.0187501 C176.156252,12.2500001 176.131252,12.5000001 176.106252,12.5937501 L171.612502,12.5937501 C171.693752,13.7937502 172.325002,14.5437502 173.493752,14.5437502 C174.181252,14.5437502 174.693752,14.3437502 175.212502,13.7937502 L175.950002,14.4375002 C175.256252,15.1812502 174.506252,15.5062502 173.487502,15.5062502 Z M171.612502,11.8187501 L175.106252,11.8187501 C175.106252,11.6812501 175.106252,11.5500001 175.081252,11.4250001 C174.975002,10.6500001 174.425002,9.9437501 173.375002,9.9437501 C172.318752,9.9437501 171.731252,10.7250001 171.612502,11.8187501 Z" id="Aragon-Network-token" fill="#7F8198"></path>
                                                    </g>
                                                </g>
                                                <g id="Group-7" transform="translate(0.000000, 54.999998)">
                                                    <g id="Rectangle-Copy-16">
                                                        <use fill="black" fill-opacity="1" filter="url(#filter-9)" xlink:href="#path-8"></use>
                                                        <use fill="#EBE4FF" fill-rule="evenodd" xlink:href="#path-8"></use>
                                                    </g>
                                                    <path d="M23.3125,15.4000002 L26.6750001,6.56875005 L27.5500001,6.56875005 L30.9125001,15.4000002 L29.7187501,15.4000002 L28.9812501,13.3375002 L25.2625,13.3375002 L24.5125,15.4000002 L23.3125,15.4000002 Z M25.60625,12.3937501 L28.6375001,12.3937501 L27.1187501,8.14375008 L25.60625,12.3937501 Z M32.2687501,15.4000002 L32.2687501,9.15625009 L33.3000002,9.15625009 L33.3000002,10.3812501 C33.6000002,9.4812501 34.4125002,9.05000009 35.1437502,9.05000009 C35.5125002,9.05000009 35.8937502,9.15625009 36.1750002,9.3937501 L35.6875002,10.2687501 C35.4750002,10.1500001 35.2375002,10.0812501 34.9875002,10.0812501 C34.2000002,10.0812501 33.2937502,10.7375001 33.2937502,12.3937501 L33.2937502,15.4000002 L32.2687501,15.4000002 Z M39.4375002,9.05000009 C41.0750003,9.05000009 42.0000003,10.0437501 42.0000003,11.5937501 L42.0000003,15.4000002 L41.1187503,15.4000002 L41.0500003,14.2875002 C40.6062503,15.1000002 39.7437502,15.5062502 38.8875002,15.5062502 C37.6187502,15.5062502 36.6937502,14.7875002 36.6937502,13.5500002 C36.6937502,12.2562501 37.7312502,11.7625001 39.2687502,11.7625001 L41.0375003,11.7625001 C41.0312503,10.5437501 40.6312503,9.9750001 39.4500002,9.9750001 C38.6562502,9.9750001 38.1250002,10.3687501 37.7500002,10.9500001 L36.9375002,10.3625001 C37.5437502,9.5312501 38.2937502,9.05000009 39.4375002,9.05000009 Z M39.0937502,14.6000002 C40.1500003,14.6000002 40.8312503,13.8812502 41.0375003,12.9437501 L41.0375003,12.5375001 L39.3312502,12.5375001 C38.2812502,12.5375001 37.7812502,12.9562501 37.7812502,13.5875002 C37.7812502,14.1937502 38.2437502,14.6000002 39.0937502,14.6000002 Z M46.4812503,14.5625002 C47.6875004,14.7250002 48.9937504,14.9500002 48.9937504,16.3062502 C48.9937504,17.6250002 47.8687504,18.3187502 46.3437503,18.3187502 C44.5937503,18.3187502 43.5500003,17.4062502 43.5500003,16.1312502 C43.5500003,16.0187502 43.5625003,15.9437502 43.5750003,15.8687502 L44.3562503,15.1062502 C43.9250003,14.8812502 43.6187503,14.5187502 43.6062503,13.9062502 C43.6062503,13.4187502 43.8062503,13.0437501 44.1562503,12.7375001 C43.8187503,12.3562501 43.6187503,11.8562501 43.6187503,11.2937501 C43.6187503,9.9687501 44.7187503,9.05000009 46.0812503,9.05000009 C46.6812504,9.05000009 47.2312504,9.22500009 47.6562504,9.5437501 L48.5937504,8.71875009 L49.1500004,9.4000001 L48.2375004,10.1750001 C48.4375004,10.5062501 48.5500004,10.9000001 48.5500004,11.3437501 C48.5500004,12.6875001 47.4625004,13.5625002 46.1125003,13.5625002 C45.6250003,13.5625002 45.1812503,13.4500002 44.8062503,13.2500002 C44.6125003,13.3687502 44.5187503,13.5250002 44.5187503,13.7187502 C44.5375003,14.3312502 45.3750003,14.4125002 46.4812503,14.5625002 Z M46.1187503,9.8750001 C45.2562503,9.8750001 44.7125003,10.4687501 44.7125003,11.3000001 C44.7125003,12.1125001 45.2437503,12.6937501 46.1125003,12.6937501 C46.9812504,12.6937501 47.5000004,12.1187501 47.5000004,11.3062501 C47.5000004,10.4687501 46.9750004,9.8750001 46.1187503,9.8750001 Z M46.3375003,17.4937502 C47.2875004,17.4937502 47.9875004,17.1500002 47.9875004,16.4375002 C47.9875004,15.7625002 47.2187504,15.6625002 46.1062503,15.5187502 C45.7437503,15.4750002 45.3500003,15.4250002 44.9875003,15.3312502 L44.4187503,16.0937502 C44.4187503,16.1625002 44.4312503,16.2125002 44.4375003,16.2687502 C44.5562503,17.0812502 45.3312503,17.4937502 46.3375003,17.4937502 Z M52.9875004,15.5062502 C51.1562504,15.5062502 49.9125004,14.0500002 49.9125004,12.2625001 C49.9125004,10.4875001 51.1562504,9.05000009 52.9875004,9.05000009 C54.8187505,9.05000009 56.0750005,10.4875001 56.0750005,12.2625001 C56.0750005,14.0500002 54.8187505,15.5062502 52.9875004,15.5062502 Z M52.9875004,14.5875002 C54.2750005,14.5875002 54.9750005,13.5250002 54.9750005,12.2625001 C54.9750005,11.0062501 54.2750005,9.9687501 52.9875004,9.9687501 C51.7062504,9.9687501 51.0125004,11.0000001 51.0125004,12.2625001 C51.0125004,13.5312502 51.7062504,14.5875002 52.9875004,14.5875002 Z M57.6187505,15.4000002 L57.6187505,9.15625009 L58.6750005,9.15625009 L58.6750005,10.1062501 C59.1062505,9.3937501 59.8312505,9.05000009 60.5875006,9.05000009 C62.1062506,9.05000009 62.7750006,10.1750001 62.7937506,11.5125001 L62.7937506,15.4000002 L61.7375006,15.4000002 L61.7375006,11.7062501 C61.7375006,10.6750001 61.2437506,10.0312501 60.3000006,10.0312501 C59.3062505,10.0312501 58.6750005,10.6250001 58.6750005,11.8000001 L58.6750005,15.4000002 L57.6187505,15.4000002 Z M70.6312507,15.5062502 C68.0125007,15.5062502 67.5187507,12.8812501 67.5187507,10.9812501 C67.5187507,9.06875009 67.9875007,6.45000005 70.5437507,6.45000005 C72.8625007,6.45000005 73.6375008,8.77500009 73.6375008,11.0000001 C73.6375008,13.2125002 72.8875007,15.5062502 70.6312507,15.5062502 Z M70.6062507,14.4625002 C72.1500007,14.4625002 72.5062507,12.6500001 72.5062507,10.9812501 C72.5062507,9.28750009 72.1375007,7.50625007 70.5437507,7.50625007 C68.8812507,7.50625007 68.6062507,9.3812501 68.6062507,10.9812501 C68.6062507,12.5687501 68.8875007,14.4625002 70.6062507,14.4625002 Z M75.7062508,15.4000002 L75.7062508,13.9312502 L76.7750008,13.9312502 L76.7750008,15.4000002 L75.7062508,15.4000002 Z M82.0750009,9.4500001 C83.6875009,9.4500001 84.9750009,10.7687501 84.9750009,12.4312501 C84.9750009,14.1000002 83.5812509,15.5062502 81.8625009,15.5062502 C80.3437509,15.5062502 79.1312508,14.4000002 78.8062508,12.9187501 L79.8312508,12.6375001 C80.0437509,13.6437502 80.7062509,14.5062502 81.8625009,14.5062502 C83.0187509,14.5062502 83.8562509,13.5250002 83.8562509,12.4187501 C83.8562509,11.3187501 83.1000009,10.4375001 81.9187509,10.4375001 C81.2250009,10.4375001 80.5375009,10.7937501 80.1187509,11.4250001 L79.0750008,11.1437501 L79.9000008,6.56875005 L84.5625009,6.56875005 L84.5625009,7.58125007 L80.7687509,7.58125007 L80.3250009,10.0562501 C80.9000009,9.6375001 81.4687509,9.4500001 82.0750009,9.4500001 Z M91.700001,10.1562501 L90.981251,10.1562501 L89.331251,6.56875005 L90.550001,6.56875005 L91.700001,10.1562501 Z M93.9187511,10.1562501 L93.200001,10.1562501 L91.550001,6.56875005 L92.768751,6.56875005 L93.9187511,10.1562501 Z M97.9437511,15.4000002 L97.9437511,7.55625007 L94.9687511,7.55625007 L94.9687511,6.56875005 L102.018751,6.56875005 L102.018751,7.55625007 L99.0437511,7.55625007 L99.0437511,15.4000002 L97.9437511,15.4000002 Z M103.393751,15.4000002 L103.393751,6.56875005 L104.468751,6.56875005 L104.468751,10.1062501 C104.893751,9.3937501 105.606251,9.05000009 106.362501,9.05000009 C107.881251,9.05000009 108.568751,10.1750001 108.587501,11.5125001 L108.587501,15.4000002 L107.512501,15.4000002 L107.512501,11.7062501 C107.512501,10.7062501 107.150001,10.0125001 106.118751,10.0125001 C105.050001,10.0125001 104.468751,10.8312501 104.468751,11.9687501 L104.468751,15.4000002 L103.393751,15.4000002 Z M112.993751,15.5062502 C111.018751,15.5062502 110.000001,14.0625002 110.000001,12.3062501 C110.000001,10.5875001 110.975001,9.05000009 112.887501,9.05000009 C114.981251,9.05000009 115.662501,10.7312501 115.662501,12.0187501 C115.662501,12.2500001 115.637501,12.5000001 115.612501,12.5937501 L111.118751,12.5937501 C111.200001,13.7937502 111.831251,14.5437502 113.000001,14.5437502 C113.687501,14.5437502 114.200001,14.3437502 114.718751,13.7937502 L115.456251,14.4375002 C114.762501,15.1812502 114.012501,15.5062502 112.993751,15.5062502 Z M111.118751,11.8187501 L114.612501,11.8187501 C114.612501,11.6812501 114.612501,11.5500001 114.587501,11.4250001 C114.481251,10.6500001 113.931251,9.9437501 112.881251,9.9437501 C111.825001,9.9437501 111.237501,10.7250001 111.118751,11.8187501 Z M119.687501,15.4000002 L123.050001,6.56875005 L123.925002,6.56875005 L127.287502,15.4000002 L126.093752,15.4000002 L125.356252,13.3375002 L121.637501,13.3375002 L120.887501,15.4000002 L119.687501,15.4000002 Z M121.981251,12.3937501 L125.012502,12.3937501 L123.493751,8.14375008 L121.981251,12.3937501 Z M128.643752,15.4000002 L128.643752,9.15625009 L129.675002,9.15625009 L129.675002,10.3812501 C129.975002,9.4812501 130.787502,9.05000009 131.518752,9.05000009 C131.887502,9.05000009 132.268752,9.15625009 132.550002,9.3937501 L132.062502,10.2687501 C131.850002,10.1500001 131.612502,10.0812501 131.362502,10.0812501 C130.575002,10.0812501 129.668752,10.7375001 129.668752,12.3937501 L129.668752,15.4000002 L128.643752,15.4000002 Z M136.000002,15.5062502 C134.125002,15.5062502 133.118752,14.0187502 133.118752,12.2875001 C133.118752,10.6500001 134.056252,9.05000009 135.987502,9.05000009 C137.156252,9.05000009 138.100002,9.6437501 138.562502,10.8062501 L137.556252,11.2000001 C137.306252,10.4750001 136.731252,10.0125001 135.987502,10.0125001 C134.737502,10.0125001 134.193752,11.1312501 134.193752,12.2875001 C134.193752,13.4625002 134.737502,14.5437502 135.987502,14.5437502 C136.737502,14.5437502 137.312502,14.0875002 137.537502,13.3750002 L138.500002,13.7375002 C138.106252,14.8562502 137.181252,15.5062502 136.000002,15.5062502 Z M139.981252,15.4000002 L139.981252,6.56875005 L141.056252,6.56875005 L141.056252,10.1062501 C141.481252,9.3937501 142.193752,9.05000009 142.950002,9.05000009 C144.468752,9.05000009 145.156252,10.1750001 145.175002,11.5125001 L145.175002,15.4000002 L144.100002,15.4000002 L144.100002,11.7062501 C144.100002,10.7062501 143.737502,10.0125001 142.706252,10.0125001 C141.637502,10.0125001 141.056252,10.8312501 141.056252,11.9687501 L141.056252,15.4000002 L139.981252,15.4000002 Z M147.081252,7.89375007 L147.081252,6.56875005 L148.187502,6.56875005 L148.187502,7.89375007 L147.081252,7.89375007 Z M147.106252,15.4000002 L147.106252,9.15625009 L148.162502,9.15625009 L148.162502,15.4000002 L147.106252,15.4000002 Z M152.256252,15.5062502 C151.112502,15.5062502 150.475002,14.8312502 150.475002,13.6562502 L150.475002,10.0500001 L149.443752,10.0500001 L149.443752,9.15625009 L150.487502,9.15625009 L150.487502,7.43125007 L151.531252,6.66875005 L151.531252,9.15625009 L153.218752,9.15625009 L153.218752,10.0500001 L151.531252,10.0500001 L151.531252,13.4812502 C151.531252,14.2687502 151.862502,14.5687502 152.437502,14.5687502 C152.725002,14.5687502 153.031252,14.4750002 153.212502,14.3937502 L153.218752,15.3562502 C153.018752,15.4312502 152.643752,15.5062502 152.256252,15.5062502 Z M157.231252,15.5062502 C155.256252,15.5062502 154.237502,14.0625002 154.237502,12.3062501 C154.237502,10.5875001 155.212502,9.05000009 157.125002,9.05000009 C159.218752,9.05000009 159.900002,10.7312501 159.900002,12.0187501 C159.900002,12.2500001 159.875002,12.5000001 159.850002,12.5937501 L155.356252,12.5937501 C155.437502,13.7937502 156.068752,14.5437502 157.237502,14.5437502 C157.925002,14.5437502 158.437502,14.3437502 158.956252,13.7937502 L159.693752,14.4375002 C159.000002,15.1812502 158.250002,15.5062502 157.231252,15.5062502 Z M155.356252,11.8187501 L158.850002,11.8187501 C158.850002,11.6812501 158.850002,11.5500001 158.825002,11.4250001 C158.718752,10.6500001 158.168752,9.9437501 157.118752,9.9437501 C156.062502,9.9437501 155.475002,10.7250001 155.356252,11.8187501 Z M163.812502,15.5062502 C161.937502,15.5062502 160.931252,14.0187502 160.931252,12.2875001 C160.931252,10.6500001 161.868752,9.05000009 163.800002,9.05000009 C164.968752,9.05000009 165.912502,9.6437501 166.375002,10.8062501 L165.368752,11.2000001 C165.118752,10.4750001 164.543752,10.0125001 163.800002,10.0125001 C162.550002,10.0125001 162.006252,11.1312501 162.006252,12.2875001 C162.006252,13.4625002 162.550002,14.5437502 163.800002,14.5437502 C164.550002,14.5437502 165.125002,14.0875002 165.350002,13.3750002 L166.312502,13.7375002 C165.918752,14.8562502 164.993752,15.5062502 163.812502,15.5062502 Z M169.781252,15.5062502 C168.637502,15.5062502 168.000002,14.8312502 168.000002,13.6562502 L168.000002,10.0500001 L166.968752,10.0500001 L166.968752,9.15625009 L168.012502,9.15625009 L168.012502,7.43125007 L169.056252,6.66875005 L169.056252,9.15625009 L170.743752,9.15625009 L170.743752,10.0500001 L169.056252,10.0500001 L169.056252,13.4812502 C169.056252,14.2687502 169.387502,14.5687502 169.962502,14.5687502 C170.250002,14.5687502 170.556252,14.4750002 170.737502,14.3937502 L170.743752,15.3562502 C170.543752,15.4312502 170.168752,15.5062502 169.781252,15.5062502 Z M171.968752,10.1562501 L173.118752,6.56875005 L174.337502,6.56875005 L172.687502,10.1562501 L171.968752,10.1562501 Z M174.187502,10.1562501 L175.337502,6.56875005 L176.556252,6.56875005 L174.906252,10.1562501 L174.187502,10.1562501 Z" id="Aragon-0.5-“The-Arch" fill="#7F8198"></path>
                                                </g>
                                                <g id="Group-8" transform="translate(0.000000, 109.999998)">
                                                    <g id="Rectangle-Copy-17">
                                                        <use fill="black" fill-opacity="1" filter="url(#filter-11)" xlink:href="#path-10"></use>
                                                        <use fill="#EBE4FF" fill-rule="evenodd" xlink:href="#path-10"></use>
                                                    </g>
                                                    <path d="M23.3125,15.4000002 L26.6750001,6.56875005 L27.5500001,6.56875005 L30.9125001,15.4000002 L29.7187501,15.4000002 L28.9812501,13.3375002 L25.2625,13.3375002 L24.5125,15.4000002 L23.3125,15.4000002 Z M25.60625,12.3937501 L28.6375001,12.3937501 L27.1187501,8.14375008 L25.60625,12.3937501 Z M32.2687501,15.4000002 L32.2687501,9.15625009 L33.3000002,9.15625009 L33.3000002,10.3812501 C33.6000002,9.4812501 34.4125002,9.05000009 35.1437502,9.05000009 C35.5125002,9.05000009 35.8937502,9.15625009 36.1750002,9.3937501 L35.6875002,10.2687501 C35.4750002,10.1500001 35.2375002,10.0812501 34.9875002,10.0812501 C34.2000002,10.0812501 33.2937502,10.7375001 33.2937502,12.3937501 L33.2937502,15.4000002 L32.2687501,15.4000002 Z M39.4375002,9.05000009 C41.0750003,9.05000009 42.0000003,10.0437501 42.0000003,11.5937501 L42.0000003,15.4000002 L41.1187503,15.4000002 L41.0500003,14.2875002 C40.6062503,15.1000002 39.7437502,15.5062502 38.8875002,15.5062502 C37.6187502,15.5062502 36.6937502,14.7875002 36.6937502,13.5500002 C36.6937502,12.2562501 37.7312502,11.7625001 39.2687502,11.7625001 L41.0375003,11.7625001 C41.0312503,10.5437501 40.6312503,9.9750001 39.4500002,9.9750001 C38.6562502,9.9750001 38.1250002,10.3687501 37.7500002,10.9500001 L36.9375002,10.3625001 C37.5437502,9.5312501 38.2937502,9.05000009 39.4375002,9.05000009 Z M39.0937502,14.6000002 C40.1500003,14.6000002 40.8312503,13.8812502 41.0375003,12.9437501 L41.0375003,12.5375001 L39.3312502,12.5375001 C38.2812502,12.5375001 37.7812502,12.9562501 37.7812502,13.5875002 C37.7812502,14.1937502 38.2437502,14.6000002 39.0937502,14.6000002 Z M46.4812503,14.5625002 C47.6875004,14.7250002 48.9937504,14.9500002 48.9937504,16.3062502 C48.9937504,17.6250002 47.8687504,18.3187502 46.3437503,18.3187502 C44.5937503,18.3187502 43.5500003,17.4062502 43.5500003,16.1312502 C43.5500003,16.0187502 43.5625003,15.9437502 43.5750003,15.8687502 L44.3562503,15.1062502 C43.9250003,14.8812502 43.6187503,14.5187502 43.6062503,13.9062502 C43.6062503,13.4187502 43.8062503,13.0437501 44.1562503,12.7375001 C43.8187503,12.3562501 43.6187503,11.8562501 43.6187503,11.2937501 C43.6187503,9.9687501 44.7187503,9.05000009 46.0812503,9.05000009 C46.6812504,9.05000009 47.2312504,9.22500009 47.6562504,9.5437501 L48.5937504,8.71875009 L49.1500004,9.4000001 L48.2375004,10.1750001 C48.4375004,10.5062501 48.5500004,10.9000001 48.5500004,11.3437501 C48.5500004,12.6875001 47.4625004,13.5625002 46.1125003,13.5625002 C45.6250003,13.5625002 45.1812503,13.4500002 44.8062503,13.2500002 C44.6125003,13.3687502 44.5187503,13.5250002 44.5187503,13.7187502 C44.5375003,14.3312502 45.3750003,14.4125002 46.4812503,14.5625002 Z M46.1187503,9.8750001 C45.2562503,9.8750001 44.7125003,10.4687501 44.7125003,11.3000001 C44.7125003,12.1125001 45.2437503,12.6937501 46.1125003,12.6937501 C46.9812504,12.6937501 47.5000004,12.1187501 47.5000004,11.3062501 C47.5000004,10.4687501 46.9750004,9.8750001 46.1187503,9.8750001 Z M46.3375003,17.4937502 C47.2875004,17.4937502 47.9875004,17.1500002 47.9875004,16.4375002 C47.9875004,15.7625002 47.2187504,15.6625002 46.1062503,15.5187502 C45.7437503,15.4750002 45.3500003,15.4250002 44.9875003,15.3312502 L44.4187503,16.0937502 C44.4187503,16.1625002 44.4312503,16.2125002 44.4375003,16.2687502 C44.5562503,17.0812502 45.3312503,17.4937502 46.3375003,17.4937502 Z M52.9875004,15.5062502 C51.1562504,15.5062502 49.9125004,14.0500002 49.9125004,12.2625001 C49.9125004,10.4875001 51.1562504,9.05000009 52.9875004,9.05000009 C54.8187505,9.05000009 56.0750005,10.4875001 56.0750005,12.2625001 C56.0750005,14.0500002 54.8187505,15.5062502 52.9875004,15.5062502 Z M52.9875004,14.5875002 C54.2750005,14.5875002 54.9750005,13.5250002 54.9750005,12.2625001 C54.9750005,11.0062501 54.2750005,9.9687501 52.9875004,9.9687501 C51.7062504,9.9687501 51.0125004,11.0000001 51.0125004,12.2625001 C51.0125004,13.5312502 51.7062504,14.5875002 52.9875004,14.5875002 Z M57.6187505,15.4000002 L57.6187505,9.15625009 L58.6750005,9.15625009 L58.6750005,10.1062501 C59.1062505,9.3937501 59.8312505,9.05000009 60.5875006,9.05000009 C62.1062506,9.05000009 62.7750006,10.1750001 62.7937506,11.5125001 L62.7937506,15.4000002 L61.7375006,15.4000002 L61.7375006,11.7062501 C61.7375006,10.6750001 61.2437506,10.0312501 60.3000006,10.0312501 C59.3062505,10.0312501 58.6750005,10.6250001 58.6750005,11.8000001 L58.6750005,15.4000002 L57.6187505,15.4000002 Z M70.6312507,15.5062502 C68.0125007,15.5062502 67.5187507,12.8812501 67.5187507,10.9812501 C67.5187507,9.06875009 67.9875007,6.45000005 70.5437507,6.45000005 C72.8625007,6.45000005 73.6375008,8.77500009 73.6375008,11.0000001 C73.6375008,13.2125002 72.8875007,15.5062502 70.6312507,15.5062502 Z M70.6062507,14.4625002 C72.1500007,14.4625002 72.5062507,12.6500001 72.5062507,10.9812501 C72.5062507,9.28750009 72.1375007,7.50625007 70.5437507,7.50625007 C68.8812507,7.50625007 68.6062507,9.3812501 68.6062507,10.9812501 C68.6062507,12.5687501 68.8875007,14.4625002 70.6062507,14.4625002 Z M75.7062508,15.4000002 L75.7062508,13.9312502 L76.7750008,13.9312502 L76.7750008,15.4000002 L75.7062508,15.4000002 Z M81.9250009,9.5437501 C83.6062509,9.5437501 84.9875009,10.8875001 84.9875009,12.5250001 C84.9875009,14.1687502 83.6125009,15.5062502 81.9250009,15.5062502 C80.2312509,15.5062502 78.8500008,14.1687502 78.8500008,12.5250001 C78.8500008,11.9125001 79.0437508,11.3375001 79.3750008,10.8625001 L81.9687509,6.56875005 L83.2250009,6.56875005 L81.3937509,9.5875001 C81.5687509,9.5562501 81.7437509,9.5437501 81.9250009,9.5437501 Z M81.9250009,14.4812502 C83.0187509,14.4812502 83.9125009,13.6000002 83.9125009,12.5250001 C83.9125009,11.4562501 83.0187509,10.5687501 81.9250009,10.5687501 C80.8187509,10.5687501 79.9250008,11.4562501 79.9250008,12.5250001 C79.9250008,13.6062502 80.8125009,14.4812502 81.9250009,14.4812502 Z M92.031251,9.05000009 C93.6687511,9.05000009 94.5937511,10.0437501 94.5937511,11.5937501 L94.5937511,15.4000002 L93.7125011,15.4000002 L93.6437511,14.2875002 C93.200001,15.1000002 92.337501,15.5062502 91.481251,15.5062502 C90.212501,15.5062502 89.287501,14.7875002 89.287501,13.5500002 C89.287501,12.2562501 90.325001,11.7625001 91.862501,11.7625001 L93.6312511,11.7625001 C93.6250011,10.5437501 93.225001,9.9750001 92.043751,9.9750001 C91.250001,9.9750001 90.718751,10.3687501 90.343751,10.9500001 L89.531251,10.3625001 C90.137501,9.5312501 90.887501,9.05000009 92.031251,9.05000009 Z M91.687501,14.6000002 C92.743751,14.6000002 93.425001,13.8812502 93.6312511,12.9437501 L93.6312511,12.5375001 L91.925001,12.5375001 C90.875001,12.5375001 90.375001,12.9562501 90.375001,13.5875002 C90.375001,14.1937502 90.837501,14.6000002 91.687501,14.6000002 Z M96.5125011,15.4000002 L96.5125011,9.15625009 L97.5687511,9.15625009 L97.5687511,10.1062501 C98.0000011,9.3937501 98.7250011,9.05000009 99.4812511,9.05000009 C101.000001,9.05000009 101.668751,10.1750001 101.687501,11.5125001 L101.687501,15.4000002 L100.631251,15.4000002 L100.631251,11.7062501 C100.631251,10.6750001 100.137501,10.0312501 99.1937511,10.0312501 C98.2000011,10.0312501 97.5687511,10.6250001 97.5687511,11.8000001 L97.5687511,15.4000002 L96.5125011,15.4000002 Z M105.862501,15.5062502 C104.150001,15.5062502 103.106251,14.0375002 103.106251,12.2750001 C103.106251,10.5187501 104.150001,9.05000009 105.843751,9.05000009 C106.718751,9.05000009 107.525001,9.4937501 107.931251,10.2812501 L107.931251,6.56875005 L109.006251,6.56875005 L109.006251,15.4000002 L108.018751,15.4000002 L107.975001,14.2187502 C107.568751,15.0437502 106.762501,15.5062502 105.862501,15.5062502 Z M106.112501,14.5437502 C107.325001,14.5437502 108.018751,13.5625002 108.018751,12.2750001 C108.018751,10.9937501 107.325001,10.0125001 106.112501,10.0125001 C104.887501,10.0125001 104.181251,11.0062501 104.181251,12.2750001 C104.181251,13.5500002 104.887501,14.5437502 106.112501,14.5437502 Z M114.331251,15.4000002 L114.325001,9.15625009 L115.350001,9.15625009 L115.350001,10.1375001 C115.712501,9.37500009 116.393751,9.05000009 117.168751,9.05000009 C118.012501,9.05000009 118.756251,9.4187501 119.062501,10.3375001 C119.475001,9.4562501 120.231251,9.05000009 121.106251,9.05000009 C122.631251,9.05000009 123.287501,10.2125001 123.287501,11.7187501 L123.287501,15.4000002 L122.225001,15.4000002 L122.225001,11.8437501 C122.225001,10.7250001 121.875001,10.0375001 120.900001,10.0375001 C119.937501,10.0375001 119.337501,10.7875001 119.337501,11.7875001 L119.337501,15.4000002 L118.281251,15.4000002 L118.281251,11.6875001 C118.281251,10.7000001 117.906251,10.0375001 116.962501,10.0375001 C115.987501,10.0375001 115.393751,10.7875001 115.393751,11.7875001 L115.393751,15.4000002 L114.331251,15.4000002 Z M127.381252,9.05000009 C129.018752,9.05000009 129.943752,10.0437501 129.943752,11.5937501 L129.943752,15.4000002 L129.062502,15.4000002 L128.993752,14.2875002 C128.550002,15.1000002 127.687502,15.5062502 126.831252,15.5062502 C125.562502,15.5062502 124.637502,14.7875002 124.637502,13.5500002 C124.637502,12.2562501 125.675002,11.7625001 127.212502,11.7625001 L128.981252,11.7625001 C128.975002,10.5437501 128.575002,9.9750001 127.393752,9.9750001 C126.600002,9.9750001 126.068752,10.3687501 125.693752,10.9500001 L124.881252,10.3625001 C125.487502,9.5312501 126.237502,9.05000009 127.381252,9.05000009 Z M127.037502,14.6000002 C128.093752,14.6000002 128.775002,13.8812502 128.981252,12.9437501 L128.981252,12.5375001 L127.275002,12.5375001 C126.225002,12.5375001 125.725002,12.9562501 125.725002,13.5875002 C125.725002,14.1937502 126.187502,14.6000002 127.037502,14.6000002 Z M131.837502,7.89375007 L131.837502,6.56875005 L132.943752,6.56875005 L132.943752,7.89375007 L131.837502,7.89375007 Z M131.862502,15.4000002 L131.862502,9.15625009 L132.918752,9.15625009 L132.918752,15.4000002 L131.862502,15.4000002 Z M135.012502,15.4000002 L135.012502,9.15625009 L136.068752,9.15625009 L136.068752,10.1062501 C136.500002,9.3937501 137.225002,9.05000009 137.981252,9.05000009 C139.500002,9.05000009 140.168752,10.1750001 140.187502,11.5125001 L140.187502,15.4000002 L139.131252,15.4000002 L139.131252,11.7062501 C139.131252,10.6750001 138.637502,10.0312501 137.693752,10.0312501 C136.700002,10.0312501 136.068752,10.6250001 136.068752,11.8000001 L136.068752,15.4000002 L135.012502,15.4000002 Z M142.118752,15.4000002 L142.118752,9.15625009 L143.175002,9.15625009 L143.175002,10.1062501 C143.606252,9.3937501 144.331252,9.05000009 145.087502,9.05000009 C146.606252,9.05000009 147.275002,10.1750001 147.293752,11.5125001 L147.293752,15.4000002 L146.237502,15.4000002 L146.237502,11.7062501 C146.237502,10.6750001 145.743752,10.0312501 144.800002,10.0312501 C143.806252,10.0312501 143.175002,10.6250001 143.175002,11.8000001 L143.175002,15.4000002 L142.118752,15.4000002 Z M151.700002,15.5062502 C149.725002,15.5062502 148.706252,14.0625002 148.706252,12.3062501 C148.706252,10.5875001 149.681252,9.05000009 151.593752,9.05000009 C153.687502,9.05000009 154.368752,10.7312501 154.368752,12.0187501 C154.368752,12.2500001 154.343752,12.5000001 154.318752,12.5937501 L149.825002,12.5937501 C149.906252,13.7937502 150.537502,14.5437502 151.706252,14.5437502 C152.393752,14.5437502 152.906252,14.3437502 153.425002,13.7937502 L154.162502,14.4375002 C153.468752,15.1812502 152.718752,15.5062502 151.700002,15.5062502 Z M149.825002,11.8187501 L153.318752,11.8187501 C153.318752,11.6812501 153.318752,11.5500001 153.293752,11.4250001 C153.187502,10.6500001 152.637502,9.9437501 151.587502,9.9437501 C150.531252,9.9437501 149.943752,10.7250001 149.825002,11.8187501 Z M157.925002,15.5062502 C156.781252,15.5062502 156.143752,14.8312502 156.143752,13.6562502 L156.143752,10.0500001 L155.112502,10.0500001 L155.112502,9.15625009 L156.156252,9.15625009 L156.156252,7.43125007 L157.200002,6.66875005 L157.200002,9.15625009 L158.887502,9.15625009 L158.887502,10.0500001 L157.200002,10.0500001 L157.200002,13.4812502 C157.200002,14.2687502 157.531252,14.5687502 158.106252,14.5687502 C158.393752,14.5687502 158.700002,14.4750002 158.881252,14.3937502 L158.887502,15.3562502 C158.687502,15.4312502 158.312502,15.5062502 157.925002,15.5062502 Z M164.800002,15.5062502 C163.968752,15.5062502 163.593752,15.0625002 163.593752,14.1062502 L163.593752,6.56875005 L164.656252,6.56875005 L164.656252,13.8250002 C164.656252,14.2437502 164.762502,14.5500002 165.275002,14.5500002 C165.400002,14.5500002 165.575002,14.5312502 165.756252,14.5000002 L165.762502,15.3937502 C165.475002,15.4562502 165.100002,15.5062502 164.800002,15.5062502 Z M169.287502,9.05000009 C170.925002,9.05000009 171.850002,10.0437501 171.850002,11.5937501 L171.850002,15.4000002 L170.968752,15.4000002 L170.900002,14.2875002 C170.456252,15.1000002 169.593752,15.5062502 168.737502,15.5062502 C167.468752,15.5062502 166.543752,14.7875002 166.543752,13.5500002 C166.543752,12.2562501 167.581252,11.7625001 169.118752,11.7625001 L170.887502,11.7625001 C170.881252,10.5437501 170.481252,9.9750001 169.300002,9.9750001 C168.506252,9.9750001 167.975002,10.3687501 167.600002,10.9500001 L166.787502,10.3625001 C167.393752,9.5312501 168.143752,9.05000009 169.287502,9.05000009 Z M168.943752,14.6000002 C170.000002,14.6000002 170.681252,13.8812502 170.887502,12.9437501 L170.887502,12.5375001 L169.181252,12.5375001 C168.131252,12.5375001 167.631252,12.9562501 167.631252,13.5875002 C167.631252,14.1937502 168.093752,14.6000002 168.943752,14.6000002 Z M175.800002,15.5062502 C174.281252,15.5062502 173.618752,14.3750002 173.600002,13.0375001 L173.600002,9.15625009 L174.650002,9.15625009 L174.650002,12.8500001 C174.650002,13.8812502 175.143752,14.5250002 176.087502,14.5250002 C177.081252,14.5250002 177.718752,13.9250002 177.718752,12.7562501 L177.718752,9.15625009 L178.768752,9.15625009 L178.768752,15.4000002 L177.718752,15.4000002 L177.718752,14.4500002 C177.293752,15.1625002 176.556252,15.5062502 175.800002,15.5062502 Z M180.868752,15.4000002 L180.868752,9.15625009 L181.925002,9.15625009 L181.925002,10.1062501 C182.356252,9.3937501 183.081252,9.05000009 183.837502,9.05000009 C185.356252,9.05000009 186.025002,10.1750001 186.043752,11.5125001 L186.043752,15.4000002 L184.987502,15.4000002 L184.987502,11.7062501 C184.987502,10.6750001 184.493752,10.0312501 183.550002,10.0312501 C182.556252,10.0312501 181.925002,10.6250001 181.925002,11.8000001 L181.925002,15.4000002 L180.868752,15.4000002 Z M190.331252,15.5062502 C188.456252,15.5062502 187.450002,14.0187502 187.450002,12.2875001 C187.450002,10.6500001 188.387502,9.05000009 190.318752,9.05000009 C191.487503,9.05000009 192.431253,9.6437501 192.893753,10.8062501 L191.887503,11.2000001 C191.637503,10.4750001 191.062503,10.0125001 190.318752,10.0125001 C189.068752,10.0125001 188.525002,11.1312501 188.525002,12.2875001 C188.525002,13.4625002 189.068752,14.5437502 190.318752,14.5437502 C191.068753,14.5437502 191.643753,14.0875002 191.868753,13.3750002 L192.831253,13.7375002 C192.437503,14.8562502 191.512503,15.5062502 190.331252,15.5062502 Z M194.312503,15.4000002 L194.312503,6.56875005 L195.387503,6.56875005 L195.387503,10.1062501 C195.812503,9.3937501 196.525003,9.05000009 197.281253,9.05000009 C198.800003,9.05000009 199.487503,10.1750001 199.506253,11.5125001 L199.506253,15.4000002 L198.431253,15.4000002 L198.431253,11.7062501 C198.431253,10.7062501 198.068753,10.0125001 197.037503,10.0125001 C195.968753,10.0125001 195.387503,10.8312501 195.387503,11.9687501 L195.387503,15.4000002 L194.312503,15.4000002 Z" id="Aragon-0.6-and-mainn" fill="#7F8198"></path>
                                                </g>
                                            </g>
                                            <g id="Group-9">
                                                <path d="M34.1146483,6.94863243 L34.8107421,6.94863243 L34.8107421,14.3999996 L34.0460937,14.3999996 L30.3388671,8.09296837 L30.3388671,14.3999996 L29.6427733,14.3999996 L29.6427733,6.94863243 L30.4074218,6.94863243 L34.1146483,13.2345699 L34.1146483,6.94863243 Z M40.6947265,14.4791012 C38.374414,14.4791012 37.2828124,12.7019527 37.2828124,10.6716793 C37.2828124,8.64140587 38.374414,6.86953087 40.6947265,6.86953087 C43.0308593,6.86953087 44.1171874,8.64140587 44.1171874,10.6716793 C44.1171874,12.7019527 43.0308593,14.4791012 40.6947265,14.4791012 Z M40.6947265,13.8304684 C42.5667968,13.8304684 43.3578124,12.3802731 43.3578124,10.6716793 C43.3578124,8.96835899 42.5667968,7.51289024 40.6947265,7.51289024 C38.8384765,7.51289024 38.0421874,8.96835899 38.0421874,10.6716793 C38.0421874,12.3802731 38.8384765,13.8304684 40.6947265,13.8304684 Z M51.1876953,6.94863243 L51.9787109,6.94863243 L49.0361328,14.3999996 L48.4507812,14.3999996 L45.4976562,6.94863243 L46.2939453,6.94863243 L48.7460937,13.2978512 L51.1876953,6.94863243 Z M57.9248047,13.7408199 L62.0539062,13.7408199 L62.0539062,14.3999996 L56.8490234,14.3999996 L56.8490234,13.7408199 C58.6208984,12.6333981 60.9359375,11.0513668 60.9359375,9.04218712 C60.9359375,8.13515587 60.4033203,7.52343712 59.4224609,7.52343712 C58.278125,7.52343712 57.7613281,8.35136681 57.7402344,9.45351524 L57.0335938,9.41132774 C57.0335938,7.96640587 57.9037109,6.87480431 59.4171875,6.87480431 C60.7513672,6.87480431 61.6583984,7.67636681 61.6583984,9.05800743 C61.6583984,11.0460934 59.5701172,12.7546871 57.9248047,13.7408199 Z M66.2556641,14.4791012 C64.0935547,14.4791012 63.6136719,12.2906246 63.6136719,10.6716793 C63.6136719,9.04218712 64.0777344,6.85371056 66.181836,6.85371056 C68.0908203,6.85371056 68.8080078,8.79960899 68.8080078,10.6927731 C68.8080078,12.5648434 68.1066406,14.4791012 66.2556641,14.4791012 Z M66.2398438,13.7935543 C67.6267578,13.7935543 68.0644531,12.2009762 68.0644531,10.6769527 C68.0644531,9.13183556 67.616211,7.55507774 66.181836,7.55507774 C64.663086,7.55507774 64.325586,9.24785118 64.325586,10.6716793 C64.325586,12.0849606 64.6683594,13.7935543 66.2398438,13.7935543 Z M73.2154297,6.94863243 L73.9009766,6.94863243 L73.9009766,14.3999996 L73.1890625,14.3999996 L73.1890625,8.71523399 L71.3117188,8.71523399 L71.3117188,8.15097618 L72.5826172,8.15097618 C72.9939454,8.15097618 73.2154297,7.99277306 73.2154297,7.59199181 L73.2154297,6.94863243 Z M79.8376954,9.53789024 C81.219336,9.53789024 82.3583985,10.6505856 82.3583985,12.005859 C82.3583985,13.3716793 81.2246094,14.4791012 79.8376954,14.4791012 C78.4455079,14.4791012 77.3117188,13.3716793 77.3117188,12.005859 C77.3117188,11.5259762 77.4541016,11.0724606 77.7019532,10.6927731 L79.9378907,6.94863243 L80.7605469,6.94863243 L79.1626954,9.62753868 C79.3789063,9.56953087 79.6056641,9.53789024 79.8376954,9.53789024 Z M79.8376954,13.8041012 C80.8343751,13.8041012 81.6517579,12.9972652 81.6517579,12.005859 C81.6517579,11.0249996 80.8343751,10.2128902 79.8376954,10.2128902 C78.8304688,10.2128902 78.0183594,11.0249996 78.0183594,12.005859 C78.0183594,13.0025387 78.8251954,13.8041012 79.8376954,13.8041012 Z" id="NOV-2016" fill="#7F8198"></path>
                                                <circle id="Oval" fill="#F9F5DE" cx="11.5" cy="11.5" r="5.5"></circle>
                                                <circle id="Oval-Copy-3" fill="#F9F5DE" opacity="0.207473028" cx="11.5" cy="11.5" r="11.5"></circle>
                                            </g>
                                            <g id="Group-10" transform="translate(0.000000, 55.000000)">
                                                <path d="M27.18125,16.3999996 L27.18125,8.94863243 L32.2173828,8.94863243 L32.2173828,9.61835899 L27.9037109,9.61835899 L27.9037109,12.3236324 L31.6900391,12.3236324 L31.6900391,12.993359 L27.9037109,12.993359 L27.9037109,16.3999996 L27.18125,16.3999996 Z M34.4257813,16.3999996 L34.4257813,8.94863243 L39.2984375,8.94863243 L39.2984375,9.61835899 L35.1482422,9.61835899 L35.1482422,12.3236324 L38.881836,12.3236324 L38.881836,12.993359 L35.1482422,12.993359 L35.1482422,15.7144527 L39.2984375,15.7144527 L39.2984375,16.3999996 L34.4257813,16.3999996 Z M41.7441407,16.3999996 L41.7441407,8.94863243 L44.0011719,8.94863243 C45.2509766,8.94863243 46.231836,9.51816368 46.231836,10.8628902 C46.231836,11.6222652 45.7835938,12.2287106 45.2246094,12.4554684 C46.0472657,12.655859 46.5957032,13.4099606 46.5957032,14.3380856 C46.5957032,15.6775387 45.6095704,16.3999996 44.2173829,16.3999996 L41.7441407,16.3999996 Z M42.4666016,12.2128902 L44.2279297,12.2128902 C44.9609375,12.2128902 45.5621094,11.7593746 45.5621094,10.9050777 C45.5621094,10.0455074 44.9925782,9.60781212 44.0117188,9.60781212 L42.4666016,9.60781212 L42.4666016,12.2128902 Z M42.4666016,15.7091793 L44.2279297,15.7091793 C45.3089844,15.7091793 45.8837891,15.2240231 45.8837891,14.258984 C45.8837891,13.415234 45.3353516,12.8457027 44.4177735,12.8457027 L42.4666016,12.8457027 L42.4666016,15.7091793 Z M52.8634767,15.7408199 L56.9925782,15.7408199 L56.9925782,16.3999996 L51.7876954,16.3999996 L51.7876954,15.7408199 C53.5595704,14.6333981 55.8746095,13.0513668 55.8746095,11.0421871 C55.8746095,10.1351559 55.3419923,9.52343712 54.3611329,9.52343712 C53.216797,9.52343712 52.7000001,10.3513668 52.6789063,11.4535152 L51.9722657,11.4113277 C51.9722657,9.96640587 52.8423829,8.87480431 54.3558595,8.87480431 C55.6900392,8.87480431 56.5970704,9.67636681 56.5970704,11.0580074 C56.5970704,13.0460934 54.5087892,14.7546871 52.8634767,15.7408199 Z M61.1943361,16.4791012 C59.0322267,16.4791012 58.5523439,14.2906246 58.5523439,12.6716793 C58.5523439,11.0421871 59.0164064,8.85371056 61.1205079,8.85371056 C63.0294923,8.85371056 63.7466798,10.799609 63.7466798,12.6927731 C63.7466798,14.5648434 63.0453126,16.4791012 61.1943361,16.4791012 Z M61.1785157,15.7935543 C62.5654298,15.7935543 63.0031251,14.2009762 63.0031251,12.6769527 C63.0031251,11.1318356 62.5548829,9.55507774 61.1205079,9.55507774 C59.6017579,9.55507774 59.2642579,11.2478512 59.2642579,12.6716793 C59.2642579,14.0849606 59.6070314,15.7935543 61.1785157,15.7935543 Z M68.1541017,8.94863243 L68.8396486,8.94863243 L68.8396486,16.3999996 L68.1277345,16.3999996 L68.1277345,10.715234 L66.2503908,10.715234 L66.2503908,10.1509762 L67.5212892,10.1509762 C67.9326173,10.1509762 68.1541017,9.99277306 68.1541017,9.59199181 L68.1541017,8.94863243 Z M72.144922,8.94863243 L77.4763674,8.94863243 L77.4763674,9.38632774 L73.8271486,16.3999996 L73.0255861,16.3999996 L76.6220705,9.61308556 L72.144922,9.61308556 L72.144922,8.94863243 Z" id="FEB-2017" fill="#7F8198"></path>
                                                <circle id="Oval" fill="#CFECE4" cx="11.5" cy="11.5" r="5.5"></circle>
                                                <circle id="Oval-Copy-3" fill="#CFEBE3" opacity="0.207473028" cx="11.5" cy="11.5" r="11.5"></circle>
                                            </g>
                                            <g id="Group-11" transform="translate(0.000000, 110.000000)">
                                                <path d="M33.1876953,8.74863358 L34.184375,8.74863358 L34.184375,16.2000008 L33.4882812,16.2000008 L33.4882812,9.69785233 L31.0361328,15.588282 L30.3294922,15.588282 L27.8773438,9.68730545 L27.8773438,16.2000008 L27.18125,16.2000008 L27.18125,8.74863358 L28.1832031,8.74863358 L30.6880859,14.7814461 L33.1876953,8.74863358 Z M36.3347656,16.2000008 L39.1033203,8.74863358 L39.7097656,8.74863358 L42.4730469,16.2000008 L41.6873047,16.2000008 L41.0544922,14.4017586 L37.7691406,14.4017586 L37.1257813,16.2000008 L36.3347656,16.2000008 Z M37.9958985,13.7742195 L40.8277344,13.7742195 L39.4091797,9.76113358 L37.9958985,13.7742195 Z M45.7730469,16.2000008 L45.7730469,13.3523445 L42.9359375,8.74863358 L43.8113282,8.74863358 L46.1421875,12.6457039 L48.4783204,8.74863358 L49.3589844,8.74863358 L46.521875,13.3523445 L46.521875,16.2000008 L45.7730469,16.2000008 Z M55.241797,15.5408211 L59.3708985,15.5408211 L59.3708985,16.2000008 L54.1660157,16.2000008 L54.1660157,15.5408211 C55.9378907,14.4333992 58.2529298,12.851368 58.2529298,10.8421883 C58.2529298,9.93515701 57.7203126,9.32343826 56.7394532,9.32343826 C55.5951173,9.32343826 55.0783204,10.151368 55.0572267,11.2535164 L54.350586,11.2113289 C54.350586,9.76640701 55.2207032,8.67480545 56.7341798,8.67480545 C58.0683595,8.67480545 58.9753907,9.47636795 58.9753907,10.8580086 C58.9753907,12.8460945 56.8871095,14.5546883 55.241797,15.5408211 Z M63.5726564,16.2791023 C61.410547,16.2791023 60.9306642,14.0906258 60.9306642,12.4716805 C60.9306642,10.8421883 61.3947267,8.6537117 63.4988282,8.6537117 C65.4078126,8.6537117 66.1250001,10.5996101 66.1250001,12.4927742 C66.1250001,14.3648445 65.4236329,16.2791023 63.5726564,16.2791023 Z M63.5568361,15.5935555 C64.9437501,15.5935555 65.3814454,14.0009773 65.3814454,12.4769539 C65.3814454,10.9318367 64.9332032,9.35507889 63.4988282,9.35507889 C61.9800782,9.35507889 61.6425782,11.0478523 61.6425782,12.4716805 C61.6425782,13.8849617 61.9853517,15.5935555 63.5568361,15.5935555 Z M70.532422,8.74863358 L71.2179689,8.74863358 L71.2179689,16.2000008 L70.5060548,16.2000008 L70.5060548,10.5152351 L68.6287111,10.5152351 L68.6287111,9.95097733 L69.8996095,9.95097733 C70.3109376,9.95097733 70.532422,9.7927742 70.532422,9.39199295 L70.532422,8.74863358 Z M74.5232424,8.74863358 L79.8546877,8.74863358 L79.8546877,9.18632889 L76.2054689,16.2000008 L75.4039064,16.2000008 L79.0003908,9.4130867 L74.5232424,9.4130867 L74.5232424,8.74863358 Z" id="MAY-2017" fill="#7F8198"></path>
                                                <circle id="Oval" fill="#CFECE4" cx="11.5" cy="11.5" r="5.5"></circle>
                                                <circle id="Oval-Copy-3" fill="#CFEBE3" opacity="0.207473028" cx="11.5" cy="11.5" r="11.5"></circle>
                                            </g>
                                            <g id="Group-13" transform="translate(0.000000, 165.000000)">
                                                <path d="M33.1876953,8.94863243 L34.184375,8.94863243 L34.184375,16.3999996 L33.4882812,16.3999996 L33.4882812,9.89785118 L31.0361328,15.7882809 L30.3294922,15.7882809 L27.8773438,9.88730431 L27.8773438,16.3999996 L27.18125,16.3999996 L27.18125,8.94863243 L28.1832031,8.94863243 L30.6880859,14.9814449 L33.1876953,8.94863243 Z M36.3347656,16.3999996 L39.1033203,8.94863243 L39.7097656,8.94863243 L42.4730469,16.3999996 L41.6873047,16.3999996 L41.0544922,14.6017574 L37.7691406,14.6017574 L37.1257813,16.3999996 L36.3347656,16.3999996 Z M37.9958985,13.9742184 L40.8277344,13.9742184 L39.4091797,9.96113243 L37.9958985,13.9742184 Z M44.6181641,16.3999996 L44.6181641,8.94863243 L46.7064454,8.94863243 C48.1408204,8.94863243 49.184961,9.69746056 49.184961,11.0263668 C49.184961,12.0335934 48.5732422,12.7138668 47.6082032,12.9458981 L49.6701172,16.3999996 L48.847461,16.3999996 L46.9015625,13.0197262 C46.7486329,13.0302731 46.5746094,13.0355465 46.400586,13.0355465 L45.340625,13.0355465 L45.340625,16.3999996 L44.6181641,16.3999996 Z M45.3458985,12.4343746 L46.7644532,12.4343746 C47.8507813,12.4185543 48.4625,11.9228512 48.4625,11.0369137 C48.4625,10.1298824 47.8033204,9.60253868 46.7117188,9.60253868 L45.3458985,9.60253868 L45.3458985,12.4343746 Z M55.6953126,15.7408199 L59.8244142,15.7408199 L59.8244142,16.3999996 L54.6195313,16.3999996 L54.6195313,15.7408199 C56.3914063,14.6333981 58.7064454,13.0513668 58.7064454,11.0421871 C58.7064454,10.1351559 58.1738282,9.52343712 57.1929688,9.52343712 C56.0486329,9.52343712 55.531836,10.3513668 55.5107423,11.4535152 L54.8041017,11.4113277 C54.8041017,9.96640587 55.6742188,8.87480431 57.1876954,8.87480431 C58.5218751,8.87480431 59.4289063,9.67636681 59.4289063,11.0580074 C59.4289063,13.0460934 57.3406251,14.7546871 55.6953126,15.7408199 Z M64.026172,16.4791012 C61.8640626,16.4791012 61.3841798,14.2906246 61.3841798,12.6716793 C61.3841798,11.0421871 61.8482423,8.85371056 63.9523439,8.85371056 C65.8613282,8.85371056 66.5785157,10.799609 66.5785157,12.6927731 C66.5785157,14.5648434 65.8771486,16.4791012 64.026172,16.4791012 Z M64.0103517,15.7935543 C65.3972657,15.7935543 65.8349611,14.2009762 65.8349611,12.6769527 C65.8349611,11.1318356 65.3867189,9.55507774 63.9523439,9.55507774 C62.4335939,9.55507774 62.0960939,11.2478512 62.0960939,12.6716793 C62.0960939,14.0849606 62.4388673,15.7935543 64.0103517,15.7935543 Z M70.9859376,8.94863243 L71.6714845,8.94863243 L71.6714845,16.3999996 L70.9595705,16.3999996 L70.9595705,10.715234 L69.0822267,10.715234 L69.0822267,10.1509762 L70.3531251,10.1509762 C70.7644533,10.1509762 70.9859376,9.99277306 70.9859376,9.59199181 L70.9859376,8.94863243 Z M77.5712892,16.4791012 C76.3056642,16.4791012 75.0716799,15.7619137 75.0716799,14.3169918 C75.0716799,13.3677731 75.6306642,12.6453121 76.4849611,12.3605465 C75.8679689,12.065234 75.5041017,11.4693356 75.5041017,10.7310543 C75.5041017,9.53398399 76.5376955,8.86953087 77.5818361,8.86953087 C78.7208986,8.86953087 79.6595705,9.60781212 79.6595705,10.7679684 C79.6595705,11.4904293 79.2640627,12.0810543 78.6681642,12.3605465 C79.533008,12.6611324 80.0603517,13.3835934 80.0603517,14.3117184 C80.0603517,15.7671871 78.8316408,16.4791012 77.5712892,16.4791012 Z M77.5976564,12.0916012 C78.388672,12.0916012 78.9687502,11.5748043 78.9687502,10.7943356 C78.9687502,9.99277306 78.388672,9.47597618 77.592383,9.47597618 C76.8857424,9.47597618 76.2160158,9.90839806 76.2160158,10.7416012 C76.2160158,11.5484371 76.7644533,12.0916012 77.5976564,12.0916012 Z M77.5660158,15.8568356 C78.5046877,15.8568356 79.3431642,15.3400387 79.3431642,14.2853512 C79.3431642,13.3203121 78.5943361,12.7138668 77.5660158,12.7138668 C76.5166017,12.7138668 75.7783205,13.3203121 75.7783205,14.2800777 C75.7783205,15.3400387 76.6378908,15.8568356 77.5660158,15.8568356 Z" id="MAR-2018" fill="#7F8198"></path>
                                                <circle id="Oval-Copy" fill="#EBE4FF" cx="11.5" cy="11.5" r="5.5"></circle>
                                                <circle id="Oval-Copy-10" fill="#EBE4FF" opacity="0.207473028" cx="11.5" cy="11.5" r="11.5"></circle>
                                            </g>
                                            <g id="Group-14" transform="translate(0.000000, 220.000000)">
                                                <path d="M31.653125,7.54863472 L32.3492187,7.54863472 L32.3492187,15.0000019 L31.5845703,15.0000019 L27.8773438,8.69297066 L27.8773438,15.0000019 L27.18125,15.0000019 L27.18125,7.54863472 L27.9458984,7.54863472 L31.653125,13.8345722 L31.653125,7.54863472 Z M38.2332031,15.0791035 C35.9128906,15.0791035 34.8212891,13.301955 34.8212891,11.2716816 C34.8212891,9.24140816 35.9128906,7.46953316 38.2332031,7.46953316 C40.569336,7.46953316 41.6556641,9.24140816 41.6556641,11.2716816 C41.6556641,13.301955 40.569336,15.0791035 38.2332031,15.0791035 Z M38.2332031,14.4304707 C40.1052735,14.4304707 40.8962891,12.9802753 40.8962891,11.2716816 C40.8962891,9.56836128 40.1052735,8.11289253 38.2332031,8.11289253 C36.3769531,8.11289253 35.5806641,9.56836128 35.5806641,11.2716816 C35.5806641,12.9802753 36.3769531,14.4304707 38.2332031,14.4304707 Z M48.7261719,7.54863472 L49.5171875,7.54863472 L46.5746094,15.0000019 L45.9892579,15.0000019 L43.0361329,7.54863472 L43.8324219,7.54863472 L46.2845704,13.8978535 L48.7261719,7.54863472 Z M55.4632813,14.3408222 L59.5923829,14.3408222 L59.5923829,15.0000019 L54.3875001,15.0000019 L54.3875001,14.3408222 C56.1593751,13.2334003 58.4744142,11.6513691 58.4744142,9.64218941 C58.4744142,8.73515816 57.941797,8.12343941 56.9609376,8.12343941 C55.8166017,8.12343941 55.2998048,8.95136909 55.278711,10.0535175 L54.5720704,10.01133 C54.5720704,8.56640816 55.4421876,7.47480659 56.9556642,7.47480659 C58.2898438,7.47480659 59.1968751,8.27636909 59.1968751,9.65800972 C59.1968751,11.6460957 57.1085938,13.3546894 55.4632813,14.3408222 Z M63.7941407,15.0791035 C61.6320314,15.0791035 61.1521486,12.8906269 61.1521486,11.2716816 C61.1521486,9.64218941 61.6162111,7.45371284 63.7203126,7.45371284 C65.629297,7.45371284 66.3464845,9.39961128 66.3464845,11.2927753 C66.3464845,13.1648457 65.6451173,15.0791035 63.7941407,15.0791035 Z M63.7783204,14.3935566 C65.1652345,14.3935566 65.6029298,12.8009785 65.6029298,11.276955 C65.6029298,9.73183784 65.1546876,8.15508003 63.7203126,8.15508003 C62.2015626,8.15508003 61.8640626,9.84785347 61.8640626,11.2716816 C61.8640626,12.6849628 62.2068361,14.3935566 63.7783204,14.3935566 Z M70.7539064,7.54863472 L71.4394533,7.54863472 L71.4394533,15.0000019 L70.7275392,15.0000019 L70.7275392,9.31523628 L68.8501955,9.31523628 L68.8501955,8.75097847 L70.1210939,8.75097847 C70.532422,8.75097847 70.7539064,8.59277534 70.7539064,8.19199409 L70.7539064,7.54863472 Z M77.339258,15.0791035 C76.073633,15.0791035 74.8396486,14.361916 74.8396486,12.9169941 C74.8396486,11.9677753 75.398633,11.2453144 76.2529299,10.9605488 C75.6359377,10.6652363 75.2720705,10.0693378 75.2720705,9.33105659 C75.2720705,8.13398628 76.3056642,7.46953316 77.3498049,7.46953316 C78.4888674,7.46953316 79.4275392,8.20781441 79.4275392,9.36797066 C79.4275392,10.0904316 79.0320314,10.6810566 78.436133,10.9605488 C79.3009767,11.2611347 79.8283205,11.9835957 79.8283205,12.9117207 C79.8283205,14.3671894 78.5996095,15.0791035 77.339258,15.0791035 Z M77.3656252,10.6916035 C78.1566408,10.6916035 78.7367189,10.1748066 78.7367189,9.39433784 C78.7367189,8.59277534 78.1566408,8.07597847 77.3603517,8.07597847 C76.6537111,8.07597847 75.9839845,8.50840034 75.9839845,9.34160347 C75.9839845,10.1484394 76.532422,10.6916035 77.3656252,10.6916035 Z M77.3339845,14.4568378 C78.2726564,14.4568378 79.111133,13.940041 79.111133,12.8853535 C79.111133,11.9203144 78.3623049,11.3138691 77.3339845,11.3138691 C76.2845705,11.3138691 75.5462892,11.9203144 75.5462892,12.88008 C75.5462892,13.940041 76.4058595,14.4568378 77.3339845,14.4568378 Z" id="NOV-2018" fill="#7F8198"></path>
                                                <circle id="Oval-Copy-12" fill="#EBE4FF" cx="11.5" cy="11.5" r="5.5"></circle>
                                                <circle id="Oval-Copy-11" fill="#EBE4FF" opacity="0.207473028" cx="11.5" cy="11.5" r="11.5"></circle>
                                            </g>
                                            <g id="Group" transform="translate(0.000000, 2.000000)">
                                                <g id="Group-2"></g>
                                                <g id="Group-2-Copy" transform="translate(0.000000, 52.000000)"></g>
                                                <g id="Group-2-Copy-2" transform="translate(0.000000, 206.000000)"></g>
                                            </g>
                                        </g>
                                    </g>
                                </g>
                            </g>
                        </g>
                    </g>
                </g>
            </g>
        </g>
    </g>
</svg>