<svg width="177" height="141" viewBox="0 0 177 141" fill="none" xmlns="http://www.w3.org/2000/svg">
<g id="speech-bubbles-comment-option 2">
<g id="speech-bubbles-comment-option">
<path id="Path" d="M104.377 95.7278C115.068 91.1661 123.508 84.9568 129.693 77.0976C135.877 69.24 138.969 60.6831 138.969 51.4265C138.969 42.1694 135.877 33.6118 129.691 25.754C123.507 17.8961 115.068 11.6862 104.375 7.12342C93.6828 2.56139 82.053 0.28125 69.4843 0.28125C56.9166 0.28125 45.2868 2.56279 34.5935 7.12342C23.9012 11.6858 15.4623 17.8958 9.27798 25.754C3.09301 33.6132 0 42.1694 0 51.4268C0 59.3508 2.33937 66.8126 7.01086 73.8049C11.682 80.7957 18.0979 86.6905 26.2565 91.4845C25.599 93.0841 24.9245 94.5473 24.2334 95.881C23.542 97.2126 22.7203 98.4935 21.7655 99.7265C20.8113 100.96 20.0719 101.925 19.545 102.622C19.0185 103.321 18.1632 104.305 16.9782 105.568C15.7934 106.834 15.0364 107.666 14.7079 108.065C14.7079 107.998 14.5762 108.149 14.3128 108.515C14.049 108.881 13.9011 109.047 13.8686 109.016C13.8354 108.98 13.7037 109.146 13.4734 109.513C13.2432 109.879 13.1277 110.062 13.1277 110.062L12.8806 110.56C12.7831 110.761 12.716 110.958 12.6835 111.159C12.6503 111.357 12.6337 111.575 12.6337 111.808C12.6337 112.04 12.6662 112.256 12.7333 112.456C12.865 113.321 13.2432 114.019 13.8682 114.554C14.4929 115.086 15.1667 115.352 15.8913 115.352H16.1875C19.4769 114.886 22.3068 114.353 24.6753 113.753C34.8085 111.09 43.9555 106.827 52.1144 100.967C58.0359 102.033 63.8265 102.565 69.4849 102.565C82.0537 102.57 93.6849 100.29 104.377 95.7278Z" fill="url(#paint0_linear)"/>
<path id="Path_2" opacity="0.562035" d="M169.863 99.4229C174.536 92.4642 176.871 84.9915 176.871 76.9993C176.871 68.8073 174.4 61.1444 169.467 54.0195C164.532 46.8953 157.819 40.9674 149.332 36.2391C150.844 41.2333 151.601 46.2942 151.601 51.4231C151.601 60.3459 149.399 68.8035 144.988 76.7957C140.579 84.7855 134.262 91.8439 126.037 97.9716C118.404 103.565 109.719 107.859 99.9794 110.857C90.243 113.853 80.0763 115.352 69.4822 115.352C67.5089 115.352 64.6133 115.22 60.7974 114.955C74.0226 123.743 89.552 128.14 107.383 128.14C113.043 128.14 118.832 127.606 124.755 126.54C132.914 132.403 142.061 136.663 152.193 139.328C154.562 139.929 157.392 140.461 160.682 140.926C161.471 140.993 162.196 140.76 162.854 140.227C163.512 139.694 163.94 138.964 164.136 138.032C164.106 137.632 164.136 137.413 164.236 137.381C164.333 137.35 164.316 137.132 164.186 136.733C164.056 136.333 163.989 136.133 163.989 136.133L163.743 135.635C163.675 135.503 163.564 135.319 163.398 135.087C163.233 134.856 163.102 134.687 163.003 134.588C162.906 134.488 162.759 134.321 162.56 134.089C162.364 133.858 162.232 133.707 162.165 133.64C161.836 133.24 161.08 132.408 159.896 131.143C158.711 129.879 157.857 128.896 157.33 128.197C156.804 127.498 156.063 126.533 155.109 125.3C154.156 124.069 153.332 122.787 152.641 121.454C151.951 120.123 151.276 118.657 150.618 117.06C158.778 112.261 165.192 106.384 169.863 99.4229Z" fill="url(#paint1_linear)"/>
</g>
</g>
<defs>
<linearGradient id="paint0_linear" x1="30.49" y1="7.68903" x2="16.2855" y2="107.317" gradientUnits="userSpaceOnUse">
<stop stop-color="#98DEEE"/>
<stop offset="1" stop-color="#44C9E6"/>
</linearGradient>
<linearGradient id="paint1_linear" x1="71.4296" y1="-15.7009" x2="45.7805" y2="127.436" gradientUnits="userSpaceOnUse">
<stop stop-color="#98DEEE"/>
<stop offset="1" stop-color="#3DC2E0"/>
</linearGradient>
</defs>
</svg>
