<?xml version="1.0" encoding="UTF-8"?>
<svg width="42px" height="42px" viewBox="0 0 42 42" version="1.1" xmlns="http://www.w3.org/2000/svg" xmlns:xlink="http://www.w3.org/1999/xlink">
    <!-- Generator: Sketch Beta 48 (47228) - http://www.bohemiancoding.com/sketch -->
    <title>Artboard</title>
    <desc>Created with Sketch Beta.</desc>
    <defs>
        <linearGradient x1="69.5581665%" y1="-13.2691283%" x2="39.929958%" y2="82.2022477%" id="linearGradient-1">
            <stop stop-color="#2CF4E1" offset="3.9%"></stop>
            <stop stop-color="#2CB2E1" offset="100%"></stop>
        </linearGradient>
        <linearGradient x1="-24.6177106%" y1="3.45724059%" x2="147.593952%" y2="127.72862%" id="linearGradient-2">
            <stop stop-color="#2CF4E1" offset="3.9%"></stop>
            <stop stop-color="#2CB2E1" offset="100%"></stop>
        </linearGradient>
        <linearGradient x1="21.5099788%" y1="17.3201927%" x2="69.3511677%" y2="84.7752957%" id="linearGradient-3">
            <stop stop-color="#2CE5E1" offset="0%"></stop>
            <stop stop-color="#2CB2E1" offset="100%"></stop>
        </linearGradient>
        <linearGradient x1="49.9915639%" y1="99.9587655%" x2="49.9915639%" y2="0%" id="linearGradient-4">
            <stop stop-color="#000000" offset="0%"></stop>
            <stop stop-color="#3B3B3B" offset="100%"></stop>
        </linearGradient>
        <linearGradient x1="-1.38865881%" y1="50.0041856%" x2="101.329404%" y2="50.0041856%" id="linearGradient-5">
            <stop stop-color="#2CF4E1" offset="3.9%"></stop>
            <stop stop-color="#2CB2E1" offset="100%"></stop>
        </linearGradient>
    </defs>
    <g id="Page-1" stroke="none" stroke-width="1" fill="none" fill-rule="evenodd">
        <g id="Artboard" fill-rule="nonzero">
            <g id="isotype-copy" transform="translate(1.000000, 2.000000)">
                <ellipse id="Oval" fill="url(#linearGradient-1)" cx="21.2666667" cy="16.1154639" rx="10.9415873" ry="11.2206186"></ellipse>
                <path d="M28.9511111,12.7505155 C29.7352381,13.8391753 30.1453968,15.1257732 30.1453968,16.4618557 C30.1453968,18.0824742 29.4939683,19.5793814 28.384127,20.7917526 L29.0596825,23.3773196 L31.1104762,23.3773196 L33.2698413,20.8659794 L33.8488889,17.1917526 L33.9695238,15.0020619 L31.8342857,12.5278351 L28.9511111,12.7505155 Z" id="Shape" fill="url(#linearGradient-2)"></path>
                <path d="M5.18603175,23.6742268 L5.56,25.1958763 C5.56,25.1958763 9.9752381,34.4865979 19.9155556,37.9381443 C19.9155556,37.9381443 29.2285714,33.9793814 33.2457143,27.2618557 L27.4311111,22.3010309 C27.4311111,22.3010309 24.7771429,24.4659794 20.832381,24.4659794 C16.887619,24.4659794 11.5314286,22.0536082 11.5314286,17.0804124 C11.5314286,12.1072165 17.0806349,10.2886598 17.0806349,10.2886598 L14.7161905,9.69484536 L8.67238095,9.69484536 L4.83619048,19.171134 L5.18603175,23.6742268 Z" id="Shape" fill="url(#linearGradient-3)"></path>
                <path d="M38.5898413,13.6907216 C38.4209524,13.5175258 33.5231746,7.19793814 20.0965079,2.45979381 C7.00761905,7 1.41015873,13.6907216 1.41015873,13.6907216 C1.9168254,16.7216495 3.19555556,20.0989691 4.35365079,22.7216495 C4.45015873,22.9443299 5.99428571,25.7402062 7.14031746,27.2618557 C6.4647619,25.7402062 5.72888889,24.4164948 5.72888889,22.1402062 C5.72888889,15.7195876 10.5784127,10.4989691 16.6463492,10.2762887 C16.7911111,10.2762887 16.9479365,10.2762887 17.0926984,10.2886598 L15.6450794,8.80412371 C15.6450794,8.80412371 21.471746,7.80206186 28.9511111,12.4412371 C28.9511111,12.4412371 29.0596825,12.6762887 28.9511111,13.3690722 C28.9511111,13.3690722 32.4736508,14.9278351 32.7752381,17.9587629 C33.0768254,20.9896907 31.2069841,22.7216495 29.6990476,22.9690722 C29.6990476,22.9690722 30.4831746,21.7195876 29.2768254,21.0515464 C29.0234921,20.9030928 28.7219048,20.8412371 28.4203175,20.8536082 C26.1161905,20.8536082 25.8507937,23.5505155 25.8507937,23.5505155 C25.8266667,23.6865979 25.8266667,23.8226804 25.8266667,23.9587629 C25.8266667,23.9587629 25.4406349,27.9051546 32.2926984,27.8309278 C32.2926984,27.8309278 35.7669841,23.7979381 36.6838095,20.1731959 C37.0215873,18.8371134 37.2628571,17.8350515 37.4196825,17.0927835 C37.8057143,16.0412371 38.1796825,14.9525773 38.5415873,13.8268041 L38.5898413,13.6907216 Z" id="Shape" fill="url(#linearGradient-4)"></path>
                <path d="M25.9714286,13.6412371 C26.0679365,13.5917526 26.3815873,13.4309278 26.7434921,13.0474227 C27.4673016,13.1463918 28.1790476,13.3814433 28.1790476,13.3814433 C26.864127,12.5649485 25.0666667,12.0824742 23.0761905,12.0948454 C23.0761905,12.0948454 23.8361905,13.2082474 25.9473016,13.6659794 L25.9714286,13.6412371 Z" id="Shape" fill="#282828"></path>
                <path d="M39.419506,12.3189064 L39.3317167,12.8290657 C39.2848555,13.2257942 38.9717895,14.6462634 38.5856873,16.0063579 C37.9128797,18.3764086 36.998829,20.8259194 35.8108632,23.2185403 C34.2086705,26.4419318 32.261754,29.2548442 30.0297043,31.5689685 C27.2742465,34.4199254 24.0878236,36.5244272 20.5345672,37.8357066 L20.3366776,37.9073311 L19.9598768,38.0576016 L19.5860678,37.9223045 L19.3781974,37.8470576 C15.8173994,36.5329852 12.6209059,34.4238779 9.88458668,31.5800263 C7.64197595,29.2423159 5.69867544,26.4377863 4.10439361,23.2303094 C2.91758381,20.8345343 2.00680886,18.3875209 1.33431961,16.0138342 C1.0984505,15.1812865 0.909065632,14.4166004 0.760603787,13.7313622 C0.671674603,13.3209021 0.574535107,12.8105034 0.592185206,12.8829042 L0.500736796,12.3585159 L0.71243422,12.1748192 L0.869040342,12.0389271 C4.13092365,9.20506588 7.98954908,6.77396357 12.1556759,4.73138832 C14.9312501,3.37057541 17.4686575,2.36013304 19.3848456,1.72585878 L19.9484513,1.54420832 L20.3316726,1.66210658 L20.5221942,1.72701765 C22.4348345,2.36013304 24.972242,3.37057541 27.7478162,4.73138832 C31.9074463,6.77077834 35.7605333,9.19748462 39.0191875,12.0256725 L39.419506,12.3189064 Z M1.52859915,12.6432659 C1.52764396,12.6394716 1.52748459,12.6396443 1.52805039,12.6434021 L1.52859915,12.6432659 Z M1.70270971,13.5167048 C1.84682588,14.1818851 2.03115065,14.9261399 2.26107721,15.7377122 C2.91765413,18.055233 3.80722438,20.445275 4.96451402,22.7814597 C6.51465212,25.9001244 8.40062336,28.6219178 10.5720506,30.8854269 C13.207204,33.6241362 16.280874,35.6522022 19.7021862,36.9148089 L19.9436153,37.0021922 L20.2105783,36.9034579 C23.6245352,35.6435755 26.688832,33.619733 29.3439176,30.8726273 C31.5036618,28.6334669 33.3928414,25.903973 34.9509453,22.7692823 C36.109506,20.4358846 37.0022513,18.0434688 37.6590746,15.7297246 C37.8905729,14.9142424 38.0761128,14.1650184 38.2177891,13.5067495 C38.2684246,13.2714825 38.3100299,13.0633215 38.3416493,12.8917426 C38.3512987,12.8393809 38.359516,12.7930851 38.3659377,12.7552958 C35.18324,9.998623 31.4092607,7.62350878 27.3315489,5.62428178 C24.597627,4.28389023 22.0996961,3.28916815 20.2213758,2.66738967 L20.0404234,2.605534 L20.1930159,2.13608247 L20.0543591,2.61005837 L19.8130893,2.53583156 L19.951746,2.06185567 L20.0964243,2.53393504 L19.6777497,2.66885864 C17.8037959,3.28916815 15.305865,4.28389023 12.5719432,5.62428178 C8.4983868,7.62147144 4.72794418,9.99378262 1.54707076,12.7470565 C1.53496336,12.7575364 1.46454635,12.8186293 1.33581975,12.9303355 L1.02412698,12.5525773 L1.49932413,12.4665805 L1.53551461,12.6768897 L1.06031746,12.7628866 L1.52799459,12.6429857 C1.57896007,12.9149423 1.64480161,13.2494251 1.70270971,13.5167048 Z M28.8130826,30.3530826 C30.9192392,28.1689468 32.7616834,25.503501 34.2875899,22.4349866 C35.3052887,20.3857321 36.1175174,18.2837088 36.7464022,16.2155718 C37.1250313,14.9704203 37.3917448,13.8947651 37.5652826,13.0411051 C34.3590523,10.3267915 30.5753596,8.00089488 26.5076616,6.05300956 C24.9845696,5.32365142 23.5062095,4.68895989 22.1084476,4.14579079 C21.2439848,3.80986127 20.5379555,3.55701388 19.951164,3.36108972 C19.3807494,3.55030643 18.6568118,3.80909246 17.7898835,4.14581863 C16.3937412,4.68809835 14.9148015,5.32313911 13.39138,6.05297441 C9.32743803,7.99991315 5.54460357,10.3264535 2.33756364,13.0416491 C2.51063635,13.9046151 2.7747058,14.9795866 3.15275317,16.2285597 C3.7795312,18.2992761 4.59265061,20.4045322 5.61590214,22.4597289 C7.13630241,25.5171704 8.97659579,28.1733774 11.0900422,30.3650732 C13.659036,33.023423 16.6293489,34.9819347 19.9517335,36.2126793 C23.2637725,34.9853899 26.2364452,33.0193414 28.8130826,30.3530826 Z M35.1474483,22.8843643 C33.5775446,26.0413548 31.6774991,28.7901319 29.498931,31.0493597 C26.7789271,33.8639721 23.6276956,35.9316847 20.1124282,37.2047486 L19.951746,37.2629401 L19.7910639,37.2047486 C16.2655094,35.9279593 13.1166185,33.8681204 10.4041937,31.0613503 C8.21861003,28.7948468 6.32058287,26.0553091 4.75626957,22.9095608 C3.70656443,20.8012322 2.87337261,18.6440065 2.23105635,16.5219557 C1.79886912,15.0941182 1.51086065,13.8839472 1.33439689,12.9429348 L1.28079963,12.6571215 L1.49833836,12.4701918 C4.82307419,9.61326579 8.75546461,7.18157126 12.9829057,5.15630394 C14.5291268,4.41554588 16.0301804,3.7710097 17.448053,3.22028962 C18.4082317,2.8473438 19.1985019,2.56746271 19.8056156,2.36962836 L19.952435,2.32178574 L20.0991269,2.37003778 C20.729109,2.57726066 21.4959825,2.8494233 22.4504214,3.22031746 C23.8698017,3.77188747 25.3701734,4.41602903 26.9159892,5.1562688 C31.1476074,7.18265007 35.0810942,9.61384695 38.4051537,12.4701918 L38.623292,12.6576368 L38.5688744,12.9441043 C38.3925608,13.8722621 38.101117,15.0849572 37.6677248,16.5102014 C37.0234577,18.6289241 36.1914306,20.7821852 35.1474483,22.8843643 Z" id="Shape" fill="url(#linearGradient-5)"></path>
            </g>
        </g>
    </g>
</svg>