<svg width="378" height="481" viewBox="0 0 378 481" xmlns="http://www.w3.org/2000/svg" xmlns:xlink="http://www.w3.org/1999/xlink"><title>illustration</title><desc>Created using Figma</desc><use xlink:href="#b" transform="translate(1 234.99)" fill="url(#c)" filter="url(#a)"/><use xlink:href="#e" transform="translate(189.48 343.83)" fill="url(#f)" filter="url(#d)"/><use xlink:href="#h" transform="translate(1 343.83)" fill-opacity=".123" filter="url(#g)"/><use xlink:href="#b" transform="translate(1 169.32)" fill="url(#i)" opacity=".347"/><use xlink:href="#e" transform="translate(189.8 277.85)" fill="url(#j)" opacity=".43"/><use xlink:href="#h" transform="translate(1 278.16)" fill="url(#k)"/><use xlink:href="#b" transform="translate(1 100)" fill="#DCDCDC" fill-opacity=".17" filter="url(#l)"/><use xlink:href="#e" transform="translate(189.48 208.84)" fill="#666" fill-opacity=".123" filter="url(#m)"/><use xlink:href="#h" transform="translate(1 208.84)" fill-opacity=".123" filter="url(#n)"/><use xlink:href="#o" transform="translate(1 31.32)" fill="url(#p)" opacity=".31"/><g opacity=".221" transform="translate(189.8 139.85)"><use xlink:href="#e" fill="url(#q)"/><use xlink:href="#r" fill="#717171"/></g><g opacity=".221" transform="translate(1 140.16)"><use xlink:href="#h" fill="url(#s)"/><use xlink:href="#t" fill="#717171"/></g><g opacity=".105" transform="translate(-1513 -3152)"><use xlink:href="#u" transform="translate(1700.9 3300.4)"/></g><g opacity=".5" transform="translate(-1513 -3152)"><use xlink:href="#v" transform="translate(1700.9 3611.61)"/></g><g opacity=".5" transform="translate(-1513 -3152)"><use xlink:href="#w" transform="translate(1700.9 3152.4)"/></g><g transform="translate(-1513 -3152)"><use xlink:href="#x" transform="translate(1700 3294)" fill="url(#y)"/></g><g opacity=".195" transform="translate(-1513 -3152)"><use xlink:href="#x" transform="translate(1700 3362)" fill="url(#z)"/></g><g opacity=".195" transform="translate(-1513 -3152)"><use xlink:href="#x" transform="translate(1700 3432)" fill="url(#A)"/></g><g opacity=".195" transform="translate(-1513 -3152)"><use xlink:href="#x" transform="translate(1700 3497)" fill="url(#B)"/></g><defs><filter id="a" filterUnits="userSpaceOnUse" x="1449" y="3322" width="505" height="355" color-interpolation-filters="sRGB"><feFlood flood-opacity="0" result="BackgroundImageFix"/><feGaussianBlur in="BackgroundImage" stdDeviation="32.033"/><feComposite in2="SourceAlpha" operator="in" result="effect1_backgroundBlur"/><feBlend in="SourceGraphic" in2="effect1_backgroundBlur" result="shape"/></filter><filter id="d" filterUnits="userSpaceOnUse" x="1638" y="3431" width="316" height="246" color-interpolation-filters="sRGB"><feFlood flood-opacity="0" result="BackgroundImageFix"/><feGaussianBlur in="BackgroundImage" stdDeviation="32.033"/><feComposite in2="SourceAlpha" operator="in" result="effect1_backgroundBlur"/><feBlend in="SourceGraphic" in2="effect1_backgroundBlur" result="shape"/></filter><filter id="g" filterUnits="userSpaceOnUse" x="1449" y="3431" width="318" height="246" color-interpolation-filters="sRGB"><feFlood flood-opacity="0" result="BackgroundImageFix"/><feGaussianBlur in="BackgroundImage" stdDeviation="32.033"/><feComposite in2="SourceAlpha" operator="in" result="effect1_backgroundBlur"/><feBlend in="SourceGraphic" in2="effect1_backgroundBlur" result="shape"/></filter><filter id="l" filterUnits="userSpaceOnUse" x="1437" y="3175" width="530" height="379" color-interpolation-filters="sRGB"><feFlood flood-opacity="0" result="BackgroundImageFix"/><feGaussianBlur in="BackgroundImage" stdDeviation="38.343"/><feComposite in2="SourceAlpha" operator="in" result="effect1_backgroundBlur"/><feBlend in="SourceGraphic" in2="effect1_backgroundBlur" result="shape"/></filter><filter id="m" filterUnits="userSpaceOnUse" x="1638" y="3296" width="316" height="246" color-interpolation-filters="sRGB"><feFlood flood-opacity="0" result="BackgroundImageFix"/><feGaussianBlur in="BackgroundImage" stdDeviation="32.033"/><feComposite in2="SourceAlpha" operator="in" result="effect1_backgroundBlur"/><feBlend in="SourceGraphic" in2="effect1_backgroundBlur" result="shape"/></filter><filter id="n" filterUnits="userSpaceOnUse" x="1449" y="3296" width="318" height="246" color-interpolation-filters="sRGB"><feFlood flood-opacity="0" result="BackgroundImageFix"/><feGaussianBlur in="BackgroundImage" stdDeviation="32.033"/><feComposite in2="SourceAlpha" operator="in" result="effect1_backgroundBlur"/><feBlend in="SourceGraphic" in2="effect1_backgroundBlur" result="shape"/></filter><linearGradient id="c" x2="1" gradientUnits="userSpaceOnUse" gradientTransform="matrix(381.196 287.891 -480.513 228.387 56.209 0)"><stop offset="0" stop-color="#E9F2F4"/><stop offset="1" stop-color="#00EFE2"/><stop offset="1" stop-color="#F7F8F9"/></linearGradient><linearGradient id="f" x2="1" gradientUnits="userSpaceOnUse" gradientTransform="matrix(-197.188 115.216 -185.434 -122.519 203.089 28.066)"><stop offset="0" stop-color="#E9F2F4"/><stop offset="1" stop-color="#E7EFEE"/></linearGradient><linearGradient id="i" x2="1" gradientUnits="userSpaceOnUse" gradientTransform="matrix(319.566 153.187 -255.681 191.463 56.209 0)"><stop offset="0" stop-color="#00C7E4"/><stop offset="1" stop-color="#00EFE2"/><stop offset="1" stop-color="#00EFE2"/></linearGradient><linearGradient id="j" x2="1" gradientUnits="userSpaceOnUse" gradientTransform="matrix(189.996 148.808 -239.498 118.051 28.016 0)"><stop offset="0" stop-color="#00C7E4"/><stop offset="1" stop-color="#00EFE2"/><stop offset="1" stop-color="#00EFE2"/></linearGradient><linearGradient id="k" x2="1" gradientUnits="userSpaceOnUse" gradientTransform="matrix(191.239 148.806 -241.065 118.049 28.199 0)"><stop offset="0" stop-color="#00C7E4"/><stop offset="1" stop-color="#00EFE2"/><stop offset="1" stop-color="#00EFE2"/></linearGradient><linearGradient id="p" x2="1" gradientUnits="userSpaceOnUse" gradientTransform="matrix(303.421 -320.273 534.562 181.79 42.67 256.621)"><stop offset="0" stop-color="#0B0B0A"/><stop offset="1" stop-color="#464F51"/></linearGradient><linearGradient id="q" x2="1" gradientUnits="userSpaceOnUse" gradientTransform="matrix(189.996 148.808 -239.498 118.051 28.016 0)"><stop offset="0" stop-color="#E9F2F4"/><stop offset="1" stop-color="#00EFE2"/><stop offset="1" stop-color="#F7F8F9"/></linearGradient><linearGradient id="s" x2="1" gradientUnits="userSpaceOnUse" gradientTransform="matrix(191.239 148.806 -241.065 118.049 28.199 0)"><stop offset="0" stop-color="#E9F2F4"/><stop offset="1" stop-color="#00EFE2"/><stop offset="1" stop-color="#F7F8F9"/></linearGradient><linearGradient id="y" x2="1" gradientUnits="userSpaceOnUse" gradientTransform="rotate(-60.42 4.329 1.975) scale(6.8374)"><stop offset="0" stop-color="#0B0B0A"/><stop offset="1" stop-color="#464F51"/></linearGradient><linearGradient id="z" x2="1" gradientUnits="userSpaceOnUse" gradientTransform="rotate(-60.42 4.329 1.975) scale(6.8374)"><stop offset="0" stop-color="#0B0B0A"/><stop offset="1" stop-color="#464F51"/></linearGradient><linearGradient id="A" x2="1" gradientUnits="userSpaceOnUse" gradientTransform="rotate(-60.42 4.329 1.975) scale(6.8374)"><stop offset="0" stop-color="#0B0B0A"/><stop offset="1" stop-color="#464F51"/></linearGradient><linearGradient id="B" x2="1" gradientUnits="userSpaceOnUse" gradientTransform="rotate(-60.42 4.329 1.975) scale(6.8374)"><stop offset="0" stop-color="#0B0B0A"/><stop offset="1" stop-color="#464F51"/></linearGradient><path id="b" d="M375.775 108.767l-.039 7.603-187.255 108.769L0 116.371l.04-7.603L187.295 0l188.48 108.767z"/><path id="e" d="M187.295 0l-.04 7.603L0 116.372l.039-7.603L187.295 0z"/><path id="h" d="M188.52 108.768l-.039 7.603L0 7.603.04 0l188.48 108.768z"/><path id="o" d="M375.775 108.767l.5.003.002-.291-.252-.145-.25.433zm-.039 7.603l.251.432.247-.143.002-.286-.5-.003zM188.481 225.139l-.25.433.25.145.251-.145-.251-.433zM0 116.371l-.5-.002-.002.29.252.146.25-.434zm.04-7.603l-.252-.432-.247.144-.001.286.5.002zM187.295 0l.25-.433-.251-.145-.251.146.252.432zm187.98 108.764l-.039 7.603 1 .006.039-7.603-1-.006zm.209 7.174L188.23 224.707l.502.865 187.255-108.77-.503-.864zM188.731 224.706L.25 115.938l-.5.867 188.481 108.767.5-.866zM.5 116.374l.04-7.603-1-.005-.04 7.603 1 .005zm-.21-7.173L187.547.432l-.503-.864L-.212 108.336l.503.865zM187.046.433L375.525 109.2l.5-.866L187.545-.433l-.5.866z"/><path id="r" d="M187.295 0l.5.003.004-.874-.756.439.252.432zm-.04 7.603l.251.432.247-.143.002-.286-.5-.003zM0 116.372l-.5-.002-.004.873.755-.438-.251-.433zm.039-7.603l-.251-.432-.248.144-.001.286.5.002zM186.795-.003l-.04 7.603 1 .006.04-7.603-1-.006zm.209 7.174L-.251 115.94l.502.865L187.506 8.035l-.502-.864zM.5 116.375l.039-7.603-1-.005-.039 7.603 1 .005zm-.21-7.173L187.546.432l-.503-.864L-.212 108.337l.502.865z"/><path id="t" d="M188.52 108.768l.5.002.001-.29-.252-.145-.249.433zm-.039 7.603l-.25.433.745.43.005-.861-.5-.002zM0 7.603L-.5 7.6l-.002.29.252.146.25-.433zM.04 0l.25-.433-.746-.43-.004.86.5.003zm187.98 108.765l-.039 7.603 1 .005.039-7.603-1-.005zm.711 7.173L.25 7.17l-.5.866 188.481 108.768.5-.866zM.5 7.606L.54.003l-1-.006L-.5 7.6l1 .006zM-.21.433l188.48 108.768.499-.866L.289-.433l-.5.866z"/><path id="u" d="M.5 0v311.738h1V0h-1z"/><path id="v" d="M.5 0v20.527h1V0h-1z"/><path id="w" d="M.5 0v143.738h1V0h-1z"/><path id="x" fill-rule="evenodd" d="M2.09 4.18a2.09 2.09 0 1 0 0-4.18 2.09 2.09 0 0 0 0 4.18z"/></defs></svg>