<svg width="234" height="125" viewBox="0 0 234 125" xmlns="http://www.w3.org/2000/svg"><title>build-ecosystem</title><defs><linearGradient x1="14.958%" y1="0%" x2="116.401%" y2="127.873%" id="a"><stop stop-color="#E9F2F4" offset="0%"/><stop stop-color="#F7F8F9" offset="100%"/><stop stop-color="#00EFE2" offset="100%"/></linearGradient><linearGradient x1="11.355%" y1="113.983%" x2="92.101%" y2="-28.273%" id="c"><stop stop-color="#0B0B0A" offset="0%"/><stop stop-color="#363C3D" offset="100%"/></linearGradient><linearGradient x1="50%" y1="0%" x2="50%" y2="96.973%" id="b"><stop stop-color="#868484" offset="0%"/><stop stop-color="#00E7E2" offset="100%"/></linearGradient><linearGradient x1="14.958%" y1="0%" x2="116.401%" y2="127.873%" id="d"><stop stop-color="#00C7E4" offset="0%"/><stop stop-color="#00EFE2" offset="100%"/><stop stop-color="#00EFE2" offset="100%"/></linearGradient></defs><g fill="none" fill-rule="evenodd"><path stroke="url(#a)" d="M13.21 113.471v-50.88h169.852m-73.304-50.157v49.592" transform="translate(1 1)"/><path stroke="url(#a)" d="M61.033 14.109v95.334h-47.16" transform="translate(1 1)"/><path stroke="url(#b)" fill="url(#c)" d="M47.5 47.5H76V76H47.5zM48 95h28.5v28.5H48zm47-47h28.5v28.5H95z" transform="translate(1 1)"/><path fill="url(#d)" opacity=".2" d="M201 48h31.5v28.5H201z" transform="translate(1 1)"/><path fill="url(#d)" opacity=".3" d="M193 48h28.5v28.5H193z" transform="translate(1 1)"/><path fill="url(#d)" opacity=".3" d="M183 48h28.5v28.5H183z" transform="translate(1 1)"/><path fill="url(#d)" d="M173 48h28.5v28.5H173z" transform="translate(1 1)"/><path d="M182.708 71.031a9.5 9.5 0 1 1 11.09.355l-3.04-5.466a3.31 3.31 0 1 0-4.862-.378l-3.188 5.489z" stroke="#FFF"/><path stroke="url(#b)" fill="url(#c)" d="M95 0h28.5v28.5H95zM0 95h28.5v28.5H0zm0-47.5h28.5V76H0zM48 0h28.5v28.5H48z" transform="translate(1 1)"/></g></svg>