<?xml version="1.0" encoding="UTF-8"?>
<svg width="146px" height="161px" viewBox="0 0 146 161" version="1.1" xmlns="http://www.w3.org/2000/svg" xmlns:xlink="http://www.w3.org/1999/xlink">
    <!-- Generator: Sketch 47.1 (45422) - http://www.bohemiancoding.com/sketch -->
    <title>Illustration_Joinus_Fully_Distributed_Deep_work_session@1x</title>
    <desc>Created with Sketch.</desc>
    <defs>
        <linearGradient x1="50%" y1="0%" x2="50%" y2="96.9726562%" id="linearGradient-1">
            <stop stop-color="#C8C8C8" offset="0%"></stop>
            <stop stop-color="#00E7E2" offset="100%"></stop>
        </linearGradient>
        <linearGradient x1="14.9580793%" y1="0%" x2="116.400528%" y2="127.872527%" id="linearGradient-2">
            <stop stop-color="#E9F2F4" offset="0%"></stop>
            <stop stop-color="#F7F8F9" offset="100%"></stop>
            <stop stop-color="#00EFE2" offset="100%"></stop>
        </linearGradient>
        <linearGradient x1="11.3552517%" y1="113.983154%" x2="92.1006944%" y2="-28.2725016%" id="linearGradient-3">
            <stop stop-color="#0B0B0A" offset="0%"></stop>
            <stop stop-color="#464F51" offset="100%"></stop>
        </linearGradient>
        <linearGradient x1="14.9580793%" y1="0%" x2="116.400528%" y2="127.872527%" id="linearGradient-4">
            <stop stop-color="#00C7E4" offset="0%"></stop>
            <stop stop-color="#00EFE2" offset="100%"></stop>
            <stop stop-color="#00EFE2" offset="100%"></stop>
        </linearGradient>
    </defs>
    <g id="Website" stroke="none" stroke-width="1" fill="none" fill-rule="evenodd">
        <g id="Join_us--Desktop-1170px" transform="translate(-989.000000, -647.000000)">
            <g id="//Content">
                <g id="Some-insights-of-how-we-work:">
                    <g id="Deep-work-sessions" transform="translate(930.000000, 648.000000)">
                        <g id="Deep_work_session_illustration" transform="translate(60.000000, 0.000000)">
                            <g id="calendar">
                                <g id="Group-4" transform="translate(0.000000, 14.434937)">
                                    <path d="M1.59709343e-05,116.852315 C-0.00848299221,120.957992 3.37615581,124.293416 7.56057636,124.301877 L136.22257,124.565047 C140.406697,124.573508 143.80511,121.251796 143.813902,117.146119 L144,31.8588675 L0.186113957,31.565063 L1.59709343e-05,116.852315 Z" id="Fill-3" stroke="url(#linearGradient-1)"></path>
                                    <path d="M143.999984,8.20788888 C144.008491,4.13929818 140.620325,0.834236793 136.4322,0.826141822 L7.64698775,0.565078978 C3.45886269,0.5566949 0.0572028008,3.8481683 0.0486957176,7.916759 L0,31.2739331 L143.951288,31.565063 L143.999984,8.20788888" id="Fill-1" stroke="url(#linearGradient-1)"></path>
                                    <path d="M48.5825,54 L50.3525,54 L50.3525,49.8 L54.7025,49.8 L54.7025,48.24 L50.3525,48.24 L50.3525,45.135 L55.1375,45.135 L55.1375,43.5 L48.5825,43.5 L48.5825,54 Z M57.0125,54 L57.0125,43.5 L61.1975,43.5 C63.3275,43.5 64.7825,44.685 64.7825,46.77 C64.7825,48.405 63.8375,49.455 62.4425,49.815 L64.7075,54 L62.7425,54 L60.6125,49.965 L58.7825,49.965 L58.7825,54 L57.0125,54 Z M58.7825,48.435 L61.0625,48.435 C62.2025,48.435 62.9975,47.955 62.9975,46.77 C62.9975,45.585 62.2175,45.105 61.0625,45.105 L58.7825,45.105 L58.7825,48.435 Z M66.6575,54 L68.4275,54 L68.4275,43.5 L66.6575,43.5 L66.6575,54 Z M72.8225,52.365 L74.3675,52.365 C75.9425,52.365 77.1425,51.66 77.1425,48.735 C77.1425,46.185 76.0025,45.135 74.4575,45.135 L72.8225,45.135 L72.8225,52.365 Z M71.0525,54 L71.0525,43.5 L74.4875,43.5 C76.8125,43.5 79.0325,45.105 79.0325,48.735 C79.0325,52.755 76.7225,54 74.3975,54 L71.0525,54 Z M87.0275,54 L86.3975,52.2 L82.1525,52.2 L81.5375,54 L79.7825,54 L83.5625,43.5 L85.0025,43.5 L88.7825,54 L87.0275,54 Z M84.2675,46.065 L82.6775,50.685 L85.8725,50.685 L84.2975,46.065 L84.2675,46.065 Z M92.4425,54 L94.1825,54 L94.1825,49.575 L97.6175,43.5 L95.7425,43.5 L93.3275,47.97 L93.2975,47.97 L90.8975,43.5 L89.0075,43.5 L92.4425,49.575 L92.4425,54 Z" id="FRIDAY" fill="#00CAE4"></path>
                                    <path d="M53.36,72.144 C51.9786598,73.6000073 50.392009,74.7386626 48.6,75.56 C46.807991,76.3813374 44.941343,76.8853324 43,77.072 L43,75.224 C45.2400112,74.8879983 47.2746575,74.1040062 49.104,72.872 C50.9333425,71.6399938 52.4266609,70.0160101 53.584,68 L55.488,68 L55.488,106.64 L53.36,106.64 L53.36,72.144 Z M72.288,94.824 C72.2506665,96.4293414 72.5213304,97.8853268 73.1,99.192 C73.6786696,100.498673 74.471995,101.618662 75.48,102.552 C76.488005,103.485338 77.6733265,104.203997 79.036,104.708 C80.3986735,105.212003 81.8639922,105.464 83.432,105.464 C85.0746749,105.464 86.5679933,105.156003 87.912,104.54 C89.2560067,103.923997 90.4133285,103.093339 91.384,102.048 C92.3546715,101.002661 93.1013307,99.7706738 93.624,98.352 C94.1466693,96.9333262 94.408,95.4400078 94.408,93.872 C94.408,92.3039922 94.137336,90.8293402 93.596,89.448 C93.054664,88.0666598 92.2893383,86.872005 91.3,85.864 C90.3106617,84.855995 89.1440067,84.0533363 87.8,83.456 C86.4559933,82.8586637 85.0000078,82.56 83.432,82.56 C81.1919888,82.56 79.2880078,83.0173288 77.72,83.932 C76.1519922,84.8466712 74.7520062,86.199991 73.52,87.992 L71.336,87.992 L75.368,68 L94.912,68 L94.912,69.848 L77.048,69.848 L73.744,85.248 L73.856,85.36 C74.9760056,83.7919922 76.3666584,82.6253372 78.028,81.86 C79.6893416,81.0946628 81.490657,80.712 83.432,80.712 C85.3360095,80.712 87.0906586,81.0386634 88.696,81.692 C90.3013414,82.3453366 91.6826609,83.2506609 92.84,84.408 C93.9973391,85.5653391 94.9026634,86.9559919 95.556,88.58 C96.2093366,90.2040081 96.536,91.9679905 96.536,93.872 C96.536,95.7760095 96.2186698,97.5493251 95.584,99.192 C94.9493302,100.834675 94.0533391,102.262661 92.896,103.476 C91.7386609,104.689339 90.3573414,105.631997 88.752,106.304 C87.1466586,106.976003 85.373343,107.312 83.432,107.312 C81.565324,107.312 79.8106749,107.02267 78.168,106.444 C76.5253251,105.86533 75.0880062,105.044005 73.856,103.98 C72.6239938,102.915995 71.6720034,101.609341 71,100.06 C70.3279966,98.5106589 70.0479994,96.765343 70.16,94.824 L72.288,94.824 Z" id="15" fill="url(#linearGradient-2)"></path>
                                    <circle id="Oval" fill="url(#linearGradient-3)" cx="106" cy="114" r="31"></circle>
                                    <g id="phone-call" transform="translate(87.000000, 96.887329)">
                                        <g id="Group-3" transform="translate(0.000000, 0.975540)" stroke="url(#linearGradient-2)">
                                            <path d="M34.0868042,26.7728609 C32.8300085,24.3977383 28.1942289,21.6808694 28.1942289,21.6808694 C27.1453615,21.0822881 25.8800146,21.0160541 25.2814333,22.0821739 C25.2814333,22.0821739 23.7750038,23.8884942 23.3923018,24.1481044 C21.641564,25.3340155 20.021194,25.2876592 18.3843967,23.651462 L10.7781387,16.045204 C9.14194152,14.4090818 9.09626032,12.7881117 10.2814963,11.037974 C10.5417816,10.6545969 12.3481019,9.14816737 12.3481019,9.14816737 C13.4135466,8.54958608 13.3473126,7.28423924 12.7487313,6.23537179 C12.7487313,6.23537179 10.0325375,1.59959223 7.65673982,0.342796553 C6.6462776,-0.192251109 5.40538408,-0.00480065195 4.59692429,0.802984049 L2.91699614,2.48291219 C-2.4100773,7.81066073 0.21272889,13.8250525 5.54047742,19.152726 L15.2775498,28.8897984 C20.6046232,34.2168718 26.6196151,36.839678 31.9466885,31.5126046 L33.6266167,29.8326764 C34.4350765,29.0242166 34.6218518,27.7833231 34.0868042,26.7728609" id="Fill-1"></path>
                                        </g>
                                        <path d="M27.5557098,0.436592454 C22.6682395,0.436592454 18.7055664,3.88037916 18.7055664,8.12796675 C18.7055664,9.6927718 19.2454439,11.1486113 20.1691758,12.363273 C20.0480542,13.7666035 19.708939,16.0682261 18.7160933,17.0306817 C18.7160933,17.0306817 21.7400588,16.2938643 23.7949894,15.0907947 C24.9366523,15.5571095 26.2105276,15.8192784 27.5557098,15.8192784 C32.4432426,15.8192784 36.4059158,12.3754917 36.4059158,8.12796675 C36.4059158,3.88037916 32.4432426,0.436592454 27.5557098,0.436592454" id="Fill-4" fill="url(#linearGradient-4)"></path>
                                        <circle id="Oval-2" fill="#FFFFFF" cx="22.5" cy="8.5" r="1.5"></circle>
                                        <circle id="Oval-2" fill="#FFFFFF" cx="32.5" cy="8.5" r="1.5"></circle>
                                        <circle id="Oval-2" fill="#FFFFFF" cx="27.5" cy="8.5" r="1.5"></circle>
                                    </g>
                                </g>
                                <path d="M25.0348942,18.269033 C28.8200882,18.269033 31.8885434,21.3374882 31.8885434,25.1226822 C31.8885434,28.9078762 28.8200882,31.9763314 25.0348942,31.9763314 C21.2497002,31.9763314 18.181245,28.9078762 18.181245,25.1226822 C18.181245,21.3374882 21.2497002,18.269033 25.0348942,18.269033" id="Fill-5" fill="#000000"></path>
                                <path d="M119.986731,18.4605169 C123.771925,18.4605169 126.840381,21.5289721 126.840381,25.3141661 C126.840381,29.09936 123.771925,32.1678152 119.986731,32.1678152 C116.201537,32.1678152 113.133082,29.09936 113.133082,25.3141661 C113.133082,21.5289721 116.201537,18.4605169 119.986731,18.4605169" id="Fill-6" fill="#000000"></path>
                                <g id="Group-10" transform="translate(20.032157, 0.000000)" stroke="url(#linearGradient-1)" fill="url(#linearGradient-3)">
                                    <rect id="Rectangle" x="0" y="0" width="10" height="28.8306166" rx="5"></rect>
                                    <rect id="Rectangle" x="95" y="0" width="10" height="28.8306166" rx="5"></rect>
                                </g>
                            </g>
                        </g>
                    </g>
                </g>
            </g>
        </g>
    </g>
</svg>