<svg width="146" height="161" viewBox="0 0 146 161" xmlns="http://www.w3.org/2000/svg"><title>deep-work-sessions</title><defs><linearGradient x1="50%" y1="0%" x2="50%" y2="96.973%" id="a"><stop stop-color="#C8C8C8" offset="0%"/><stop stop-color="#00E7E2" offset="100%"/></linearGradient><linearGradient x1="14.958%" y1="0%" x2="116.401%" y2="127.873%" id="b"><stop stop-color="#E9F2F4" offset="0%"/><stop stop-color="#F7F8F9" offset="100%"/><stop stop-color="#00EFE2" offset="100%"/></linearGradient><linearGradient x1="11.355%" y1="113.983%" x2="92.101%" y2="-28.273%" id="c"><stop stop-color="#0B0B0A" offset="0%"/><stop stop-color="#464F51" offset="100%"/></linearGradient><linearGradient x1="14.958%" y1="0%" x2="116.401%" y2="127.873%" id="d"><stop stop-color="#00C7E4" offset="0%"/><stop stop-color="#00EFE2" offset="100%"/><stop stop-color="#00EFE2" offset="100%"/></linearGradient></defs><g fill="none" fill-rule="evenodd"><g transform="translate(1 15.435)"><path d="M0 116.852c-.008 4.106 3.376 7.441 7.56 7.45l128.663.263c4.184.009 7.582-3.313 7.59-7.419L144 31.86.186 31.565 0 116.852zM144 8.208c.008-4.069-3.38-7.374-7.568-7.382L7.647.566C3.459.555.057 3.847.049 7.915L0 31.275l143.951.291L144 8.208" stroke="url(#a)"/><path d="M48.583 54h1.77v-4.2h4.35v-1.56h-4.35v-3.105h4.785V43.5h-6.555V54zm8.43 0V43.5h4.184c2.13 0 3.585 1.185 3.585 3.27 0 1.635-.944 2.685-2.34 3.045L64.707 54h-1.964l-2.13-4.035h-1.83V54h-1.77zm1.77-5.565h2.28c1.14 0 1.934-.48 1.934-1.665s-.78-1.665-1.934-1.665h-2.28v3.33zM66.656 54h1.77V43.5h-1.77V54zm6.166-1.635h1.545c1.575 0 2.775-.705 2.775-3.63 0-2.55-1.14-3.6-2.686-3.6h-1.634v7.23zM71.053 54V43.5h3.434c2.326 0 4.546 1.605 4.546 5.235 0 4.02-2.31 5.265-4.636 5.265h-3.345zm15.975 0l-.63-1.8h-4.245l-.616 1.8h-1.755l3.78-10.5h1.44l3.78 10.5h-1.754zm-2.76-7.935l-1.59 4.62h3.195l-1.576-4.62h-.03zM92.441 54h1.74v-4.425l3.436-6.075h-1.875l-2.415 4.47h-.03l-2.4-4.47h-1.89l3.434 6.075V54z" fill="#00CAE4"/><path d="M53.36 72.144a15.295 15.295 0 0 1-4.76 3.416 17.333 17.333 0 0 1-5.6 1.512v-1.848c2.24-.336 4.275-1.12 6.104-2.352 1.83-1.232 3.323-2.856 4.48-4.872h1.904v38.64H53.36V72.144zm18.928 22.68c-.037 1.605.233 3.061.812 4.368a10.087 10.087 0 0 0 2.38 3.36c1.008.933 2.193 1.652 3.556 2.156 1.363.504 2.828.756 4.396.756 1.643 0 3.136-.308 4.48-.924a10.853 10.853 0 0 0 3.472-2.492c.97-1.045 1.717-2.277 2.24-3.696.523-1.419.784-2.912.784-4.48 0-1.568-.27-3.043-.812-4.424a10.544 10.544 0 0 0-2.296-3.584 11.254 11.254 0 0 0-3.5-2.408c-1.344-.597-2.8-.896-4.368-.896-2.24 0-4.144.457-5.712 1.372-1.568.915-2.968 2.268-4.2 4.06h-2.184L75.368 68h19.544v1.848H77.048l-3.304 15.4.112.112c1.12-1.568 2.51-2.735 4.172-3.5 1.661-.765 3.463-1.148 5.404-1.148 1.904 0 3.659.327 5.264.98 1.605.653 2.987 1.559 4.144 2.716 1.157 1.157 2.063 2.548 2.716 4.172.653 1.624.98 3.388.98 5.292s-.317 3.677-.952 5.32c-.635 1.643-1.53 3.07-2.688 4.284a12.122 12.122 0 0 1-4.144 2.828c-1.605.672-3.379 1.008-5.32 1.008-1.867 0-3.621-.29-5.264-.868-1.643-.579-3.08-1.4-4.312-2.464-1.232-1.064-2.184-2.37-2.856-3.92-.672-1.55-.952-3.295-.84-5.236h2.128z" fill="url(#b)"/><circle fill="url(#c)" cx="106" cy="114" r="31"/><g transform="translate(87 96.887)"><path d="M34.087 26.773c-1.257-2.375-5.893-5.092-5.893-5.092-1.049-.599-2.314-.665-2.913.401 0 0-1.506 1.806-1.889 2.066-1.75 1.186-3.37 1.14-5.008-.497l-7.606-7.606c-1.636-1.636-1.682-3.257-.497-5.007.26-.383 2.067-1.89 2.067-1.89 1.066-.598 1-1.864.4-2.913 0 0-2.715-4.635-5.091-5.892a2.605 2.605 0 0 0-3.06.46l-1.68 1.68C-2.41 7.81.213 13.825 5.54 19.153l9.738 9.737c5.327 5.327 11.342 7.95 16.669 2.623l1.68-1.68c.808-.809.995-2.05.46-3.06" transform="translate(0 .976)" stroke="url(#b)"/><path d="M27.556.437c-4.888 0-8.85 3.443-8.85 7.691 0 1.565.54 3.02 1.463 4.235-.12 1.404-.46 3.705-1.453 4.668 0 0 3.024-.737 5.079-1.94a9.94 9.94 0 0 0 3.76.728c4.888 0 8.85-3.444 8.85-7.691 0-4.248-3.962-7.691-8.85-7.691" fill="url(#d)"/><circle fill="#FFF" cx="22.5" cy="8.5" r="1.5"/><circle fill="#FFF" cx="32.5" cy="8.5" r="1.5"/><circle fill="#FFF" cx="27.5" cy="8.5" r="1.5"/></g></g><path d="M26.035 19.269a6.854 6.854 0 1 1 0 13.707 6.854 6.854 0 0 1 0-13.707M120.987 19.46a6.854 6.854 0 1 1 0 13.708 6.854 6.854 0 0 1 0-13.707" fill="#000"/><g transform="translate(21.032 1)" fill="url(#c)" stroke="url(#a)"><rect width="10" height="28.831" rx="5"/><rect x="95" width="10" height="28.831" rx="5"/></g></g></svg>