<svg width="266" height="185" viewBox="0 0 266 185" xmlns="http://www.w3.org/2000/svg"><title>fully-distributed</title><defs><linearGradient x1="50%" y1="0%" x2="50%" y2="100%" id="a"><stop stop-color="#C8C8C8" offset="0%"/><stop stop-color="#979797" offset="100%"/></linearGradient><linearGradient x1="50%" y1="0%" x2="50%" y2="97.684%" id="b"><stop stop-color="#C8C8C8" offset="0%"/><stop stop-color="#979797" stop-opacity=".313" offset="100%"/></linearGradient><linearGradient x1="50%" y1="0%" x2="130.044%" y2="150.378%" id="c"><stop stop-color="#C8C8C8" offset="0%"/><stop stop-color="#00DAE3" offset="100%"/></linearGradient><linearGradient x1="50%" y1="0%" x2="50%" y2="100%" id="d"><stop stop-color="#C8C8C8" offset="0%"/><stop stop-color="#00D7E4" offset="100%"/></linearGradient><linearGradient x1="18.492%" y1="17.061%" x2="51.019%" y2="23.848%" id="e"><stop stop-color="#00D6E3" offset="0%"/><stop stop-color="#979797" stop-opacity=".366" offset="100%"/></linearGradient><linearGradient x1="50%" y1="0%" x2="50%" y2="100%" id="f"><stop stop-color="#C8C8C8" offset="0%"/><stop stop-color="#00D6E3" offset="100%"/></linearGradient><linearGradient x1="50%" y1="0%" x2="50%" y2="96.973%" id="g"><stop stop-color="#C8C8C8" offset="0%"/><stop stop-color="#00E7E2" offset="100%"/></linearGradient><linearGradient x1="14.958%" y1="0%" x2="116.401%" y2="127.873%" id="h"><stop stop-color="#00C7E4" offset="0%"/><stop stop-color="#00EFE2" offset="100%"/><stop stop-color="#00EFE2" offset="100%"/></linearGradient><linearGradient x1="100%" y1="0%" x2="-2.619%" y2="100%" id="i"><stop stop-color="#00EAE5" offset="0%"/><stop stop-color="#02B5E4" offset="100%"/></linearGradient></defs><g fill="none" fill-rule="evenodd"><path stroke="url(#a)" stroke-linecap="round" stroke-linejoin="round" d="M43.833 35.117l-4.359.328-5.894 3.53 9.164 7.704-1.405 4.94 6.17 18.61z" transform="translate(107.032 32.769)"/><path stroke="url(#b)" d="M71.958 61.825l8.931 14.955 8.336-9.899 6.034 9.484 10.301 4.397 5.553-3.62-.272-3.867 3.478-3.342 2.889-8.108-6.095-10.354 6.762 3.896 1.258-14.463-2.516-6.546 3.897-2.467 6.583 6.69-.564-27.573 8.872-1.709-9.612-4.796-64.228 1.819-3.793 2.977-9.296-.276" transform="translate(107.032 32.769)"/><path stroke="url(#a)" d="M94.43 12.986l18.936 10.647-5.82-18.553zm26.145 18.968l.184-.55 2.482-7.43-9.64-.353m-.274.05l3.312 10.593m1.442 6.916l-45.89 20.23 17.265 5.463zm-7.482 23.158l.42-13.271 8.248-10.526" transform="translate(107.032 32.769)"/><path stroke="url(#c)" d="M12.844 18.034H4.462l-4.447 8.01 6.83 4.923 6.76-3.722 4.65 3.318h6.577l.838 5.396h8.46l4.743-6.727 5.01 5.848 36.048 6.697L47.94 8.475 33.826.983z" transform="translate(107.032 32.769)"/><path stroke="url(#a)" opacity=".527" d="M4.476 18.342l2.247 11.577 6.055-11.859.98 9.238" transform="translate(107.032 32.769)"/><path stroke="url(#a)" opacity=".526" d="M48.003 71.658L56.08 51.27l24.037-9.371-8.287 20.076-15.75-10.408 5.995 9.809-5.995 9.34z" transform="translate(107.032 32.769)"/><path stroke="url(#a)" opacity=".527" d="M60.334 7.318l34.242 5.652-14.594 28.97" transform="translate(107.032 32.769)"/><path stroke="url(#a)" d="M107.65 5.277l15.661 18.88 3.711 4.473-6.356 3.194m-7.176-8.164l7.2 8.182M107.936 5.22l18.548 6.597-1.732-7.3M89.655 66.904l20.802-2.632.534 8.966" transform="translate(107.032 32.769)"/><path stroke="url(#a)" d="M13.647 16.176L8.36 7.799 20.577.362" transform="translate(2.966 30.057)"/><path d="M20.564.502L.65.992" stroke="url(#a)" opacity=".335" transform="translate(2.966 30.057)"/><path stroke="url(#a)" d="M39.22 6.712l16.972-3.339 4.425 12.25m6.358-8.896h5.743l-3.256-3.611z" transform="translate(2.966 30.057)"/><path stroke="url(#a)" opacity=".739" d="M82.317 4.883l5.546 7.245 10.74-4.58-9.744-3.794-1.817 15.252-7.337-9.856z" transform="translate(2.966 30.057)"/><path d="M82.5 4.89l6.33-1.186M37.581 75.775l-24.399 17 7.334 13.676zm30.607 28.416l-21.175-8.38m-7.619 44.285l-13.84-8.21-1.987-19.97M89.1 60.617l2.83 24.443 13.748 5.517 6.437.61 4.908 4.84.984 16.86-3.577 16.037 21.21-9.527 23.21-35.335-12.173-2.27-2.031-21.176-18.402-9.67-9.221-8.169-7.565 4.871-12.903 4.726z" stroke="url(#a)" transform="translate(2.966 30.057)"/><path stroke="url(#a)" opacity=".602" d="M111.175 90.976l14.707-19.895-8.777 24.929 29.69-14.192" transform="translate(2.966 30.057)"/><path d="M146.89 81.804L126.384 70.22" stroke="url(#a)" opacity=".527" transform="translate(2.966 30.057)"/><path d="M118.198 112.812l17.328 6.672m8.27 2.886l7.365-7.376M116.85 20.639l35.72-8.89m89.315 75.177l3.663 8.812 3.17-7.224m-28.307 34.868l7.982-5.817-3.99-13.346m4.023 13.306l16.5 5.944" stroke="url(#a)" transform="translate(2.966 30.057)"/><path d="M216.345 114.13l7.668-9.975 10.444-4.407 9.854.363 17.529 12.091-7.198 23.446-9.774-12.182-12.837 4.805-11.565-4.805-4.121-9.337z" stroke="url(#a)" opacity=".739" transform="translate(2.966 30.057)"/><path stroke="url(#d)" d="M231.953 128.253l-3.544-10.762 20.706-14.076" transform="translate(2.966 30.057)"/><path d="M249.417 103.694l5.312 31.845" stroke="url(#a)" opacity=".416" transform="translate(2.966 30.057)"/><path stroke="url(#a)" opacity=".462" d="M1.242 34.298L13.27 16.18l1.83 40.753 21.901 18.466h5.363l10.615 46.255L49 133.738 20.26 106.41" transform="translate(2.966 30.057)"/><path stroke="url(#e)" d="M1.345 34.272l35.8 40.91-7.56-27.71 11.88-1.5-28.028-30.12L20.543.419 39.4 6.79l21.226 9.06 12.937 9.237-1.556-14.073-31.993 14.073" transform="translate(2.966 30.057)"/><path d="M.4.944l7.927 6.878m5.326 8.096l25.514-9.156 2.487 39.047L60.71 15.918M56.35 3.453l6.904 6.405-4.224.785M77.15 7.32l2.1-2.614h-2.566zm2.624 1.936l8.014 2.768M14.83 49.601l14.834-2.134-5.99 12.15-8.37-2.63" stroke="url(#a)" transform="translate(2.966 30.057)"/><path stroke="url(#f)" d="M20.508 106.487l33.446-13.733h5.763l8.462 11.534-14.856 17.169" transform="translate(2.966 30.057)"/><path d="M53.977 92.753l-11.529-17.33M20.65 106.635l18.701 33.568 9.654-6.467" stroke="url(#a)" transform="translate(2.966 30.057)"/><path stroke="url(#a)" opacity=".58" d="M25.575 132.033l3.389 16.047 7.987 5.913 1.906-2.92.545-11.069-10.438 8.076" transform="translate(2.966 30.057)"/><path stroke="url(#g)" d="M89.167 60.826l21.42 28.882-13.77-37.309 29.594 17.447V50.809l-16.8-3.154" transform="translate(2.966 30.057)"/><path d="M126.572 69.951l18-9.258m2.285 21.077l-11.296 37.594-18.65-23.465m26.886 26.526l3.61-13.028 3.774 5.691" stroke="url(#a)" transform="translate(2.966 30.057)"/><path stroke="url(#a)" opacity=".542" d="M128.928 33.245l4.599-16.801 9.481 15.54" transform="translate(2.966 30.057)"/><path stroke="url(#a)" d="M116.865 17.06l-.848-6.93-6.704 5.664z" transform="translate(2.966 30.057)"/><path stroke="url(#a)" transform="rotate(-110 234.808 104.109)" d="M219.92 87.762l4.262-4.595.456 7.533 1.045 2.096-2.881 4.275-2.881-3.722z"/><path stroke="url(#a)" opacity=".459" d="M235.662 88.576l6.384-1.733 6.719 1.733 3.985 10.188-7.267-2.94h-5.04z" transform="translate(2.966 30.057)"/><path d="M143 51.5c0-14.083-7.507-23.5-18-23.5s-17 16.417-17 30.5m126.162 79.665c0-14.083-12.202-76.59-42.262-77.437C161.84 59.88 155 91.417 155 105.5m-110-37c0-14.083-11.203-22.648-16-22.648-4.797 0-19 .565-19 14.648m98-5c0-14.083-8.65-36.85-31.288-36.85-22.638 0-31.288 36.564-31.288 50.647" stroke="#FFF" stroke-linecap="round" stroke-linejoin="round" stroke-dasharray="2,4"/><path d="M154.25 103.316c0-14.083-24.086-54.343-61.057-54.834-36.97-.49-47.576 17.649-47.77 20.815" stroke="#FFF" stroke-linecap="round" stroke-linejoin="round" stroke-dasharray="2,4"/><path d="M107.69 56.316c0-14.083-7.153-55.101-46.352-55.101-39.2 0-51.914 46.999-51.914 61.082" stroke="#FFF" stroke-linecap="round" stroke-linejoin="round" stroke-dasharray="2,4"/><g transform="translate(145.223 93.223)"><circle fill="url(#h)" opacity=".4" cx="9.832" cy="9.832" r="2.551"/><circle fill="url(#h)" opacity=".305" cx="9.832" cy="9.832" r="5.193"/><circle fill="url(#h)" opacity=".119" cx="9.832" cy="9.832" r="9.762"/><circle fill="url(#i)" cx="9.852" cy="9.852" r="1.071"/></g><g transform="translate(133.223 41.223)"><circle fill="url(#h)" opacity=".4" cx="9.832" cy="9.832" r="2.551"/><circle fill="url(#h)" opacity=".305" cx="9.832" cy="9.832" r="5.193"/><circle fill="url(#h)" opacity=".119" cx="9.832" cy="9.832" r="9.762"/><circle fill="url(#i)" cx="9.852" cy="9.852" r="1.071"/></g><g transform="translate(98.223 49.223)"><circle fill="url(#h)" opacity=".4" cx="9.832" cy="9.832" r="2.551"/><circle fill="url(#h)" opacity=".305" cx="9.832" cy="9.832" r="5.193"/><circle fill="url(#h)" opacity=".119" cx="9.832" cy="9.832" r="9.762"/><circle fill="url(#i)" cx="9.852" cy="9.852" r="1.071"/></g><g transform="translate(35.223 59.223)"><circle fill="url(#h)" opacity=".4" cx="9.832" cy="9.832" r="2.551"/><circle fill="url(#h)" opacity=".305" cx="9.832" cy="9.832" r="5.193"/><circle fill="url(#h)" opacity=".119" cx="9.832" cy="9.832" r="9.762"/><circle fill="url(#i)" cx="9.852" cy="9.852" r="1.071"/></g><g transform="translate(.223 50.223)"><circle fill="url(#h)" opacity=".4" cx="9.832" cy="9.832" r="2.551"/><circle fill="url(#h)" opacity=".305" cx="9.832" cy="9.832" r="5.193"/><circle fill="url(#h)" opacity=".119" cx="9.832" cy="9.832" r="9.762"/><circle fill="url(#i)" cx="9.852" cy="9.852" r="1.071"/></g><g transform="translate(224.223 128.223)"><circle fill="url(#h)" opacity=".4" cx="9.832" cy="9.832" r="2.551"/><circle fill="url(#h)" opacity=".305" cx="9.832" cy="9.832" r="5.193"/><circle fill="url(#h)" opacity=".119" cx="9.832" cy="9.832" r="9.762"/><circle fill="url(#i)" cx="9.852" cy="9.852" r="1.071"/></g></g></svg>