<?xml version="1.0" encoding="UTF-8"?>
<svg width="137px" height="141px" viewBox="0 0 137 141" version="1.1" xmlns="http://www.w3.org/2000/svg" xmlns:xlink="http://www.w3.org/1999/xlink">
    <!-- Generator: Sketch 47.1 (45422) - http://www.bohemiancoding.com/sketch -->
    <title>Illustration_Joinus_Fully_technology_company@1x</title>
    <desc>Created with Sketch.</desc>
    <defs>
        <linearGradient x1="11.3552517%" y1="113.983154%" x2="92.1006944%" y2="-28.2725016%" id="linearGradient-1">
            <stop stop-color="#0B0B0A" offset="0%"></stop>
            <stop stop-color="#464F51" offset="100%"></stop>
        </linearGradient>
        <linearGradient x1="50%" y1="0%" x2="50%" y2="96.9726562%" id="linearGradient-2">
            <stop stop-color="#C8C8C8" offset="0%"></stop>
            <stop stop-color="#00E7E2" offset="100%"></stop>
        </linearGradient>
        <linearGradient x1="-11.5059199%" y1="-21.7121645%" x2="50%" y2="96.9726562%" id="linearGradient-3">
            <stop stop-color="#727171" offset="0%"></stop>
            <stop stop-color="#00E7E2" offset="100%"></stop>
        </linearGradient>
        <linearGradient x1="50%" y1="0%" x2="50%" y2="96.9726562%" id="linearGradient-4">
            <stop stop-color="#999292" offset="0%"></stop>
            <stop stop-color="#00E7E2" offset="100%"></stop>
        </linearGradient>
        <linearGradient x1="14.9580793%" y1="0%" x2="116.400528%" y2="127.872527%" id="linearGradient-5">
            <stop stop-color="#E9F2F4" offset="0%"></stop>
            <stop stop-color="#F7F8F9" offset="100%"></stop>
            <stop stop-color="#00EFE2" offset="100%"></stop>
        </linearGradient>
    </defs>
    <g id="Website" stroke="none" stroke-width="1" fill="none" fill-rule="evenodd">
        <g id="Join_us--Desktop-1170px" transform="translate(-997.000000, -1087.000000)">
            <g id="//Content">
                <g id="Some-insights-of-how-we-work:">
                    <g id="technology-company" transform="translate(930.000000, 1087.000000)">
                        <g id="technology_company_illustration" transform="translate(68.000000, 0.000000)">
                            <g>
                                <g id="Logo-bg" transform="translate(0.263120, 0.722656)" fill="url(#linearGradient-1)">
                                    <path d="M60.2366858,0.262683296 L62.0210228,0.813542254 C67.5367879,2.58191419 96.2578725,12.3926789 119.113475,31.6072609 L120.349215,32.4840478 L120.07473,34.0315582 L120.071751,34.0311883 C119.7779,36.1976289 116.89041,50.0930368 109.208561,65.0783242 C104.25778,74.7266799 98.2533802,83.1279264 91.361467,90.0489939 C82.8580268,98.5715847 72.9978051,104.875572 62.0545419,108.787447 L61.4351822,109.004609 L60.2713223,109.454101 L58.4851231,108.827402 C47.4737043,104.89111 37.6127378,98.5863828 29.1681423,90.0845093 C22.2371234,83.0861218 16.2334681,74.6859852 11.3225377,65.1156894 C3.68575414,50.1829352 0.946865756,36.7177818 0.475735241,34.1699204 L0.196036414,32.6020626 L1.33382592,31.6461059 C24.1953876,12.4071071 52.9533432,2.58302405 58.485868,0.809102826 L60.2366858,0.262683296 Z M31.3066818,88.2769208 C39.6723756,96.661979 49.4066788,102.882974 60.2452457,106.7732 C71.0444168,102.896671 80.779114,96.661979 89.1849915,88.2366137 C96.0611309,81.3296143 102.076079,72.9026837 107.062008,63.1902294 C113.873145,49.9057019 116.819161,37.9697025 117.765448,33.4752613 C95.0305373,14.8357548 66.8830406,5.00707507 60.242882,2.85514363 C53.6358158,4.97811654 25.628962,14.6917448 2.72307382,33.4764353 C3.66148129,37.9853558 6.59292126,49.9698803 13.428483,63.2681043 C18.3872298,72.9273375 24.4021774,81.3409629 31.3066818,88.2769208 Z" id="Combined-Shape" stroke="url(#linearGradient-2)" opacity="0.5"></path>
                                    <path d="M50.9084459,24.76892 C50.8690501,24.76892 32.7469915,30.5211004 32.7469915,46.2526232 C32.7469915,61.9841459 50.2391116,69.6147171 63.1211376,69.6147171 C70.1276771,69.6147171 75.8834005,67.5891858 79.6799718,65.7413188 C80.1692673,63.5111211 81.9487747,58.229321 87.83608,58.1897966 C88.8859776,58.1490981 89.870872,58.3447638 90.6985774,58.8143615 C94.6381553,60.9279425 92.0774297,64.8799984 92.0774297,64.8799984 C92.2259518,64.8561272 92.3760497,64.8283426 92.5261476,64.7962535 C92.6758516,64.7641643 92.8263434,64.7269878 92.9780172,64.6866807 C97.712996,63.4199409 103.048366,58.0399166 102.12296,49.0310762 C101.381137,41.8070984 94.6688841,37.2281295 91.4037618,35.4092211 C90.3345604,34.8136147 89.6348913,34.5126808 89.6348913,34.5126808 C89.7530787,33.7789344 89.7912926,33.2115039 89.7912926,32.7755607 C89.7912926,32.6937724 89.7897167,32.6170715 89.787353,32.5450665 C89.787353,31.8946058 89.787353,31.6994702 89.787353,31.6994702 C72.6530416,21.3746766 58.1533298,19.7841405 51.0018139,19.7841405 C47.9123969,19.7841405 46.1809524,20.0725518 46.1809524,20.0725518 L50.9084459,24.76892 Z M87.1131675,34.551814 C87.1131675,34.551814 84.7888165,33.8082843 82.4254636,33.4952192 C81.2431963,34.7083465 80.218906,35.2170774 79.9037398,35.3740013 C79.864344,35.4127431 79.8249482,35.4518762 79.8249482,35.4518762 C72.9306868,34.00395 70.4487527,30.4819673 70.4487527,30.4819673 C76.9494503,30.4432255 82.8194214,31.9690267 87.1131675,34.551814 Z" id="Fill-1" stroke="url(#linearGradient-3)"></path>
                                    <path d="M93.5346796,44.2959661 C93.5346796,49.422799 91.4077014,54.1575177 87.7828957,57.9925655 L87.7828957,57.9925655 L87.6107362,58.1894052 C87.7785622,58.1890139 87.8790214,58.1886226 87.9010831,58.1886226 L87.9010831,58.1886226 C88.8859776,58.1490981 89.870872,58.3447638 90.6985774,58.8143615 L90.6985774,58.8143615 C94.6381553,60.9279425 92.0774297,64.8799984 92.0774297,64.8799984 L92.0774297,64.8799984 C97.0019021,64.0973356 103.108248,58.6190871 102.12296,49.0310762 L102.12296,49.0310762 C101.381137,41.8070984 94.6688841,37.2281295 91.4037618,35.4092211 L91.4037618,35.4092211 C92.8070395,38.1622376 93.5346796,41.1860554 93.5346796,44.2959661" id="Fill-3" stroke="url(#linearGradient-4)"></path>
                                    <path d="M13.7980154,62.2580779 C13.7980154,62.8928175 13.8228348,63.4970332 13.858291,64.0875523 L13.858291,64.0875523 C18.7339126,73.4016312 24.5987624,81.5385853 31.3066818,88.2769208 L31.3066818,88.2769208 C39.6723756,96.661979 49.4066788,102.882974 60.2452457,106.7732 L60.2452457,106.7732 C71.0444168,102.896671 80.779114,96.661979 89.1849915,88.2366137 L89.1849915,88.2366137 C91.6771685,85.733658 94.0539159,83.0283839 96.3116881,80.1376188 L96.3116881,80.1376188 C78.3393334,78.8544431 79.4309904,68.0106497 79.4309904,68.0106497 L79.4309904,68.0106497 C79.4309904,67.5805765 79.4309904,67.1497206 79.509782,66.719256 L79.509782,66.719256 C79.509782,66.719256 79.5495717,66.3384906 79.6803657,65.7409275 L79.6803657,65.7409275 C75.8837944,67.5891858 70.128071,69.6147171 63.1211376,69.6147171 L63.1211376,69.6147171 C50.2391116,69.6147171 32.7469915,61.9841459 32.7469915,46.2526232 L32.7469915,46.2526232 C32.7469915,30.5211004 50.8690501,24.76892 50.8690501,24.76892 L50.8690501,24.76892 L50.8595952,24.7661807 C50.4002404,24.7309609 49.9077931,24.7293956 49.4508021,24.7293956 L49.4508021,24.7293956 C29.6347249,25.4341834 13.7980154,41.9479777 13.7980154,62.2580779" id="Fill-7" stroke="url(#linearGradient-2)"></path>
                                </g>
                                <circle id="Oval" fill="url(#linearGradient-1)" cx="105" cy="110" r="31"></circle>
                                <path d="M96.6600846,122.99464 C93.2178867,120.343492 91,116.180754 91,111.5 C91,103.491871 97.4918711,97 105.5,97 C113.508129,97 120,103.491871 120,111.5 C120,116.513362 117.455714,120.932474 113.587932,123.536547 L108.945068,115.193415 C109.933015,114.2715 110.550704,112.957884 110.550704,111.5 C110.550704,108.710573 108.289427,106.449296 105.5,106.449296 C102.710573,106.449296 100.449296,108.710573 100.449296,111.5 C100.449296,112.675783 100.851067,113.757728 101.524811,114.616037 L96.6600846,122.99464 Z" id="Combined-Shape" stroke="url(#linearGradient-5)"></path>
                            </g>
                        </g>
                    </g>
                </g>
            </g>
        </g>
    </g>
</svg>