<svg width="137" height="141" viewBox="0 0 137 141" xmlns="http://www.w3.org/2000/svg"><title>technology-company</title><defs><linearGradient x1="11.355%" y1="113.983%" x2="92.101%" y2="-28.273%" id="a"><stop stop-color="#0B0B0A" offset="0%"/><stop stop-color="#464F51" offset="100%"/></linearGradient><linearGradient x1="50%" y1="0%" x2="50%" y2="96.973%" id="b"><stop stop-color="#C8C8C8" offset="0%"/><stop stop-color="#00E7E2" offset="100%"/></linearGradient><linearGradient x1="-11.506%" y1="-21.712%" x2="50%" y2="96.973%" id="c"><stop stop-color="#727171" offset="0%"/><stop stop-color="#00E7E2" offset="100%"/></linearGradient><linearGradient x1="50%" y1="0%" x2="50%" y2="96.973%" id="d"><stop stop-color="#999292" offset="0%"/><stop stop-color="#00E7E2" offset="100%"/></linearGradient><linearGradient x1="14.958%" y1="0%" x2="116.401%" y2="127.873%" id="e"><stop stop-color="#E9F2F4" offset="0%"/><stop stop-color="#F7F8F9" offset="100%"/><stop stop-color="#00EFE2" offset="100%"/></linearGradient></defs><g transform="translate(1)" fill="none" fill-rule="evenodd"><g transform="translate(.263 .723)" fill="url(#a)"><path d="M60.237.263l1.784.55c5.516 1.769 34.237 11.58 57.092 30.794l1.236.877-.274 1.548h-.003c-.294 2.166-3.182 16.061-10.863 31.046-4.951 9.649-10.956 18.05-17.848 24.971-8.503 8.523-18.363 14.827-29.306 18.738l-.62.218-1.164.45-1.786-.628c-11.011-3.936-20.872-10.24-29.317-18.742-6.93-6.999-12.935-15.399-17.845-24.97C3.686 50.184.947 36.719.476 34.17l-.28-1.568 1.138-.956C24.195 12.407 52.954 2.583 58.486.81l1.75-.546zm-28.93 88.014c8.365 8.385 18.1 14.606 28.938 18.496 10.8-3.876 20.534-10.111 28.94-18.536 6.876-6.907 12.891-15.334 17.877-25.047 6.811-13.284 9.757-25.22 10.703-29.715-22.734-18.64-50.882-28.468-57.522-30.62-6.607 2.123-34.614 11.837-57.52 30.621.938 4.51 3.87 16.494 10.705 29.792 4.96 9.66 10.974 18.073 17.879 25.009z" stroke="url(#b)" opacity=".5"/><path d="M50.908 24.769c-.039 0-18.161 5.752-18.161 21.484 0 15.731 17.492 23.362 30.374 23.362 7.007 0 12.762-2.026 16.559-3.874.49-2.23 2.269-7.512 8.156-7.551 1.05-.04 2.035.155 2.863.624 3.94 2.114 1.378 6.066 1.378 6.066a8.918 8.918 0 0 0 .901-.193c4.735-1.267 10.07-6.647 9.145-15.656-.742-7.224-7.454-11.803-10.72-13.622-1.068-.595-1.768-.896-1.768-.896.118-.734.156-1.301.156-1.737 0-.082-.001-.159-.004-.23v-.847C72.653 21.375 58.153 19.784 51.002 19.784c-3.09 0-4.821.289-4.821.289l4.727 4.696zm36.205 9.783s-2.324-.744-4.688-1.057c-1.182 1.213-2.206 1.722-2.521 1.879l-.08.078c-6.893-1.448-9.375-4.97-9.375-4.97 6.5-.039 12.37 1.487 16.664 4.07z" stroke="url(#c)"/><path d="M93.535 44.296c0 5.127-2.127 9.862-5.752 13.697l-.172.196h.29c.985-.04 1.97.156 2.798.625 3.94 2.114 1.378 6.066 1.378 6.066 4.925-.783 11.031-6.26 10.046-15.849-.742-7.224-7.454-11.803-10.72-13.622a19.5 19.5 0 0 1 2.132 8.887" stroke="url(#d)"/><path d="M13.798 62.258c0 .635.025 1.239.06 1.83 4.876 9.314 10.74 17.45 17.449 24.189 8.365 8.385 18.1 14.606 28.938 18.496 10.8-3.876 20.534-10.111 28.94-18.536a89.84 89.84 0 0 0 7.127-8.1C78.339 78.855 79.43 68.012 79.43 68.012c0-.43 0-.861.079-1.292 0 0 .04-.38.17-.978-3.796 1.848-9.552 3.874-16.559 3.874-12.882 0-30.374-7.63-30.374-23.362s18.122-21.484 18.122-21.484l-.01-.003c-.459-.035-.951-.037-1.408-.037-19.816.705-35.653 17.219-35.653 37.53" stroke="url(#b)"/></g><circle fill="url(#a)" cx="105" cy="110" r="31"/><path d="M96.66 122.995A14.476 14.476 0 0 1 91 111.5c0-8.008 6.492-14.5 14.5-14.5s14.5 6.492 14.5 14.5c0 5.013-2.544 9.432-6.412 12.037l-4.643-8.344a5.05 5.05 0 1 0-7.42-.577l-4.865 8.379z" stroke="url(#e)"/></g></svg>