<?xml version="1.0" encoding="UTF-8"?>
<svg width="266px" height="185px" viewBox="0 0 266 185" version="1.1" xmlns="http://www.w3.org/2000/svg" xmlns:xlink="http://www.w3.org/1999/xlink">
    <!-- Generator: Sketch 47.1 (45422) - http://www.bohemiancoding.com/sketch -->
    <title>Illustration_Joinus_Fully_Distributed@1x</title>
    <desc>Created with Sketch.</desc>
    <defs>
        <linearGradient x1="50%" y1="0%" x2="50%" y2="100%" id="linearGradient-1">
            <stop stop-color="#C8C8C8" offset="0%"></stop>
            <stop stop-color="#979797" offset="100%"></stop>
        </linearGradient>
        <linearGradient x1="50%" y1="0%" x2="50%" y2="97.6841518%" id="linearGradient-2">
            <stop stop-color="#C8C8C8" offset="0%"></stop>
            <stop stop-color="#979797" stop-opacity="0.312669837" offset="100%"></stop>
        </linearGradient>
        <linearGradient x1="50%" y1="0%" x2="130.043589%" y2="150.377906%" id="linearGradient-3">
            <stop stop-color="#C8C8C8" offset="0%"></stop>
            <stop stop-color="#00DAE3" offset="100%"></stop>
        </linearGradient>
        <linearGradient x1="50%" y1="0%" x2="50%" y2="100%" id="linearGradient-4">
            <stop stop-color="#C8C8C8" offset="0%"></stop>
            <stop stop-color="#00D7E4" offset="100%"></stop>
        </linearGradient>
        <linearGradient x1="18.4924717%" y1="17.0611788%" x2="51.0194472%" y2="23.8481603%" id="linearGradient-5">
            <stop stop-color="#00D6E3" offset="0%"></stop>
            <stop stop-color="#979797" stop-opacity="0.365687274" offset="100%"></stop>
        </linearGradient>
        <linearGradient x1="50%" y1="0%" x2="50%" y2="100%" id="linearGradient-6">
            <stop stop-color="#C8C8C8" offset="0%"></stop>
            <stop stop-color="#00D6E3" offset="100%"></stop>
        </linearGradient>
        <linearGradient x1="50%" y1="0%" x2="50%" y2="96.9726562%" id="linearGradient-7">
            <stop stop-color="#C8C8C8" offset="0%"></stop>
            <stop stop-color="#00E7E2" offset="100%"></stop>
        </linearGradient>
        <linearGradient x1="14.9580793%" y1="0%" x2="116.400528%" y2="127.872527%" id="linearGradient-8">
            <stop stop-color="#00C7E4" offset="0%"></stop>
            <stop stop-color="#00EFE2" offset="100%"></stop>
            <stop stop-color="#00EFE2" offset="100%"></stop>
        </linearGradient>
        <linearGradient x1="100%" y1="0%" x2="-2.6188151%" y2="100%" id="linearGradient-9">
            <stop stop-color="#00EAE5" offset="0%"></stop>
            <stop stop-color="#02B5E4" offset="100%"></stop>
        </linearGradient>
    </defs>
    <g id="Website" stroke="none" stroke-width="1" fill="none" fill-rule="evenodd">
        <g id="Join_us--Desktop-1170px" transform="translate(-245.000000, -619.000000)">
            <g id="//Content">
                <g id="Some-insights-of-how-we-work:">
                    <g id="Fully-Distributed">
                        <g id="Fully_Distributed--illustration" transform="translate(245.000000, 620.000000)">
                            <g>
                                <g id="map" transform="translate(2.965881, 29.056641)">
                                    <g id="Group" transform="translate(104.065871, 2.712260)">
                                        <polygon id="Path-43" stroke="url(#linearGradient-1)" stroke-linecap="round" stroke-linejoin="round" points="43.8329049 35.1171824 39.4740539 35.4449229 33.5800743 38.9754268 42.7441646 46.6792729 41.3393542 51.6199362 47.5097736 70.2291761"></polygon>
                                        <polyline id="Path-45" stroke="url(#linearGradient-2)" points="71.9580456 61.8248699 80.8889734 76.7800954 89.2247167 66.8810204 95.2592259 76.3648278 105.56044 80.7620935 111.11282 77.1421174 110.840514 73.2748771 114.318744 69.9332858 117.207869 61.8248699 111.11282 51.47114 117.874777 55.3673129 119.133223 40.9036981 116.616575 34.3576414 120.514206 31.8905921 127.096976 38.5810685 126.532669 11.0080781 135.405488 9.29935402 125.793308 4.50311053 61.5646854 6.32172975 57.7723294 9.29935402 48.4759759 9.02267105"></polyline>
                                        <polygon id="Path-47" stroke="url(#linearGradient-1)" points="94.4294201 12.9857049 113.365914 23.6333801 107.545117 5.07981705"></polygon>
                                        <polyline id="Path-49" stroke="url(#linearGradient-1)" points="120.574989 31.953563 120.758651 31.4038651 123.240919 23.9744927 113.600779 23.6214666"></polyline>
                                        <path d="M113.327013,23.6710653 L116.638699,34.2637929" id="Path-51" stroke="url(#linearGradient-1)"></path>
                                        <polygon id="Path-53" stroke="url(#linearGradient-1)" points="118.081438 41.1806242 72.1907219 61.4100886 89.4564204 66.8725108"></polygon>
                                        <polyline id="Path-55" stroke="url(#linearGradient-1)" points="110.598841 64.3376279 111.019458 51.0665702 119.266702 40.5411899"></polyline>
                                        <polygon id="Path-38" stroke="url(#linearGradient-3)" points="12.843682 18.0340752 4.46150068 18.0340752 0.0153656975 26.0432936 6.84491301 30.967424 13.6054111 27.2453329 18.255533 30.5628542 24.8324672 30.5628542 25.669567 35.9591447 34.1290639 35.9591447 38.8727911 29.2317124 43.8825036 35.0804696 79.9307944 41.7767812 47.9415741 8.47538336 33.824664 0.982818058"></polygon>
                                        <polyline id="Path-40" stroke="url(#linearGradient-1)" opacity="0.527287138" points="4.47633166 18.3418789 6.72261816 29.9185572 12.7780366 18.0600902 13.7583405 27.297606"></polyline>
                                        <polygon id="Path-44" stroke="url(#linearGradient-1)" opacity="0.52587183" points="48.0028431 71.6582996 56.0813539 51.2693414 80.117519 41.8976173 71.8308881 61.973666 56.0813539 51.5664474 62.0764759 61.3745915 56.0813539 70.7142223"></polygon>
                                        <polyline id="Path-46" stroke="url(#linearGradient-1)" opacity="0.527287138" points="60.3339567 7.31832335 94.5762712 12.9699014 79.9818519 41.9401652"></polyline>
                                        <polyline id="Path-48" stroke="url(#linearGradient-1)" points="107.64942 5.27699622 123.311167 24.1567916 127.022091 28.6302065 120.66592 31.8239742"></polyline>
                                        <path d="M113.49064,23.6598813 L120.689504,31.8419659" id="Path-50" stroke="url(#linearGradient-1)"></path>
                                        <polyline id="Path-52" stroke="url(#linearGradient-1)" points="107.935585 5.22010359 126.483556 11.8167315 124.751735 4.51721212"></polyline>
                                        <polyline id="Path-54" stroke="url(#linearGradient-1)" points="89.6548153 66.9038747 110.457339 64.2722257 110.991255 73.2381643"></polyline>
                                    </g>
                                    <polyline id="Path-10" stroke="url(#linearGradient-1)" points="13.6474243 16.1757427 8.35957014 7.79939652 20.5768984 0.361535666"></polyline>
                                    <path d="M20.5635262,0.501822202 L0.65061832,0.992946643" id="Path-12" stroke="url(#linearGradient-1)" opacity="0.334692029"></path>
                                    <polyline id="Path-14" stroke="url(#linearGradient-1)" points="39.2194474 6.71187195 56.19193 3.37295514 60.6173989 15.6233493"></polyline>
                                    <polygon id="Path-16" stroke="url(#linearGradient-1)" points="66.9745428 6.72670293 72.7175381 6.72670293 69.4617721 3.11572263"></polygon>
                                    <polygon id="Path-18" stroke="url(#linearGradient-1)" opacity="0.739413496" points="82.317319 4.88255497 87.862892 12.1278561 98.6034431 7.54775602 88.8592425 3.75418441 87.0415958 19.0062728 79.7048774 9.14950247"></polygon>
                                    <path d="M82.5003966,4.89009203 L88.8290942,3.70434257" id="Path-20" stroke="url(#linearGradient-1)"></path>
                                    <polygon id="Path-22" stroke="url(#linearGradient-1)" points="37.5809881 75.7751525 13.1820718 92.7758383 20.5163589 106.451466"></polygon>
                                    <path d="M68.1884955,104.191078 L47.0125225,95.8101121" id="Path-24" stroke="url(#linearGradient-1)"></path>
                                    <polyline id="Path-27" stroke="url(#linearGradient-1)" points="39.3940154 140.095921 25.5547607 131.88612 23.5671655 111.916806"></polyline>
                                    <polygon id="Path-29" stroke="url(#linearGradient-1)" points="89.1009146 60.6166695 91.9285271 85.0605651 105.676851 90.578178 112.113985 91.1881935 117.021582 96.0286868 118.006019 112.88787 114.428591 128.924785 135.639089 119.397701 158.848852 84.0627558 146.675773 81.793615 144.644658 60.6166695 126.243051 50.9478394 117.021582 42.7783976 109.456564 47.6490392 96.5543358 52.3750179"></polygon>
                                    <polyline id="Path-31" stroke="url(#linearGradient-1)" opacity="0.602072011" points="111.174527 90.9761833 125.882245 71.0805377 117.104733 96.0097226 146.795394 81.8181713"></polyline>
                                    <path d="M146.889972,81.8035834 L126.383824,70.2200974" id="Path-33" stroke="url(#linearGradient-1)" opacity="0.527287138"></path>
                                    <path d="M118.197606,112.81177 L135.526033,119.484498" id="Path-35" stroke="url(#linearGradient-1)"></path>
                                    <path d="M143.796131,122.370949 L151.160566,114.994114" id="Path-37" stroke="url(#linearGradient-1)"></path>
                                    <path d="" id="Path-39" stroke="url(#linearGradient-1)"></path>
                                    <path d="M116.850472,20.6388711 L152.57078,11.748303" id="Path-41" stroke="url(#linearGradient-1)"></path>
                                    <polyline id="Path-65" stroke="url(#linearGradient-1)" points="241.885272 86.9261114 245.547553 95.737905 248.717494 88.5139994"></polyline>
                                    <polyline id="Path-67" stroke="url(#linearGradient-1)" points="220.411303 123.382405 228.393048 117.565254 224.402176 104.218826"></polyline>
                                    <path d="M228.426114,117.525138 L244.92595,123.468716" id="Path-69" stroke="url(#linearGradient-1)"></path>
                                    <path d="M216.344696,114.129328 C216.344696,114.129328 218.900812,110.804594 224.013045,104.155126 L234.456976,99.7481349 L244.310829,100.111129 L261.839595,112.20203 L254.642434,135.647873 L244.867842,123.465798 L232.03053,128.271038 L220.466494,123.465798 C217.718628,117.241485 216.344696,114.129328 216.344696,114.129328 Z" id="Path-66" stroke="url(#linearGradient-1)" opacity="0.739413496"></path>
                                    <polyline id="Path-68" stroke="url(#linearGradient-4)" points="231.952971 128.25256 228.409338 117.490613 249.115096 103.414792"></polyline>
                                    <path d="M249.416821,103.69415 L254.728502,135.539193" id="Path-70" stroke="url(#linearGradient-1)" opacity="0.416157156"></path>
                                    <g id="Group-41">
                                        <polyline id="Path-8" stroke="url(#linearGradient-1)" opacity="0.462069746" points="1.2419127 34.2979914 13.2695989 16.1803622 15.1013472 56.9329931 37.0020934 75.3987858 42.3650751 75.3987858 52.9801707 121.653955 48.9986589 133.738048 20.2596126 106.409647"></polyline>
                                        <polyline id="Path-9" stroke="url(#linearGradient-5)" points="1.34451394 34.2722196 37.1445682 75.1823993 29.5856281 47.472283 41.4650045 45.9721653 13.436873 15.8516492 20.542617 0.41867143 39.3998505 6.79113262 60.6256653 15.8516492 73.5626612 25.0877063 72.0071096 11.0148028 40.0139992 25.0877063"></polyline>
                                        <path d="M0.39995035,0.944320461 L8.32674746,7.82152143" id="Path-11" stroke="url(#linearGradient-1)"></path>
                                        <polyline id="Path-13" stroke="url(#linearGradient-1)" points="13.6530163 15.9180239 39.166688 6.76195692 41.6539172 45.8087813 60.7112474 15.9180239"></polyline>
                                        <polyline id="Path-15" stroke="url(#linearGradient-1)" points="56.3504514 3.45270208 63.2536674 9.85822908 59.0299972 10.6430557"></polyline>
                                        <polygon id="Path-17" stroke="url(#linearGradient-1)" points="77.1498146 7.32091488 79.2502226 4.7057988 76.6839758 4.7057988"></polygon>
                                        <path d="M79.7739266,9.25575068 L87.7880077,12.0240392" id="Path-19" stroke="url(#linearGradient-1)"></path>
                                        <polyline id="Path-21" stroke="url(#linearGradient-1)" points="14.8304994 49.6011373 29.6639163 47.4674204 23.6736569 59.6164289 15.3038752 56.9876975"></polyline>
                                        <polyline id="Path-23" stroke="url(#linearGradient-6)" points="20.5078493 106.486963 53.9541531 92.7539565 59.7165989 92.7539565 68.1790134 104.287601 53.3227422 121.456533"></polyline>
                                        <path d="M53.9767643,92.7532271 L42.448469,75.4223695" id="Path-25" stroke="url(#linearGradient-1)"></path>
                                        <polyline id="Path-26" stroke="url(#linearGradient-1)" points="20.650324 106.635273 39.3514674 140.203142 49.0052234 133.736346"></polyline>
                                        <polyline id="Path-28" stroke="url(#linearGradient-1)" opacity="0.580163043" points="25.5754269 132.032728 28.9636992 148.080341 36.9513362 153.993409 38.856696 151.07231 39.4017955 140.004261 28.9636992 148.080341"></polyline>
                                        <polyline id="Path-30" stroke="url(#linearGradient-7)" points="89.1672893 60.8260052 110.587366 89.7077693 96.8169172 52.3990878 126.410569 69.8456758 126.410569 50.8087685 109.610952 47.6553606"></polyline>
                                        <path d="M126.572494,69.9511946 L144.571961,60.6932557" id="Path-32" stroke="url(#linearGradient-1)"></path>
                                        <polyline id="Path-34" stroke="url(#linearGradient-1)" points="146.856663 81.7700313 135.561287 119.363662 116.911201 95.899098"></polyline>
                                        <polyline id="Path-36" stroke="url(#linearGradient-1)" points="143.796617 122.42541 147.406139 109.396511 151.180746 115.088205"></polyline>
                                        <polyline id="Path-42" stroke="url(#linearGradient-1)" opacity="0.542459239" points="128.928487 33.245452 133.526579 16.4436472 143.008441 31.9833594"></polyline>
                                        <polygon id="Path-56" stroke="url(#linearGradient-1)" points="116.865003 17.0604807 116.01672 10.1300341 109.312628 15.7942549"></polygon>
                                        <polygon id="Path-62" stroke="url(#linearGradient-1)" transform="translate(222.801658, 90.119028) rotate(-110.000000) translate(-222.801658, -90.119028) " points="219.920556 87.7624817 224.181669 83.1668212 224.637782 90.6997463 225.682759 92.796021 222.801658 97.0712349 219.920556 93.3493869"></polygon>
                                        <polygon id="Path-64" stroke="url(#linearGradient-1)" opacity="0.458559783" points="235.66185 88.5755115 242.046225 86.8427175 248.764661 88.5755115 252.750063 98.7639124 245.482637 95.8234871 240.442533 95.8234871"></polygon>
                                    </g>
                                </g>
                                <path d="M143,50.5 C143,36.4167389 135.49341,27 125,27 C114.50659,27 108,43.4167389 108,57.5" id="Oval" stroke="#FFFFFF" stroke-linecap="round" stroke-linejoin="round" stroke-dasharray="2,4"></path>
                                <path d="M234.162109,137.165039 C234.162109,123.081778 221.959961,60.5751953 191.900391,59.7275391 C161.84082,58.8798828 155,90.4167389 155,104.5" id="Oval" stroke="#FFFFFF" stroke-linecap="round" stroke-linejoin="round" stroke-dasharray="2,4"></path>
                                <path d="M45,67.5 C45,53.4167389 33.796875,44.8515625 29,44.8515625 C24.203125,44.8515625 10,45.4167389 10,59.5" id="Oval" stroke="#FFFFFF" stroke-linecap="round" stroke-linejoin="round" stroke-dasharray="2,4"></path>
                                <path d="M108,54.5 C108,40.4167389 99.3496094,17.6503906 76.7119141,17.6503906 C54.0742188,17.6503906 45.4238281,54.2136139 45.4238281,68.296875" id="Oval" stroke="#FFFFFF" stroke-linecap="round" stroke-linejoin="round" stroke-dasharray="2,4"></path>
                                <path d="M154.25,102.316406 C154.25,88.2331451 130.163829,47.9726563 93.1933594,47.4824219 C56.2228893,46.9921875 45.6171875,65.1308594 45.4238281,68.296875" id="Oval" stroke="#FFFFFF" stroke-linecap="round" stroke-linejoin="round" stroke-dasharray="2,4"></path>
                                <path d="M107.689453,55.3164062 C107.689453,41.2331451 100.537109,0.21484375 61.3378906,0.21484375 C22.1386719,0.21484375 9.42382812,47.2136139 9.42382812,61.296875" id="Oval" stroke="#FFFFFF" stroke-linecap="round" stroke-linejoin="round" stroke-dasharray="2,4"></path>
                                <g id="Points" transform="translate(0.000000, 40.000000)">
                                    <g id="Group-2" transform="translate(145.222656, 52.222656)">
                                        <circle id="Oval-5-Copy" fill="url(#linearGradient-8)" opacity="0.400000006" cx="9.8324709" cy="9.8324709" r="2.55088122"></circle>
                                        <circle id="Oval-5-Copy" fill="url(#linearGradient-8)" opacity="0.3046875" cx="9.8324709" cy="9.8324709" r="5.19336437"></circle>
                                        <circle id="Oval-5-Copy" fill="url(#linearGradient-8)" opacity="0.119338768" cx="9.8324709" cy="9.8324709" r="9.76163317"></circle>
                                        <circle id="Oval-5-Copy" fill="url(#linearGradient-9)" cx="9.8515625" cy="9.8515625" r="1.07082201"></circle>
                                    </g>
                                    <g id="Group-2" transform="translate(133.222656, 0.222656)">
                                        <circle id="Oval-5-Copy" fill="url(#linearGradient-8)" opacity="0.400000006" cx="9.8324709" cy="9.8324709" r="2.55088122"></circle>
                                        <circle id="Oval-5-Copy" fill="url(#linearGradient-8)" opacity="0.3046875" cx="9.8324709" cy="9.8324709" r="5.19336437"></circle>
                                        <circle id="Oval-5-Copy" fill="url(#linearGradient-8)" opacity="0.119338768" cx="9.8324709" cy="9.8324709" r="9.76163317"></circle>
                                        <circle id="Oval-5-Copy" fill="url(#linearGradient-9)" cx="9.8515625" cy="9.8515625" r="1.07082201"></circle>
                                    </g>
                                    <g id="Group-2" transform="translate(98.222656, 8.222656)">
                                        <circle id="Oval-5-Copy" fill="url(#linearGradient-8)" opacity="0.400000006" cx="9.8324709" cy="9.8324709" r="2.55088122"></circle>
                                        <circle id="Oval-5-Copy" fill="url(#linearGradient-8)" opacity="0.3046875" cx="9.8324709" cy="9.8324709" r="5.19336437"></circle>
                                        <circle id="Oval-5-Copy" fill="url(#linearGradient-8)" opacity="0.119338768" cx="9.8324709" cy="9.8324709" r="9.76163317"></circle>
                                        <circle id="Oval-5-Copy" fill="url(#linearGradient-9)" cx="9.8515625" cy="9.8515625" r="1.07082201"></circle>
                                    </g>
                                    <g id="Group-2" transform="translate(35.222656, 18.222656)">
                                        <circle id="Oval-5-Copy" fill="url(#linearGradient-8)" opacity="0.400000006" cx="9.8324709" cy="9.8324709" r="2.55088122"></circle>
                                        <circle id="Oval-5-Copy" fill="url(#linearGradient-8)" opacity="0.3046875" cx="9.8324709" cy="9.8324709" r="5.19336437"></circle>
                                        <circle id="Oval-5-Copy" fill="url(#linearGradient-8)" opacity="0.119338768" cx="9.8324709" cy="9.8324709" r="9.76163317"></circle>
                                        <circle id="Oval-5-Copy" fill="url(#linearGradient-9)" cx="9.8515625" cy="9.8515625" r="1.07082201"></circle>
                                    </g>
                                    <g id="Group-2" transform="translate(0.222656, 9.222656)">
                                        <circle id="Oval-5-Copy" fill="url(#linearGradient-8)" opacity="0.400000006" cx="9.8324709" cy="9.8324709" r="2.55088122"></circle>
                                        <circle id="Oval-5-Copy" fill="url(#linearGradient-8)" opacity="0.3046875" cx="9.8324709" cy="9.8324709" r="5.19336437"></circle>
                                        <circle id="Oval-5-Copy" fill="url(#linearGradient-8)" opacity="0.119338768" cx="9.8324709" cy="9.8324709" r="9.76163317"></circle>
                                        <circle id="Oval-5-Copy" fill="url(#linearGradient-9)" cx="9.8515625" cy="9.8515625" r="1.07082201"></circle>
                                    </g>
                                    <g id="Group-2" transform="translate(224.222656, 87.222656)">
                                        <circle id="Oval-5-Copy" fill="url(#linearGradient-8)" opacity="0.400000006" cx="9.8324709" cy="9.8324709" r="2.55088122"></circle>
                                        <circle id="Oval-5-Copy" fill="url(#linearGradient-8)" opacity="0.3046875" cx="9.8324709" cy="9.8324709" r="5.19336437"></circle>
                                        <circle id="Oval-5-Copy" fill="url(#linearGradient-8)" opacity="0.119338768" cx="9.8324709" cy="9.8324709" r="9.76163317"></circle>
                                        <circle id="Oval-5-Copy" fill="url(#linearGradient-9)" cx="9.8515625" cy="9.8515625" r="1.07082201"></circle>
                                    </g>
                                </g>
                            </g>
                        </g>
                    </g>
                </g>
            </g>
        </g>
    </g>
</svg>