<svg width="26" height="26" xmlns="http://www.w3.org/2000/svg"><g fill="none" fill-rule="evenodd"><path d="M13 6.607v6.5a.458.458 0 0 1-.464.464H7.893a.458.458 0 0 1-.464-.464v-.928c0-.262.203-.465.464-.465h3.25V6.607c0-.261.203-.464.464-.464h.929c.26 0 .464.203.464.464zm6.036 5.107c0-4.352-3.54-7.893-7.893-7.893S3.25 7.361 3.25 11.714s3.54 7.893 7.893 7.893 7.893-3.54 7.893-7.893zm3.25 0c0 6.152-4.991 11.143-11.143 11.143C4.99 22.857 0 17.867 0 11.714 0 5.562 4.991.571 11.143.571c6.152 0 11.143 4.991 11.143 11.143z" fill="#A781FF"/><circle fill="#FFF" cx="19.5" cy="19.5" r="6.5"/><path d="M25.59 23.09a.866.866 0 0 0-.25-.608l-2.626-2.625 2.625-2.625a.866.866 0 0 0 0-1.214l-1.214-1.214a.866.866 0 0 0-1.214 0l-2.625 2.625-2.625-2.625a.866.866 0 0 0-1.215 0l-1.214 1.214a.866.866 0 0 0 0 1.214l2.625 2.625-2.625 2.625a.866.866 0 0 0 0 1.214l1.214 1.215a.866.866 0 0 0 1.215 0l2.625-2.625 2.625 2.625a.866.866 0 0 0 1.214 0l1.214-1.215a.863.863 0 0 0 .25-.607z" fill="#A781FF"/></g></svg>