<svg width="32" height="32" xmlns="http://www.w3.org/2000/svg"><path d="M15.92 22.848c2.15-1.924 3.657-3.32 4.524-4.186 1.352-1.352 2.349-2.53 2.99-3.536.71-1.127 1.066-2.193 1.066-3.198 0-.71-.165-1.352-.494-1.924a3.52 3.52 0 0 0-1.352-1.339c-.572-.32-1.222-.481-1.95-.481-.85 0-1.634.238-2.353.715-.72.477-1.226 1.088-1.521 1.833h-2.028c-.277-.745-.78-1.356-1.508-1.833a4.195 4.195 0 0 0-2.34-.715c-.728 0-1.382.16-1.963.481-.58.32-1.036.767-1.365 1.339a3.786 3.786 0 0 0-.494 1.924c0 1.005.355 2.071 1.066 3.198.641 1.005 1.638 2.184 2.99 3.536.867.867 2.375 2.262 4.524 4.186l.104.104.104-.104zM20.704 6c1.092 0 2.093.26 3.003.78a5.665 5.665 0 0 1 2.145 2.145c.52.91.78 1.911.78 3.003 0 1.3-.381 2.617-1.144 3.952-.676 1.161-1.75 2.487-3.224 3.978-.884.901-2.505 2.427-4.862 4.576l-1.586 1.43-1.56-1.378c-2.323-2.115-3.952-3.649-4.888-4.602-1.473-1.49-2.54-2.817-3.198-3.978C5.39 14.571 5 13.246 5 11.928a5.87 5.87 0 0 1 .793-3.003A5.789 5.789 0 0 1 7.938 6.78C8.839 6.26 9.845 6 10.954 6c.919 0 1.811.208 2.678.624.867.416 1.595.97 2.184 1.664A6.537 6.537 0 0 1 18 6.624 6.177 6.177 0 0 1 20.704 6z" fill="#A781FF" fill-rule="evenodd"/></svg>