<?xml version="1.0" encoding="UTF-8"?>
<svg width="22px" height="20px" viewBox="0 0 22 20" version="1.1" xmlns="http://www.w3.org/2000/svg" xmlns:xlink="http://www.w3.org/1999/xlink">
    <!-- Generator: Sketch 47.1 (45422) - http://www.bohemiancoding.com/sketch -->
    <title>Illustration_Joinus_Your_value@1x</title>
    <desc>Created with Sketch.</desc>
    <defs></defs>
    <g id="Website" stroke="none" stroke-width="1" fill="none" fill-rule="evenodd">
        <g id="Join_us--Desktop-1170px" transform="translate(-934.000000, -1821.000000)" fill="#A781FF">
            <g id="//Content">
                <g id="Things-we-value-in-people" transform="translate(0.000000, 1605.000000)">
                    <g id="Value" transform="translate(932.000000, 216.000000)">
                        <path d="M12.92,16.848 C15.0693441,14.9239904 16.577329,13.528671 17.444,12.662 C18.7960068,11.3099932 19.7926635,10.1313384 20.434,9.126 C21.1446702,7.9993277 21.5,6.93333836 21.5,5.928 C21.5,5.21732978 21.335335,4.57600286 21.006,4.004 C20.676665,3.43199714 20.2260029,2.98566827 19.654,2.665 C19.0819971,2.34433173 18.4320036,2.184 17.704,2.184 C16.8546624,2.184 16.0703369,2.42233095 15.351,2.899 C14.6316631,3.37566905 14.1246681,3.98666294 13.83,4.732 L11.802,4.732 C11.5246653,3.98666294 11.0220036,3.37566905 10.294,2.899 C9.56599636,2.42233095 8.78600416,2.184 7.954,2.184 C7.22599636,2.184 6.57166957,2.34433173 5.991,2.665 C5.41033043,2.98566827 4.95533498,3.43199714 4.626,4.004 C4.29666502,4.57600286 4.132,5.21732978 4.132,5.928 C4.132,6.93333836 4.48732978,7.9993277 5.198,9.126 C5.83933654,10.1313384 6.83599324,11.3099932 8.188,12.662 C9.054671,13.528671 10.5626559,14.9239904 12.712,16.848 L12.816,16.952 L12.92,16.848 Z M17.704,0 C18.7960055,0 19.7969955,0.2599974 20.707,0.78 C21.6170045,1.3000026 22.3319974,2.01499545 22.852,2.925 C23.3720026,3.83500455 23.632,4.83599454 23.632,5.928 C23.632,7.2280065 23.2506705,8.54532666 22.488,9.88 C21.8119966,11.0413391 20.7373407,12.3673259 19.264,13.858 C18.3799956,14.7593378 16.7593451,16.2846559 14.402,18.434 L12.816,19.864 L11.256,18.486 C8.93332172,16.3713228 7.30400468,14.8373381 6.368,13.884 C4.8946593,12.3933259 3.82866996,11.0673391 3.17,9.906 C2.3899961,8.57132666 2,7.24533992 2,5.928 C2,4.83599454 2.26433069,3.83500455 2.793,2.925 C3.32166931,2.01499545 4.03666216,1.3000026 4.938,0.78 C5.83933784,0.2599974 6.84466112,0 7.954,0 C8.87267126,0 9.765329,0.20799792 10.632,0.624 C11.498671,1.04000208 12.2266637,1.5946632 12.816,2.288 C13.4053363,1.5946632 14.133329,1.04000208 15,0.624 C15.866671,0.20799792 16.7679953,0 17.704,0 Z" id="Illustration_Joinus_Your_value"></path>
                    </g>
                </g>
            </g>
        </g>
    </g>
</svg>