<?xml version="1.0" encoding="UTF-8"?>
<svg width="24px" height="20px" viewBox="0 0 24 20" version="1.1" xmlns="http://www.w3.org/2000/svg" xmlns:xlink="http://www.w3.org/1999/xlink">
    <!-- Generator: Sketch 47.1 (45422) - http://www.bohemiancoding.com/sketch -->
    <title>Illustration_Joinus_Proactive@1x</title>
    <desc>Created with Sketch.</desc>
    <defs></defs>
    <g id="Website" stroke="none" stroke-width="1" fill="none" fill-rule="evenodd">
        <g id="Join_us--Desktop-1170px" transform="translate(-591.000000, -1821.000000)" fill="#A781FF">
            <g id="//Content">
                <g id="Things-we-value-in-people" transform="translate(0.000000, 1605.000000)">
                    <g id="Proactive" transform="translate(590.000000, 216.000000)">
                        <path d="M8.072,11.934 L17.822,11.934 C17.4059979,12.9046715 16.7560044,13.688997 15.872,14.287 C14.9879956,14.885003 14.008672,15.184 12.934,15.184 C11.859328,15.184 10.8843377,14.885003 10.009,14.287 C9.13366229,13.688997 8.48800208,12.9046715 8.072,11.934 Z M12.934,17.316 C14.0606723,17.316 15.1266616,17.0820023 16.132,16.614 C17.1373384,16.1459977 17.9909965,15.5003374 18.693,14.677 C19.3950035,13.8536625 19.8933319,12.9220052 20.188,11.882 L20.5,11.934 C21.0893363,11.934 21.6006645,11.7173355 22.034,11.284 C22.4673355,10.8506645 22.684,10.3393363 22.684,9.75 C22.684,9.16066372 22.4673355,8.6493355 22.034,8.216 C21.6006645,7.7826645 21.0893363,7.566 20.5,7.566 L20.188,7.618 C19.8933319,6.56066138 19.3950035,5.62033745 18.693,4.797 C17.9909965,3.97366255 17.1373384,3.33233563 16.132,2.873 C15.1266616,2.41366437 14.0606723,2.184 12.934,2.184 C11.8073277,2.184 10.7413384,2.41366437 9.736,2.873 C8.73066164,3.33233563 7.87700351,3.97366255 7.175,4.797 C6.47299649,5.62033745 5.97466814,6.56066138 5.68,7.618 L5.368,7.566 C4.77866372,7.566 4.2673355,7.7826645 3.834,8.216 C3.4006645,8.6493355 3.184,9.16066372 3.184,9.75 C3.184,10.3393363 3.4006645,10.8506645 3.834,11.284 C4.2673355,11.7173355 4.77866372,11.934 5.368,11.934 L5.68,11.882 C5.97466814,12.9220052 6.47299649,13.8536625 7.175,14.677 C7.87700351,15.5003374 8.73066164,16.1459977 9.736,16.614 C10.7413384,17.0820023 11.8073277,17.316 12.934,17.316 Z M24.764,10.452 C24.6253326,11.2666707 24.287336,11.9903302 23.75,12.623 C23.212664,13.2556698 22.5540039,13.6846655 21.774,13.91 C21.2886642,14.9326718 20.612671,15.8599958 19.746,16.692 C18.8446622,17.558671 17.8306723,18.2346642 16.704,18.72 C15.4906606,19.2400026 14.2340065,19.5 12.934,19.5 C11.6339935,19.5 10.386006,19.2400026 9.19,18.72 C8.0633277,18.2346642 7.05800442,17.5673376 6.174,16.718 C5.28999558,15.8686624 4.61400234,14.9326718 4.146,13.91 C3.3659961,13.6846655 2.69433615,13.2556698 2.131,12.623 C1.56766385,11.9903302 1.22533394,11.2666707 1.104,10.452 C1.03466632,10.1746653 1,9.93200104 1,9.724 C1,9.51599896 1.03466632,9.29066788 1.104,9.048 C1.22533394,8.23332926 1.56766385,7.50966983 2.131,6.877 C2.69433615,6.24433017 3.3659961,5.81533446 4.146,5.59 C4.7526697,4.30732692 5.5326619,3.25867074 6.486,2.444 C7.352671,1.6639961 8.33632783,1.06166879 9.437,0.637 C10.5376722,0.21233121 11.7033272,0 12.934,0 C14.2513399,0 15.507994,0.25133082 16.704,0.754 C17.8306723,1.23933576 18.8359956,1.90666242 19.72,2.756 C20.5693376,3.58800416 21.2366642,4.53266138 21.722,5.59 C22.5020039,5.81533446 23.1736638,6.24433017 23.737,6.877 C24.3003361,7.50966983 24.6426661,8.23332926 24.764,9.048 C24.8333337,9.29066788 24.868,9.51599896 24.868,9.724 C24.868,9.93200104 24.8333337,10.1746653 24.764,10.452 Z M8.878,8.112 C8.878,7.73066476 9.01233199,7.4100013 9.281,7.15 C9.54966801,6.8899987 9.87466476,6.76 10.256,6.76 C10.6373352,6.76 10.9493321,6.8899987 11.192,7.15 C11.4346679,7.4100013 11.556,7.73066476 11.556,8.112 C11.556,8.49333524 11.4303346,8.81833199 11.179,9.087 C10.9276654,9.35566801 10.6156685,9.49 10.243,9.49 C9.87033147,9.49 9.54966801,9.35566801 9.281,9.087 C9.01233199,8.81833199 8.878,8.49333524 8.878,8.112 Z M14.312,8.112 C14.312,7.73066476 14.4376654,7.4100013 14.689,7.15 C14.9403346,6.8899987 15.2566648,6.76 15.638,6.76 C16.0193352,6.76 16.3399987,6.8899987 16.6,7.15 C16.8600013,7.4100013 16.99,7.73066476 16.99,8.112 C16.99,8.49333524 16.8600013,8.81833199 16.6,9.087 C16.3399987,9.35566801 16.0193352,9.49 15.638,9.49 C15.2566648,9.49 14.9403346,9.3600013 14.689,9.1 C14.4376654,8.8399987 14.312,8.51066866 14.312,8.112 Z" id="Illustration_Joinus_Proactive"></path>
                    </g>
                </g>
            </g>
        </g>
    </g>
</svg>