<svg width="24" height="20" xmlns="http://www.w3.org/2000/svg"><path d="M7.072 11.934h9.75a5.317 5.317 0 0 1-1.95 2.353 5.13 5.13 0 0 1-2.938.897 5.07 5.07 0 0 1-2.925-.897 5.346 5.346 0 0 1-1.937-2.353zm4.862 5.382a7.487 7.487 0 0 0 3.198-.702 7.456 7.456 0 0 0 2.561-1.937 7.345 7.345 0 0 0 1.495-2.795l.312.052c.59 0 1.1-.217 1.534-.65.433-.433.65-.945.65-1.534 0-.59-.217-1.1-.65-1.534-.433-.433-.945-.65-1.534-.65l-.312.052a7.325 7.325 0 0 0-1.495-2.821 7.316 7.316 0 0 0-2.561-1.924 7.605 7.605 0 0 0-3.198-.689c-1.127 0-2.193.23-3.198.689a7.316 7.316 0 0 0-2.561 1.924A7.325 7.325 0 0 0 4.68 7.618l-.312-.052c-.59 0-1.1.217-1.534.65-.433.433-.65.945-.65 1.534 0 .59.217 1.1.65 1.534.433.433.945.65 1.534.65l.312-.052a7.345 7.345 0 0 0 1.495 2.795 7.456 7.456 0 0 0 2.561 1.937 7.487 7.487 0 0 0 3.198.702zm11.83-6.864a4.45 4.45 0 0 1-1.014 2.171 4.001 4.001 0 0 1-1.976 1.287 9.473 9.473 0 0 1-2.028 2.782 10.157 10.157 0 0 1-3.042 2.028c-1.213.52-2.47.78-3.77.78-1.3 0-2.548-.26-3.744-.78a10.067 10.067 0 0 1-3.016-2.002c-.884-.85-1.56-1.785-2.028-2.808a4.229 4.229 0 0 1-2.015-1.287 4.117 4.117 0 0 1-1.027-2.171A3.056 3.056 0 0 1 0 9.724c0-.208.035-.433.104-.676a4.117 4.117 0 0 1 1.027-2.171A4.229 4.229 0 0 1 3.146 5.59c.607-1.283 1.387-2.331 2.34-3.146A9.466 9.466 0 0 1 8.437.637 9.63 9.63 0 0 1 11.934 0c1.317 0 2.574.251 3.77.754a10.067 10.067 0 0 1 3.016 2.002 9.471 9.471 0 0 1 2.002 2.834c.78.225 1.452.654 2.015 1.287a4.117 4.117 0 0 1 1.027 2.171c.07.243.104.468.104.676 0 .208-.035.45-.104.728zM7.878 8.112c0-.381.134-.702.403-.962s.594-.39.975-.39.693.13.936.39c.243.26.364.58.364.962 0 .381-.126.706-.377.975a1.23 1.23 0 0 1-.936.403c-.373 0-.693-.134-.962-.403a1.328 1.328 0 0 1-.403-.975zm5.434 0c0-.381.126-.702.377-.962s.568-.39.949-.39.702.13.962.39.39.58.39.962c0 .381-.13.706-.39.975s-.58.403-.962.403c-.381 0-.698-.13-.949-.39s-.377-.59-.377-.988z" fill="#A781FF" fill-rule="evenodd"/></svg>