<svg width="378" height="481" viewBox="0 0 378 481" xmlns="http://www.w3.org/2000/svg"><title>Illustration_Home_network@1x</title><defs><linearGradient x1="14.958%" y1="0%" x2="116.401%" y2="127.873%" id="a"><stop stop-color="#E9F2F4" offset="0%"/><stop stop-color="#F7F8F9" offset="100%"/><stop stop-color="#00EFE2" offset="100%"/></linearGradient><linearGradient x1="108.433%" y1="24.117%" x2="3.151%" y2="123.123%" id="b"><stop stop-color="#E9F2F4" offset="0%"/><stop stop-color="#E7EFEE" offset="100%"/></linearGradient><linearGradient x1="14.958%" y1="0%" y2="68.041%" id="c"><stop stop-color="#00C7E4" offset="0%"/><stop stop-color="#00EFE2" offset="100%"/><stop stop-color="#00EFE2" offset="100%"/></linearGradient><linearGradient x1="14.958%" y1="0%" x2="116.401%" y2="127.873%" id="d"><stop stop-color="#00C7E4" offset="0%"/><stop stop-color="#00EFE2" offset="100%"/><stop stop-color="#00EFE2" offset="100%"/></linearGradient><linearGradient x1="11.355%" y1="113.983%" x2="92.101%" y2="-28.273%" id="e"><stop stop-color="#0B0B0A" offset="0%"/><stop stop-color="#464F51" offset="100%"/></linearGradient></defs><g transform="translate(1)" fill="none" fill-rule="evenodd"><g fill-rule="nonzero"><path fill="url(#a)" d="M375.775 108.767l-.04 7.603-187.254 108.77L0 116.37l.04-7.603L187.295 0z" transform="translate(0 234.987)"/><path fill="url(#b)" d="M375.775 108.839l-.04 7.603L188.482 225.21l.039-7.603z" transform="translate(0 234.987)"/><path fill-opacity=".123" fill="#000" d="M188.52 452.595l-.04 7.603L0 351.43l.04-7.603z"/></g><g fill-rule="nonzero"><path fill="url(#c)" opacity=".347" d="M375.775 108.767l-.04 7.603-187.254 108.77L0 116.37l.04-7.603L187.295 0z" transform="translate(0 169.318)"/><path fill="url(#d)" opacity=".43" d="M376.094 108.537l-.04 7.603L188.8 224.91l.039-7.604z" transform="translate(0 169.318)"/><path fill="url(#d)" d="M188.52 217.608l-.04 7.603L0 116.443l.04-7.603z" transform="translate(0 169.318)"/></g><g fill-rule="nonzero"><path fill-opacity=".17" fill="#DCDCDC" d="M375.775 208.767l-.04 7.603-187.254 108.77L0 216.37l.04-7.603L187.295 100z"/><path fill-opacity=".123" fill="#666" d="M375.775 208.839l-.04 7.603L188.482 325.21l.039-7.603z"/><path fill-opacity=".123" fill="#000" d="M188.52 317.608l-.04 7.603L0 216.443l.04-7.603z"/></g><g fill-rule="nonzero"><path stroke="url(#e)" opacity=".31" d="M375.775 108.767l-.04 7.603-187.254 108.77L0 116.37l.04-7.603L187.295 0z" transform="translate(0 31.318)"/><path stroke="#717171" fill="url(#a)" opacity=".221" d="M376.094 108.537l-.04 7.603L188.8 224.91l.039-7.604zM188.52 217.608l-.04 7.603L0 116.443l.04-7.603z" transform="translate(0 31.318)"/></g><path d="M187.902 148.395v311.738" stroke="#000" opacity=".105"/><path d="M187.902 459.605v20.528M187.902.395v143.738" stroke="#000" opacity=".5"/><circle fill="url(#e)" cx="188.09" cy="144.09" r="2.09"/><circle fill="url(#e)" opacity=".195" cx="188.09" cy="212.09" r="2.09"/><circle fill="url(#e)" opacity=".195" cx="188.09" cy="282.09" r="2.09"/><circle fill="url(#e)" opacity=".195" cx="188.09" cy="347.09" r="2.09"/></g></svg>