<svg width="16" height="16" viewBox="0 0 16 16" xmlns="http://www.w3.org/2000/svg"><title>Icon_ github_dark Copy</title><path d="M7.714.857a7.716 7.716 0 0 1 2.441 15.037c-.392.07-.532-.17-.532-.372 0-.25.01-1.085.01-2.12 0-.722-.241-1.184-.522-1.425 1.717-.191 3.525-.844 3.525-3.807 0-.844-.301-1.527-.793-2.07.08-.2.341-.984-.08-2.049-.644-.2-2.12.794-2.12.794a7.263 7.263 0 0 0-3.857 0s-1.477-.995-2.12-.794c-.422 1.065-.16 1.849-.08 2.05a2.988 2.988 0 0 0-.794 2.069c0 2.953 1.798 3.616 3.516 3.807-.22.2-.422.542-.492 1.034-.442.201-1.567.543-2.24-.643-.422-.733-1.185-.793-1.185-.793-.754-.01-.05.472-.05.472.502.23.853 1.125.853 1.125.452 1.376 2.602.914 2.602.914 0 .643.01 1.245.01 1.436 0 .201-.14.442-.533.372A7.716 7.716 0 0 1 7.713.857zm-4.791 11.08c-.02.04-.08.05-.13.02-.06-.03-.091-.08-.07-.121.02-.03.07-.04.13-.02.06.03.09.08.07.12zm.311.34c-.04.041-.11.021-.16-.03-.05-.06-.06-.13-.02-.16.04-.04.11-.02.16.03.05.06.06.13.02.16zm.302.453c-.04.03-.12 0-.171-.07-.05-.07-.05-.151 0-.181.05-.04.13-.01.17.06.05.07.05.15 0 .19zm.422.422c-.04.05-.131.04-.201-.03-.07-.06-.09-.151-.04-.191.04-.05.13-.04.2.03.06.06.08.15.04.19zm.572.25c-.02.061-.11.091-.19.061-.091-.02-.151-.09-.131-.15.02-.06.11-.09.19-.07.091.03.151.1.131.16zm.633.051c0 .06-.07.11-.16.11-.101.01-.172-.04-.172-.11 0-.06.07-.11.161-.11.09-.01.171.04.171.11zm.583-.1c.01.06-.05.12-.141.14-.09.02-.17-.02-.18-.08-.01-.07.05-.13.14-.15.09-.01.17.03.18.09z" fill="#B3B3B3" fill-rule="evenodd"/></svg>