<?xml version="1.0" encoding="UTF-8"?>
<svg width="16px" height="16px" viewBox="0 0 16 16" version="1.1" xmlns="http://www.w3.org/2000/svg" xmlns:xlink="http://www.w3.org/1999/xlink">
    <!-- Generator: Sketch 47.1 (45422) - http://www.bohemiancoding.com/sketch -->
    <title>Icon_ github_dark Copy</title>
    <desc>Created with Sketch.</desc>
    <defs></defs>
    <g id="Website" stroke="none" stroke-width="1" fill="none" fill-rule="evenodd">
        <g id="About--Desktop-1170px" transform="translate(-311.000000, -2474.000000)" fill="#B3B3B3">
            <g id="//Content" transform="translate(-318.000000, 0.000000)">
                <g id="Team" transform="translate(318.000000, 2032.000000)">
                    <g id="member" transform="translate(149.000000, 204.000000)">
                        <g id="Icons" transform="translate(81.000000, 238.000000)">
                            <path d="M88.7142949,0.857125998 C92.9732286,0.857125998 96.4285898,4.31248726 96.4285898,8.57142091 C96.4285898,11.9765589 94.2187658,14.8694195 91.155146,15.8939743 C90.7634045,15.9642869 90.6227793,15.7232151 90.6227793,15.5223221 C90.6227793,15.2712057 90.632824,14.4374993 90.632824,13.4028999 C90.632824,12.6796847 90.3917523,12.2176306 90.1105019,11.9765589 C91.8281379,11.7857105 93.6361758,11.1328079 93.6361758,8.16963471 C93.6361758,7.32588371 93.3348361,6.64284718 92.842648,6.10043582 C92.9230053,5.89954272 93.1841663,5.11605965 92.7622908,4.05132623 C92.1194329,3.85043314 90.6428686,4.84485397 90.6428686,4.84485397 C90.0301447,4.67409483 89.3671975,4.58369294 88.7142949,4.58369294 C88.0613923,4.58369294 87.3984451,4.67409483 86.7857212,4.84485397 C86.7857212,4.84485397 85.3091569,3.85043314 84.666299,4.05132623 C84.2444235,5.11605965 84.5055845,5.89954272 84.5859418,6.10043582 C84.0937537,6.64284718 83.792414,7.32588371 83.792414,8.16963471 C83.792414,11.1227632 85.5904073,11.7857105 87.3080432,11.9765589 C87.0870608,12.177452 86.8861677,12.5189703 86.8158551,13.0111583 C86.3738903,13.2120514 85.248889,13.5535697 84.5758971,12.3683004 C84.1540216,11.6350406 83.3906278,11.5747727 83.3906278,11.5747727 C82.6372787,11.564728 83.3404046,12.0468715 83.3404046,12.0468715 C83.8426373,12.2778985 84.1942002,13.1718728 84.1942002,13.1718728 C84.6462097,14.5479905 86.7957658,14.0859364 86.7957658,14.0859364 C86.7957658,14.7287943 86.8058105,15.3314736 86.8058105,15.5223221 C86.8058105,15.7232151 86.6651853,15.9642869 86.2734438,15.8939743 C83.2098241,14.8694195 81,11.9765589 81,8.57142091 C81,4.31248726 84.4553613,0.857125998 88.7142949,0.857125998 Z M83.9229946,11.9363803 C83.9029052,11.9765589 83.8426373,11.9866036 83.792414,11.9564696 C83.7321461,11.9263356 83.7020121,11.8761123 83.7221015,11.8359337 C83.7421908,11.8057998 83.792414,11.7957551 83.852682,11.8158444 C83.9129499,11.8459784 83.9430839,11.8962017 83.9229946,11.9363803 Z M84.2343789,12.2778985 C84.1942002,12.3180772 84.1238877,12.2979879 84.0736644,12.2477646 C84.0234411,12.1874966 84.0133964,12.1171841 84.0535751,12.0870501 C84.0937537,12.0468715 84.1640663,12.0669608 84.2142895,12.1171841 C84.2645128,12.177452 84.2745575,12.2477646 84.2343789,12.2778985 Z M84.5357185,12.729908 C84.4955399,12.760042 84.4151826,12.729908 84.3649594,12.6595954 C84.3147361,12.5892828 84.3147361,12.5089256 84.3649594,12.4787916 C84.4151826,12.438613 84.4955399,12.468747 84.5357185,12.5390596 C84.5859418,12.6093722 84.5859418,12.6897294 84.5357185,12.729908 Z M84.957594,13.1517835 C84.9174154,13.2020068 84.8270135,13.1919621 84.7567009,13.1216495 C84.6863883,13.0613816 84.666299,12.9709797 84.7165223,12.9308011 C84.7567009,12.8805778 84.8471028,12.8906225 84.9174154,12.9609351 C84.9776833,13.021203 84.9977726,13.1116049 84.957594,13.1517835 Z M85.5301393,13.4028999 C85.51005,13.4631678 85.4196481,13.4933018 85.3392909,13.4631678 C85.248889,13.4430785 85.1886211,13.3727659 85.2087104,13.312498 C85.2287997,13.2522301 85.3192016,13.2220961 85.3995588,13.2421854 C85.4899607,13.2723194 85.5502286,13.342632 85.5301393,13.4028999 Z M86.1629526,13.4531232 C86.1629526,13.5133911 86.09264,13.5636144 86.0022381,13.5636144 C85.9017916,13.573659 85.831479,13.5234357 85.831479,13.4531232 C85.831479,13.3928552 85.9017916,13.342632 85.9921935,13.342632 C86.0825953,13.3325873 86.1629526,13.3828106 86.1629526,13.4531232 Z M86.7455426,13.3526766 C86.7555872,13.4129445 86.6953193,13.4732125 86.6049174,13.4933018 C86.5145155,13.5133911 86.4341583,13.4732125 86.4241136,13.4129445 C86.414069,13.342632 86.4743369,13.282364 86.5647388,13.2622747 C86.6551407,13.2522301 86.7354979,13.2924087 86.7455426,13.3526766 Z" id="Icon_-github_dark-Copy"></path>
                        </g>
                    </g>
                </g>
            </g>
        </g>
    </g>
</svg>