<svg width="18" height="17" viewBox="0 0 18 17" xmlns="http://www.w3.org/2000/svg"><title>Icon_ medium Copy 2@1x</title><path d="M5.997 3.8c0-.01-.02-.04-.03-.05L.834 1.179c-.14-.07-.282-.151-.442-.151-.271 0-.392.23-.392.482v11.45c0 .302.221.664.502.805l4.671 2.34c.1.05.21.08.331.08.342 0 .493-.291.493-.602V3.8zm.643 1.015l5.363 8.698-5.363-2.671V4.815zm11.36.18v10.588c0 .331-.19.562-.522.562a.951.951 0 0 1-.472-.13l-4.43-2.21L18 4.995zm-.03-1.205c0 .04-5.193 8.468-5.595 9.11L8.458 6.533l3.254-5.293a.606.606 0 0 1 .522-.281c.09 0 .181.02.262.06L17.93 3.73c.02.01.04.03.04.06z" fill="#46F2A0" fill-rule="evenodd"/></svg>