<svg width="17" height="17" xmlns="http://www.w3.org/2000/svg"><path d="M17,2.8c-0.6,0.3-1.3,0.5-2,0.5c0.7-0.4,1.3-1.1,1.5-1.9c-0.7,0.4-1.4,0.7-2.2,0.8c-0.7-0.7-1.6-1.1-2.5-1.1
	c-1.9,0-3.5,1.6-3.5,3.5c0,0,0,0,0,0c0,0.3,0,0.5,0.1,0.8C5.6,5.3,3,4,1.2,1.8C0.9,2.3,0.7,2.9,0.7,3.5c0,1.2,0.6,2.2,1.5,2.9
	C1.7,6.4,1.2,6.3,0.7,6v0c0,1.7,1.2,3.1,2.8,3.4C3.2,9.5,2.9,9.6,2.6,9.6c-0.2,0-0.4,0-0.7-0.1c0.5,1.4,1.8,2.4,3.2,2.4
	c-1.2,1-2.7,1.5-4.3,1.5c-0.3,0-0.6,0-0.8,0c1.6,1,3.4,1.6,5.3,1.6c6.4,0,9.9-5.3,9.9-9.9c0-0.1,0-0.3,0-0.5
	C15.9,4.1,16.5,3.5,17,2.8z" fill="#00CAE4" fill-rule="evenodd"/></svg>
