<?xml version="1.0" encoding="UTF-8"?>
<svg width="17px" height="13px" viewBox="0 0 17 13" version="1.1" xmlns="http://www.w3.org/2000/svg" xmlns:xlink="http://www.w3.org/1999/xlink">
    <!-- Generator: Sketch 47.1 (45422) - http://www.bohemiancoding.com/sketch -->
    <title>Icon_ twitter</title>
    <desc>Created with Sketch.</desc>
    <defs></defs>
    <g id="Website" stroke="none" stroke-width="1" fill="none" fill-rule="evenodd">
        <g id="About--Desktop-1170px" transform="translate(-271.000000, -2476.000000)" fill="#00CAE4">
            <g id="//Content" transform="translate(-318.000000, 0.000000)">
                <g id="Team" transform="translate(318.000000, 2032.000000)">
                    <g id="member" transform="translate(149.000000, 204.000000)">
                        <g id="Icons" transform="translate(81.000000, 238.000000)">
                            <path d="M57.2723408,3.66962935 C56.6897508,3.92074572 56.0569376,4.10154951 55.404035,4.17186209 C56.0770269,3.7700759 56.5893043,3.13726264 56.830376,2.38391353 C56.2076074,2.75556576 55.5044816,3.02677144 54.7712218,3.16739661 C54.1785871,2.53458335 53.3348361,2.14284182 52.4006832,2.14284182 C50.60269,2.14284182 49.1562597,3.59931677 49.1562597,5.38726533 C49.1562597,5.6383817 49.1863937,5.88949807 49.236617,6.13056978 C46.5446495,5.98994462 44.143977,4.7042288 42.5468768,2.73547645 C42.2656265,3.21761988 42.104912,3.7700759 42.104912,4.37275519 C42.104912,5.49775653 42.6774574,6.49217736 43.5513423,7.07476734 C43.0189756,7.05467803 42.5167429,6.90400821 42.0848227,6.66293649 L42.0848227,6.70311511 C42.0848227,8.28012592 43.1997794,9.58593105 44.6863883,9.88727069 C44.4151826,9.95758327 44.1238877,9.99776189 43.8325927,9.99776189 C43.6216549,9.99776189 43.4207618,9.97767258 43.2198687,9.94753862 C43.6316996,11.2332544 44.8270135,12.1674073 46.2533545,12.1975413 C45.1383978,13.0714263 43.7421908,13.5837037 42.2254479,13.5837037 C41.9542422,13.5837037 41.7031258,13.573659 41.4419648,13.543525 C42.8783505,14.4676333 44.5859418,15 46.4241136,15 C52.3906386,15 55.6551514,10.0580298 55.6551514,5.76896221 C55.6551514,5.62833704 55.6551514,5.48771187 55.6451067,5.34708671 C56.27792,4.88503258 56.830376,4.31248726 57.2723408,3.66962935 Z" id="Icon_-twitter"></path>
                        </g>
                    </g>
                </g>
            </g>
        </g>
    </g>
</svg>