<svg width="17" height="13" viewBox="0 0 17 13" xmlns="http://www.w3.org/2000/svg"><title>Icon_ twitter</title><path d="M16.272 1.67a6.505 6.505 0 0 1-1.868.502A3.236 3.236 0 0 0 15.83.384a6.387 6.387 0 0 1-2.059.783 3.237 3.237 0 0 0-2.37-1.024 3.243 3.243 0 0 0-3.245 3.244c0 .251.03.502.08.744A9.222 9.222 0 0 1 1.547.735a3.22 3.22 0 0 0-.441 1.638 3.24 3.24 0 0 0 1.446 2.702 3.268 3.268 0 0 1-1.466-.412v.04a3.245 3.245 0 0 0 2.601 3.184 3.43 3.43 0 0 1-.853.11 4.11 4.11 0 0 1-.613-.05 3.25 3.25 0 0 0 3.033 2.25 6.498 6.498 0 0 1-4.028 1.387c-.27 0-.522-.01-.783-.04A9.168 9.168 0 0 0 5.424 13c5.967 0 9.231-4.942 9.231-9.231 0-.14 0-.281-.01-.422a6.975 6.975 0 0 0 1.627-1.677z" fill="#00CAE4" fill-rule="evenodd"/></svg>