<svg width="1440" height="384" xmlns="http://www.w3.org/2000/svg" xmlns:xlink="http://www.w3.org/1999/xlink"><use xlink:href="#a" transform="translate(-329 113)" fill="url(#b)"/><use xlink:href="#c" transform="translate(-167 -95.5)" fill="url(#d)" opacity=".446"/><use xlink:href="#c" transform="translate(650 -95.5)" fill="url(#e)" opacity=".446"/><use xlink:href="#a" transform="translate(104 -211)" fill="url(#f)" opacity=".446"/><use xlink:href="#a" transform="translate(1079 -58)" fill="url(#g)"/><g opacity=".327"><use xlink:href="#h" transform="translate(100.78 162.78)" fill="#B3B3B3" filter="url(#i)"/><use xlink:href="#j" transform="translate(102 164)" fill="#717171"/></g><g opacity=".186" fill="#FFF"><use xlink:href="#h" transform="translate(254.78 311.78)" filter="url(#k)"/><use xlink:href="#j" transform="translate(256 313)"/></g><use xlink:href="#h" transform="translate(1075.78 315.78)" fill="#FFF" filter="url(#l)"/><use xlink:href="#j" transform="translate(1077 317)" fill="#FFF"/><defs><filter id="i" filterUnits="userSpaceOnUse" x="1390" y="2785" width="16" height="16" color-interpolation-filters="sRGB"><feFlood flood-opacity="0" result="BackgroundImageFix"/><feBlend in="SourceGraphic" in2="BackgroundImageFix" result="shape"/><feGaussianBlur stdDeviation="2.283" result="effect1_foregroundBlur"/></filter><filter id="k" filterUnits="userSpaceOnUse" x="1544" y="2934" width="16" height="16" color-interpolation-filters="sRGB"><feFlood flood-opacity="0" result="BackgroundImageFix"/><feBlend in="SourceGraphic" in2="BackgroundImageFix" result="shape"/><feGaussianBlur stdDeviation="2.283" result="effect1_foregroundBlur"/></filter><filter id="l" filterUnits="userSpaceOnUse" x="2365" y="2938" width="16" height="16" color-interpolation-filters="sRGB"><feFlood flood-opacity="0" result="BackgroundImageFix"/><feBlend in="SourceGraphic" in2="BackgroundImageFix" result="shape"/><feGaussianBlur stdDeviation="2.283" result="effect1_foregroundBlur"/></filter><linearGradient id="b" x2="1" gradientUnits="userSpaceOnUse" gradientTransform="rotate(127.341 572.74 -91.282) scale(1214.424)"><stop offset="0" stop-color="#C8C8C8"/><stop offset="1" stop-color="#979797" stop-opacity=".01"/></linearGradient><linearGradient id="d" x2="1" gradientUnits="userSpaceOnUse" gradientTransform="matrix(0 521.378 -539.929 0 276.5 0)"><stop offset="0" stop-color="#C8C8C8"/><stop offset="1" stop-color="#979797" stop-opacity=".01"/></linearGradient><linearGradient id="e" x2="1" gradientUnits="userSpaceOnUse" gradientTransform="matrix(-317.379 -469.84 486.557 -306.474 527.238 516.434)"><stop offset="0" stop-color="#C8C8C8" stop-opacity=".01"/><stop offset="1" stop-color="#979797"/></linearGradient><linearGradient id="f" x2="1" gradientUnits="userSpaceOnUse" gradientTransform="matrix(-553.027 719.48 -719.48 -553.027 188.5 0)"><stop offset="0" stop-color="#C8C8C8" stop-opacity=".01"/><stop offset=".012" stop-color="#C7C7C7" stop-opacity=".012"/><stop offset="1" stop-color="#979797"/></linearGradient><linearGradient id="g" x2="1" gradientUnits="userSpaceOnUse" gradientTransform="rotate(139.449 221.596 81.951) scale(887.336)"><stop offset="0" stop-color="#C8C8C8" stop-opacity=".01"/><stop offset="1" stop-color="#979797"/></linearGradient><path id="a" d="M.146 376.146l-.353.354.707.707.354-.353-.708-.708zM377.208.499l.353-.353-.707-.707-.353.353.707.707zM.854 376.854L377.208.499l-.707-.707L.146 376.146l.708.708z"/><path id="c" d="M.847.14l-.36-.347-.694.72.36.347.694-.72zm551.306 533.72l.359.347.695-.719-.36-.348-.694.72zM.153.86l552 533 .694-.72-552-533-.694.72z"/><path id="h" fill-rule="evenodd" d="M3.216 6.432a3.216 3.216 0 1 0 0-6.432 3.216 3.216 0 0 0 0 6.432z"/><path id="j" fill-rule="evenodd" d="M2 4a2 2 0 1 0 0-4 2 2 0 0 0 0 4z"/></defs></svg>