<svg fill="none" height="137" viewBox="0 0 136 137" width="136" xmlns="http://www.w3.org/2000/svg" xmlns:xlink="http://www.w3.org/1999/xlink"><linearGradient id="a"><stop offset="0" stop-color="#82f0c5"/><stop offset="1" stop-color="#46c996"/></linearGradient><linearGradient id="b" gradientUnits="userSpaceOnUse" x1="-45.9784" x2="-75.1996" xlink:href="#a" y1="-147.526" y2="9.52102"/><linearGradient id="c" gradientUnits="userSpaceOnUse" x1="-152.683" x2="-144.374" xlink:href="#a" y1="17.1202" y2="154.451"/><path d="m132.055 98.5372c.005-21.1211-17.114-38.2472-38.23-38.2472-21.1361 0-38.2497 17.1298-38.2497 38.2522 0 21.1158 17.1224 38.2408 38.2497 38.2358h38.247z" fill="#fff"/><path d="m.0099628 42.9602c-.00124534 21.1236 17.1148372 38.2409 38.2384372 38.2472 21.1348-.0063 38.2447-17.1211 38.2447-38.2472s-17.1186-38.24843-38.2447-38.24096l-38.2484.00249z" fill="#fff"/><path d="m135.172 21.7637c0 12.0189-9.745 21.7625-21.763 21.7625-12.021 0-21.7641-9.7436-21.7641-21.7625 0-12.02008 9.7431-21.7637 21.7641-21.7637 12.018 0 21.763 9.74362 21.763 21.7637z" fill="url(#b)"/><path d="m39.5738 116.189c0 10.516-8.5319 19.044-19.0489 19.044-10.5157 0-19.03766-8.528-19.03766-19.044 0-10.513 8.52196-19.0425 19.03886-19.0425 10.517 0 19.0477 8.5295 19.0477 19.0425z" fill="url(#c)"/></svg>