<svg width="136" height="137" viewBox="0 0 136 137" fill="none" xmlns="http://www.w3.org/2000/svg">
<path d="M132.055 98.5372C132.06 77.4161 114.941 60.29 93.825 60.29C72.6889 60.29 55.5753 77.4198 55.5753 98.5422C55.5753 119.658 72.6977 136.783 93.825 136.778H132.072L132.055 98.5372Z" fill="white"/>
<path d="M0.0099628 42.9602C0.00871746 64.0838 17.1248 81.2011 38.2484 81.2074C59.3832 81.2011 76.4931 64.0863 76.4931 42.9602C76.4931 21.8341 59.3745 4.71177 38.2484 4.71924L0 4.72173L0.0099628 42.9602Z" fill="white"/>
<path d="M135.172 21.7637C135.172 33.7826 125.427 43.5262 113.409 43.5262C101.388 43.5262 91.6449 33.7826 91.6449 21.7637C91.6449 9.74362 101.388 0 113.409 0C125.427 0 135.172 9.74362 135.172 21.7637Z" fill="url(#paint0_linear)"/>
<path d="M39.5738 116.189C39.5738 126.705 31.0419 135.233 20.5249 135.233C10.0092 135.233 1.48724 126.705 1.48724 116.189C1.48724 105.676 10.0092 97.1465 20.5261 97.1465C31.0431 97.1465 39.5738 105.676 39.5738 116.189Z" fill="url(#paint1_linear)"/>
<defs>
<linearGradient id="paint0_linear" x1="-45.9784" y1="-147.526" x2="-75.1996" y2="9.52102" gradientUnits="userSpaceOnUse">
<stop stop-color="#82F0C5"/>
<stop offset="1" stop-color="#46C996"/>
</linearGradient>
<linearGradient id="paint1_linear" x1="-152.683" y1="17.1202" x2="-144.374" y2="154.451" gradientUnits="userSpaceOnUse">
<stop stop-color="#82F0C5"/>
<stop offset="1" stop-color="#46C996"/>
</linearGradient>
</defs>
</svg>
