<svg fill="none" height="24" viewBox="0 0 24 24" width="24" xmlns="http://www.w3.org/2000/svg" xmlns:xlink="http://www.w3.org/1999/xlink"><filter id="a" color-interpolation-filters="sRGB" filterUnits="userSpaceOnUse" height="27.8154" width="27.5425" x="-6.53408" y="-.348046"><feFlood flood-opacity="0" result="BackgroundImageFix"/><feBlend in="SourceGraphic" in2="BackgroundImageFix" mode="normal" result="shape"/><feGaussianBlur result="effect1_foregroundBlur" stdDeviation="6.3"/></filter><filter id="b" color-interpolation-filters="sRGB" filterUnits="userSpaceOnUse" height="12.5378" width="12.5245" x="2.6225" y="8.67529"><feFlood flood-opacity="0" result="BackgroundImageFix"/><feColorMatrix in="SourceAlpha" type="matrix" values="0 0 0 0 0 0 0 0 0 0 0 0 0 0 0 0 0 0 127 0"/><feOffset dy="3"/><feGaussianBlur stdDeviation="2.5"/><feColorMatrix type="matrix" values="0 0 0 0 0.0784314 0 0 0 0 0.12549 0 0 0 0 0.180392 0 0 0 0.457687 0"/><feBlend in2="BackgroundImageFix" mode="normal" result="effect1_dropShadow"/><feBlend in="SourceGraphic" in2="effect1_dropShadow" mode="normal" result="shape"/></filter><filter id="c" color-interpolation-filters="sRGB" filterUnits="userSpaceOnUse" height="26.518" width="24.2004" x="-.141138" y="2.22568"><feFlood flood-opacity="0" result="BackgroundImageFix"/><feBlend in="SourceGraphic" in2="BackgroundImageFix" mode="normal" result="shape"/><feGaussianBlur result="effect1_foregroundBlur" stdDeviation="4.05"/></filter><filter id="d" color-interpolation-filters="sRGB" filterUnits="userSpaceOnUse" height="26.518" width="24.2004" x="-.141138" y="2.22568"><feFlood flood-opacity="0" result="BackgroundImageFix"/><feBlend in="SourceGraphic" in2="BackgroundImageFix" mode="normal" result="shape"/><feGaussianBlur result="effect1_foregroundBlur" stdDeviation="4.05"/></filter><filter id="e" color-interpolation-filters="sRGB" filterUnits="userSpaceOnUse" height="17.3338" width="17.2896" x="3.43439" y="-1.6084"><feFlood flood-opacity="0" result="BackgroundImageFix"/><feBlend in="SourceGraphic" in2="BackgroundImageFix" mode="normal" result="shape"/><feGaussianBlur result="effect1_foregroundBlur" stdDeviation="2.25"/></filter><filter id="f" color-interpolation-filters="sRGB" filterUnits="userSpaceOnUse" height="8.6434" width="11.6604" x="5.23335" y="3.15156"><feFlood flood-opacity="0" result="BackgroundImageFix"/><feBlend in="SourceGraphic" in2="BackgroundImageFix" mode="normal" result="shape"/><feGaussianBlur result="effect1_foregroundBlur" stdDeviation="1.35"/></filter><filter id="g" color-interpolation-filters="sRGB" filterUnits="userSpaceOnUse" height="16.9245" width="14.7484" x="9.52983" y="11.1775"><feFlood flood-opacity="0" result="BackgroundImageFix"/><feBlend in="SourceGraphic" in2="BackgroundImageFix" mode="normal" result="shape"/><feGaussianBlur result="effect1_foregroundBlur" stdDeviation="3.15"/></filter><filter id="h" color-interpolation-filters="sRGB" filterUnits="userSpaceOnUse" height="10.4786" width="9.09161" x="1.30753" y="10.3238"><feFlood flood-opacity="0" result="BackgroundImageFix"/><feBlend in="SourceGraphic" in2="BackgroundImageFix" mode="normal" result="shape"/><feGaussianBlur result="effect1_foregroundBlur" stdDeviation="1.8"/></filter><filter id="i" color-interpolation-filters="sRGB" filterUnits="userSpaceOnUse" height="26.5948" width="24.4168" x="4.69531" y="9.3457"><feFlood flood-opacity="0" result="BackgroundImageFix"/><feColorMatrix in="SourceAlpha" type="matrix" values="0 0 0 0 0 0 0 0 0 0 0 0 0 0 0 0 0 0 127 0"/><feOffset dy="3"/><feGaussianBlur stdDeviation="5.5"/><feColorMatrix type="matrix" values="0 0 0 0 0.0784314 0 0 0 0 0.12549 0 0 0 0 0.180392 0 0 0 0.967412 0"/><feBlend in2="BackgroundImageFix" mode="normal" result="effect1_dropShadow"/><feBlend in="SourceGraphic" in2="effect1_dropShadow" mode="normal" result="shape"/></filter><filter id="j" color-interpolation-filters="sRGB" filterUnits="userSpaceOnUse" height="20.5948" width="18.4168" x="7.69531" y="9.3457"><feFlood flood-opacity="0" result="BackgroundImageFix"/><feBlend in="SourceGraphic" in2="BackgroundImageFix" mode="normal" result="shape"/><feGaussianBlur result="effect1_foregroundBlur" stdDeviation="4"/></filter><filter id="k" color-interpolation-filters="sRGB" filterUnits="userSpaceOnUse" height="11.4259" width="9.9956" x=".863342" y="11.8452"><feFlood flood-opacity="0" result="BackgroundImageFix"/><feColorMatrix in="SourceAlpha" type="matrix" values="0 0 0 0 0 0 0 0 0 0 0 0 0 0 0 0 0 0 127 0"/><feOffset dy="2"/><feGaussianBlur stdDeviation="2"/><feColorMatrix type="matrix" values="0 0 0 0 0.0784314 0 0 0 0 0.12549 0 0 0 0 0.180392 0 0 0 1 0"/><feBlend in2="BackgroundImageFix" mode="normal" result="effect1_dropShadow"/><feBlend in="SourceGraphic" in2="effect1_dropShadow" mode="normal" result="shape"/></filter><linearGradient id="l"><stop offset="0" stop-color="#52cae4" stop-opacity="0"/><stop offset="1" stop-color="#48d8f4"/></linearGradient><linearGradient id="m" gradientUnits="userSpaceOnUse" x1="5.94364" x2="5.94364" xlink:href="#l" y1="25.4418" y2="14.6814"/><linearGradient id="n" gradientUnits="userSpaceOnUse" x1="19.8025" x2="19.8025" xlink:href="#l" y1="18.93" y2="8.16963"/><linearGradient id="o" gradientUnits="userSpaceOnUse" x1="3.25833" x2="3.25833" xlink:href="#l" y1="15.9818" y2="5.22139"/><linearGradient id="p"><stop offset="0" stop-opacity="0"/><stop offset="1" stop-color="#48d8f4"/></linearGradient><linearGradient id="q" gradientUnits="userSpaceOnUse" x1="4.60323" x2="4.60323" xlink:href="#p" y1="21.9507" y2="3.6066"/><linearGradient id="r" gradientUnits="userSpaceOnUse" x1="18.3985" x2="18.3985" xlink:href="#p" y1="22.0425" y2="3.81274"/><linearGradient id="s" gradientUnits="userSpaceOnUse" x1="11.8981" x2="11.8981" y1="17.1639" y2="7.18212"><stop offset="0"/><stop offset="1" stop-color="#48d8f4"/></linearGradient><linearGradient id="t" gradientUnits="userSpaceOnUse" x1="5.96065" x2="5.96065" xlink:href="#p" y1="21.7754" y2="3.4313"/><linearGradient id="u" gradientUnits="userSpaceOnUse" x1="8.88476" x2="4.10372" y1="12.0966" y2="14.3485"><stop offset="0" stop-color="#007a94"/><stop offset="1" stop-color="#35f7ee"/></linearGradient><linearGradient id="v"><stop offset="0" stop-color="#06bce5"/><stop offset="1" stop-color="#35f7ee"/></linearGradient><linearGradient id="w" gradientUnits="userSpaceOnUse" x1="12.5165" x2="12.5165" xlink:href="#v" y1="14.1857" y2="20.6437"/><linearGradient id="x" gradientUnits="userSpaceOnUse" x1="12.5165" x2="12.5165" y1="18.1363" y2="19.7842"><stop offset="0" stop-color="#06bce5" stop-opacity="0"/><stop offset="1" stop-color="#35f7ee"/></linearGradient><linearGradient id="y" gradientUnits="userSpaceOnUse" x1="11.5334" x2="14.7498" xlink:href="#v" y1="11.2178" y2="-2.20934"/><linearGradient id="z" gradientUnits="userSpaceOnUse" x1="11.5338" x2="12.9002" xlink:href="#v" y1="11.2178" y2="3.46856"/><linearGradient id="A"><stop offset="0" stop-color="#06bce5"/><stop offset="1" stop-color="#a9fffb"/></linearGradient><linearGradient id="B" gradientUnits="userSpaceOnUse" x1="14.7666" x2="17.7377" xlink:href="#A" y1="14.7311" y2="12.2857"/><linearGradient id="C" gradientUnits="userSpaceOnUse" x1="16.7602" x2="18.7928" xlink:href="#A" y1="20.5413" y2="17.1918"/><linearGradient id="D"><stop offset="0" stop-color="#039cbe"/><stop offset="1" stop-color="#a9fffb"/></linearGradient><linearGradient id="E" gradientUnits="userSpaceOnUse" x1="5.56195" x2="5.93973" xlink:href="#D" y1="16.3214" y2="13.5734"/><linearGradient id="F" gradientUnits="userSpaceOnUse" x1="16.8168" x2="18.0104" xlink:href="#A" y1="21.9405" y2="17.5771"/><linearGradient id="G" gradientUnits="userSpaceOnUse" x1="5.56463" x2="5.92225" xlink:href="#D" y1="16.3573" y2="13.4911"/><clipPath id="H"><path d="m0 0h24v24h-24z"/></clipPath><g clip-path="url(#H)"><rect fill="#14202e" height="24" rx="4" width="24"/><g clip-rule="evenodd" fill-rule="evenodd"><path d="m5.94361 15.9683c-.30511 0-.5525.2488-.5525.5554v19.4523h1.10501v-19.4523c0-.3066-.24729-.5554-.55251-.5554z" fill="url(#m)" opacity=".06"/><path d="m6.02481-1.93213v4.53673c-.77676.31346-1.51807.67135-2.21114 1.07395-1.71448.99501-2.961468 2.1581-3.7396344 3.39765v-4.53663c.7781664-1.24079 2.0251544-2.403971 3.7396344-3.398983.69307-.402597 1.43438-.760577 2.21114-1.072717z" fill="#51ffff" opacity=".065366"/><path d="m26.6225 2.03902v4.53673c-.7109-1.51738-2.0936-2.95054-4.1477-4.14179-.4867-.28274-.9974-.5426-1.5269-.78223v-4.53796c.5295.23944 1.0402.49949 1.5269.78223 2.0541 1.192481 3.4368 2.62573 4.1477 4.14302z" fill="#51ffff" opacity=".01584"/><path d="m19.8025 9.45654c-.3051 0-.5525.2488-.5525.55546v19.4523h1.105v-19.4523c0-.30666-.2473-.55546-.5525-.55546z" fill="url(#n)" opacity=".115327"/><path d="m3.25831 6.5083c-.30512 0-.5525.2488-.5525.55545v19.45225h1.105v-19.45225c0-.30665-.24729-.55545-.5525-.55545z" fill="url(#o)" opacity=".115327"/><path d="m4.6032 4.71826c-.08378 0-.15148.06816-.15148.15229v17.13085h.30305v-17.13085c0-.08413-.06789-.15229-.15157-.15229z" fill="url(#q)" opacity=".089239"/><path d="m18.3985 4.91748c-.1599 0-.2899.13045-.2899.29134v16.88398h.5797v-16.88398c0-.16089-.1298-.29134-.2898-.29134z" fill="url(#r)" opacity=".0036"/><path d="m11.8982 7.78711c-.0455 0-.0824.03687-.0824.08281v9.32148h.1647v-9.32148c0-.04594-.0368-.08281-.0823-.08281z" fill="url(#s)"/><path d="m5.96062 4.54297c-.08378 0-.15148.06815-.15148.15229v17.13084h.30305v-17.13084c0-.08414-.06789-.15229-.15157-.15229z" fill="url(#t)" opacity=".0009"/><path d="m8.00057 12.2519-1.93466 2.2405.40769.3749 1.93477-2.2406z" fill="#038cab"/></g><g filter="url(#a)" opacity=".187663"><path clip-rule="evenodd" d="m8.00057 12.2519-1.93466 2.2405.40769.3749 1.93477-2.2406z" fill="#038cab" fill-rule="evenodd"/></g><g filter="url(#b)"><path d="m7.6225 11.9443c0 .7007.565 1.2688 1.26212 1.2688.69711 0 1.26238-.5681 1.26238-1.2688 0-.7009-.56527-1.269-1.26238-1.269-.69712 0-1.26212.5681-1.26212 1.269z" fill="#000"/></g><path d="m7.6225 11.9443c0 .7007.565 1.2688 1.26212 1.2688.69711 0 1.26238-.5681 1.26238-1.2688 0-.7009-.56527-1.269-1.26238-1.269-.69712 0-1.26212.5681-1.26212 1.269z" fill="url(#u)"/><path clip-rule="evenodd" d="m11.9225 20.6437c1.1129 0 2.1156-.7485 3.0415-2.6353 1.2099-2.4656 1.1661-4.2511.6617-5.5994-.5041-1.3483-1.8859-2.0833-3.7121-2.0833-1.8263 0-3.20835.735-3.7126 2.0833-.50414 1.3483-.26907 4.2245 1.16176 6.4798.50978.8034 1.44694 1.7549 2.55974 1.7549z" fill="url(#w)" fill-rule="evenodd"/><g filter="url(#c)" opacity=".460403"><path clip-rule="evenodd" d="m11.9225 20.6437c1.1129 0 2.1157-.7485 3.0415-2.6353 1.2099-2.4656 1.1661-4.2511.6618-5.5994-.5042-1.3483-1.886-2.0833-3.7122-2.0833-1.8263 0-3.20835.735-3.7126 2.0833-.50414 1.3483-.26907 4.2245 1.16176 6.4798.50978.8034 1.44694 1.7549 2.55974 1.7549z" fill="url(#w)" fill-rule="evenodd"/></g><g filter="url(#d)" opacity=".460403"><path clip-rule="evenodd" d="m11.9225 20.6437c1.1129 0 2.1157-.7485 3.0415-2.6353 1.2099-2.4656 1.1661-4.2511.6618-5.5994-.5042-1.3483-1.886-2.0833-3.7122-2.0833-1.8263 0-3.20835.735-3.7126 2.0833-.50414 1.3483-.26907 4.2245 1.16176 6.4798.50978.8034 1.44694 1.7549 2.55974 1.7549z" fill="url(#x)" fill-rule="evenodd"/></g><g filter="url(#e)" opacity=".502069"><path clip-rule="evenodd" d="m12.0791 11.2254c-2.289 0-4.14471-1.86565-4.14471-4.16686 0-2.30141 1.85571-4.16694 4.14471-4.16694 2.2891 0 4.1449 1.86553 4.1449 4.16694 0 2.30121-1.8558 4.16686-4.1449 4.16686z" fill="url(#y)" fill-rule="evenodd"/></g><g filter="url(#f)"><path clip-rule="evenodd" d="m13.0525 9.06919c-1.392.0972-2.8713-.08059-3.94531-.53324-.32806-.13818-.74629-.45776-.9525-.62189-.23864-.38201-.22105-.64078-.22105-1.088 0-.3411.07851-.66868.22105-.9745.22003.21404.53737.41476.9525.58974 1.07401.45271 2.55331.63051 3.94531.5333.6078-.08059 1.1413.11023 1.1413.99928 0 .8418-.5501 1.01472-1.1413 1.09531z" fill="#fff" fill-rule="evenodd"/></g><path clip-rule="evenodd" d="m15.0726 11.4967c-.6886-.7635-1.8005-1.171-3.159-1.171-1.2383 0-2.27108.3389-2.96548.9767.7836.8521 1.90788 1.3865 3.15768 1.3865 1.1515 0 2.1962-.4543 2.9668-1.1922z" fill="#00a5ca" fill-rule="evenodd" opacity=".873628"/><path clip-rule="evenodd" d="m16.2243 7.05854c0 2.30121-1.8558 4.16686-4.1448 4.16686-2.28903 0-4.14475-1.86565-4.14475-4.16686 0-2.30141 1.85572-4.16694 4.14475-4.16694 2.289 0 4.1448 1.86553 4.1448 4.16694z" fill="url(#z)" fill-rule="evenodd"/><path clip-rule="evenodd" d="m13.0529 9.06919c-1.392.0972-2.8714-.08059-3.94535-.53324-.32806-.13818-.74628-.45776-.95248-.62189-.23864-.38201-.22106-.64078-.22106-1.088 0-.3411.07851-.66868.22106-.9745.22002.21404.53736.41476.95248.58974 1.07395.45272 2.55335.63051 3.94535.53331.6078-.08059 1.1412.11022 1.1412.99927 0 .8418-.55 1.01472-1.1412 1.09531z" fill="#fff" fill-rule="evenodd"/><path clip-rule="evenodd" d="m15.5619 13.0152c-.0001.6007-.4811 1.331-1.0743 1.6315-.5932.3003-1.0742.0569-1.0741-.5438 0-.6006.4811-1.331 1.0742-1.6315.5933-.3003 1.0742-.0569 1.0742.5438z" fill="#00a5ca" fill-rule="evenodd" opacity=".739258"/><path clip-rule="evenodd" d="m16.0321 14.8369 1.3499 3.2475-.6196.2607-1.35-3.2476z" fill="#038cab" fill-rule="evenodd"/><path clip-rule="evenodd" d="m16.7049 14.2029c0 .7009-.5651 1.269-1.2619 1.269-.6973 0-1.2623-.5681-1.2623-1.269s.565-1.2688 1.2623-1.2688c.6968 0 1.2619.5679 1.2619 1.2688z" fill="url(#B)" fill-rule="evenodd"/><path clip-rule="evenodd" d="m2.44621 15.5804c-.32214-.1584-.63563-.3243-.93745-.4995-.663925-.3857-1.2625-.8042-1.790742-1.2513l-.000001 4.6389c.625185.6772 1.424223 1.2999 2.378693 1.853.11471.0666.23149.1316.3495.1957z" fill="#51ffff" fill-rule="evenodd" opacity=".01"/><g filter="url(#g)" opacity=".501163"><path clip-rule="evenodd" d="m16.9041 17.6278c-.5932.351-1.0743 1.2045-1.0743 1.9061-.0001.6426.4027 2.2665.9258 2.2681h.002c.0478-.0002.0967-.014.1463-.0434.5933-.3508 1.0743-2.7936 1.0743-3.4955.0001-.4978-.2418-.7856-.5943-.7856-.1445.0001-.3074.0484-.4798.1503z" fill="url(#C)" fill-rule="evenodd"/></g><g filter="url(#h)" opacity=".309152"><path clip-rule="evenodd" d="m6.5835 14.2865c.28121.48.28834 1.2541.01592 1.7288-.24936.4348-1.16327 1.3689-1.53196 1.1561l-.00141-.0008c-.03357-.0197-.06256-.0489-.08608-.0891-.28125-.4799.32866-2.3293.6011-2.8042.19325-.3368.4752-.4326.72322-.2885.10158.0591.1975.1583.27921.2977z" fill="url(#E)" fill-rule="evenodd"/></g><g filter="url(#i)"><path d="m16.9037 17.5053c-.6674.3729-1.2085 1.2797-1.2084 2.0253-.0001.6827.4532 2.4082 1.0417 2.4099h.0023c.0538-.0002.1087-.0148.1645-.046.6674-.3728 1.2083-2.9683 1.2083-3.714 0-.529-.2722-.8348-.6688-.8348-.1624.0001-.3457.0513-.5396.1596z" fill="#000"/></g><path d="m16.9037 17.5053c-.6674.3729-1.2085 1.2797-1.2084 2.0253-.0001.6827.4532 2.4082 1.0417 2.4099h.0023c.0538-.0002.1087-.0148.1645-.046.6674-.3728 1.2083-2.9683 1.2083-3.714 0-.529-.2722-.8348-.6688-.8348-.1624.0001-.3457.0513-.5396.1596z" fill="url(#F)"/><g filter="url(#j)" opacity=".098331"><path clip-rule="evenodd" d="m16.9037 17.5053c-.6674.3729-1.2085 1.2797-1.2084 2.0253-.0001.6827.4532 2.4082 1.0417 2.4099h.0023c.0538-.0002.1087-.0148.1645-.046.6674-.3728 1.2083-2.9683 1.2083-3.714 0-.529-.2722-.8348-.6688-.8348-.1624.0001-.3457.0513-.5396.1596z" fill="url(#F)" fill-rule="evenodd"/></g><g filter="url(#k)"><path d="m6.61431 14.2338c.30791.5082.32788 1.3206.04461 1.8142-.25928.4522-1.22011 1.4175-1.61714 1.1883l-.00153-.0009c-.03615-.0212-.06757-.0524-.09333-.0949-.30794-.5081.3137-2.4387.59698-2.9326.20095-.3503.50045-.4462.76755-.291.1094.0636.21339.1693.30286.3169z" fill="#000"/></g><path d="m6.61431 14.2338c.30791.5082.32788 1.3206.04461 1.8142-.25928.4522-1.22011 1.4175-1.61714 1.1883l-.00153-.0009c-.03615-.0212-.06757-.0524-.09333-.0949-.30794-.5081.3137-2.4387.59698-2.9326.20095-.3503.50045-.4462.76755-.291.1094.0636.21339.1693.30286.3169z" fill="url(#G)"/><rect fill="#fb7777" height="24" rx="4" width="24"/><path d="m17.1475 6.16162h-10.29509c-1.02143 0-1.85241.83101-1.85241 1.85241v7.72137c0 1.0214.83098 1.8524 1.85241 1.8524h10.29509c1.0215 0 1.8524-.831 1.8524-1.8524v-7.72137c0-1.02143-.8309-1.85241-1.8524-1.85241zm.7214 9.57378c0 .3977-.3236.7213-.7214.7213h-10.29509c-.39774 0-.72136-.3236-.72136-.7213v-7.72137c0-.39774.32362-.72136.72136-.72136h10.29509c.3978 0 .7214.32362.7214.72136z" fill="#fff"/><path d="m18.8977 7.68954c-.179-.25586-.5316-.31809-.7876-.13899l-6.1101 4.27705-6.11015-4.27708c-.25585-.17913-.60848-.11686-.78758.13899-.1791.25586-.11687.60848.13899.78759l6.43444 4.5041c.0974.0682.2108.1022.3243.1022.1134 0 .2269-.034.3243-.1022l6.4344-4.50408c.2559-.1791.3181-.53172.139-.78758z" fill="#fff"/></g></svg>