<svg fill="none" height="39" viewBox="0 0 39 39" width="39" xmlns="http://www.w3.org/2000/svg" xmlns:xlink="http://www.w3.org/1999/xlink"><linearGradient id="a" gradientUnits="userSpaceOnUse" x1="39.0001" x2="13.1174" y1="39" y2="-14.7245"><stop offset="0" stop-color="#3023ae"/><stop offset="1" stop-color="#c86dd7"/></linearGradient><rect fill="url(#a)" height="39" rx="4" width="39" x=".000061"/><path d="m30.9891 24.3664c-.2144-.264-.5744-.3616-.8912-.248-.888.3184-1.8512.4816-2.8656.4816-4.8528 0-8.8-3.9488-8.8-8.8 0-2.92 1.4416-5.6384 3.856-7.2736.2736-.1856.4048-.52.3312-.8416s-.3376-.5648-.6656-.6128c-.3744-.0544-.7472-.072-1.1216-.072-6.6176 0-11.99996 5.3824-11.99996 12s5.38236 12 11.99996 12c4.2 0 8.0208-2.1344 10.2176-5.7088.1776-.2896.152-.6592-.0608-.9248z" fill="#fff"/></svg>