<svg fill="none" height="24" viewBox="0 0 24 24" width="24" xmlns="http://www.w3.org/2000/svg" xmlns:xlink="http://www.w3.org/1999/xlink"><linearGradient id="a" gradientUnits="userSpaceOnUse" x1="1.28571" x2="22.5" y1="2.78571" y2="27"><stop offset="0" stop-color="#65aaff"/><stop offset="1" stop-color="#5d21d4"/></linearGradient><linearGradient id="b" gradientUnits="userSpaceOnUse" x1="18.3985" x2="18.3985" y1="22.042" y2="3.81225"><stop offset="0" stop-opacity="0"/><stop offset="1" stop-color="#48d8f4"/></linearGradient><clipPath id="c"><path d="m0 0h24v24h-24z"/></clipPath><g clip-path="url(#c)"><rect fill="url(#a)" height="24" rx="4" width="24"/><path d="m16.9752 9.48748c-.0434-.09388-.1368-.15413-.2398-.15413h-3.1368l3.0958-4.92401c.0516-.08212.0547-.18612.0082-.27118-.0466-.08535-.1356-.13816-.2319-.13816h-4.2353c-.1003 0-.1919.05706-.2369.14747l-3.97059 8.00003c-.04104.0824-.03654.1805.01163.2592.04846.0786.13342.1266.22527.1266h2.72199l-2.96605 7.0966c-.05057.1213-.00556.2621.10587.3309.04287.0264.09052.0392.13791.0392.07597 0 .15089-.0328.20278-.0947l8.47059-10.13332c.0664-.07944.0807-.19038.0373-.2845z" fill="#fff"/><g clip-rule="evenodd" fill-rule="evenodd"><path d="m26.6225 2.03902v4.53673c-.711-1.51738-2.0936-2.95054-4.1478-4.14179-.4866-.28274-.9973-.5426-1.5269-.78223v-4.53796c.5296.23944 1.0403.49949 1.5269.78223 2.0542 1.192481 3.4368 2.62573 4.1478 4.14302z" fill="#51ffff" opacity=".01584"/><path d="m18.3985 4.91699c-.1599 0-.2898.13045-.2898.29134v16.88397h.5796v-16.88397c0-.16089-.1298-.29134-.2898-.29134z" fill="url(#b)" opacity=".0036"/></g></g></svg>