<svg fill="none" height="24" viewBox="0 0 24 24" width="24" xmlns="http://www.w3.org/2000/svg" xmlns:xlink="http://www.w3.org/1999/xlink"><linearGradient id="a" gradientUnits="userSpaceOnUse" x1="0" x2="20.1429" y1="-4.00208" y2="24"><stop offset="0" stop-color="#a8ed2f"/><stop offset="1" stop-color="#68dfb1"/></linearGradient><rect fill="url(#a)" height="24" rx="4" width="24"/><g fill="#fff"><path d="m14.2857 8.30357c0-.48615-.3857-.88392-.8571-.88392h-4.44433l.57002-2.80645c.01285-.0663.02141-.13703.02141-.20771 0-.27401-.10716-.52153-.28286-.70273l-.68142-.70276-4.23426 4.36662c-.23143.23866-.37716.57013-.37716.93695v5.74553c0 .7337.57427 1.3259 1.28571 1.3259h5.78569c.5315 0 .99-.3315 1.1829-.8088l1.9414-4.67596c.0557-.15028.09-.30939.09-.48175z"/><path d="m9.71429 15.6964c0 .4862.38571.8839.85711.8839h4.4443l-.57 2.8065c-.0128.0663-.0214.137-.0214.2077 0 .274.1072.5215.2829.7027l.6814.7028 4.2342-4.3666c.2315-.2387.3772-.5701.3772-.937v-5.74551c0-.73367-.5743-1.32589-1.2857-1.32589h-5.7857c-.5315 0-.99.33147-1.1829.80879l-1.94141 4.67601c-.05573.1502-.09.3093-.09.4817z" fill-opacity=".6"/></g></svg>