<svg width="24" height="24" viewBox="0 0 24 24" fill="none" xmlns="http://www.w3.org/2000/svg">
<rect width="24" height="24" rx="4" fill="url(#paint0_linear)"/>
<path d="M17.5858 3.88232H6.59627C6.19161 3.88232 5.86377 4.2105 5.86377 4.61515V19.2672C5.86377 19.6719 6.19195 20.0001 6.59627 20.0001H17.5858C17.9905 20.0001 18.3183 19.6719 18.3183 19.2672V4.61515C18.3183 4.2105 17.9905 3.88232 17.5858 3.88232ZM16.853 5.34729V7.54509H7.32877V5.34729H16.853ZM7.32877 18.5351V9.0104H16.853V18.5341H7.32877V18.5351Z" fill="url(#paint1_linear)"/>
<path d="M9.94844 9.65869H8.42754C8.22522 9.65869 8.06129 9.82295 8.06129 10.0249V11.5468C8.06129 11.7492 8.22556 11.9131 8.42754 11.9131H9.94844C10.1508 11.9131 10.3147 11.7488 10.3147 11.5468V10.0249C10.315 9.82227 10.1515 9.65869 9.94844 9.65869Z" fill="white" fill-opacity="0.9"/>
<path d="M12.851 9.65869H11.3305C11.1282 9.65869 10.9642 9.82295 10.9642 10.0249V11.5468C10.9642 11.7492 11.1282 11.9131 11.3305 11.9131H12.851C13.0534 11.9131 13.2173 11.7488 13.2173 11.5468V10.0249C13.2176 9.82227 13.0534 9.65869 12.851 9.65869Z" fill="white" fill-opacity="0.8"/>
<path d="M15.7538 9.65869H14.2329C14.0306 9.65869 13.867 9.82295 13.867 10.0249V11.5468C13.867 11.7492 14.031 11.9131 14.2329 11.9131H15.7538C15.9562 11.9131 16.1201 11.7488 16.1201 11.5468V10.0249C16.1201 9.82227 15.9562 9.65869 15.7538 9.65869Z" fill="white" fill-opacity="0.7"/>
<path d="M9.94844 12.6455H8.42754C8.22522 12.6455 8.06129 12.8094 8.06129 13.0114V14.5333C8.06129 14.7356 8.22556 14.8992 8.42754 14.8992H9.94844C10.1508 14.8992 10.3147 14.7353 10.3147 14.5333V13.0114C10.315 12.8087 10.1515 12.6455 9.94844 12.6455Z" fill="white" fill-opacity="0.8"/>
<path d="M12.851 12.6455H11.3305C11.1282 12.6455 10.9642 12.8094 10.9642 13.0114V14.5333C10.9642 14.7356 11.1282 14.8992 11.3305 14.8992H12.851C13.0534 14.8992 13.2173 14.7353 13.2173 14.5333V13.0114C13.2176 12.8087 13.0534 12.6455 12.851 12.6455Z" fill="white" fill-opacity="0.7"/>
<path d="M9.94844 15.6328H8.42754C8.22522 15.6328 8.06129 15.7967 8.06129 15.9984V17.5203C8.06129 17.7233 8.22556 17.8865 8.42754 17.8865H9.94844C10.1508 17.8865 10.3147 17.7222 10.3147 17.5203V15.9984C10.315 15.796 10.1515 15.6328 9.94844 15.6328Z" fill="white" fill-opacity="0.6"/>
<path d="M12.851 15.6328H11.3305C11.1282 15.6328 10.9642 15.7967 10.9642 15.9984V17.5203C10.9642 17.7233 11.1282 17.8865 11.3305 17.8865H12.851C13.0534 17.8865 13.2173 17.7222 13.2173 17.5203V15.9984C13.2176 15.796 13.0534 15.6328 12.851 15.6328Z" fill="white" fill-opacity="0.4"/>
<path d="M15.7538 12.6455H14.2329C14.0306 12.6455 13.867 12.8094 13.867 13.0114V17.5202C13.867 17.7232 14.031 17.8864 14.2329 17.8864H15.7538C15.9562 17.8864 16.1201 17.7221 16.1201 17.5202V13.0114C16.1201 12.8087 15.9562 12.6455 15.7538 12.6455Z" fill="white" fill-opacity="0.2"/>
<defs>
<linearGradient id="paint0_linear" x1="24" y1="24" x2="8.07219" y2="-9.06123" gradientUnits="userSpaceOnUse">
<stop stop-color="#46C4E6"/>
<stop offset="1" stop-color="#4A80E4"/>
</linearGradient>
<linearGradient id="paint1_linear" x1="12.091" y1="3.88232" x2="27.5885" y2="31.985" gradientUnits="userSpaceOnUse">
<stop stop-color="white"/>
<stop offset="1" stop-color="white" stop-opacity="0"/>
</linearGradient>
</defs>
</svg>
