<svg fill="none" height="24" viewBox="0 0 24 24" width="24" xmlns="http://www.w3.org/2000/svg" xmlns:xlink="http://www.w3.org/1999/xlink"><linearGradient id="a" gradientUnits="userSpaceOnUse" x1="24" x2="8.07219" y1="24" y2="-9.06123"><stop offset="0" stop-color="#46c4e6"/><stop offset="1" stop-color="#4a80e4"/></linearGradient><linearGradient id="b" gradientUnits="userSpaceOnUse" x1="12.091" x2="27.5885" y1="3.88232" y2="31.985"><stop offset="0" stop-color="#fff"/><stop offset="1" stop-color="#fff" stop-opacity="0"/></linearGradient><rect fill="url(#a)" height="24" rx="4" width="24"/><path d="m17.5858 3.88232h-10.98953c-.40466 0-.7325.32818-.7325.73283v14.65205c0 .4047.32818.7329.7325.7329h10.98953c.4047 0 .7325-.3282.7325-.7329v-14.65205c0-.40465-.3278-.73283-.7325-.73283zm-.7328 1.46497v2.1978h-9.52423v-2.1978zm-9.52423 13.18781v-9.5247h9.52423v9.5237h-9.52423z" fill="url(#b)"/><g fill="#fff"><path d="m9.94844 9.65869h-1.5209c-.20232 0-.36625.16426-.36625.36621v1.5219c0 .2024.16427.3663.36625.3663h1.5209c.20236 0 .36626-.1643.36626-.3663v-1.5219c.0003-.20263-.1632-.36621-.36626-.36621z" fill-opacity=".9"/><path d="m12.851 9.65869h-1.5205c-.2023 0-.3663.16426-.3663.36621v1.5219c0 .2024.164.3663.3663.3663h1.5205c.2024 0 .3663-.1643.3663-.3663v-1.5219c.0003-.20263-.1639-.36621-.3663-.36621z" fill-opacity=".8"/><path d="m15.7538 9.65869h-1.5209c-.2023 0-.3659.16426-.3659.36621v1.5219c0 .2024.164.3663.3659.3663h1.5209c.2024 0 .3663-.1643.3663-.3663v-1.5219c0-.20263-.1639-.36621-.3663-.36621z" fill-opacity=".7"/><path d="m9.94844 12.6455h-1.5209c-.20232 0-.36625.1639-.36625.3659v1.5219c0 .2023.16427.3659.36625.3659h1.5209c.20236 0 .36626-.1639.36626-.3659v-1.5219c.0003-.2027-.1632-.3659-.36626-.3659z" fill-opacity=".8"/><path d="m12.851 12.6455h-1.5205c-.2023 0-.3663.1639-.3663.3659v1.5219c0 .2023.164.3659.3663.3659h1.5205c.2024 0 .3663-.1639.3663-.3659v-1.5219c.0003-.2027-.1639-.3659-.3663-.3659z" fill-opacity=".7"/><path d="m9.94844 15.6328h-1.5209c-.20232 0-.36625.1639-.36625.3656v1.5219c0 .203.16427.3662.36625.3662h1.5209c.20236 0 .36626-.1643.36626-.3662v-1.5219c.0003-.2024-.1632-.3656-.36626-.3656z" fill-opacity=".6"/><path d="m12.851 15.6328h-1.5205c-.2023 0-.3663.1639-.3663.3656v1.5219c0 .203.164.3662.3663.3662h1.5205c.2024 0 .3663-.1643.3663-.3662v-1.5219c.0003-.2024-.1639-.3656-.3663-.3656z" fill-opacity=".4"/><path d="m15.7538 12.6455h-1.5209c-.2023 0-.3659.1639-.3659.3659v4.5088c0 .203.164.3662.3659.3662h1.5209c.2024 0 .3663-.1643.3663-.3662v-4.5088c0-.2027-.1639-.3659-.3663-.3659z" fill-opacity=".2"/></g></svg>