<svg fill="none" height="24" viewBox="0 0 24 24" width="24" xmlns="http://www.w3.org/2000/svg" xmlns:xlink="http://www.w3.org/1999/xlink"><filter id="a" color-interpolation-filters="sRGB" filterUnits="userSpaceOnUse" height="27.8154" width="27.5425" x="-6.53413" y="-.347924"><feFlood flood-opacity="0" result="BackgroundImageFix"/><feBlend in="SourceGraphic" in2="BackgroundImageFix" mode="normal" result="shape"/><feGaussianBlur result="effect1_foregroundBlur" stdDeviation="6.3"/></filter><filter id="b" color-interpolation-filters="sRGB" filterUnits="userSpaceOnUse" height="12.5378" width="12.5245" x="2.62247" y="8.67529"><feFlood flood-opacity="0" result="BackgroundImageFix"/><feColorMatrix in="SourceAlpha" type="matrix" values="0 0 0 0 0 0 0 0 0 0 0 0 0 0 0 0 0 0 127 0"/><feOffset dy="3"/><feGaussianBlur stdDeviation="2.5"/><feColorMatrix type="matrix" values="0 0 0 0 0.0784314 0 0 0 0 0.12549 0 0 0 0 0.180392 0 0 0 0.457687 0"/><feBlend in2="BackgroundImageFix" mode="normal" result="effect1_dropShadow"/><feBlend in="SourceGraphic" in2="effect1_dropShadow" mode="normal" result="shape"/></filter><filter id="c" color-interpolation-filters="sRGB" filterUnits="userSpaceOnUse" height="26.518" width="24.2004" x="-.141184" y="2.22568"><feFlood flood-opacity="0" result="BackgroundImageFix"/><feBlend in="SourceGraphic" in2="BackgroundImageFix" mode="normal" result="shape"/><feGaussianBlur result="effect1_foregroundBlur" stdDeviation="4.05"/></filter><filter id="d" color-interpolation-filters="sRGB" filterUnits="userSpaceOnUse" height="26.518" width="24.2004" x="-.141184" y="2.22568"><feFlood flood-opacity="0" result="BackgroundImageFix"/><feBlend in="SourceGraphic" in2="BackgroundImageFix" mode="normal" result="shape"/><feGaussianBlur result="effect1_foregroundBlur" stdDeviation="4.05"/></filter><filter id="e" color-interpolation-filters="sRGB" filterUnits="userSpaceOnUse" height="17.3338" width="17.2896" x="3.43434" y="-1.60828"><feFlood flood-opacity="0" result="BackgroundImageFix"/><feBlend in="SourceGraphic" in2="BackgroundImageFix" mode="normal" result="shape"/><feGaussianBlur result="effect1_foregroundBlur" stdDeviation="2.25"/></filter><filter id="f" color-interpolation-filters="sRGB" filterUnits="userSpaceOnUse" height="8.6434" width="11.6604" x="5.2333" y="3.15181"><feFlood flood-opacity="0" result="BackgroundImageFix"/><feBlend in="SourceGraphic" in2="BackgroundImageFix" mode="normal" result="shape"/><feGaussianBlur result="effect1_foregroundBlur" stdDeviation="1.35"/></filter><filter id="g" color-interpolation-filters="sRGB" filterUnits="userSpaceOnUse" height="16.9245" width="14.7484" x="9.5298" y="11.1778"><feFlood flood-opacity="0" result="BackgroundImageFix"/><feBlend in="SourceGraphic" in2="BackgroundImageFix" mode="normal" result="shape"/><feGaussianBlur result="effect1_foregroundBlur" stdDeviation="3.15"/></filter><filter id="h" color-interpolation-filters="sRGB" filterUnits="userSpaceOnUse" height="10.4786" width="9.09161" x="1.30753" y="10.324"><feFlood flood-opacity="0" result="BackgroundImageFix"/><feBlend in="SourceGraphic" in2="BackgroundImageFix" mode="normal" result="shape"/><feGaussianBlur result="effect1_foregroundBlur" stdDeviation="1.8"/></filter><filter id="i" color-interpolation-filters="sRGB" filterUnits="userSpaceOnUse" height="26.5948" width="24.4168" x="4.6953" y="9.34558"><feFlood flood-opacity="0" result="BackgroundImageFix"/><feColorMatrix in="SourceAlpha" type="matrix" values="0 0 0 0 0 0 0 0 0 0 0 0 0 0 0 0 0 0 127 0"/><feOffset dy="3"/><feGaussianBlur stdDeviation="5.5"/><feColorMatrix type="matrix" values="0 0 0 0 0.0784314 0 0 0 0 0.12549 0 0 0 0 0.180392 0 0 0 0.967412 0"/><feBlend in2="BackgroundImageFix" mode="normal" result="effect1_dropShadow"/><feBlend in="SourceGraphic" in2="effect1_dropShadow" mode="normal" result="shape"/></filter><filter id="j" color-interpolation-filters="sRGB" filterUnits="userSpaceOnUse" height="20.5948" width="18.4168" x="7.6953" y="9.34558"><feFlood flood-opacity="0" result="BackgroundImageFix"/><feBlend in="SourceGraphic" in2="BackgroundImageFix" mode="normal" result="shape"/><feGaussianBlur result="effect1_foregroundBlur" stdDeviation="4"/></filter><filter id="k" color-interpolation-filters="sRGB" filterUnits="userSpaceOnUse" height="11.4259" width="9.9956" x=".863358" y="11.8451"><feFlood flood-opacity="0" result="BackgroundImageFix"/><feColorMatrix in="SourceAlpha" type="matrix" values="0 0 0 0 0 0 0 0 0 0 0 0 0 0 0 0 0 0 127 0"/><feOffset dy="2"/><feGaussianBlur stdDeviation="2"/><feColorMatrix type="matrix" values="0 0 0 0 0.0784314 0 0 0 0 0.12549 0 0 0 0 0.180392 0 0 0 1 0"/><feBlend in2="BackgroundImageFix" mode="normal" result="effect1_dropShadow"/><feBlend in="SourceGraphic" in2="effect1_dropShadow" mode="normal" result="shape"/></filter><linearGradient id="l"><stop offset="0" stop-color="#52cae4" stop-opacity="0"/><stop offset="1" stop-color="#48d8f4"/></linearGradient><linearGradient id="m" gradientUnits="userSpaceOnUse" x1="5.94361" x2="5.94361" xlink:href="#l" y1="25.4419" y2="14.6815"/><linearGradient id="n" gradientUnits="userSpaceOnUse" x1="19.8025" x2="19.8025" xlink:href="#l" y1="18.9303" y2="8.16988"/><linearGradient id="o" gradientUnits="userSpaceOnUse" x1="3.25829" x2="3.25829" xlink:href="#l" y1="15.9819" y2="5.22151"/><linearGradient id="p"><stop offset="0" stop-opacity="0"/><stop offset="1" stop-color="#48d8f4"/></linearGradient><linearGradient id="q" gradientUnits="userSpaceOnUse" x1="4.60321" x2="4.60321" xlink:href="#p" y1="21.9507" y2="3.6066"/><linearGradient id="r" gradientUnits="userSpaceOnUse" x1="18.3985" x2="18.3985" xlink:href="#p" y1="22.0423" y2="3.81249"/><linearGradient id="s" gradientUnits="userSpaceOnUse" x1="11.8981" x2="11.8981" y1="17.1639" y2="7.18212"><stop offset="0"/><stop offset="1" stop-color="#48d8f4"/></linearGradient><linearGradient id="t" gradientUnits="userSpaceOnUse" x1="5.96071" x2="5.96071" xlink:href="#p" y1="21.7753" y2="3.43118"/><linearGradient id="u" gradientUnits="userSpaceOnUse" x1="8.88473" x2="4.10369" y1="12.0966" y2="14.3485"><stop offset="0" stop-color="#007a94"/><stop offset="1" stop-color="#35f7ee"/></linearGradient><linearGradient id="v"><stop offset="0" stop-color="#06bce5"/><stop offset="1" stop-color="#35f7ee"/></linearGradient><linearGradient id="w" gradientUnits="userSpaceOnUse" x1="12.5164" x2="12.5164" xlink:href="#v" y1="14.1857" y2="20.6437"/><linearGradient id="x" gradientUnits="userSpaceOnUse" x1="12.5164" x2="12.5164" y1="18.1363" y2="19.7842"><stop offset="0" stop-color="#06bce5" stop-opacity="0"/><stop offset="1" stop-color="#35f7ee"/></linearGradient><linearGradient id="y" gradientUnits="userSpaceOnUse" x1="11.5334" x2="14.7498" xlink:href="#v" y1="11.2179" y2="-2.20922"/><linearGradient id="z" gradientUnits="userSpaceOnUse" x1="11.5338" x2="12.9002" xlink:href="#v" y1="11.2181" y2="3.46893"/><linearGradient id="A"><stop offset="0" stop-color="#06bce5"/><stop offset="1" stop-color="#a9fffb"/></linearGradient><linearGradient id="B" gradientUnits="userSpaceOnUse" x1="14.7666" x2="17.7376" xlink:href="#A" y1="14.7313" y2="12.2858"/><linearGradient id="C" gradientUnits="userSpaceOnUse" x1="16.7602" x2="18.7927" xlink:href="#A" y1="20.5415" y2="17.1921"/><linearGradient id="D"><stop offset="0" stop-color="#039cbe"/><stop offset="1" stop-color="#a9fffb"/></linearGradient><linearGradient id="E" gradientUnits="userSpaceOnUse" x1="5.56194" x2="5.93972" xlink:href="#D" y1="16.3214" y2="13.5734"/><linearGradient id="F" gradientUnits="userSpaceOnUse" x1="16.8168" x2="18.0104" xlink:href="#A" y1="21.9404" y2="17.577"/><linearGradient id="G" gradientUnits="userSpaceOnUse" x1="5.56462" x2="5.92224" xlink:href="#D" y1="16.3573" y2="13.4911"/><linearGradient id="H" gradientUnits="userSpaceOnUse" x1="-15.5384" x2="22.5903" y1="-12.5287" y2="25.4161"><stop offset="0" stop-color="#ff9372"/><stop offset="1" stop-color="#ffd770"/></linearGradient><clipPath id="I"><path d="m0 0h24v24h-24z"/></clipPath><g clip-path="url(#I)"><rect fill="#14202e" height="24" rx="12" width="24"/><g clip-rule="evenodd" fill-rule="evenodd"><path d="m5.94358 15.9684c-.30511 0-.5525.2488-.5525.5554v19.4523h1.10501v-19.4523c0-.3066-.24729-.5554-.55251-.5554z" fill="url(#m)" opacity=".06"/><path d="m6.02478-1.93237v4.53673c-.77676.31346-1.51807.67134-2.21114 1.07394-1.71449.99502-2.961469 2.1581-3.7396349 3.39766v-4.53664c.7781659-1.24078 2.0251449-2.403965 3.7396349-3.398978.69307-.402602 1.43438-.760582 2.21114-1.072712z" fill="#51ffff" opacity=".065366"/><path d="m26.6225 2.03902v4.53673c-.711-1.51738-2.0936-2.95054-4.1478-4.14179-.4866-.28274-.9973-.5426-1.5269-.78223v-4.53796c.5296.23944 1.0403.49949 1.5269.78223 2.0542 1.192481 3.4368 2.62573 4.1478 4.14302z" fill="#51ffff" opacity=".01584"/><path d="m19.8025 9.45679c-.3051 0-.5525.2488-.5525.55541v19.4523h1.105v-19.4523c0-.30661-.2473-.55541-.5525-.55541z" fill="url(#n)" opacity=".115327"/><path d="m3.25827 6.50842c-.30512 0-.55251.2488-.55251.55546v19.45232h1.10501v-19.45232c0-.30666-.24729-.55546-.5525-.55546z" fill="url(#o)" opacity=".115327"/><path d="m4.60318 4.71826c-.08377 0-.15147.06816-.15147.15229v17.13085h.30304v-17.13085c0-.08413-.06788-.15229-.15157-.15229z" fill="url(#q)" opacity=".089239"/><path d="m18.3985 4.91724c-.1599 0-.2898.13045-.2898.29133v16.88403h.5796v-16.88403c0-.16088-.1298-.29133-.2898-.29133z" fill="url(#r)" opacity=".0036"/><path d="m11.8982 7.78711c-.0455 0-.0824.03687-.0824.08281v9.32148h.1647v-9.32148c0-.04594-.0368-.08281-.0823-.08281z" fill="url(#s)"/><path d="m5.96068 4.54285c-.08378 0-.15148.06815-.15148.15228v17.13087h.30305v-17.13087c0-.08413-.06788-.15228-.15157-.15228z" fill="url(#t)" opacity=".0009"/><path d="m8.00053 12.252-1.93466 2.2406.40769.3748 1.93476-2.2406z" fill="#038cab"/></g><g filter="url(#a)" opacity=".187663"><path clip-rule="evenodd" d="m8.00053 12.252-1.93466 2.2406.40769.3748 1.93476-2.2406z" fill="#038cab" fill-rule="evenodd"/></g><g filter="url(#b)"><path d="m7.62247 11.9443c0 .7007.565 1.2688 1.26212 1.2688.69711 0 1.26241-.5681 1.26241-1.2688 0-.7009-.5653-1.269-1.26241-1.269-.69712 0-1.26212.5681-1.26212 1.269z" fill="#000"/></g><path d="m7.62247 11.9443c0 .7007.565 1.2688 1.26212 1.2688.69711 0 1.26241-.5681 1.26241-1.2688 0-.7009-.5653-1.269-1.26241-1.269-.69712 0-1.26212.5681-1.26212 1.269z" fill="url(#u)"/><path clip-rule="evenodd" d="m11.9225 20.6437c1.1128 0 2.1156-.7485 3.0415-2.6353 1.2098-2.4656 1.166-4.2511.6617-5.5994-.5041-1.3483-1.8859-2.0833-3.7122-2.0833-1.8262 0-3.2083.735-3.71254 2.0833-.50415 1.3483-.26908 4.2245 1.16175 6.4798.50979.8034 1.44699 1.7549 2.55979 1.7549z" fill="url(#w)" fill-rule="evenodd"/><g filter="url(#c)" opacity=".460403"><path clip-rule="evenodd" d="m11.9225 20.6437c1.1128 0 2.1156-.7485 3.0415-2.6353 1.2098-2.4656 1.166-4.2511.6617-5.5994-.5041-1.3483-1.8859-2.0833-3.7122-2.0833-1.8262 0-3.2083.735-3.71254 2.0833-.50415 1.3483-.26908 4.2245 1.16175 6.4798.50979.8034 1.44699 1.7549 2.55979 1.7549z" fill="url(#w)" fill-rule="evenodd"/></g><g filter="url(#d)" opacity=".460403"><path clip-rule="evenodd" d="m11.9225 20.6437c1.1128 0 2.1156-.7485 3.0415-2.6353 1.2098-2.4656 1.166-4.2511.6617-5.5994-.5041-1.3483-1.8859-2.0833-3.7122-2.0833-1.8262 0-3.2083.735-3.71254 2.0833-.50415 1.3483-.26908 4.2245 1.16175 6.4798.50979.8034 1.44699 1.7549 2.55979 1.7549z" fill="url(#x)" fill-rule="evenodd"/></g><g filter="url(#e)" opacity=".502069"><path clip-rule="evenodd" d="m12.079 11.2255c-2.28895 0-4.14466-1.86563-4.14466-4.16684 0-2.30141 1.85571-4.16694 4.14466-4.16694 2.2891 0 4.1449 1.86553 4.1449 4.16694 0 2.30121-1.8558 4.16684-4.1449 4.16684z" fill="url(#y)" fill-rule="evenodd"/></g><g filter="url(#f)"><path clip-rule="evenodd" d="m13.0525 9.06943c-1.3921.09721-2.8714-.08059-3.94536-.53324-.32806-.13818-.74629-.45775-.95249-.62188-.23864-.38202-.22106-.64078-.22106-1.08801 0-.3411.07851-.66868.22106-.97449.22002.21403.53736.41475.95249.58973 1.07396.45272 2.55326.63051 3.94536.53331.6078-.08059 1.1412.11022 1.1412.99927 0 .8418-.55 1.01472-1.1412 1.09531z" fill="#fff" fill-rule="evenodd"/></g><path clip-rule="evenodd" d="m15.0725 11.4966c-.6885-.7636-1.8004-1.171-3.159-1.171-1.2382 0-2.27102.3388-2.96543.9767.7836.8521 1.90783 1.3865 3.15763 1.3865 1.1516 0 2.1963-.4543 2.9668-1.1922z" fill="#00a5ca" fill-rule="evenodd" opacity=".873628"/><path clip-rule="evenodd" d="m16.2243 7.0589c0 2.30122-1.8558 4.1668-4.1448 4.1668-2.28903 0-4.14475-1.86558-4.14475-4.1668 0-2.3014 1.85572-4.16693 4.14475-4.16693 2.289 0 4.1448 1.86553 4.1448 4.16693z" fill="url(#z)" fill-rule="evenodd"/><path clip-rule="evenodd" d="m13.0529 9.06968c-1.3921.0972-2.8714-.08059-3.94536-.53324-.32806-.13818-.74629-.45776-.95249-.62189-.23864-.38201-.22106-.64078-.22106-1.08801 0-.3411.07852-.66867.22106-.97449.22002.21404.53736.41476.95249.58974 1.07396.45271 2.55326.63051 3.94536.5333.6078-.08059 1.1412.11023 1.1412.99928 0 .8418-.55 1.01472-1.1412 1.09531z" fill="#fff" fill-rule="evenodd"/><path clip-rule="evenodd" d="m15.5618 13.0152c0 .6007-.481 1.331-1.0743 1.6315-.5931.3003-1.0741.0569-1.0741-.5438.0001-.6006.4811-1.331 1.0743-1.6315.5933-.3003 1.0742-.0569 1.0741.5438z" fill="#00a5ca" fill-rule="evenodd" opacity=".739258"/><path clip-rule="evenodd" d="m16.0321 14.8369 1.3499 3.2475-.6196.2607-1.35-3.2476z" fill="#038cab" fill-rule="evenodd"/><path clip-rule="evenodd" d="m16.7049 14.2031c0 .7008-.5651 1.2689-1.262 1.2689-.6973 0-1.2623-.5681-1.2623-1.2689 0-.701.565-1.2689 1.2623-1.2689.6969 0 1.262.5679 1.262 1.2689z" fill="url(#B)" fill-rule="evenodd"/><path clip-rule="evenodd" d="m2.44616 15.5806c-.32214-.1583-.63562-.3242-.93745-.4995-.663921-.3857-1.262496-.8041-1.790738-1.2513v4.639c.625184.6772 1.424228 1.2998 2.378688 1.8529.11471.0667.2315.1317.3495.1958z" fill="#51ffff" fill-rule="evenodd" opacity=".01"/><g filter="url(#g)" opacity=".501163"><path clip-rule="evenodd" d="m16.9041 17.628c-.5933.351-1.0743 1.2045-1.0743 1.9062-.0001.6425.4027 2.2665.9258 2.268h.002c.0478-.0001.0966-.0139.1463-.0433.5933-.3509 1.0743-2.7937 1.0743-3.4955.0001-.4979-.2419-.7856-.5944-.7856-.1444.0001-.3073.0483-.4797.1502z" fill="url(#C)" fill-rule="evenodd"/></g><g filter="url(#h)" opacity=".309152"><path clip-rule="evenodd" d="m6.58349 14.2865c.28121.48.28834 1.2541.01591 1.7288-.24935.4348-1.16327 1.3689-1.53195 1.1561l-.00142-.0008c-.03356-.0197-.06255-.0489-.08608-.0891-.28124-.4799.32867-2.3293.6011-2.8042.19326-.3368.47521-.4326.72323-.2885.10158.0591.19749.1583.27921.2977z" fill="url(#E)" fill-rule="evenodd"/></g><g filter="url(#i)"><path d="m16.9037 17.5052c-.6674.3729-1.2085 1.2797-1.2084 2.0252-.0001.6828.4532 2.4083 1.0417 2.41h.0023c.0537-.0002.1086-.0149.1645-.0461.6674-.3727 1.2083-2.9682 1.2083-3.714 0-.529-.2722-.8347-.6688-.8347-.1624.0001-.3457.0513-.5396.1596z" fill="#000"/></g><path d="m16.9037 17.5052c-.6674.3729-1.2085 1.2797-1.2084 2.0252-.0001.6828.4532 2.4083 1.0417 2.41h.0023c.0537-.0002.1086-.0149.1645-.0461.6674-.3727 1.2083-2.9682 1.2083-3.714 0-.529-.2722-.8347-.6688-.8347-.1624.0001-.3457.0513-.5396.1596z" fill="url(#F)"/><g filter="url(#j)" opacity=".098331"><path clip-rule="evenodd" d="m16.9037 17.5052c-.6674.3729-1.2085 1.2797-1.2084 2.0252-.0001.6828.4532 2.4083 1.0417 2.41h.0023c.0537-.0002.1086-.0149.1645-.0461.6674-.3727 1.2083-2.9682 1.2083-3.714 0-.529-.2722-.8347-.6688-.8347-.1624.0001-.3457.0513-.5396.1596z" fill="url(#F)" fill-rule="evenodd"/></g><g filter="url(#k)"><path d="m6.6143 14.2338c.3079.5082.32788 1.3206.0446 1.8142-.25928.4522-1.22011 1.4175-1.61714 1.1883l-.00152-.0009c-.03615-.0212-.06757-.0524-.09333-.0949-.30794-.5081.31369-2.4387.59698-2.9326.20095-.3503.50044-.4462.76754-.291.1094.0636.21339.1693.30287.3169z" fill="#000"/></g><path d="m6.6143 14.2338c.3079.5082.32788 1.3206.0446 1.8142-.25928.4522-1.22011 1.4175-1.61714 1.1883l-.00152-.0009c-.03615-.0212-.06757-.0524-.09333-.0949-.30794-.5081.31369-2.4387.59698-2.9326.20095-.3503.50044-.4462.76754-.291.1094.0636.21339.1693.30287.3169z" fill="url(#G)"/><rect fill="url(#H)" height="24" rx="4" width="24"/><path d="m16.0124 15.9931c-2.2022 0-3.9875-1.7852-3.9875-3.9873 0-2.20209 1.7853-3.98725 3.9875-3.98725 2.2023 0 3.9876 1.78516 3.9876 3.98725 0 2.2021-1.7853 3.9873-3.9876 3.9873z" fill="#fff" fill-opacity=".2" stroke="#fff" stroke-width=".8"/><path d="m7.98755 15.9931c-2.20227 0-3.98756-1.7852-3.98756-3.9873 0-2.20209 1.78529-3.98725 3.98756-3.98725 2.20225 0 3.98755 1.78516 3.98755 3.98725 0 2.2021-1.7853 3.9873-3.98755 3.9873z" fill="#fff" fill-opacity=".2" stroke="#fff" stroke-width=".8"/><path d="m11.9935 11.9745c-2.20224 0-3.98752-1.7851-3.98752-3.98724 0-2.2021 1.78528-3.98726 3.98752-3.98726 2.2023 0 3.9876 1.78516 3.9876 3.98726 0 2.20214-1.7853 3.98724-3.9876 3.98724z" fill="#fff" fill-opacity=".2" stroke="#fff" stroke-width=".8"/><path d="m11.9935 20.0002c-2.20224 0-3.98752-1.7852-3.98752-3.9873s1.78528-3.9873 3.98752-3.9873c2.2023 0 3.9876 1.7852 3.9876 3.9873s-1.7853 3.9873-3.9876 3.9873z" fill="#fff" fill-opacity=".2" stroke="#fff" stroke-width=".8"/></g></svg>