<svg width="755" height="642" viewBox="0 0 755 642" fill="none" xmlns="http://www.w3.org/2000/svg">
<g filter="url(#filter0_f)">
<path fill-rule="evenodd" clip-rule="evenodd" d="M581 579C642.304 579 692 529.304 692 468C692 406.696 642.304 357 581 357C519.696 357 470 406.696 470 468C470 529.304 519.696 579 581 579Z" fill="#02EEE1" fill-opacity="0.0986396"/>
</g>
<g filter="url(#filter1_f)">
<path fill-rule="evenodd" clip-rule="evenodd" d="M148.5 234C195.72 234 234 195.72 234 148.5C234 101.28 195.72 63 148.5 63C101.28 63 63 101.28 63 148.5C63 195.72 101.28 234 148.5 234Z" fill="#02EEE1" fill-opacity="0.0986396"/>
</g>
<g filter="url(#filter2_d)">
<path d="M106 117C106 110.373 111.373 105 118 105H504C510.627 105 516 110.373 516 117V254C516 260.627 510.627 266 504 266H118C111.373 266 106 260.627 106 254V117Z" fill="white"/>
</g>
<path d="M128.176 130H133.432V129.004H129.22V126.148H131.824V125.164H129.22V122.584H133.168V121.6H128.176V130ZM142.856 130V121.6H141.86L139.412 127.252C139.34 127.432 139.256 127.636 139.196 127.816L138.98 127.252L136.544 121.6H135.56V130H136.604V124.84C136.604 124.552 136.592 124.144 136.568 123.928C136.664 124.204 136.82 124.576 136.928 124.84L139.16 130.144L141.464 124.864C141.584 124.576 141.74 124.192 141.836 123.916C141.824 124.132 141.812 124.552 141.812 124.84V130H142.856ZM150.45 130H151.518L148.542 121.6H147.57L144.594 130H145.686L146.394 127.948H149.73L150.45 130ZM149.406 127.024H146.706L147.798 123.916C147.882 123.676 148.002 123.28 148.062 123.064C148.11 123.28 148.242 123.676 148.326 123.916L149.406 127.024ZM153.292 130H154.336V121.6H153.292V130ZM156.913 130H162.085V128.992H157.957V121.6H156.913V130ZM172.868 130V121.6H171.824V127.588C171.824 127.78 171.836 127.984 171.848 128.2C171.728 127.972 171.62 127.78 171.5 127.576L167.78 121.6H166.724V130H167.768V124C167.768 123.808 167.756 123.592 167.744 123.412C167.852 123.616 167.972 123.82 168.08 124L171.86 130H172.868ZM178.624 130.144C181.276 130.144 182.2 127.876 182.2 125.8C182.2 123.724 181.276 121.456 178.624 121.456C175.984 121.456 175.06 123.724 175.06 125.8C175.06 127.876 175.984 130.144 178.624 130.144ZM178.624 129.16C176.788 129.16 176.14 127.444 176.14 125.8C176.14 124.276 176.788 122.428 178.624 122.428C180.472 122.428 181.108 124.156 181.108 125.8C181.108 127.312 180.472 129.16 178.624 129.16ZM186.69 122.596H189.03V121.6H183.306V122.596H185.646V130H186.69V122.596ZM191.066 130H192.11V121.6H191.066V130ZM194.688 130H195.732V126.148H198.384V125.164H195.732V122.584H199.74V121.6H194.688V130ZM201.65 130H202.694V121.6H201.65V130ZM208.391 130.144C209.867 130.144 210.743 129.388 211.175 128.452L210.215 128.092C209.831 128.728 209.315 129.16 208.391 129.16C206.711 129.16 205.991 127.468 205.991 125.8C205.991 124.264 206.591 122.428 208.391 122.428C209.315 122.428 209.771 122.86 210.167 123.448L211.103 122.968C210.731 122.212 209.939 121.456 208.391 121.456C205.895 121.456 204.911 123.688 204.911 125.8C204.911 127.936 205.847 130.144 208.391 130.144ZM218.298 130H219.366L216.39 121.6H215.418L212.442 130H213.534L214.242 127.948H217.578L218.298 130ZM217.254 127.024H214.554L215.646 123.916C215.73 123.676 215.85 123.28 215.91 123.064C215.958 123.28 216.09 123.676 216.174 123.916L217.254 127.024ZM223.058 122.596H225.398V121.6H219.674V122.596H222.014V130H223.058V122.596ZM227.434 130H228.478V121.6H227.434V130ZM234.26 130.144C236.912 130.144 237.836 127.876 237.836 125.8C237.836 123.724 236.912 121.456 234.26 121.456C231.62 121.456 230.696 123.724 230.696 125.8C230.696 127.876 231.62 130.144 234.26 130.144ZM234.26 129.16C232.424 129.16 231.776 127.444 231.776 125.8C231.776 124.276 232.424 122.428 234.26 122.428C236.108 122.428 236.744 124.156 236.744 125.8C236.744 127.312 236.108 129.16 234.26 129.16ZM246.165 130V121.6H245.121V127.588C245.121 127.78 245.133 127.984 245.145 128.2C245.025 127.972 244.917 127.78 244.797 127.576L241.077 121.6H240.021V130H241.065V124C241.065 123.808 241.053 123.592 241.041 123.412C241.149 123.616 241.269 123.82 241.377 124L245.157 130H246.165ZM251.165 130.144C252.749 130.144 253.925 129.268 253.925 127.72C253.925 126.064 252.557 125.452 251.381 125.008C250.433 124.66 249.569 124.312 249.569 123.532C249.569 122.848 250.109 122.428 250.997 122.428C251.825 122.428 252.365 122.812 252.569 123.28L253.529 122.956C253.277 122.092 252.401 121.456 251.069 121.456C249.437 121.456 248.489 122.404 248.489 123.532C248.489 124.996 249.773 125.536 250.949 125.968C251.933 126.328 252.845 126.772 252.845 127.744C252.845 128.668 252.197 129.16 251.189 129.16C250.265 129.16 249.557 128.656 249.221 127.912L248.237 128.272C248.609 129.352 249.701 130.144 251.165 130.144Z" fill="#637381"/>
<line x1="106.001" y1="142.5" x2="515.503" y2="142.929" stroke="#DDE4E9"/>
<path d="M131.5 205C131.5 203.067 133.067 201.5 135 201.5H300C301.933 201.5 303.5 203.067 303.5 205V237C303.5 238.933 301.933 240.5 300 240.5H135C133.067 240.5 131.5 238.933 131.5 237V205Z" fill="white" stroke="#DDE4E9"/>
<path d="M153.72 227H154.536L158.36 215.8H157.16L154.488 224.2C154.392 224.52 154.28 224.856 154.184 225.192C154.072 224.856 153.976 224.52 153.864 224.2L151.064 215.8H149.88L153.72 227ZM162.415 227.192C164.511 227.192 165.919 225.592 165.919 222.904C165.919 220.184 164.511 218.632 162.415 218.632C160.319 218.632 158.911 220.232 158.911 222.92C158.911 225.64 160.319 227.192 162.415 227.192ZM162.415 226.184C160.895 226.184 160.079 224.952 160.079 222.92C160.079 220.792 160.895 219.64 162.415 219.64C163.935 219.64 164.751 220.872 164.751 222.904C164.751 224.952 163.903 226.184 162.415 226.184ZM170.285 227.192C170.909 227.192 171.357 227.048 171.773 226.824L171.901 225.656C171.597 225.864 171.213 226.136 170.669 226.136C169.885 226.136 169.789 225.544 169.789 224.84V219.832H171.869V218.824H169.789V215.448L168.669 216.008V218.824H167.277V219.832H168.669V225.32C168.669 226.392 169.117 227.192 170.285 227.192ZM174.719 217.144C175.151 217.144 175.455 216.824 175.455 216.408C175.455 215.976 175.151 215.64 174.719 215.64C174.303 215.64 173.983 215.976 173.983 216.408C173.983 216.824 174.303 217.144 174.719 217.144ZM174.159 227H175.279V218.824H174.159V227ZM183.214 227H184.334V222.472C184.334 219.768 183.406 218.632 181.406 218.632C180.542 218.632 179.806 218.984 179.294 219.72V218.824H178.174V227H179.294V221.976C179.294 220.2 180.158 219.64 181.31 219.64C182.398 219.64 183.214 220.28 183.214 222.008V227ZM189.432 230.408C191.432 230.328 193.272 229.56 193.272 226.872V218.824H192.152V219.592C191.88 219.272 191.224 218.632 189.976 218.632C187.976 218.632 186.568 220.216 186.568 222.904C186.568 225.752 188.152 227.192 189.911 227.192C191.032 227.192 191.688 226.76 192.152 226.072V227.32C192.152 228.44 191.576 229.384 188.92 229.528L189.432 230.408ZM190.168 226.184C188.776 226.184 187.736 225 187.736 222.904C187.736 220.808 188.552 219.64 190.168 219.64C190.76 219.64 191.688 220.072 192.152 220.888V224.824C191.704 225.672 190.84 226.184 190.168 226.184ZM201.718 229.08H202.79C202.326 228.392 200.87 226.104 200.87 222.456C200.87 218.872 202.406 216.296 202.966 215.608H201.894C200.822 216.888 199.766 219.064 199.766 222.456C199.766 225.848 200.742 227.8 201.718 229.08ZM205.524 215.8V227H209.492C212.244 227 213.06 225.384 213.06 223.864C213.06 222.328 212.116 221.4 210.9 221.096C211.956 220.696 212.66 219.864 212.66 218.728C212.66 217.272 211.86 215.8 209.236 215.8H205.524ZM208.964 220.696H206.644V216.808H209.332C211.204 216.808 211.62 217.784 211.62 218.696C211.62 219.912 210.724 220.696 208.964 220.696ZM209.684 225.992H206.644V221.672H209.156C211.444 221.672 212.02 222.776 212.02 223.96C212.02 224.984 211.524 225.992 209.684 225.992ZM218.572 227.192C220.668 227.192 222.076 225.592 222.076 222.904C222.076 220.184 220.668 218.632 218.572 218.632C216.476 218.632 215.068 220.232 215.068 222.92C215.068 225.64 216.476 227.192 218.572 227.192ZM218.572 226.184C217.052 226.184 216.236 224.952 216.236 222.92C216.236 220.792 217.052 219.64 218.572 219.64C220.092 219.64 220.908 220.872 220.908 222.904C220.908 224.952 220.06 226.184 218.572 226.184ZM229.097 227H230.137V221.464C230.137 219.144 228.585 218.632 227.417 218.632C226.297 218.632 225.209 219.112 224.553 219.528L224.873 220.488C225.481 220.072 226.489 219.608 227.305 219.608C228.217 219.608 229.097 219.96 229.097 221.608V222.296C228.297 221.864 227.577 221.72 226.889 221.72C225.337 221.72 223.913 222.536 223.913 224.424C223.913 226.264 225.049 227.192 226.697 227.192C227.577 227.192 228.441 226.792 229.097 226.2V227ZM226.809 226.216C225.625 226.216 224.953 225.496 224.953 224.424C224.953 223.24 225.897 222.696 227.001 222.696C227.705 222.696 228.569 223.016 229.097 223.368V224.952C228.601 225.56 227.801 226.216 226.809 226.216ZM232.69 227H233.81V222.376C233.81 220.36 234.978 219.752 235.794 219.752C236.322 219.752 236.642 219.928 236.85 220.056L237.026 218.968C236.802 218.808 236.386 218.632 235.874 218.632C234.866 218.632 234.178 219.192 233.81 219.976V218.824H232.69V227ZM241.6 227.192C242.624 227.192 243.28 226.792 243.776 226.296V227H244.896V215.448L243.776 216.008V219.4C243.28 219 242.608 218.632 241.6 218.632C239.52 218.632 238.224 220.216 238.224 222.904C238.224 225.512 239.504 227.192 241.6 227.192ZM241.728 226.184C240.288 226.184 239.392 224.728 239.392 222.904C239.392 220.808 240.224 219.64 241.728 219.64C242.768 219.64 243.44 220.28 243.776 220.824V224.904C243.328 225.72 242.544 226.184 241.728 226.184ZM247.384 229.08H248.456C249.432 227.8 250.408 225.848 250.408 222.456C250.408 219.064 249.352 216.888 248.28 215.608H247.208C247.768 216.296 249.304 218.872 249.304 222.456C249.304 226.104 247.848 228.392 247.384 229.08Z" fill="#26324E"/>
<path d="M287.933 219.069L287.933 219.069C287.709 218.844 287.347 218.844 287.123 219.069L283.5 222.712L279.877 219.069L279.806 219.138L279.877 219.069C279.653 218.844 279.291 218.844 279.067 219.069C278.844 219.293 278.844 219.656 279.067 219.881L283.095 223.931C283.207 224.044 283.354 224.1 283.5 224.1C283.646 224.1 283.793 224.044 283.905 223.931L287.933 219.881L287.862 219.81L287.933 219.881C288.156 219.656 288.156 219.293 287.933 219.069Z" fill="#8FA4B5" stroke="#8FA4B5" stroke-width="0.2"/>
<path d="M139.496 181H140.632L136.712 169.8H135.848L131.96 181H133.128L134.104 178.104H138.472L139.496 181ZM138.136 177.112H134.44L135.976 172.632C136.072 172.36 136.216 171.832 136.28 171.624C136.328 171.832 136.504 172.36 136.6 172.632L138.136 177.112ZM146.394 181.192C148.362 181.192 149.77 179.64 149.77 176.904C149.77 174.328 148.49 172.632 146.394 172.632C145.29 172.632 144.682 173.08 144.154 173.56V172.824H143.034V184.248L144.154 183.688V180.168C144.618 180.712 145.242 181.192 146.394 181.192ZM146.266 180.184C145.386 180.184 144.714 179.64 144.154 178.92V174.904C144.602 174.104 145.386 173.64 146.266 173.64C147.722 173.64 148.602 174.92 148.602 176.904C148.602 179.016 147.754 180.184 146.266 180.184ZM155.456 181.192C157.424 181.192 158.832 179.64 158.832 176.904C158.832 174.328 157.552 172.632 155.456 172.632C154.352 172.632 153.744 173.08 153.216 173.56V172.824H152.096V184.248L153.216 183.688V180.168C153.68 180.712 154.304 181.192 155.456 181.192ZM155.328 180.184C154.448 180.184 153.776 179.64 153.216 178.92V174.904C153.664 174.104 154.448 173.64 155.328 173.64C156.784 173.64 157.664 174.92 157.664 176.904C157.664 179.016 156.816 180.184 155.328 180.184ZM163.463 181.192C165.159 181.192 166.215 180.312 166.215 178.952C166.215 177.304 164.823 176.744 163.607 176.264C162.647 175.88 161.735 175.528 161.735 174.696C161.735 174.04 162.343 173.624 163.287 173.624C164.183 173.624 164.823 174.088 165.239 174.504L165.975 173.88C165.319 173.096 164.423 172.632 163.319 172.632C161.783 172.632 160.679 173.464 160.679 174.712C160.679 176.088 161.831 176.664 163.127 177.192C164.119 177.592 165.159 178.024 165.159 179.016C165.159 179.784 164.455 180.2 163.559 180.2C162.711 180.2 161.927 179.672 161.431 179.08L160.647 179.768C161.335 180.584 162.359 181.192 163.463 181.192Z" fill="#637381"/>
<path d="M316.5 205C316.5 203.067 318.067 201.5 320 201.5H485C486.933 201.5 488.5 203.067 488.5 205V237C488.5 238.933 486.933 240.5 485 240.5H320C318.067 240.5 316.5 238.933 316.5 237V205Z" fill="white" stroke="#DDE4E9"/>
<path d="M338.198 227H339.014L342.838 215.8H341.638L338.966 224.2C338.87 224.52 338.758 224.856 338.662 225.192C338.55 224.856 338.454 224.52 338.342 224.2L335.542 215.8H334.358L338.198 227ZM346.893 227.192C348.989 227.192 350.397 225.592 350.397 222.904C350.397 220.184 348.989 218.632 346.893 218.632C344.797 218.632 343.389 220.232 343.389 222.92C343.389 225.64 344.797 227.192 346.893 227.192ZM346.893 226.184C345.373 226.184 344.557 224.952 344.557 222.92C344.557 220.792 345.373 219.64 346.893 219.64C348.413 219.64 349.229 220.872 349.229 222.904C349.229 224.952 348.381 226.184 346.893 226.184ZM354.762 227.192C355.386 227.192 355.834 227.048 356.25 226.824L356.378 225.656C356.074 225.864 355.69 226.136 355.146 226.136C354.362 226.136 354.266 225.544 354.266 224.84V219.832H356.346V218.824H354.266V215.448L353.146 216.008V218.824H351.754V219.832H353.146V225.32C353.146 226.392 353.594 227.192 354.762 227.192ZM361.456 227.192C362.4 227.192 363.312 226.792 363.952 226.264L363.344 225.512C362.72 225.976 362.096 226.152 361.504 226.152C360.112 226.152 359.28 225.032 359.088 223.368H364.656C364.688 223.016 364.688 222.76 364.688 222.584C364.688 219.832 363.2 218.632 361.456 218.632C359.36 218.632 357.904 220.184 357.904 222.904C357.904 225.208 359.248 227.192 361.456 227.192ZM359.056 222.36C359.152 220.504 360.144 219.64 361.456 219.64C362.32 219.64 363.536 220.152 363.552 222.36H359.056ZM373.293 227.192C374.685 227.192 375.773 226.472 376.157 225.32L375.149 224.936C374.877 225.704 374.221 226.184 373.341 226.184C371.901 226.184 371.229 224.984 371.229 222.92C371.229 220.904 371.853 219.64 373.373 219.64C374.269 219.64 374.765 220.12 375.021 220.744L376.045 220.344C375.597 219.24 374.637 218.632 373.421 218.632C371.325 218.632 370.061 220.232 370.061 222.92C370.061 225.64 371.325 227.192 373.293 227.192ZM378.324 227H379.444V222.376C379.444 220.36 380.612 219.752 381.428 219.752C381.956 219.752 382.276 219.928 382.484 220.056L382.66 218.968C382.436 218.808 382.02 218.632 381.508 218.632C380.5 218.632 379.812 219.192 379.444 219.976V218.824H378.324V227ZM387.41 227.192C388.354 227.192 389.266 226.792 389.906 226.264L389.298 225.512C388.674 225.976 388.05 226.152 387.458 226.152C386.066 226.152 385.234 225.032 385.042 223.368H390.61C390.642 223.016 390.642 222.76 390.642 222.584C390.642 219.832 389.154 218.632 387.41 218.632C385.314 218.632 383.858 220.184 383.858 222.904C383.858 225.208 385.202 227.192 387.41 227.192ZM385.01 222.36C385.106 220.504 386.098 219.64 387.41 219.64C388.274 219.64 389.49 220.152 389.506 222.36H385.01ZM397.59 227H398.63V221.464C398.63 219.144 397.078 218.632 395.91 218.632C394.79 218.632 393.702 219.112 393.046 219.528L393.366 220.488C393.974 220.072 394.982 219.608 395.798 219.608C396.71 219.608 397.59 219.96 397.59 221.608V222.296C396.79 221.864 396.07 221.72 395.382 221.72C393.83 221.72 392.406 222.536 392.406 224.424C392.406 226.264 393.542 227.192 395.19 227.192C396.07 227.192 396.934 226.792 397.59 226.2V227ZM395.302 226.216C394.118 226.216 393.446 225.496 393.446 224.424C393.446 223.24 394.39 222.696 395.494 222.696C396.198 222.696 397.062 223.016 397.59 223.368V224.952C397.094 225.56 396.294 226.216 395.302 226.216ZM403.231 227.192C403.855 227.192 404.303 227.048 404.719 226.824L404.847 225.656C404.543 225.864 404.159 226.136 403.615 226.136C402.831 226.136 402.735 225.544 402.735 224.84V219.832H404.815V218.824H402.735V215.448L401.615 216.008V218.824H400.223V219.832H401.615V225.32C401.615 226.392 402.063 227.192 403.231 227.192ZM409.925 227.192C410.869 227.192 411.781 226.792 412.421 226.264L411.813 225.512C411.189 225.976 410.565 226.152 409.973 226.152C408.581 226.152 407.749 225.032 407.557 223.368H413.125C413.157 223.016 413.157 222.76 413.157 222.584C413.157 219.832 411.669 218.632 409.925 218.632C407.829 218.632 406.373 220.184 406.373 222.904C406.373 225.208 407.717 227.192 409.925 227.192ZM407.525 222.36C407.621 220.504 408.613 219.64 409.925 219.64C410.789 219.64 412.005 220.152 412.021 222.36H407.525ZM418.218 227.192C419.242 227.192 419.898 226.792 420.394 226.296V227H421.514V215.448L420.394 216.008V219.4C419.898 219 419.226 218.632 418.218 218.632C416.138 218.632 414.842 220.216 414.842 222.904C414.842 225.512 416.122 227.192 418.218 227.192ZM418.346 226.184C416.906 226.184 416.01 224.728 416.01 222.904C416.01 220.808 416.842 219.64 418.346 219.64C419.386 219.64 420.058 220.28 420.394 220.824V224.904C419.946 225.72 419.162 226.184 418.346 226.184Z" fill="#26324E"/>
<path d="M469.847 221.069L469.847 221.069C469.625 220.844 469.265 220.844 469.043 221.069L465.456 224.711L461.869 221.069L461.798 221.139L461.869 221.069C461.647 220.844 461.287 220.844 461.066 221.069C460.845 221.293 460.845 221.656 461.066 221.881L465.054 225.931C465.165 226.044 465.311 226.1 465.456 226.1C465.602 226.1 465.747 226.044 465.858 225.931L469.847 221.881L469.775 221.81L469.847 221.88C470.068 221.656 470.068 221.293 469.847 221.069Z" fill="#8FA4B5" stroke="#8FA4B5" stroke-width="0.2"/>
<path d="M317.68 181H324.416V179.928H318.8V175.736H322.352V174.68H318.8V170.872H324.064V169.8H317.68V181ZM329.163 181H329.947L332.939 172.824H331.819L329.883 178.392C329.787 178.68 329.691 178.936 329.595 179.256C329.499 178.936 329.403 178.68 329.307 178.392L327.323 172.824H326.171L329.163 181ZM338.01 181.192C338.954 181.192 339.866 180.792 340.506 180.264L339.898 179.512C339.274 179.976 338.65 180.152 338.058 180.152C336.666 180.152 335.834 179.032 335.642 177.368H341.21C341.242 177.016 341.242 176.76 341.242 176.584C341.242 173.832 339.754 172.632 338.01 172.632C335.914 172.632 334.458 174.184 334.458 176.904C334.458 179.208 335.802 181.192 338.01 181.192ZM335.61 176.36C335.706 174.504 336.698 173.64 338.01 173.64C338.874 173.64 340.09 174.152 340.106 176.36H335.61ZM348.527 181H349.647V176.472C349.647 173.768 348.719 172.632 346.719 172.632C345.855 172.632 345.119 172.984 344.607 173.72V172.824H343.487V181H344.607V175.976C344.607 174.2 345.471 173.64 346.623 173.64C347.711 173.64 348.527 174.28 348.527 176.008V181ZM354.488 181.192C355.112 181.192 355.56 181.048 355.976 180.824L356.104 179.656C355.8 179.864 355.416 180.136 354.872 180.136C354.088 180.136 353.992 179.544 353.992 178.84V173.832H356.072V172.824H353.992V169.448L352.872 170.008V172.824H351.48V173.832H352.872V179.32C352.872 180.392 353.32 181.192 354.488 181.192ZM360.65 181.192C362.346 181.192 363.402 180.312 363.402 178.952C363.402 177.304 362.01 176.744 360.794 176.264C359.834 175.88 358.922 175.528 358.922 174.696C358.922 174.04 359.53 173.624 360.474 173.624C361.37 173.624 362.01 174.088 362.426 174.504L363.162 173.88C362.506 173.096 361.61 172.632 360.506 172.632C358.97 172.632 357.866 173.464 357.866 174.712C357.866 176.088 359.018 176.664 360.314 177.192C361.306 177.592 362.346 178.024 362.346 179.016C362.346 179.784 361.642 180.2 360.746 180.2C359.898 180.2 359.114 179.672 358.618 179.08L357.834 179.768C358.522 180.584 359.546 181.192 360.65 181.192Z" fill="#637381"/>
<g filter="url(#filter3_d)">
<path d="M246 297C246 290.373 251.373 285 258 285H644C650.627 285 656 290.373 656 297V505C656 511.627 650.627 517 644 517H258C251.373 517 246 511.627 246 505V297Z" fill="white"/>
</g>
<path d="M277.436 327.216C279.812 327.216 281.576 325.902 281.576 323.58C281.576 321.096 279.524 320.178 277.76 319.512C276.338 318.99 275.042 318.468 275.042 317.298C275.042 316.272 275.852 315.642 277.184 315.642C278.426 315.642 279.236 316.218 279.542 316.92L280.982 316.434C280.604 315.138 279.29 314.184 277.292 314.184C274.844 314.184 273.422 315.606 273.422 317.298C273.422 319.494 275.348 320.304 277.112 320.952C278.588 321.492 279.956 322.158 279.956 323.616C279.956 325.002 278.984 325.74 277.472 325.74C276.086 325.74 275.024 324.984 274.52 323.868L273.044 324.408C273.602 326.028 275.24 327.216 277.436 327.216ZM289.669 327H291.235V317.802H289.669V323.382C289.669 325.182 288.751 325.758 287.545 325.758C286.411 325.758 285.565 325.092 285.565 323.346V317.802H283.999V323.112C283.999 326.064 285.187 327.216 287.347 327.216C288.319 327.216 289.057 326.91 289.669 326.118V327ZM297.976 327.216C300.316 327.216 301.738 325.506 301.738 322.392C301.738 319.368 300.208 317.586 297.922 317.586C296.968 317.586 296.14 318.018 295.618 318.594V314.004L294.052 314.742V327H295.618V326.208C296.158 326.73 296.806 327.216 297.976 327.216ZM297.76 325.758C296.896 325.758 296.068 325.29 295.618 324.516V320.25C295.924 319.728 296.716 319.026 297.76 319.026C299.326 319.026 300.136 320.232 300.136 322.392C300.136 324.462 299.344 325.758 297.76 325.758ZM306.697 327.216C308.695 327.216 309.973 326.262 309.973 324.606C309.973 322.86 308.659 322.14 306.985 321.546C305.959 321.132 305.041 320.79 305.041 320.016C305.041 319.368 305.635 318.99 306.571 318.99C307.561 318.99 308.209 319.458 308.605 319.872L309.685 318.972C309.019 318.18 307.993 317.586 306.589 317.586C304.825 317.586 303.493 318.504 303.493 320.016C303.493 321.528 304.645 322.266 306.337 322.896C307.417 323.31 308.443 323.724 308.443 324.642C308.443 325.452 307.705 325.812 306.733 325.812C305.743 325.812 304.951 325.218 304.483 324.714L303.367 325.668C304.087 326.586 305.347 327.216 306.697 327.216ZM315.513 327.216C317.205 327.216 318.429 326.37 318.879 324.858L317.421 324.372C317.151 325.236 316.467 325.74 315.549 325.74C314.073 325.74 313.299 324.498 313.299 322.41C313.299 320.34 314.037 319.044 315.603 319.044C316.503 319.044 317.061 319.566 317.331 320.268L318.807 319.728C318.285 318.288 317.115 317.586 315.585 317.586C313.173 317.586 311.697 319.386 311.697 322.41C311.697 325.452 313.173 327.216 315.513 327.216ZM321.057 327H322.623V321.816C322.623 319.728 323.793 319.134 324.675 319.134C325.305 319.134 325.701 319.332 325.989 319.53L326.223 318.054C325.899 317.784 325.395 317.586 324.801 317.586C323.775 317.586 323.037 318.09 322.623 319.008V317.802H321.057V327ZM328.577 316.128C329.135 316.128 329.567 315.696 329.567 315.156C329.567 314.598 329.135 314.148 328.577 314.148C328.037 314.148 327.605 314.598 327.605 315.156C327.605 315.696 328.037 316.128 328.577 316.128ZM327.803 327H329.369V317.802H327.803V327ZM336.099 327.216C338.331 327.216 339.897 325.452 339.897 322.392C339.897 319.44 338.439 317.586 336.099 317.586C334.947 317.586 334.281 318.036 333.741 318.576V317.802H332.175V330.636L333.741 329.898V326.136C334.227 326.712 334.911 327.216 336.099 327.216ZM335.901 325.758C334.965 325.758 334.263 325.2 333.741 324.516V320.268C334.191 319.476 334.965 319.026 335.901 319.026C337.413 319.026 338.295 320.394 338.295 322.392C338.295 324.57 337.431 325.758 335.901 325.758ZM344.64 327.216C345.36 327.216 345.918 327.054 346.404 326.802L346.584 325.272C346.188 325.524 345.738 325.758 345.216 325.758C344.406 325.758 344.262 325.2 344.262 324.498V319.17H346.53V317.802H344.262V314.004L342.696 314.76V317.802H341.202V319.17H342.696V325.02C342.696 326.316 343.254 327.216 344.64 327.216ZM349.5 316.128C350.058 316.128 350.49 315.696 350.49 315.156C350.49 314.598 350.058 314.148 349.5 314.148C348.96 314.148 348.528 314.598 348.528 315.156C348.528 315.696 348.96 316.128 349.5 316.128ZM348.726 327H350.292V317.802H348.726V327ZM356.626 327.216C359.092 327.216 360.694 325.416 360.694 322.392C360.694 319.35 359.092 317.586 356.626 317.586C354.16 317.586 352.558 319.386 352.558 322.41C352.558 325.452 354.16 327.216 356.626 327.216ZM356.626 325.758C355.06 325.758 354.142 324.498 354.142 322.41C354.142 320.268 355.06 319.026 356.626 319.026C358.192 319.026 359.11 320.304 359.11 322.392C359.11 324.498 358.174 325.758 356.626 325.758ZM368.625 327H370.191V321.708C370.191 318.738 368.985 317.586 366.897 317.586C365.907 317.586 365.097 317.946 364.521 318.738V317.802H362.955V327H364.521V321.402C364.521 319.62 365.439 319.026 366.645 319.026C367.779 319.026 368.625 319.692 368.625 321.438V327ZM375.636 327.216C377.634 327.216 378.912 326.262 378.912 324.606C378.912 322.86 377.598 322.14 375.924 321.546C374.898 321.132 373.98 320.79 373.98 320.016C373.98 319.368 374.574 318.99 375.51 318.99C376.5 318.99 377.148 319.458 377.544 319.872L378.624 318.972C377.958 318.18 376.932 317.586 375.528 317.586C373.764 317.586 372.432 318.504 372.432 320.016C372.432 321.528 373.584 322.266 375.276 322.896C376.356 323.31 377.382 323.724 377.382 324.642C377.382 325.452 376.644 325.812 375.672 325.812C374.682 325.812 373.89 325.218 373.422 324.714L372.306 325.668C373.026 326.586 374.286 327.216 375.636 327.216Z" fill="#212B36"/>
<path d="M318.468 369H319.536L316.56 360.6H315.588L312.612 369H313.704L314.412 366.948H317.748L318.468 369ZM317.424 366.024H314.724L315.816 362.916C315.9 362.676 316.02 362.28 316.08 362.064C316.128 362.28 316.26 362.676 316.344 362.916L317.424 366.024ZM321.286 369H322.33V365.628H324.502C326.47 365.628 327.214 364.272 327.214 363.12C327.214 361.872 326.542 360.6 324.502 360.6H321.286V369ZM324.574 364.656H322.33V361.572H324.574C325.834 361.572 326.17 362.46 326.17 363.12C326.17 363.84 325.762 364.656 324.574 364.656ZM329.045 369H330.089V365.628H332.261C334.229 365.628 334.973 364.272 334.973 363.12C334.973 361.872 334.301 360.6 332.261 360.6H329.045V369ZM332.333 364.656H330.089V361.572H332.333C333.593 361.572 333.929 362.46 333.929 363.12C333.929 363.84 333.521 364.656 332.333 364.656Z" fill="#637381"/>
<path d="M588.182 369H593.438V368.004H589.226V365.148H591.83V364.164H589.226V361.584H593.174V360.6H588.182V369ZM597.787 369H598.711L601.579 360.6H600.463L598.519 366.672C598.447 366.912 598.351 367.212 598.279 367.524C598.195 367.212 598.099 366.912 598.027 366.672L596.023 360.6H594.907L597.787 369ZM603.324 369H608.58V368.004H604.368V365.148H606.972V364.164H604.368V361.584H608.316V360.6H603.324V369ZM616.851 369V360.6H615.807V366.588C615.807 366.78 615.819 366.984 615.831 367.2C615.711 366.972 615.603 366.78 615.483 366.576L611.763 360.6H610.707V369H611.751V363C611.751 362.808 611.739 362.592 611.727 362.412C611.835 362.616 611.955 362.82 612.063 363L615.843 369H616.851ZM622.248 361.596H624.588V360.6H618.864V361.596H621.204V369H622.248V361.596Z" fill="#637381"/>
<path d="M316.72 421H317.536L321.36 409.8H320.16L317.488 418.2C317.392 418.52 317.28 418.856 317.184 419.192C317.072 418.856 316.976 418.52 316.864 418.2L314.064 409.8H312.88L316.72 421ZM325.415 421.192C327.511 421.192 328.919 419.592 328.919 416.904C328.919 414.184 327.511 412.632 325.415 412.632C323.319 412.632 321.911 414.232 321.911 416.92C321.911 419.64 323.319 421.192 325.415 421.192ZM325.415 420.184C323.895 420.184 323.079 418.952 323.079 416.92C323.079 414.792 323.895 413.64 325.415 413.64C326.935 413.64 327.751 414.872 327.751 416.904C327.751 418.952 326.903 420.184 325.415 420.184ZM333.285 421.192C333.909 421.192 334.357 421.048 334.773 420.824L334.901 419.656C334.597 419.864 334.213 420.136 333.669 420.136C332.885 420.136 332.789 419.544 332.789 418.84V413.832H334.869V412.824H332.789V409.448L331.669 410.008V412.824H330.277V413.832H331.669V419.32C331.669 420.392 332.117 421.192 333.285 421.192ZM337.719 411.144C338.151 411.144 338.455 410.824 338.455 410.408C338.455 409.976 338.151 409.64 337.719 409.64C337.303 409.64 336.983 409.976 336.983 410.408C336.983 410.824 337.303 411.144 337.719 411.144ZM337.159 421H338.279V412.824H337.159V421ZM346.214 421H347.334V416.472C347.334 413.768 346.406 412.632 344.406 412.632C343.542 412.632 342.806 412.984 342.294 413.72V412.824H341.174V421H342.294V415.976C342.294 414.2 343.158 413.64 344.31 413.64C345.398 413.64 346.214 414.28 346.214 416.008V421ZM352.432 424.408C354.432 424.328 356.272 423.56 356.272 420.872V412.824H355.152V413.592C354.88 413.272 354.224 412.632 352.976 412.632C350.976 412.632 349.568 414.216 349.568 416.904C349.568 419.752 351.152 421.192 352.911 421.192C354.032 421.192 354.688 420.76 355.152 420.072V421.32C355.152 422.44 354.576 423.384 351.92 423.528L352.432 424.408ZM353.168 420.184C351.776 420.184 350.736 419 350.736 416.904C350.736 414.808 351.552 413.64 353.168 413.64C353.76 413.64 354.688 414.072 355.152 414.888V418.824C354.704 419.672 353.84 420.184 353.168 420.184ZM364.718 423.08H365.79C365.326 422.392 363.87 420.104 363.87 416.456C363.87 412.872 365.406 410.296 365.966 409.608H364.894C363.822 410.888 362.766 413.064 362.766 416.456C362.766 419.848 363.742 421.8 364.718 423.08ZM368.524 409.8V421H372.492C375.244 421 376.06 419.384 376.06 417.864C376.06 416.328 375.116 415.4 373.9 415.096C374.956 414.696 375.66 413.864 375.66 412.728C375.66 411.272 374.86 409.8 372.236 409.8H368.524ZM371.964 414.696H369.644V410.808H372.332C374.204 410.808 374.62 411.784 374.62 412.696C374.62 413.912 373.724 414.696 371.964 414.696ZM372.684 419.992H369.644V415.672H372.156C374.444 415.672 375.02 416.776 375.02 417.96C375.02 418.984 374.524 419.992 372.684 419.992ZM381.572 421.192C383.668 421.192 385.076 419.592 385.076 416.904C385.076 414.184 383.668 412.632 381.572 412.632C379.476 412.632 378.068 414.232 378.068 416.92C378.068 419.64 379.476 421.192 381.572 421.192ZM381.572 420.184C380.052 420.184 379.236 418.952 379.236 416.92C379.236 414.792 380.052 413.64 381.572 413.64C383.092 413.64 383.908 414.872 383.908 416.904C383.908 418.952 383.06 420.184 381.572 420.184ZM392.097 421H393.137V415.464C393.137 413.144 391.585 412.632 390.417 412.632C389.297 412.632 388.209 413.112 387.553 413.528L387.873 414.488C388.481 414.072 389.489 413.608 390.305 413.608C391.217 413.608 392.097 413.96 392.097 415.608V416.296C391.297 415.864 390.577 415.72 389.889 415.72C388.337 415.72 386.913 416.536 386.913 418.424C386.913 420.264 388.049 421.192 389.697 421.192C390.577 421.192 391.441 420.792 392.097 420.2V421ZM389.809 420.216C388.625 420.216 387.953 419.496 387.953 418.424C387.953 417.24 388.897 416.696 390.001 416.696C390.705 416.696 391.569 417.016 392.097 417.368V418.952C391.601 419.56 390.801 420.216 389.809 420.216ZM395.69 421H396.81V416.376C396.81 414.36 397.978 413.752 398.794 413.752C399.322 413.752 399.642 413.928 399.85 414.056L400.026 412.968C399.802 412.808 399.386 412.632 398.874 412.632C397.866 412.632 397.178 413.192 396.81 413.976V412.824H395.69V421ZM404.6 421.192C405.624 421.192 406.28 420.792 406.776 420.296V421H407.896V409.448L406.776 410.008V413.4C406.28 413 405.608 412.632 404.6 412.632C402.52 412.632 401.224 414.216 401.224 416.904C401.224 419.512 402.504 421.192 404.6 421.192ZM404.728 420.184C403.288 420.184 402.392 418.728 402.392 416.904C402.392 414.808 403.224 413.64 404.728 413.64C405.768 413.64 406.44 414.28 406.776 414.824V418.904C406.328 419.72 405.544 420.184 404.728 420.184ZM410.384 423.08H411.456C412.432 421.8 413.408 419.848 413.408 416.456C413.408 413.064 412.352 410.888 411.28 409.608H410.208C410.768 410.296 412.304 412.872 412.304 416.456C412.304 420.104 410.848 422.392 410.384 423.08Z" fill="#26324E"/>
<path d="M540.251 421H541.067L544.891 409.8H543.691L541.019 418.2C540.923 418.52 540.811 418.856 540.715 419.192C540.603 418.856 540.507 418.52 540.395 418.2L537.595 409.8H536.411L540.251 421ZM548.947 421.192C551.043 421.192 552.451 419.592 552.451 416.904C552.451 414.184 551.043 412.632 548.947 412.632C546.851 412.632 545.443 414.232 545.443 416.92C545.443 419.64 546.851 421.192 548.947 421.192ZM548.947 420.184C547.427 420.184 546.611 418.952 546.611 416.92C546.611 414.792 547.427 413.64 548.947 413.64C550.467 413.64 551.283 414.872 551.283 416.904C551.283 418.952 550.435 420.184 548.947 420.184ZM556.816 421.192C557.44 421.192 557.888 421.048 558.304 420.824L558.432 419.656C558.128 419.864 557.744 420.136 557.2 420.136C556.416 420.136 556.32 419.544 556.32 418.84V413.832H558.4V412.824H556.32V409.448L555.2 410.008V412.824H553.808V413.832H555.2V419.32C555.2 420.392 555.648 421.192 556.816 421.192ZM563.51 421.192C564.454 421.192 565.366 420.792 566.006 420.264L565.398 419.512C564.774 419.976 564.15 420.152 563.558 420.152C562.166 420.152 561.334 419.032 561.142 417.368H566.71C566.742 417.016 566.742 416.76 566.742 416.584C566.742 413.832 565.254 412.632 563.51 412.632C561.414 412.632 559.958 414.184 559.958 416.904C559.958 419.208 561.302 421.192 563.51 421.192ZM561.11 416.36C561.206 414.504 562.198 413.64 563.51 413.64C564.374 413.64 565.59 414.152 565.606 416.36H561.11ZM575.346 421.192C576.738 421.192 577.826 420.472 578.21 419.32L577.202 418.936C576.93 419.704 576.274 420.184 575.394 420.184C573.954 420.184 573.282 418.984 573.282 416.92C573.282 414.904 573.906 413.64 575.426 413.64C576.322 413.64 576.818 414.12 577.074 414.744L578.098 414.344C577.65 413.24 576.69 412.632 575.474 412.632C573.378 412.632 572.114 414.232 572.114 416.92C572.114 419.64 573.378 421.192 575.346 421.192ZM580.378 421H581.498V416.376C581.498 414.36 582.666 413.752 583.482 413.752C584.01 413.752 584.33 413.928 584.538 414.056L584.714 412.968C584.49 412.808 584.074 412.632 583.562 412.632C582.554 412.632 581.866 413.192 581.498 413.976V412.824H580.378V421ZM589.463 421.192C590.407 421.192 591.319 420.792 591.959 420.264L591.351 419.512C590.727 419.976 590.103 420.152 589.511 420.152C588.119 420.152 587.287 419.032 587.095 417.368H592.663C592.695 417.016 592.695 416.76 592.695 416.584C592.695 413.832 591.207 412.632 589.463 412.632C587.367 412.632 585.911 414.184 585.911 416.904C585.911 419.208 587.255 421.192 589.463 421.192ZM587.063 416.36C587.159 414.504 588.151 413.64 589.463 413.64C590.327 413.64 591.543 414.152 591.559 416.36H587.063ZM599.644 421H600.684V415.464C600.684 413.144 599.132 412.632 597.964 412.632C596.844 412.632 595.756 413.112 595.1 413.528L595.42 414.488C596.028 414.072 597.036 413.608 597.852 413.608C598.764 413.608 599.644 413.96 599.644 415.608V416.296C598.844 415.864 598.124 415.72 597.436 415.72C595.884 415.72 594.46 416.536 594.46 418.424C594.46 420.264 595.596 421.192 597.244 421.192C598.124 421.192 598.988 420.792 599.644 420.2V421ZM597.356 420.216C596.172 420.216 595.5 419.496 595.5 418.424C595.5 417.24 596.444 416.696 597.548 416.696C598.252 416.696 599.116 417.016 599.644 417.368V418.952C599.148 419.56 598.348 420.216 597.356 420.216ZM605.285 421.192C605.909 421.192 606.357 421.048 606.773 420.824L606.901 419.656C606.597 419.864 606.213 420.136 605.669 420.136C604.885 420.136 604.789 419.544 604.789 418.84V413.832H606.869V412.824H604.789V409.448L603.669 410.008V412.824H602.277V413.832H603.669V419.32C603.669 420.392 604.117 421.192 605.285 421.192ZM611.979 421.192C612.923 421.192 613.835 420.792 614.475 420.264L613.867 419.512C613.243 419.976 612.619 420.152 612.027 420.152C610.635 420.152 609.803 419.032 609.611 417.368H615.179C615.211 417.016 615.211 416.76 615.211 416.584C615.211 413.832 613.723 412.632 611.979 412.632C609.883 412.632 608.427 414.184 608.427 416.904C608.427 419.208 609.771 421.192 611.979 421.192ZM609.579 416.36C609.675 414.504 610.667 413.64 611.979 413.64C612.843 413.64 614.059 414.152 614.075 416.36H609.579ZM620.272 421.192C621.296 421.192 621.952 420.792 622.448 420.296V421H623.568V409.448L622.448 410.008V413.4C621.952 413 621.28 412.632 620.272 412.632C618.192 412.632 616.896 414.216 616.896 416.904C616.896 419.512 618.176 421.192 620.272 421.192ZM620.4 420.184C618.96 420.184 618.064 418.728 618.064 416.904C618.064 414.808 618.896 413.64 620.4 413.64C621.44 413.64 622.112 414.28 622.448 414.824V418.904C622 419.72 621.216 420.184 620.4 420.184Z" fill="#26324E"/>
<path d="M313.68 486H314.8V480.736H318.464V479.68H314.8V475.872H320.224V474.8H313.68V486ZM323.047 476.144C323.479 476.144 323.783 475.824 323.783 475.408C323.783 474.976 323.479 474.64 323.047 474.64C322.631 474.64 322.311 474.976 322.311 475.408C322.311 475.824 322.631 476.144 323.047 476.144ZM322.487 486H323.607V477.824H322.487V486ZM331.543 486H332.663V481.472C332.663 478.768 331.735 477.632 329.735 477.632C328.871 477.632 328.135 477.984 327.623 478.72V477.824H326.503V486H327.623V480.976C327.623 479.2 328.487 478.64 329.639 478.64C330.727 478.64 331.543 479.28 331.543 481.008V486ZM340.16 486H341.2V480.464C341.2 478.144 339.648 477.632 338.48 477.632C337.36 477.632 336.272 478.112 335.616 478.528L335.936 479.488C336.544 479.072 337.552 478.608 338.368 478.608C339.28 478.608 340.16 478.96 340.16 480.608V481.296C339.36 480.864 338.64 480.72 337.952 480.72C336.4 480.72 334.976 481.536 334.976 483.424C334.976 485.264 336.112 486.192 337.76 486.192C338.64 486.192 339.504 485.792 340.16 485.2V486ZM337.872 485.216C336.688 485.216 336.016 484.496 336.016 483.424C336.016 482.24 336.96 481.696 338.064 481.696C338.768 481.696 339.632 482.016 340.16 482.368V483.952C339.664 484.56 338.864 485.216 337.872 485.216ZM348.793 486H349.913V481.472C349.913 478.768 348.985 477.632 346.985 477.632C346.121 477.632 345.385 477.984 344.873 478.72V477.824H343.753V486H344.873V480.976C344.873 479.2 345.737 478.64 346.889 478.64C347.977 478.64 348.793 479.28 348.793 481.008V486ZM355.378 486.192C356.77 486.192 357.858 485.472 358.242 484.32L357.234 483.936C356.962 484.704 356.306 485.184 355.426 485.184C353.986 485.184 353.314 483.984 353.314 481.92C353.314 479.904 353.938 478.64 355.458 478.64C356.354 478.64 356.85 479.12 357.106 479.744L358.13 479.344C357.682 478.24 356.722 477.632 355.506 477.632C353.41 477.632 352.146 479.232 352.146 481.92C352.146 484.64 353.41 486.192 355.378 486.192ZM363.401 486.192C364.345 486.192 365.257 485.792 365.897 485.264L365.289 484.512C364.665 484.976 364.041 485.152 363.449 485.152C362.057 485.152 361.225 484.032 361.033 482.368H366.601C366.633 482.016 366.633 481.76 366.633 481.584C366.633 478.832 365.145 477.632 363.401 477.632C361.305 477.632 359.849 479.184 359.849 481.904C359.849 484.208 361.193 486.192 363.401 486.192ZM361.001 481.36C361.097 479.504 362.089 478.64 363.401 478.64C364.265 478.64 365.481 479.152 365.497 481.36H361.001Z" fill="#26324E"/>
<path d="M480.397 486V474.8H479.277V483.28V484.064C479.117 483.776 478.973 483.536 478.813 483.28L473.613 474.8H472.477V486H473.597V477.616V476.864C473.741 477.12 473.901 477.376 474.045 477.616L479.261 486H480.397ZM486.51 486.192C487.454 486.192 488.366 485.792 489.006 485.264L488.398 484.512C487.774 484.976 487.15 485.152 486.558 485.152C485.166 485.152 484.334 484.032 484.142 482.368H489.71C489.742 482.016 489.742 481.76 489.742 481.584C489.742 478.832 488.254 477.632 486.51 477.632C484.414 477.632 482.958 479.184 482.958 481.904C482.958 484.208 484.302 486.192 486.51 486.192ZM484.11 481.36C484.206 479.504 485.198 478.64 486.51 478.64C487.374 478.64 488.59 479.152 488.606 481.36H484.11ZM493.047 486H494.071L495.671 481.04C495.751 480.784 495.879 480.384 496.007 479.952C496.135 480.384 496.279 480.8 496.359 481.056L497.991 486H498.999L501.015 477.824H499.895L498.599 483.712C498.535 484.032 498.455 484.352 498.391 484.688C498.295 484.352 498.215 484.032 498.119 483.712L496.407 477.824H495.639L493.927 483.712C493.847 484.016 493.767 484.288 493.687 484.608L493.495 483.712L492.151 477.824H491.031L493.047 486ZM510.144 486.192C512.112 486.192 513.52 484.64 513.52 481.904C513.52 479.328 512.24 477.632 510.144 477.632C509.04 477.632 508.432 478.08 507.904 478.56V477.824H506.784V489.248L507.904 488.688V485.168C508.368 485.712 508.992 486.192 510.144 486.192ZM510.016 485.184C509.136 485.184 508.464 484.64 507.904 483.92V479.904C508.352 479.104 509.136 478.64 510.016 478.64C511.472 478.64 512.352 479.92 512.352 481.904C512.352 484.016 511.504 485.184 510.016 485.184ZM520.55 486H521.59V480.464C521.59 478.144 520.038 477.632 518.87 477.632C517.75 477.632 516.662 478.112 516.006 478.528L516.326 479.488C516.934 479.072 517.942 478.608 518.758 478.608C519.67 478.608 520.55 478.96 520.55 480.608V481.296C519.75 480.864 519.03 480.72 518.342 480.72C516.79 480.72 515.366 481.536 515.366 483.424C515.366 485.264 516.502 486.192 518.15 486.192C519.03 486.192 519.894 485.792 520.55 485.2V486ZM518.262 485.216C517.078 485.216 516.406 484.496 516.406 483.424C516.406 482.24 517.35 481.696 518.454 481.696C519.158 481.696 520.022 482.016 520.55 482.368V483.952C520.054 484.56 519.254 485.216 518.262 485.216ZM524.807 489.104H525.911L530.087 477.824H528.887L526.791 483.632L526.503 484.464C526.407 484.176 526.327 483.904 526.231 483.632L524.167 477.824H523.031L526.023 485.744L524.807 489.104ZM541.742 486H542.862V480.56C542.862 478.768 541.646 477.632 540.062 477.632C539.006 477.632 538.174 478.192 537.726 478.88C537.262 478.096 536.382 477.632 535.518 477.632C534.622 477.632 533.838 477.984 533.294 478.624V477.824H532.174V486H533.294V480.864C533.294 479.6 533.918 478.64 535.182 478.64C536.718 478.64 536.958 479.968 536.958 480.992V486H538.078V480.992C538.078 479.728 538.734 478.64 539.966 478.64C541.502 478.64 541.742 479.968 541.742 480.992V486ZM548.651 486.192C549.595 486.192 550.507 485.792 551.147 485.264L550.539 484.512C549.915 484.976 549.291 485.152 548.699 485.152C547.307 485.152 546.475 484.032 546.283 482.368H551.851C551.883 482.016 551.883 481.76 551.883 481.584C551.883 478.832 550.395 477.632 548.651 477.632C546.555 477.632 545.099 479.184 545.099 481.904C545.099 484.208 546.443 486.192 548.651 486.192ZM546.251 481.36C546.347 479.504 547.339 478.64 548.651 478.64C549.515 478.64 550.731 479.152 550.747 481.36H546.251ZM559.168 486H560.288V481.472C560.288 478.768 559.36 477.632 557.36 477.632C556.496 477.632 555.76 477.984 555.248 478.72V477.824H554.128V486H555.248V480.976C555.248 479.2 556.112 478.64 557.264 478.64C558.352 478.64 559.168 479.28 559.168 481.008V486ZM565.129 486.192C565.753 486.192 566.201 486.048 566.617 485.824L566.745 484.656C566.441 484.864 566.057 485.136 565.513 485.136C564.729 485.136 564.633 484.544 564.633 483.84V478.832H566.713V477.824H564.633V474.448L563.513 475.008V477.824H562.121V478.832H563.513V484.32C563.513 485.392 563.961 486.192 565.129 486.192ZM575.346 486.192C576.738 486.192 577.826 485.472 578.21 484.32L577.202 483.936C576.93 484.704 576.274 485.184 575.394 485.184C573.954 485.184 573.282 483.984 573.282 481.92C573.282 479.904 573.906 478.64 575.426 478.64C576.322 478.64 576.818 479.12 577.074 479.744L578.098 479.344C577.65 478.24 576.69 477.632 575.474 477.632C573.378 477.632 572.114 479.232 572.114 481.92C572.114 484.64 573.378 486.192 575.346 486.192ZM580.378 486H581.498V481.376C581.498 479.36 582.666 478.752 583.482 478.752C584.01 478.752 584.33 478.928 584.538 479.056L584.714 477.968C584.49 477.808 584.074 477.632 583.562 477.632C582.554 477.632 581.866 478.192 581.498 478.976V477.824H580.378V486ZM589.463 486.192C590.407 486.192 591.319 485.792 591.959 485.264L591.351 484.512C590.727 484.976 590.103 485.152 589.511 485.152C588.119 485.152 587.287 484.032 587.095 482.368H592.663C592.695 482.016 592.695 481.76 592.695 481.584C592.695 478.832 591.207 477.632 589.463 477.632C587.367 477.632 585.911 479.184 585.911 481.904C585.911 484.208 587.255 486.192 589.463 486.192ZM587.063 481.36C587.159 479.504 588.151 478.64 589.463 478.64C590.327 478.64 591.543 479.152 591.559 481.36H587.063ZM599.644 486H600.684V480.464C600.684 478.144 599.132 477.632 597.964 477.632C596.844 477.632 595.756 478.112 595.1 478.528L595.42 479.488C596.028 479.072 597.036 478.608 597.852 478.608C598.764 478.608 599.644 478.96 599.644 480.608V481.296C598.844 480.864 598.124 480.72 597.436 480.72C595.884 480.72 594.46 481.536 594.46 483.424C594.46 485.264 595.596 486.192 597.244 486.192C598.124 486.192 598.988 485.792 599.644 485.2V486ZM597.356 485.216C596.172 485.216 595.5 484.496 595.5 483.424C595.5 482.24 596.444 481.696 597.548 481.696C598.252 481.696 599.116 482.016 599.644 482.368V483.952C599.148 484.56 598.348 485.216 597.356 485.216ZM605.285 486.192C605.909 486.192 606.357 486.048 606.773 485.824L606.901 484.656C606.597 484.864 606.213 485.136 605.669 485.136C604.885 485.136 604.789 484.544 604.789 483.84V478.832H606.869V477.824H604.789V474.448L603.669 475.008V477.824H602.277V478.832H603.669V484.32C603.669 485.392 604.117 486.192 605.285 486.192ZM611.979 486.192C612.923 486.192 613.835 485.792 614.475 485.264L613.867 484.512C613.243 484.976 612.619 485.152 612.027 485.152C610.635 485.152 609.803 484.032 609.611 482.368H615.179C615.211 482.016 615.211 481.76 615.211 481.584C615.211 478.832 613.723 477.632 611.979 477.632C609.883 477.632 608.427 479.184 608.427 481.904C608.427 484.208 609.771 486.192 611.979 486.192ZM609.579 481.36C609.675 479.504 610.667 478.64 611.979 478.64C612.843 478.64 614.059 479.152 614.075 481.36H609.579ZM620.272 486.192C621.296 486.192 621.952 485.792 622.448 485.296V486H623.568V474.448L622.448 475.008V478.4C621.952 478 621.28 477.632 620.272 477.632C618.192 477.632 616.896 479.216 616.896 481.904C616.896 484.512 618.176 486.192 620.272 486.192ZM620.4 485.184C618.96 485.184 618.064 483.728 618.064 481.904C618.064 479.808 618.896 478.64 620.4 478.64C621.44 478.64 622.112 479.28 622.448 479.824V483.904C622 484.72 621.216 485.184 620.4 485.184Z" fill="#26324E"/>
<line y1="-0.5" x2="409.503" y2="-0.5" transform="matrix(0.999998 0.0021019 -0.000521652 1 246.498 383)" stroke="#DDE4E9"/>
<line y1="-0.5" x2="409.503" y2="-0.5" transform="matrix(0.999998 0.0021019 -0.000521652 1 246.498 448)" stroke="#DDE4E9"/>
<rect x="272.5" y="408.5" width="15" height="15" rx="1.5" fill="#F9FAFC" stroke="#C8D7EA"/>
<path fill-rule="evenodd" clip-rule="evenodd" d="M285.059 413.393L278.336 419.395L274.944 415.26L276.104 414.309L278.504 417.234L284.06 412.274L285.059 413.393Z" fill="#08BEE5"/>
<rect x="272.5" y="473.5" width="15" height="15" rx="1.5" fill="#F9FAFC" stroke="#C8D7EA"/>
<path fill-rule="evenodd" clip-rule="evenodd" d="M285.059 478.393L278.336 484.395L274.944 480.26L276.104 479.309L278.504 482.234L284.06 477.274L285.059 478.393Z" fill="#08BEE5"/>
<rect x="272.5" y="357.5" width="15" height="15" rx="1.5" fill="#F9FAFC" stroke="#C8D7EA"/>
<path fill-rule="evenodd" clip-rule="evenodd" d="M285.059 363.119L278.336 369.121L274.944 364.986L276.104 364.035L278.503 366.96L284.06 362L285.059 363.119Z" fill="#08BEE5"/>
<defs>
<filter id="filter0_f" x="407.68" y="294.68" width="346.64" height="346.64" filterUnits="userSpaceOnUse" color-interpolation-filters="sRGB">
<feFlood flood-opacity="0" result="BackgroundImageFix"/>
<feBlend mode="normal" in="SourceGraphic" in2="BackgroundImageFix" result="shape"/>
<feGaussianBlur stdDeviation="31.16" result="effect1_foregroundBlur"/>
</filter>
<filter id="filter1_f" x="0.68" y="0.68" width="295.64" height="295.64" filterUnits="userSpaceOnUse" color-interpolation-filters="sRGB">
<feFlood flood-opacity="0" result="BackgroundImageFix"/>
<feBlend mode="normal" in="SourceGraphic" in2="BackgroundImageFix" result="shape"/>
<feGaussianBlur stdDeviation="31.16" result="effect1_foregroundBlur"/>
</filter>
<filter id="filter2_d" x="100" y="103" width="422" height="173" filterUnits="userSpaceOnUse" color-interpolation-filters="sRGB">
<feFlood flood-opacity="0" result="BackgroundImageFix"/>
<feColorMatrix in="SourceAlpha" type="matrix" values="0 0 0 0 0 0 0 0 0 0 0 0 0 0 0 0 0 0 127 0"/>
<feOffset dy="4"/>
<feGaussianBlur stdDeviation="3"/>
<feColorMatrix type="matrix" values="0 0 0 0 0 0 0 0 0 0 0 0 0 0 0 0 0 0 0.0726053 0"/>
<feBlend mode="normal" in2="BackgroundImageFix" result="effect1_dropShadow"/>
<feBlend mode="normal" in="SourceGraphic" in2="effect1_dropShadow" result="shape"/>
</filter>
<filter id="filter3_d" x="240" y="283" width="422" height="244" filterUnits="userSpaceOnUse" color-interpolation-filters="sRGB">
<feFlood flood-opacity="0" result="BackgroundImageFix"/>
<feColorMatrix in="SourceAlpha" type="matrix" values="0 0 0 0 0 0 0 0 0 0 0 0 0 0 0 0 0 0 127 0"/>
<feOffset dy="4"/>
<feGaussianBlur stdDeviation="3"/>
<feColorMatrix type="matrix" values="0 0 0 0 0 0 0 0 0 0 0 0 0 0 0 0 0 0 0.0726053 0"/>
<feBlend mode="normal" in2="BackgroundImageFix" result="effect1_dropShadow"/>
<feBlend mode="normal" in="SourceGraphic" in2="effect1_dropShadow" result="shape"/>
</filter>
</defs>
</svg>
