<svg width="1136" height="887" viewBox="0 0 1136 887" xmlns="http://www.w3.org/2000/svg" xmlns:xlink="http://www.w3.org/1999/xlink"><use xlink:href="#a" transform="translate(243.37 -3.981)" fill="url(#b)" opacity=".779"/><use xlink:href="#c" transform="translate(947.58 197.921)" fill="url(#d)" opacity=".374"/><use xlink:href="#e" transform="translate(.15 59.92)" fill="url(#f)" opacity=".557"/><defs><linearGradient id="b" x2="1" gradientUnits="userSpaceOnUse" gradientTransform="matrix(-701.508 388.133 -537.587 -506.482 519.968 188.693)"><stop offset="0" stop-color="#E9F2F4"/><stop offset="1" stop-color="#FFF"/></linearGradient><linearGradient id="d" x2="1" gradientUnits="userSpaceOnUse" gradientTransform="matrix(0 -374.977 184.753 0 93.814 479.392)"><stop offset="0" stop-color="#E9F2F4"/><stop offset="1" stop-color="#FFF"/></linearGradient><linearGradient id="f" x2="1" gradientUnits="userSpaceOnUse" gradientTransform="matrix(-122.453 -375.141 374.774 -122.573 410.509 427.065)"><stop offset="0" stop-color="#E9F2F4"/><stop offset="1" stop-color="#FFF"/></linearGradient><path id="a" fill-rule="evenodd" d="M233.112 64.412C232.607 64.412 0 138.74 0 342.018s224.521 301.878 389.869 301.878c89.933 0 163.811-26.173 212.542-50.051 6.28-28.818 29.121-97.068 104.688-97.578 13.476-.526 26.118 2.002 36.742 8.07 50.567 27.311 17.698 78.378 17.698 78.378 1.907-.308 3.833-.667 5.76-1.082 1.921-.414 3.853-.895 5.8-1.416 60.776-16.368 129.258-85.887 117.38-202.297-9.521-93.346-95.677-152.514-137.587-176.017-13.723-7.697-22.704-11.585-22.704-11.585 1.517-9.481 2.007-16.814 2.007-22.447 0-1.057-.02-2.048-.05-2.978v-10.927C512.216 20.552 326.105 0 234.311 0c-39.655 0-61.879 3.727-61.879 3.727l60.68 60.685zM697.82 190.824s-29.834-9.608-60.169-13.654c-15.175 15.676-28.323 22.25-32.368 24.278-.506.5-1.011 1.006-1.011 1.006-88.492-18.71-120.349-64.22-120.349-64.22 83.44-.5 158.785 19.215 213.897 52.59z"/><path id="c" fill-rule="evenodd" d="M76.037 114.832c0 66.247-27.3 127.428-73.827 176.983L0 294.359l3.727-.01c12.641-.511 25.283 2.017 35.907 8.085 50.567 27.311 17.699 78.379 17.699 78.379 63.208-10.114 141.586-80.902 128.939-204.795C176.751 82.671 90.595 23.503 48.686 0c18.012 35.574 27.351 74.647 27.351 114.832"/><path id="e" fill-rule="evenodd" d="M0 484.935c0 8.201.319 16.009.774 23.639 62.581 120.354 137.86 225.497 223.96 312.568 107.378 108.35 232.323 188.738 371.442 239.008 138.614-50.1 263.564-130.658 371.458-239.529 31.988-32.342 62.496-67.299 91.476-104.652-230.686-16.581-216.674-156.701-216.674-156.701 0-5.558 0-11.125 1.011-16.687 0 0 .511-4.921 2.19-12.642-48.731 23.882-122.609 50.056-212.547 50.056-165.348 0-389.869-98.6-389.869-301.878S475.827.511 475.827.511l-.121-.036C469.81.02 463.489 0 457.623 0 203.273 9.107 0 222.493 0 484.935"/></defs></svg>