<svg width="435" height="515" viewBox="0 0 435 515" xmlns="http://www.w3.org/2000/svg" xmlns:xlink="http://www.w3.org/1999/xlink"><title>illustration</title><desc>Created using Figma</desc><use xlink:href="#a" transform="translate(56.25 288.76)" fill="url(#b)"/><use xlink:href="#c" transform="translate(215.29 288.73)" fill="url(#d)"/><use xlink:href="#e" transform="translate(98.62 98.46)" fill="#FFF" opacity=".7"/><use xlink:href="#f" transform="translate(215.83 314.37)" fill="url(#g)" opacity=".511"/><use xlink:href="#h" transform="translate(99.56 314.37)" fill="url(#i)" opacity=".329"/><use xlink:href="#j" transform="translate(56.25 288.76)" fill="#FFF"/><use xlink:href="#k" transform="translate(3.65 181.6)" fill="url(#l)" opacity=".372"/><use xlink:href="#m" transform="translate(.99 275.08)" fill="url(#n)"/><use xlink:href="#m" transform="translate(213.32 403.22)" fill="url(#o)"/><use xlink:href="#m" transform="translate(430.32 275.08)" fill="url(#p)"/><g><use xlink:href="#q" transform="translate(215.09 2.56)" fill="url(#r)"/><use xlink:href="#s" transform="translate(56.25 2.56)" fill="url(#t)"/><use xlink:href="#u" transform="translate(214.9 98.46)" fill="url(#v)" opacity=".509"/><use xlink:href="#w" transform="translate(98.62 98.46)" fill="url(#x)" opacity=".476"/><use xlink:href="#y" transform="translate(214.9 238.53)" fill="url(#z)" opacity=".314"/><use xlink:href="#A" transform="translate(98.62 238.53)" fill="url(#B)" opacity=".314"/><use xlink:href="#C" transform="translate(214.9 238.53)" fill="#FFF" opacity=".693"/><use xlink:href="#D" transform="translate(98.62 238.53)" fill="#FFF" opacity=".693"/><use xlink:href="#E" transform="translate(3.65 181.6)" fill="url(#F)" opacity=".107"/></g><g transform="translate(-1484 -1946)"><use xlink:href="#G" transform="translate(1699.09 2139.92)" fill="#FFF"/></g><g transform="translate(-1484 -1946)"><use xlink:href="#H" transform="translate(1540.25 2139.92)" fill="#FFF"/></g><g><use xlink:href="#I" transform="translate(215.09 2.56)" fill="#FFF"/><use xlink:href="#J" transform="translate(56.25 2.56)" fill="#FFF"/><use xlink:href="#G" transform="translate(215.09 193.92)" fill="#FFF" opacity=".419"/><use xlink:href="#H" transform="translate(56.25 193.92)" fill="#FFF" opacity=".419"/><use xlink:href="#G" transform="translate(215.09 193.92)" fill="#FFF" opacity=".5"/></g><defs><linearGradient id="b" x2="1" gradientUnits="userSpaceOnUse" gradientTransform="matrix(161.132 286.221 -203.114 227.062 23.76 0)"><stop offset="0" stop-color="#E9F2F4"/><stop offset="1" stop-color="#00EFE2"/><stop offset="1" stop-color="#F7F8F9"/></linearGradient><linearGradient id="d" x2="1" gradientUnits="userSpaceOnUse" gradientTransform="matrix(161.229 286.22 -203.236 227.061 23.774 0)"><stop offset="0" stop-color="#E9F2F4"/><stop offset="1" stop-color="#00EFE2"/><stop offset="1" stop-color="#F7F8F9"/></linearGradient><linearGradient id="g" x2="1" gradientUnits="userSpaceOnUse" gradientTransform="matrix(-148.772 166.212 -118.022 -209.517 150.799 21.653)"><stop offset="0" stop-color="#00C7E4"/><stop offset="1" stop-color="#00EFE2"/><stop offset="1" stop-color="#00EFE2"/></linearGradient><linearGradient id="i" x2="1" gradientUnits="userSpaceOnUse" gradientTransform="matrix(-148.682 166.213 -117.951 -209.518 150.709 21.653)"><stop offset="0" stop-color="#00C7E4"/><stop offset="1" stop-color="#00EFE2"/><stop offset="1" stop-color="#00EFE2"/></linearGradient><linearGradient id="l" x2="1" gradientUnits="userSpaceOnUse" gradientTransform="matrix(347.063 -319.176 611.449 181.167 48.808 255.741)"><stop offset="0" stop-color="#0B0B0A"/><stop offset="1" stop-color="#464F51"/></linearGradient><linearGradient id="n" x2="1" gradientUnits="userSpaceOnUse" gradientTransform="rotate(-60.42 4.329 1.975) scale(6.8374)"><stop offset="0" stop-color="#0B0B0A"/><stop offset="1" stop-color="#464F51"/></linearGradient><linearGradient id="o" x2="1" gradientUnits="userSpaceOnUse" gradientTransform="rotate(-60.42 4.329 1.975) scale(6.8374)"><stop offset="0" stop-color="#0B0B0A"/><stop offset="1" stop-color="#464F51"/></linearGradient><linearGradient id="p" x2="1" gradientUnits="userSpaceOnUse" gradientTransform="rotate(-60.42 4.329 1.975) scale(6.8374)"><stop offset="0" stop-color="#0B0B0A"/><stop offset="1" stop-color="#464F51"/></linearGradient><linearGradient id="r" x2="1" gradientUnits="userSpaceOnUse" gradientTransform="matrix(161.132 457.074 -203.114 362.601 23.76 0)"><stop offset="0" stop-color="#E9F2F4"/><stop offset=".075" stop-color="#EBF3F5"/><stop offset="1" stop-color="#00EFE2"/><stop offset="1" stop-color="#F7F8F9"/></linearGradient><linearGradient id="t" x2="1" gradientUnits="userSpaceOnUse" gradientTransform="matrix(-161.132 -457.076 203.114 -362.603 184.891 457.076)"><stop offset="0" stop-color="#E9F2F4"/><stop offset="1" stop-color="#00EFE2"/><stop offset="1" stop-color="#F7F8F9"/></linearGradient><linearGradient id="v" x2="1" gradientUnits="userSpaceOnUse" gradientTransform="matrix(117.951 334.585 -148.682 265.429 17.392 0)"><stop offset="0" stop-color="#58D2ED"/><stop offset="1" stop-color="#00EFE2"/><stop offset="1" stop-color="#F7F8F9"/></linearGradient><linearGradient id="x" x2="1" gradientUnits="userSpaceOnUse" gradientTransform="matrix(117.951 334.586 -148.682 265.43 17.392 0)"><stop offset="0" stop-color="#94E4F6"/><stop offset="1" stop-color="#00EFE2"/><stop offset="1" stop-color="#F7F8F9"/></linearGradient><linearGradient id="z" x2="1" gradientUnits="userSpaceOnUse" gradientTransform="matrix(117.949 155.464 -148.68 123.331 17.392 0)"><stop offset="0" stop-color="#00E7E2"/><stop offset="1" stop-color="#00EFE2"/><stop offset="1" stop-color="#F7F8F9"/></linearGradient><linearGradient id="B" x2="1" gradientUnits="userSpaceOnUse" gradientTransform="matrix(117.949 155.465 -148.68 123.332 17.392 0)"><stop offset="0" stop-color="#00E7E2"/><stop offset="1" stop-color="#00EFE2"/><stop offset="1" stop-color="#F7F8F9"/></linearGradient><linearGradient id="F" x2="1" gradientUnits="userSpaceOnUse" gradientTransform="matrix(347.063 -319.176 611.449 181.167 48.808 255.741)"><stop offset="0" stop-color="#0B0B0A"/><stop offset="1" stop-color="#464F51"/></linearGradient><path id="a" d="M158.841 223.833V93.843L0 0l158.841 223.833z"/><path id="c" d="M0 93.843v129.989L158.936 0 0 93.843z"/><path id="e" fill-rule="evenodd" d="M116.272.003l.002-.003 116.272 192.926-.001.001-116.271 68.729-.002-.001L0 192.926 116.272.003zm.935 379.753L.935 215.91l116.273 68.696 116.344-68.694L117.208 379.76l-.001-.004z"/><path id="f" d="M0 68.695v95.153L116.344 0 0 68.695z"/><path id="h" d="M116.274 163.849V68.695L0 0l116.274 163.849z"/><path id="j" d="M158.841 223.833l-.408.29.908 1.279v-1.569h-.5zm0-129.99h.5v-.285l-.246-.145-.254.43zM0 0l.254-.43-.662.72L0 0zm159.341 223.833V93.843h-1v129.99h1zm-.246-130.42L.255-.43l-.51.86 158.841 93.844.509-.861zM-.408.289l158.841 223.834.815-.579L.408-.289l-.816.578z"/><path id="k" d="M0 96.22l-.204-.456-.872.39.817.494.259-.427zm212.011 128.148l-.259.428.255.154.257-.151-.253-.431zM429.824 96.221l.253.43.836-.49-.885-.397-.204.457zM214.912 0l.204-.456-.204-.092-.204.092.204.456zM-.258 96.648l212.01 128.148.517-.856L.259 95.793l-.518.855zM212.263 224.8L430.077 96.651l-.507-.861-217.813 128.147.507.862zM430.028 95.764L215.116-.456l-.408.912 214.912 96.22.408-.912zM214.708-.456L-.204 95.764l.408.913L215.116.457l-.408-.913z"/><path id="m" fill-rule="evenodd" d="M2.09 4.18a2.09 2.09 0 1 0 0-4.18 2.09 2.09 0 0 0 0 4.18z"/><path id="q" d="M0 0v357.445l158.841-93.89L0 0z"/><path id="s" d="M158.841 0L0 263.555l158.841 93.892V0z"/><path id="u" d="M0 0v261.655l116.274-68.729L0 0z"/><path id="w" d="M116.274 0L0 192.926l116.274 68.73V0z"/><path id="y" d="M0 121.577l116.272-68.728L0 0v121.577z"/><path id="A" d="M0 52.85l116.272 68.728V0L0 52.85z"/><path id="C" d="M0 121.577h-.5v.877l.754-.446-.254-.431zm116.272-68.728l.254.43.827-.488-.874-.397-.207.455zM0 0l.207-.455L-.5-.776V0H0zm.254 122.008L116.526 53.28l-.509-.861L-.254 121.147l.508.861zM116.48 52.394L.207-.456l-.414.911 116.272 52.85.414-.91zM-.5 0v121.577h1V0h-1z"/><path id="D" d="M0 52.85l-.207-.456-.874.397.827.489.254-.43zm116.272 68.728l-.255.431.755.446v-.877h-.5zm0-121.578h.5v-.776l-.707.32.207.456zM-.254 53.28l116.271 68.729.509-.861L.254 52.418l-.508.862zm117.026 68.298V0h-1v121.578h1zM116.065-.455L-.207 52.395l.414.91L116.479.454l-.414-.91z"/><path id="E" d="M0 96.22l-.207-.455-.864.392.812.491.259-.427zm212.011 128.148l-.259.428.255.154.257-.151-.253-.431zM429.824 96.221l.253.43.84-.494-.891-.394-.202.457zM212.106 0l.202-.457-.205-.09-.204.092.207.455zM-.259 96.648l212.011 128.148.517-.856L.259 95.793l-.518.855zM212.264 224.8L430.077 96.651l-.507-.861-217.813 128.147.507.862zM430.026 95.763L212.308-.457l-.404.914 217.718 96.22.404-.914zM211.899-.455L-.207 95.765l.414.91L212.312.456l-.413-.91z"/><path id="G" d="M0 166.086h-.5v.877l.754-.446-.254-.431zm158.838-93.889l.255.43.826-.488-.874-.397-.207.455zM0 0l.207-.455L-.5-.776V0H0zm.254 166.517l158.839-93.89-.509-.86L-.254 165.656l.508.861zm158.791-94.775L.207-.455l-.414.91 158.838 72.197.414-.91zM-.5 0v166.086h1V0h-1z"/><path id="H" d="M0 72.197l-.207-.455-.874.397.827.489.254-.43zm158.838 93.89l-.254.431.754.446v-.877h-.5zm0-166.087h.5v-.776l-.707.32.207.456zM-.254 72.627l158.838 93.891.509-.861L.254 71.767l-.508.86zm159.592 93.46V0h-1v166.087h1zM158.631-.455L-.207 71.742l.414.91L159.045.455l-.414-.91z"/><path id="I" d="M0 0l.428-.258-.928-1.54V0H0zm0 357.445h-.5v.877l.754-.446-.254-.431zm158.841-93.89l.254.431.434-.257-.26-.432-.428.258zM-.5 0v357.445h1V0h-1zm.754 357.876l158.841-93.89-.509-.861-158.84 93.89.508.861zm159.015-94.579L.429-.258l-.857.516 158.84 263.555.857-.516z"/><path id="J" d="M158.841 0h.5v-1.798l-.929 1.54.429.258zM0 263.555l-.428-.258-.26.432.434.257.254-.431zm158.841 93.892l-.255.43.755.446v-.876h-.5zM158.412-.258L-.428 263.297l.856.516L159.27.258l-.857-.516zM-.254 263.986l158.84 93.891.509-.861L.255 263.125l-.51.861zm159.595 93.461V191.358h-1v166.089h1zm0-166.089V0h-1v191.358h1z"/></defs></svg>