<svg width="434" height="511" viewBox="0 0 434 511" xmlns="http://www.w3.org/2000/svg"><title>Illustration_Home_ether@1x</title><defs><linearGradient x1="14.958%" y1="0%" x2="116.401%" y2="127.873%" id="a"><stop stop-color="#E9F2F4" offset="0%"/><stop stop-color="#F7F8F9" offset="100%"/><stop stop-color="#00EFE2" offset="100%"/></linearGradient><linearGradient x1="129.616%" y1="13.215%" x2="1.743%" y2="114.657%" id="b"><stop stop-color="#00C7E4" offset="0%"/><stop stop-color="#00EFE2" offset="100%"/><stop stop-color="#00EFE2" offset="100%"/></linearGradient><linearGradient x1="11.355%" y1="113.983%" x2="92.101%" y2="-28.273%" id="c"><stop stop-color="#0B0B0A" offset="0%"/><stop stop-color="#464F51" offset="100%"/></linearGradient><linearGradient x1="14.958%" y1="0%" x2="116.401%" y2="127.873%" id="d"><stop stop-color="#E9F2F4" offset="0%"/><stop stop-color="#EBF3F5" offset="7.468%"/><stop stop-color="#F7F8F9" offset="100%"/><stop stop-color="#00EFE2" offset="100%"/></linearGradient><linearGradient x1="116.401%" y1="127.873%" x2="14.958%" y2="0%" id="e"><stop stop-color="#E9F2F4" offset="0%"/><stop stop-color="#F7F8F9" offset="100%"/><stop stop-color="#00EFE2" offset="100%"/></linearGradient><linearGradient x1="14.958%" y1="0%" x2="116.401%" y2="127.873%" id="f"><stop stop-color="#58D2ED" offset="0%"/><stop stop-color="#F7F8F9" offset="100%"/><stop stop-color="#00EFE2" offset="100%"/></linearGradient><linearGradient x1="14.958%" y1="0%" x2="116.401%" y2="127.873%" id="g"><stop stop-color="#94E4F6" offset="0%"/><stop stop-color="#F7F8F9" offset="100%"/><stop stop-color="#00EFE2" offset="100%"/></linearGradient><linearGradient x1="14.958%" y1="0%" x2="116.401%" y2="127.873%" id="h"><stop stop-color="#00E7E2" offset="0%"/><stop stop-color="#F7F8F9" offset="100%"/><stop stop-color="#00EFE2" offset="100%"/></linearGradient></defs><g fill="none" fill-rule="evenodd"><g transform="translate(55.253 285.844)" fill-rule="nonzero" fill="url(#a)"><path d="M158.84 224.746V94.756L0 .913zM159.032 94.729v129.989L317.97.886z"/></g><g fill-rule="nonzero"><path d="M213.896 358.111L97.624 289.382 213.897 96.457 330.17 289.382l-116.273 68.729zm.937 22.95l116.342-68.693-116.342 163.847L98.559 312.366l116.274 68.694z" fill="#FFF" opacity=".7"/><path fill="url(#b)" opacity=".511" d="M117.208 284.606v95.154l116.344-163.848z" transform="translate(97.624 96.456)"/></g><path d="M214.285 380.573v129.989L373.221 286.73z"/><path fill="url(#b)" fill-rule="nonzero" opacity=".329" d="M215.412 476.356V381.2L99.138 312.507z" transform="translate(-.58 -.14)"/><path stroke="#FFF" d="M214.093 510.59V380.6l-158.84-93.844z"/><g transform="translate(-.58 179.446)"><path stroke="url(#c)" opacity=".372" d="M3.23 96.377l212.01 128.147L433.054 96.377 218.142.157z"/><circle fill="url(#c)" cx="2.663" cy="95.723" r="2.09"/><circle fill="url(#c)" cx="214.986" cy="223.865" r="2.09"/><circle fill="url(#c)" cx="431.986" cy="95.723" r="2.09"/></g><path fill="url(#d)" fill-rule="nonzero" d="M212.154 0v357.445l158.84-93.89z" transform="translate(1.938 .564)"/><path fill="url(#e)" fill-rule="nonzero" d="M212.155 0L53.315 263.555l158.84 93.892V191.358z" transform="translate(1.938 .564)"/><path fill="url(#f)" fill-rule="nonzero" opacity=".509" d="M211.958 95.892v261.655l116.274-68.729z" transform="translate(1.938 .564)"/><path fill="url(#g)" fill-rule="nonzero" opacity=".476" d="M211.96 95.892L95.685 288.818l116.273 68.73V235.97z" transform="translate(1.938 .564)"/><path fill="url(#h)" fill-rule="nonzero" opacity=".314" d="M211.958 357.547L328.23 288.82 211.958 235.97zM95.686 288.818l116.271 68.73V235.968z" transform="translate(1.938 .564)"/><path stroke="#FFF" opacity=".693" d="M213.896 358.111l116.272-68.728-116.272-52.85z"/><path stroke="#FFF" opacity=".693" d="M97.624 289.382l116.272 68.73v-121.58z"/><path stroke="url(#c)" opacity=".107" d="M.712 275.259l212.011 128.147 217.813-128.147-217.718-96.22z" transform="translate(1.938 .564)"/><path stroke="#FFF" d="M214.092 358.009L372.93 264.12l-158.838-72.197zM55.253 264.119l158.838 93.89V191.922z"/><g fill-rule="nonzero" stroke="#FFF"><path d="M214.092.564v357.445l158.84-93.89z"/><path d="M214.093.564L55.253 264.119l158.84 93.891V191.922z"/><path opacity=".419" d="M214.092 358.009L372.93 264.12l-158.838-72.197zM55.253 264.119l158.838 93.89V191.922z"/><path opacity=".5" d="M214.092 358.009L372.93 264.12l-158.838-72.197z"/></g></g></svg>