<svg xmlns="http://www.w3.org/2000/svg" width="463" height="447" viewBox="0 0 463 447">
    <defs>
        <linearGradient id="b" x1="14.958%" x2="116.401%" y1="0%" y2="127.873%">
            <stop offset="0%" stop-color="#00C7E4"/>
            <stop offset="100%" stop-color="#00EFE2"/>
            <stop offset="100%" stop-color="#00EFE2"/>
        </linearGradient>
        <linearGradient id="a" x1="14.958%" x2="116.401%" y1="0%" y2="127.873%">
            <stop offset="0%" stop-color="#00C7E4" stop-opacity="0"/>
            <stop offset="95.851%" stop-color="#00EFE2"/>
            <stop offset="100%" stop-color="#00EFE2"/>
        </linearGradient>
        <linearGradient id="c" x1="0%" x2="105.789%" y1="-33.464%" y2="245.45%">
            <stop offset="0%" stop-color="#E9F2F4"/>
            <stop offset="100%" stop-color="#F7F8F9"/>
        </linearGradient>
        <filter id="d" width="256.7%" height="257.7%" x="-78.3%" y="-78.9%" filterUnits="objectBoundingBox">
            <feGaussianBlur in="SourceGraphic" stdDeviation="1.68"/>
        </filter>
        <filter id="e" width="256.7%" height="257.7%" x="-78.3%" y="-78.9%" filterUnits="objectBoundingBox">
            <feGaussianBlur in="SourceGraphic" stdDeviation="1.68"/>
        </filter>
        <filter id="f" width="256.7%" height="257.7%" x="-78.3%" y="-78.9%" filterUnits="objectBoundingBox">
            <feGaussianBlur in="SourceGraphic" stdDeviation="1.68"/>
        </filter>
    </defs>
    <g fill="none" fill-rule="evenodd">
        <path stroke="#000" stroke-dasharray="3,3" d="M33.266.702l429.421 234.194M385.625 104.537L116.098 446.352" opacity=".4"/>
        <ellipse cx="143.886" cy="235.144" fill="url(#b)" fill-opacity=".05" stroke="url(#a)" stroke-dasharray="1,3" rx="92.493" ry="91.877"/>
        <ellipse cx="179.824" cy="165.095" fill="url(#b)" fill-opacity=".04" stroke="url(#a)" stroke-dasharray="1,3" rx="101.969" ry="101.289"/>
        <ellipse cx="241.83" cy="215.819" fill="url(#b)" fill-opacity=".04" stroke="url(#a)" stroke-dasharray="1,3" rx="44.979" ry="44.679"/>
        <ellipse cx="252.935" cy="262.61" fill="url(#b)" fill-opacity=".04" stroke="url(#a)" stroke-dasharray="1,3" rx="28.083" ry="27.896"/>
        <ellipse cx="171.637" cy="217.398" stroke="url(#a)" stroke-dasharray="1,3" rx="125.773" ry="124.934"/>
        <ellipse cx="171.269" cy="207.352" fill="url(#b)" fill-opacity=".03" stroke="url(#a)" stroke-dasharray="1,3" rx="170.909" ry="169.77"/>
        <g stroke-linecap="round" stroke-linejoin="round">
            <path stroke="url(#c)" d="M165.5.722l4.902 1.513c15.154 4.859 94.065 31.814 156.86 84.606l3.396 2.408-.754 4.252h-.009c-.807 5.951-8.74 44.129-29.846 85.3-13.602 26.51-30.1 49.592-49.035 68.607-23.363 23.416-50.454 40.736-80.52 51.484l-1.702.597-3.197 1.235-4.908-1.722c-30.254-10.815-57.347-28.137-80.548-51.496-19.043-19.228-35.538-42.307-49.03-68.602-20.982-41.027-28.507-78.022-29.802-85.023L.54 89.574l3.126-2.627C66.476 34.088 145.489 7.097 160.689 2.223L165.5.722zM86.014 242.54c22.984 23.037 49.73 40.13 79.508 50.818 29.67-10.65 56.417-27.78 79.512-50.93 18.892-18.976 35.418-42.129 49.116-68.814 18.714-36.499 26.808-69.293 29.408-81.641C261.095 40.76 183.76 13.757 165.516 7.844c-18.152 5.833-95.1 32.521-158.034 84.132 2.578 12.388 10.632 45.316 29.413 81.852 13.624 26.539 30.15 49.655 49.12 68.712z" opacity=".5" transform="translate(6.322 75.334)"/>
            <path stroke="url(#b)" stroke-width="2" d="M139.87 68.052c-.108 0-49.898 15.804-49.898 59.026 0 43.223 48.06 64.187 83.452 64.187 19.25 0 35.065-5.565 45.496-10.642 1.344-6.127 6.233-20.639 22.408-20.747 2.885-.112 5.591.425 7.865 1.716 10.824 5.807 3.788 16.665 3.788 16.665a24.502 24.502 0 0 0 2.475-.531c13.01-3.48 27.668-18.262 25.125-43.014-2.038-19.848-20.48-32.428-29.45-37.426-2.938-1.636-4.86-2.463-4.86-2.463.324-2.016.43-3.575.43-4.773 0-.224-.005-.435-.011-.633v-2.323c-47.077-28.367-86.915-32.737-106.563-32.737-8.488 0-13.245.792-13.245.792l12.988 12.903zm99.472 26.879s-6.386-2.043-12.88-2.903c-3.247 3.333-6.062 4.73-6.928 5.162l-.216.214c-18.942-3.979-25.761-13.655-25.761-13.655 17.86-.107 33.988 4.085 45.785 11.182z" transform="translate(6.322 75.334)"/>
            <path stroke="url(#b)" stroke-width="2" d="M256.985 121.703c0 14.085-5.844 27.094-15.803 37.63l-.473.542.798-.003c2.706-.108 5.412.43 7.686 1.72 10.824 5.807 3.788 16.665 3.788 16.665 13.53-2.15 30.307-17.202 27.6-43.545-2.038-19.848-20.48-32.428-29.45-37.426a53.574 53.574 0 0 1 5.854 24.417M37.91 171.053c0 1.744.068 3.404.165 5.027 13.396 25.59 29.51 47.946 47.94 66.46 22.984 23.037 49.73 40.13 79.508 50.818 29.67-10.65 56.417-27.78 79.512-50.93 6.847-6.876 13.377-14.309 19.58-22.251-49.379-3.525-46.38-33.319-46.38-33.319 0-1.181 0-2.365.217-3.548 0 0 .11-1.046.469-2.688-10.431 5.078-26.245 10.643-45.497 10.643-35.393 0-83.452-20.964-83.452-64.187 0-43.222 49.79-59.026 49.79-59.026l-.026-.007c-1.262-.097-2.615-.101-3.87-.101C81.42 69.88 37.91 115.25 37.91 171.054" transform="translate(6.322 75.334)"/>
        </g>
        <g fill="#FFF" transform="translate(168 72.513)">
            <ellipse cx="3.216" cy="3.194" filter="url(#d)" opacity=".7" rx="3.216" ry="3.194"/>
            <ellipse cx="3.216" cy="3.194" rx="2" ry="1.987"/>
            <ellipse cx="169.216" cy="92.594" filter="url(#e)" opacity=".7" rx="3.216" ry="3.194"/>
            <ellipse cx="169.216" cy="92.594" rx="2" ry="1.987"/>
            <ellipse cx="91.216" cy="181.994" filter="url(#f)" opacity=".8" rx="3.216" ry="3.194"/>
            <ellipse cx="91.216" cy="181.994" rx="2" ry="1.987"/>
        </g>
    </g>
</svg>
