<svg width="399" height="372" viewBox="0 0 399 372" fill="none" xmlns="http://www.w3.org/2000/svg">
<g filter="url(#filter0_d)">
<path fill-rule="evenodd" clip-rule="evenodd" d="M4 8.00001C4 4.6863 6.68629 2 10 2H388.234C391.548 2 394.234 4.68629 394.234 8V360C394.234 363.314 391.548 366 388.234 366H10C6.68629 366 4 363.314 4 360V8.00001Z" fill="white"/>
</g>
<path opacity="0.8" fill-rule="evenodd" clip-rule="evenodd" d="M259 260C259 258.343 260.343 257 262 257H366C367.657 257 369 258.343 369 260V293C369 294.657 367.657 296 366 296H262C260.343 296 259 294.657 259 293V260Z" fill="#DAEAEF"/>
<path d="M294.388 271.341V281H293.144L288.598 273.296V281H287.436V271.341H288.666L293.226 279.024V271.341H294.388Z" fill="#6D777B"/>
<path d="M299.658 281.116C298.961 281.116 298.366 280.961 297.874 280.651C297.382 280.341 297.01 279.922 296.76 279.394C296.509 278.86 296.384 278.268 296.384 277.616C296.384 276.974 296.505 276.381 296.746 275.839C296.988 275.297 297.345 274.864 297.819 274.54C298.298 274.216 298.872 274.055 299.542 274.055C300.257 274.055 300.841 274.219 301.292 274.547C301.748 274.875 302.076 275.287 302.276 275.784C302.477 276.276 302.577 276.782 302.577 277.302C302.577 277.425 302.57 277.548 302.557 277.671C302.548 277.789 302.536 277.876 302.522 277.931H297.607C297.653 278.601 297.849 279.125 298.195 279.503C298.546 279.877 299.036 280.063 299.665 280.063C300.048 280.063 300.387 280.002 300.684 279.879C300.98 279.751 301.267 279.539 301.545 279.243L302.352 279.947C301.973 280.353 301.568 280.649 301.135 280.836C300.706 281.023 300.214 281.116 299.658 281.116ZM301.429 277.083C301.429 276.887 301.42 276.743 301.401 276.652C301.36 276.356 301.262 276.087 301.107 275.846C300.957 275.6 300.747 275.404 300.479 275.258C300.214 275.107 299.9 275.032 299.535 275.032C298.975 275.032 298.53 275.219 298.202 275.593C297.874 275.962 297.676 276.459 297.607 277.083H301.429Z" fill="#6D777B"/>
<path d="M303.309 274.171H304.546L305.927 279.243L307.581 274.171H308.606L310.254 279.236L311.648 274.171H312.886L310.849 281H309.782L308.094 275.784L306.398 281H305.332L303.309 274.171Z" fill="#6D777B"/>
<path d="M320.002 281.116C319.378 281.116 318.897 280.941 318.56 280.59C318.222 280.234 318.054 279.735 318.054 279.093V275.148H316.926V274.171H318.067V272.284L319.209 271.45V274.171H321.055V275.148H319.209V278.901C319.209 279.321 319.291 279.624 319.455 279.811C319.624 279.997 319.872 280.091 320.2 280.091C320.346 280.091 320.494 280.073 320.645 280.036C320.799 279.995 320.934 279.95 321.048 279.899L321.055 280.952C320.936 280.998 320.781 281.036 320.59 281.068C320.398 281.1 320.202 281.116 320.002 281.116Z" fill="#6D777B"/>
<path d="M325.443 281.116C324.792 281.116 324.211 280.959 323.7 280.645C323.19 280.326 322.791 279.897 322.504 279.359C322.221 278.817 322.08 278.22 322.08 277.568C322.08 276.921 322.221 276.331 322.504 275.798C322.791 275.26 323.19 274.836 323.7 274.526C324.211 274.212 324.792 274.055 325.443 274.055C326.095 274.055 326.676 274.212 327.187 274.526C327.701 274.836 328.103 275.26 328.39 275.798C328.677 276.336 328.82 276.926 328.82 277.568C328.82 278.22 328.677 278.817 328.39 279.359C328.103 279.897 327.701 280.326 327.187 280.645C326.676 280.959 326.095 281.116 325.443 281.116ZM325.443 280.111C325.899 280.111 326.291 279.997 326.619 279.77C326.947 279.542 327.196 279.236 327.364 278.854C327.533 278.466 327.617 278.038 327.617 277.568C327.617 277.104 327.533 276.682 327.364 276.304C327.196 275.921 326.947 275.618 326.619 275.395C326.291 275.171 325.899 275.06 325.443 275.06C324.992 275.06 324.603 275.171 324.274 275.395C323.951 275.613 323.705 275.914 323.536 276.297C323.368 276.675 323.283 277.099 323.283 277.568C323.283 278.038 323.368 278.466 323.536 278.854C323.705 279.241 323.951 279.549 324.274 279.776C324.603 280 324.992 280.111 325.443 280.111Z" fill="#6D777B"/>
<path d="M330.529 271.341H331.685V277.596L334.891 274.171H336.401L333.893 276.755L336.757 281H335.39L333.106 277.473L331.685 278.983V281H330.529V271.341Z" fill="#6D777B"/>
<path d="M340.414 281.116C339.717 281.116 339.122 280.961 338.63 280.651C338.138 280.341 337.766 279.922 337.516 279.394C337.265 278.86 337.14 278.268 337.14 277.616C337.14 276.974 337.26 276.381 337.502 275.839C337.743 275.297 338.101 274.864 338.575 274.54C339.054 274.216 339.628 274.055 340.298 274.055C341.013 274.055 341.597 274.219 342.048 274.547C342.504 274.875 342.832 275.287 343.032 275.784C343.233 276.276 343.333 276.782 343.333 277.302C343.333 277.425 343.326 277.548 343.312 277.671C343.303 277.789 343.292 277.876 343.278 277.931H338.363C338.409 278.601 338.605 279.125 338.951 279.503C339.302 279.877 339.792 280.063 340.421 280.063C340.804 280.063 341.143 280.002 341.439 279.879C341.736 279.751 342.023 279.539 342.301 279.243L343.107 279.947C342.729 280.353 342.324 280.649 341.891 280.836C341.462 281.023 340.97 281.116 340.414 281.116ZM342.185 277.083C342.185 276.887 342.175 276.743 342.157 276.652C342.116 276.356 342.018 276.087 341.863 275.846C341.713 275.6 341.503 275.404 341.234 275.258C340.97 275.107 340.656 275.032 340.291 275.032C339.73 275.032 339.286 275.219 338.958 275.593C338.63 275.962 338.432 276.459 338.363 277.083H342.185Z" fill="#6D777B"/>
<path d="M345.035 274.171H346.19V275.21C346.418 274.832 346.717 274.545 347.086 274.349C347.455 274.153 347.854 274.055 348.282 274.055C348.815 274.055 349.26 274.175 349.615 274.417C349.975 274.654 350.242 274.975 350.415 275.381C350.593 275.786 350.686 276.242 350.695 276.748V281H349.54V276.96C349.54 276.386 349.406 275.937 349.137 275.613C348.868 275.29 348.478 275.128 347.968 275.128C347.412 275.128 346.977 275.294 346.662 275.627C346.348 275.955 346.19 276.434 346.19 277.062V281H345.035V274.171Z" fill="#6D777B"/>
<path fill-rule="evenodd" clip-rule="evenodd" d="M280.373 277.355H277.094V280.634H276.018V277.355H272.739V276.279H276.018V273H277.094V276.279H280.373V277.355Z" fill="#6D777B"/>
<path fill-rule="evenodd" clip-rule="evenodd" d="M102.378 115.297C102.378 114.193 103.274 113.297 104.378 113.297H293.036C294.141 113.297 295.036 114.193 295.036 115.297V116.216C295.036 117.321 294.141 118.216 293.036 118.216H104.378C103.274 118.216 102.378 117.321 102.378 116.216V115.297Z" fill="#EDF3F6"/>
<path fill-rule="evenodd" clip-rule="evenodd" d="M103.198 115.297C103.198 114.193 104.094 113.297 105.198 113.297H222.636C223.74 113.297 224.636 114.193 224.636 115.297V116.216C224.636 117.321 223.74 118.216 222.636 118.216H105.198C104.094 118.216 103.198 117.321 103.198 116.216V115.297Z" fill="#01C7E4"/>
<g filter="url(#filter1_d)">
<path fill-rule="evenodd" clip-rule="evenodd" d="M227.811 125.595C233.244 125.595 237.649 121.19 237.649 115.757C237.649 110.323 233.244 105.919 227.811 105.919C222.378 105.919 217.973 110.323 217.973 115.757C217.973 121.19 222.378 125.595 227.811 125.595Z" fill="white"/>
<path fill-rule="evenodd" clip-rule="evenodd" d="M227.811 125.595C233.244 125.595 237.649 121.19 237.649 115.757C237.649 110.323 233.244 105.919 227.811 105.919C222.378 105.919 217.973 110.323 217.973 115.757C217.973 121.19 222.378 125.595 227.811 125.595Z" stroke="#DCECF5" stroke-width="0.5"/>
</g>
<g filter="url(#filter2_d)">
<path fill-rule="evenodd" clip-rule="evenodd" d="M28.5946 101.541C28.5946 99.8837 29.9378 98.5405 31.5946 98.5405H82.982C84.6388 98.5405 85.982 99.8837 85.982 101.541V128.333C85.982 129.99 84.6388 131.333 82.982 131.333H31.5946C29.9378 131.333 28.5946 129.99 28.5946 128.333V101.541Z" fill="white"/>
<path d="M29.0946 101.541C29.0946 100.16 30.2139 99.0405 31.5946 99.0405H82.982C84.3627 99.0405 85.482 100.16 85.482 101.541V128.333C85.482 129.714 84.3627 130.833 82.982 130.833H31.5946C30.2139 130.833 29.0946 129.714 29.0946 128.333V101.541Z" stroke="#B2C8CF" stroke-opacity="0.3"/>
</g>
<path fill-rule="evenodd" clip-rule="evenodd" d="M68 113.297H74.8537L71.4268 116.724L68 113.297Z" fill="#B2C8CF"/>
<path d="M40.1519 119.018H45.2039V118.214H40.9919V115.07H43.6559V114.278H40.9919V111.422H44.9399V110.618H40.1519V119.018Z" fill="black"/>
<path d="M49.9044 111.422H52.2204V110.618H46.7604V111.422H49.0644V119.018H49.9044V111.422Z" fill="black"/>
<path d="M59.1467 119.018H59.9867V110.618H59.1467V114.254H55.0427V110.618H54.2027V119.018H55.0427V115.046H59.1467V119.018Z" fill="black"/>
<g opacity="0.7">
<path d="M31.417 81.043H29.1709V80.1006H34.708V81.043H32.4668V87H31.417V81.043Z" fill="#91B1BB"/>
<path d="M38.4287 87.0928C37.7126 87.0928 37.1087 86.9333 36.6172 86.6143C36.1257 86.292 35.7578 85.8623 35.5137 85.3252C35.2728 84.7881 35.1523 84.1956 35.1523 83.5479C35.1523 82.9001 35.2728 82.3092 35.5137 81.7754C35.7578 81.2383 36.1257 80.8102 36.6172 80.4912C37.1087 80.1689 37.7126 80.0078 38.4287 80.0078C39.1449 80.0078 39.7487 80.1689 40.2402 80.4912C40.7318 80.8102 41.098 81.2383 41.3389 81.7754C41.583 82.3092 41.7051 82.9001 41.7051 83.5479C41.7051 84.1956 41.583 84.7881 41.3389 85.3252C41.098 85.8623 40.7318 86.292 40.2402 86.6143C39.7487 86.9333 39.1449 87.0928 38.4287 87.0928ZM38.4287 86.1602C38.9268 86.1602 39.3369 86.043 39.6592 85.8086C39.9847 85.5742 40.2223 85.2617 40.3721 84.8711C40.5218 84.4772 40.5967 84.0361 40.5967 83.5479C40.5967 83.0596 40.5218 82.6201 40.3721 82.2295C40.2223 81.8356 39.9847 81.5231 39.6592 81.292C39.3369 81.0576 38.9268 80.9404 38.4287 80.9404C37.9307 80.9404 37.5189 81.0576 37.1934 81.292C36.8711 81.5231 36.6351 81.8356 36.4854 82.2295C36.3356 82.6201 36.2607 83.0596 36.2607 83.5479C36.2607 84.0361 36.3356 84.4772 36.4854 84.8711C36.6351 85.2617 36.8711 85.5742 37.1934 85.8086C37.5189 86.043 37.9307 86.1602 38.4287 86.1602Z" fill="#91B1BB"/>
<path d="M43.1406 80.1006H44.1904V83.8799L47.7451 80.1006H49.1514L46.4316 82.8936L49.2344 87H47.9307L45.7041 83.5967L44.1904 85.1641V87H43.1406V80.1006Z" fill="#91B1BB"/>
<path d="M50.3574 80.1006H54.9229V81.0674H51.4072V83.0596H54.6396V84.0264H51.4072V86.0088H54.9229V87H50.3574V80.1006Z" fill="#91B1BB"/>
<path d="M61.6318 80.1006V87H60.5723L57.501 81.8242V87H56.4902V80.1006H57.5449L60.626 85.2568V80.1006H61.6318Z" fill="#91B1BB"/>
</g>
<g filter="url(#filter3_d)">
<path fill-rule="evenodd" clip-rule="evenodd" d="M310.613 101.541C310.613 99.8837 311.956 98.5405 313.613 98.5405H365C366.657 98.5405 368 99.8837 368 101.541V128.333C368 129.99 366.657 131.333 365 131.333H313.613C311.956 131.333 310.613 129.99 310.613 128.333V101.541Z" fill="white"/>
<path d="M311.113 101.541C311.113 100.16 312.232 99.0405 313.613 99.0405H365C366.381 99.0405 367.5 100.16 367.5 101.541V128.333C367.5 129.714 366.381 130.833 365 130.833H313.613C312.232 130.833 311.113 129.714 311.113 128.333V101.541Z" stroke="#B2C8CF" stroke-opacity="0.3"/>
</g>
<path d="M327.689 119.018H328.529V116.75H329.801V116.03H328.529V110.618H328.025L323.609 116.306V116.75H327.689V119.018ZM327.689 116.03H324.701L327.689 112.07V116.03Z" fill="black"/>
<path d="M333.913 119.162C335.377 119.162 336.601 117.95 336.601 116.378C336.601 115.094 335.497 113.81 334.117 113.81C333.265 113.81 332.569 114.086 332.161 114.578C332.425 113.15 333.829 111.602 335.425 111.134V110.474C333.001 111.086 331.129 113.522 331.129 115.91C331.129 117.746 332.077 119.162 333.913 119.162ZM333.877 118.406C332.797 118.406 331.957 117.578 331.957 116.498C331.957 115.37 332.761 114.554 333.877 114.554C335.065 114.554 335.797 115.37 335.797 116.498C335.797 117.578 335.029 118.406 333.877 118.406Z" fill="black"/>
<path d="M347.014 114.604C346.622 114.604 346.287 114.501 346.009 114.296C345.736 114.091 345.529 113.825 345.387 113.497C345.251 113.164 345.182 112.808 345.182 112.43C345.182 112.056 345.251 111.703 345.387 111.371C345.524 111.038 345.727 110.769 345.996 110.564C346.265 110.359 346.588 110.256 346.966 110.256C347.317 110.256 347.632 110.352 347.91 110.543C348.188 110.73 348.404 110.99 348.559 111.323C348.714 111.651 348.792 112.022 348.792 112.437C348.792 112.847 348.714 113.219 348.559 113.551C348.409 113.879 348.197 114.137 347.923 114.324C347.655 114.511 347.352 114.604 347.014 114.604ZM351.834 110.359H352.49L347.062 120.018H346.399L351.834 110.359ZM347.014 113.975C347.233 113.975 347.429 113.911 347.602 113.784C347.775 113.652 347.91 113.469 348.006 113.237C348.106 113 348.156 112.733 348.156 112.437C348.156 112.154 348.11 111.895 348.019 111.658C347.928 111.421 347.791 111.234 347.609 111.097C347.431 110.956 347.217 110.885 346.966 110.885C346.711 110.885 346.497 110.958 346.324 111.104C346.151 111.25 346.021 111.441 345.934 111.678C345.852 111.911 345.811 112.161 345.811 112.43C345.811 112.699 345.854 112.952 345.941 113.189C346.028 113.421 346.16 113.611 346.338 113.756C346.52 113.902 346.745 113.975 347.014 113.975ZM351.943 120.121C351.556 120.121 351.223 120.018 350.945 119.813C350.672 119.608 350.464 119.341 350.323 119.013C350.186 118.681 350.118 118.325 350.118 117.947C350.118 117.573 350.186 117.22 350.323 116.887C350.46 116.55 350.662 116.279 350.931 116.074C351.2 115.869 351.524 115.766 351.902 115.766C352.253 115.766 352.567 115.862 352.845 116.053C353.123 116.24 353.34 116.5 353.495 116.833C353.65 117.165 353.727 117.539 353.727 117.954C353.727 118.364 353.65 118.735 353.495 119.068C353.344 119.396 353.132 119.653 352.859 119.84C352.59 120.027 352.285 120.121 351.943 120.121ZM351.943 119.492C352.166 119.492 352.365 119.428 352.538 119.3C352.711 119.168 352.845 118.986 352.941 118.753C353.041 118.516 353.091 118.25 353.091 117.954C353.091 117.671 353.046 117.411 352.955 117.174C352.864 116.937 352.727 116.75 352.545 116.614C352.367 116.472 352.153 116.402 351.902 116.402C351.647 116.402 351.433 116.475 351.259 116.621C351.086 116.766 350.956 116.958 350.87 117.195C350.788 117.427 350.747 117.678 350.747 117.947C350.747 118.216 350.79 118.469 350.877 118.706C350.963 118.938 351.095 119.127 351.273 119.273C351.451 119.419 351.674 119.492 351.943 119.492Z" fill="#B2C8CF"/>
<g opacity="0.7">
<path d="M308.957 80.1006H311.032C311.501 80.1006 311.916 80.1803 312.277 80.3398C312.639 80.4993 312.92 80.7305 313.122 81.0332C313.327 81.3359 313.43 81.6956 313.43 82.1123C313.43 82.5257 313.329 82.8805 313.127 83.1768C312.925 83.473 312.644 83.6992 312.282 83.8555C311.921 84.0085 311.504 84.085 311.032 84.085H310.002V87H308.957V80.1006ZM311.032 83.1035C311.937 83.1035 312.39 82.7731 312.39 82.1123C312.39 81.7803 312.276 81.5264 312.048 81.3506C311.823 81.1715 311.485 81.082 311.032 81.082H310.002V83.1035H311.032Z" fill="#91B1BB"/>
<path d="M314.777 80.1006H319.343V81.0674H315.827V83.0596H319.06V84.0264H315.827V86.0088H319.343V87H314.777V80.1006Z" fill="#91B1BB"/>
<path d="M320.91 80.1006H323.039C323.479 80.1006 323.877 80.1803 324.235 80.3398C324.593 80.4961 324.877 80.7256 325.085 81.0283C325.293 81.3278 325.397 81.6826 325.397 82.0928C325.397 82.529 325.271 82.9049 325.017 83.2207C324.766 83.5365 324.431 83.7578 324.011 83.8848L325.93 87H324.729L322.995 83.9922L322.575 83.9971H321.96V87H320.91V80.1006ZM323.132 83.1377C323.519 83.1247 323.82 83.0286 324.035 82.8496C324.25 82.6673 324.357 82.4215 324.357 82.1123C324.357 81.7835 324.24 81.5231 324.006 81.3311C323.771 81.139 323.452 81.043 323.049 81.043H321.97V83.1377H323.132Z" fill="#91B1BB"/>
<path d="M329.836 87.0928C329.13 87.0928 328.531 86.9365 328.039 86.624C327.548 86.3083 327.18 85.8835 326.936 85.3496C326.691 84.8125 326.569 84.2119 326.569 83.5479C326.569 82.8805 326.691 82.2799 326.936 81.7461C327.18 81.209 327.548 80.7842 328.039 80.4717C328.531 80.1559 329.133 79.998 329.846 79.998C330.533 79.998 331.128 80.1641 331.633 80.4961C332.137 80.8281 332.525 81.3099 332.795 81.9414L331.809 82.332C331.538 81.4434 330.881 80.999 329.836 80.999C329.341 80.999 328.928 81.1064 328.596 81.3213C328.264 81.5361 328.016 81.8324 327.854 82.21C327.691 82.5843 327.609 83.0156 327.609 83.5039C327.609 84.0085 327.688 84.4544 327.844 84.8418C328.003 85.2292 328.249 85.5352 328.581 85.7598C328.913 85.9811 329.331 86.0918 329.836 86.0918C330.324 86.0918 330.729 85.9844 331.052 85.7695C331.377 85.5547 331.636 85.2113 331.828 84.7393L332.805 85.1396C332.531 85.7712 332.139 86.2546 331.628 86.5898C331.117 86.9251 330.52 87.0928 329.836 87.0928Z" fill="#91B1BB"/>
<path d="M334.074 80.1006H338.64V81.0674H335.124V83.0596H338.356V84.0264H335.124V86.0088H338.64V87H334.074V80.1006Z" fill="#91B1BB"/>
<path d="M345.349 80.1006V87H344.289L341.218 81.8242V87H340.207V80.1006H341.262L344.343 85.2568V80.1006H345.349Z" fill="#91B1BB"/>
<path d="M348.728 81.043H346.481V80.1006H352.019V81.043H349.777V87H348.728V81.043Z" fill="#91B1BB"/>
<path d="M354.382 80.1006H355.188L357.873 87H356.74L356.179 85.4473H353.405L352.834 87H351.687L354.382 80.1006ZM355.847 84.5439L354.792 81.6289L353.732 84.5439H355.847Z" fill="#91B1BB"/>
<path d="M361.447 87.0928C360.741 87.0928 360.142 86.9365 359.65 86.624C359.159 86.3083 358.791 85.8835 358.547 85.3496C358.303 84.8125 358.181 84.2119 358.181 83.5479C358.181 82.8805 358.301 82.2799 358.542 81.7461C358.786 81.209 359.154 80.7842 359.646 80.4717C360.137 80.1559 360.741 79.998 361.457 79.998C362.137 79.998 362.73 80.1641 363.234 80.4961C363.739 80.8281 364.126 81.3099 364.396 81.9414L363.464 82.332C363.298 81.8568 363.042 81.502 362.697 81.2676C362.352 81.0332 361.936 80.916 361.447 80.916C360.956 80.916 360.542 81.0299 360.207 81.2578C359.875 81.4857 359.628 81.7949 359.465 82.1855C359.302 82.5729 359.221 83.0124 359.221 83.5039C359.221 84.0117 359.299 84.4642 359.455 84.8613C359.615 85.2585 359.86 85.5726 360.192 85.8037C360.528 86.0348 360.946 86.1504 361.447 86.1504C361.828 86.1504 362.163 86.082 362.453 85.9453C362.746 85.8086 362.979 85.6068 363.151 85.3398C363.324 85.0697 363.423 84.7425 363.449 84.3584L363.474 84.1777H361.877V83.3281H364.509V87H363.674L363.581 85.9404C363.379 86.3018 363.093 86.585 362.722 86.79C362.354 86.9919 361.929 87.0928 361.447 87.0928Z" fill="#91B1BB"/>
<path d="M366.154 80.1006H370.72V81.0674H367.204V83.0596H370.437V84.0264H367.204V86.0088H370.72V87H366.154V80.1006Z" fill="#91B1BB"/>
</g>
<path fill-rule="evenodd" clip-rule="evenodd" d="M102.378 170.324C102.378 169.22 103.274 168.324 104.378 168.324H293.036C294.141 168.324 295.036 169.22 295.036 170.324V171.243C295.036 172.348 294.141 173.243 293.036 173.243H104.378C103.274 173.243 102.378 172.348 102.378 171.243V170.324Z" fill="#EDF3F6"/>
<path fill-rule="evenodd" clip-rule="evenodd" d="M103.198 170.324C103.198 169.22 104.094 168.324 105.198 168.324H170.987C172.092 168.324 172.987 169.22 172.987 170.324V171.243C172.987 172.348 172.092 173.243 170.987 173.243H105.198C104.094 173.243 103.198 172.348 103.198 171.243V170.324Z" fill="#01C7E4"/>
<g filter="url(#filter4_d)">
<path fill-rule="evenodd" clip-rule="evenodd" d="M175.342 180.622C180.776 180.622 185.18 176.217 185.18 170.784C185.18 165.35 180.776 160.946 175.342 160.946C169.909 160.946 165.505 165.35 165.505 170.784C165.505 176.217 169.909 180.622 175.342 180.622Z" fill="white"/>
<path fill-rule="evenodd" clip-rule="evenodd" d="M175.342 180.622C180.776 180.622 185.18 176.217 185.18 170.784C185.18 165.35 180.776 160.946 175.342 160.946C169.909 160.946 165.505 165.35 165.505 170.784C165.505 176.217 169.909 180.622 175.342 180.622Z" stroke="#DCECF5" stroke-width="0.5"/>
</g>
<g filter="url(#filter5_d)">
<path fill-rule="evenodd" clip-rule="evenodd" d="M28.5946 156.568C28.5946 154.911 29.9378 153.568 31.5946 153.568H82.982C84.6388 153.568 85.982 154.911 85.982 156.568V183.36C85.982 185.017 84.6388 186.36 82.982 186.36H31.5946C29.9378 186.36 28.5946 185.017 28.5946 183.36V156.568Z" fill="white"/>
<path d="M29.0946 156.568C29.0946 155.187 30.2139 154.068 31.5946 154.068H82.982C84.3627 154.068 85.482 155.187 85.482 156.568V183.36C85.482 184.741 84.3627 185.86 82.982 185.86H31.5946C30.2139 185.86 29.0946 184.741 29.0946 183.36V156.568Z" stroke="#B2C8CF" stroke-opacity="0.3"/>
</g>
<path fill-rule="evenodd" clip-rule="evenodd" d="M68 168.324H74.8537L71.4268 171.751L68 168.324Z" fill="#B2C8CF"/>
<path d="M45.372 174H46.224L43.284 165.6H42.636L39.72 174H40.596L41.328 171.828H44.604L45.372 174ZM44.352 171.084H41.58L42.732 167.724C42.804 167.52 42.912 167.124 42.96 166.968C42.996 167.124 43.128 167.52 43.2 167.724L44.352 171.084Z" fill="black"/>
<path d="M53.9109 174V165.6H53.0709V171.96V172.548C52.9509 172.332 52.8429 172.152 52.7229 171.96L48.8229 165.6H47.9709V174H48.8109V167.712V167.148C48.9189 167.34 49.0389 167.532 49.1469 167.712L53.0589 174H53.9109Z" fill="black"/>
<path d="M59.0359 166.404H61.3519V165.6H55.8919V166.404H58.1959V174H59.0359V166.404Z" fill="black"/>
<g filter="url(#filter6_d)">
<path fill-rule="evenodd" clip-rule="evenodd" d="M310.613 156.568C310.613 154.911 311.956 153.568 313.613 153.568H365C366.657 153.568 368 154.911 368 156.568V183.36C368 185.017 366.657 186.36 365 186.36H313.613C311.956 186.36 310.613 185.017 310.613 183.36V156.568Z" fill="white"/>
<path d="M311.113 156.568C311.113 155.187 312.232 154.068 313.613 154.068H365C366.381 154.068 367.5 155.187 367.5 156.568V183.36C367.5 184.741 366.381 185.86 365 185.86H313.613C312.232 185.86 311.113 184.741 311.113 183.36V156.568Z" stroke="#B2C8CF" stroke-opacity="0.3"/>
</g>
<path d="M326.633 174.189C328.169 174.189 329.489 173.145 329.489 171.741C329.489 170.637 328.949 169.833 328.073 169.485C328.733 169.125 329.141 168.393 329.141 167.649C329.141 166.353 328.073 165.501 326.681 165.501C325.265 165.501 324.425 166.389 324.077 167.277L324.857 167.577C325.109 167.001 325.649 166.281 326.717 166.281C327.521 166.281 328.265 166.833 328.265 167.769C328.265 168.693 327.605 169.293 326.609 169.293H326.165V170.061H326.729C327.941 170.061 328.601 170.733 328.601 171.765C328.601 172.881 327.701 173.409 326.633 173.409C325.649 173.409 325.037 172.929 324.629 171.897L323.849 172.221C324.257 173.325 325.001 174.189 326.633 174.189Z" fill="black"/>
<path d="M334.165 174.189C336.481 174.189 337.045 171.621 337.045 169.845C337.045 167.793 336.361 165.501 334.165 165.501C331.825 165.501 331.285 168.093 331.285 169.845C331.285 171.945 331.969 174.189 334.165 174.189ZM334.165 173.433C332.557 173.433 332.161 171.609 332.161 169.845C332.161 168.321 332.485 166.257 334.165 166.257C335.749 166.257 336.145 168.105 336.145 169.845C336.145 171.393 335.845 173.433 334.165 173.433Z" fill="black"/>
<path d="M346.014 169.631C345.622 169.631 345.287 169.528 345.009 169.323C344.736 169.118 344.529 168.852 344.387 168.524C344.251 168.191 344.182 167.835 344.182 167.457C344.182 167.083 344.251 166.73 344.387 166.398C344.524 166.065 344.727 165.796 344.996 165.591C345.265 165.386 345.588 165.283 345.966 165.283C346.317 165.283 346.632 165.379 346.91 165.57C347.188 165.757 347.404 166.017 347.559 166.35C347.714 166.678 347.792 167.049 347.792 167.464C347.792 167.874 347.714 168.246 347.559 168.578C347.409 168.906 347.197 169.164 346.923 169.351C346.655 169.538 346.352 169.631 346.014 169.631ZM350.834 165.386H351.49L346.062 175.045H345.399L350.834 165.386ZM346.014 169.002C346.233 169.002 346.429 168.938 346.602 168.811C346.775 168.679 346.91 168.496 347.006 168.264C347.106 168.027 347.156 167.76 347.156 167.464C347.156 167.181 347.11 166.922 347.019 166.685C346.928 166.448 346.791 166.261 346.609 166.124C346.431 165.983 346.217 165.912 345.966 165.912C345.711 165.912 345.497 165.985 345.324 166.131C345.151 166.277 345.021 166.468 344.934 166.705C344.852 166.938 344.811 167.188 344.811 167.457C344.811 167.726 344.854 167.979 344.941 168.216C345.028 168.448 345.16 168.637 345.338 168.783C345.52 168.929 345.745 169.002 346.014 169.002ZM350.943 175.148C350.556 175.148 350.223 175.045 349.945 174.84C349.672 174.635 349.464 174.368 349.323 174.04C349.186 173.707 349.118 173.352 349.118 172.974C349.118 172.6 349.186 172.247 349.323 171.914C349.46 171.577 349.662 171.306 349.931 171.101C350.2 170.896 350.524 170.793 350.902 170.793C351.253 170.793 351.567 170.889 351.845 171.08C352.123 171.267 352.34 171.527 352.495 171.859C352.65 172.192 352.727 172.566 352.727 172.981C352.727 173.391 352.65 173.762 352.495 174.095C352.344 174.423 352.132 174.68 351.859 174.867C351.59 175.054 351.285 175.148 350.943 175.148ZM350.943 174.519C351.166 174.519 351.365 174.455 351.538 174.327C351.711 174.195 351.845 174.013 351.941 173.78C352.041 173.543 352.091 173.277 352.091 172.981C352.091 172.698 352.046 172.438 351.955 172.201C351.864 171.964 351.727 171.777 351.545 171.641C351.367 171.499 351.153 171.429 350.902 171.429C350.647 171.429 350.433 171.502 350.259 171.648C350.086 171.793 349.956 171.985 349.87 172.222C349.788 172.454 349.747 172.705 349.747 172.974C349.747 173.243 349.79 173.496 349.877 173.733C349.963 173.965 350.095 174.154 350.273 174.3C350.451 174.446 350.674 174.519 350.943 174.519Z" fill="#B2C8CF"/>
<path fill-rule="evenodd" clip-rule="evenodd" d="M102.378 225.351C102.378 224.247 103.274 223.351 104.378 223.351H293.036C294.141 223.351 295.036 224.247 295.036 225.351V226.27C295.036 227.375 294.141 228.27 293.036 228.27H104.378C103.274 228.27 102.378 227.375 102.378 226.27V225.351Z" fill="#EDF3F6"/>
<path fill-rule="evenodd" clip-rule="evenodd" d="M103.198 225.351C103.198 224.247 104.094 223.351 105.198 223.351H164.429C165.533 223.351 166.429 224.247 166.429 225.351V226.27C166.429 227.375 165.533 228.27 164.429 228.27H105.198C104.094 228.27 103.198 227.375 103.198 226.27V225.351Z" fill="#01C7E4"/>
<g filter="url(#filter7_d)">
<path fill-rule="evenodd" clip-rule="evenodd" d="M167.144 235.649C172.577 235.649 176.982 231.244 176.982 225.811C176.982 220.378 172.577 215.973 167.144 215.973C161.711 215.973 157.306 220.378 157.306 225.811C157.306 231.244 161.711 235.649 167.144 235.649Z" fill="white"/>
<path fill-rule="evenodd" clip-rule="evenodd" d="M167.144 235.649C172.577 235.649 176.982 231.244 176.982 225.811C176.982 220.378 172.577 215.973 167.144 215.973C161.711 215.973 157.306 220.378 157.306 225.811C157.306 231.244 161.711 235.649 167.144 235.649Z" stroke="#DCECF5" stroke-width="0.5"/>
</g>
<g filter="url(#filter8_d)">
<path fill-rule="evenodd" clip-rule="evenodd" d="M28.5946 211.595C28.5946 209.938 29.9378 208.595 31.5946 208.595H82.982C84.6388 208.595 85.982 209.938 85.982 211.595V238.387C85.982 240.044 84.6388 241.387 82.982 241.387H31.5946C29.9378 241.387 28.5946 240.044 28.5946 238.387V211.595Z" fill="white"/>
<path d="M29.0946 211.595C29.0946 210.214 30.2139 209.095 31.5946 209.095H82.982C84.3627 209.095 85.482 210.214 85.482 211.595V238.387C85.482 239.768 84.3627 240.887 82.982 240.887H31.5946C30.2139 240.887 29.0946 239.768 29.0946 238.387V211.595Z" stroke="#B2C8CF" stroke-opacity="0.3"/>
</g>
<path fill-rule="evenodd" clip-rule="evenodd" d="M68 223.351H74.8537L71.4268 226.778L68 223.351Z" fill="#B2C8CF"/>
<path d="M42.4679 229.216C44.0159 229.216 45.1199 228.376 45.1199 226.888C45.1199 225.316 43.8359 224.596 42.6959 224.152C41.6999 223.768 40.7639 223.36 40.7639 222.472C40.7639 221.752 41.3519 221.284 42.3359 221.284C43.1759 221.284 43.7279 221.68 43.9319 222.124L44.7119 221.86C44.4839 221.092 43.6079 220.528 42.3719 220.528C40.8119 220.528 39.8999 221.416 39.8999 222.484C39.8999 223.876 41.1839 224.512 42.3599 224.956C43.3439 225.328 44.2559 225.88 44.2559 226.912C44.2559 227.92 43.5719 228.46 42.4799 228.46C41.5199 228.46 40.7999 227.956 40.4639 227.224L39.6719 227.512C40.0079 228.424 41.0519 229.216 42.4679 229.216Z" fill="black"/>
<path d="M49.8809 221.476H52.1969V220.672H46.7369V221.476H49.0409V229.072H49.8809V221.476Z" fill="black"/>
<path d="M60.1192 229.072V220.672H59.2792V227.032V227.62C59.1592 227.404 59.0512 227.224 58.9312 227.032L55.0312 220.672H54.1792V229.072H55.0192V222.784V222.22C55.1272 222.412 55.2473 222.604 55.3553 222.784L59.2672 229.072H60.1192Z" fill="black"/>
<g filter="url(#filter9_d)">
<path fill-rule="evenodd" clip-rule="evenodd" d="M310.613 211.595C310.613 209.938 311.956 208.595 313.613 208.595H365C366.657 208.595 368 209.938 368 211.595V238.387C368 240.044 366.657 241.387 365 241.387H313.613C311.956 241.387 310.613 240.044 310.613 238.387V211.595Z" fill="white"/>
<path d="M311.113 211.595C311.113 210.214 312.232 209.095 313.613 209.095H365C366.381 209.095 367.5 210.214 367.5 211.595V238.387C367.5 239.768 366.381 240.887 365 240.887H313.613C312.232 240.887 311.113 239.768 311.113 238.387V211.595Z" stroke="#B2C8CF" stroke-opacity="0.3"/>
</g>
<path d="M323.912 229H329.42V228.196H324.8C324.992 227.14 325.892 226.54 326.852 225.916C328.064 225.136 329.348 224.356 329.348 222.82C329.348 221.392 328.376 220.456 326.72 220.456C325.292 220.456 324.284 221.248 324.032 222.232L324.776 222.568C324.98 221.764 325.508 221.212 326.648 221.212C327.812 221.212 328.472 221.908 328.472 222.82C328.472 223.9 327.5 224.536 326.456 225.244C325.244 226.06 323.912 226.9 323.912 229Z" fill="black"/>
<path d="M334.707 229H335.547V226.732H336.819V226.012H335.547V220.6H335.043L330.627 226.288V226.732H334.707V229ZM334.707 226.012H331.719L334.707 222.052V226.012Z" fill="black"/>
<path d="M346.014 224.658C345.622 224.658 345.287 224.555 345.009 224.35C344.736 224.145 344.529 223.879 344.387 223.551C344.251 223.218 344.182 222.862 344.182 222.484C344.182 222.11 344.251 221.757 344.387 221.425C344.524 221.092 344.727 220.823 344.996 220.618C345.265 220.413 345.588 220.31 345.966 220.31C346.317 220.31 346.632 220.406 346.91 220.597C347.188 220.784 347.404 221.044 347.559 221.377C347.714 221.705 347.792 222.076 347.792 222.491C347.792 222.901 347.714 223.273 347.559 223.605C347.409 223.933 347.197 224.191 346.923 224.378C346.655 224.565 346.352 224.658 346.014 224.658ZM350.834 220.413H351.49L346.062 230.072H345.399L350.834 220.413ZM346.014 224.029C346.233 224.029 346.429 223.965 346.602 223.838C346.775 223.705 346.91 223.523 347.006 223.291C347.106 223.054 347.156 222.787 347.156 222.491C347.156 222.208 347.11 221.949 347.019 221.712C346.928 221.475 346.791 221.288 346.609 221.151C346.431 221.01 346.217 220.939 345.966 220.939C345.711 220.939 345.497 221.012 345.324 221.158C345.151 221.304 345.021 221.495 344.934 221.732C344.852 221.965 344.811 222.215 344.811 222.484C344.811 222.753 344.854 223.006 344.941 223.243C345.028 223.475 345.16 223.664 345.338 223.81C345.52 223.956 345.745 224.029 346.014 224.029ZM350.943 230.175C350.556 230.175 350.223 230.072 349.945 229.867C349.672 229.662 349.464 229.395 349.323 229.067C349.186 228.734 349.118 228.379 349.118 228.001C349.118 227.627 349.186 227.274 349.323 226.941C349.46 226.604 349.662 226.333 349.931 226.128C350.2 225.923 350.524 225.82 350.902 225.82C351.253 225.82 351.567 225.916 351.845 226.107C352.123 226.294 352.34 226.554 352.495 226.886C352.65 227.219 352.727 227.593 352.727 228.008C352.727 228.418 352.65 228.789 352.495 229.122C352.344 229.45 352.132 229.707 351.859 229.894C351.59 230.081 351.285 230.175 350.943 230.175ZM350.943 229.546C351.166 229.546 351.365 229.482 351.538 229.354C351.711 229.222 351.845 229.04 351.941 228.807C352.041 228.57 352.091 228.304 352.091 228.008C352.091 227.725 352.046 227.465 351.955 227.228C351.864 226.991 351.727 226.804 351.545 226.668C351.367 226.526 351.153 226.456 350.902 226.456C350.647 226.456 350.433 226.529 350.259 226.675C350.086 226.82 349.956 227.012 349.87 227.249C349.788 227.481 349.747 227.732 349.747 228.001C349.747 228.27 349.79 228.523 349.877 228.76C349.963 228.992 350.095 229.181 350.273 229.327C350.451 229.473 350.674 229.546 350.943 229.546Z" fill="#B2C8CF"/>
<path d="M30.8505 38.9564H40.83V40.6967H32.7411V45.6488H40.0995V47.3998H32.7411V52.3412H40.83V54.1351H30.8505V38.9564Z" fill="black"/>
<path d="M47.5116 54.3177C46.5591 54.3177 45.7248 54.0707 45.0087 53.5765C44.2925 53.0752 43.7411 52.4021 43.3544 51.557C42.9677 50.712 42.7743 49.781 42.7743 48.764C42.7743 47.7543 42.9641 46.8269 43.3436 45.9818C43.7303 45.1368 44.2782 44.4672 44.9872 43.973C45.7033 43.4717 46.5341 43.2211 47.4794 43.2211C48.2456 43.2211 48.9475 43.4073 49.5848 43.7797C50.2294 44.1521 50.7235 44.6713 51.0673 45.3373V38.9564H52.9149V54.1351H51.2177L51.1425 52.1049C50.7987 52.8067 50.301 53.351 49.6493 53.7377C49.0048 54.1244 48.2922 54.3177 47.5116 54.3177ZM47.9413 52.6635C48.6216 52.6635 49.2089 52.4952 49.703 52.1586C50.1971 51.822 50.5731 51.3601 50.8309 50.7728C51.0887 50.1784 51.2177 49.5088 51.2177 48.764C51.2177 48.0264 51.0887 47.364 50.8309 46.7767C50.5731 46.1823 50.1971 45.7168 49.703 45.3802C49.2089 45.0437 48.6216 44.8754 47.9413 44.8754C47.2609 44.8754 46.6701 45.0472 46.1688 45.391C45.6675 45.7276 45.2844 46.1931 45.0194 46.7875C44.7544 47.3747 44.6219 48.0336 44.6219 48.764C44.6219 49.5017 44.7544 50.1677 45.0194 50.7621C45.2844 51.3493 45.6675 51.8148 46.1688 52.1586C46.6701 52.4952 47.2609 52.6635 47.9413 52.6635Z" fill="black"/>
<path d="M56.5028 38.9564H58.4042V41.2338H56.5028V38.9564ZM56.5458 43.4037H58.3612V54.1351H56.5458V43.4037Z" fill="black"/>
<path d="M65.3973 54.3177C64.4162 54.3177 63.6607 54.042 63.1307 53.4906C62.6008 52.932 62.3358 52.1478 62.3358 51.1381V44.9398H60.5634V43.4037H62.3573V40.4388L64.1512 39.1283V43.4037H67.0516V44.9398H64.1512V50.8373C64.1512 51.4961 64.2802 51.9724 64.538 52.266C64.8029 52.5596 65.1932 52.7064 65.7089 52.7064C65.938 52.7064 66.1708 52.6778 66.4071 52.6205C66.6506 52.556 66.8619 52.4844 67.0409 52.4056L67.0516 54.0599C66.8654 54.1316 66.6219 54.1924 66.3212 54.2426C66.0204 54.2927 65.7124 54.3177 65.3973 54.3177Z" fill="black"/>
<path d="M78.4169 54.3177C77.7079 54.3177 77.0526 54.1924 76.451 53.9418C75.8495 53.6911 75.3374 53.3474 74.9149 52.9105C74.4924 52.4665 74.1916 51.9724 74.0126 51.4281L75.4843 50.7836C75.6919 51.3565 76.0357 51.8363 76.5155 52.223C76.9953 52.6026 77.6005 52.7924 78.3309 52.7924C78.8108 52.7924 79.219 52.7172 79.5555 52.5668C79.8921 52.4092 80.1428 52.198 80.3075 51.933C80.4794 51.668 80.5653 51.3744 80.5653 51.0521C80.5653 50.6941 80.4543 50.4076 80.2323 50.1927C80.0175 49.9707 79.7453 49.7989 79.4159 49.6771C79.0865 49.5554 78.6317 49.4229 78.0516 49.2797C77.314 49.0935 76.716 48.9108 76.2577 48.7318C75.8065 48.5456 75.4198 48.2592 75.0975 47.8724C74.7753 47.4786 74.6141 46.9522 74.6141 46.2933C74.6141 45.6416 74.7824 45.0866 75.119 44.6283C75.4556 44.1628 75.9104 43.8119 76.4833 43.5756C77.0562 43.3392 77.6936 43.2211 78.3954 43.2211C79.2548 43.2211 80.0139 43.418 80.6727 43.8119C81.3387 44.2058 81.8687 44.7644 82.2626 45.4877L80.8553 46.2504C80.5975 45.7777 80.2574 45.3982 79.8348 45.1117C79.4195 44.8181 78.9182 44.6713 78.3309 44.6713C77.7294 44.6713 77.2496 44.8002 76.8915 45.058C76.5334 45.3158 76.3544 45.6488 76.3544 46.057C76.3544 46.3721 76.4582 46.6299 76.6659 46.8304C76.8736 47.0238 77.135 47.1814 77.4501 47.3031C77.7652 47.4177 78.1949 47.5466 78.7391 47.6898C79.5054 47.8975 80.1285 48.1052 80.6083 48.3129C81.0881 48.5134 81.4999 48.8285 81.8436 49.2582C82.1874 49.6807 82.3593 50.25 82.3593 50.9662C82.3593 51.6895 82.1802 52.3054 81.8221 52.8138C81.4641 53.3151 80.9843 53.6911 80.3827 53.9418C79.7883 54.1924 79.133 54.3177 78.4169 54.3177Z" fill="black"/>
<path d="M88.7186 43.2211C89.6425 43.2211 90.4338 43.4001 91.0927 43.7582C91.7587 44.1091 92.2635 44.614 92.6073 45.2728C92.951 45.9317 93.1229 46.7051 93.1229 47.5931V54.1351H91.6083L91.4901 52.223C91.1249 52.8962 90.6057 53.4154 89.9325 53.7806C89.2593 54.1387 88.5396 54.3177 87.7733 54.3177C87.0428 54.3177 86.3912 54.1853 85.8182 53.9203C85.2525 53.6482 84.8085 53.2614 84.4862 52.7601C84.1639 52.2517 84.0028 51.6501 84.0028 50.9554C84.0028 49.8884 84.3895 49.1114 85.163 48.6244C85.9436 48.1302 87.0321 47.8832 88.4286 47.8832H91.4686C91.4615 47.167 91.3719 46.587 91.2001 46.1429C91.0282 45.6918 90.7417 45.3588 90.3407 45.1439C89.9468 44.9219 89.4133 44.8109 88.7401 44.8109C87.5155 44.8109 86.5415 45.3695 85.8182 46.4867L84.4218 45.4769C84.966 44.7321 85.5819 44.17 86.2694 43.7904C86.9569 43.4108 87.7733 43.2211 88.7186 43.2211ZM88.1278 52.7601C89.0015 52.7601 89.7284 52.4987 90.3085 51.976C90.8957 51.446 91.2824 50.7585 91.4686 49.9135V49.2152H88.536C87.6552 49.2152 86.9891 49.3763 86.538 49.6986C86.094 50.0209 85.8719 50.4613 85.8719 51.0199C85.8719 51.5498 86.0689 51.9724 86.4628 52.2875C86.8566 52.6026 87.4117 52.7601 88.1278 52.7601Z" fill="black"/>
<path d="M98.4296 54.3177C97.7134 54.3177 97.1871 54.1244 96.8505 53.7377C96.521 53.3438 96.3563 52.7351 96.3563 51.9115V38.9564H98.1825V51.4281C98.1825 51.8291 98.2577 52.1371 98.4081 52.3519C98.5585 52.5668 98.8378 52.6742 99.246 52.6742C99.468 52.6742 99.7437 52.6455 100.073 52.5883L100.084 54.1244C99.4895 54.2533 98.938 54.3177 98.4296 54.3177Z" fill="black"/>
<path d="M106.099 43.2211C107.023 43.2211 107.815 43.4001 108.474 43.7582C109.14 44.1091 109.644 44.614 109.988 45.2728C110.332 45.9317 110.504 46.7051 110.504 47.5931V54.1351H108.989L108.871 52.223C108.506 52.8962 107.987 53.4154 107.313 53.7806C106.64 54.1387 105.92 54.3177 105.154 54.3177C104.424 54.3177 103.772 54.1853 103.199 53.9203C102.633 53.6482 102.189 53.2614 101.867 52.7601C101.545 52.2517 101.384 51.6501 101.384 50.9554C101.384 49.8884 101.77 49.1114 102.544 48.6244C103.324 48.1302 104.413 47.8832 105.809 47.8832H108.849C108.842 47.167 108.753 46.587 108.581 46.1429C108.409 45.6918 108.123 45.3588 107.722 45.1439C107.328 44.9219 106.794 44.8109 106.121 44.8109C104.896 44.8109 103.922 45.3695 103.199 46.4867L101.803 45.4769C102.347 44.7321 102.963 44.17 103.65 43.7904C104.338 43.4108 105.154 43.2211 106.099 43.2211ZM105.509 52.7601C106.382 52.7601 107.109 52.4987 107.689 51.976C108.277 51.446 108.663 50.7585 108.849 49.9135V49.2152H105.917C105.036 49.2152 104.37 49.3763 103.919 49.6986C103.475 50.0209 103.253 50.4613 103.253 51.0199C103.253 51.5498 103.45 51.9724 103.844 52.2875C104.238 52.6026 104.793 52.7601 105.509 52.7601Z" fill="black"/>
<path d="M113.802 43.4037H115.574V45.5092C115.739 45.015 115.989 44.5961 116.326 44.2523C116.663 43.9086 117.039 43.6508 117.454 43.4789C117.877 43.307 118.306 43.2211 118.743 43.2211C119.072 43.2211 119.391 43.2712 119.699 43.3715C120.007 43.4646 120.279 43.6114 120.516 43.8119L119.678 45.3158C119.291 45.101 118.89 44.9935 118.474 44.9935C117.988 44.9935 117.522 45.1332 117.078 45.4125C116.634 45.6918 116.269 46.1322 115.982 46.7338C115.703 47.3282 115.563 48.073 115.563 48.9681V54.1351H113.802V43.4037Z" fill="black"/>
<path d="M125.736 53.9525L121.289 43.4037H123.298L126.703 51.847L129.818 43.4037H131.816L125.844 58.7435H123.856L125.736 53.9525Z" fill="black"/>
<path d="M143.117 43.2211C144.041 43.2211 144.832 43.4001 145.491 43.7582C146.157 44.1091 146.662 44.614 147.006 45.2728C147.349 45.9317 147.521 46.7051 147.521 47.5931V54.1351H146.007L145.889 52.223C145.523 52.8962 145.004 53.4154 144.331 53.7806C143.658 54.1387 142.938 54.3177 142.172 54.3177C141.441 54.3177 140.79 54.1853 140.217 53.9203C139.651 53.6482 139.207 53.2614 138.885 52.7601C138.562 52.2517 138.401 51.6501 138.401 50.9554C138.401 49.8884 138.788 49.1114 139.561 48.6244C140.342 48.1302 141.431 47.8832 142.827 47.8832H145.867C145.86 47.167 145.77 46.587 145.599 46.1429C145.427 45.6918 145.14 45.3588 144.739 45.1439C144.345 44.9219 143.812 44.8109 143.139 44.8109C141.914 44.8109 140.94 45.3695 140.217 46.4867L138.82 45.4769C139.364 44.7321 139.98 44.17 140.668 43.7904C141.355 43.4108 142.172 43.2211 143.117 43.2211ZM142.526 52.7601C143.4 52.7601 144.127 52.4987 144.707 51.976C145.294 51.446 145.681 50.7585 145.867 49.9135V49.2152H142.934C142.054 49.2152 141.388 49.3763 140.936 49.6986C140.492 50.0209 140.27 50.4613 140.27 51.0199C140.27 51.5498 140.467 51.9724 140.861 52.2875C141.255 52.6026 141.81 52.7601 142.526 52.7601Z" fill="black"/>
<path d="M152.828 54.3177C152.112 54.3177 151.585 54.1244 151.249 53.7377C150.919 53.3438 150.755 52.7351 150.755 51.9115V38.9564H152.581V51.4281C152.581 51.8291 152.656 52.1371 152.807 52.3519C152.957 52.5668 153.236 52.6742 153.644 52.6742C153.866 52.6742 154.142 52.6455 154.472 52.5883L154.482 54.1244C153.888 54.2533 153.336 54.3177 152.828 54.3177Z" fill="black"/>
<path d="M158.822 54.3177C158.106 54.3177 157.58 54.1244 157.243 53.7377C156.914 53.3438 156.749 52.7351 156.749 51.9115V38.9564H158.575V51.4281C158.575 51.8291 158.65 52.1371 158.801 52.3519C158.951 52.5668 159.23 52.6742 159.639 52.6742C159.861 52.6742 160.136 52.6455 160.466 52.5883L160.476 54.1244C159.882 54.2533 159.331 54.3177 158.822 54.3177Z" fill="black"/>
<path d="M167.126 54.3177C166.102 54.3177 165.189 54.0707 164.387 53.5765C163.585 53.0752 162.958 52.4021 162.507 51.557C162.063 50.7048 161.841 49.7666 161.841 48.7426C161.841 47.7256 162.063 46.7982 162.507 45.9603C162.958 45.1153 163.585 44.4493 164.387 43.9623C165.189 43.4681 166.102 43.2211 167.126 43.2211C168.15 43.2211 169.063 43.4681 169.865 43.9623C170.674 44.4493 171.305 45.1153 171.756 45.9603C172.207 46.8054 172.432 47.7328 172.432 48.7426C172.432 49.7666 172.207 50.7048 171.756 51.557C171.305 52.4021 170.674 53.0752 169.865 53.5765C169.063 54.0707 168.15 54.3177 167.126 54.3177ZM167.126 52.7386C167.842 52.7386 168.458 52.5596 168.974 52.2015C169.489 51.8435 169.879 51.3636 170.144 50.7621C170.409 50.1534 170.542 49.4802 170.542 48.7426C170.542 48.0121 170.409 47.3497 170.144 46.7552C169.879 46.1537 169.489 45.6774 168.974 45.3265C168.458 44.9756 167.842 44.8002 167.126 44.8002C166.417 44.8002 165.805 44.9756 165.289 45.3265C164.78 45.6703 164.394 46.1429 164.129 46.7445C163.864 47.3389 163.731 48.0049 163.731 48.7426C163.731 49.4802 163.864 50.1534 164.129 50.7621C164.394 51.3708 164.78 51.8542 165.289 52.2123C165.805 52.5632 166.417 52.7386 167.126 52.7386Z" fill="black"/>
<path d="M179.146 54.3177C178.108 54.3177 177.216 54.0707 176.472 53.5765C175.727 53.0752 175.161 52.4056 174.774 51.5677C174.388 50.7227 174.194 49.7953 174.194 48.7855C174.194 47.8116 174.38 46.9021 174.753 46.057C175.125 45.2048 175.68 44.5209 176.418 44.0052C177.163 43.4825 178.065 43.2211 179.125 43.2211C180.142 43.2211 181.033 43.4789 181.8 43.9945C182.573 44.503 183.157 45.2513 183.551 46.2396L181.821 46.9164C181.606 46.2862 181.259 45.7885 180.779 45.4232C180.307 45.058 179.755 44.8754 179.125 44.8754C178.445 44.8754 177.872 45.058 177.406 45.4232C176.941 45.7813 176.597 46.2575 176.375 46.8519C176.153 47.4463 176.042 48.0909 176.042 48.7855C176.042 49.4873 176.153 50.1319 176.375 50.7191C176.597 51.3064 176.937 51.779 177.395 52.1371C177.861 52.488 178.437 52.6635 179.125 52.6635C179.762 52.6635 180.317 52.4844 180.79 52.1263C181.263 51.7611 181.596 51.2705 181.789 50.6547L183.443 51.2777C183.107 52.2373 182.559 52.9857 181.8 53.5228C181.048 54.0528 180.163 54.3177 179.146 54.3177Z" fill="black"/>
<path d="M189.631 43.2211C190.555 43.2211 191.346 43.4001 192.005 43.7582C192.671 44.1091 193.176 44.614 193.519 45.2728C193.863 45.9317 194.035 46.7051 194.035 47.5931V54.1351H192.52L192.402 52.223C192.037 52.8962 191.518 53.4154 190.845 53.7806C190.171 54.1387 189.452 54.3177 188.685 54.3177C187.955 54.3177 187.303 54.1853 186.73 53.9203C186.165 53.6482 185.721 53.2614 185.398 52.7601C185.076 52.2517 184.915 51.6501 184.915 50.9554C184.915 49.8884 185.302 49.1114 186.075 48.6244C186.856 48.1302 187.944 47.8832 189.341 47.8832H192.381C192.374 47.167 192.284 46.587 192.112 46.1429C191.94 45.6918 191.654 45.3588 191.253 45.1439C190.859 44.9219 190.325 44.8109 189.652 44.8109C188.428 44.8109 187.454 45.3695 186.73 46.4867L185.334 45.4769C185.878 44.7321 186.494 44.17 187.182 43.7904C187.869 43.4108 188.685 43.2211 189.631 43.2211ZM189.04 52.7601C189.914 52.7601 190.641 52.4987 191.221 51.976C191.808 51.446 192.195 50.7585 192.381 49.9135V49.2152H189.448C188.567 49.2152 187.901 49.3763 187.45 49.6986C187.006 50.0209 186.784 50.4613 186.784 51.0199C186.784 51.5498 186.981 51.9724 187.375 52.2875C187.769 52.6026 188.324 52.7601 189.04 52.7601Z" fill="black"/>
<path d="M200.727 54.3177C199.746 54.3177 198.991 54.042 198.461 53.4906C197.931 52.932 197.666 52.1478 197.666 51.1381V44.9398H195.893V43.4037H197.687V40.4388L199.481 39.1283V43.4037H202.382V44.9398H199.481V50.8373C199.481 51.4961 199.61 51.9724 199.868 52.266C200.133 52.5596 200.523 52.7064 201.039 52.7064C201.268 52.7064 201.501 52.6778 201.737 52.6205C201.981 52.556 202.192 52.4844 202.371 52.4056L202.382 54.0599C202.196 54.1316 201.952 54.1924 201.651 54.2426C201.35 54.2927 201.043 54.3177 200.727 54.3177Z" fill="black"/>
<path d="M205.024 38.9564H206.926V41.2338H205.024V38.9564ZM205.067 43.4037H206.883V54.1351H205.067V43.4037Z" fill="black"/>
<path d="M214.8 54.3177C213.776 54.3177 212.863 54.0707 212.06 53.5765C211.258 53.0752 210.632 52.4021 210.181 51.557C209.737 50.7048 209.515 49.7666 209.515 48.7426C209.515 47.7256 209.737 46.7982 210.181 45.9603C210.632 45.1153 211.258 44.4493 212.06 43.9623C212.863 43.4681 213.776 43.2211 214.8 43.2211C215.824 43.2211 216.737 43.4681 217.539 43.9623C218.348 44.4493 218.978 45.1153 219.43 45.9603C219.881 46.8054 220.106 47.7328 220.106 48.7426C220.106 49.7666 219.881 50.7048 219.43 51.557C218.978 52.4021 218.348 53.0752 217.539 53.5765C216.737 54.0707 215.824 54.3177 214.8 54.3177ZM214.8 52.7386C215.516 52.7386 216.132 52.5596 216.647 52.2015C217.163 51.8435 217.553 51.3636 217.818 50.7621C218.083 50.1534 218.216 49.4802 218.216 48.7426C218.216 48.0121 218.083 47.3497 217.818 46.7552C217.553 46.1537 217.163 45.6774 216.647 45.3265C216.132 44.9756 215.516 44.8002 214.8 44.8002C214.091 44.8002 213.478 44.9756 212.963 45.3265C212.454 45.6703 212.068 46.1429 211.803 46.7445C211.538 47.3389 211.405 48.0049 211.405 48.7426C211.405 49.4802 211.538 50.1534 211.803 50.7621C212.068 51.3708 212.454 51.8542 212.963 52.2123C213.478 52.5632 214.091 52.7386 214.8 52.7386Z" fill="black"/>
<path d="M222.77 43.4037H224.586V45.0365C224.944 44.4421 225.413 43.9909 225.993 43.683C226.573 43.375 227.2 43.2211 227.873 43.2211C228.711 43.2211 229.409 43.4108 229.968 43.7904C230.533 44.1628 230.952 44.6677 231.224 45.3051C231.504 45.9424 231.651 46.6586 231.665 47.4535V54.1351H229.849V47.7865C229.849 46.8842 229.638 46.1788 229.216 45.6703C228.793 45.1618 228.181 44.9076 227.379 44.9076C226.505 44.9076 225.821 45.169 225.327 45.6918C224.833 46.2074 224.586 46.9594 224.586 47.9476V54.1351H222.77V43.4037Z" fill="black"/>
<path fill-rule="evenodd" clip-rule="evenodd" d="M376 20.0137L372.014 24L376 27.9863L374.986 29L371 25.0137L367.014 29L366 27.9863L369.986 24L366 20.0137L367.014 19L371 22.9863L374.986 19L376 20.0137Z" fill="#A2B7BE"/>
<path fill-rule="evenodd" clip-rule="evenodd" d="M29 311C29 309.343 30.3431 308 32 308H366C367.657 308 369 309.343 369 311V347C369 348.657 367.657 350 366 350H32C30.3431 350 29 348.657 29 347V311Z" fill="url(#paint0_linear)"/>
<path d="M117.179 334.11C116.559 334.11 115.976 333.998 115.429 333.773C114.887 333.543 114.428 333.207 114.052 332.762C113.681 332.313 113.444 331.771 113.341 331.136L114.901 330.741C114.979 331.385 115.226 331.876 115.641 332.213C116.061 332.545 116.583 332.711 117.208 332.711C117.599 332.711 117.938 332.645 118.227 332.513C118.52 332.376 118.742 332.193 118.893 331.964C119.044 331.729 119.12 331.468 119.12 331.18C119.12 330.848 119.022 330.567 118.827 330.338C118.632 330.104 118.388 329.911 118.095 329.759C117.802 329.608 117.404 329.435 116.901 329.239C116.276 328.995 115.773 328.768 115.392 328.558C115.011 328.348 114.684 328.06 114.411 327.694C114.142 327.323 114.008 326.856 114.008 326.295C114.008 325.729 114.147 325.235 114.425 324.815C114.704 324.391 115.08 324.068 115.553 323.849C116.032 323.624 116.557 323.512 117.128 323.512C117.787 323.512 118.38 323.658 118.908 323.951C119.435 324.239 119.867 324.681 120.204 325.277L118.9 326.083C118.7 325.702 118.444 325.411 118.131 325.211C117.819 325.011 117.467 324.911 117.077 324.911C116.798 324.911 116.544 324.967 116.315 325.079C116.085 325.191 115.905 325.348 115.773 325.548C115.646 325.743 115.583 325.965 115.583 326.214C115.583 326.507 115.673 326.756 115.854 326.961C116.039 327.167 116.269 327.337 116.542 327.474C116.82 327.611 117.201 327.772 117.685 327.958C118.329 328.211 118.849 328.446 119.245 328.661C119.645 328.875 119.987 329.178 120.27 329.569C120.553 329.955 120.695 330.445 120.695 331.041C120.695 331.656 120.539 332.196 120.226 332.66C119.918 333.124 119.496 333.482 118.959 333.736C118.422 333.985 117.829 334.11 117.179 334.11Z" fill="white"/>
<path d="M124.577 334.139C123.986 334.139 123.495 334.002 123.104 333.729C122.714 333.456 122.426 333.094 122.24 332.645C122.06 332.196 121.967 331.7 121.962 331.158V326.683H123.463V330.931C123.463 331.488 123.595 331.93 123.859 332.257C124.127 332.579 124.508 332.74 125.001 332.74C125.558 332.74 125.993 332.577 126.305 332.25C126.623 331.922 126.781 331.437 126.781 330.792V326.683H128.283V334H126.781V333.019C126.522 333.39 126.195 333.67 125.8 333.861C125.409 334.046 125.001 334.139 124.577 334.139Z" fill="white"/>
<path d="M134.428 334.139C133.964 334.139 133.529 334.039 133.124 333.839C132.724 333.639 132.404 333.348 132.165 332.967V334H130.604V323.651H132.165V327.708C132.404 327.328 132.721 327.04 133.117 326.844C133.512 326.644 133.942 326.544 134.406 326.544C135.06 326.544 135.624 326.715 136.098 327.057C136.576 327.394 136.938 327.853 137.182 328.434C137.431 329.01 137.555 329.645 137.555 330.338C137.555 331.031 137.431 331.668 137.182 332.25C136.938 332.826 136.579 333.285 136.105 333.626C135.631 333.968 135.072 334.139 134.428 334.139ZM134.054 332.74C134.484 332.74 134.845 332.638 135.138 332.433C135.436 332.223 135.658 331.937 135.805 331.576C135.951 331.214 136.024 330.802 136.024 330.338C136.024 329.879 135.951 329.466 135.805 329.1C135.658 328.734 135.436 328.446 135.138 328.236C134.845 328.026 134.484 327.921 134.054 327.921C133.625 327.921 133.256 328.026 132.948 328.236C132.646 328.446 132.416 328.734 132.26 329.1C132.104 329.466 132.025 329.879 132.025 330.338C132.025 330.802 132.104 331.214 132.26 331.576C132.416 331.937 132.646 332.223 132.948 332.433C133.256 332.638 133.625 332.74 134.054 332.74Z" fill="white"/>
<path d="M139.262 326.683H140.719V327.716C140.934 327.311 141.22 327.015 141.576 326.83C141.933 326.639 142.333 326.544 142.777 326.544C143.271 326.544 143.712 326.656 144.103 326.881C144.494 327.105 144.782 327.459 144.967 327.943C145.226 327.469 145.561 327.118 145.971 326.888C146.381 326.659 146.835 326.544 147.333 326.544C147.914 326.544 148.397 326.683 148.783 326.961C149.174 327.24 149.462 327.613 149.647 328.082C149.833 328.546 149.926 329.066 149.926 329.642V334H148.41V329.833C148.41 329.237 148.302 328.775 148.087 328.448C147.877 328.121 147.526 327.958 147.033 327.958C146.696 327.958 146.4 328.043 146.146 328.214C145.893 328.38 145.697 328.609 145.561 328.902C145.424 329.19 145.355 329.515 145.355 329.876V334H143.839V329.723C143.839 329.176 143.732 328.746 143.517 328.434C143.302 328.116 142.956 327.958 142.477 327.958C142.135 327.958 141.835 328.043 141.576 328.214C141.322 328.38 141.127 328.609 140.99 328.902C140.854 329.19 140.785 329.515 140.785 329.876V334H139.269L139.262 326.683Z" fill="white"/>
<path d="M151.984 323.651H153.566V325.248H151.984V323.651ZM152.021 326.683H153.529V334H152.021V326.683Z" fill="white"/>
<path d="M158.29 334.139C157.602 334.139 157.064 333.946 156.679 333.561C156.298 333.175 156.107 332.643 156.107 331.964V327.958H154.906V326.683H156.129V324.764L157.616 323.68V326.683H159.521V327.958H157.616V331.708C157.616 332.098 157.697 332.379 157.858 332.55C158.019 332.716 158.251 332.799 158.554 332.799C158.847 332.799 159.167 332.721 159.513 332.564L159.521 333.934C159.374 333.988 159.188 334.034 158.964 334.073C158.739 334.117 158.515 334.139 158.29 334.139Z" fill="white"/>
<path d="M167.116 334.139C166.627 334.139 166.173 334.051 165.753 333.875C165.338 333.695 164.984 333.453 164.691 333.15C164.403 332.843 164.198 332.501 164.076 332.125L165.292 331.59C165.424 331.952 165.631 332.257 165.915 332.506C166.198 332.75 166.574 332.872 167.042 332.872C167.335 332.872 167.582 332.823 167.782 332.726C167.987 332.628 168.141 332.501 168.244 332.345C168.346 332.188 168.397 332.022 168.397 331.847C168.397 331.646 168.332 331.485 168.2 331.363C168.068 331.236 167.902 331.136 167.702 331.063C167.501 330.99 167.223 330.907 166.867 330.814C166.374 330.687 165.971 330.56 165.658 330.433C165.351 330.301 165.084 330.101 164.86 329.833C164.64 329.559 164.53 329.193 164.53 328.734C164.53 328.265 164.65 327.867 164.889 327.54C165.128 327.208 165.448 326.959 165.849 326.793C166.249 326.627 166.691 326.544 167.174 326.544C167.78 326.544 168.314 326.681 168.778 326.954C169.242 327.228 169.611 327.613 169.884 328.111L168.712 328.749C168.346 328.08 167.816 327.745 167.123 327.745C166.776 327.745 166.498 327.821 166.288 327.972C166.083 328.119 165.98 328.307 165.98 328.536C165.98 328.707 166.042 328.851 166.164 328.968C166.291 329.081 166.449 329.173 166.64 329.247C166.83 329.315 167.091 329.396 167.423 329.488C167.936 329.63 168.356 329.774 168.683 329.92C169.01 330.062 169.291 330.282 169.525 330.58C169.765 330.877 169.884 331.275 169.884 331.773C169.884 332.291 169.755 332.728 169.496 333.084C169.237 333.436 168.898 333.7 168.478 333.875C168.058 334.051 167.604 334.139 167.116 334.139Z" fill="white"/>
<path d="M171.649 326.683H173.209V327.708C173.449 327.333 173.769 327.044 174.169 326.844C174.574 326.644 175.009 326.544 175.473 326.544C176.117 326.544 176.676 326.715 177.15 327.057C177.624 327.398 177.982 327.86 178.227 328.441C178.476 329.017 178.6 329.652 178.6 330.345C178.6 331.039 178.476 331.676 178.227 332.257C177.982 332.833 177.621 333.292 177.143 333.634C176.669 333.971 176.105 334.139 175.451 334.139C174.987 334.139 174.557 334.042 174.162 333.846C173.766 333.646 173.449 333.355 173.209 332.975V337.032H171.649V326.683ZM175.099 332.762C175.529 332.762 175.89 332.657 176.183 332.447C176.481 332.237 176.703 331.949 176.85 331.583C176.996 331.217 177.069 330.804 177.069 330.345C177.069 329.881 176.996 329.469 176.85 329.107C176.703 328.746 176.481 328.463 176.183 328.258C175.89 328.048 175.529 327.943 175.099 327.943C174.669 327.943 174.301 328.048 173.993 328.258C173.69 328.463 173.461 328.746 173.305 329.107C173.148 329.469 173.07 329.881 173.07 330.345C173.07 330.804 173.148 331.217 173.305 331.583C173.461 331.949 173.69 332.237 173.993 332.447C174.301 332.657 174.669 332.762 175.099 332.762Z" fill="white"/>
<path d="M181.735 334.139C181.256 334.139 180.89 334.015 180.636 333.766C180.387 333.512 180.263 333.094 180.263 332.513V323.651H181.771V332.103C181.771 332.323 181.823 332.491 181.925 332.608C182.028 332.721 182.196 332.777 182.431 332.777C182.553 332.777 182.729 332.76 182.958 332.726L182.965 334C182.511 334.093 182.101 334.139 181.735 334.139Z" fill="white"/>
<path d="M184.416 323.651H185.998V325.248H184.416V323.651ZM184.452 326.683H185.961V334H184.452V326.683Z" fill="white"/>
<path d="M190.722 334.139C190.033 334.139 189.496 333.946 189.11 333.561C188.729 333.175 188.539 332.643 188.539 331.964V327.958H187.338V326.683H188.561V324.764L190.048 323.68V326.683H191.952V327.958H190.048V331.708C190.048 332.098 190.128 332.379 190.29 332.55C190.451 332.716 190.683 332.799 190.985 332.799C191.278 332.799 191.598 332.721 191.945 332.564L191.952 333.934C191.806 333.988 191.62 334.034 191.396 334.073C191.171 334.117 190.946 334.139 190.722 334.139Z" fill="white"/>
<path d="M200.185 334.139C199.452 334.139 198.825 333.966 198.302 333.619C197.78 333.272 197.387 332.811 197.123 332.235C196.859 331.659 196.728 331.031 196.728 330.353C196.728 329.688 196.857 329.066 197.116 328.485C197.375 327.904 197.763 327.435 198.28 327.079C198.803 326.722 199.433 326.544 200.17 326.544C200.888 326.544 201.515 326.722 202.052 327.079C202.589 327.435 202.992 327.96 203.261 328.653L201.825 329.21C201.698 328.819 201.488 328.507 201.195 328.272C200.902 328.038 200.561 327.921 200.17 327.921C199.74 327.921 199.381 328.036 199.093 328.265C198.81 328.49 198.6 328.788 198.463 329.159C198.332 329.525 198.266 329.923 198.266 330.353C198.266 330.787 198.332 331.188 198.463 331.554C198.6 331.92 198.81 332.213 199.093 332.433C199.381 332.652 199.74 332.762 200.17 332.762C200.565 332.762 200.907 332.647 201.195 332.418C201.488 332.188 201.693 331.881 201.811 331.495L203.188 332.015C202.948 332.684 202.565 333.207 202.038 333.583C201.51 333.954 200.893 334.139 200.185 334.139Z" fill="white"/>
<path d="M207.67 334.139C206.952 334.139 206.312 333.968 205.751 333.626C205.194 333.285 204.762 332.823 204.455 332.242C204.147 331.656 203.993 331.017 203.993 330.323C203.993 329.635 204.147 329.002 204.455 328.426C204.762 327.845 205.194 327.386 205.751 327.049C206.312 326.712 206.952 326.544 207.67 326.544C208.388 326.544 209.025 326.712 209.582 327.049C210.143 327.386 210.578 327.845 210.885 328.426C211.198 329.002 211.354 329.635 211.354 330.323C211.354 331.017 211.198 331.656 210.885 332.242C210.578 332.823 210.143 333.285 209.582 333.626C209.025 333.968 208.388 334.139 207.67 334.139ZM207.67 332.828C208.129 332.828 208.517 332.716 208.834 332.491C209.152 332.267 209.389 331.964 209.545 331.583C209.701 331.202 209.779 330.782 209.779 330.323C209.779 329.864 209.701 329.449 209.545 329.078C209.389 328.702 209.152 328.404 208.834 328.185C208.517 327.965 208.129 327.855 207.67 327.855C207.211 327.855 206.823 327.965 206.505 328.185C206.193 328.404 205.958 328.702 205.802 329.078C205.646 329.449 205.568 329.864 205.568 330.323C205.568 330.787 205.646 331.209 205.802 331.59C205.958 331.966 206.193 332.267 206.505 332.491C206.823 332.716 207.211 332.828 207.67 332.828Z" fill="white"/>
<path d="M212.987 326.683H214.496V327.665C214.755 327.293 215.08 327.015 215.47 326.83C215.861 326.639 216.269 326.544 216.693 326.544C217.279 326.544 217.768 326.681 218.158 326.954C218.554 327.228 218.844 327.589 219.03 328.038C219.215 328.487 219.311 328.983 219.315 329.525V334H217.807V329.752C217.807 329.2 217.672 328.761 217.404 328.434C217.14 328.106 216.762 327.943 216.269 327.943C215.712 327.943 215.277 328.106 214.965 328.434C214.652 328.761 214.496 329.247 214.496 329.891V334H212.987V326.683Z" fill="white"/>
<path d="M227.211 334H225.812V327.958H223.19V334H221.681V327.958H220.458V326.683H221.681V326.126C221.681 325.58 221.811 325.108 222.069 324.713C222.333 324.317 222.685 324.02 223.124 323.819C223.568 323.614 224.059 323.512 224.596 323.512C225.138 323.512 225.617 323.573 226.032 323.695C226.452 323.817 226.852 324.002 227.233 324.251L226.522 325.321C225.985 324.93 225.368 324.735 224.669 324.735C224.181 324.735 223.812 324.859 223.563 325.108C223.314 325.353 223.19 325.702 223.19 326.156V326.683H227.211V334Z" fill="white"/>
<path d="M232.638 332.945C233.244 333.028 233.744 333.131 234.14 333.253C234.54 333.375 234.875 333.58 235.143 333.868C235.412 334.151 235.546 334.549 235.546 335.062C235.546 335.57 235.409 336.002 235.136 336.358C234.862 336.715 234.486 336.981 234.008 337.157C233.529 337.337 232.985 337.428 232.375 337.428C231.647 337.428 231.024 337.318 230.507 337.098C229.989 336.883 229.596 336.583 229.328 336.197C229.064 335.812 228.932 335.367 228.932 334.864C228.932 334.762 228.942 334.657 228.961 334.549L229.899 333.736C229.367 333.429 229.101 332.955 229.101 332.315C229.101 331.72 229.34 331.229 229.818 330.843C229.623 330.619 229.472 330.365 229.364 330.082C229.257 329.793 229.203 329.491 229.203 329.173C229.203 328.67 229.335 328.219 229.599 327.818C229.862 327.418 230.216 327.105 230.661 326.881C231.105 326.656 231.593 326.544 232.125 326.544C232.785 326.544 233.375 326.712 233.898 327.049L234.975 326.119L235.766 327.093L234.733 327.943C234.958 328.338 235.07 328.773 235.07 329.247C235.07 329.764 234.94 330.221 234.682 330.616C234.423 331.012 234.071 331.317 233.627 331.532C233.188 331.747 232.704 331.854 232.177 331.854C231.649 331.854 231.168 331.749 230.734 331.539C230.617 331.603 230.531 331.676 230.478 331.759C230.424 331.842 230.397 331.939 230.397 332.052C230.397 332.242 230.47 332.391 230.617 332.499C230.763 332.606 230.956 332.684 231.195 332.733C231.435 332.782 231.786 332.835 232.25 332.894L232.638 332.945ZM232.177 327.716C231.742 327.716 231.398 327.853 231.144 328.126C230.89 328.399 230.763 328.753 230.763 329.188C230.763 329.618 230.888 329.964 231.137 330.228C231.391 330.492 231.737 330.624 232.177 330.624C232.611 330.624 232.951 330.492 233.195 330.228C233.444 329.964 233.568 329.618 233.568 329.188C233.568 328.749 233.444 328.395 233.195 328.126C232.946 327.853 232.606 327.716 232.177 327.716ZM232.36 336.256C232.902 336.256 233.329 336.166 233.642 335.985C233.954 335.809 234.11 335.555 234.11 335.223C234.11 335.003 234.035 334.833 233.883 334.71C233.737 334.588 233.527 334.496 233.253 334.432C232.98 334.374 232.599 334.315 232.111 334.256C232.067 334.251 231.906 334.234 231.627 334.205C231.354 334.176 231.088 334.132 230.829 334.073L230.287 334.857C230.292 334.911 230.304 334.981 230.324 335.069C230.407 335.465 230.631 335.76 230.998 335.956C231.364 336.156 231.818 336.256 232.36 336.256Z" fill="white"/>
<path d="M239.508 334.139C238.917 334.139 238.427 334.002 238.036 333.729C237.646 333.456 237.357 333.094 237.172 332.645C236.991 332.196 236.898 331.7 236.894 331.158V326.683H238.395V330.931C238.395 331.488 238.527 331.93 238.791 332.257C239.059 332.579 239.44 332.74 239.933 332.74C240.49 332.74 240.924 332.577 241.237 332.25C241.554 331.922 241.713 331.437 241.713 330.792V326.683H243.214V334H241.713V333.019C241.454 333.39 241.127 333.67 240.731 333.861C240.341 334.046 239.933 334.139 239.508 334.139Z" fill="white"/>
<path d="M245.521 326.683H246.994V328.016C247.101 327.704 247.262 327.438 247.477 327.218C247.692 326.993 247.936 326.825 248.209 326.712C248.488 326.6 248.771 326.544 249.059 326.544C249.298 326.544 249.528 326.583 249.748 326.661C249.972 326.739 250.165 326.856 250.326 327.013L249.638 328.258C249.384 328.097 249.115 328.016 248.832 328.016C248.52 328.016 248.222 328.111 247.938 328.302C247.655 328.492 247.423 328.79 247.243 329.195C247.067 329.596 246.979 330.096 246.979 330.697V334H245.521V326.683Z" fill="white"/>
<path d="M254.135 326.544C254.774 326.544 255.326 326.668 255.79 326.917C256.254 327.167 256.608 327.518 256.852 327.972C257.096 328.421 257.218 328.946 257.218 329.547V334H255.966L255.863 332.857C255.629 333.268 255.29 333.585 254.845 333.81C254.406 334.029 253.944 334.139 253.461 334.139C252.958 334.139 252.509 334.046 252.113 333.861C251.718 333.675 251.408 333.407 251.183 333.055C250.958 332.699 250.846 332.279 250.846 331.795C250.846 331.053 251.11 330.516 251.637 330.184C252.165 329.852 252.887 329.686 253.805 329.686H255.841C255.832 329.251 255.773 328.905 255.666 328.646C255.558 328.382 255.382 328.187 255.138 328.06C254.899 327.933 254.567 327.87 254.142 327.87C253.727 327.87 253.363 327.967 253.051 328.163C252.743 328.358 252.489 328.622 252.289 328.954L251.132 328.119C251.503 327.606 251.928 327.215 252.406 326.947C252.89 326.678 253.466 326.544 254.135 326.544ZM253.761 332.85C254.142 332.85 254.479 332.767 254.772 332.601C255.07 332.435 255.309 332.213 255.49 331.935C255.67 331.656 255.788 331.349 255.841 331.012V330.785H253.893C253.405 330.785 253.034 330.882 252.78 331.078C252.526 331.268 252.399 331.522 252.399 331.839C252.399 332.147 252.516 332.394 252.75 332.579C252.985 332.76 253.322 332.85 253.761 332.85Z" fill="white"/>
<path d="M261.723 334.139C261.034 334.139 260.497 333.946 260.111 333.561C259.73 333.175 259.54 332.643 259.54 331.964V327.958H258.339V326.683H259.562V324.764L261.049 323.68V326.683H262.953V327.958H261.049V331.708C261.049 332.098 261.129 332.379 261.291 332.55C261.452 332.716 261.684 332.799 261.986 332.799C262.279 332.799 262.599 332.721 262.946 332.564L262.953 333.934C262.807 333.988 262.621 334.034 262.396 334.073C262.172 334.117 261.947 334.139 261.723 334.139Z" fill="white"/>
<path d="M264.674 323.651H266.256V325.248H264.674V323.651ZM264.711 326.683H266.22V334H264.711V326.683Z" fill="white"/>
<path d="M271.522 334.139C270.805 334.139 270.165 333.968 269.604 333.626C269.047 333.285 268.615 332.823 268.307 332.242C268 331.656 267.846 331.017 267.846 330.323C267.846 329.635 268 329.002 268.307 328.426C268.615 327.845 269.047 327.386 269.604 327.049C270.165 326.712 270.805 326.544 271.522 326.544C272.24 326.544 272.877 326.712 273.434 327.049C273.996 327.386 274.43 327.845 274.738 328.426C275.05 329.002 275.207 329.635 275.207 330.323C275.207 331.017 275.05 331.656 274.738 332.242C274.43 332.823 273.996 333.285 273.434 333.626C272.877 333.968 272.24 334.139 271.522 334.139ZM271.522 332.828C271.981 332.828 272.37 332.716 272.687 332.491C273.004 332.267 273.241 331.964 273.397 331.583C273.554 331.202 273.632 330.782 273.632 330.323C273.632 329.864 273.554 329.449 273.397 329.078C273.241 328.702 273.004 328.404 272.687 328.185C272.37 327.965 271.981 327.855 271.522 327.855C271.063 327.855 270.675 327.965 270.358 328.185C270.045 328.404 269.811 328.702 269.655 329.078C269.499 329.449 269.42 329.864 269.42 330.323C269.42 330.787 269.499 331.209 269.655 331.59C269.811 331.966 270.045 332.267 270.358 332.491C270.675 332.716 271.063 332.828 271.522 332.828Z" fill="white"/>
<path d="M276.84 326.683H278.349V327.665C278.607 327.293 278.932 327.015 279.323 326.83C279.713 326.639 280.121 326.544 280.546 326.544C281.132 326.544 281.62 326.681 282.011 326.954C282.406 327.228 282.697 327.589 282.882 328.038C283.068 328.487 283.163 328.983 283.168 329.525V334H281.659V329.752C281.659 329.2 281.525 328.761 281.256 328.434C280.993 328.106 280.614 327.943 280.121 327.943C279.564 327.943 279.13 328.106 278.817 328.434C278.505 328.761 278.349 329.247 278.349 329.891V334H276.84V326.683Z" fill="white"/>
<defs>
<filter id="filter0_d" x="0" y="0" width="398.234" height="372" filterUnits="userSpaceOnUse" color-interpolation-filters="sRGB">
<feFlood flood-opacity="0" result="BackgroundImageFix"/>
<feColorMatrix in="SourceAlpha" type="matrix" values="0 0 0 0 0 0 0 0 0 0 0 0 0 0 0 0 0 0 127 0"/>
<feOffset dy="2"/>
<feGaussianBlur stdDeviation="2"/>
<feColorMatrix type="matrix" values="0 0 0 0 0 0 0 0 0 0 0 0 0 0 0 0 0 0 0.1 0"/>
<feBlend mode="normal" in2="BackgroundImageFix" result="effect1_dropShadow"/>
<feBlend mode="normal" in="SourceGraphic" in2="effect1_dropShadow" result="shape"/>
</filter>
<filter id="filter1_d" x="209.723" y="101.669" width="36.1757" height="36.1757" filterUnits="userSpaceOnUse" color-interpolation-filters="sRGB">
<feFlood flood-opacity="0" result="BackgroundImageFix"/>
<feColorMatrix in="SourceAlpha" type="matrix" values="0 0 0 0 0 0 0 0 0 0 0 0 0 0 0 0 0 0 127 0"/>
<feOffset dy="4"/>
<feGaussianBlur stdDeviation="4"/>
<feColorMatrix type="matrix" values="0 0 0 0 0 0 0 0 0 0 0 0 0 0 0 0 0 0 0.133379 0"/>
<feBlend mode="normal" in2="BackgroundImageFix" result="effect1_dropShadow"/>
<feBlend mode="normal" in="SourceGraphic" in2="effect1_dropShadow" result="shape"/>
</filter>
<filter id="filter2_d" x="24.5946" y="98.5405" width="65.3874" height="40.7928" filterUnits="userSpaceOnUse" color-interpolation-filters="sRGB">
<feFlood flood-opacity="0" result="BackgroundImageFix"/>
<feColorMatrix in="SourceAlpha" type="matrix" values="0 0 0 0 0 0 0 0 0 0 0 0 0 0 0 0 0 0 127 0"/>
<feOffset dy="4"/>
<feGaussianBlur stdDeviation="2"/>
<feColorMatrix type="matrix" values="0 0 0 0 0 0 0 0 0 0 0 0 0 0 0 0 0 0 0.03 0"/>
<feBlend mode="normal" in2="BackgroundImageFix" result="effect1_dropShadow"/>
<feBlend mode="normal" in="SourceGraphic" in2="effect1_dropShadow" result="shape"/>
</filter>
<filter id="filter3_d" x="306.613" y="98.5405" width="65.3874" height="40.7928" filterUnits="userSpaceOnUse" color-interpolation-filters="sRGB">
<feFlood flood-opacity="0" result="BackgroundImageFix"/>
<feColorMatrix in="SourceAlpha" type="matrix" values="0 0 0 0 0 0 0 0 0 0 0 0 0 0 0 0 0 0 127 0"/>
<feOffset dy="4"/>
<feGaussianBlur stdDeviation="2"/>
<feColorMatrix type="matrix" values="0 0 0 0 0 0 0 0 0 0 0 0 0 0 0 0 0 0 0.03 0"/>
<feBlend mode="normal" in2="BackgroundImageFix" result="effect1_dropShadow"/>
<feBlend mode="normal" in="SourceGraphic" in2="effect1_dropShadow" result="shape"/>
</filter>
<filter id="filter4_d" x="157.255" y="156.696" width="36.1757" height="36.1757" filterUnits="userSpaceOnUse" color-interpolation-filters="sRGB">
<feFlood flood-opacity="0" result="BackgroundImageFix"/>
<feColorMatrix in="SourceAlpha" type="matrix" values="0 0 0 0 0 0 0 0 0 0 0 0 0 0 0 0 0 0 127 0"/>
<feOffset dy="4"/>
<feGaussianBlur stdDeviation="4"/>
<feColorMatrix type="matrix" values="0 0 0 0 0 0 0 0 0 0 0 0 0 0 0 0 0 0 0.133379 0"/>
<feBlend mode="normal" in2="BackgroundImageFix" result="effect1_dropShadow"/>
<feBlend mode="normal" in="SourceGraphic" in2="effect1_dropShadow" result="shape"/>
</filter>
<filter id="filter5_d" x="24.5946" y="153.568" width="65.3874" height="40.7928" filterUnits="userSpaceOnUse" color-interpolation-filters="sRGB">
<feFlood flood-opacity="0" result="BackgroundImageFix"/>
<feColorMatrix in="SourceAlpha" type="matrix" values="0 0 0 0 0 0 0 0 0 0 0 0 0 0 0 0 0 0 127 0"/>
<feOffset dy="4"/>
<feGaussianBlur stdDeviation="2"/>
<feColorMatrix type="matrix" values="0 0 0 0 0 0 0 0 0 0 0 0 0 0 0 0 0 0 0.03 0"/>
<feBlend mode="normal" in2="BackgroundImageFix" result="effect1_dropShadow"/>
<feBlend mode="normal" in="SourceGraphic" in2="effect1_dropShadow" result="shape"/>
</filter>
<filter id="filter6_d" x="306.613" y="153.568" width="65.3874" height="40.7928" filterUnits="userSpaceOnUse" color-interpolation-filters="sRGB">
<feFlood flood-opacity="0" result="BackgroundImageFix"/>
<feColorMatrix in="SourceAlpha" type="matrix" values="0 0 0 0 0 0 0 0 0 0 0 0 0 0 0 0 0 0 127 0"/>
<feOffset dy="4"/>
<feGaussianBlur stdDeviation="2"/>
<feColorMatrix type="matrix" values="0 0 0 0 0 0 0 0 0 0 0 0 0 0 0 0 0 0 0.03 0"/>
<feBlend mode="normal" in2="BackgroundImageFix" result="effect1_dropShadow"/>
<feBlend mode="normal" in="SourceGraphic" in2="effect1_dropShadow" result="shape"/>
</filter>
<filter id="filter7_d" x="149.056" y="211.723" width="36.1757" height="36.1757" filterUnits="userSpaceOnUse" color-interpolation-filters="sRGB">
<feFlood flood-opacity="0" result="BackgroundImageFix"/>
<feColorMatrix in="SourceAlpha" type="matrix" values="0 0 0 0 0 0 0 0 0 0 0 0 0 0 0 0 0 0 127 0"/>
<feOffset dy="4"/>
<feGaussianBlur stdDeviation="4"/>
<feColorMatrix type="matrix" values="0 0 0 0 0 0 0 0 0 0 0 0 0 0 0 0 0 0 0.133379 0"/>
<feBlend mode="normal" in2="BackgroundImageFix" result="effect1_dropShadow"/>
<feBlend mode="normal" in="SourceGraphic" in2="effect1_dropShadow" result="shape"/>
</filter>
<filter id="filter8_d" x="24.5946" y="208.595" width="65.3874" height="40.7928" filterUnits="userSpaceOnUse" color-interpolation-filters="sRGB">
<feFlood flood-opacity="0" result="BackgroundImageFix"/>
<feColorMatrix in="SourceAlpha" type="matrix" values="0 0 0 0 0 0 0 0 0 0 0 0 0 0 0 0 0 0 127 0"/>
<feOffset dy="4"/>
<feGaussianBlur stdDeviation="2"/>
<feColorMatrix type="matrix" values="0 0 0 0 0 0 0 0 0 0 0 0 0 0 0 0 0 0 0.03 0"/>
<feBlend mode="normal" in2="BackgroundImageFix" result="effect1_dropShadow"/>
<feBlend mode="normal" in="SourceGraphic" in2="effect1_dropShadow" result="shape"/>
</filter>
<filter id="filter9_d" x="306.613" y="208.595" width="65.3874" height="40.7928" filterUnits="userSpaceOnUse" color-interpolation-filters="sRGB">
<feFlood flood-opacity="0" result="BackgroundImageFix"/>
<feColorMatrix in="SourceAlpha" type="matrix" values="0 0 0 0 0 0 0 0 0 0 0 0 0 0 0 0 0 0 127 0"/>
<feOffset dy="4"/>
<feGaussianBlur stdDeviation="2"/>
<feColorMatrix type="matrix" values="0 0 0 0 0 0 0 0 0 0 0 0 0 0 0 0 0 0 0.03 0"/>
<feBlend mode="normal" in2="BackgroundImageFix" result="effect1_dropShadow"/>
<feBlend mode="normal" in="SourceGraphic" in2="effect1_dropShadow" result="shape"/>
</filter>
<linearGradient id="paint0_linear" x1="-137.526" y1="329.303" x2="-129.032" y2="415.977" gradientUnits="userSpaceOnUse">
<stop stop-color="#00C7E4"/>
<stop offset="1" stop-color="#00EFE2"/>
<stop offset="1" stop-color="#00EFE2"/>
</linearGradient>
</defs>
</svg>
