<svg width="399" height="372" viewBox="0 0 399 372" fill="none" xmlns="http://www.w3.org/2000/svg">
<g filter="url(#filter0_d)">
<path fill-rule="evenodd" clip-rule="evenodd" d="M4 8.00001C4 4.6863 6.68629 2 10 2H388.234C391.548 2 394.234 4.68629 394.234 8V360C394.234 363.314 391.548 366 388.234 366H10C6.68629 366 4 363.314 4 360V8.00001Z" fill="white"/>
</g>
<path opacity="0.8" fill-rule="evenodd" clip-rule="evenodd" d="M259 260C259 258.343 260.343 257 262 257H366C367.657 257 369 258.343 369 260V293C369 294.657 367.657 296 366 296H262C260.343 296 259 294.657 259 293V260Z" fill="#DAEAEF"/>
<path d="M287.26 281H288.66V273.692H288.688L292.944 281H294.358V271.2H292.944V278.508H292.916L288.702 271.2H287.26V281ZM301.771 278.634C301.477 279.124 300.987 279.992 299.685 279.992C298.327 279.992 297.655 278.956 297.627 277.696H303.003V277.29C303.003 274.84 301.589 273.37 299.643 273.37C297.697 273.37 296.241 274.882 296.241 277.29C296.241 279.698 297.697 281.21 299.713 281.21C301.295 281.21 302.275 280.342 302.793 279.404L301.771 278.634ZM297.641 276.632C297.669 275.764 298.271 274.588 299.643 274.588C301.043 274.588 301.603 275.61 301.645 276.632H297.641ZM308.551 273.58L306.689 278.956H306.661L305.541 273.58H304.197L305.835 281H307.151L309.153 275.176H309.181L311.183 281H312.499L314.137 273.58H312.793L311.701 278.956H311.673L309.783 273.58H308.551ZM319.639 278.676C319.639 280.188 320.185 281 321.837 281H322.495V279.684H321.935C321.137 279.684 320.983 279.334 320.983 278.536V274.77H322.817V273.58H320.969V271.76H319.667V273.58H318.547V274.77H319.639V278.676ZM327.137 279.978C325.961 279.978 325.079 279.068 325.079 277.29C325.079 275.512 325.961 274.616 327.137 274.616C328.285 274.616 329.153 275.554 329.153 277.29C329.153 279.04 328.285 279.978 327.137 279.978ZM327.137 281.21C329.027 281.21 330.497 279.824 330.497 277.29C330.497 274.756 328.929 273.37 327.137 273.37C325.317 273.37 323.735 274.756 323.735 277.29C323.735 279.824 325.233 281.21 327.137 281.21ZM332.251 281H333.609V278.494L334.659 277.36H334.687L337.137 281H338.705L335.709 276.548L338.397 273.58H336.633L333.637 276.87H333.609V270.78H332.251V281ZM344.728 278.634C344.434 279.124 343.944 279.992 342.642 279.992C341.284 279.992 340.612 278.956 340.584 277.696H345.96V277.29C345.96 274.84 344.546 273.37 342.6 273.37C340.654 273.37 339.198 274.882 339.198 277.29C339.198 279.698 340.654 281.21 342.67 281.21C344.252 281.21 345.232 280.342 345.75 279.404L344.728 278.634ZM340.598 276.632C340.626 275.764 341.228 274.588 342.6 274.588C344 274.588 344.56 275.61 344.602 276.632H340.598ZM347.714 281H349.072V276.338C349.072 275.274 349.772 274.63 350.836 274.63C351.942 274.63 352.404 275.302 352.404 276.534V281H353.776V276.142C353.776 274.406 352.712 273.37 351.102 273.37C350.262 273.37 349.45 273.79 349.072 274.294H349.044V273.58H347.714V281Z" fill="#6D777B"/>
<path fill-rule="evenodd" clip-rule="evenodd" d="M278.373 277.355H275.094V280.634H274.018V277.355H270.739V276.279H274.018V273H275.094V276.279H278.373V277.355Z" fill="#6D777B"/>
<path fill-rule="evenodd" clip-rule="evenodd" d="M102.378 115.297C102.378 114.193 103.274 113.297 104.378 113.297H293.036C294.141 113.297 295.036 114.193 295.036 115.297V116.216C295.036 117.321 294.141 118.216 293.036 118.216H104.378C103.274 118.216 102.378 117.321 102.378 116.216V115.297Z" fill="#EDF3F6"/>
<path fill-rule="evenodd" clip-rule="evenodd" d="M103.198 115.297C103.198 114.193 104.094 113.297 105.198 113.297H222.636C223.74 113.297 224.636 114.193 224.636 115.297V116.216C224.636 117.321 223.74 118.216 222.636 118.216H105.198C104.094 118.216 103.198 117.321 103.198 116.216V115.297Z" fill="#01C7E4"/>
<g filter="url(#filter1_d)">
<path fill-rule="evenodd" clip-rule="evenodd" d="M227.811 125.595C233.244 125.595 237.649 121.19 237.649 115.757C237.649 110.323 233.244 105.919 227.811 105.919C222.378 105.919 217.973 110.323 217.973 115.757C217.973 121.19 222.378 125.595 227.811 125.595Z" fill="white"/>
<path fill-rule="evenodd" clip-rule="evenodd" d="M227.811 125.595C233.244 125.595 237.649 121.19 237.649 115.757C237.649 110.323 233.244 105.919 227.811 105.919C222.378 105.919 217.973 110.323 217.973 115.757C217.973 121.19 222.378 125.595 227.811 125.595Z" stroke="#DCECF5" stroke-width="0.5"/>
</g>
<g filter="url(#filter2_d)">
<path fill-rule="evenodd" clip-rule="evenodd" d="M28.5946 101.541C28.5946 99.8837 29.9378 98.5405 31.5946 98.5405H82.982C84.6388 98.5405 85.982 99.8837 85.982 101.541V128.333C85.982 129.99 84.6388 131.333 82.982 131.333H31.5946C29.9378 131.333 28.5946 129.99 28.5946 128.333V101.541Z" fill="white"/>
<path d="M29.0946 101.541C29.0946 100.16 30.2139 99.0405 31.5946 99.0405H82.982C84.3627 99.0405 85.482 100.16 85.482 101.541V128.333C85.482 129.714 84.3627 130.833 82.982 130.833H31.5946C30.2139 130.833 29.0946 129.714 29.0946 128.333V101.541Z" stroke="#B2C8CF" stroke-opacity="0.3"/>
</g>
<path fill-rule="evenodd" clip-rule="evenodd" d="M68 113.297H74.8537L71.4268 116.724L68 113.297Z" fill="#B2C8CF"/>
<path d="M40.1519 119.018H45.2039V118.214H40.9919V115.07H43.6559V114.278H40.9919V111.422H44.9399V110.618H40.1519V119.018ZM49.9043 111.422H52.2203V110.618H46.7603V111.422H49.0643V119.018H49.9043V111.422ZM59.1467 119.018H59.9867V110.618H59.1467V114.254H55.0427V110.618H54.2027V119.018H55.0427V115.046H59.1467V119.018Z" fill="black"/>
<path opacity="0.7" d="M31.464 87H32.762V80.499H35.05V79.3H29.165V80.499H31.464V87ZM38.9293 85.966C37.8623 85.966 36.9603 85.163 36.9603 83.084C36.9603 81.192 37.8843 80.345 38.9293 80.345C39.9633 80.345 40.8873 81.214 40.8873 83.095C40.8873 85.185 39.9853 85.966 38.9293 85.966ZM38.9293 87.165C40.6123 87.165 42.2293 86.043 42.2293 83.095C42.2293 80.444 40.6013 79.135 38.9293 79.135C37.2463 79.135 35.6073 80.433 35.6073 83.084C35.6073 86.032 37.2353 87.165 38.9293 87.165ZM43.5535 87H44.8515V84.503L45.5445 83.623H45.5665L48.0635 87H49.6255L46.4685 82.688L49.3175 79.3H47.7445L44.8735 82.732H44.8515V79.3H43.5535V87ZM50.5063 87H55.3023V85.801H51.8043V83.634H54.9943V82.479H51.8043V80.499H55.3023V79.3H50.5063V87ZM56.8979 87H58.1959V81.555H58.2179L61.3089 87H62.6289V79.3H61.3309V84.745H61.3089L58.2509 79.3H56.8979V87Z" fill="#91B1BB"/>
<g filter="url(#filter3_d)">
<path fill-rule="evenodd" clip-rule="evenodd" d="M310.613 101.541C310.613 99.8837 311.956 98.5405 313.613 98.5405H365C366.657 98.5405 368 99.8837 368 101.541V128.333C368 129.99 366.657 131.333 365 131.333H313.613C311.956 131.333 310.613 129.99 310.613 128.333V101.541Z" fill="white"/>
<path d="M311.113 101.541C311.113 100.16 312.232 99.0405 313.613 99.0405H365C366.381 99.0405 367.5 100.16 367.5 101.541V128.333C367.5 129.714 366.381 130.833 365 130.833H313.613C312.232 130.833 311.113 129.714 311.113 128.333V101.541Z" stroke="#B2C8CF" stroke-opacity="0.3"/>
</g>
<path d="M327.689 119.018H328.529V116.75H329.801V116.03H328.529V110.618H328.025L323.609 116.306V116.75H327.689V119.018ZM327.689 116.03H324.701L327.689 112.07V116.03ZM333.913 119.162C335.377 119.162 336.601 117.95 336.601 116.378C336.601 115.094 335.497 113.81 334.117 113.81C333.265 113.81 332.569 114.086 332.161 114.578C332.425 113.15 333.829 111.602 335.425 111.134V110.474C333.001 111.086 331.129 113.522 331.129 115.91C331.129 117.746 332.077 119.162 333.913 119.162ZM333.877 118.406C332.797 118.406 331.957 117.578 331.957 116.498C331.957 115.37 332.761 114.554 333.877 114.554C335.065 114.554 335.797 115.37 335.797 116.498C335.797 117.578 335.029 118.406 333.877 118.406Z" fill="black"/>
<path d="M347.515 114.712C346.689 114.712 346.283 113.956 346.283 112.808C346.283 111.66 346.745 111.072 347.515 111.072C348.285 111.072 348.747 111.646 348.747 112.808C348.747 113.956 348.327 114.712 347.515 114.712ZM347.515 115.72C348.873 115.72 349.839 114.726 349.839 112.794C349.839 110.946 348.649 110.05 347.515 110.05C346.381 110.05 345.205 110.946 345.205 112.794C345.205 114.726 346.157 115.72 347.515 115.72ZM354.179 119.178C353.353 119.178 352.947 118.422 352.947 117.274C352.947 116.126 353.409 115.538 354.179 115.538C354.949 115.538 355.411 116.112 355.411 117.274C355.411 118.422 354.991 119.178 354.179 119.178ZM354.179 120.186C355.537 120.186 356.503 119.192 356.503 117.26C356.503 115.412 355.313 114.516 354.179 114.516C353.045 114.516 351.869 115.412 351.869 117.26C351.869 119.192 352.821 120.186 354.179 120.186ZM346.857 120.536L347.683 121.04L354.515 109.644L353.703 109.126L346.857 120.536Z" fill="#B2C8CF"/>
<path opacity="0.7" d="M308.935 87H310.233V84.14H312.015C313.632 84.14 314.633 83.227 314.633 81.731C314.633 80.202 313.544 79.3 312.004 79.3H308.935V87ZM310.233 82.941V80.499H311.971C312.642 80.499 313.302 80.818 313.302 81.731C313.302 82.512 312.708 82.941 311.982 82.941H310.233ZM315.681 87H320.477V85.801H316.979V83.634H320.169V82.479H316.979V80.499H320.477V79.3H315.681V87ZM322.073 87H323.371V84.041H324.713L326.275 87H327.716L326.055 83.931C327.078 83.667 327.771 82.897 327.771 81.698C327.771 80.169 326.704 79.3 325.142 79.3H322.073V87ZM323.371 82.919V80.477H325.043C325.89 80.477 326.462 80.829 326.462 81.698C326.462 82.567 325.879 82.919 325.043 82.919H323.371ZM333.652 83.986C333.52 85.086 333.069 85.966 331.969 85.966C330.902 85.966 329.989 85.141 329.989 83.106C329.989 81.093 330.946 80.334 331.969 80.334C333.047 80.334 333.465 81.192 333.608 82.083L334.95 81.874C334.763 80.224 333.553 79.135 331.958 79.135C330.275 79.135 328.647 80.411 328.647 83.084C328.647 85.944 330.154 87.165 331.969 87.165C333.718 87.165 334.84 85.955 335.016 84.261L333.652 83.986ZM336.392 87H341.188V85.801H337.69V83.634H340.88V82.479H337.69V80.499H341.188V79.3H336.392V87ZM342.784 87H344.082V81.555H344.104L347.195 87H348.515V79.3H347.217V84.745H347.195L344.137 79.3H342.784V87ZM351.918 87H353.216V80.499H355.504V79.3H349.619V80.499H351.918V87ZM360.442 87H361.729L358.957 79.3H357.901L355.129 87H356.416L356.867 85.68H359.98L360.442 87ZM358.418 81.181H358.44L359.595 84.569H357.252L358.418 81.181ZM365.431 87.165C367.147 87.165 368.39 85.999 368.39 83.986V83.062H365.541V84.184H367.136C367.147 85.317 366.487 85.966 365.431 85.966C364.364 85.966 363.462 85.108 363.462 83.04C363.462 81.225 364.386 80.345 365.431 80.345C366.443 80.345 366.894 81.093 367.059 81.94L368.368 81.731C368.137 80.136 366.96 79.135 365.431 79.135C363.737 79.135 362.12 80.455 362.12 83.04C362.12 85.977 363.638 87.165 365.431 87.165ZM369.822 87H374.618V85.801H371.12V83.634H374.31V82.479H371.12V80.499H374.618V79.3H369.822V87Z" fill="#91B1BB"/>
<path fill-rule="evenodd" clip-rule="evenodd" d="M102.378 170.324C102.378 169.22 103.274 168.324 104.378 168.324H293.036C294.141 168.324 295.036 169.22 295.036 170.324V171.243C295.036 172.348 294.141 173.243 293.036 173.243H104.378C103.274 173.243 102.378 172.348 102.378 171.243V170.324Z" fill="#EDF3F6"/>
<path fill-rule="evenodd" clip-rule="evenodd" d="M103.198 170.324C103.198 169.22 104.094 168.324 105.198 168.324H170.987C172.092 168.324 172.987 169.22 172.987 170.324V171.243C172.987 172.348 172.092 173.243 170.987 173.243H105.198C104.094 173.243 103.198 172.348 103.198 171.243V170.324Z" fill="#01C7E4"/>
<g filter="url(#filter4_d)">
<path fill-rule="evenodd" clip-rule="evenodd" d="M175.342 180.622C180.776 180.622 185.18 176.217 185.18 170.784C185.18 165.35 180.776 160.946 175.342 160.946C169.909 160.946 165.505 165.35 165.505 170.784C165.505 176.217 169.909 180.622 175.342 180.622Z" fill="white"/>
<path fill-rule="evenodd" clip-rule="evenodd" d="M175.342 180.622C180.776 180.622 185.18 176.217 185.18 170.784C185.18 165.35 180.776 160.946 175.342 160.946C169.909 160.946 165.505 165.35 165.505 170.784C165.505 176.217 169.909 180.622 175.342 180.622Z" stroke="#DCECF5" stroke-width="0.5"/>
</g>
<g filter="url(#filter5_d)">
<path fill-rule="evenodd" clip-rule="evenodd" d="M28.5946 156.568C28.5946 154.911 29.9378 153.568 31.5946 153.568H82.982C84.6388 153.568 85.982 154.911 85.982 156.568V183.36C85.982 185.017 84.6388 186.36 82.982 186.36H31.5946C29.9378 186.36 28.5946 185.017 28.5946 183.36V156.568Z" fill="white"/>
<path d="M29.0946 156.568C29.0946 155.187 30.2139 154.068 31.5946 154.068H82.982C84.3627 154.068 85.482 155.187 85.482 156.568V183.36C85.482 184.741 84.3627 185.86 82.982 185.86H31.5946C30.2139 185.86 29.0946 184.741 29.0946 183.36V156.568Z" stroke="#B2C8CF" stroke-opacity="0.3"/>
</g>
<path fill-rule="evenodd" clip-rule="evenodd" d="M68 168.324H74.8537L71.4268 171.751L68 168.324Z" fill="#B2C8CF"/>
<path d="M45.372 174H46.224L43.284 165.6H42.636L39.72 174H40.596L41.328 171.828H44.604L45.372 174ZM44.352 171.084H41.58L42.732 167.724C42.804 167.52 42.912 167.124 42.96 166.968C42.996 167.124 43.128 167.52 43.2 167.724L44.352 171.084ZM53.9109 174V165.6H53.0709V171.96V172.548C52.9509 172.332 52.8429 172.152 52.7229 171.96L48.8229 165.6H47.9709V174H48.8109V167.712V167.148C48.9189 167.34 49.0389 167.532 49.1469 167.712L53.0589 174H53.9109ZM59.0359 166.404H61.3519V165.6H55.8919V166.404H58.1959V174H59.0359V166.404Z" fill="black"/>
<g filter="url(#filter6_d)">
<path fill-rule="evenodd" clip-rule="evenodd" d="M310.613 156.568C310.613 154.911 311.956 153.568 313.613 153.568H365C366.657 153.568 368 154.911 368 156.568V183.36C368 185.017 366.657 186.36 365 186.36H313.613C311.956 186.36 310.613 185.017 310.613 183.36V156.568Z" fill="white"/>
<path d="M311.113 156.568C311.113 155.187 312.232 154.068 313.613 154.068H365C366.381 154.068 367.5 155.187 367.5 156.568V183.36C367.5 184.741 366.381 185.86 365 185.86H313.613C312.232 185.86 311.113 184.741 311.113 183.36V156.568Z" stroke="#B2C8CF" stroke-opacity="0.3"/>
</g>
<path d="M326.633 174.189C328.169 174.189 329.489 173.145 329.489 171.741C329.489 170.637 328.949 169.833 328.073 169.485C328.733 169.125 329.141 168.393 329.141 167.649C329.141 166.353 328.073 165.501 326.681 165.501C325.265 165.501 324.425 166.389 324.077 167.277L324.857 167.577C325.109 167.001 325.649 166.281 326.717 166.281C327.521 166.281 328.265 166.833 328.265 167.769C328.265 168.693 327.605 169.293 326.609 169.293H326.165V170.061H326.729C327.941 170.061 328.601 170.733 328.601 171.765C328.601 172.881 327.701 173.409 326.633 173.409C325.649 173.409 325.037 172.929 324.629 171.897L323.849 172.221C324.257 173.325 325.001 174.189 326.633 174.189ZM334.165 174.189C336.481 174.189 337.045 171.621 337.045 169.845C337.045 167.793 336.361 165.501 334.165 165.501C331.825 165.501 331.285 168.093 331.285 169.845C331.285 171.945 331.969 174.189 334.165 174.189ZM334.165 173.433C332.557 173.433 332.161 171.609 332.161 169.845C332.161 168.321 332.485 166.257 334.165 166.257C335.749 166.257 336.145 168.105 336.145 169.845C336.145 171.393 335.845 173.433 334.165 173.433Z" fill="black"/>
<path d="M346.515 169.739C345.689 169.739 345.283 168.983 345.283 167.835C345.283 166.687 345.745 166.099 346.515 166.099C347.285 166.099 347.747 166.673 347.747 167.835C347.747 168.983 347.327 169.739 346.515 169.739ZM346.515 170.747C347.873 170.747 348.839 169.753 348.839 167.821C348.839 165.973 347.649 165.077 346.515 165.077C345.381 165.077 344.205 165.973 344.205 167.821C344.205 169.753 345.157 170.747 346.515 170.747ZM353.179 174.205C352.353 174.205 351.947 173.449 351.947 172.301C351.947 171.153 352.409 170.565 353.179 170.565C353.949 170.565 354.411 171.139 354.411 172.301C354.411 173.449 353.991 174.205 353.179 174.205ZM353.179 175.213C354.537 175.213 355.503 174.219 355.503 172.287C355.503 170.439 354.313 169.543 353.179 169.543C352.045 169.543 350.869 170.439 350.869 172.287C350.869 174.219 351.821 175.213 353.179 175.213ZM345.857 175.563L346.683 176.067L353.515 164.671L352.703 164.153L345.857 175.563Z" fill="#B2C8CF"/>
<path fill-rule="evenodd" clip-rule="evenodd" d="M102.378 225.351C102.378 224.247 103.274 223.351 104.378 223.351H293.036C294.141 223.351 295.036 224.247 295.036 225.351V226.27C295.036 227.375 294.141 228.27 293.036 228.27H104.378C103.274 228.27 102.378 227.375 102.378 226.27V225.351Z" fill="#EDF3F6"/>
<path fill-rule="evenodd" clip-rule="evenodd" d="M103.198 225.351C103.198 224.247 104.094 223.351 105.198 223.351H164.429C165.533 223.351 166.429 224.247 166.429 225.351V226.27C166.429 227.375 165.533 228.27 164.429 228.27H105.198C104.094 228.27 103.198 227.375 103.198 226.27V225.351Z" fill="#01C7E4"/>
<g filter="url(#filter7_d)">
<path fill-rule="evenodd" clip-rule="evenodd" d="M167.144 235.649C172.577 235.649 176.982 231.244 176.982 225.811C176.982 220.378 172.577 215.973 167.144 215.973C161.711 215.973 157.306 220.378 157.306 225.811C157.306 231.244 161.711 235.649 167.144 235.649Z" fill="white"/>
<path fill-rule="evenodd" clip-rule="evenodd" d="M167.144 235.649C172.577 235.649 176.982 231.244 176.982 225.811C176.982 220.378 172.577 215.973 167.144 215.973C161.711 215.973 157.306 220.378 157.306 225.811C157.306 231.244 161.711 235.649 167.144 235.649Z" stroke="#DCECF5" stroke-width="0.5"/>
</g>
<g filter="url(#filter8_d)">
<path fill-rule="evenodd" clip-rule="evenodd" d="M28.5946 211.595C28.5946 209.938 29.9378 208.595 31.5946 208.595H82.982C84.6388 208.595 85.982 209.938 85.982 211.595V238.387C85.982 240.044 84.6388 241.387 82.982 241.387H31.5946C29.9378 241.387 28.5946 240.044 28.5946 238.387V211.595Z" fill="white"/>
<path d="M29.0946 211.595C29.0946 210.214 30.2139 209.095 31.5946 209.095H82.982C84.3627 209.095 85.482 210.214 85.482 211.595V238.387C85.482 239.768 84.3627 240.887 82.982 240.887H31.5946C30.2139 240.887 29.0946 239.768 29.0946 238.387V211.595Z" stroke="#B2C8CF" stroke-opacity="0.3"/>
</g>
<path fill-rule="evenodd" clip-rule="evenodd" d="M68 223.351H74.8537L71.4268 226.778L68 223.351Z" fill="#B2C8CF"/>
<path d="M42.4679 229.216C44.0159 229.216 45.1199 228.376 45.1199 226.888C45.1199 225.316 43.8359 224.596 42.6959 224.152C41.6999 223.768 40.7639 223.36 40.7639 222.472C40.7639 221.752 41.3519 221.284 42.3359 221.284C43.1759 221.284 43.7279 221.68 43.9319 222.124L44.7119 221.86C44.4839 221.092 43.6079 220.528 42.3719 220.528C40.8119 220.528 39.8999 221.416 39.8999 222.484C39.8999 223.876 41.1839 224.512 42.3599 224.956C43.3439 225.328 44.2559 225.88 44.2559 226.912C44.2559 227.92 43.5719 228.46 42.4799 228.46C41.5199 228.46 40.7999 227.956 40.4639 227.224L39.6719 227.512C40.0079 228.424 41.0519 229.216 42.4679 229.216ZM49.8809 221.476H52.1969V220.672H46.7369V221.476H49.0409V229.072H49.8809V221.476ZM60.1193 229.072V220.672H59.2793V227.032V227.62C59.1593 227.404 59.0513 227.224 58.9313 227.032L55.0313 220.672H54.1793V229.072H55.0193V222.784V222.22C55.1273 222.412 55.2473 222.604 55.3553 222.784L59.2673 229.072H60.1193Z" fill="black"/>
<g filter="url(#filter9_d)">
<path fill-rule="evenodd" clip-rule="evenodd" d="M310.613 211.595C310.613 209.938 311.956 208.595 313.613 208.595H365C366.657 208.595 368 209.938 368 211.595V238.387C368 240.044 366.657 241.387 365 241.387H313.613C311.956 241.387 310.613 240.044 310.613 238.387V211.595Z" fill="white"/>
<path d="M311.113 211.595C311.113 210.214 312.232 209.095 313.613 209.095H365C366.381 209.095 367.5 210.214 367.5 211.595V238.387C367.5 239.768 366.381 240.887 365 240.887H313.613C312.232 240.887 311.113 239.768 311.113 238.387V211.595Z" stroke="#B2C8CF" stroke-opacity="0.3"/>
</g>
<path d="M323.912 229H329.42V228.196H324.8C324.992 227.14 325.892 226.54 326.852 225.916C328.064 225.136 329.348 224.356 329.348 222.82C329.348 221.392 328.376 220.456 326.72 220.456C325.292 220.456 324.284 221.248 324.032 222.232L324.776 222.568C324.98 221.764 325.508 221.212 326.648 221.212C327.812 221.212 328.472 221.908 328.472 222.82C328.472 223.9 327.5 224.536 326.456 225.244C325.244 226.06 323.912 226.9 323.912 229ZM334.707 229H335.547V226.732H336.819V226.012H335.547V220.6H335.043L330.627 226.288V226.732H334.707V229ZM334.707 226.012H331.719L334.707 222.052V226.012Z" fill="black"/>
<path d="M346.515 224.766C345.689 224.766 345.283 224.01 345.283 222.862C345.283 221.714 345.745 221.126 346.515 221.126C347.285 221.126 347.747 221.7 347.747 222.862C347.747 224.01 347.327 224.766 346.515 224.766ZM346.515 225.774C347.873 225.774 348.839 224.78 348.839 222.848C348.839 221 347.649 220.104 346.515 220.104C345.381 220.104 344.205 221 344.205 222.848C344.205 224.78 345.157 225.774 346.515 225.774ZM353.179 229.232C352.353 229.232 351.947 228.476 351.947 227.328C351.947 226.18 352.409 225.592 353.179 225.592C353.949 225.592 354.411 226.166 354.411 227.328C354.411 228.476 353.991 229.232 353.179 229.232ZM353.179 230.24C354.537 230.24 355.503 229.246 355.503 227.314C355.503 225.466 354.313 224.57 353.179 224.57C352.045 224.57 350.869 225.466 350.869 227.314C350.869 229.246 351.821 230.24 353.179 230.24ZM345.857 230.59L346.683 231.094L353.515 219.698L352.703 219.18L345.857 230.59Z" fill="#B2C8CF"/>
<path d="M30.7946 51.1351H39.8806V49.8151H32.2246V43.8311H39.2646V42.5551H32.2246V37.0551H39.8806V35.7351H30.7946V51.1351ZM51.1862 47.5711C51.1862 48.9131 49.8442 50.1451 48.0182 50.1451C45.4442 50.1451 44.1682 48.2751 44.1682 45.3051C44.1682 42.3351 45.4662 40.4651 48.0182 40.4651C50.0642 40.4651 51.1862 42.1151 51.1862 43.4571V47.5711ZM51.3622 51.1351H52.6162V35.0751H51.1862V40.5971H51.1422C50.3502 39.6511 49.2062 39.1451 47.7982 39.1451C44.8722 39.1451 42.7382 41.5651 42.7382 45.3051C42.7382 49.0451 44.7182 51.4651 47.7982 51.4651C49.4042 51.4651 50.6582 50.7611 51.3182 50.0131H51.3622V51.1351ZM56.7467 51.1351H58.1767V39.4751H56.7467V51.1351ZM56.5707 37.5611H58.3527V35.7351H56.5707V37.5611ZM62.725 47.9891C62.725 49.9691 63.583 51.1351 65.519 51.1351H66.399V49.7271H65.563C64.397 49.7271 64.155 49.1331 64.155 47.7911V40.7951H67.015V39.4751H64.155V36.6151H62.769V39.4751H61.097V40.7951H62.725V47.9891ZM74.7044 47.1311C74.9024 49.5511 76.3544 51.4651 79.5224 51.4651C82.6904 51.4651 83.8564 49.7491 83.8564 48.1211C83.8564 46.1631 82.8664 45.2831 79.7204 44.3811C77.0584 43.6111 76.4644 43.3251 76.4644 42.2251C76.4644 41.3451 77.2344 40.3991 79.0384 40.3991C80.7764 40.3991 81.7004 41.2791 82.1184 42.8191L83.4384 42.4671C83.0204 40.6191 81.6784 39.1451 79.0384 39.1451C76.4644 39.1451 75.1004 40.6631 75.1004 42.2251C75.1004 43.9191 76.0904 44.7771 79.0164 45.5691C81.8764 46.3391 82.4704 46.8671 82.4704 48.1431C82.4704 49.2871 81.6124 50.1891 79.5224 50.1891C77.4324 50.1891 76.3764 49.0891 76.1344 46.9111L74.7044 47.1311ZM93.7261 51.1351H95.0461V43.1271C95.0461 40.2671 93.3521 39.1451 90.8441 39.1451C88.3801 39.1451 86.8621 40.6191 86.5761 42.6211L87.9401 42.9291C88.2261 41.4771 89.0621 40.4651 90.9101 40.4651C92.7801 40.4651 93.5061 41.3671 93.5061 42.3791C93.5061 43.6771 91.9221 44.0511 90.0521 44.5351C87.1921 45.2611 86.1581 46.2951 86.1581 48.1871C86.1581 49.9691 87.3681 51.4651 89.9861 51.4651C91.9881 51.4651 93.2641 50.5631 93.6821 49.7931H93.7261V51.1351ZM90.4261 45.7011C92.8681 45.0191 93.4181 44.6011 93.5721 44.2271H93.6161V47.4391C93.6161 48.8691 92.4281 50.1451 90.0961 50.1451C88.1161 50.1451 87.5881 49.2211 87.5881 48.0991C87.5881 46.9771 88.1601 46.3391 90.4261 45.7011ZM98.7875 51.1351H100.217V35.0751H98.7875V51.1351ZM110.978 51.1351H112.298V43.1271C112.298 40.2671 110.604 39.1451 108.096 39.1451C105.632 39.1451 104.114 40.6191 103.828 42.6211L105.192 42.9291C105.478 41.4771 106.314 40.4651 108.162 40.4651C110.032 40.4651 110.758 41.3671 110.758 42.3791C110.758 43.6771 109.174 44.0511 107.304 44.5351C104.444 45.2611 103.41 46.2951 103.41 48.1871C103.41 49.9691 104.62 51.4651 107.238 51.4651C109.24 51.4651 110.516 50.5631 110.934 49.7931H110.978V51.1351ZM107.678 45.7011C110.12 45.0191 110.67 44.6011 110.824 44.2271H110.868V47.4391C110.868 48.8691 109.68 50.1451 107.348 50.1451C105.368 50.1451 104.84 49.2211 104.84 48.0991C104.84 46.9771 105.412 46.3391 107.678 45.7011ZM116.039 51.1351H117.469V43.5451C117.469 41.6311 118.437 40.7731 119.669 40.7731C120.351 40.7731 120.593 40.9491 120.593 40.9491L120.879 39.4971C120.879 39.4971 120.549 39.2771 119.889 39.2771C119.053 39.2771 117.997 39.6951 117.469 40.7291H117.425V39.4751H116.039V51.1351ZM124.041 56.0851H125.449L132.049 39.4751H130.531L127.143 48.4291H127.099L123.711 39.4751H122.193L126.417 50.1011L124.041 56.0851ZM146.878 51.1351H148.198V43.1271C148.198 40.2671 146.504 39.1451 143.996 39.1451C141.532 39.1451 140.014 40.6191 139.728 42.6211L141.092 42.9291C141.378 41.4771 142.214 40.4651 144.062 40.4651C145.932 40.4651 146.658 41.3671 146.658 42.3791C146.658 43.6771 145.074 44.0511 143.204 44.5351C140.344 45.2611 139.31 46.2951 139.31 48.1871C139.31 49.9691 140.52 51.4651 143.138 51.4651C145.14 51.4651 146.416 50.5631 146.834 49.7931H146.878V51.1351ZM143.578 45.7011C146.02 45.0191 146.57 44.6011 146.724 44.2271H146.768V47.4391C146.768 48.8691 145.58 50.1451 143.248 50.1451C141.268 50.1451 140.74 49.2211 140.74 48.0991C140.74 46.9771 141.312 46.3391 143.578 45.7011ZM151.94 51.1351H153.37V35.0751H151.94V51.1351ZM157.332 51.1351H158.762V35.0751H157.332V51.1351ZM167.191 50.1451C165.123 50.1451 163.385 48.5171 163.385 45.3051C163.385 42.0931 165.079 40.4651 167.191 40.4651C169.259 40.4651 170.887 42.1591 170.887 45.3051C170.887 48.4511 169.193 50.1451 167.191 50.1451ZM167.191 51.4651C170.073 51.4651 172.317 49.2871 172.317 45.3051C172.317 41.3231 169.919 39.1451 167.191 39.1451C164.397 39.1451 161.955 41.3231 161.955 45.3051C161.955 49.2871 164.265 51.4651 167.191 51.4651ZM183.296 46.7571C183.076 48.3411 182.152 50.1451 179.974 50.1451C177.642 50.1451 176.168 48.4071 176.168 45.3051C176.168 42.2031 177.752 40.4651 179.996 40.4651C182.064 40.4651 183.032 42.0491 183.296 43.6771L184.704 43.4571C184.44 40.9271 182.46 39.1451 179.974 39.1451C177.092 39.1451 174.738 41.3231 174.738 45.3051C174.738 49.2871 176.916 51.4651 179.974 51.4651C182.636 51.4651 184.462 49.4851 184.726 47.0211L183.296 46.7571ZM194.595 51.1351H195.915V43.1271C195.915 40.2671 194.221 39.1451 191.713 39.1451C189.249 39.1451 187.731 40.6191 187.445 42.6211L188.809 42.9291C189.095 41.4771 189.931 40.4651 191.779 40.4651C193.649 40.4651 194.375 41.3671 194.375 42.3791C194.375 43.6771 192.791 44.0511 190.921 44.5351C188.061 45.2611 187.027 46.2951 187.027 48.1871C187.027 49.9691 188.237 51.4651 190.855 51.4651C192.857 51.4651 194.133 50.5631 194.551 49.7931H194.595V51.1351ZM191.295 45.7011C193.737 45.0191 194.287 44.6011 194.441 44.2271H194.485V47.4391C194.485 48.8691 193.297 50.1451 190.965 50.1451C188.985 50.1451 188.457 49.2211 188.457 48.0991C188.457 46.9771 189.029 46.3391 191.295 45.7011ZM200.075 47.9891C200.075 49.9691 200.933 51.1351 202.869 51.1351H203.749V49.7271H202.913C201.747 49.7271 201.505 49.1331 201.505 47.7911V40.7951H204.365V39.4751H201.505V36.6151H200.119V39.4751H198.447V40.7951H200.075V47.9891ZM207.61 51.1351H209.04V39.4751H207.61V51.1351ZM207.434 37.5611H209.216V35.7351H207.434V37.5611ZM217.636 50.1451C215.568 50.1451 213.83 48.5171 213.83 45.3051C213.83 42.0931 215.524 40.4651 217.636 40.4651C219.704 40.4651 221.332 42.1591 221.332 45.3051C221.332 48.4511 219.638 50.1451 217.636 50.1451ZM217.636 51.4651C220.518 51.4651 222.762 49.2871 222.762 45.3051C222.762 41.3231 220.364 39.1451 217.636 39.1451C214.842 39.1451 212.4 41.3231 212.4 45.3051C212.4 49.2871 214.71 51.4651 217.636 51.4651ZM225.954 51.1351H227.384V43.5891C227.384 41.5871 228.814 40.4651 230.728 40.4651C232.642 40.4651 233.698 41.6751 233.698 44.0071V51.1351H235.128V43.4791C235.128 40.7731 233.302 39.1451 230.816 39.1451C229.452 39.1451 228.044 39.7611 227.428 40.5971H227.384V39.4751H225.954V51.1351Z" fill="black"/>
<path fill-rule="evenodd" clip-rule="evenodd" d="M376 20.0137L372.014 24L376 27.9863L374.986 29L371 25.0137L367.014 29L366 27.9863L369.986 24L366 20.0137L367.014 19L371 22.9863L374.986 19L376 20.0137Z" fill="#A2B7BE"/>
<path fill-rule="evenodd" clip-rule="evenodd" d="M29 311C29 309.343 30.3431 308 32 308H366C367.657 308 369 309.343 369 311V347C369 348.657 367.657 350 366 350H32C30.3431 350 29 348.657 29 347V311Z" fill="url(#paint0_linear)"/>
<path d="M115.514 335.18C114.584 335.18 113.779 334.955 113.099 334.505C112.419 334.045 111.949 333.42 111.689 332.63L113.159 332.09C113.379 332.58 113.699 332.97 114.119 333.26C114.539 333.54 115.024 333.68 115.574 333.68C116.154 333.68 116.614 333.54 116.954 333.26C117.304 332.98 117.479 332.58 117.479 332.06C117.479 331.84 117.429 331.64 117.329 331.46C117.239 331.27 117.134 331.115 117.014 330.995C116.894 330.875 116.709 330.755 116.459 330.635C116.209 330.505 115.999 330.41 115.829 330.35C115.669 330.28 115.429 330.19 115.109 330.08C114.709 329.94 114.409 329.83 114.209 329.75C114.009 329.67 113.744 329.54 113.414 329.36C113.094 329.17 112.849 328.985 112.679 328.805C112.519 328.615 112.374 328.37 112.244 328.07C112.114 327.77 112.049 327.435 112.049 327.065C112.049 326.295 112.349 325.645 112.949 325.115C113.549 324.585 114.364 324.32 115.394 324.32C116.254 324.32 116.959 324.51 117.509 324.89C118.069 325.27 118.444 325.775 118.634 326.405L117.194 326.885C117.054 326.565 116.819 326.31 116.489 326.12C116.169 325.92 115.764 325.82 115.274 325.82C114.774 325.82 114.379 325.93 114.089 326.15C113.809 326.37 113.669 326.68 113.669 327.08C113.669 327.35 113.779 327.59 113.999 327.8C114.219 328.01 114.449 328.165 114.689 328.265C114.929 328.365 115.294 328.5 115.784 328.67C116.084 328.78 116.304 328.865 116.444 328.925C116.594 328.975 116.809 329.065 117.089 329.195C117.369 329.325 117.584 329.445 117.734 329.555C117.884 329.655 118.059 329.795 118.259 329.975C118.459 330.155 118.609 330.34 118.709 330.53C118.819 330.71 118.909 330.935 118.979 331.205C119.059 331.465 119.099 331.745 119.099 332.045C119.099 333.025 118.764 333.795 118.094 334.355C117.424 334.905 116.564 335.18 115.514 335.18ZM125.782 335V334.265C125.302 334.875 124.642 335.18 123.802 335.18C121.962 335.18 121.042 334.09 121.042 331.91V327.335H122.602V331.91C122.602 332.52 122.742 332.975 123.022 333.275C123.302 333.565 123.672 333.71 124.132 333.71C125.232 333.71 125.782 333.12 125.782 331.94V327.335H127.342V335H125.782ZM132.973 335.18C132.243 335.18 131.638 334.915 131.158 334.385V335H129.598V324.89L131.158 324.17V327.92C131.618 327.41 132.223 327.155 132.973 327.155C133.923 327.155 134.688 327.515 135.268 328.235C135.858 328.945 136.153 329.92 136.153 331.16C136.153 332.44 135.868 333.43 135.298 334.13C134.738 334.83 133.963 335.18 132.973 335.18ZM132.778 333.71C133.358 333.71 133.803 333.485 134.113 333.035C134.433 332.575 134.593 331.95 134.593 331.16C134.593 330.34 134.438 329.715 134.128 329.285C133.818 328.845 133.368 328.625 132.778 328.625C132.418 328.625 132.093 328.715 131.803 328.895C131.513 329.065 131.298 329.265 131.158 329.495V332.84C131.518 333.42 132.058 333.71 132.778 333.71ZM147.021 335V330.41C147.021 329.22 146.551 328.625 145.611 328.625C145.171 328.625 144.806 328.79 144.516 329.12C144.226 329.44 144.081 329.895 144.081 330.485V335H142.521V330.41C142.521 329.22 142.051 328.625 141.111 328.625C140.671 328.625 140.306 328.79 140.016 329.12C139.726 329.44 139.581 329.895 139.581 330.485V335H138.021V327.335H139.581V328.04C139.991 327.45 140.636 327.155 141.516 327.155C142.466 327.155 143.146 327.52 143.556 328.25C144.026 327.52 144.781 327.155 145.821 327.155C146.651 327.155 147.316 327.395 147.816 327.875C148.326 328.355 148.581 329.08 148.581 330.05V335H147.021ZM152.205 325.865C152.025 326.045 151.805 326.135 151.545 326.135C151.285 326.135 151.06 326.045 150.87 325.865C150.69 325.675 150.6 325.45 150.6 325.19C150.6 324.93 150.69 324.71 150.87 324.53C151.06 324.34 151.285 324.245 151.545 324.245C151.805 324.245 152.025 324.34 152.205 324.53C152.395 324.71 152.49 324.93 152.49 325.19C152.49 325.45 152.395 325.675 152.205 325.865ZM150.765 335V327.335H152.325V335H150.765ZM156.808 335.18C155.668 335.18 155.098 334.545 155.098 333.275V328.685H153.913V327.335H155.098V324.92L156.658 324.17V327.335H158.473V328.685H156.658V332.87C156.658 333.45 156.908 333.74 157.408 333.74C157.778 333.74 158.158 333.62 158.548 333.38L158.353 334.835C157.893 335.065 157.378 335.18 156.808 335.18ZM166.245 335.18C165.645 335.18 165.08 335.07 164.55 334.85C164.02 334.62 163.62 334.315 163.35 333.935L164.46 332.99C165.01 333.51 165.595 333.77 166.215 333.77C167.115 333.77 167.565 333.495 167.565 332.945C167.565 332.755 167.48 332.58 167.31 332.42C167.14 332.26 166.97 332.145 166.8 332.075C166.63 331.995 166.355 331.88 165.975 331.73C165.135 331.45 164.515 331.12 164.115 330.74C163.725 330.36 163.53 329.87 163.53 329.27C163.53 328.61 163.78 328.095 164.28 327.725C164.79 327.345 165.43 327.155 166.2 327.155C167.35 327.155 168.245 327.54 168.885 328.31L167.76 329.21C167.35 328.78 166.83 328.565 166.2 328.565C165.87 328.565 165.605 328.63 165.405 328.76C165.215 328.88 165.12 329.05 165.12 329.27C165.12 329.5 165.235 329.69 165.465 329.84C165.705 329.98 166.085 330.15 166.605 330.35C167.475 330.64 168.11 330.98 168.51 331.37C168.92 331.76 169.125 332.285 169.125 332.945C169.125 333.665 168.865 334.22 168.345 334.61C167.835 334.99 167.135 335.18 166.245 335.18ZM174.4 335.18C173.62 335.18 173.005 334.9 172.555 334.34V337.295L170.995 338.015V327.335H172.555V327.95C173.035 327.42 173.65 327.155 174.4 327.155C175.37 327.155 176.135 327.515 176.695 328.235C177.265 328.945 177.55 329.925 177.55 331.175C177.55 332.415 177.26 333.395 176.68 334.115C176.11 334.825 175.35 335.18 174.4 335.18ZM174.175 333.71C174.765 333.71 175.215 333.495 175.525 333.065C175.835 332.625 175.99 331.995 175.99 331.175C175.99 330.415 175.83 329.8 175.51 329.33C175.19 328.86 174.745 328.625 174.175 328.625C173.455 328.625 172.915 328.915 172.555 329.495V332.825C172.995 333.415 173.535 333.71 174.175 333.71ZM179.492 335V324.905L181.052 324.17V335H179.492ZM184.828 325.865C184.648 326.045 184.428 326.135 184.168 326.135C183.908 326.135 183.683 326.045 183.493 325.865C183.313 325.675 183.223 325.45 183.223 325.19C183.223 324.93 183.313 324.71 183.493 324.53C183.683 324.34 183.908 324.245 184.168 324.245C184.428 324.245 184.648 324.34 184.828 324.53C185.018 324.71 185.113 324.93 185.113 325.19C185.113 325.45 185.018 325.675 184.828 325.865ZM183.388 335V327.335H184.948V335H183.388ZM189.43 335.18C188.29 335.18 187.72 334.545 187.72 333.275V328.685H186.535V327.335H187.72V324.92L189.28 324.17V327.335H191.095V328.685H189.28V332.87C189.28 333.45 189.53 333.74 190.03 333.74C190.4 333.74 190.78 333.62 191.17 333.38L190.975 334.835C190.515 335.065 190 335.18 189.43 335.18ZM199.468 335.18C198.438 335.18 197.623 334.825 197.023 334.115C196.423 333.405 196.123 332.425 196.123 331.175C196.123 329.925 196.423 328.945 197.023 328.235C197.623 327.515 198.438 327.155 199.468 327.155C200.958 327.155 201.923 327.815 202.363 329.135L200.878 329.645C200.628 328.985 200.178 328.655 199.528 328.655C198.948 328.655 198.498 328.88 198.178 329.33C197.868 329.77 197.713 330.385 197.713 331.175C197.713 331.955 197.868 332.57 198.178 333.02C198.488 333.46 198.918 333.68 199.468 333.68C200.208 333.68 200.688 333.305 200.908 332.555L202.393 333.02C201.983 334.46 201.008 335.18 199.468 335.18ZM209.946 334.115C209.316 334.825 208.461 335.18 207.381 335.18C206.301 335.18 205.446 334.825 204.816 334.115C204.196 333.405 203.886 332.425 203.886 331.175C203.886 329.925 204.196 328.945 204.816 328.235C205.446 327.515 206.301 327.155 207.381 327.155C208.461 327.155 209.316 327.515 209.946 328.235C210.576 328.945 210.891 329.925 210.891 331.175C210.891 332.425 210.576 333.405 209.946 334.115ZM207.381 333.71C207.981 333.71 208.456 333.485 208.806 333.035C209.156 332.585 209.331 331.965 209.331 331.175C209.331 330.385 209.156 329.765 208.806 329.315C208.456 328.855 207.981 328.625 207.381 328.625C206.791 328.625 206.321 328.855 205.971 329.315C205.621 329.765 205.446 330.385 205.446 331.175C205.446 331.955 205.621 332.575 205.971 333.035C206.321 333.485 206.791 333.71 207.381 333.71ZM217.512 335V330.425C217.512 329.815 217.372 329.365 217.092 329.075C216.812 328.775 216.442 328.625 215.982 328.625C214.882 328.625 214.332 329.215 214.332 330.395V335H212.772V327.335H214.332V328.07C214.812 327.46 215.472 327.155 216.312 327.155C218.152 327.155 219.072 328.245 219.072 330.425V335H217.512ZM227.733 325.865C227.553 326.045 227.333 326.135 227.073 326.135C226.813 326.135 226.588 326.045 226.398 325.865C226.218 325.675 226.128 325.45 226.128 325.19C226.128 324.93 226.218 324.71 226.398 324.53C226.588 324.34 226.813 324.245 227.073 324.245C227.333 324.245 227.553 324.34 227.733 324.53C227.923 324.71 228.018 324.93 228.018 325.19C228.018 325.45 227.923 325.675 227.733 325.865ZM223.353 328.685V335H221.793V328.685H220.653V327.335H221.793V326.105C221.793 325.455 221.958 324.995 222.288 324.725C222.618 324.455 223.038 324.32 223.548 324.32C224.088 324.32 224.598 324.44 225.078 324.68V325.97C224.648 325.79 224.283 325.7 223.983 325.7C223.563 325.7 223.353 325.93 223.353 326.39V327.335H225.078V328.685H223.353ZM226.293 335V327.335H227.853V335H226.293ZM232.681 338L231.901 336.8C232.961 336.74 233.696 336.56 234.106 336.26C234.526 335.97 234.736 335.57 234.736 335.06V334.385C234.306 334.915 233.691 335.18 232.891 335.18C231.971 335.18 231.216 334.835 230.626 334.145C230.036 333.445 229.741 332.45 229.741 331.16C229.741 329.92 230.031 328.945 230.611 328.235C231.201 327.515 231.971 327.155 232.921 327.155C233.671 327.155 234.276 327.395 234.736 327.875V327.335H236.296V334.505C236.296 335.685 236.001 336.54 235.411 337.07C234.821 337.6 233.911 337.91 232.681 338ZM233.176 333.71C233.856 333.71 234.376 333.41 234.736 332.81V329.495C234.576 329.235 234.351 329.025 234.061 328.865C233.781 328.705 233.486 328.625 233.176 328.625C232.566 328.625 232.101 328.845 231.781 329.285C231.461 329.715 231.301 330.34 231.301 331.16C231.301 331.94 231.466 332.56 231.796 333.02C232.136 333.48 232.596 333.71 233.176 333.71ZM243.204 335V334.265C242.724 334.875 242.064 335.18 241.224 335.18C239.384 335.18 238.464 334.09 238.464 331.91V327.335H240.024V331.91C240.024 332.52 240.164 332.975 240.444 333.275C240.724 333.565 241.094 333.71 241.554 333.71C242.654 333.71 243.204 333.12 243.204 331.94V327.335H244.764V335H243.204ZM247.02 335V327.335H248.58V328.265C248.92 327.525 249.49 327.155 250.29 327.155C250.79 327.155 251.22 327.31 251.58 327.62L251.355 329.06C250.985 328.81 250.58 328.685 250.14 328.685C249.72 328.685 249.355 328.845 249.045 329.165C248.735 329.475 248.58 329.985 248.58 330.695V335H247.02ZM257.069 335V334.34C256.529 334.9 255.829 335.18 254.969 335.18C254.159 335.18 253.499 334.96 252.989 334.52C252.489 334.07 252.239 333.435 252.239 332.615C252.239 331.785 252.524 331.155 253.094 330.725C253.664 330.295 254.359 330.08 255.179 330.08C255.929 330.08 256.559 330.23 257.069 330.53V330.11C257.069 329.54 256.939 329.135 256.679 328.895C256.419 328.655 256.004 328.535 255.434 328.535C254.594 328.535 253.864 328.765 253.244 329.225L252.779 327.95C253.549 327.42 254.504 327.155 255.644 327.155C256.024 327.155 256.364 327.19 256.664 327.26C256.964 327.32 257.269 327.445 257.579 327.635C257.889 327.815 258.129 328.11 258.299 328.52C258.479 328.93 258.569 329.435 258.569 330.035V335H257.069ZM255.254 333.8C255.974 333.8 256.579 333.525 257.069 332.975V331.805C256.599 331.555 256.054 331.43 255.434 331.43C254.934 331.43 254.524 331.53 254.204 331.73C253.894 331.92 253.739 332.215 253.739 332.615C253.739 332.985 253.869 333.275 254.129 333.485C254.389 333.695 254.764 333.8 255.254 333.8ZM262.892 335.18C261.752 335.18 261.182 334.545 261.182 333.275V328.685H259.997V327.335H261.182V324.92L262.742 324.17V327.335H264.557V328.685H262.742V332.87C262.742 333.45 262.992 333.74 263.492 333.74C263.862 333.74 264.242 333.62 264.632 333.38L264.437 334.835C263.977 335.065 263.462 335.18 262.892 335.18ZM267.811 325.865C267.631 326.045 267.411 326.135 267.151 326.135C266.891 326.135 266.666 326.045 266.476 325.865C266.296 325.675 266.206 325.45 266.206 325.19C266.206 324.93 266.296 324.71 266.476 324.53C266.666 324.34 266.891 324.245 267.151 324.245C267.411 324.245 267.631 324.34 267.811 324.53C268.001 324.71 268.096 324.93 268.096 325.19C268.096 325.45 268.001 325.675 267.811 325.865ZM266.371 335V327.335H267.931V335H266.371ZM275.879 334.115C275.249 334.825 274.394 335.18 273.314 335.18C272.234 335.18 271.379 334.825 270.749 334.115C270.129 333.405 269.819 332.425 269.819 331.175C269.819 329.925 270.129 328.945 270.749 328.235C271.379 327.515 272.234 327.155 273.314 327.155C274.394 327.155 275.249 327.515 275.879 328.235C276.509 328.945 276.824 329.925 276.824 331.175C276.824 332.425 276.509 333.405 275.879 334.115ZM273.314 333.71C273.914 333.71 274.389 333.485 274.739 333.035C275.089 332.585 275.264 331.965 275.264 331.175C275.264 330.385 275.089 329.765 274.739 329.315C274.389 328.855 273.914 328.625 273.314 328.625C272.724 328.625 272.254 328.855 271.904 329.315C271.554 329.765 271.379 330.385 271.379 331.175C271.379 331.955 271.554 332.575 271.904 333.035C272.254 333.485 272.724 333.71 273.314 333.71ZM283.445 335V330.425C283.445 329.815 283.305 329.365 283.025 329.075C282.745 328.775 282.375 328.625 281.915 328.625C280.815 328.625 280.265 329.215 280.265 330.395V335H278.705V327.335H280.265V328.07C280.745 327.46 281.405 327.155 282.245 327.155C284.085 327.155 285.005 328.245 285.005 330.425V335H283.445Z" fill="white"/>
<defs>
<filter id="filter0_d" x="0" y="0" width="398.234" height="372" filterUnits="userSpaceOnUse" color-interpolation-filters="sRGB">
<feFlood flood-opacity="0" result="BackgroundImageFix"/>
<feColorMatrix in="SourceAlpha" type="matrix" values="0 0 0 0 0 0 0 0 0 0 0 0 0 0 0 0 0 0 127 0"/>
<feOffset dy="2"/>
<feGaussianBlur stdDeviation="2"/>
<feColorMatrix type="matrix" values="0 0 0 0 0 0 0 0 0 0 0 0 0 0 0 0 0 0 0.1 0"/>
<feBlend mode="normal" in2="BackgroundImageFix" result="effect1_dropShadow"/>
<feBlend mode="normal" in="SourceGraphic" in2="effect1_dropShadow" result="shape"/>
</filter>
<filter id="filter1_d" x="209.723" y="101.669" width="36.1757" height="36.1757" filterUnits="userSpaceOnUse" color-interpolation-filters="sRGB">
<feFlood flood-opacity="0" result="BackgroundImageFix"/>
<feColorMatrix in="SourceAlpha" type="matrix" values="0 0 0 0 0 0 0 0 0 0 0 0 0 0 0 0 0 0 127 0"/>
<feOffset dy="4"/>
<feGaussianBlur stdDeviation="4"/>
<feColorMatrix type="matrix" values="0 0 0 0 0 0 0 0 0 0 0 0 0 0 0 0 0 0 0.133379 0"/>
<feBlend mode="normal" in2="BackgroundImageFix" result="effect1_dropShadow"/>
<feBlend mode="normal" in="SourceGraphic" in2="effect1_dropShadow" result="shape"/>
</filter>
<filter id="filter2_d" x="24.5946" y="98.5405" width="65.3874" height="40.7928" filterUnits="userSpaceOnUse" color-interpolation-filters="sRGB">
<feFlood flood-opacity="0" result="BackgroundImageFix"/>
<feColorMatrix in="SourceAlpha" type="matrix" values="0 0 0 0 0 0 0 0 0 0 0 0 0 0 0 0 0 0 127 0"/>
<feOffset dy="4"/>
<feGaussianBlur stdDeviation="2"/>
<feColorMatrix type="matrix" values="0 0 0 0 0 0 0 0 0 0 0 0 0 0 0 0 0 0 0.03 0"/>
<feBlend mode="normal" in2="BackgroundImageFix" result="effect1_dropShadow"/>
<feBlend mode="normal" in="SourceGraphic" in2="effect1_dropShadow" result="shape"/>
</filter>
<filter id="filter3_d" x="306.613" y="98.5405" width="65.3874" height="40.7928" filterUnits="userSpaceOnUse" color-interpolation-filters="sRGB">
<feFlood flood-opacity="0" result="BackgroundImageFix"/>
<feColorMatrix in="SourceAlpha" type="matrix" values="0 0 0 0 0 0 0 0 0 0 0 0 0 0 0 0 0 0 127 0"/>
<feOffset dy="4"/>
<feGaussianBlur stdDeviation="2"/>
<feColorMatrix type="matrix" values="0 0 0 0 0 0 0 0 0 0 0 0 0 0 0 0 0 0 0.03 0"/>
<feBlend mode="normal" in2="BackgroundImageFix" result="effect1_dropShadow"/>
<feBlend mode="normal" in="SourceGraphic" in2="effect1_dropShadow" result="shape"/>
</filter>
<filter id="filter4_d" x="157.255" y="156.696" width="36.1757" height="36.1757" filterUnits="userSpaceOnUse" color-interpolation-filters="sRGB">
<feFlood flood-opacity="0" result="BackgroundImageFix"/>
<feColorMatrix in="SourceAlpha" type="matrix" values="0 0 0 0 0 0 0 0 0 0 0 0 0 0 0 0 0 0 127 0"/>
<feOffset dy="4"/>
<feGaussianBlur stdDeviation="4"/>
<feColorMatrix type="matrix" values="0 0 0 0 0 0 0 0 0 0 0 0 0 0 0 0 0 0 0.133379 0"/>
<feBlend mode="normal" in2="BackgroundImageFix" result="effect1_dropShadow"/>
<feBlend mode="normal" in="SourceGraphic" in2="effect1_dropShadow" result="shape"/>
</filter>
<filter id="filter5_d" x="24.5946" y="153.568" width="65.3874" height="40.7928" filterUnits="userSpaceOnUse" color-interpolation-filters="sRGB">
<feFlood flood-opacity="0" result="BackgroundImageFix"/>
<feColorMatrix in="SourceAlpha" type="matrix" values="0 0 0 0 0 0 0 0 0 0 0 0 0 0 0 0 0 0 127 0"/>
<feOffset dy="4"/>
<feGaussianBlur stdDeviation="2"/>
<feColorMatrix type="matrix" values="0 0 0 0 0 0 0 0 0 0 0 0 0 0 0 0 0 0 0.03 0"/>
<feBlend mode="normal" in2="BackgroundImageFix" result="effect1_dropShadow"/>
<feBlend mode="normal" in="SourceGraphic" in2="effect1_dropShadow" result="shape"/>
</filter>
<filter id="filter6_d" x="306.613" y="153.568" width="65.3874" height="40.7928" filterUnits="userSpaceOnUse" color-interpolation-filters="sRGB">
<feFlood flood-opacity="0" result="BackgroundImageFix"/>
<feColorMatrix in="SourceAlpha" type="matrix" values="0 0 0 0 0 0 0 0 0 0 0 0 0 0 0 0 0 0 127 0"/>
<feOffset dy="4"/>
<feGaussianBlur stdDeviation="2"/>
<feColorMatrix type="matrix" values="0 0 0 0 0 0 0 0 0 0 0 0 0 0 0 0 0 0 0.03 0"/>
<feBlend mode="normal" in2="BackgroundImageFix" result="effect1_dropShadow"/>
<feBlend mode="normal" in="SourceGraphic" in2="effect1_dropShadow" result="shape"/>
</filter>
<filter id="filter7_d" x="149.056" y="211.723" width="36.1757" height="36.1757" filterUnits="userSpaceOnUse" color-interpolation-filters="sRGB">
<feFlood flood-opacity="0" result="BackgroundImageFix"/>
<feColorMatrix in="SourceAlpha" type="matrix" values="0 0 0 0 0 0 0 0 0 0 0 0 0 0 0 0 0 0 127 0"/>
<feOffset dy="4"/>
<feGaussianBlur stdDeviation="4"/>
<feColorMatrix type="matrix" values="0 0 0 0 0 0 0 0 0 0 0 0 0 0 0 0 0 0 0.133379 0"/>
<feBlend mode="normal" in2="BackgroundImageFix" result="effect1_dropShadow"/>
<feBlend mode="normal" in="SourceGraphic" in2="effect1_dropShadow" result="shape"/>
</filter>
<filter id="filter8_d" x="24.5946" y="208.595" width="65.3874" height="40.7928" filterUnits="userSpaceOnUse" color-interpolation-filters="sRGB">
<feFlood flood-opacity="0" result="BackgroundImageFix"/>
<feColorMatrix in="SourceAlpha" type="matrix" values="0 0 0 0 0 0 0 0 0 0 0 0 0 0 0 0 0 0 127 0"/>
<feOffset dy="4"/>
<feGaussianBlur stdDeviation="2"/>
<feColorMatrix type="matrix" values="0 0 0 0 0 0 0 0 0 0 0 0 0 0 0 0 0 0 0.03 0"/>
<feBlend mode="normal" in2="BackgroundImageFix" result="effect1_dropShadow"/>
<feBlend mode="normal" in="SourceGraphic" in2="effect1_dropShadow" result="shape"/>
</filter>
<filter id="filter9_d" x="306.613" y="208.595" width="65.3874" height="40.7928" filterUnits="userSpaceOnUse" color-interpolation-filters="sRGB">
<feFlood flood-opacity="0" result="BackgroundImageFix"/>
<feColorMatrix in="SourceAlpha" type="matrix" values="0 0 0 0 0 0 0 0 0 0 0 0 0 0 0 0 0 0 127 0"/>
<feOffset dy="4"/>
<feGaussianBlur stdDeviation="2"/>
<feColorMatrix type="matrix" values="0 0 0 0 0 0 0 0 0 0 0 0 0 0 0 0 0 0 0.03 0"/>
<feBlend mode="normal" in2="BackgroundImageFix" result="effect1_dropShadow"/>
<feBlend mode="normal" in="SourceGraphic" in2="effect1_dropShadow" result="shape"/>
</filter>
<linearGradient id="paint0_linear" x1="-137.526" y1="329.303" x2="-129.032" y2="415.977" gradientUnits="userSpaceOnUse">
<stop stop-color="#00C7E4"/>
<stop offset="1" stop-color="#00EFE2"/>
<stop offset="1" stop-color="#00EFE2"/>
</linearGradient>
</defs>
</svg>
