<svg width="549" height="384" viewBox="0 0 549 384" fill="none" xmlns="http://www.w3.org/2000/svg">
<g filter="url(#filter0_d)">
<path fill-rule="evenodd" clip-rule="evenodd" d="M180 111.59C180 108.277 182.686 105.59 186 105.59H292.67C295.984 105.59 298.67 108.277 298.67 111.59V187.903C298.67 191.217 295.984 193.903 292.67 193.903H186C182.686 193.903 180 191.217 180 187.903V111.59Z" fill="white"/>
</g>
<path d="M214.263 175V162.4H221.841V163.768H215.757V167.854H221.337V169.186H215.757V173.632H221.841V175H214.263ZM223.55 175L226.772 170.104L223.748 165.46H225.368L227.69 169.132H227.726L230.048 165.46H231.65L228.644 170.104L231.866 175H230.228L227.708 171.076H227.672L225.188 175H223.55ZM235.317 168.844V171.868C235.317 172.42 235.551 172.906 236.019 173.326C236.487 173.734 237.069 173.938 237.765 173.938C238.713 173.938 239.439 173.614 239.943 172.966C240.459 172.318 240.717 171.406 240.717 170.23C240.717 169.066 240.459 168.16 239.943 167.512C239.427 166.852 238.701 166.522 237.765 166.522C237.033 166.522 236.439 166.762 235.983 167.242C235.539 167.722 235.317 168.256 235.317 168.844ZM233.841 179.05V165.46H235.245V166.378H235.281C235.521 166.078 235.881 165.808 236.361 165.568C236.841 165.316 237.393 165.19 238.017 165.19C239.205 165.19 240.195 165.652 240.987 166.576C241.779 167.488 242.175 168.706 242.175 170.23C242.175 171.766 241.791 172.99 241.023 173.902C240.255 174.814 239.253 175.27 238.017 175.27C237.429 175.27 236.889 175.144 236.397 174.892C235.905 174.64 235.557 174.37 235.353 174.082H235.317V179.05H233.841ZM248.306 173.938C249.11 173.938 249.776 173.614 250.304 172.966C250.844 172.306 251.114 171.394 251.114 170.23C251.114 169.066 250.85 168.16 250.322 167.512C249.794 166.852 249.122 166.522 248.306 166.522C247.466 166.522 246.776 166.846 246.236 167.494C245.696 168.13 245.426 169.042 245.426 170.23C245.426 171.418 245.696 172.336 246.236 172.984C246.776 173.62 247.466 173.938 248.306 173.938ZM248.306 175.27C247.046 175.27 246.008 174.826 245.192 173.938C244.376 173.05 243.968 171.814 243.968 170.23C243.968 168.67 244.388 167.44 245.228 166.54C246.068 165.64 247.094 165.19 248.306 165.19C249.506 165.19 250.514 165.64 251.33 166.54C252.158 167.44 252.572 168.67 252.572 170.23C252.572 171.814 252.17 173.05 251.366 173.938C250.562 174.826 249.542 175.27 248.306 175.27ZM255.005 175V165.46H256.409V166.486H256.445C256.637 166.102 256.919 165.808 257.291 165.604C257.663 165.4 258.041 165.298 258.425 165.298C258.569 165.298 258.707 165.316 258.839 165.352C258.983 165.376 259.091 165.4 259.163 165.424L259.253 165.478L258.983 166.936C258.803 166.84 258.551 166.792 258.227 166.792C257.615 166.792 257.171 166.996 256.895 167.404C256.619 167.8 256.481 168.442 256.481 169.33V175H255.005ZM261.833 172.228V166.774H260.501V165.46H261.869V163.12H263.273V165.46H265.631V166.774H263.291V172.048C263.291 172.612 263.369 173.008 263.525 173.236C263.681 173.464 263.993 173.578 264.461 173.578H265.181V175H264.389C263.489 175 262.835 174.772 262.427 174.316C262.031 173.848 261.833 173.152 261.833 172.228Z" fill="#8BAEBC"/>
<path d="M237.64 138.358L238.481 139.141V137.992V124.397C238.481 124.3 238.52 124.208 238.589 124.139C238.659 124.069 238.754 124.03 238.854 124.03C238.954 124.03 239.049 124.069 239.118 124.139C239.188 124.208 239.226 124.3 239.226 124.397V137.992V139.141L240.067 138.358L245.573 133.228L245.573 133.228C245.608 133.195 245.65 133.169 245.697 133.151C245.743 133.134 245.792 133.126 245.841 133.128C245.891 133.129 245.94 133.14 245.984 133.161C246.029 133.181 246.07 133.209 246.103 133.245C246.136 133.28 246.162 133.321 246.179 133.366C246.196 133.411 246.204 133.459 246.203 133.506C246.201 133.554 246.19 133.601 246.17 133.645C246.15 133.689 246.122 133.728 246.086 133.762L239.124 140.244L239.087 140.272L239.087 140.272L239.079 140.278L239.047 140.304L239.014 140.322L238.998 140.33H238.969L238.92 140.34C238.875 140.349 238.828 140.349 238.783 140.34L238.734 140.33H238.705L238.689 140.322L238.656 140.304L238.624 140.278L238.624 140.278L238.616 140.272L238.579 140.244L231.617 133.762C231.581 133.728 231.553 133.689 231.533 133.645C231.513 133.601 231.502 133.554 231.5 133.506C231.499 133.459 231.507 133.411 231.524 133.366C231.541 133.321 231.567 133.28 231.6 133.245C231.633 133.209 231.674 133.181 231.718 133.161C231.763 133.14 231.812 133.129 231.861 133.128C231.911 133.126 231.96 133.134 232.006 133.151C232.053 133.169 232.095 133.195 232.13 133.228L232.13 133.228L237.64 138.358Z" fill="#F9FAFC" stroke="#5D6F85"/>
<path d="M251.568 143.409C251.637 143.478 251.676 143.571 251.676 143.667V147.133C251.676 147.919 251.361 148.673 250.801 149.229C250.241 149.786 249.48 150.099 248.686 150.099H229.49C228.696 150.099 227.935 149.786 227.375 149.229C226.814 148.673 226.5 147.919 226.5 147.133V143.667C226.5 143.571 226.538 143.478 226.608 143.409C226.677 143.34 226.773 143.301 226.873 143.301C226.972 143.301 227.068 143.34 227.137 143.409C227.207 143.478 227.245 143.571 227.245 143.667V147.133C227.245 147.727 227.482 148.295 227.904 148.714C228.325 149.132 228.896 149.366 229.49 149.366H248.686C249.28 149.366 249.851 149.132 250.272 148.714C250.693 148.295 250.931 147.727 250.931 147.133V143.667C250.931 143.571 250.969 143.478 251.039 143.409C251.108 143.34 251.203 143.301 251.303 143.301C251.403 143.301 251.498 143.34 251.568 143.409Z" fill="#F9FAFC" stroke="#5D6F85"/>
<g filter="url(#filter1_d)">
<path fill-rule="evenodd" clip-rule="evenodd" d="M304.3 206.343C304.3 203.029 306.986 200.343 310.3 200.343H416.97C420.284 200.343 422.97 203.029 422.97 206.343V282.655C422.97 285.969 420.284 288.655 416.97 288.655H310.3C306.986 288.655 304.3 285.969 304.3 282.655V206.343Z" fill="white"/>
</g>
<g clip-path="url(#clip0)">
<path d="M368.531 242.691V235.266C368.531 233.759 367.307 232.538 365.802 232.538H342.797C341.289 232.538 340.068 233.759 340.068 235.266V242.691C340.068 244.199 341.289 245.42 342.797 245.42H365.8C367.307 245.42 368.531 244.199 368.531 242.691ZM347.808 241.205C348.396 241.205 348.855 241.107 349.231 240.959L349.525 242.792C349.082 242.988 348.251 243.152 347.3 243.152C344.714 243.152 343.061 241.582 343.061 239.062C343.061 236.723 344.664 234.808 347.641 234.808C348.296 234.808 349.016 234.922 349.541 235.121L349.149 236.967C348.855 236.835 348.412 236.721 347.758 236.721C346.449 236.721 345.599 237.653 345.615 238.962C345.615 240.435 346.598 241.205 347.808 241.205ZM353.029 243.152C351.983 243.152 351.051 242.925 350.444 242.596L350.886 240.813C351.345 241.089 352.293 241.42 353.029 241.42C353.782 241.42 354.094 241.158 354.094 240.747C354.094 240.339 353.848 240.143 352.915 239.833C351.265 239.277 350.627 238.376 350.643 237.425C350.643 235.937 351.917 234.808 353.898 234.808C354.833 234.808 355.665 235.023 356.158 235.266L355.715 236.986C355.352 236.787 354.666 236.527 353.98 236.527C353.374 236.527 353.032 236.774 353.032 237.182C353.032 237.558 353.345 237.754 354.325 238.098C355.848 238.62 356.484 239.391 356.499 240.567C356.499 242.056 355.321 243.152 353.029 243.152ZM362.558 242.988H360.07L357.156 234.986H359.856L360.936 238.699C361.132 239.37 361.281 240.011 361.395 240.646H361.445C361.577 239.992 361.707 239.386 361.887 238.699L362.918 234.986H365.535L362.558 242.988Z" fill="#5D6F84"/>
<path d="M379.786 224.26H350.086C349.461 224.26 348.95 224.769 348.95 225.397V230.827H352.362V227.108H377.341V253.833L370.565 253.828C370.229 253.828 369.911 253.963 369.673 254.201C369.437 254.434 369.304 254.755 369.304 255.091L369.328 263.57H352.362V247.081H348.95V265.443C348.95 266.068 349.459 266.577 350.086 266.577H372.237C372.563 266.577 372.867 266.436 373.084 266.198L380.634 257.745C380.819 257.539 380.92 257.269 380.92 256.99V225.397C380.923 224.769 380.411 224.26 379.786 224.26Z" fill="#C6DBE3"/>
</g>
<path opacity="0.5" fill-rule="evenodd" clip-rule="evenodd" d="M180 206C180 202.686 182.686 200 186 200H292.67C295.984 200 298.67 202.686 298.67 206V282.313C298.67 285.627 295.984 288.313 292.67 288.313H186C182.686 288.313 180 285.627 180 282.313V206Z" fill="white"/>
<path opacity="0.2" fill-rule="evenodd" clip-rule="evenodd" d="M180 301C180 297.686 182.686 295 186 295H292.67C295.984 295 298.67 297.686 298.67 301V377.313C298.67 380.627 295.984 383.313 292.67 383.313H186C182.686 383.313 180 380.627 180 377.313V301Z" fill="white"/>
<path opacity="0.25" fill-rule="evenodd" clip-rule="evenodd" d="M305 301C305 297.686 307.686 295 311 295H417.67C420.984 295 423.67 297.686 423.67 301V377.313C423.67 380.627 420.984 383.313 417.67 383.313H311C307.686 383.313 305 380.627 305 377.313V301Z" fill="white"/>
<path opacity="0.15" fill-rule="evenodd" clip-rule="evenodd" d="M180 17C180 13.6863 182.686 11 186 11H292.67C295.984 11 298.67 13.6863 298.67 17V93.3128C298.67 96.6266 295.984 99.3129 292.67 99.3129H186C182.686 99.3129 180 96.6266 180 93.3129V17Z" fill="white"/>
<path opacity="0.4" fill-rule="evenodd" clip-rule="evenodd" d="M55 16.8379C55 13.5242 57.6863 10.8379 61 10.8379H167.67C170.984 10.8379 173.67 13.5242 173.67 16.8379V93.1507C173.67 96.4644 170.984 99.1507 167.67 99.1507H61C57.6863 99.1507 55 96.4645 55 93.1507V16.8379Z" fill="white"/>
<path opacity="0.2" fill-rule="evenodd" clip-rule="evenodd" d="M55 112C55 108.686 57.6863 106 61 106H167.67C170.984 106 173.67 108.686 173.67 112V188.313C173.67 191.627 170.984 194.313 167.67 194.313H61C57.6863 194.313 55 191.627 55 188.313V112Z" fill="white"/>
<path opacity="0.1" fill-rule="evenodd" clip-rule="evenodd" d="M55 206C55 202.686 57.6863 200 61 200H167.67C170.984 200 173.67 202.686 173.67 206V282.313C173.67 285.627 170.984 288.313 167.67 288.313H61C57.6863 288.313 55 285.627 55 282.313V206Z" fill="white"/>
<path opacity="0.15" fill-rule="evenodd" clip-rule="evenodd" d="M55 301C55 297.686 57.6863 295 61 295H167.67C170.984 295 173.67 297.686 173.67 301V377.313C173.67 380.627 170.984 383.313 167.67 383.313H61C57.6863 383.313 55 380.627 55 377.313V301Z" fill="white"/>
<path opacity="0.2" fill-rule="evenodd" clip-rule="evenodd" d="M430 301C430 297.686 432.686 295 436 295H542.67C545.984 295 548.67 297.686 548.67 301V377.313C548.67 380.627 545.984 383.313 542.67 383.313H436C432.686 383.313 430 380.627 430 377.313V301Z" fill="white"/>
<path opacity="0.1" fill-rule="evenodd" clip-rule="evenodd" d="M430.33 206.343C430.33 203.029 433.016 200.343 436.33 200.343H543C546.314 200.343 549 203.029 549 206.343V282.656C549 285.969 546.314 288.656 543 288.656H436.33C433.016 288.656 430.33 285.969 430.33 282.656V206.343Z" fill="white"/>
<path opacity="0.2" fill-rule="evenodd" clip-rule="evenodd" d="M430.33 16.8379C430.33 13.5242 433.016 10.8379 436.33 10.8379H543C546.314 10.8379 549 13.5242 549 16.8379V93.1507C549 96.4644 546.314 99.1507 543 99.1507H436.33C433.016 99.1507 430.33 96.4645 430.33 93.1507V16.8379Z" fill="white"/>
<path opacity="0.3" fill-rule="evenodd" clip-rule="evenodd" d="M305.22 16.8379C305.22 13.5242 307.906 10.8379 311.22 10.8379H417.89C421.204 10.8379 423.89 13.5242 423.89 16.8379V93.1507C423.89 96.4644 421.204 99.1507 417.89 99.1507H311.22C307.906 99.1507 305.22 96.4645 305.22 93.1507V16.8379Z" fill="white"/>
<path opacity="0.5" fill-rule="evenodd" clip-rule="evenodd" d="M305 112C305 108.686 307.686 106 311 106H417.67C420.984 106 423.67 108.686 423.67 112V188.313C423.67 191.627 420.984 194.313 417.67 194.313H311C307.686 194.313 305 191.627 305 188.313V112Z" fill="white"/>
<path d="M363.994 116L363.535 117.572V163.186L363.994 163.648L384.987 151.132L363.994 116Z" fill="white"/>
<path d="M363.994 116L343 151.132L363.994 163.648V141.508V116Z" fill="#FFEEDF"/>
<path d="M363.994 167.657L363.735 167.975V184.223L363.994 184.985L385 155.147L363.994 167.657Z" fill="white"/>
<path d="M363.994 184.984V167.657L343 155.147L363.994 184.984Z" fill="#FFEEDF"/>
<path d="M363.994 163.648L384.987 151.132L363.994 141.508V163.648Z" fill="#FFF3E8"/>
<path d="M343 151.132L363.994 163.648V141.508L343 151.132Z" fill="#FFE4CB"/>
<g opacity="0.6">
<path d="M489.994 305L489.535 306.572V352.186L489.994 352.648L510.987 340.132L489.994 305Z" fill="white"/>
<path d="M489.994 305L469 340.132L489.994 352.648V330.508V305Z" fill="#FFEEDF"/>
<path d="M489.994 356.657L489.735 356.975V373.223L489.994 373.985L511 344.147L489.994 356.657Z" fill="white"/>
<path d="M489.994 373.984V356.657L469 344.147L489.994 373.984Z" fill="#FFEEDF"/>
<path d="M489.994 352.648L510.987 340.132L489.994 330.508V352.648Z" fill="#FFF3E8"/>
<path d="M469 340.132L489.994 352.648V330.508L469 340.132Z" fill="#FFE4CB"/>
</g>
<g opacity="0.8">
<path d="M252.197 252.279C253.979 254.645 255.817 257.065 257.654 259.486C253.979 263.777 249.414 266.527 243.901 267.682C237.777 268.948 231.986 268.012 226.362 264.932C231.373 261.246 236.273 257.615 241.229 253.985C242.342 255.03 243.4 256.075 244.458 257.065C245.627 258.165 245.182 258.22 246.685 257.395C248.745 256.24 250.471 254.645 251.808 252.719C251.863 252.609 251.975 252.499 252.03 252.389C251.975 252.389 252.03 252.389 252.197 252.279V252.279ZM230.315 257.12C228.924 258.165 227.643 259.101 226.362 260.091C225.416 260.806 224.469 261.466 223.523 262.181C223.133 262.511 222.854 262.511 222.409 262.126C218.177 258.385 215.505 253.765 214.503 248.263C213.5 242.707 214.391 237.426 217.064 232.42C217.119 232.31 217.231 232.145 217.287 232.035C217.287 231.98 217.342 231.98 217.454 231.925C221.128 236.711 224.859 241.497 228.534 246.283C228.422 246.448 228.367 246.558 228.255 246.668C227.142 247.823 226.028 248.979 224.859 250.079C224.525 250.409 224.469 250.684 224.692 251.069C225.861 253.269 227.476 255.085 229.48 256.57C229.759 256.735 229.981 256.9 230.315 257.12V257.12ZM251.084 222.958C249.302 224.224 247.52 225.489 245.739 226.699C242.676 228.845 239.614 231.045 236.607 233.19C236.217 233.465 235.939 233.52 235.605 233.135C234.603 232.09 233.545 231.155 232.543 230.11C232.264 229.835 231.986 229.78 231.596 229.945C229.202 231.155 227.309 232.86 225.75 235.006C225.638 235.116 225.527 235.281 225.416 235.446C224.525 234.291 223.69 233.245 222.854 232.145C221.964 230.99 221.128 229.835 220.293 228.734C220.015 228.349 219.959 228.074 220.349 227.689C224.636 223.013 229.926 220.263 236.273 219.603C241.284 219.053 246.073 220.043 250.527 222.408C250.694 222.518 250.861 222.573 251.028 222.683C251.028 222.848 251.028 222.903 251.084 222.958V222.958ZM260.16 255.965C258.99 254.48 257.932 253.104 256.875 251.729C254.425 248.539 251.975 245.293 249.469 242.102C249.135 241.662 249.135 241.387 249.525 241.002C250.583 239.957 251.585 238.912 252.643 237.866C252.921 237.591 253.033 237.316 252.81 236.931C251.585 234.621 249.915 232.695 247.743 231.155C247.576 231.045 247.409 230.88 247.186 230.77C247.353 230.605 247.52 230.495 247.632 230.385C249.748 228.79 251.863 227.249 253.979 225.654C254.313 225.379 254.592 225.269 254.981 225.654C260.271 230.385 263.111 236.271 263.389 243.367C263.5 247.493 262.554 251.399 260.661 255.085C260.494 255.305 260.327 255.58 260.16 255.965V255.965Z" fill="#FFE4CB"/>
</g>
<g opacity="0.4">
<path d="M499.197 252.279C500.979 254.645 502.817 257.065 504.654 259.486C500.979 263.777 496.413 266.527 490.901 267.682C484.777 268.948 478.986 268.012 473.362 264.932C478.373 261.246 483.273 257.615 488.229 253.985C489.342 255.03 490.4 256.075 491.458 257.065C492.627 258.165 492.182 258.22 493.685 257.395C495.745 256.24 497.471 254.645 498.808 252.719C498.863 252.609 498.975 252.499 499.03 252.389C498.975 252.389 499.03 252.389 499.197 252.279V252.279ZM477.315 257.12C475.923 258.165 474.643 259.101 473.362 260.091C472.416 260.806 471.469 261.466 470.523 262.181C470.133 262.511 469.854 262.511 469.409 262.126C465.177 258.385 462.505 253.765 461.503 248.263C460.5 242.707 461.391 237.426 464.064 232.42C464.119 232.31 464.231 232.145 464.286 232.035C464.286 231.98 464.342 231.98 464.454 231.925C468.128 236.711 471.859 241.497 475.534 246.283C475.422 246.448 475.367 246.558 475.255 246.668C474.142 247.823 473.028 248.979 471.859 250.079C471.525 250.409 471.469 250.684 471.692 251.069C472.861 253.269 474.476 255.085 476.48 256.57C476.759 256.735 476.981 256.9 477.315 257.12V257.12ZM498.084 222.958C496.302 224.224 494.52 225.489 492.739 226.699C489.676 228.845 486.614 231.045 483.607 233.19C483.217 233.465 482.939 233.52 482.605 233.135C481.603 232.09 480.545 231.155 479.543 230.11C479.264 229.835 478.986 229.78 478.596 229.945C476.202 231.155 474.309 232.86 472.75 235.006C472.638 235.116 472.527 235.281 472.416 235.446C471.525 234.291 470.69 233.245 469.854 232.145C468.964 230.99 468.128 229.835 467.293 228.734C467.015 228.349 466.959 228.074 467.349 227.689C471.636 223.013 476.926 220.263 483.273 219.603C488.284 219.053 493.073 220.043 497.527 222.408C497.694 222.518 497.861 222.573 498.028 222.683C498.028 222.848 498.028 222.903 498.084 222.958V222.958ZM507.16 255.965C505.99 254.48 504.932 253.104 503.875 251.729C501.425 248.539 498.975 245.293 496.469 242.102C496.135 241.662 496.135 241.387 496.525 241.002C497.583 239.957 498.585 238.912 499.643 237.866C499.921 237.591 500.033 237.316 499.81 236.931C498.585 234.621 496.915 232.695 494.743 231.155C494.576 231.045 494.409 230.88 494.186 230.77C494.353 230.605 494.52 230.495 494.632 230.385C496.748 228.79 498.863 227.249 500.979 225.654C501.313 225.379 501.592 225.269 501.981 225.654C507.271 230.385 510.111 236.271 510.389 243.367C510.5 247.493 509.554 251.399 507.661 255.085C507.494 255.305 507.327 255.58 507.16 255.965V255.965Z" fill="#FFE4CB"/>
</g>
<g opacity="0.5">
<path d="M239 81C253.359 81 265 69.3594 265 55C265 40.6406 253.359 29 239 29C224.641 29 213 40.6406 213 55C213 69.3594 224.641 81 239 81Z" fill="#FFE7D0"/>
<path d="M232.883 58.5216C229.563 58.5216 226.871 61.2212 226.871 64.5513C226.871 67.8814 229.563 70.5809 232.883 70.5809C236.204 70.5809 238.896 67.8814 238.896 64.5513C238.896 61.2212 236.204 58.5216 232.883 58.5216H232.883ZM232.883 68.757C230.569 68.757 228.692 66.8752 228.692 64.5534C228.692 62.2316 230.568 60.3497 232.883 60.3497C235.198 60.3497 237.075 62.2316 237.075 64.5534C237.071 66.8731 235.197 68.7542 232.883 68.757ZM245.724 45.6597C242.403 45.6597 239.711 48.3593 239.711 51.6893C239.711 55.0194 242.403 57.719 245.724 57.719C249.044 57.719 251.736 55.0194 251.736 51.6893C251.736 48.3593 249.045 45.6594 245.724 45.6594L245.724 45.6597ZM245.724 55.8951C243.41 55.8951 241.532 54.0132 241.532 51.6914C241.532 49.3696 243.408 47.4877 245.724 47.4877C248.04 47.4877 249.916 49.3696 249.916 51.6914C249.912 54.0122 248.036 55.8909 245.724 55.8948L245.724 55.8951ZM232.883 45.6594C230.021 45.6576 227.553 47.6794 226.984 50.4928C226.415 53.3063 227.902 56.132 230.538 57.2492C231.82 57.7877 233.249 57.8664 234.583 57.4719C235.916 57.0774 237.072 56.2341 237.855 55.0847C238.638 53.9353 238.999 52.5506 238.878 51.1653C238.757 49.7799 238.16 48.4791 237.189 47.4833H238.894V45.6594H232.883ZM237.075 51.6891C237.075 54.0106 235.198 55.8928 232.883 55.8928C230.568 55.8928 228.692 54.0106 228.692 51.6891C228.692 49.3675 230.568 47.4862 232.883 47.4862C235.198 47.4862 237.073 49.3688 237.077 51.6899H237.075V51.6891Z" fill="#FFF8F0"/>
</g>
<g opacity="0.5" clip-path="url(#clip1)">
<path d="M489.362 31.1359C490.496 30.5701 491.879 31.8826 491.277 32.9667C490.927 33.8503 489.601 34.0853 488.924 33.4117C488.206 32.7653 488.44 31.4876 489.362 31.1359ZM477.172 32.3939C477.861 32.1226 478.732 32.7265 478.662 33.4448C478.735 34.2247 477.739 34.7987 477.037 34.4281C476.107 34.0833 476.214 32.6383 477.172 32.3939V32.3939ZM502.139 34.45C501.063 34.3255 500.893 32.7061 501.929 32.38C502.732 32.0049 503.469 32.7083 503.587 33.4374C503.418 34.0599 502.874 34.6299 502.139 34.45ZM479.946 37.3611C481.097 36.6641 482.739 37.7021 482.562 38.982C482.502 40.2744 480.709 41.0231 479.698 40.1494C478.72 39.4632 478.868 37.8888 479.946 37.3611ZM497.517 38.1006C498.03 36.8336 500.111 36.7953 500.696 38.0287C501.273 38.9885 500.563 40.1771 499.533 40.5034C498.17 40.7471 496.875 39.336 497.517 38.1006ZM487.894 40.4315C487.883 39.3424 488.919 38.531 490 38.4568C490.717 38.5945 491.499 38.8869 491.806 39.5797C492.38 40.5353 491.871 41.851 490.835 42.2896C490.361 42.5438 489.801 42.4484 489.285 42.4188C488.497 42.0482 487.833 41.3213 487.894 40.4315V40.4315ZM469.766 42.0183C470.817 41.3995 472.236 42.5288 471.838 43.6223C471.619 44.5682 470.29 44.9531 469.531 44.3492C468.721 43.7834 468.849 42.4231 469.766 42.0183V42.0183ZM508.694 42.0163C509.586 41.3532 511.058 42.1139 510.952 43.1922C511.012 44.1754 509.739 44.917 508.854 44.4107C507.878 43.991 507.779 42.5545 508.694 42.0163V42.0163ZM492.992 43.9741C494.464 43.4678 496.213 44.0736 497.052 45.3302C498.159 46.8662 497.57 49.2056 495.852 50.087C494.073 51.1295 491.474 50.2458 490.817 48.3431C490.07 46.6397 491.158 44.508 492.992 43.9741V43.9741ZM484.355 44.1416C485.987 43.4043 488.182 44.0228 488.97 45.6207C489.898 47.1759 489.181 49.3415 487.523 50.1445C485.863 51.0471 483.521 50.3628 482.717 48.693C481.816 47.0783 482.616 44.8851 484.355 44.1416V44.1416ZM475.707 46.9723C475.831 45.9659 476.822 45.311 477.823 45.2433C478.901 45.3678 479.762 46.1693 479.879 47.2137C479.809 48.2477 478.974 49.2583 477.829 49.2521C476.57 49.3559 475.466 48.1566 475.707 46.9723V46.9723ZM501.251 45.4621C502.544 44.7417 504.339 45.7904 504.282 47.2122C504.37 48.7187 502.384 49.7803 501.096 48.8967C499.759 48.1609 499.863 46.0886 501.251 45.4621V45.4621ZM480.84 50.7715C482.352 50.3732 484.081 51.0555 484.822 52.386C485.635 53.7252 485.303 55.5856 484.041 56.5678C482.423 58.0085 479.439 57.4301 478.578 55.4639C477.588 53.6614 478.79 51.2459 480.84 50.7715V50.7715ZM497.223 50.764C498.692 50.3615 500.419 50.9039 501.209 52.1859C502.254 53.652 501.755 55.8387 500.2 56.7839C498.571 57.8813 496.047 57.3051 495.151 55.5891C494.064 53.814 495.157 51.3054 497.223 50.764V50.764ZM471.116 52.4368C472.422 51.9638 473.87 53.3436 473.341 54.5832C473.017 55.7125 471.355 56.13 470.496 55.2973C469.491 54.5155 469.863 52.7758 471.116 52.4368V52.4368ZM506.515 54.2357C506.477 53.1997 507.269 52.2822 508.379 52.2249C509.273 52.3606 510.143 53.0513 510.072 53.9835C510.154 55.2147 508.604 56.0516 507.509 55.4731C506.995 55.2232 506.732 54.7188 506.515 54.2357V54.2357ZM464.694 53.0449C465.48 52.7166 466.452 53.3685 466.273 54.2038C466.231 55.1497 464.772 55.5134 464.236 54.7231C463.763 54.1742 464.046 53.3279 464.694 53.0449ZM514.236 53.026C514.789 52.6488 515.677 52.9199 515.896 53.5387C516.268 54.2145 515.586 55.1405 514.791 55.0263C513.676 55.1236 513.315 53.4962 514.236 53.026ZM485.108 57.5665C487.175 57.0517 489.398 58.7023 489.411 60.7404C489.546 62.8 487.357 64.6263 485.24 64.1506C483.605 63.8984 482.321 62.3897 482.374 60.8071C482.37 59.2935 483.563 57.8866 485.108 57.5665ZM493.296 57.5622C495.394 57.0007 497.683 58.6809 497.65 60.7661C497.76 62.7875 495.64 64.5523 493.568 64.1513C491.618 63.9099 490.179 61.8588 490.723 60.0472C490.998 58.8399 492.052 57.8582 493.296 57.5622V57.5622ZM477.509 58.8168C478.961 58.5796 480.322 60.1306 479.733 61.4506C479.304 62.8572 477.166 63.2388 476.22 62.0898C475.111 60.9863 475.939 58.9691 477.509 58.8168ZM501.521 58.8788C502.816 58.3595 504.405 59.4319 504.306 60.7773C504.358 62.2583 502.396 63.2796 501.129 62.4151C499.695 61.639 499.956 59.3549 501.521 58.8788V58.8788ZM508.233 65.3237C507.726 64.4189 508.647 63.2196 509.696 63.3872C510.218 63.3787 510.584 63.7727 510.918 64.1033C510.987 64.6395 511.102 65.2792 510.637 65.6924C510.006 66.4573 508.576 66.239 508.233 65.3237ZM469.761 63.6391C470.742 63.014 472.153 63.9462 471.933 65.044C471.816 66.0147 470.538 66.5696 469.697 66.0187C468.794 65.5186 468.827 64.0948 469.761 63.6391V63.6391ZM489.137 65.6712C490.42 65.1288 492.056 66.1989 491.934 67.5528C492.03 69.0488 490.007 70.0848 488.751 69.1864C487.357 68.415 487.589 66.1457 489.137 65.6712V65.6712ZM480.163 67.6755C481.256 67.1247 482.724 68.076 482.624 69.2477C482.657 70.2097 481.677 71.0297 480.685 70.8875C479.864 70.8706 479.328 70.1657 479.065 69.4954C479.078 68.7648 479.392 67.9511 480.163 67.6755V67.6755ZM498.34 67.6924C499.465 67.0271 501.063 67.9827 500.957 69.2357C500.986 70.5453 499.179 71.3841 498.132 70.5239C497.119 69.8496 497.242 68.2286 498.34 67.6924ZM501.501 75.1742C501.001 74.4496 501.59 73.5766 502.402 73.4113C503.055 73.5385 503.746 74.0087 503.609 74.7336C503.514 75.7146 502.015 76.0155 501.501 75.1742V75.1742ZM476.409 74.5449C476.608 73.9706 477.09 73.3999 477.796 73.5492C478.826 73.6192 479.131 75.1045 478.23 75.5622C477.42 76.0852 476.48 75.3691 476.409 74.5449V74.5449ZM488.514 75.2038C488.711 74.3542 489.86 73.941 490.617 74.3923C491.117 74.5979 491.264 75.1338 491.392 75.5894C491.323 75.8266 491.262 76.064 491.202 76.3013C490.892 76.653 490.493 77.0047 489.978 76.992C489.019 77.0995 488.154 76.062 488.514 75.2038Z" fill="#FFE4CB"/>
</g>
<g opacity="0.5" clip-path="url(#clip2)">
<path d="M113.362 221.136C114.496 220.57 115.879 221.883 115.277 222.967C114.927 223.85 113.601 224.085 112.924 223.412C112.206 222.765 112.44 221.488 113.362 221.136ZM101.172 222.394C101.861 222.123 102.732 222.726 102.662 223.445C102.735 224.225 101.739 224.799 101.037 224.428C100.107 224.083 100.214 222.638 101.172 222.394V222.394ZM126.139 224.45C125.063 224.326 124.893 222.706 125.929 222.38C126.732 222.005 127.469 222.708 127.587 223.437C127.418 224.06 126.874 224.63 126.139 224.45ZM103.946 227.361C105.097 226.664 106.739 227.702 106.562 228.982C106.502 230.274 104.709 231.023 103.698 230.149C102.72 229.463 102.868 227.889 103.946 227.361ZM121.517 228.101C122.03 226.834 124.111 226.795 124.696 228.029C125.273 228.988 124.563 230.177 123.533 230.503C122.17 230.747 120.875 229.336 121.517 228.101ZM111.894 230.431C111.883 229.342 112.919 228.531 114 228.457C114.717 228.594 115.499 228.887 115.806 229.58C116.38 230.535 115.871 231.851 114.835 232.29C114.361 232.544 113.801 232.448 113.285 232.419C112.497 232.048 111.833 231.321 111.894 230.431V230.431ZM93.7658 232.018C94.8172 231.4 96.2358 232.529 95.8377 233.622C95.6185 234.568 94.2904 234.953 93.5312 234.349C92.7208 233.783 92.8493 232.423 93.7658 232.018V232.018ZM132.694 232.016C133.586 231.353 135.058 232.114 134.952 233.192C135.012 234.175 133.739 234.917 132.854 234.411C131.878 233.991 131.779 232.554 132.694 232.016V232.016ZM116.992 233.974C118.464 233.468 120.213 234.074 121.052 235.33C122.159 236.866 121.57 239.206 119.852 240.087C118.073 241.129 115.474 240.246 114.817 238.343C114.07 236.64 115.158 234.508 116.992 233.974V233.974ZM108.355 234.142C109.987 233.404 112.182 234.023 112.97 235.621C113.898 237.176 113.181 239.341 111.523 240.144C109.863 241.047 107.521 240.363 106.717 238.693C105.816 237.078 106.616 234.885 108.355 234.142V234.142ZM99.7068 236.972C99.8308 235.966 100.822 235.311 101.823 235.243C102.901 235.368 103.762 236.169 103.879 237.214C103.809 238.248 102.974 239.258 101.829 239.252C100.57 239.356 99.4663 238.157 99.7068 236.972V236.972ZM125.251 235.462C126.544 234.742 128.339 235.79 128.282 237.212C128.37 238.719 126.384 239.78 125.096 238.897C123.759 238.161 123.863 236.089 125.251 235.462V235.462ZM104.84 240.772C106.352 240.373 108.081 241.056 108.822 242.386C109.635 243.725 109.303 245.586 108.041 246.568C106.423 248.009 103.439 247.43 102.578 245.464C101.588 243.661 102.79 241.246 104.84 240.772V240.772ZM121.223 240.764C122.692 240.362 124.419 240.904 125.209 242.186C126.254 243.652 125.755 245.839 124.2 246.784C122.571 247.881 120.047 247.305 119.151 245.589C118.064 243.814 119.157 241.305 121.223 240.764V240.764ZM95.1159 242.437C96.4219 241.964 97.8696 243.344 97.3405 244.583C97.0173 245.713 95.3549 246.13 94.4961 245.297C93.4912 244.515 93.8633 242.776 95.1159 242.437V242.437ZM130.515 244.236C130.477 243.2 131.269 242.282 132.379 242.225C133.273 242.361 134.143 243.051 134.072 243.984C134.154 245.215 132.604 246.052 131.509 245.473C130.995 245.223 130.732 244.719 130.515 244.236V244.236ZM88.6945 243.045C89.4802 242.717 90.4521 243.368 90.2727 244.204C90.2305 245.15 88.7719 245.513 88.2361 244.723C87.7626 244.174 88.046 243.328 88.6945 243.045ZM138.236 243.026C138.789 242.649 139.677 242.92 139.896 243.539C140.268 244.215 139.586 245.141 138.791 245.026C137.676 245.124 137.315 243.496 138.236 243.026ZM109.108 247.566C111.175 247.052 113.398 248.702 113.411 250.74C113.546 252.8 111.357 254.626 109.24 254.151C107.605 253.898 106.321 252.39 106.374 250.807C106.37 249.293 107.563 247.887 109.108 247.566ZM117.296 247.562C119.394 247.001 121.683 248.681 121.65 250.766C121.76 252.788 119.64 254.552 117.568 254.151C115.618 253.91 114.179 251.859 114.723 250.047C114.998 248.84 116.052 247.858 117.296 247.562V247.562ZM101.509 248.817C102.961 248.58 104.322 250.131 103.733 251.451C103.304 252.857 101.166 253.239 100.22 252.09C99.1114 250.986 99.9392 248.969 101.509 248.817ZM125.521 248.879C126.816 248.36 128.405 249.432 128.306 250.777C128.358 252.258 126.396 253.28 125.129 252.415C123.695 251.639 123.956 249.355 125.521 248.879V248.879ZM132.233 255.324C131.726 254.419 132.647 253.22 133.696 253.387C134.218 253.379 134.584 253.773 134.918 254.103C134.987 254.639 135.102 255.279 134.637 255.692C134.006 256.457 132.576 256.239 132.233 255.324ZM93.7613 253.639C94.7421 253.014 96.1533 253.946 95.9329 255.044C95.8156 256.015 94.5382 256.57 93.6969 256.019C92.7939 255.519 92.8272 254.095 93.7613 253.639V253.639ZM113.137 255.671C114.42 255.129 116.056 256.199 115.934 257.553C116.03 259.049 114.007 260.085 112.751 259.186C111.357 258.415 111.589 256.146 113.137 255.671V255.671ZM104.163 257.676C105.256 257.125 106.724 258.076 106.624 259.248C106.657 260.21 105.677 261.03 104.685 260.888C103.864 260.871 103.328 260.166 103.065 259.495C103.078 258.765 103.392 257.951 104.163 257.676V257.676ZM122.34 257.692C123.465 257.027 125.063 257.983 124.957 259.236C124.986 260.545 123.179 261.384 122.132 260.524C121.119 259.85 121.242 258.229 122.34 257.692ZM125.501 265.174C125.001 264.45 125.59 263.577 126.402 263.411C127.055 263.539 127.746 264.009 127.609 264.734C127.514 265.715 126.015 266.016 125.501 265.174V265.174ZM100.409 264.545C100.608 263.971 101.09 263.4 101.796 263.549C102.826 263.619 103.131 265.104 102.23 265.562C101.42 266.085 100.48 265.369 100.409 264.545V264.545ZM112.514 265.204C112.711 264.354 113.86 263.941 114.617 264.392C115.117 264.598 115.264 265.134 115.392 265.589C115.323 265.827 115.262 266.064 115.202 266.301C114.892 266.653 114.493 267.005 113.978 266.992C113.019 267.1 112.154 266.062 112.514 265.204Z" fill="#FFE4CB"/>
</g>
<path d="M364 26.5161L391.879 54.3946L364 82.2732L336.122 54.3946L364 26.5161Z" fill="#FFFBF8"/>
<path d="M364 63.4918L336.098 54.3935L364 26.5154L391.902 54.3935L364 63.4918Z" fill="#FFEEDF"/>
<path d="M345.803 52.5737H358.541L364 46.5081L370.066 52.5737H382.803L364 32.2546L345.803 52.5737V52.5737Z" fill="white"/>
<path opacity="0.42" d="M364 82.2716V26.5154L391.878 54.3935L364 82.2716V82.2716Z" fill="#FFEFE1"/>
<g opacity="0.8">
<path d="M239 364C252.807 364 264 352.807 264 339C264 325.193 252.807 314 239 314C225.193 314 214 325.193 214 339C214 352.807 225.193 364 239 364Z" fill="#FFE4CB"/>
<path d="M234.782 337.47C233.91 337.465 233.04 337.54 232.182 337.694C232.888 331.162 238.332 326.216 244.813 326.216C248.781 326.216 251.5 328.159 251.5 332.182C251.5 336.205 248.237 338.148 243.475 338.148C239.961 338.148 238.297 337.47 234.782 337.47ZM234.525 339.852C229.764 339.852 226.5 341.795 226.5 345.818C226.5 349.841 229.219 351.784 233.187 351.784C239.669 351.784 245.112 346.839 245.818 340.307C244.96 340.461 244.09 340.535 243.218 340.531C239.703 340.53 238.04 339.852 234.525 339.852Z" fill="#FFF8F0"/>
</g>
<g opacity="0.6">
<path d="M114 364C127.807 364 139 352.807 139 339C139 325.193 127.807 314 114 314C100.193 314 89 325.193 89 339C89 352.807 100.193 364 114 364Z" fill="#FFE4CB"/>
<path d="M106.01 332.14L113.999 357.23L102.144 349.802L106.01 332.14L113.999 321.225V328.881L102.144 349.802H125.866L114.011 328.881V321.225L122.001 332.14L125.866 349.802L114.011 357.23L122.001 332.14" stroke="white" stroke-linecap="round" stroke-linejoin="round"/>
</g>
<path opacity="0.1" fill-rule="evenodd" clip-rule="evenodd" d="M430 112C430 108.686 432.686 106 436 106H542.67C545.984 106 548.67 108.686 548.67 112V188.313C548.67 191.627 545.984 194.313 542.67 194.313H436C432.686 194.313 430 191.627 430 188.313V112Z" fill="white"/>
<g opacity="0.4">
<path d="M489 175C502.807 175 514 163.807 514 150C514 136.193 502.807 125 489 125C475.193 125 464 136.193 464 150C464 163.807 475.193 175 489 175Z" fill="#FFE4CB"/>
<path d="M481.01 143.14L488.999 168.23L477.144 160.802L481.01 143.14L488.999 132.225V139.881L477.144 160.802H500.866L489.011 139.881V132.225L497.001 143.14L500.866 160.802L489.011 168.23L497.001 143.14" stroke="white" stroke-linecap="round" stroke-linejoin="round"/>
</g>
<g opacity="0.7">
<path d="M115.978 66.45C106.838 66.45 99.4281 59.0063 99.4281 49.824C99.4281 40.6417 106.838 33.198 115.978 33.198C125.119 33.198 132.529 40.6417 132.529 49.824C132.529 59.0063 125.119 66.45 115.978 66.45ZM123.095 46.1578C123.241 46.0845 123.715 45.8462 124.263 45.278C125.358 45.4246 126.434 45.7729 126.434 45.7729C124.445 44.5631 121.726 43.8482 118.716 43.8665C118.716 43.8665 119.865 45.5163 123.058 46.1945C123.058 46.1945 123.077 46.1762 123.095 46.1578Z" fill="#FDE4CC"/>
<path d="M127.602 44.8378C128.788 46.4509 129.409 48.3573 129.409 50.337C129.409 52.7383 128.423 54.9563 126.744 56.7527L127.766 60.5839H130.868L134.135 56.8627L135.011 51.4185L135.193 48.174L131.963 44.5078L127.602 44.8378Z" fill="#FDE3CB"/>
<path d="M126.519 56.8006C128.067 54.9705 129.023 52.4563 129.023 49.6817C129.023 48.0394 128.688 46.4882 128.093 45.1162" stroke="#FEF4E9"/>
<path d="M91.6546 61.0238L92.2203 63.2785C92.2203 63.2785 98.8989 77.0449 113.935 82.1592C113.935 82.1592 127.614 76.2933 133.69 66.3397L125.303 58.9891C125.303 58.9891 121.288 62.197 115.322 62.197C109.355 62.197 101.253 58.6225 101.253 51.2535C101.253 43.8846 109.647 41.1899 109.647 41.1899L106.07 40.3101H96.9281L91.1255 54.3514L91.6546 61.0238Z" fill="#FDE3CB"/>
<path d="M142.182 45.5488C141.926 45.2922 135.416 37.355 115.106 30.3343C114.464 29.8932 114.116 29.757 114.062 29.9258C95.1981 34.7581 85.9432 44.9139 85.9432 45.5488C85.9432 46.1838 88.6438 55.7263 90.3956 59.6124C90.5416 59.9424 92.8772 64.0851 94.6107 66.3398C93.5889 64.0851 92.4758 62.1237 92.4758 58.7509C92.4758 49.2372 99.8112 41.5016 108.99 41.1717C109.209 41.1717 109.446 41.1717 109.665 41.19L107.475 38.9903C107.475 38.9903 116.289 37.5055 127.602 44.3796C127.602 44.3796 127.766 44.7279 127.602 45.7544C127.602 45.7544 132.93 48.0641 133.387 52.5551C133.843 57.0461 131.014 59.6124 128.733 59.979C128.733 59.979 129.919 58.1276 128.095 57.1378C127.712 56.9178 127.255 56.8261 126.799 56.8445C123.314 56.8445 122.912 60.8406 122.912 60.8406C122.876 61.0422 122.876 61.2439 122.876 61.4455C122.876 61.4455 122.292 67.293 132.657 67.183C132.657 67.183 137.912 61.2072 139.299 55.8363C139.81 53.8566 140.175 52.3718 140.412 51.2719C140.996 49.7138 141.561 47.4186 142.109 45.7505L142.182 45.5488Z" fill="#FEF4E8"/>
<path d="M142.382 44.6458C131.398 35.1125 117.511 30.1589 114.628 29.2056L114.354 29.1122L113.99 29L113.351 29.2056C110.468 30.1589 96.5815 35.1125 85.5965 44.6458L85.3593 44.8514L85.414 45.1692C85.4323 45.2439 86.6184 52.478 90.6693 60.6467C93.0597 65.4507 95.961 69.6192 99.2821 73.0773C103.351 77.3019 108.096 80.4236 113.369 82.3676L113.679 82.4798L113.99 82.5919L114.318 82.4611L114.628 82.3489C119.902 80.4049 124.628 77.2832 128.715 73.0586C132.036 69.6192 134.938 65.432 137.328 60.628C141.379 52.478 142.583 45.2252 142.583 45.1505L142.638 44.8327L142.382 44.6458ZM136.324 60.1233C133.989 64.8152 131.16 68.9089 127.912 72.2735C123.88 76.442 119.208 79.5076 113.99 81.3956C108.771 79.5076 104.099 76.4607 100.067 72.2922C96.8187 68.9276 93.9903 64.8526 91.6546 60.1607C88.1329 53.0949 86.8191 46.758 86.5454 45.3C97.804 35.6359 112.037 30.8132 113.99 30.1776C115.924 30.8132 130.175 35.6359 141.434 45.3C141.16 46.7394 139.828 53.0762 136.324 60.1233Z" fill="#FFE9D5"/>
<path d="M109.257 40.9329C104.539 43.2099 100.928 47.4524 101.25 52.096C101.671 58.1776 108.492 62.6502 116.486 62.0857C118.893 61.9157 121.237 61.26 123.179 60.3278" stroke="#FEF4E9"/>
</g>
<g clip-path="url(#clip3)">
<path d="M362.367 317.072C366.867 316.774 371.452 317.707 375.504 319.771C381.468 322.781 386.222 328.228 388.472 334.658C389.464 337.494 389.996 340.504 389.996 343.513V354.707C389.996 355.167 390.008 355.627 389.9 356.075C389.658 357.207 388.871 358.202 387.843 358.674C387.129 359.023 386.307 359.06 385.533 358.935C383.875 358.625 382.581 357.02 382.569 355.291C382.557 351.821 382.569 348.352 382.569 344.869C382.593 343.887 382.605 342.829 382.085 341.959C381.238 340.354 379.206 339.596 377.561 340.28C376.17 340.79 375.166 342.232 375.153 343.75C375.141 347.282 375.153 350.802 375.153 354.321C375.153 354.98 375.19 355.652 374.996 356.286C374.645 357.53 373.641 358.537 372.432 358.873C370.847 359.321 369.02 358.6 368.222 357.095C367.678 356.187 367.714 355.092 367.726 354.073C367.714 350.578 367.738 347.07 367.714 343.576C367.678 341.797 366.262 340.193 364.544 339.969C363.431 339.795 362.258 340.18 361.448 340.989C360.722 341.698 360.298 342.718 360.298 343.75V353.948C360.286 354.806 360.383 355.689 360.069 356.498C359.573 357.953 358.145 359.023 356.633 358.985C355.085 359.072 353.585 357.978 353.089 356.485C352.81 355.752 352.871 354.956 352.871 354.185C352.871 350.665 352.883 347.145 352.871 343.625C352.859 341.884 351.54 340.292 349.883 339.981C348.371 339.646 346.701 340.429 345.951 341.822C345.625 342.407 345.455 343.078 345.455 343.737V355.167C345.468 356.274 344.972 357.381 344.137 358.09C342.879 359.222 340.847 359.284 339.528 358.239C338.572 357.567 338.004 356.411 338.004 355.217V343.638C338.016 339.26 339.093 334.895 341.125 331.039C342.782 327.893 345.068 325.094 347.802 322.856C351.915 319.448 357.081 317.396 362.367 317.072Z" fill="#FFE7D0" fill-opacity="0.7"/>
</g>
<path d="M112.363 129.054C116.863 128.756 121.448 129.689 125.5 131.753C131.464 134.763 136.218 140.211 138.468 146.64C139.46 149.476 139.993 152.486 139.993 155.496V166.689C139.993 167.149 140.005 167.609 139.896 168.057C139.654 169.189 138.868 170.184 137.839 170.656C137.126 171.005 136.303 171.042 135.529 170.918C133.872 170.607 132.577 169.002 132.565 167.274C132.553 163.804 132.565 160.334 132.565 156.851C132.589 155.869 132.601 154.812 132.081 153.941C131.234 152.337 129.202 151.578 127.557 152.262C126.166 152.772 125.162 154.215 125.15 155.732C125.138 159.264 125.15 162.784 125.15 166.303C125.15 166.963 125.186 167.634 124.992 168.269C124.642 169.512 123.638 170.52 122.428 170.855C120.843 171.303 119.016 170.582 118.218 169.077C117.674 168.169 117.71 167.075 117.722 166.055C117.71 162.56 117.734 159.053 117.71 155.558C117.674 153.779 116.258 152.175 114.541 151.951C113.428 151.777 112.254 152.163 111.444 152.971C110.718 153.68 110.295 154.7 110.295 155.732V165.93C110.283 166.789 110.379 167.672 110.065 168.48C109.569 169.935 108.141 171.005 106.629 170.967C105.081 171.054 103.581 169.96 103.085 168.468C102.807 167.734 102.867 166.938 102.867 166.167C102.867 162.647 102.879 159.127 102.867 155.608C102.855 153.866 101.536 152.274 99.8792 151.964C98.3671 151.628 96.6977 152.411 95.9477 153.804C95.6211 154.389 95.4517 155.06 95.4517 155.72V167.149C95.4638 168.256 94.9678 169.363 94.1331 170.072C92.8751 171.204 90.8428 171.266 89.5242 170.221C88.5686 169.55 88 168.393 88 167.199V155.62C88.0121 151.242 89.0887 146.877 91.121 143.021C92.7783 139.875 95.0646 137.076 97.7985 134.838C101.911 131.43 107.077 129.378 112.363 129.054Z" fill="#FFE7D0" fill-opacity="0.7"/>
<defs>
<filter id="filter0_d" x="176" y="103.59" width="126.67" height="96.3129" filterUnits="userSpaceOnUse" color-interpolation-filters="sRGB">
<feFlood flood-opacity="0" result="BackgroundImageFix"/>
<feColorMatrix in="SourceAlpha" type="matrix" values="0 0 0 0 0 0 0 0 0 0 0 0 0 0 0 0 0 0 127 0"/>
<feOffset dy="2"/>
<feGaussianBlur stdDeviation="2"/>
<feColorMatrix type="matrix" values="0 0 0 0 0 0 0 0 0 0 0 0 0 0 0 0 0 0 0.1 0"/>
<feBlend mode="normal" in2="BackgroundImageFix" result="effect1_dropShadow"/>
<feBlend mode="normal" in="SourceGraphic" in2="effect1_dropShadow" result="shape"/>
</filter>
<filter id="filter1_d" x="300.3" y="198.343" width="126.67" height="96.3129" filterUnits="userSpaceOnUse" color-interpolation-filters="sRGB">
<feFlood flood-opacity="0" result="BackgroundImageFix"/>
<feColorMatrix in="SourceAlpha" type="matrix" values="0 0 0 0 0 0 0 0 0 0 0 0 0 0 0 0 0 0 127 0"/>
<feOffset dy="2"/>
<feGaussianBlur stdDeviation="2"/>
<feColorMatrix type="matrix" values="0 0 0 0 0 0 0 0 0 0 0 0 0 0 0 0 0 0 0.1 0"/>
<feBlend mode="normal" in2="BackgroundImageFix" result="effect1_dropShadow"/>
<feBlend mode="normal" in="SourceGraphic" in2="effect1_dropShadow" result="shape"/>
</filter>
<clipPath id="clip0">
<rect width="42.3166" height="42.3166" fill="white" transform="translate(339.337 224.26)"/>
</clipPath>
<clipPath id="clip1">
<rect width="52" height="46" fill="white" transform="matrix(-1 0 0 1 516 31)"/>
</clipPath>
<clipPath id="clip2">
<rect width="52" height="46" fill="white" transform="matrix(-1 0 0 1 140 221)"/>
</clipPath>
<clipPath id="clip3">
<rect width="52" height="42" fill="white" transform="matrix(1 0 0 -1 338 359)"/>
</clipPath>
</defs>
</svg>
