<svg width="19" height="11" viewBox="0 0 19 11" fill="none" xmlns="http://www.w3.org/2000/svg">
<path d="M18.8102 1.13393L17.8583 0.189065C17.7315 0.0628892 17.5854 0 17.4202 0C17.2554 0 17.1094 0.0628892 16.9826 0.189065L9.5001 7.61682L2.01797 0.189264C1.89107 0.063088 1.74503 0.000198489 1.58006 0.000198489C1.41502 0.000198489 1.26898 0.063088 1.14215 0.189264L0.190447 1.13419C0.0633491 1.2601 0 1.40508 0 1.56892C0 1.73263 0.0635492 1.87761 0.190447 2.00352L9.06219 10.8111C9.18902 10.937 9.33513 11 9.5001 11C9.66508 11 9.81091 10.937 9.93768 10.8111L18.8102 2.00352C18.937 1.87754 19 1.73257 19 1.56892C19 1.40508 18.937 1.2601 18.8102 1.13393Z" fill="white"/>
</svg>
