<svg width="414" height="83" viewBox="0 0 414 83" fill="none" xmlns="http://www.w3.org/2000/svg">
<path d="M84.5586 0.966797V6.12109H135.252L95.0371 81H101.154L141.596 4.76172V0.966797H84.5586Z" fill="white"/>
<path d="M182.568 81H212.248C226.295 81 238.133 72.8438 238.133 58.1738C238.133 49.5078 232.469 41.0117 224.652 38.3496C229.693 35.9141 234.225 29.7969 234.225 22.207C234.225 6.74414 221.707 0.966797 209.133 0.966797H182.568V81ZM194.746 34.1582V11.9551H209.359C217.402 11.9551 223.01 15.6367 223.01 22.8867C223.01 31.2129 217.232 34.1582 210.889 34.1582H194.746ZM194.746 69.3887V44.6934H212.701C221.027 44.6934 226.182 49.9609 226.182 56.8145C226.182 65.2539 221.254 69.3887 212.418 69.3887H194.746Z" fill="white"/>
<path d="M275.139 82.0762C284.484 82.0762 291.621 78.9043 297.852 72.1074L289.809 65.0273C285.447 69.7285 280.859 71.4277 275.195 71.4277C265.453 71.4277 260.582 65.5371 259.562 56.3613H299.381C299.607 55.5684 299.834 53.2461 299.834 51.0938C299.834 38.916 293.604 23.3398 274.176 23.3398C255.938 23.3398 247.215 37.7832 247.215 52.9629C247.215 68.4824 256.447 82.0762 275.139 82.0762ZM259.562 47.8652C260.752 39.3691 265.227 33.1953 274.062 33.1953C281.879 33.1953 286.807 37.8965 287.939 44.2969C288.223 45.4297 288.336 46.6191 288.279 47.8652H259.562Z" fill="white"/>
<path d="M319.85 82.0762C322.795 82.0762 326.59 81.5664 329.365 81L329.309 71.1445C327.779 71.3711 326.193 71.541 325.23 71.541C321.492 71.541 320.133 69.5586 320.133 66.3301V0.966797H308.465V69.502C308.465 78.8477 312.826 82.0762 319.85 82.0762Z" fill="white"/>
<path d="M349.908 82.0762C352.854 82.0762 356.648 81.5664 359.424 81L359.367 71.1445C357.838 71.3711 356.252 71.541 355.289 71.541C351.551 71.541 350.191 69.5586 350.191 66.3301V0.966797H338.523V69.502C338.523 78.8477 342.885 82.0762 349.908 82.0762Z" fill="white"/>
<path d="M389.859 23.3398C379.098 23.3398 372.074 27.9844 366.637 35.5176L375.586 41.9746C378.475 37.2734 383.119 33.5918 389.916 33.5918C399.828 33.5918 402.83 37.8965 403.057 47.6387H387.311C374.057 47.6387 364.428 51.8867 364.428 63.9512C364.428 75.4492 373.037 82.0762 384.648 82.0762C391.729 82.0762 399.432 78.791 403.227 72.1641L404.02 81H413.705V46.5625C413.705 32.6289 404.982 23.3398 389.859 23.3398ZM386.971 72.1074C380.004 72.1074 376.436 68.9355 376.436 64.291C376.436 59.6465 380.117 56.1348 387.99 56.1348H403.057V57.8906C401.867 65.5371 396.146 72.1074 386.971 72.1074Z" fill="white"/>
<path d="M29.5098 81.793C48.8809 81.793 57.0938 61.4023 57.0938 41.1816C57.0938 20.7344 48.7109 0.0605469 28.7168 0.0605469C6.68359 0.0605469 0.962891 23.2832 0.962891 40.9551C0.962891 58.457 6.85352 81.793 29.5098 81.793ZM29.3965 76.4688C11.2148 76.4688 6.45703 56.9277 6.45703 40.9551C6.45703 24.8691 11.1582 5.44141 28.7168 5.44141C45.0859 5.44141 51.373 23.1699 51.373 41.0684C51.373 58.7402 45.1992 76.4688 29.3965 76.4688Z" fill="white"/>
<circle cx="70.5" cy="77.5" r="3.5" fill="white"/>
</svg>
