<svg width="22" height="22" viewBox="0 0 22 22" fill="none" xmlns="http://www.w3.org/2000/svg">
<g clip-path="url(#clip0)">
<path d="M20.5244 5.50078C17.4873 0.24049 10.7607 -1.56193 5.50084 1.47566C0.240542 4.51226 -1.56195 11.2386 1.47564 16.4987C4.51224 21.759 11.2387 23.5617 16.4986 20.5244C21.759 17.4867 23.5623 10.7607 20.5244 5.50078ZM15.399 18.6188C11.1914 21.049 5.80982 19.6069 3.3804 15.3985C0.950414 11.1909 2.39292 5.80935 6.60067 3.38042C10.8086 0.950432 16.1899 2.39231 18.6195 6.60062C21.0491 10.8089 19.607 16.1893 15.399 18.6188ZM14.9592 10.5528L9.20024 7.19407C8.67544 6.88767 8.25213 7.13263 8.25508 7.73968L8.28457 14.4065C8.28723 15.0134 8.71571 15.2604 9.24206 14.9564L14.957 11.6569C15.4828 11.3535 15.4839 10.8592 14.9592 10.5528Z" fill="white"/>
</g>
<defs>
<clipPath id="clip0">
<rect width="22" height="22" fill="white"/>
</clipPath>
</defs>
</svg>
