<svg id="Layer_1" xmlns="http://www.w3.org/2000/svg" viewBox="0 0 256.5 46.3"><style>.st0{fill:#20252d}</style><path class="st0" d="M30.3 12.9c-.6-.9-1.3-1.7-2.2-2.4-.9-.7-1.9-1.2-2.9-1.6-1.1-.4-2.2-.6-3.4-.6-2.2 0-4.1.4-5.6 1.3-1.5.8-2.8 2-3.7 3.4-1 1.4-1.6 3-2.1 4.9-.4 1.8-.7 3.7-.7 5.6s.2 3.7.7 5.4c.4 1.8 1.1 3.3 2.1 4.7 1 1.4 2.2 2.5 3.7 3.4 1.5.8 3.4 1.3 5.6 1.3 3 0 5.3-.9 7-2.7 1.7-1.8 2.7-4.2 3.1-7.2h9.4c-.2 2.8-.9 5.3-1.9 7.5S37 40 35.3 41.6c-1.7 1.6-3.7 2.8-6 3.6s-4.8 1.2-7.5 1.2c-3.4 0-6.4-.6-9.1-1.8s-5-2.8-6.9-4.9c-1.9-2.1-3.3-4.5-4.3-7.3S0 26.6 0 23.4c0-3.3.5-6.4 1.5-9.2s2.4-5.3 4.3-7.4 4.1-3.8 6.9-5C15.3.6 18.4 0 21.8 0c2.4 0 4.7.4 6.9 1.1s4.1 1.7 5.8 3.1c1.7 1.3 3.1 3 4.2 5s1.8 4.3 2.1 6.8h-9.4c-.1-1.2-.5-2.2-1.1-3.1zM42.7 22.4c.8-2.1 1.9-3.9 3.3-5.3 1.4-1.5 3.2-2.6 5.2-3.4 2-.8 4.3-1.2 6.8-1.2s4.8.4 6.9 1.2c2 .8 3.8 1.9 5.2 3.4 1.4 1.5 2.6 3.2 3.3 5.3.8 2.1 1.2 4.4 1.2 7s-.4 4.9-1.2 6.9c-.8 2.1-1.9 3.8-3.3 5.3s-3.2 2.6-5.2 3.4c-2 .8-4.3 1.2-6.9 1.2-2.5 0-4.8-.4-6.8-1.2s-3.8-1.9-5.2-3.4-2.6-3.2-3.3-5.3c-.8-2.1-1.2-4.4-1.2-6.9 0-2.6.4-5 1.2-7zm8 10.7c.2 1.2.7 2.3 1.3 3.3s1.4 1.7 2.4 2.3 2.2.9 3.7.9 2.7-.3 3.8-.9c1-.6 1.8-1.4 2.4-2.3.6-1 1-2.1 1.3-3.3.2-1.2.4-2.5.4-3.8s-.1-2.5-.4-3.8c-.2-1.2-.7-2.3-1.3-3.3-.6-1-1.4-1.7-2.4-2.3-1-.6-2.3-.9-3.8-.9s-2.7.3-3.7.9-1.8 1.4-2.4 2.3c-.6 1-1 2-1.3 3.3-.2 1.2-.4 2.5-.4 3.8 0 1.3.1 2.6.4 3.8zM76 8.3V1.1h8.8v7.3H76v-.1zm8.8 5v32.1H76V13.3h8.8zM95.9 13.3v4.5h.2c1.1-1.9 2.6-3.2 4.3-4.1 1.8-.8 3.6-1.3 5.5-1.3 2.4 0 4.3.3 5.8 1 1.5.6 2.7 1.5 3.6 2.7.9 1.1 1.5 2.5 1.8 4.2.4 1.6.5 3.4.5 5.4v19.7h-8.8V27.2c0-2.6-.4-4.6-1.2-5.9-.8-1.3-2.3-2-4.4-2-2.4 0-4.1.7-5.2 2.1s-1.6 3.8-1.6 7v16.8h-8.8V13.3h8.3zM138.8 1.1c2.9 0 5.5.5 8 1.4s4.6 2.3 6.4 4.1c1.8 1.8 3.2 4.1 4.2 6.8s1.5 5.9 1.5 9.6c0 3.2-.4 6.2-1.2 8.9s-2.1 5.1-3.8 7.1-3.8 3.5-6.3 4.7c-2.5 1.1-5.4 1.7-8.8 1.7h-19.1V1.1h19.1zm-.7 36c1.4 0 2.8-.2 4.1-.7s2.5-1.2 3.5-2.3 1.9-2.4 2.5-4.1.9-3.8.9-6.2c0-2.2-.2-4.2-.7-6-.4-1.8-1.1-3.3-2.1-4.6s-2.3-2.3-3.9-2.9-3.6-1-6-1h-6.9v27.9l8.6-.1zM171 37.6c1.3 1.3 3.2 1.9 5.7 1.9 1.8 0 3.3-.4 4.6-1.3 1.3-.9 2.1-1.8 2.4-2.8h7.8c-1.2 3.8-3.1 6.6-5.7 8.2-2.6 1.7-5.7 2.5-9.3 2.5-2.5 0-4.8-.4-6.8-1.2s-3.7-2-5.1-3.4c-1.4-1.5-2.5-3.3-3.3-5.3-.8-2.1-1.1-4.3-1.1-6.8 0-2.4.4-4.6 1.2-6.7s1.9-3.9 3.3-5.4c1.4-1.5 3.2-2.7 5.2-3.6 2-.9 4.2-1.3 6.7-1.3 2.7 0 5.1.5 7.1 1.6s3.7 2.5 5 4.2c1.3 1.8 2.2 3.8 2.8 6.1s.8 4.6.6 7.1H169c-.1 2.9.7 5 2 6.2zm9.9-16.8c-1.1-1.2-2.7-1.7-4.8-1.7-1.4 0-2.6.2-3.5.7s-1.7 1.1-2.2 1.8c-.6.7-1 1.4-1.2 2.2-.2.8-.4 1.5-.4 2.1h14.3c-.4-2.3-1.1-4-2.2-5.1zM201.4 37.4c.4.7.9 1.2 1.5 1.7s1.3.8 2.1 1 1.6.3 2.5.3c.6 0 1.3-.1 2-.2s1.3-.4 1.9-.7c.6-.3 1-.7 1.4-1.2s.6-1.2.6-2c0-1.3-.9-2.3-2.6-3s-4.2-1.3-7.3-2c-1.3-.3-2.5-.6-3.8-1-1.2-.4-2.3-.9-3.3-1.6-1-.6-1.7-1.4-2.3-2.4s-.9-2.2-.9-3.6c0-2.1.4-3.8 1.2-5.1.8-1.3 1.9-2.4 3.2-3.1 1.3-.8 2.8-1.3 4.5-1.6s3.3-.5 5.1-.5c1.7 0 3.4.2 5.1.5 1.6.3 3.1.9 4.4 1.7 1.3.8 2.3 1.8 3.2 3.1.8 1.3 1.4 2.9 1.5 4.9H213c-.1-1.7-.8-2.8-1.9-3.4-1.2-.6-2.5-.9-4.1-.9-.5 0-1 0-1.6.1s-1.1.2-1.6.4-.9.5-1.2.9-.5.9-.5 1.6c0 .8.3 1.4.9 1.9.6.5 1.3.9 2.3 1.2.9.3 2 .6 3.2.8 1.2.2 2.4.5 3.7.8s2.5.6 3.8 1.1c1.2.4 2.3 1 3.3 1.6 1 .7 1.7 1.5 2.3 2.5s.9 2.3.9 3.8c0 2.1-.4 3.9-1.3 5.3-.8 1.4-2 2.6-3.3 3.4s-2.9 1.5-4.7 1.8-3.5.5-5.4.5-3.7-.2-5.5-.6c-1.8-.4-3.4-1-4.7-1.9-1.4-.9-2.5-2-3.4-3.4s-1.4-3.2-1.5-5.4h8.4c-.3 1.2-.1 2 .3 2.7zM233.7 1.1v23.7l11.1-11.5h10.4L243.1 25l13.5 20.3h-10.7L237.1 31l-3.4 3.3v11h-8.8V1.1h8.8z"/></svg>