<svg xmlns="http://www.w3.org/2000/svg" viewBox="0 0 1124.1 345"><path d="M856.6 342h-56.2c-.7-4.5-.4-5.1 3.5-6.2 5.8-1.7 7.5-3.4 7.6-9.4.1-21.6.2-43.2-.1-64.9-.1-6.8-2.3-13.4-9.2-15.9-7.7-2.8-15.4-1.4-21.3 4.6-5 5.1-8.2 11.1-8 18.8.6 17.9.6 35.8.9 53.7 0 1.5.3 3 .4 4.5.2 4.9 2.4 7.8 7.6 8.5 3.7.5 4.1 1.5 3.3 6.2h-52c-.5-3.1.9-5.2 3.6-5.9 7.1-1.8 9-6.4 8.9-13.3-.3-19-.1-37.9-.2-56.9-.1-2.9-.5-5.7-1.3-8.5-3.3-13.6-14.2-15.3-24-11-9.5 4.2-13.9 12.6-14 22.6-.1 19.5.7 39 .9 58.5 0 3.6 1.9 5.7 5 7 1.4.6 2.8 1.1 4.1 1.7 2.4.8 3.8 3.3 3.1 5.8h-56.3c-1-4.9-.6-5.5 4.2-5.9 8.4-.6 11.1-2.7 11.4-11 .6-20.2.7-40.5.8-60.7 0-4.9-.4-9.8-.8-14.7-.5-5.9-3.7-8.9-9.5-9.6-1.3-.1-2.5-.3-3.8-.3-2.1-.1-2.7-1.3-2.7-3.2s1-2.7 2.9-2.9c11.5-1.4 23-2.9 34.5-4.5 2.7-.4 4.3.2 4.5 3.2.2 4.8.4 9.6.7 14.6.7-.5 1.4-.9 1.9-1.4 1.5-1.4 3.1-2.6 4.4-4.1 10.5-11.4 23.9-13.1 38.2-11 6.3.9 11 5 14.7 10 1.9 2.7 3.6 5.5 5.6 8.4.8-.7 1.5-1.2 2.2-1.9 2.4-2.2 4.8-4.5 7.2-6.8 10.4-9.9 22.9-12 36.5-9.9 10.6 1.7 20.7 12.9 22 25 .9 8.9 1.1 17.8 1.3 26.8.3 13.4.4 26.8.7 40.2.2 8.5 3.2 11.9 11.5 13.4 4.3 1 4.7 1.4 5.3 6.4zM.3 342c-.8-4.8-.4-5.4 3.8-6.2 2.2-.4 4.4-.8 6.5-1.5 6.3-1.8 8.3-4 8.6-10.6.5-10.3 1-20.6 1.1-31 0-27-.2-53.9-.5-80.9-.1-4-.6-8-1.4-12-.4-3.9-3.5-6.9-7.4-7.3-2.2-.4-4.4-.8-6.6-1.3-4.6-1-4.9-1.6-4.3-6.6h101.4v32.9l-8.1.8c-.5-2.8-.8-5.4-1.3-7.9-1.5-7.8-5.6-12.1-13.3-12.8-9.4-.8-18.9-.9-28.5-1.3V254c10.2 1.5 20.2 2.4 30.4.1 4.3-.9 7.1-3.3 8.1-7.6.4-1.9 1-3.7 1.3-5.6 1.2-6.1 1.7-6.5 8.4-5.6.1.9.2 1.8.2 2.7 0 14.7 0 29.4-.2 44.1 0 1.4.6 3.4-1.8 3.2-2.2-.1-5 .9-5.9-2.2-.5-1.8-.9-3.7-1.2-5.6-1.1-5.6-4.1-9.4-10-10-9.6-.9-19.3-1.5-29.2-2.2-.1 1.6-.2 2.6-.2 3.6.2 16.2.4 32.4.7 48.6.2 11.1 2.4 13.3 13.5 13 6.3-.1 12.6 0 18.8-.9 10.9-1.5 17.1-8.2 18.8-19.1 1-6.5 1-6.4 7.7-6.2 2.6.1 3.2.9 2.8 3.5-1.5 10.2-2.8 20.5-4.1 30.7-.3 2.6-1.3 3.8-3.9 3.8-13.3.1-26.6.3-39.9.3-19.8-.1-39.6-.4-59.4-.5-1.8.1-3.4 0-4.9-.1zM423 229.3l1.4 17.8c.6-.4 1.2-.8 1.8-1.4 1.2-1 2.4-2.2 3.5-3.3 9.7-11.2 22.3-13.6 36.2-12.3 9.4.9 16.1 6.1 21.2 13.7 4.1 6.1 5.2 12.9 5.4 20.1.4 20.4.8 40.9 1.3 61.3.1 5.8 2.3 8.5 7.9 10 1.5.4 3.1.8 4.7 1.1 3.1.5 4.4 2.3 3.9 5.6h-56.4c-1-4-.6-5.3 3.1-6.1 6.1-1.3 8.3-5.2 8.6-10.9 1.4-20.4 2-40.8-.2-61.2-.3-2-.7-4-1.2-5.9-2.7-11.2-8.8-15-21.4-12.7-8.8 1.6-16.5 10.4-16.7 19.9-.5 20.1-.2 40.2-.1 60.4 0 5 2.4 8.6 7.6 10.2 4 1.2 4.4 2.1 5.1 5.8-19 1.2-37.8.7-56.5.8-1.1-5-.6-5.7 4-6.1 8.5-.6 11.4-3.2 11.5-11.6.3-23.5.3-47.1.5-70.6-.1-1.4-.2-2.8-.4-4.1-.6-5.5-3.8-8.9-9.4-9.6-1.5-.2-3-.3-4.5-.4-1.3 0-2.3-.9-2.3-2.2 0-.3 0-.6.2-.9.3-1.1 1.4-2.6 2.2-2.7 12.9-1.7 25.7-3.2 39-4.7zM563.8 0v59.6c1.6-1.5 2.6-2.3 3.5-3.2 9.4-8.8 20.5-12.5 33.4-10.8 12.4 1.7 22.1 12.9 22.7 26.9.4 9.6.5 19.2.8 28.7s.6 19.4 1.2 29c.5 8.3 2.3 9.9 10.6 11.2 4 .6 4.4 1.1 3.7 5.4h-50.5c-.9-3.9-.4-5.1 3.2-6 5.4-1.2 7.5-4.5 7.5-9.8.1-16 .5-31.9.4-47.9-.2-4-.8-8.1-1.7-12-2-9.9-6.3-14.5-19.8-11.7-7.8 1.8-13.5 8.4-14 16.4-.6 13.9-.6 27.9-.8 41.8 0 4.9.1 9.8.4 14.7.2 4.5 2.9 7.1 7 8.4.8.2 2 .3 2.3.9.7 1.2 1.2 2.6 1.3 4 0 .4-1.7 1.4-2.5 1.4-15.1-.1-30.2-.2-45.4-.5-1 0-2-.8-3-1.2.7-1 1.1-2.5 2-2.9 1.9-.9 4-1.4 6.1-1.7 3.1-.4 5-2 5.4-5 .7-3.8 1.1-7.6 1.3-11.4.3-32.5.4-65 .5-97.4 0-2.3-.1-4.7-.4-7-.7-5.5-3.4-8.4-8.8-9.5-1.4-.2-2.7-.6-3.9-1.2-1-.7-1.6-2-2.4-3.1 1-.5 1.9-1.4 2.9-1.5 4.8-.6 9.8-.9 14.6-1.5 6.4-.9 12.8-2 19.2-2.9 1.1 0 2-.1 3.2-.2zM356.7 287.9c-.2 12.9-3.5 24.9-11.1 35.4-12.3 17.1-29.8 22.9-49.8 21.2-27.8-2.4-45.7-21.7-47.8-49.6-.9-12.4 0-24.5 5.1-36 7.9-17.9 22.1-27.2 41.3-29.3 10.4-1.1 20.5 0 30 4.2 18.6 8.2 27.9 23.4 31.2 42.9.7 3.8.8 7.5 1.1 11.2zm-81.5-5.6c1.1 8.7 1.8 16.8 3.2 24.7 1.5 8.6 4.6 16.6 11 23 9.8 9.6 24.9 8 32.1-3.7 2-3.4 3.6-7 4.5-10.8 3.3-12.6 3.2-25.5 1.6-38.4-1.3-10-4.1-19.6-10.4-27.8-5.8-7.4-13.1-12.3-22.9-10.2s-14.9 9.7-16.6 19c-1.4 8.2-1.7 16.5-2.5 24.2zm253.2 6.3c.2-13.6 2.3-25.6 9.1-36.3 8.7-13.7 21.4-21 37.4-22.5 10.3-.9 20.5-.2 30.1 3.9 18.1 7.8 27.6 22.3 31.3 41.1 2.6 13 1.2 26.6-4.2 38.8-8 18.5-22.8 28.3-42.6 30.7-11.6 1.4-22.8.1-33.2-5.4-17.4-9.1-25.4-24.4-27.5-43.3-.3-2.7-.3-5.4-.4-7zm81 4.1l.9-.1c-1.4-8.9-2.2-17.9-4.3-26.7-2.3-9.8-7-18.6-16-24.1-9.1-5.8-21.1-3.2-27 5.9-.1.1-.1.2-.2.3-2.1 3.4-3.6 7.2-4.4 11.2-2.9 13.7-2.2 27.5-.4 41.3 1.2 9 3.4 17.8 8.6 25.5 5.8 8.6 14.6 11.9 24.5 9.4 7.9-2 11.7-8.2 14.3-15.1 3.4-9 4-18.3 4-27.6zM447.5 14.2c-9.5 1-18.6 1.9-27.8 3.1-6 .8-9.6 4.3-10 10.5 0 .3-.1.6-.2.9-1.1 7.6-1.7 8.1-9.8 7.3.2-2.3.5-4.6.6-6.9.3-7.3.6-14.7.7-22 0-1.8.4-2.7 2.5-2.7 38.6.1 77.1.1 115.7.1.4 0 .9.1 1.3.2V36c-.6.1-1 .2-1.4.2-6.3.3-6.3.3-6.8-5.9-.6-8.4-3.9-12.3-12.1-13.4s-16.4-1.7-24.8-2.6c-.1 1.5-.2 2.4-.2 3.4 0 31.6 0 63.3.1 94.9 0 5 .3 10 .5 15 .4 8.3 4.4 12.4 12.7 13.1 5 .4 5.4 1 4.4 6.4h-63c-.5-4.7.1-5.5 4.3-6.2.8-.1 1.7-.4 2.5-.5 8.5-1.7 9.9-3.2 10.2-11.8.4-11.5.6-23 .7-34.5.1-25.3 0-50.7 0-76.1.1-1.1 0-2.1-.1-3.8zm292.7 77.9H736c-18.3 0-36.6.1-55-.1-3.1 0-3.7 1-3.7 3.8.2 9.6 2.5 19.1 6.9 27.6 6.2 11.8 17.7 16.5 30.5 12.5 6.1-2 11.6-5.4 16.2-9.8 1.5-1.4 3.1-2.9 4.7-4.3 3 3.6 3.3 6.4.7 9.4-14.6 16.9-34.6 22.4-54.4 15.2-13.2-4.8-22-14.5-26.5-27.7-5.5-16.3-4.1-32.4 3.1-47.9 8.1-17.3 24-26 43.1-25.6 24.7.5 35.8 20 37.5 36.7.5 3.2.8 6.3 1.1 10.2zM717 80.8c-.4-7.7-3.1-13.6-6.3-19.5-5.1-9.4-22.3-12.3-28.6.9-2 4.3-3.2 8.9-4.6 13.5-.6 2.5-1 5-1.2 7.6l40.7-2.5zm312 175.9c-2.8.2-4.8.4-6.8.5-4.8.3-5.2 0-6.9-4.7-.4-1.1-.9-2.2-1.2-3.3-3.3-11-11.1-12.9-20.9-10.2-10.8 3-13.6 15.1-5.4 22.9 3.4 3 7 5.9 10.7 8.6 6.5 5 13.1 9.9 19.6 14.8 11.6 8.8 15.3 20.5 11.5 34.2-3.7 13.2-13.3 20.7-26.3 23.9-13.2 3.3-25.7-.2-38-4.7-1.2-.4-2.2-2.6-2.3-4-.4-4.9-.3-9.8-.3-14.7 0-1.9-.3-4.3 2.4-5 3-.7 6.1-1.6 8.7 1.1.8 1 1.5 2 2.1 3.2.8 1.5 1.5 3.1 2.1 4.6 4.9 12.5 13.8 12.3 25.4 8.3 6.1-2.1 8.4-10 5.2-15.6-2.1-3.6-4.8-6.8-7.9-9.5-5.3-4.5-11.2-8.4-16.8-12.7-3.8-2.8-7.5-5.9-11-9.2-11.3-11.2-12.4-32.1-2.5-44.6 5.7-7.2 13.5-10.2 22.3-11 10.9-1 21.8.3 32.1 3.9 1.4.5 3.2 2.3 3.4 3.6.5 6.6.6 13 .8 19.6zm64.5-52.4v29.4h27.5l-2.8 12.8h-24.6c-.1 1.3-.2 2.3-.2 3.3.2 20.2.5 40.5.7 60.7.1 2.9.3 5.7.7 8.6 1.1 8.8 7.6 14 16.8 13.3 4-.3 8-.9 12-1.4 1.2 4.3.2 6.6-3.5 8.4-9.2 4.4-19.1 5.4-29 4.7-11-.8-21.2-11-22-22.4-1.1-15.7-1.4-31.5-1.9-47.2-.2-8-.2-16-.2-24v-3.8h-13.3c0-3.5-.2-6.6.1-9.7.1-.8 1.7-1.9 2.7-1.9 9.5-.7 16.4-5.2 20.2-13.9 2.1-4.7 3.4-9.8 5.2-14.7.3-.9 1.3-2 2.1-2.1 2.9-.2 6-.1 9.5-.1zM221.4 317.8l.6.6c4 8.2 3.8 8.3-3 14.4-22.4 19.9-52.3 12.8-66-3.4-7.4-8.8-11.1-19-12.5-30.2-1.7-13.4-1-26.6 4.1-39.3 7.8-19.1 22.3-29.2 43-30.2 11-.6 21.6 1.2 32.2 4 1.1.5 1.8 1.4 2 2.6.1 7.2-.1 14.5-.2 21.7 0 2.4-1 3.4-3.4 3.6-6.9.6-6 2.3-8.3-5.5-.9-3.4-2.1-6.7-3.5-9.9-2.2-4.9-6.3-7.3-11.6-7.8-10.9-1.1-19.2 3.8-23.3 14-4.5 11.1-4.7 22.9-4.2 34.6.4 9.6 1.6 19.1 5.5 28 5.6 12.9 15.7 18.6 28.2 15.8 6.1-1.5 11.8-4.6 16.3-9 1.4-1.4 2.7-2.6 4.1-4zm698.3-89.2c0 10.9-.1 21.4 0 32 .3 20.4.8 40.9 1.2 61.3 0 1.2.2 2.3.4 3.5 1.5 8.3 2.6 9.4 10.9 10.6 2.8.4 5.3 1 5 5.6-20.1 1-40.4.9-60.6-.1-.4-3.3 1.2-4.3 3.1-4.9 1.8-.5 3.7-.9 5.6-1.1 3.9-.5 6.2-2.9 6.7-6.6.8-6.9 1.8-13.8 1.8-20.6-.1-18.8-.6-37.7-1.2-56.5-.2-7.8-3.2-10.7-11-11.7-1.1 0-2.1-.3-3-.9-.9-1.1-1.7-2.3-2.4-3.6 1-.5 2-1.4 3.2-1.5 11-1.5 21.9-2.8 32.9-4.2 2.2-.4 4.5-.9 7.4-1.3zm-14-51.2c8.4.1 15.2 7 15.1 15.4.1 8.2-6.4 15-14.6 15.1h-.3c-8.2-.1-14.8-6.6-15-14.8 0-8.5 6.8-15.8 14.8-15.7z" fill="#5f5f5f"/></svg>