<svg preserveAspectRatio="xMinYMin meet" viewBox="0 0 144 72" xmlns="http://www.w3.org/2000/svg"><path fill="#E3120B" d="M0 0h144v72H0z"/><path fill="#FFF" d="M66.798 19.012c-.064-2.021-.49-2.298-3.553-2.298h-.658v11.637c0 1.595.404 2.02 1.978 2.063l.043.553c-1.49-.022-2.617-.022-3.361-.022-.766 0-1.936 0-3.468.022l.043-.553c1.574-.043 1.979-.468 1.979-2.063V16.714h-.767c-3.148 0-3.574.276-3.616 2.298l-.787-.043.083-3.297c2.894.022 5.042.043 6.489.043 1.384 0 3.489-.02 6.276-.043l.085 3.297-.766.043zM77.6 30.882c-.596 0-1.468.043-2.64.085l.043-.51c1.129-.171 1.234-.384 1.255-2.277v-3.234c0-2.68-.468-3.574-1.872-3.574-.788 0-1.596.489-1.936 1.234-.127.255-.212.531-.299.809-.02.105-.02.191-.02.233v4.532c0 1.894.127 2.106 1.256 2.277l.042.51c-1.191-.043-2.063-.085-2.659-.085-.617 0-1.553.043-2.766.085l.042-.51c1.425 0 1.617-.277 1.639-2.277v-9.722c-.022-2-.213-2.276-1.639-2.276l-.042-.512c1.936-.105 2.383-.169 4.127-.49v6.595c1.127-1.254 2.083-1.745 3.341-1.745 2.084 0 3.231 1.319 3.231 3.744v4.404c.022 2 .214 2.278 1.64 2.278l.042.509c-1.233-.04-2.169-.083-2.785-.083zm6.782-5.914c.084 3.233 1.255 5.064 3.213 5.064 1.169 0 2.147-.532 3.192-1.745l.319.595c-1.32 1.638-2.618 2.32-4.318 2.32-2.958 0-4.958-2.17-4.958-5.382 0-3.425 2.063-5.787 5.042-5.787 1.637 0 2.786.596 3.573 1.894.533.894.681 1.51.704 3.041h-6.767zm2.084-4.191c-1.276 0-1.934 1.063-2.148 3.381 1.956-.042 2.553-.084 4.532-.296-.255-2.064-1.043-3.085-2.384-3.085zM18.827 51.161c2.664 0 3.444-.59 3.68-2.878l.944.047-.543 3.963-1.818.023-5.781-.047-3.917.023.072-.612c1.722-.047 2.17-.52 2.17-2.29V38.232c0-1.768-.448-2.24-2.17-2.287l-.072-.613 3.658.047 5.757-.071 1.51.024.094 3.469-.944.069c-.164-2.147-.567-2.381-3.963-2.381h-.52l-.235.022v6.417c.448 0 .802.024 1.015.024.377.022.731.047 1.085.047 1.886 0 2.312-.401 2.336-2.194h.802c-.07 1.439-.07 2.17-.07 2.878 0 .564 0 1.368.024 2.43h-.755c-.095-1.699-.472-2.029-2.288-2.051l-1.275-.026-.896.05v4.977c0 2.004.117 2.098 2.1 2.098zM32.01 40.994c-1.77 0-2.69 1.581-2.69 4.624 0 3.585 1.109 5.592 3.114 5.592 1.039 0 1.911-.45 2.832-1.44l.354.848c-1.346 1.393-2.455 1.935-4.012 1.935-3.114 0-5.144-2.43-5.144-6.133 0-3.822 2.147-6.251 5.545-6.251.895 0 1.815.164 3.23.542l.048 2.831-1.062.069c-.423-2.123-.847-2.617-2.215-2.617zm11.886 11.559c-3.373 0-5.638-2.265-5.757-5.732v-.354c0-3.986 2.148-6.298 5.828-6.298 3.421 0 5.829 2.547 5.829 6.205-.002 3.703-2.338 6.179-5.9 6.179zm-.283-11.49c-1.723 0-2.597 1.487-2.597 4.436 0 .354 0 .708.048 1.062.235 3.374 1.344 5.189 3.161 5.189 1.699 0 2.713-1.768 2.713-4.74.001-3.492-1.391-5.947-3.325-5.947zm16.723 11.23l.047-.566c1.249-.188 1.392-.425 1.392-2.525l.023-1.487v-2.098c0-2.974-.543-3.965-2.077-3.965-.918 0-1.697.497-2.17 1.368-.189.354-.354.921-.354 1.157v5.025c.025 2.1.142 2.336 1.394 2.525l.07.566c-1.296-.046-4.639-.047-6.04 0l.047-.566c1.581 0 1.816-.306 1.816-2.525V43.73c0-2.195-.235-2.501-1.816-2.523l-.047-.543c2.1-.117 2.571-.189 4.364-.567l.119 2.124c1.344-1.51 2.381-2.051 3.821-2.051 2.288 0 3.585 1.485 3.585 4.152v4.883c-.023.188-.023.377-.023.566 0 1.509.4 1.958 1.839 1.958l.048.566c-1.416-.049-4.783-.047-6.038-.002zm13.871.26c-3.373 0-5.639-2.265-5.756-5.732v-.354c0-3.986 2.146-6.298 5.827-6.298 3.42 0 5.826 2.547 5.826 6.205-.001 3.703-2.335 6.179-5.897 6.179zm-.283-11.49c-1.722 0-2.595 1.487-2.595 4.436 0 .354 0 .708.046 1.062.236 3.374 1.344 5.189 3.163 5.189 1.699 0 2.713-1.768 2.713-4.74-.001-3.492-1.392-5.947-3.327-5.947zm23.823 11.23l.048-.566c1.25-.188 1.368-.425 1.393-2.525v-3.585c0-2.927-.519-3.965-1.983-3.965-.872 0-1.77.567-2.146 1.368-.117.284-.236.567-.308.898-.022.116-.047.212-.047.259v5.025c0 2.1.141 2.336 1.393 2.525l.047.566a112.086 112.086 0 0 0-5.592 0l.048-.566c1.25-.188 1.368-.425 1.391-2.525v-3.585c0-2.927-.517-3.965-1.981-3.965-.897 0-1.699.521-2.147 1.368-.188.377-.354.921-.354 1.157v5.025c.022 2.1.142 2.336 1.392 2.525l.049.566c-1.27-.046-4.612-.047-6.017 0l.047-.566c1.581 0 1.817-.306 1.817-2.525V43.73c0-2.195-.236-2.501-1.817-2.523l-.047-.543c2.1-.117 2.572-.189 4.364-.567l.118 2.123c1.344-1.487 2.382-2.05 3.773-2.05 1.605 0 2.55.66 3.257 2.241 1.438-1.651 2.501-2.241 3.939-2.241 2.242 0 3.516 1.508 3.516 4.152v4.883c0 .188-.023.377-.023.566 0 1.509.425 1.958 1.84 1.958l.048.566a125.784 125.784 0 0 0-6.018-.002zm11.484-.094c-.707 0-1.768.047-3.208.094l.048-.566c1.582 0 1.817-.306 1.817-2.524l.023-1.487v-2.477l-.023-1.511c0-2.193-.235-2.5-1.817-2.523l-.048-.542c2.171-.143 2.666-.212 4.577-.566v7.62l.023 1.487c0 2.218.212 2.524 1.816 2.524l.049.566c-1.463-.048-2.524-.095-3.257-.095zm-.095-14.437c-.895 0-1.581-.684-1.581-1.605 0-.897.708-1.605 1.581-1.605.874 0 1.581.731 1.581 1.605 0 .896-.683 1.605-1.581 1.605zm10.095 3.232c-1.062 0-1.818.611-1.818 1.487 0 .825.377 1.32 1.603 2.098 1.11.731 1.984 1.393 2.574 1.912.66.636 1.038 1.44 1.038 2.357 0 2.101-1.77 3.705-4.035 3.705-.872 0-1.699-.189-3.208-.684l-.095-2.408 1.203-.047c.542 1.818.897 2.171 2.148 2.171 1.084 0 1.792-.567 1.792-1.416 0-.803-.496-1.416-1.982-2.432-.754-.518-1.273-.871-1.557-1.083-.614-.473-1.061-1.037-1.297-1.675-.143-.354-.212-.777-.212-1.273 0-2.147 1.461-3.538 3.68-3.538.826 0 1.296.07 3.207.518l.049 2.382-1.204.049c-.282-1.582-.777-2.123-1.886-2.123zm12.079 10.332c.377 0 .73-.048 1.296-.213v.685c-.802.448-1.91.707-3.042.707-1.039 0-2.029-.588-2.454-1.461-.353-.731-.471-1.463-.471-3.066v-6.04h-1.509V40.85c1.864-.141 2.594-.943 3.137-3.397h1.062v3.186h2.971l-.33 1.299h-2.641v5.801c0 2.904.376 3.587 1.981 3.587z"/></svg>