<?xml version="1.0" encoding="utf-8"?>
<!-- Generator: Adobe Illustrator 21.0.2, SVG Export Plug-In . SVG Version: 6.00 Build 0)  -->
<svg version="1.1" id="Layer_1" xmlns="http://www.w3.org/2000/svg" xmlns:xlink="http://www.w3.org/1999/xlink" x="0px" y="0px"
	 viewBox="0 0 1227.6 351.8" style="enable-background:new 0 0 1227.6 351.8;" xml:space="preserve">
<style type="text/css">
	.st0{fill:#093356;}
	.st1{fill:#FFFFFF;}
</style>
<g>
	<path class="st0" d="M1227.6,307.5c-1.5,0.3-2.8,1-4.1,1.6c-7.3,3.2-14.5,6.4-21.7,9.6c-0.5,0.2-1,0.4-1.5,0.6
		c-0.4,0.1-0.6-0.1-0.7-0.4c-0.1-0.7-0.1-1.4-0.1-2.1c0-16.1,0-32.2,0-48.3c0-0.7,0-1.4,0-2.1c0-0.6-0.3-0.9-0.9-0.8
		c-1.6,0.2-3.1,0.4-4.7,0.5c-8.4,1-16.8,1.2-25.2,0.3c-7.5-0.8-14.8-2.5-21.9-5.3c-7.6-3-14.2-7.6-19.6-13.9
		c-5.8-6.7-9.6-14.5-12.1-22.9c-2.8-9.6-3.6-19.4-3-29.4c0.5-8.6,2.4-16.9,5.9-24.8c5.3-11.8,13.7-20.5,25.4-26.1
		c5.8-2.8,12-4.6,18.4-5.7c3.7-0.7,7.5-1,11.2-1.3c9.3-0.7,18.7-0.4,28,0.2c3.7,0.2,7.4,0.4,11.1,0.6c4.5,0.2,8.9,0.4,13.4,0.7
		c0.7,0,1.4-0.1,2.1,0.4C1227.6,194.9,1227.6,251.2,1227.6,307.5z"/>
	<path class="st0" d="M539.7,226.7c0-1.2,0-2.2,0-3.1c0-40.7,0-81.4,0-122.1c0-3.9-0.4-3.4,3.4-3.4c6.7,0,13.4,0,20,0
		c0.6,0,1.1,0,1.7,0c1.2,0,1.3,0.2,1.3,1.4c0,0.5,0,1.1,0,1.7c0,53.1,0,106.2,0,159.4c0,3.4,0.3,3-3,3c-10.5,0-20.9,0-31.4,0
		c-2.7,0-2.1,0.3-3.5-2c-5.6-9.8-11.3-19.6-16.9-29.4c-6.6-11.6-13.3-23.2-19.9-34.7c-7.7-13.4-15.3-26.7-23-40.1
		c-4.3-7.5-8.6-15-12.9-22.5c-0.2-0.3-0.4-0.6-0.6-1c-0.6,0.1-0.4,0.6-0.5,1c0,0.7,0,1.4,0,2.1c0,37.8,0,75.6,0,113.4
		c0,3.7,0,7.4-0.1,11.1c0,0.4,0,0.8,0,1.2c0,0.5-0.3,0.9-0.9,0.9c-0.5,0-0.9,0-1.4,0c-7.2,0-14.3,0-21.5,0c-0.2,0-0.5,0-0.7,0
		c-1.5,0-1.6-0.1-1.6-1.6c0-0.5,0-1.1,0-1.7c0-53,0-105.9,0-158.9c0-3.8-0.5-3.3,3.2-3.3c10.1,0,20.3,0,30.4,0c0.6,0,1.3,0,1.9,0
		c0.7,0,1.2,0.3,1.5,0.9c1.4,2.5,2.8,4.9,4.3,7.3c9.8,16.9,19.6,33.9,29.3,50.8c9.1,15.8,18.2,31.6,27.3,47.3
		c4,6.9,7.9,13.7,11.9,20.6C538.5,225.6,538.7,226.2,539.7,226.7z"/>
	<path class="st0" d="M955.5,175.6c0,28.1,0,56.3,0,84.4c0,3.6,0.5,3-3.1,3.5c-5.5,0.9-11,1.6-16.6,2.2c-11,1.3-22.1,2.1-33.2,1.6
		c-9.7-0.5-19.2-2.5-28.1-6.5c-11.7-5.3-20.8-13.4-26.9-24.7c-3.5-6.6-5.7-13.6-6.8-21c-0.7-4.8-1-9.5-0.9-14.3
		c0.2-7.2,1.1-14.2,3.1-21.2c2.3-8.1,5.9-15.5,11.3-22.1c4.8-5.9,10.7-10.6,17.5-14.1c6.9-3.5,14.3-5.5,22.1-6.4
		c6.5-0.7,13-0.6,19.5-0.4c3.9,0.1,7.8,0.4,11.7,0.9c0.4,0,0.8,0.1,1.2,0.1c1.2,0.1,1.3,0,1.4-1.3c0-0.6,0-1.3,0-1.9
		c0-14.5,0-28.9,0-43.4c0-0.8,0-1.6,0.1-2.4c0-0.3,0.3-0.6,0.6-0.6c0.5,0,0.9,0,1.4,0c7.9,0,15.7,0,23.6,0c0.3,0,0.6,0,0.9,0
		c0.9,0.1,1,0.2,1.1,1.2c0,0.7,0,1.4,0,2.1C955.5,119.5,955.5,147.6,955.5,175.6z"/>
	<path class="st0" d="M700.2,218.3c0,14.1,0,28.1,0,42.2c0,0.8,0.3,1.6-0.2,2.3c-0.5,0.7-1.5,0.4-2.2,0.5c-1.9,0.3-3.9,0.5-5.8,0.7
		c-8.4,0.7-16.8,1.4-25.2,1.7c-8.5,0.3-17,0.4-25.5,0.3c-7.2,0-14.3-0.5-21.3-2c-6-1.3-11.8-3.3-16.9-6.9
		c-5.1-3.6-8.7-8.4-10.9-14.2c-1.7-4.4-2.5-8.9-2.9-13.5c-0.3-3.6-0.3-7.2,0.2-10.8c0.8-7.2,3.3-13.7,8.2-19.2
		c3.5-3.9,7.7-6.6,12.5-8.7c5.1-2.2,10.4-3.5,15.8-4.4c10.1-1.6,20.3-1.7,30.6-1.5c4.4,0.1,8.8,0.3,13.2,0.5c0.6,0,1.3,0,1.9,0
		c0.3,0,0.6-0.2,0.6-0.6c0-0.2,0.1-0.3,0.1-0.5c0-4.6-0.1-9.3-0.8-13.9c-0.2-1.4-0.7-2.7-1.3-4c-1.1-2.5-2.9-4.2-5.3-5.5
		c-2.6-1.3-5.3-2-8.1-2.3c-7.8-1-15.7-1.1-23.5-0.7c-6.4,0.3-12.8,1.2-19.2,2.1c-4.9,0.7-9.8,1.7-14.6,2.5c-0.4,0.1-0.8,0.1-1.2,0.2
		c-0.6,0.1-0.8-0.1-0.9-0.8c0-0.4,0-0.8,0-1.2c0-6,0-11.9,0-17.9c0-0.5,0-0.9,0.1-1.4c0-0.3,0.2-0.6,0.6-0.7
		c0.3-0.1,0.6-0.1,0.9-0.2c7.2-1.5,14.4-2.6,21.6-3.3c8.3-0.9,16.6-1.2,24.9-1.1c7.6,0.1,15.2,0.3,22.8,1.7
		c6.2,1.1,12.2,2.9,17.5,6.5c5,3.4,8.5,7.9,10.8,13.4c1.8,4.5,2.8,9.1,3.2,14c0.3,3.4,0.3,6.7,0.3,10.1
		C700.3,193.9,700.2,206.1,700.2,218.3z"/>
	<path class="st0" d="M1089,216.8c0,14.4,0,28.8,0,43.1c0,0.6,0,1.3,0,1.9c0,1.1-0.2,1.3-1.4,1.4c-4.5,0.4-8.9,0.9-13.4,1.3
		c-7.1,0.7-14.3,1-21.4,1.2c-6.9,0.2-13.8,0.2-20.7,0.3c-4.6,0-9.1-0.1-13.7-0.6c-6.4-0.7-12.8-1.8-18.8-4.2
		c-6.8-2.7-12.4-7-16.2-13.4c-2.1-3.5-3.5-7.4-4.3-11.4c-1.4-7.2-1.7-14.4-0.2-21.5c2.1-10.4,7.9-18,17.2-22.9
		c5.8-3,12-4.7,18.4-5.7c10.3-1.7,20.7-1.7,31-1.6c4.4,0.1,8.8,0.3,13.2,0.5c0.5,0,0.9,0,1.4,0c0.7,0,0.9-0.2,1-1c0-0.2,0-0.3,0-0.5
		c-0.1-4.1,0.1-8.2-0.5-12.2c-0.3-2.1-0.9-4.1-1.9-6c-1.1-2.1-2.8-3.6-4.9-4.6c-2.6-1.3-5.3-2-8.1-2.3c-7.8-1-15.7-1.1-23.5-0.7
		c-8.8,0.5-17.5,1.8-26.2,3.3c-2.6,0.5-5.3,0.9-7.9,1.4c-0.4,0.1-0.8,0.1-1.2,0.1c-0.4,0-0.6-0.2-0.6-0.5c-0.1-0.5-0.1-0.9-0.1-1.4
		c0-6,0-11.9,0-17.9c0-0.3,0-0.6,0-0.9c0.1-0.9,0.2-1.1,1-1.3c2.4-0.5,4.8-1,7.2-1.4c7.2-1.2,14.5-2.1,21.7-2.7
		c5.5-0.4,11-0.6,16.5-0.5c3.7,0,7.4,0.1,11.1,0.3c6.2,0.3,12.4,1,18.4,2.5c4.4,1.1,8.6,2.8,12.5,5.4c5,3.4,8.6,8,10.9,13.6
		c2,4.8,2.9,9.9,3.2,15.1c0.1,2.3,0.1,4.6,0.1,6.8C1089.1,192.1,1089,204.4,1089,216.8z"/>
	<path class="st0" d="M816.5,162c-0.6,0.2-1.2-0.1-1.8-0.2c-6.8-1.3-13.6-2.4-20.5-3.1c-8.4-0.9-16.8-1.2-25.2-0.1
		c-3.2,0.4-6.3,1.1-9.3,2.4c-1.9,0.8-3.7,1.8-5.1,3.3c-2.7,2.8-3.7,6.1-2.9,9.9c0.4,1.7,1.2,3.1,2.4,4.3c1.3,1.4,2.9,2.4,4.6,3.2
		c2.4,1.2,4.9,2.1,7.5,2.8c4.5,1.3,9,2.2,13.5,3.2c5.7,1.3,11.5,2.5,17.1,4.4c5.3,1.7,10.4,3.9,15,7.2c6.8,4.8,11.1,11.2,12.5,19.5
		c1.2,6.9,0.7,13.6-1.6,20.2c-2.5,7-6.9,12.4-12.9,16.7c-4.3,3-9,5.1-14,6.7c-5.7,1.8-11.6,2.8-17.6,3.3c-7.3,0.6-14.6,0.5-21.9,0.1
		c-6.4-0.4-12.7-1.2-19-2.1c-3.8-0.5-7.6-1.3-11.4-2c-1.1-0.2-1.3-0.4-1.3-1.4c0-7.1,0-14.1,0-21.2c0-0.1,0.1-0.3,0.2-0.6
		c0.8,0.1,1.6,0.2,2.4,0.4c7.4,1.6,14.7,3.1,22.2,4.2c9.3,1.3,18.6,1.7,27.9,0.2c4.2-0.7,8.3-1.7,12.1-3.8c1-0.5,1.9-1.2,2.7-1.8
		c5.9-4.6,5.7-12.9,0.8-17.6c-2.3-2.1-5-3.5-7.9-4.6c-4-1.5-8.1-2.5-12.3-3.3c-5.9-1.2-11.9-2.3-17.7-4.1
		c-5.6-1.8-11.2-3.8-16.2-6.9c-4.6-2.9-8.5-6.5-11.2-11.2c-1.7-3-2.8-6.3-3.4-9.7c-0.9-5.4-0.7-10.8,0.6-16.1
		c2.1-8.3,6.9-14.7,14.1-19.3c4.9-3.2,10.2-5.2,15.8-6.5c5.4-1.3,11-1.9,16.6-2.1c7.7-0.3,15.4,0.1,23.1,0.7
		c5.5,0.5,10.9,1.2,16.4,2c1.6,0.2,3.3,0.5,4.9,0.7c0.5,0.1,0.8,0.4,0.9,0.9c0,0.3,0,0.6,0,0.9c0,6.4,0,12.7,0,19.1
		C816.8,161.1,816.9,161.5,816.5,162z"/>
	<path class="st1" d="M1199.7,201.6c0,13.1,0,26.2,0,39.4c0,2.7,0.3,2.5-2.6,2.9c-6.7,0.9-13.5,1.2-20.2,0.9
		c-5.8-0.2-11.4-1.4-16.6-3.8c-6-2.8-10.6-7.2-13.9-13c-2.5-4.4-3.9-9.1-4.8-14c-1.4-7.9-1.5-15.8-0.3-23.7
		c0.6-3.8,1.6-7.5,3.1-11.1c2.7-6.3,6.8-11.3,12.6-14.8c4.2-2.6,8.8-4.1,13.6-5c4.4-0.8,8.9-1.1,13.4-1.1c4.8,0,9.6,0.3,14.4,0.6
		c0.2,0,0.5,0,0.7,0.1c0.5,0.1,0.7,0.4,0.7,0.8c0,0.7,0,1.4,0,2.1C1199.7,175.2,1199.7,188.4,1199.7,201.6z"/>
	<path class="st1" d="M927.8,202.8c0,13.1,0,26.2,0,39.4c0,3,0.3,2.8-3,3.1c-4.3,0.3-8.6,0.6-12.9,0.7c-6.3,0.2-12.6-0.5-18.5-2.8
		c-9.8-3.7-16.8-10.5-20.9-20.2c-2.5-5.8-3.5-11.9-3.7-18.1c-0.2-7,0.3-14,2.2-20.8c1.7-6.2,4.6-11.8,9.3-16.4
		c3.4-3.2,7.3-5.4,11.7-6.8c5.6-1.9,11.3-2.4,17.2-2.4c5.8,0,11.6,0.8,17.4,1.5c1,0.1,1.2,0.3,1.2,1.4c0,0.6,0,1.3,0,1.9
		C927.8,176.4,927.8,189.6,927.8,202.8z"/>
	<path class="st1" d="M674,225.5c0,5.7,0,11.5,0,17.2c0,0.5,0,0.9,0,1.4c0,1.5,0,1.5-1.6,1.7c-9.9,0.9-19.7,1.2-29.6,0.8
		c-4-0.2-8-0.8-11.8-1.8c-2.3-0.6-4.4-1.5-6.5-2.8c-4.3-2.6-6.9-6.3-8-11.1c-0.9-3.8-0.9-7.7,0-11.4c1.3-5.5,4.9-9.2,10.1-11.3
		c3.6-1.6,7.5-2.4,11.4-2.9c5.2-0.6,10.5-1,15.7-0.9c6.3,0.1,12.5,0.4,18.8,0.7c1.5,0.1,1.5,0.1,1.5,1.7
		C674,213,674,219.3,674,225.5z"/>
	<path class="st1" d="M1062.9,225.4c0,5.9,0,11.8,0,17.7c0,0.6,0,1.3,0,1.9c0,0.5-0.3,0.7-0.7,0.8c-1,0.1-2,0.2-3,0.3
		c-8.9,0.6-17.9,1-26.8,0.6c-4.2-0.2-8.4-0.7-12.5-1.9c-3.2-0.9-6.2-2.3-8.8-4.4c-3.2-2.7-5.1-6.2-5.8-10.2c-0.6-3.2-0.6-6.4,0-9.6
		c1.1-6.1,4.8-10.1,10.4-12.4c3.6-1.6,7.5-2.4,11.4-2.8c4.9-0.6,9.9-1,14.8-0.9c6.6,0.1,13.2,0.4,19.8,0.7c0.2,0,0.5,0,0.7,0.1
		c0.4,0.1,0.7,0.3,0.7,0.8c0,0.6,0,1.3,0,1.9C1062.9,213.6,1062.9,219.5,1062.9,225.4z"/>
	<path class="st0" d="M402.3,0c-32.5,0-65.1,0-97.6,0c0,0.2,0,0.3,0,0.5c0,0,0,0,0,0h0c-0.8,1-1,2.3-1.4,3.5c-0.3,1-1.1,1.9-1,3.1
		c-0.5,0.4-0.5,0.9-0.5,1.4c-0.4,0.2-0.4,0.6-0.4,1c-0.5,0.3-0.5,0.9-0.5,1.4c-0.5,0.4-0.5,0.9-0.5,1.4c-0.5,0.4-0.5,0.9-0.5,1.4
		c-0.4,0.2-0.4,0.6-0.4,1C299,15,299,15.5,299,16c-0.1,0.2-0.3,0.3-0.4,0.6c-2.4,6.7-4.9,13.4-7.3,20.1c-1.6,4.4-3.2,8.9-4.8,13.3
		c-2.1,5.7-4.2,11.3-6.3,17c-1.5,4.2-3,8.4-4.5,12.6c-2.3,6.3-4.6,12.7-6.9,19c-2.1,5.7-4.2,11.3-6.3,17c-2.1,5.8-4.2,11.6-6.3,17.5
		c-0.1,0.3-0.1,0.6-0.1,0.9c0,0,0,0,0,0c-0.5,0.4-0.5,0.9-0.5,1.4c-0.4,0.2-0.4,0.6-0.4,1l0,0c0,0.1-0.1,0.3,0,0.4
		c-0.3,0.2-0.4,0.6-0.4,1l0,0c-0.5,0.3-0.5,0.9-0.5,1.4c0,0,0,0,0,0c-0.1,0.1-0.2,0.2-0.3,0.4c-1.3,3.5-2.6,7.1-3.9,10.6
		c-1.5,4.1-3,8.3-4.5,12.4c-0.2,0.4-0.3,0.9-0.8,1.2c-0.3-0.6-0.6-1.3-0.9-1.9c-0.5-1.8-0.9-3.5-1.9-5.1c-0.5-2.3-1.4-4.5-2.4-6.6
		c-0.6-2.1-1.2-4.3-2.3-6.3c0,0,0,0,0,0c-0.2-1.5-0.9-2.8-1.4-4.2c-4.1-11.5-8.3-23-12.5-34.4c-0.7-2.1-1.4-4.2-2.3-6.1
		c-2.5-5.5-6.6-9-12.5-10.4c-2.2-0.5-4.4-0.3-6.6-0.3c0,0,0,0,0,0l0,0c-1.4,0-2.8-0.1-4.2-0.1c-29,0-57.9,0-86.9,0
		c-1.6,0-3.1,0-4.7,0c-1.2,0-2.3,0.2-3.4,0.9c-0.5,0.1-1.1,0-1.4,0.5c0,0,0,0,0,0c-0.3,0.1-0.6,0.1-0.9,0.3
		c-4.5,2.2-7.7,5.7-9.4,10.4c-1.2,3.3-2.3,6.7-3.5,10c-2.8,7.7-5.7,15.5-8.5,23.2c-2.6,7-5.1,14-7.7,21c-1.7,4.8-3.5,9.6-5.3,14.4
		c-1.7,4.6-3.3,9.3-5,14c-2.3,6.3-4.6,12.5-6.9,18.8c-1.3,3.7-2.7,7.4-4,11.1c-2.2,6-4.4,12.1-6.6,18.1c-1,2.7-1.9,5.3-2.9,8
		c-2.1,5.7-4.2,11.5-6.3,17.2c-1.5,4.1-2.9,8.1-4.4,12.2c-2.8,7.6-5.6,15.2-8.3,22.7c-0.5,1.5-1,3-1.4,4.5c0,0,0,0,0,0
		c0,0.1-0.1,0.3,0,0.4c-0.3,0.3-0.5,0.6-0.5,1c0,0,0,0,0,0c-0.1,0.2-0.3,0.4-0.4,0.6c-1.6,4.3-3.1,8.7-4.7,13c-0.7,2-1.4,4-2.1,6
		c-2.2,5.9-4.3,11.8-6.5,17.6c-1.8,5-3.7,10-5.5,15c-0.3,0.8-0.7,1.6-0.6,2.5c0,0,0,0,0,0c0,0.2,0,0.3,0,0.5c32.4,0,64.8,0,97.1,0
		c0-0.1,0-0.3,0-0.4c0.3-0.3,0.5-0.6,0.4-1c0,0,0,0,0,0c1-2.8,2.1-5.6,3.1-8.4c2.3-6.3,4.6-12.5,6.9-18.8c1.7-4.6,3.3-9.2,5-13.7
		c2.7-7.4,5.4-14.7,8.1-22.1c2.2-6,4.3-12,6.5-17.9c2.8-7.6,5.6-15.2,8.3-22.8c3.5-9.7,7.1-19.5,10.6-29.2
		c3.4-9.2,6.7-18.4,10.1-27.6c0.2-0.7,0.4-1.4,0.9-1.9c0,0,0,0,0,0c0.2,0.2,0.3,0.4,0.5,0.6c0.3,1.8,1.1,3.5,1.9,5.2l0,0
		c0.4,1.8,1.1,3.5,1.9,5.2c0,0,0,0,0,0c0.4,1.8,1,3.6,1.9,5.2c0,0,0,0,0,0c0.2,1.3,0.5,2.6,1.4,3.8c0,0,0,0,0,0
		c0.3,1.8,1,3.5,1.9,5.2c0,0,0,0,0,0c0.3,1.8,1.1,3.5,1.9,5.2c0.4,1.8,1.1,3.5,1.9,5.2c0.4,1.8,1,3.5,1.9,5.2
		c0.2,1.9,1.1,3.5,1.9,5.2c0.4,1.8,1.1,3.5,1.9,5.2c0,0,0,0,0,0c0.4,1.8,1,3.5,1.9,5.2c0,0,0,0,0,0c0.3,1.8,1,3.5,1.9,5.2
		c0,0,0,0,0,0c-0.1,1.1,0.6,1.9,0.9,2.9c1.2,3.5,3.6,6,6.5,8.1c3,2.1,6.4,2.9,10,3.1c2,0.1,3.9,0,5.9,0c30.1,0,60.2,0,90.3,0
		c0.6,0,1.3,0,1.9,0c0.4,0,0.8-0.1,1.1-0.4c0,0,0,0,0,0c1.2,0,2.3-0.3,3.4-0.7c1.7-0.6,3.4-1.3,4.6-2.6c2.2-1.3,3.7-3.3,5.1-5.5
		c0.7-1.1,1.2-2.4,1.7-3.6c1.5-4.1,3-8.2,4.5-12.4c2.1-5.9,4.3-11.8,6.4-17.7c2.7-7.5,5.5-15,8.2-22.5c2.3-6.2,4.5-12.4,6.8-18.5
		c0.5-1.4,0.9-2.8,1.4-4.2c0,0,0,0,0,0c0.2-0.4,0.5-0.8,0.6-1.2c2.7-7.5,5.5-15,8.2-22.6c0.2-0.7,0.6-1.3,0.6-2c0,0,0,0,0,0
		c0.2-0.5,0.6-0.9,0.7-1.5c1.3-3.5,2.6-7.1,3.9-10.6c2.5-7,5-14,7.6-21c1.9-5.2,3.8-10.5,5.7-15.7c1.6-4.4,3.2-8.9,4.8-13.3
		c2.6-7.2,5.3-14.4,7.9-21.6c2.9-7.9,5.7-15.8,8.6-23.7c3.7-10.2,7.4-20.3,11.1-30.5c1.3-3.5,2.6-6.9,3.8-10.4v0c0,0,0,0,0,0
		C402.4,1.1,402.3,0.5,402.3,0z M304.2,258.9C304.2,258.9,304.2,258.9,304.2,258.9C304.2,258.9,304.2,258.9,304.2,258.9
		C304.2,258.9,304.2,258.9,304.2,258.9C304.2,258.9,304.2,258.9,304.2,258.9C304.2,258.9,304.2,258.9,304.2,258.9z M247.6,160.3
		c0-0.1,0-0.1,0-0.2c0,0,0.1,0.1,0.1,0.1C247.6,160.3,247.6,160.3,247.6,160.3C247.6,160.3,247.6,160.3,247.6,160.3
		C247.6,160.3,247.6,160.3,247.6,160.3z M215.3,244.4c0.1,0,0.1-0.1,0.2-0.1c0,0.1-0.1,0.2-0.1,0.3
		C215.4,244.5,215.4,244.4,215.3,244.4z M226.7,213.3c0.1,0,0.1-0.1,0.2-0.1c0,0.1,0,0.2-0.1,0.4
		C226.8,213.4,226.7,213.4,226.7,213.3z M166.3,162.4c0-0.1,0.1-0.2,0.1-0.2c0,0,0,0.1,0,0.1C166.4,162.3,166.4,162.3,166.3,162.4z
		 M170.2,151.7C170.2,151.7,170.2,151.7,170.2,151.7C170.2,151.8,170.2,151.8,170.2,151.7c0,0.1,0,0.1-0.1,0.1
		C170.1,151.8,170.2,151.8,170.2,151.7z M237.7,183.5C237.7,183.5,237.7,183.5,237.7,183.5C237.7,183.5,237.7,183.5,237.7,183.5
		c0,0.1,0,0.2-0.1,0.3c0-0.1-0.1-0.2-0.1-0.3C237.6,183.5,237.7,183.5,237.7,183.5z M232.1,199c0,0.1-0.1,0.2-0.1,0.4
		c0-0.1-0.1-0.2-0.1-0.3C231.9,199.1,232,199.1,232.1,199z M339.3,169.5L339.3,169.5c-0.1,0.1-0.2,0.2-0.2,0.2l0,0
		C339.2,169.7,339.2,169.6,339.3,169.5z M241.9,176C241.9,176,241.9,176,241.9,176C241.9,176,241.9,175.9,241.9,176
		C241.9,175.9,241.9,175.9,241.9,176z"/>
	<polygon class="st1" points="157,188 197.8,70.9 213.8,70.9 161.8,217.4 	"/>
	<polygon class="st1" points="196.7,257.2 237.5,140.1 253.5,140.1 201.5,286.6 	"/>
</g>
</svg>
