<svg xmlns="http://www.w3.org/2000/svg" viewBox="0 0 161 66.7"><defs><style>.cls-1{fill:#1d1d1b}</style></defs><g id="Layer_2" data-name="Layer 2"><g id="materials"><path class="cls-1" d="M159.16 64.86v-1.73H3.68V3.56h153.64v61.3h1.84v-1.73 1.73H161V0H0v66.7h161v-1.84h-1.84z"/><path class="cls-1" d="M19.43 35.65l4.26 10.81h.12l4-10.81h4.83l.81 2-.69.11a.65.65 0 0 0-.69.81l.81 12.31 1.38.11.82 2.01h-6.56v-2l.81-.11c.57 0 .57-.23.57-.92l-.81-9.77-4.26 10-2.42.81-4-10.81-.57 10.46 1.38.11v2.13h-6.57l.8-2 .8-.11c.46-.11.69-.23.69-.92l.8-12.19-1.38-.11.8-2.07h4.25zM36.11 52.9l.8-2 .58-.11c.58-.11.69-.34.92-.81l4.14-12.19-1.38-.11.83-2.03h4.94l5.41 15.18.92.11.81 2h-6.59v-2l.81-.11c.46 0 .69-.34.46-.81L48.07 48h-6l-.92 2.76 1.38.11v2.03zm6.55-7.13h4.83l-2.41-7.36H45zM65.09 50.14V46l-1.26-.11-.83-2.07h6.79l-.34 2-.69.11c-.46.11-.69.23-.69.81v4.94a10.37 10.37 0 0 1-5.86 1.61c-5.06 0-7.82-2.87-7.82-9 0-6.67 3.91-9 8.39-9a12.46 12.46 0 0 1 5.18 1v2.3l-2.42.92v-.81c0-.46 0-.69-.46-.81a10.31 10.31 0 0 0-2.08-.17c-3.68 0-5.29 2.41-5.29 6.21 0 4.14 1.38 6.56 4.6 6.56a4.41 4.41 0 0 0 2.76-.35M86.94 52.09l-3 .81-7.58-12.54v10.47l1.38.11v2h-6.33l.81-2 .46-.11c.46-.11.58-.23.58-.69V37.72l-1.72-.11.81-2.07h4.25L84 48V37.72l-1.38-.11v-2h6.21l-.8 2-.46.11c-.46.11-.69.23-.69.81v13.56zM88.9 52.9l.8-2 .23-.11c.58-.11.69-.34.92-.81l4.25-12.14-1.38-.11.8-2.07h4.95l5.18 15.06.92.11.8 2.07h-6.55v-2l.8-.11c.46 0 .69-.34.46-.81L100.4 48h-6l-.92 2.76 1.38.11v2.03zm6.1-7.13h4.83l-2.43-7.36h-.11zM111 38h-2.41c-.57 0-.69.23-.69.69v.92l-2.53-.81v-3.1h14.23v3.11l-2.53.81v-.92c0-.46-.11-.69-.69-.69h-2.3v12.82l1.5.11.8 2.07h-7.7l.8-2 .8-.11c.58 0 .69-.23.69-.81zM122.36 50.94l.23-.11c.69-.11.8-.23.8-.92V37.72l-1-.11-.8-2.07h12.19v3.11l-2.53.81v-1.28c0-.46-.11-.34-.69-.34h-4v4.94h6.21v2.42h-6.27v5.4h4.37c.58 0 .58-.23.58-.69v-.23L134 49v3.9h-12.56zM145 48.19c0-1.61-1.38-2.3-3.22-2.87-2.41-.69-4.95-1.72-4.83-5.06s2.53-5.06 6.21-4.94a11 11 0 0 1 4.83 1v2.53l-2.53.81v-.81c0-.46 0-.69-.46-.81a8 8 0 0 0-1.84-.23c-1.38 0-2.76.46-2.87 2.19s1.38 2.19 3.34 2.88c2.41.81 4.83 1.73 4.71 5.17s-2.41 5.29-6.55 5.18a12.6 12.6 0 0 1-5.18-1v-2.55l2.53-.81v.81c0 .46.11.69.46.81a9.38 9.38 0 0 0 2.07.23c1.84 0 3.33-.58 3.33-2.53M14.84 13.8h11.27v1.15H16.1v6.32h8.28v1.16H16.1v8.27h-1.26V13.8zM34.5 13.8h1.27v16.91H34.5zM45.31 13.8h1.15l11.38 14.84V13.8h1.15v16.9h-1.03L46.58 15.87V30.7h-1.27V13.8zM74.52 13.68h1.15l7.59 17H82l-2.19-4.94h-9.43l-2.19 4.94h-1.26zm4.83 11L75.1 15.3l-4.26 9.43zM91.08 13.8h1.03l11.39 14.84V13.8h1.27v16.9h-1.04l-11.5-14.83V30.7h-1.15V13.8zM113.5 22.19a8.41 8.41 0 0 1 8.5-8.74 8.5 8.5 0 0 1 4.83 1.38v1.27a8.58 8.58 0 0 0-4.83-1.5 7.32 7.32 0 0 0-7.36 7.59 7.32 7.32 0 0 0 7.36 7.59 7.81 7.81 0 0 0 5.18-1.72v1.38a8.41 8.41 0 0 1-5.18 1.61 8.57 8.57 0 0 1-8.51-8.86M135.47 13.8h11.38v1.15h-10.11v6.1h8.39v1.15h-8.39v7.35h10.46v1.15h-11.73V13.8z"/></g></g></svg>