<svg xmlns="http://www.w3.org/2000/svg" viewBox="6443 702 115.5 20"><defs><style>.a{fill:#0574eb;}.b{fill:#fff;opacity:0;}</style></defs><g transform="translate(5564)"><path class="a" d="M110.7,12.6a4.573,4.573,0,0,1-1.346-.269,11.353,11.353,0,0,1-1.4-.7.577.577,0,0,0-.485.592h-.592s.108-2.8.108-2.854l.162.054h.323a4.818,4.818,0,0,0,1.885,2.315,3.3,3.3,0,0,0,1.238.377,2.046,2.046,0,0,0,1.508-.323,1.993,1.993,0,0,0,.646-1.293,1.37,1.37,0,0,0-.431-1.185,5.484,5.484,0,0,0-1.831-1.023,12.393,12.393,0,0,1-1.885-.915,2.794,2.794,0,0,1-.969-1.131,2.092,2.092,0,0,1-.323-1.346,2.641,2.641,0,0,1,1.131-1.938,3.671,3.671,0,0,1,2.638-.7,8.252,8.252,0,0,1,2.261.592l.269-.754h.592l.216,2.8-.109.108h-.537a2.9,2.9,0,0,0-1.239-1.723,2.576,2.576,0,0,0-1.507-.431,1.8,1.8,0,0,0-1.292.323,1.357,1.357,0,0,0-.592,1.022,1.2,1.2,0,0,0,.484.915,4.054,4.054,0,0,0,1.723.915,5.571,5.571,0,0,1,2.746,1.562,2.974,2.974,0,0,1,.592,2.047,2.931,2.931,0,0,1-.7,1.669,3.733,3.733,0,0,1-1.346,1.023,4.013,4.013,0,0,1-1.541.282C110.971,12.613,110.839,12.609,110.7,12.6Zm-15.074-.052V11.9h.431c.808,0,1.4-1.023,1.4-2.046V5.17c0-.647-.054-1.131-.054-1.185a1.465,1.465,0,0,0-.43-.861,1.506,1.506,0,0,0-.862-.162V2.37l4.092.054,4.361-.054c.108.43.377,2.261.377,2.315l-.323.054c-.054,0-.054,0-.054-.054a1.581,1.581,0,0,0-.162-.323,3.03,3.03,0,0,0-.431-.7,1.651,1.651,0,0,0-1.292-.7,14.191,14.191,0,0,0-2.153-.054c-.269,0-1.293,0-1.293.538V7h.969a5.813,5.813,0,0,0,.862-.162c.592-.161.861-.915.969-1.238V5.33h.269V9.261h-.269V9.1c-.054-.108-.377-1.131-1.023-1.346a4.261,4.261,0,0,0-.808-.162h-.969v2.692c0,1.292,2.315,1.453,2.315,1.453a5.41,5.41,0,0,0,3.664-1.667l.215.054a.68.68,0,0,1-.054.323l-.485,2.1Zm-19.815,0H72.741V11.9s2.1.161,2.1-1.454V4.361c0-1.616-2.1-1.454-2.1-1.454V2.315h0V2.1h5.869v.807a1.377,1.377,0,0,0-1.561,1.454v6.085A1.376,1.376,0,0,0,78.611,11.9v.646Zm-40.974-.054v-.646s1.4.054,1.777-1.077V3.393a4.078,4.078,0,0,0-1.777-.431V2.1h2.908c.053,0,5.384,5.6,6.461,6.73a.42.42,0,0,1,.109.269V4.845c0-1.938-1.024-1.831-1.562-1.885V2.315h4.2v.593a1.659,1.659,0,0,0-1.992,1.723v7.484h-.593l-5.06-5.223A16.04,16.04,0,0,0,37.151,4.9v6.137c.431.862,1.454.808,1.885.862v.592ZM0,12.492v-.754H.539c1.023-.053,1.777-1.293,1.723-2.962.054-.323,0-5.545,0-5.545,0-.7-.054-1.184-.054-1.292a2.8,2.8,0,0,0-.323-.808l-.109-.054C1.723,1.024,1.562.97,1.508.916,1.185.647,0,.7,0,.7V0H11.039c.053.538.537,2.638.537,2.692h-.537V2.639a4.309,4.309,0,0,1-.216-.377,4.591,4.591,0,0,0-.538-.862A2.087,2.087,0,0,0,8.724.538,13.819,13.819,0,0,0,6.139.484c-.377.054-1.4.054-1.4.7V5.492A12.859,12.859,0,0,0,6.407,5.33,2.334,2.334,0,0,0,7.7,3.338V3.123h.7V8.4H7.7l.108-.109A2.255,2.255,0,0,0,6.462,6.3a11.9,11.9,0,0,0-1.724-.108V9.638c0,1.562,2.638,1.777,2.638,1.777a4.547,4.547,0,0,0,3.119-1.1,6.162,6.162,0,0,0,.973-1.1l.646.215a1.05,1.05,0,0,1-.054.377l-.592,2.692ZM46.843,7.376c0-3.284,2.37-5.061,5.33-5.061,2.908,0,5.277,1.723,5.331,5.061,0,3.283-2.37,5.061-5.331,5.061S46.843,10.661,46.843,7.376Zm2.316,0c0,2.584,1.4,4.631,3.015,4.631,1.669,0,2.962-2.1,3.015-4.631,0-2.585-1.4-4.631-3.015-4.631C50.45,2.745,49.159,4.791,49.159,7.376ZM23.583,7.322c0-3.284,2.37-5.061,5.331-5.061s5.384,1.777,5.33,5.061c0,3.283-2.369,5.06-5.33,5.06S23.583,10.659,23.583,7.322Zm2.316.054c0,2.53,1.4,4.631,3.015,4.631,1.668,0,3.015-2.1,3.015-4.631s-1.4-4.577-3.015-4.631h-.081C26.739,2.745,25.9,4.823,25.9,7.376Zm-12.707.594a4.848,4.848,0,0,1,4.2-5.708,5.367,5.367,0,0,1,3.768.915l.108-.969.7-.054c.054,0,.377,2.854.377,2.854l-.592.108c-.054-.107-.054-.161-.108-.269L21.43,4.47c-.808-1.024-1.616-1.724-2.908-1.562-2.423.377-3.016,2.369-2.853,4.738.162,2.423,1.724,4.631,3.985,3.823a4.034,4.034,0,0,0,2.315-1.991l.537.323a4.307,4.307,0,0,1-3.661,2.477,7.5,7.5,0,0,1-.874.053A4.459,4.459,0,0,1,13.191,7.969Zm75.973,4.2V11.9s2.1.108,2.1-1.346v-6.3a2.733,2.733,0,0,0-.109-.7l-3.607,8.561h-.969s-3.23-6.03-3.985-7.431v6.031c.431.915,1.777,1.077,1.777,1.131v.269h-4.2v-.269s1.562-.054,1.885-1.346V3.716c0-1.077-2.423-.754-2.423-.754V2.1h3.985l4.038,7.914,2.961-7,.431-.7h3.931v.646s-2.1-.162-2.1,1.292v6.192c0,1.454,2.1,1.4,2.1,1.4v.323Zm-28.107,0L61,11.737c1.4-.054,2.207-.484,2.207-1.131V.592h.055S58.9.323,58.365,3.284l-.862.054L58.311,0H70.857l.808,3.338L70.75,3.23C70.211.323,65.85.592,65.85.592V10.606c0,.594.861,1.077,2.261,1.131v.431Z" transform="translate(879.808 704.942)"/><rect class="b" width="19" height="20" transform="translate(879 702)"/></g></svg>