<svg xmlns="http://www.w3.org/2000/svg" viewBox="0 0 161 66.7"><defs><style>.cls-1{fill:#1d1d1b;}</style></defs><title>press_financemagnates</title><g id="Layer_2" data-name="Layer 2"><g id="materials"><polygon class="cls-1" points="159.16 64.86 159.16 63.13 3.68 63.13 3.68 3.56 157.32 3.56 157.32 64.86 159.16 64.86 159.16 63.13 159.16 64.86 161 64.86 161 0 0 0 0 66.7 161 66.7 161 64.86 159.16 64.86"/><path class="cls-1" d="M19.43,35.65l4.26,10.81h.12l4-10.81h4.83l.81,2-.69.11a.65.65,0,0,0-.69.81l.81,12.31,1.38.11L35.08,53H28.52v-2l.81-.11c.57,0,.57-.23.57-.92l-.81-9.77h0l-4.26,10-2.42.81-4-10.81h0l-.57,10.46,1.38.11V52.9H12.65l.8-2,.8-.11c.46-.11.69-.23.69-.92l.8-12.19-1.38-.11.8-2.07h4.25Z"/><path class="cls-1" d="M36.11,52.9l.8-2,.58-.11c.58-.11.69-.34.92-.81l4.14-12.19-1.38-.11L42,35.65h4.94l5.41,15.18.92.11.81,2H47.49v-2l.81-.11c.46,0,.69-.34.46-.81L48.07,48h-6l-.92,2.76,1.38.11V52.9Zm6.55-7.13h4.83l-2.41-7.36H45Z"/><path class="cls-1" d="M65.09,50.14V46l-1.26-.11L63,43.82h6.79l-.34,2-.69.11c-.46.11-.69.23-.69.81v4.94a10.37,10.37,0,0,1-5.86,1.61c-5.06,0-7.82-2.87-7.82-9,0-6.67,3.91-9,8.39-9a12.46,12.46,0,0,1,5.18,1v2.3l-2.42.92v-.81c0-.46,0-.69-.46-.81A10.31,10.31,0,0,0,63,37.72c-3.68,0-5.29,2.41-5.29,6.21,0,4.14,1.38,6.56,4.6,6.56a4.41,4.41,0,0,0,2.76-.35"/><path class="cls-1" d="M86.94,52.09l-3,.81L76.36,40.36h0V50.83l1.38.11v2H71.41l.81-2,.46-.11c.46-.11.58-.23.58-.69V37.72l-1.72-.11.81-2.07h4.25L84,48h0V37.72l-1.38-.11v-2h6.21l-.8,2-.46.11c-.46.11-.69.23-.69.81V52.09Z"/><path class="cls-1" d="M88.9,52.9l.8-2,.23-.11c.58-.11.69-.34.92-.81L95.1,37.84l-1.38-.11.8-2.07h4.95l5.18,15.06.92.11.8,2.07H99.82v-2l.8-.11c.46,0,.69-.34.46-.81L100.4,48h-6l-.92,2.76,1.38.11V52.9ZM95,45.77h4.83L97.4,38.41h-.11Z"/><path class="cls-1" d="M111,38h-2.41c-.57,0-.69.23-.69.69v.92l-2.53-.81v-3.1H119.6v3.11l-2.53.81v-.92c0-.46-.11-.69-.69-.69h-2.3V50.83l1.5.11.8,2.07h-7.7l.8-2,.8-.11c.58,0,.69-.23.69-.81Z"/><path class="cls-1" d="M122.36,50.94l.23-.11c.69-.11.8-.23.8-.92V37.72l-1-.11-.8-2.07h12.19v3.11l-2.53.81V38.18c0-.46-.11-.34-.69-.34h-4v4.94h6.21V45.2H126.5v5.4h4.37c.58,0,.58-.23.58-.69v-.23L134,49V52.9H121.44Z"/><path class="cls-1" d="M145,48.19c0-1.61-1.38-2.3-3.22-2.87-2.41-.69-4.95-1.72-4.83-5.06s2.53-5.06,6.21-4.94a11,11,0,0,1,4.83,1v2.53l-2.53.81v-.81c0-.46,0-.69-.46-.81a8,8,0,0,0-1.84-.23c-1.38,0-2.76.46-2.87,2.19s1.38,2.19,3.34,2.88c2.41.81,4.83,1.73,4.71,5.17s-2.41,5.29-6.55,5.18a12.6,12.6,0,0,1-5.18-1V49.68l2.53-.81v.81c0,.46.11.69.46.81a9.38,9.38,0,0,0,2.07.23c1.84,0,3.33-.58,3.33-2.53"/><polygon class="cls-1" points="14.84 13.8 26.11 13.8 26.11 14.95 16.1 14.95 16.1 21.27 24.38 21.27 24.38 22.43 16.1 22.43 16.1 30.7 14.84 30.7 14.84 13.8"/><rect class="cls-1" x="34.5" y="13.8" width="1.27" height="16.91"/><polygon class="cls-1" points="45.31 13.8 46.46 13.8 57.84 28.64 57.84 13.8 58.99 13.8 58.99 30.7 57.96 30.7 46.58 15.87 46.58 30.7 45.31 30.7 45.31 13.8"/><path class="cls-1" d="M74.52,13.68h1.15l7.59,17H82l-2.19-4.94H70.38l-2.19,4.94H66.93Zm4.83,11L75.1,15.3l-4.26,9.43Z"/><polygon class="cls-1" points="91.08 13.8 92.11 13.8 103.5 28.64 103.5 13.8 104.77 13.8 104.77 30.7 103.73 30.7 92.23 15.87 92.23 30.7 91.08 30.7 91.08 13.8"/><path class="cls-1" d="M113.5,22.19A8.41,8.41,0,0,1,122,13.45a8.5,8.5,0,0,1,4.83,1.38V16.1A8.58,8.58,0,0,0,122,14.6a7.32,7.32,0,0,0-7.36,7.59A7.32,7.32,0,0,0,122,29.78a7.81,7.81,0,0,0,5.18-1.72v1.38A8.41,8.41,0,0,1,122,31.05a8.57,8.57,0,0,1-8.51-8.86"/><polygon class="cls-1" points="135.47 13.8 146.85 13.8 146.85 14.95 136.74 14.95 136.74 21.05 145.13 21.05 145.13 22.2 136.74 22.2 136.74 29.55 147.2 29.55 147.2 30.7 135.47 30.7 135.47 13.8"/></g></g></svg>