<?xml version="1.0" encoding="utf-8"?>
<!-- Generator: Adobe Illustrator 18.0.0, SVG Export Plug-In . SVG Version: 6.00 Build 0)  -->
<!DOCTYPE svg PUBLIC "-//W3C//DTD SVG 1.1//EN" "http://www.w3.org/Graphics/SVG/1.1/DTD/svg11.dtd">
<svg version="1.1" id="Layer_1" xmlns="http://www.w3.org/2000/svg" xmlns:xlink="http://www.w3.org/1999/xlink" x="0px" y="0px"
	 width="1743px" height="222.2px" viewBox="0 0 1743 222.2" enable-background="new 0 0 1743 222.2" xml:space="preserve">
<g>
	<g>
		<path fill="#ED1E25" d="M1237,0.3c8.5,1.4,17.1,2.2,25.4,4.3c34.3,8.6,51.7,50.6,33.5,80.3c-4.4,7.2-10.5,12.4-17.7,16.5
			c-3.2,1.8-6.4,3.5-10.3,5.5c2,0.8,3.4,1.6,4.9,2c23.7,6.9,34.2,24.4,35.9,47.6c2.4,31.9-17.7,55.7-49.6,59.6
			c-9.9,1.2-19.9,1.9-29.9,1.9c-31.7,0.2-63.3,0.1-95,0.1c-1.8,0-3.6,0-5.8,0c0-14.7,0-29.1,0-43.8c6.3,0,12.4,0,18.9,0
			c0-43.4,0-86.4,0-129.9c-6.4,0-12.5,0-19.3,0c0-15,0-29.6,0-44.2C1164.3,0.3,1200.7,0.3,1237,0.3z M1204.7,129.1
			c0,14.9-0.1,28.5,0.1,42.2c0,0.9,2,2.7,3,2.7c8.3,0,16.7,0,24.9-0.7c6.1-0.5,11.7-2.8,15.1-8.4c8-13.2,0.4-31.6-14.7-34.2
			C1224.1,129.1,1214.7,129.6,1204.7,129.1z M1204.9,88.6c8.7-0.5,16.9-0.2,24.8-1.6c9.6-1.7,16.2-11,16.3-21.2
			c0-10.2-5.9-19.7-14.7-21.3c-8.5-1.5-17.4-1.4-26.4-2C1204.9,58.1,1204.9,72.7,1204.9,88.6z"/>
		<path d="M208,0c0,14.6,0,29.2,0,44.4c-3.5,0-6.5,0.4-9.4-0.1c-4.1-0.8-5.5,0.9-6.6,4.5c-13.9,45-28,89.9-42,134.8
			c-3.2,10.3-6.3,20.7-9.8,30.9c-0.5,1.4-2.5,3.3-3.8,3.3c-22.5,0.2-45,0.1-67.8,0.1c-0.5-1.4-1.1-2.7-1.6-4.1
			c-17.4-55-34.8-110.1-52-165.1c-1.2-3.7-2.7-5.1-6.7-4.5C5.7,44.7,2.8,44.1,0,44C0,29.3,0,14.7,0,0c31.3,0,62.7,0,94,0
			c0,14.6,0,29.2,0,44.3c-6.6,0-12.6,0-19.1,0c10.5,41.1,20.9,81.7,31.3,122.3c0.3,0,0.6,0.1,1,0.1c11.2-40.6,22.4-81.3,33.8-122.5
			c-6.6,0-12.5,0-18.9,0c0-15,0-29.6,0-44.2C150.7,0,179.3,0,208,0z"/>
		<path fill="#ED1E25" d="M1743,103.3c-7.5-0.1-15-0.4-22.4-0.2c-1.1,0-3.2,1.9-3.2,3c-0.2,18.8-0.6,37.7,0.1,56.5
			c0.4,12.3,7.9,17.4,20,15.2c1-0.2,2-0.2,3.2-0.3c0.2,1.2,0.5,2.3,0.5,3.4c0,10.8,0,21.7,0.1,32.5c0,2.4-0.3,4.2-3.1,4.7
			c-16.5,2.7-32.9,5.1-49.6,1.2c-18.7-4.4-27.7-14.3-28.1-33.4c-0.5-25.5-0.2-51-0.3-76.5c0-2,0-3.9,0-6.4c-2.5,0-4.5,0-6.4,0
			c-8.3-0.1-7.3,0.9-7.4-7.6c0-12.1,0-24.2,0-36.9c6.3,0,12,0,18.4,0c0-10.1-0.1-19.8,0-29.4c0.1-10.6-1.5-8.2,8.7-10.7
			c14.2-3.4,28.5-6.5,43.5-10c0,16.6,0,33,0,49.9c9.1,0,17.6,0,26,0C1743,73.3,1743,88.3,1743,103.3z"/>
		<path d="M356,58.3c21,0,41.9,0,63.2,0c0.6,7.4,1.2,14.7,1.9,22.2c3.8-4.4,7-8.9,11-12.4c17.9-15.4,38.5-18.4,60.2-10.4
			c16.4,6.1,23.4,19.6,23.7,36.5c0.4,24.1,0.2,48.3,0.2,72.5c0,2,0,4,0,6.6c4.3,0.2,8.4,0.4,12.9,0.6c0,14.5,0,28.9,0,43.7
			c-23.2,0-46.6,0-70.8,0c0-1.8,0-3.7,0-5.6c0-30.8,0-61.6,0-92.5c0-8.4-2.9-12.7-9.3-14.8c-6.7-2.2-13.6,0-18.2,6
			c-1.1,1.4-1.9,3.1-2.7,4.8c-0.5,1.2-1,2.6-1,3.8c-0.1,17.9,0,35.8,0,54.2c2.8,0,6.1,0,9.7,0c0,14.9,0,29.3,0,44.1
			c-26.7,0-53.6,0-80.8,0c0-14.5,0-28.9,0-43.9c4.1,0,8.1,0,12.3,0c0-23.8,0-47,0-70.8c-4,0-8,0-12.2,0C356,87.7,356,73.2,356,58.3z
			"/>
		<path d="M741.9,102.4c-3.8,0-7.1,0-10.8,0c0-14.7,0-29.3,0-44c0.8-0.1,1.6-0.3,2.4-0.3c22,0,43.9,0,66.6,0c0,38.6,0,77,0,115.6
			c4.6,0,8.6,0,12.9,0c0,14.7,0,29.1,0,43.9c-21.6,0-43.3,0-65.5,0c0-5.2,0-10.3,0-16.5c-2.9,3.1-4.9,5.4-7.2,7.5
			c-15.9,14.1-43.9,17.9-62.9,8.3c-14.5-7.3-21.7-19.7-22.3-35.4c-0.9-24.3-0.7-48.6-1-72.9c0-2,0-3.9,0-6.3c-4.5,0-8.4,0-12.7,0
			c0-14.8,0-29.2,0-44c23.3,0,46.5,0,70.6,0c0,1.8,0,3.7,0,5.6c0,29.3-0.1,58.6,0.1,88c0,4.1,0.7,8.3,2,12.2c2,5.9,7,8.9,13.2,8.7
			c6.1-0.2,10.5-3.1,12.6-8.8c0.8-2.2,1.7-4.5,1.7-6.7C742,139.2,741.9,121,741.9,102.4z"/>
		<path fill="#ED1E25" d="M1569.2,119.2c0-5.4,0.3-10-0.1-14.6c-0.6-8.5-6.1-14.1-13.8-14.3c-7.7-0.2-14.1,5.5-15.3,13.7
			c-0.3,1.8-0.3,3.6-0.5,5.8c-17.9,0-35.6,0-53.3,0c-1.9-20.2,8.6-38.7,28.2-47.2c28.5-12.3,57.2-11.2,85.1,2.2
			c17.1,8.2,25.9,22.7,26.2,41.7c0.4,20.3,0.2,40.7,0.3,61c0,2,0,4,0,6.6c4.4,0,8.5,0,12.8,0c0,15,0,29.2,0,43.8
			c-22,0-43.9,0-66.2,0c-0.5-5.4-1-11-1.6-17.4c-1.5,1.7-2.5,2.7-3.4,3.8c-17.3,21.3-50.3,21.2-67.2,11.3
			c-13.4-7.9-19.2-20.5-20.1-35.4c-2-32.6,15.1-53.7,48.1-58.7c11.6-1.8,23.5-1.6,35.3-2.3C1565.3,119.1,1566.9,119.2,1569.2,119.2z
			 M1569.9,147.4c-5.4,0-9.7-0.6-13.9,0.1c-12.9,2.1-19.5,11.1-18.1,24.1c1.2,10.7,10.4,16.1,20.3,11.9c5.3-2.2,8.9-6.3,9.7-11.8
			C1569.1,163.8,1569.3,155.7,1569.9,147.4z"/>
		<path d="M345.7,149c-33.7,0-65.8,0-98.5,0c-0.2,9.1,0.1,17.6,4.5,25.4c3.6,6.5,9.6,8.9,16.8,8.6c7.2-0.3,12.9-3.3,15.9-10.1
			c1.3-3,2.1-6.2,3.3-9.6c17.9,0,36,0,54.6,0c-2.2,17.5-8.9,32.3-22.9,43.3c-9.9,7.8-21.4,12-33.8,13.8c-16.7,2.5-33.2,1.8-49.4-3.4
			c-21.7-7-36.3-21.4-43-43c-7.3-23.3-7.6-47,0.1-70.3c9.4-28.7,30.1-44.2,59.5-48.6c13.2-2,26.3-1.1,39.1,2.4
			c29.9,8.1,45.9,28.7,50.8,58.4C344.5,126.5,344.7,137.4,345.7,149z M248.8,118.2c12.9,0,25.5,0,38.2,0c0.5-8.5-0.7-16.1-8.2-20.9
			c-6.8-4.3-14.3-4.7-21.2-0.4C249.9,101.8,248.9,109.7,248.8,118.2z"/>
		<path d="M1114,148.9c-33.6,0-65.7,0-98.2,0c-0.2,9-0.2,17.6,4.3,25.4c3.8,6.7,9.9,9.1,17.3,8.7c7.4-0.4,13.1-3.8,15.9-10.9
			c1.1-2.8,1.8-5.7,2.8-8.8c18.2,0,36.4,0,54.7,0c-3.5,32.1-26,53.9-59.4,57.6c-15.6,1.7-30.9,1-46-3.7c-22.3-7-37.2-21.7-44-44
			c-6.9-23-7.2-46.3,0.3-69.3c9.5-28.9,30.3-44.5,59.9-48.8c13.9-2,27.6-0.9,41,3.1c27.5,8.3,43,27.6,48.1,55.2
			C1112.8,124.8,1112.9,136.5,1114,148.9z M1017.6,118.1c12.6,0,25.3,0,38,0c0.1-16-7.7-24.9-20.6-23.9
			C1023.1,95.1,1015.8,105.2,1017.6,118.1z"/>
		<path fill="#ED1E25" d="M1475.6,149.2c-33.7,0-65.8,0-98.5,0c0,9.7,0.1,18.9,5.6,27c4.2,6.2,10.6,7.7,17.6,7
			c6.8-0.7,11.9-4.1,14.6-10.5c1.2-2.7,1.8-5.7,2.8-9c17.8,0,35.8,0,54.4,0c-2.2,17.5-8.9,32.5-23.3,43.3
			c-17,12.8-36.8,15.8-57.3,14.4c-8.4-0.5-16.9-2-25-4.5c-21.4-6.5-36-20.6-42.8-41.9c-8-25-8.2-50.2,1.1-74.9
			c10.3-27.1,31.1-41,59.2-44.8c13.7-1.8,27.3-0.7,40.5,3.4c28.2,8.7,43.2,28.8,47.9,57C1474.5,126.5,1474.7,137.5,1475.6,149.2z
			 M1417.5,118.7c0.1-9-0.9-17.2-9.5-21.8c-7.3-3.9-14.9-4-21.6,1.2c-6.6,5.1-7.8,12.5-7.3,20.6
			C1392.2,118.7,1404.7,118.7,1417.5,118.7z"/>
		<path d="M535.6,58c6.1,0,11.8,0,18,0c0-10.6,0.4-20.9-0.1-31.2c-0.3-5.4,1.5-7.4,6.8-8.5c15.2-3.1,30.2-6.7,46-10.3
			c0,16.7,0,33.1,0,50c8.9,0,17.1,0,25.6,0c0,15.1,0,29.7,0,44.7c-8.3,0-16.4,0-25,0c-0.2,1.8-0.4,3.3-0.4,4.7c0,17.2,0,34.3,0,51.5
			c0,1.8,0.2,3.7,0.4,5.5c1.3,9.8,8.2,14.9,18,13.3c1.6-0.3,3.2-0.6,5.6-1c0,9.5,0,18.6,0,27.7c0,12.9,0,12.9-12.7,14.9
			c-13.6,2.2-27.1,2.9-40.7-0.3c-19.1-4.6-27.8-15.5-27.9-35.3c0-26.7,0-53.3,0-80.7c-4.6,0-9,0-13.7,0
			C535.6,87.7,535.6,73.2,535.6,58z"/>
		<path d="M826.2,217.6c0-14.7,0-29,0-43.9c4.2,0,8.3,0,12.7,0c0-23.9,0-47.1,0-70.9c-4.2,0-8.3,0-12.6,0c0-15.1,0-29.7,0-44.5
			c20.6,0,41,0,62.1,0c0.6,8,1.2,16,1.9,25.3c1-2.2,1.5-3.3,2-4.4c5.1-12.9,14.4-20.7,28.3-22.2c6.7-0.7,13.6-0.1,20.3,0.3
			c1.2,0.1,3.4,2,3.4,3.1c0.2,15.8,0,31.6,0,47.5c0,0.3-0.3,0.6-0.6,1.1c-7.6,0-15.5-1-23.1,0.2c-16.2,2.6-23.8,12-24.5,28.5
			c-0.2,5.8-0.2,11.7-0.3,17.5c0,5.8,0,11.6,0,18.2c5.7,0,11.7,0,18,0c0,15.2,0,29.6,0,44.3C884.7,217.6,855.7,217.6,826.2,217.6z"
			/>
	</g>
</g>
</svg>
