<svg width="101" height="27" fill="none" xmlns="http://www.w3.org/2000/svg"><mask id="a" fill="#fff"><path d="M11.441 4.534L7.252 17.04h8.412L11.441 4.534zm7.139 21.07l-1.944-5.71H6.314l-1.91 5.71H1.387L9.766 1.51h3.485l8.412 24.093H18.58zm11.93 0c-.133.045-.3.079-.502.101-.335.068-.838.102-1.508.102-1.251 0-2.156-.362-2.715-1.087-.558-.725-.837-1.767-.837-3.127V1.068h2.848v20.355c0 .59.112 1.031.335 1.326.224.294.626.442 1.207.442h.938c.09 0 .168-.012.235-.034v2.446zm13.071-.238c-.38.113-.843.22-1.39.322-.548.102-1.213.153-1.995.153-.916 0-1.675-.136-2.279-.408-.603-.271-1.078-.622-1.424-1.053a3.906 3.906 0 0 1-.737-1.478 6.753 6.753 0 0 1-.218-1.716V10.889h-3.284v-2.48h3.284V4.023l2.849-.68v5.064h5.026v2.48h-5.026v9.958c0 .838.184 1.438.552 1.8.37.363.944.545 1.726.545.313 0 .637-.012.972-.034.335-.023.648-.057.939-.102a15.5 15.5 0 0 0 1.005-.17v2.48zm14.98.237V14.695c0-1.291-.284-2.3-.854-3.024-.57-.726-1.525-1.088-2.865-1.088-.827 0-1.553.244-2.179.73-.625.488-1.128 1.128-1.508 1.92-.29.635-.464 1.36-.52 2.176a32.587 32.587 0 0 0-.083 2.208v7.986h-2.849V1.068h2.849v9.617a5.095 5.095 0 0 1 2.145-2.022c.916-.464 1.854-.697 2.815-.697 1.944 0 3.413.555 4.407 1.666.994 1.11 1.491 2.662 1.491 4.655v11.316h-2.848zm19.573-10.126c0-.657-.09-1.292-.269-1.904a5.032 5.032 0 0 0-.77-1.597 3.89 3.89 0 0 0-1.374-1.138c-.559-.283-1.218-.425-1.978-.425-.782 0-1.457.147-2.027.442-.57.294-1.05.68-1.441 1.155a4.794 4.794 0 0 0-.872 1.614c-.19.6-.296 1.218-.318 1.853h9.049zm2.882 2.48H69.018c0 .793.145 1.58.436 2.362.29.782.692 1.433 1.206 1.954.804.816 1.843 1.224 3.117 1.224 1.385 0 2.435-.374 3.15-1.122.246-.25.447-.51.603-.782.157-.271.29-.634.403-1.087h2.781a5.926 5.926 0 0 1-.871 2.413 6.177 6.177 0 0 1-1.743 1.835 7.5 7.5 0 0 1-2.01.951 7.83 7.83 0 0 1-2.313.34c-1.207 0-2.285-.232-3.234-.696a7.055 7.055 0 0 1-2.397-1.887 8.243 8.243 0 0 1-1.591-2.905 11.521 11.521 0 0 1-.52-3.483c0-1.042.1-2.022.302-2.94a8.634 8.634 0 0 1 1.005-2.566c.603-1.042 1.453-1.902 2.547-2.582 1.095-.68 2.38-1.02 3.854-1.02 1.095 0 2.073.199 2.933.595.86.397 1.603.935 2.228 1.614.693.77 1.23 1.682 1.61 2.736a9.164 9.164 0 0 1 .535 3.313l-.033 1.733zm14.545-.645l-4.558.271c-.425.023-.86.097-1.307.221a4.195 4.195 0 0 0-1.207.544c-.357.238-.648.55-.871.935-.223.385-.335.85-.335 1.393 0 .77.257 1.456.77 2.056.514.6 1.375.9 2.581.9.648 0 1.28-.113 1.894-.34a4.101 4.101 0 0 0 1.592-1.053 4.567 4.567 0 0 0 1.106-1.801c.223-.68.335-1.382.335-2.107v-1.02zm4.491 8.121a3.494 3.494 0 0 1-.905.323c-.29.057-.615.085-.972.085-.76 0-1.358-.255-1.793-.764-.436-.51-.654-1.127-.654-1.852h-.067c-.491.86-1.223 1.546-2.195 2.056-.972.51-2.061.764-3.267.764-.984 0-1.838-.153-2.564-.459-.726-.305-1.33-.707-1.81-1.206a5.064 5.064 0 0 1-1.09-1.7 5.32 5.32 0 0 1-.368-1.936c0-.544.095-1.122.285-1.733.19-.612.52-1.173.989-1.682.469-.51 1.089-.946 1.86-1.309.77-.362 1.737-.577 2.899-.645l5.16-.306V13.81c0-.43-.05-.883-.15-1.359a2.4 2.4 0 0 0-.72-1.257 3.144 3.144 0 0 0-1.09-.646c-.435-.159-1-.238-1.692-.238-.782 0-1.419.097-1.91.289-.492.193-.883.436-1.174.73-.558.567-.837 1.258-.837 2.074h-2.782c.022-.793.162-1.479.419-2.056A5.186 5.186 0 0 1 86.68 9.8c.58-.611 1.334-1.07 2.262-1.376a9.409 9.409 0 0 1 2.966-.459c1.653 0 2.96.312 3.92.935.962.623 1.643 1.41 2.045 2.362.335.793.503 1.676.503 2.65v8.326c0 .453.084.76.251.918.168.158.397.238.687.238h.235c.09 0 .167-.012.234-.034l.269-.068v2.14z"/></mask><path d="M11.441 4.534L7.252 17.04h8.412L11.441 4.534zm7.139 21.07l-1.944-5.71H6.314l-1.91 5.71H1.387L9.766 1.51h3.485l8.412 24.093H18.58zm11.93 0c-.133.045-.3.079-.502.101-.335.068-.838.102-1.508.102-1.251 0-2.156-.362-2.715-1.087-.558-.725-.837-1.767-.837-3.127V1.068h2.848v20.355c0 .59.112 1.031.335 1.326.224.294.626.442 1.207.442h.938c.09 0 .168-.012.235-.034v2.446zm13.071-.238c-.38.113-.843.22-1.39.322-.548.102-1.213.153-1.995.153-.916 0-1.675-.136-2.279-.408-.603-.271-1.078-.622-1.424-1.053a3.906 3.906 0 0 1-.737-1.478 6.753 6.753 0 0 1-.218-1.716V10.889h-3.284v-2.48h3.284V4.023l2.849-.68v5.064h5.026v2.48h-5.026v9.958c0 .838.184 1.438.552 1.8.37.363.944.545 1.726.545.313 0 .637-.012.972-.034.335-.023.648-.057.939-.102a15.5 15.5 0 0 0 1.005-.17v2.48zm14.98.237V14.695c0-1.291-.284-2.3-.854-3.024-.57-.726-1.525-1.088-2.865-1.088-.827 0-1.553.244-2.179.73-.625.488-1.128 1.128-1.508 1.92-.29.635-.464 1.36-.52 2.176a32.587 32.587 0 0 0-.083 2.208v7.986h-2.849V1.068h2.849v9.617a5.095 5.095 0 0 1 2.145-2.022c.916-.464 1.854-.697 2.815-.697 1.944 0 3.413.555 4.407 1.666.994 1.11 1.491 2.662 1.491 4.655v11.316h-2.848zm19.573-10.126c0-.657-.09-1.292-.269-1.904a5.032 5.032 0 0 0-.77-1.597 3.89 3.89 0 0 0-1.374-1.138c-.559-.283-1.218-.425-1.978-.425-.782 0-1.457.147-2.027.442-.57.294-1.05.68-1.441 1.155a4.794 4.794 0 0 0-.872 1.614c-.19.6-.296 1.218-.318 1.853h9.049zm2.882 2.48H69.018c0 .793.145 1.58.436 2.362.29.782.692 1.433 1.206 1.954.804.816 1.843 1.224 3.117 1.224 1.385 0 2.435-.374 3.15-1.122.246-.25.447-.51.603-.782.157-.271.29-.634.403-1.087h2.781a5.926 5.926 0 0 1-.871 2.413 6.177 6.177 0 0 1-1.743 1.835 7.5 7.5 0 0 1-2.01.951 7.83 7.83 0 0 1-2.313.34c-1.207 0-2.285-.232-3.234-.696a7.055 7.055 0 0 1-2.397-1.887 8.243 8.243 0 0 1-1.591-2.905 11.521 11.521 0 0 1-.52-3.483c0-1.042.1-2.022.302-2.94a8.634 8.634 0 0 1 1.005-2.566c.603-1.042 1.453-1.902 2.547-2.582 1.095-.68 2.38-1.02 3.854-1.02 1.095 0 2.073.199 2.933.595.86.397 1.603.935 2.228 1.614.693.77 1.23 1.682 1.61 2.736a9.164 9.164 0 0 1 .535 3.313l-.033 1.733zm14.545-.645l-4.558.271c-.425.023-.86.097-1.307.221a4.195 4.195 0 0 0-1.207.544c-.357.238-.648.55-.871.935-.223.385-.335.85-.335 1.393 0 .77.257 1.456.77 2.056.514.6 1.375.9 2.581.9.648 0 1.28-.113 1.894-.34a4.101 4.101 0 0 0 1.592-1.053 4.567 4.567 0 0 0 1.106-1.801c.223-.68.335-1.382.335-2.107v-1.02zm4.491 8.121a3.494 3.494 0 0 1-.905.323c-.29.057-.615.085-.972.085-.76 0-1.358-.255-1.793-.764-.436-.51-.654-1.127-.654-1.852h-.067c-.491.86-1.223 1.546-2.195 2.056-.972.51-2.061.764-3.267.764-.984 0-1.838-.153-2.564-.459-.726-.305-1.33-.707-1.81-1.206a5.064 5.064 0 0 1-1.09-1.7 5.32 5.32 0 0 1-.368-1.936c0-.544.095-1.122.285-1.733.19-.612.52-1.173.989-1.682.469-.51 1.089-.946 1.86-1.309.77-.362 1.737-.577 2.899-.645l5.16-.306V13.81c0-.43-.05-.883-.15-1.359a2.4 2.4 0 0 0-.72-1.257 3.144 3.144 0 0 0-1.09-.646c-.435-.159-1-.238-1.692-.238-.782 0-1.419.097-1.91.289-.492.193-.883.436-1.174.73-.558.567-.837 1.258-.837 2.074h-2.782c.022-.793.162-1.479.419-2.056A5.186 5.186 0 0 1 86.68 9.8c.58-.611 1.334-1.07 2.262-1.376a9.409 9.409 0 0 1 2.966-.459c1.653 0 2.96.312 3.92.935.962.623 1.643 1.41 2.045 2.362.335.793.503 1.676.503 2.65v8.326c0 .453.084.76.251.918.168.158.397.238.687.238h.235c.09 0 .167-.012.234-.034l.269-.068v2.14z" fill="#fff" stroke="#fff" stroke-width="2" mask="url(#a)"/><path d="M11.441 4.534L7.252 17.04h8.412L11.441 4.534zm7.139 21.07l-1.944-5.71H6.314l-1.91 5.71H1.387L9.766 1.51h3.485l8.412 24.093H18.58zm11.93 0c-.133.045-.3.079-.502.101-.335.068-.838.102-1.508.102-1.251 0-2.156-.362-2.715-1.087-.558-.725-.837-1.767-.837-3.127V1.068h2.848v20.355c0 .59.112 1.031.335 1.326.224.294.626.442 1.207.442h.938c.09 0 .168-.012.235-.034v2.446zm13.071-.238c-.38.113-.843.22-1.39.322-.548.102-1.213.153-1.995.153-.916 0-1.675-.136-2.279-.408-.603-.271-1.078-.622-1.424-1.053a3.906 3.906 0 0 1-.737-1.478 6.753 6.753 0 0 1-.218-1.716V10.889h-3.284v-2.48h3.284V4.023l2.849-.68v5.064h5.026v2.48h-5.026v9.958c0 .838.184 1.438.552 1.8.37.363.944.545 1.726.545.313 0 .637-.012.972-.034.335-.023.648-.057.939-.102a15.5 15.5 0 0 0 1.005-.17v2.48zm14.98.237V14.695c0-1.291-.284-2.3-.854-3.024-.57-.726-1.525-1.088-2.865-1.088-.827 0-1.553.244-2.179.73-.625.488-1.128 1.128-1.508 1.92-.29.635-.464 1.36-.52 2.176a32.587 32.587 0 0 0-.083 2.208v7.986h-2.849V1.068h2.849v9.617a5.095 5.095 0 0 1 2.145-2.022c.916-.464 1.854-.697 2.815-.697 1.944 0 3.413.555 4.407 1.666.994 1.11 1.491 2.662 1.491 4.655v11.316h-2.848zm19.573-10.126c0-.657-.09-1.292-.269-1.904a5.032 5.032 0 0 0-.77-1.597 3.89 3.89 0 0 0-1.374-1.138c-.559-.283-1.218-.425-1.978-.425-.782 0-1.457.147-2.027.442-.57.294-1.05.68-1.441 1.155a4.794 4.794 0 0 0-.872 1.614c-.19.6-.296 1.218-.318 1.853h9.049zm2.882 2.48H69.018c0 .793.145 1.58.436 2.362.29.782.692 1.433 1.206 1.954.804.816 1.843 1.224 3.117 1.224 1.385 0 2.435-.374 3.15-1.122.246-.25.447-.51.603-.782.157-.271.29-.634.403-1.087h2.781a5.926 5.926 0 0 1-.871 2.413 6.177 6.177 0 0 1-1.743 1.835 7.5 7.5 0 0 1-2.01.951 7.83 7.83 0 0 1-2.313.34c-1.207 0-2.285-.232-3.234-.696a7.055 7.055 0 0 1-2.397-1.887 8.243 8.243 0 0 1-1.591-2.905 11.521 11.521 0 0 1-.52-3.483c0-1.042.1-2.022.302-2.94a8.634 8.634 0 0 1 1.005-2.566c.603-1.042 1.453-1.902 2.547-2.582 1.095-.68 2.38-1.02 3.854-1.02 1.095 0 2.073.199 2.933.595.86.397 1.603.935 2.228 1.614.693.77 1.23 1.682 1.61 2.736a9.164 9.164 0 0 1 .535 3.313l-.033 1.733zm14.545-.645l-4.558.271c-.425.023-.86.097-1.307.221a4.195 4.195 0 0 0-1.207.544c-.357.238-.648.55-.871.935-.223.385-.335.85-.335 1.393 0 .77.257 1.456.77 2.056.514.6 1.375.9 2.581.9.648 0 1.28-.113 1.894-.34a4.101 4.101 0 0 0 1.592-1.053 4.567 4.567 0 0 0 1.106-1.801c.223-.68.335-1.382.335-2.107v-1.02zm4.491 8.121a3.494 3.494 0 0 1-.905.323c-.29.057-.615.085-.972.085-.76 0-1.358-.255-1.793-.764-.436-.51-.654-1.127-.654-1.852h-.067c-.491.86-1.223 1.546-2.195 2.056-.972.51-2.061.764-3.267.764-.984 0-1.838-.153-2.564-.459-.726-.305-1.33-.707-1.81-1.206a5.064 5.064 0 0 1-1.09-1.7 5.32 5.32 0 0 1-.368-1.936c0-.544.095-1.122.285-1.733.19-.612.52-1.173.989-1.682.469-.51 1.089-.946 1.86-1.309.77-.362 1.737-.577 2.899-.645l5.16-.306V13.81c0-.43-.05-.883-.15-1.359a2.4 2.4 0 0 0-.72-1.257 3.144 3.144 0 0 0-1.09-.646c-.435-.159-1-.238-1.692-.238-.782 0-1.419.097-1.91.289-.492.193-.883.436-1.174.73-.558.567-.837 1.258-.837 2.074h-2.782c.022-.793.162-1.479.419-2.056A5.186 5.186 0 0 1 86.68 9.8c.58-.611 1.334-1.07 2.262-1.376a9.409 9.409 0 0 1 2.966-.459c1.653 0 2.96.312 3.92.935.962.623 1.643 1.41 2.045 2.362.335.793.503 1.676.503 2.65v8.326c0 .453.084.76.251.918.168.158.397.238.687.238h.235c.09 0 .167-.012.234-.034l.269-.068v2.14z" fill="#fff" stroke="#fff"/></svg>