<svg width="101" height="27" viewBox="0 0 101 27" fill="none" xmlns="http://www.w3.org/2000/svg">
<mask id="path-1-inside-1" fill="white">
<path d="M11.4415 4.5341L7.25227 17.0398H15.6642L11.4415 4.5341ZM18.5799 25.6034L16.6361 19.8943H6.3139L4.40361 25.6034H1.38739L9.7658 1.50965H13.2512L21.6631 25.6034H18.5799ZM30.5107 25.6034C30.3767 25.6487 30.2091 25.6827 30.008 25.7054C29.6729 25.7733 29.1702 25.8073 28.4999 25.8073C27.2487 25.8073 26.3439 25.4448 25.7853 24.7199C25.2267 23.9949 24.9475 22.9528 24.9475 21.5934V1.06787H27.7961V21.4235C27.7961 22.0126 27.9078 22.4544 28.1313 22.7489C28.3547 23.0434 28.7569 23.1906 29.3378 23.1906H30.2761C30.3655 23.1906 30.4437 23.1793 30.5107 23.1567V25.6034ZM43.5811 25.3655C43.2012 25.4788 42.7376 25.5864 42.1902 25.6884C41.6429 25.7903 40.9782 25.8413 40.1962 25.8413C39.2801 25.8413 38.5205 25.7054 37.9173 25.4335C37.314 25.1616 36.8392 24.8105 36.4929 24.38C36.1466 23.9496 35.9009 23.4568 35.7556 22.9018C35.6104 22.3467 35.5378 21.7747 35.5378 21.1857V10.8889H32.2535V8.40815H35.5378V4.02436L38.3865 3.34471V8.40815H43.4135V10.8889H38.3865V20.8458C38.3865 21.6841 38.5708 22.2844 38.9394 22.6469C39.3081 23.0094 39.8834 23.1906 40.6654 23.1906C40.9782 23.1906 41.3021 23.1793 41.6373 23.1567C41.9724 23.134 42.2852 23.1 42.5757 23.0547C42.9108 23.0094 43.2459 22.9528 43.5811 22.8848V25.3655ZM58.5617 25.6034V14.6949C58.5617 13.4036 58.2768 12.3955 57.7071 11.6705C57.1373 10.9455 56.1822 10.583 54.8416 10.583C54.015 10.583 53.2888 10.8266 52.6633 11.3137C52.0377 11.8008 51.535 12.4408 51.1551 13.2337C50.8647 13.868 50.6915 14.593 50.6357 15.4086C50.5798 16.2242 50.5519 16.9605 50.5519 17.6175V25.6034H47.7032V1.06787H50.5519V10.685C51.0658 9.80143 51.7807 9.12745 52.6968 8.66301C53.6128 8.19858 54.5512 7.96637 55.5119 7.96637C57.4557 7.96637 58.9247 8.52141 59.919 9.63152C60.9132 10.7416 61.4103 12.2935 61.4103 14.2872V25.6034H58.5617ZM78.1336 15.4766C78.1336 14.8196 78.0443 14.1852 77.8655 13.5735C77.6868 12.9618 77.4298 12.4294 77.0947 11.9763C76.7372 11.5006 76.2792 11.1211 75.7206 10.8379C75.1621 10.5547 74.503 10.4131 73.7433 10.4131C72.9613 10.4131 72.2855 10.5604 71.7158 10.8549C71.146 11.1494 70.6657 11.5345 70.2747 12.0103C69.8837 12.4861 69.5932 13.0241 69.4033 13.6245C69.2134 14.2249 69.1073 14.8422 69.0849 15.4766H78.1336ZM81.0158 17.9573H69.0179C69.0179 18.7502 69.1631 19.5375 69.4536 20.3191C69.744 21.1007 70.1462 21.752 70.6601 22.2731C71.4644 23.0887 72.5033 23.4965 73.7768 23.4965C75.1621 23.4965 76.2122 23.1227 76.9271 22.3751C77.1729 22.1259 77.374 21.8653 77.5304 21.5934C77.6868 21.3216 77.8208 20.9591 77.9325 20.506H80.7142C80.6024 21.3669 80.312 22.1712 79.8428 22.9188C79.3736 23.6664 78.7927 24.2781 78.1001 24.7538C77.4968 25.1616 76.8266 25.4788 76.0893 25.7054C75.352 25.9319 74.5812 26.0452 73.7768 26.0452C72.5703 26.0452 71.4923 25.813 70.5428 25.3486C69.5932 24.8841 68.7945 24.2554 68.1465 23.4625C67.4316 22.6243 66.901 21.6558 66.5546 20.557C66.2083 19.4582 66.0352 18.2971 66.0352 17.0737C66.0352 16.0316 66.1357 15.0518 66.3368 14.1342C66.5379 13.2167 66.873 12.3615 67.3422 11.5685C67.9455 10.5264 68.7945 9.66551 69.8893 8.98585C70.9841 8.3062 72.2687 7.96637 73.7433 7.96637C74.8381 7.96637 75.8156 8.1646 76.6758 8.56107C77.536 8.95753 78.2788 9.49559 78.9044 10.1752C79.5971 10.9455 80.1333 11.8574 80.5131 12.9109C80.8929 13.9643 81.0716 15.0688 81.0493 16.2242L81.0158 17.9573ZM95.5607 17.3116L91.0029 17.5835C90.5783 17.6061 90.1427 17.6798 89.6958 17.8044C89.249 17.929 88.8468 18.1102 88.4893 18.3481C88.1318 18.586 87.8414 18.8975 87.618 19.2826C87.3946 19.6678 87.2828 20.1322 87.2828 20.6759C87.2828 21.4462 87.5398 22.1315 88.0536 22.7319C88.5675 23.3322 89.4277 23.6324 90.6342 23.6324C91.2821 23.6324 91.9133 23.5191 92.5277 23.2926C93.1421 23.066 93.6728 22.7149 94.1196 22.2391C94.6335 21.7181 95.0021 21.1177 95.2256 20.438C95.449 19.7584 95.5607 19.0561 95.5607 18.3311V17.3116ZM100.052 25.4335C99.7387 25.5921 99.4371 25.6997 99.1467 25.7563C98.8562 25.813 98.5323 25.8413 98.1748 25.8413C97.4151 25.8413 96.8175 25.5864 96.3818 25.0767C95.9461 24.5669 95.7283 23.9496 95.7283 23.2246H95.6612C95.1697 24.0855 94.438 24.7708 93.4661 25.2806C92.4942 25.7903 91.405 26.0452 90.1985 26.0452C89.2154 26.0452 88.3609 25.8923 87.6347 25.5864C86.9086 25.2806 86.3054 24.8785 85.825 24.38C85.3446 23.8816 84.9816 23.3152 84.7358 22.6809C84.49 22.0465 84.3671 21.4009 84.3671 20.7439C84.3671 20.2002 84.4621 19.6225 84.652 19.0108C84.8419 18.3991 85.1715 17.8384 85.6407 17.3286C86.1099 16.8189 86.7299 16.3828 87.5007 16.0203C88.2715 15.6578 89.2378 15.4426 90.3996 15.3746L95.5607 15.0688V13.8114C95.5607 13.381 95.5104 12.9278 95.4099 12.4521C95.3093 11.9763 95.0692 11.5572 94.6894 11.1947C94.3989 10.9229 94.0358 10.7076 93.6002 10.5491C93.1645 10.3905 92.6003 10.3112 91.9077 10.3112C91.1257 10.3112 90.489 10.4075 89.9974 10.6C89.5059 10.7926 89.1149 11.0361 88.8245 11.3307C88.2659 11.897 87.9866 12.588 87.9866 13.4036H85.205C85.2273 12.6107 85.367 11.9254 85.6239 11.3477C85.8809 10.7699 86.2327 10.2545 86.6796 9.80143C87.2605 9.18974 88.0145 8.73099 88.9418 8.42514C89.869 8.11929 90.8576 7.96637 91.9077 7.96637C93.5611 7.96637 94.8681 8.27788 95.8288 8.9009C96.7895 9.52392 97.471 10.3112 97.8731 11.2627C98.2083 12.0556 98.3759 12.9392 98.3759 13.9134V22.2391C98.3759 22.6922 98.4596 22.9981 98.6272 23.1567C98.7948 23.3152 99.0238 23.3945 99.3142 23.3945H99.5488C99.6382 23.3945 99.7164 23.3832 99.7834 23.3606L100.052 23.2926V25.4335Z"/>
</mask>
<path d="M11.4415 4.5341L7.25227 17.0398H15.6642L11.4415 4.5341ZM18.5799 25.6034L16.6361 19.8943H6.3139L4.40361 25.6034H1.38739L9.7658 1.50965H13.2512L21.6631 25.6034H18.5799ZM30.5107 25.6034C30.3767 25.6487 30.2091 25.6827 30.008 25.7054C29.6729 25.7733 29.1702 25.8073 28.4999 25.8073C27.2487 25.8073 26.3439 25.4448 25.7853 24.7199C25.2267 23.9949 24.9475 22.9528 24.9475 21.5934V1.06787H27.7961V21.4235C27.7961 22.0126 27.9078 22.4544 28.1313 22.7489C28.3547 23.0434 28.7569 23.1906 29.3378 23.1906H30.2761C30.3655 23.1906 30.4437 23.1793 30.5107 23.1567V25.6034ZM43.5811 25.3655C43.2012 25.4788 42.7376 25.5864 42.1902 25.6884C41.6429 25.7903 40.9782 25.8413 40.1962 25.8413C39.2801 25.8413 38.5205 25.7054 37.9173 25.4335C37.314 25.1616 36.8392 24.8105 36.4929 24.38C36.1466 23.9496 35.9009 23.4568 35.7556 22.9018C35.6104 22.3467 35.5378 21.7747 35.5378 21.1857V10.8889H32.2535V8.40815H35.5378V4.02436L38.3865 3.34471V8.40815H43.4135V10.8889H38.3865V20.8458C38.3865 21.6841 38.5708 22.2844 38.9394 22.6469C39.3081 23.0094 39.8834 23.1906 40.6654 23.1906C40.9782 23.1906 41.3021 23.1793 41.6373 23.1567C41.9724 23.134 42.2852 23.1 42.5757 23.0547C42.9108 23.0094 43.2459 22.9528 43.5811 22.8848V25.3655ZM58.5617 25.6034V14.6949C58.5617 13.4036 58.2768 12.3955 57.7071 11.6705C57.1373 10.9455 56.1822 10.583 54.8416 10.583C54.015 10.583 53.2888 10.8266 52.6633 11.3137C52.0377 11.8008 51.535 12.4408 51.1551 13.2337C50.8647 13.868 50.6915 14.593 50.6357 15.4086C50.5798 16.2242 50.5519 16.9605 50.5519 17.6175V25.6034H47.7032V1.06787H50.5519V10.685C51.0658 9.80143 51.7807 9.12745 52.6968 8.66301C53.6128 8.19858 54.5512 7.96637 55.5119 7.96637C57.4557 7.96637 58.9247 8.52141 59.919 9.63152C60.9132 10.7416 61.4103 12.2935 61.4103 14.2872V25.6034H58.5617ZM78.1336 15.4766C78.1336 14.8196 78.0443 14.1852 77.8655 13.5735C77.6868 12.9618 77.4298 12.4294 77.0947 11.9763C76.7372 11.5006 76.2792 11.1211 75.7206 10.8379C75.1621 10.5547 74.503 10.4131 73.7433 10.4131C72.9613 10.4131 72.2855 10.5604 71.7158 10.8549C71.146 11.1494 70.6657 11.5345 70.2747 12.0103C69.8837 12.4861 69.5932 13.0241 69.4033 13.6245C69.2134 14.2249 69.1073 14.8422 69.0849 15.4766H78.1336ZM81.0158 17.9573H69.0179C69.0179 18.7502 69.1631 19.5375 69.4536 20.3191C69.744 21.1007 70.1462 21.752 70.6601 22.2731C71.4644 23.0887 72.5033 23.4965 73.7768 23.4965C75.1621 23.4965 76.2122 23.1227 76.9271 22.3751C77.1729 22.1259 77.374 21.8653 77.5304 21.5934C77.6868 21.3216 77.8208 20.9591 77.9325 20.506H80.7142C80.6024 21.3669 80.312 22.1712 79.8428 22.9188C79.3736 23.6664 78.7927 24.2781 78.1001 24.7538C77.4968 25.1616 76.8266 25.4788 76.0893 25.7054C75.352 25.9319 74.5812 26.0452 73.7768 26.0452C72.5703 26.0452 71.4923 25.813 70.5428 25.3486C69.5932 24.8841 68.7945 24.2554 68.1465 23.4625C67.4316 22.6243 66.901 21.6558 66.5546 20.557C66.2083 19.4582 66.0352 18.2971 66.0352 17.0737C66.0352 16.0316 66.1357 15.0518 66.3368 14.1342C66.5379 13.2167 66.873 12.3615 67.3422 11.5685C67.9455 10.5264 68.7945 9.66551 69.8893 8.98585C70.9841 8.3062 72.2687 7.96637 73.7433 7.96637C74.8381 7.96637 75.8156 8.1646 76.6758 8.56107C77.536 8.95753 78.2788 9.49559 78.9044 10.1752C79.5971 10.9455 80.1333 11.8574 80.5131 12.9109C80.8929 13.9643 81.0716 15.0688 81.0493 16.2242L81.0158 17.9573ZM95.5607 17.3116L91.0029 17.5835C90.5783 17.6061 90.1427 17.6798 89.6958 17.8044C89.249 17.929 88.8468 18.1102 88.4893 18.3481C88.1318 18.586 87.8414 18.8975 87.618 19.2826C87.3946 19.6678 87.2828 20.1322 87.2828 20.6759C87.2828 21.4462 87.5398 22.1315 88.0536 22.7319C88.5675 23.3322 89.4277 23.6324 90.6342 23.6324C91.2821 23.6324 91.9133 23.5191 92.5277 23.2926C93.1421 23.066 93.6728 22.7149 94.1196 22.2391C94.6335 21.7181 95.0021 21.1177 95.2256 20.438C95.449 19.7584 95.5607 19.0561 95.5607 18.3311V17.3116ZM100.052 25.4335C99.7387 25.5921 99.4371 25.6997 99.1467 25.7563C98.8562 25.813 98.5323 25.8413 98.1748 25.8413C97.4151 25.8413 96.8175 25.5864 96.3818 25.0767C95.9461 24.5669 95.7283 23.9496 95.7283 23.2246H95.6612C95.1697 24.0855 94.438 24.7708 93.4661 25.2806C92.4942 25.7903 91.405 26.0452 90.1985 26.0452C89.2154 26.0452 88.3609 25.8923 87.6347 25.5864C86.9086 25.2806 86.3054 24.8785 85.825 24.38C85.3446 23.8816 84.9816 23.3152 84.7358 22.6809C84.49 22.0465 84.3671 21.4009 84.3671 20.7439C84.3671 20.2002 84.4621 19.6225 84.652 19.0108C84.8419 18.3991 85.1715 17.8384 85.6407 17.3286C86.1099 16.8189 86.7299 16.3828 87.5007 16.0203C88.2715 15.6578 89.2378 15.4426 90.3996 15.3746L95.5607 15.0688V13.8114C95.5607 13.381 95.5104 12.9278 95.4099 12.4521C95.3093 11.9763 95.0692 11.5572 94.6894 11.1947C94.3989 10.9229 94.0358 10.7076 93.6002 10.5491C93.1645 10.3905 92.6003 10.3112 91.9077 10.3112C91.1257 10.3112 90.489 10.4075 89.9974 10.6C89.5059 10.7926 89.1149 11.0361 88.8245 11.3307C88.2659 11.897 87.9866 12.588 87.9866 13.4036H85.205C85.2273 12.6107 85.367 11.9254 85.6239 11.3477C85.8809 10.7699 86.2327 10.2545 86.6796 9.80143C87.2605 9.18974 88.0145 8.73099 88.9418 8.42514C89.869 8.11929 90.8576 7.96637 91.9077 7.96637C93.5611 7.96637 94.8681 8.27788 95.8288 8.9009C96.7895 9.52392 97.471 10.3112 97.8731 11.2627C98.2083 12.0556 98.3759 12.9392 98.3759 13.9134V22.2391C98.3759 22.6922 98.4596 22.9981 98.6272 23.1567C98.7948 23.3152 99.0238 23.3945 99.3142 23.3945H99.5488C99.6382 23.3945 99.7164 23.3832 99.7834 23.3606L100.052 23.2926V25.4335Z" fill="white" stroke="white" stroke-width="2" mask="url(#path-1-inside-1)"/>
<path d="M11.4415 4.5341L7.25227 17.0398H15.6642L11.4415 4.5341ZM18.5799 25.6034L16.6361 19.8943H6.3139L4.40361 25.6034H1.38739L9.7658 1.50965H13.2512L21.6631 25.6034H18.5799ZM30.5107 25.6034C30.3767 25.6487 30.2091 25.6827 30.008 25.7054C29.6729 25.7733 29.1702 25.8073 28.4999 25.8073C27.2487 25.8073 26.3439 25.4448 25.7853 24.7199C25.2267 23.9949 24.9475 22.9528 24.9475 21.5934V1.06787H27.7961V21.4235C27.7961 22.0126 27.9078 22.4544 28.1313 22.7489C28.3547 23.0434 28.7569 23.1906 29.3378 23.1906H30.2761C30.3655 23.1906 30.4437 23.1793 30.5107 23.1567V25.6034ZM43.5811 25.3655C43.2012 25.4788 42.7376 25.5864 42.1902 25.6884C41.6429 25.7903 40.9782 25.8413 40.1962 25.8413C39.2801 25.8413 38.5205 25.7054 37.9173 25.4335C37.314 25.1616 36.8392 24.8105 36.4929 24.38C36.1466 23.9496 35.9009 23.4568 35.7556 22.9018C35.6104 22.3467 35.5378 21.7747 35.5378 21.1857V10.8889H32.2535V8.40815H35.5378V4.02436L38.3865 3.34471V8.40815H43.4135V10.8889H38.3865V20.8458C38.3865 21.6841 38.5708 22.2844 38.9394 22.6469C39.3081 23.0094 39.8834 23.1906 40.6654 23.1906C40.9782 23.1906 41.3021 23.1793 41.6373 23.1567C41.9724 23.134 42.2852 23.1 42.5757 23.0547C42.9108 23.0094 43.2459 22.9528 43.5811 22.8848V25.3655ZM58.5617 25.6034V14.6949C58.5617 13.4036 58.2768 12.3955 57.7071 11.6705C57.1373 10.9455 56.1822 10.583 54.8416 10.583C54.015 10.583 53.2888 10.8266 52.6633 11.3137C52.0377 11.8008 51.535 12.4408 51.1551 13.2337C50.8647 13.868 50.6915 14.593 50.6357 15.4086C50.5798 16.2242 50.5519 16.9605 50.5519 17.6175V25.6034H47.7032V1.06787H50.5519V10.685C51.0658 9.80143 51.7807 9.12745 52.6968 8.66301C53.6128 8.19858 54.5512 7.96637 55.5119 7.96637C57.4557 7.96637 58.9247 8.52141 59.919 9.63152C60.9132 10.7416 61.4103 12.2935 61.4103 14.2872V25.6034H58.5617ZM78.1336 15.4766C78.1336 14.8196 78.0443 14.1852 77.8655 13.5735C77.6868 12.9618 77.4298 12.4294 77.0947 11.9763C76.7372 11.5006 76.2792 11.1211 75.7206 10.8379C75.1621 10.5547 74.503 10.4131 73.7433 10.4131C72.9613 10.4131 72.2855 10.5604 71.7158 10.8549C71.146 11.1494 70.6657 11.5345 70.2747 12.0103C69.8837 12.4861 69.5932 13.0241 69.4033 13.6245C69.2134 14.2249 69.1073 14.8422 69.0849 15.4766H78.1336ZM81.0158 17.9573H69.0179C69.0179 18.7502 69.1631 19.5375 69.4536 20.3191C69.744 21.1007 70.1462 21.752 70.6601 22.2731C71.4644 23.0887 72.5033 23.4965 73.7768 23.4965C75.1621 23.4965 76.2122 23.1227 76.9271 22.3751C77.1729 22.1259 77.374 21.8653 77.5304 21.5934C77.6868 21.3216 77.8208 20.9591 77.9325 20.506H80.7142C80.6024 21.3669 80.312 22.1712 79.8428 22.9188C79.3736 23.6664 78.7927 24.2781 78.1001 24.7538C77.4968 25.1616 76.8266 25.4788 76.0893 25.7054C75.352 25.9319 74.5812 26.0452 73.7768 26.0452C72.5703 26.0452 71.4923 25.813 70.5428 25.3486C69.5932 24.8841 68.7945 24.2554 68.1465 23.4625C67.4316 22.6243 66.901 21.6558 66.5546 20.557C66.2083 19.4582 66.0352 18.2971 66.0352 17.0737C66.0352 16.0316 66.1357 15.0518 66.3368 14.1342C66.5379 13.2167 66.873 12.3615 67.3422 11.5685C67.9455 10.5264 68.7945 9.66551 69.8893 8.98585C70.9841 8.3062 72.2687 7.96637 73.7433 7.96637C74.8381 7.96637 75.8156 8.1646 76.6758 8.56107C77.536 8.95753 78.2788 9.49559 78.9044 10.1752C79.5971 10.9455 80.1333 11.8574 80.5131 12.9109C80.8929 13.9643 81.0716 15.0688 81.0493 16.2242L81.0158 17.9573ZM95.5607 17.3116L91.0029 17.5835C90.5783 17.6061 90.1427 17.6798 89.6958 17.8044C89.249 17.929 88.8468 18.1102 88.4893 18.3481C88.1318 18.586 87.8414 18.8975 87.618 19.2826C87.3946 19.6678 87.2828 20.1322 87.2828 20.6759C87.2828 21.4462 87.5398 22.1315 88.0536 22.7319C88.5675 23.3322 89.4277 23.6324 90.6342 23.6324C91.2821 23.6324 91.9133 23.5191 92.5277 23.2926C93.1421 23.066 93.6728 22.7149 94.1196 22.2391C94.6335 21.7181 95.0021 21.1177 95.2256 20.438C95.449 19.7584 95.5607 19.0561 95.5607 18.3311V17.3116ZM100.052 25.4335C99.7387 25.5921 99.4371 25.6997 99.1467 25.7563C98.8562 25.813 98.5323 25.8413 98.1748 25.8413C97.4151 25.8413 96.8175 25.5864 96.3818 25.0767C95.9461 24.5669 95.7283 23.9496 95.7283 23.2246H95.6612C95.1697 24.0855 94.438 24.7708 93.4661 25.2806C92.4942 25.7903 91.405 26.0452 90.1985 26.0452C89.2154 26.0452 88.3609 25.8923 87.6347 25.5864C86.9086 25.2806 86.3054 24.8785 85.825 24.38C85.3446 23.8816 84.9816 23.3152 84.7358 22.6809C84.49 22.0465 84.3671 21.4009 84.3671 20.7439C84.3671 20.2002 84.4621 19.6225 84.652 19.0108C84.8419 18.3991 85.1715 17.8384 85.6407 17.3286C86.1099 16.8189 86.7299 16.3828 87.5007 16.0203C88.2715 15.6578 89.2378 15.4426 90.3996 15.3746L95.5607 15.0688V13.8114C95.5607 13.381 95.5104 12.9278 95.4099 12.4521C95.3093 11.9763 95.0692 11.5572 94.6894 11.1947C94.3989 10.9229 94.0358 10.7076 93.6002 10.5491C93.1645 10.3905 92.6003 10.3112 91.9077 10.3112C91.1257 10.3112 90.489 10.4075 89.9974 10.6C89.5059 10.7926 89.1149 11.0361 88.8245 11.3307C88.2659 11.897 87.9866 12.588 87.9866 13.4036H85.205C85.2273 12.6107 85.367 11.9254 85.6239 11.3477C85.8809 10.7699 86.2327 10.2545 86.6796 9.80143C87.2605 9.18974 88.0145 8.73099 88.9418 8.42514C89.869 8.11929 90.8576 7.96637 91.9077 7.96637C93.5611 7.96637 94.8681 8.27788 95.8288 8.9009C96.7895 9.52392 97.471 10.3112 97.8731 11.2627C98.2083 12.0556 98.3759 12.9392 98.3759 13.9134V22.2391C98.3759 22.6922 98.4596 22.9981 98.6272 23.1567C98.7948 23.3152 99.0238 23.3945 99.3142 23.3945H99.5488C99.6382 23.3945 99.7164 23.3832 99.7834 23.3606L100.052 23.2926V25.4335Z" fill="white" stroke="white"/>
</svg>
