<svg width="252" height="101" viewBox="0 0 252 101" fill="none" xmlns="http://www.w3.org/2000/svg">
<path d="M71 29.166C71 26.9569 72.7909 25.166 75 25.166H248C250.209 25.166 252 26.9569 252 29.166V82.166C252 84.3752 250.209 86.166 248 86.166H75C72.7909 86.166 71 84.3752 71 82.166V29.166Z" fill="white" fill-opacity="0.2"/>
<path d="M115.917 47.0572H116.977V42.8544H119.793C122.231 42.8544 123.14 41.2401 123.14 39.8731C123.14 38.3898 122.322 36.8773 119.793 36.8773H115.917V47.0572ZM119.884 41.9382H116.977V37.7935H119.884C121.656 37.7935 122.125 38.986 122.125 39.8731C122.125 40.8475 121.55 41.9382 119.884 41.9382Z" fill="white"/>
<path d="M127.511 47.2317C129.494 47.2317 130.827 45.7774 130.827 43.3343C130.827 40.862 129.494 39.4514 127.511 39.4514C125.527 39.4514 124.195 40.9056 124.195 43.3488C124.195 45.8211 125.527 47.2317 127.511 47.2317ZM127.511 46.3155C126.072 46.3155 125.3 45.1957 125.3 43.3488C125.3 41.4146 126.072 40.3676 127.511 40.3676C128.949 40.3676 129.721 41.4873 129.721 43.3343C129.721 45.1957 128.919 46.3155 127.511 46.3155Z" fill="white"/>
<path d="M134.171 47.0572H135.14L136.654 42.549C136.73 42.3163 136.851 41.9527 136.972 41.5601C137.093 41.9527 137.23 42.3308 137.305 42.5635L138.85 47.0572H139.804L141.712 39.6259H140.652L139.425 44.9776C139.365 45.2684 139.289 45.5593 139.228 45.8647C139.137 45.5593 139.062 45.2684 138.971 44.9776L137.351 39.6259H136.624L135.004 44.9776C134.928 45.2539 134.852 45.5011 134.777 45.792L134.595 44.9776L133.323 39.6259H132.263L134.171 47.0572Z" fill="white"/>
<path d="M146.365 47.2317C147.259 47.2317 148.122 46.8681 148.727 46.3882L148.152 45.7047C147.561 46.1265 146.971 46.2864 146.411 46.2864C145.093 46.2864 144.306 45.2684 144.124 43.756H149.394C149.424 43.4361 149.424 43.2034 149.424 43.0434C149.424 40.5421 148.016 39.4514 146.365 39.4514C144.382 39.4514 143.004 40.862 143.004 43.3343C143.004 45.4284 144.276 47.2317 146.365 47.2317ZM144.094 42.8398C144.185 41.1529 145.124 40.3676 146.365 40.3676C147.183 40.3676 148.334 40.8329 148.349 42.8398H144.094Z" fill="white"/>
<path d="M151.548 47.0572H152.608V42.8544C152.608 41.022 153.713 40.4694 154.486 40.4694C154.985 40.4694 155.288 40.6293 155.485 40.7457L155.652 39.7568C155.44 39.6113 155.046 39.4514 154.561 39.4514C153.607 39.4514 152.956 39.9604 152.608 40.673V39.6259H151.548V47.0572Z" fill="white"/>
<path d="M160.147 47.2317C161.04 47.2317 161.903 46.8681 162.509 46.3882L161.933 45.7047C161.343 46.1265 160.752 46.2864 160.192 46.2864C158.875 46.2864 158.087 45.2684 157.906 43.756H163.175C163.205 43.4361 163.205 43.2034 163.205 43.0434C163.205 40.5421 161.797 39.4514 160.147 39.4514C158.163 39.4514 156.785 40.862 156.785 43.3343C156.785 45.4284 158.057 47.2317 160.147 47.2317ZM157.875 42.8398C157.966 41.1529 158.905 40.3676 160.147 40.3676C160.964 40.3676 162.115 40.8329 162.13 42.8398H157.875Z" fill="white"/>
<path d="M167.995 47.2317C168.964 47.2317 169.584 46.8681 170.054 46.4173V47.0572H171.114V36.5574L170.054 37.0664V40.1494C169.584 39.7858 168.949 39.4514 167.995 39.4514C166.026 39.4514 164.8 40.8911 164.8 43.3343C164.8 45.7047 166.011 47.2317 167.995 47.2317ZM168.116 46.3155C166.753 46.3155 165.905 44.9921 165.905 43.3343C165.905 41.4292 166.692 40.3676 168.116 40.3676C169.1 40.3676 169.736 40.9493 170.054 41.4437V45.1521C169.63 45.8938 168.888 46.3155 168.116 46.3155Z" fill="white"/>
<path d="M180.532 47.2317C182.47 47.2317 183.636 45.8501 183.636 43.3343C183.636 40.8911 182.379 39.4514 180.441 39.4514C179.684 39.4514 178.881 39.8295 178.382 40.353V36.5574L177.322 37.0664V47.0572H178.382V46.3882C178.881 46.7954 179.442 47.2317 180.532 47.2317ZM180.365 46.3155C179.593 46.3155 178.806 45.8501 178.382 45.1521V41.5019C178.669 41.022 179.411 40.3676 180.365 40.3676C181.804 40.3676 182.531 41.4292 182.531 43.3343C182.531 45.1666 181.819 46.3155 180.365 46.3155Z" fill="white"/>
<path d="M186.748 49.8785H187.793L191.745 39.6259H190.609L188.626 44.9049L188.353 45.6611C188.262 45.3993 188.186 45.1521 188.096 44.9049L186.142 39.6259H185.067L187.899 46.8245L186.748 49.8785Z" fill="white"/>
<g clip-path="url(#clip0)">
<path fill-rule="evenodd" clip-rule="evenodd" d="M174.173 65.8209V65.775C174.173 61.1549 177.771 57.244 182.833 57.244C185.758 57.244 187.556 58.0451 189.283 59.4808L187.413 61.6746C186.118 60.5892 184.847 59.9058 182.713 59.9058C179.618 59.9058 177.265 62.5676 177.265 65.7262V65.775C177.265 69.1661 179.545 71.6642 182.976 71.6642C184.557 71.6642 185.995 71.1704 187.027 70.4152V67.3284V66.6795L189.882 64.8073V71.736C188.228 73.1258 185.855 74.3031 182.88 74.3031C177.627 74.3031 174.173 70.6277 174.173 65.8209Z" fill="white"/>
<path fill-rule="evenodd" clip-rule="evenodd" d="M119.207 57.8087L111.818 74.4227H114.84L116.568 70.4401L117.649 67.8701L120.525 61.2745L123.428 67.8701L124.509 70.4401L126.21 74.4227H129.329L121.943 57.8087H119.207Z" fill="white"/>
<path fill-rule="evenodd" clip-rule="evenodd" d="M160.555 57.4663L153.166 74.0803H156.188L157.916 70.0977L158.997 67.5277L161.873 60.9321L164.775 67.5277L165.857 70.0977L167.558 74.0803H170.677L163.291 57.4663H160.555Z" fill="white"/>
<path fill-rule="evenodd" clip-rule="evenodd" d="M209.835 65.8795C209.835 69.084 207.509 71.6999 204.174 71.6999C200.842 71.6999 198.466 69.0381 198.466 65.8336V65.7848C198.466 62.5803 200.792 59.9644 204.124 59.9644C207.459 59.9644 209.835 62.6262 209.835 65.8336V65.8795ZM204.174 57.3026C199.015 57.3026 195.37 61.1905 195.37 65.8336V65.8795C195.37 70.5226 198.968 74.3617 204.124 74.3617C209.283 74.3617 212.927 70.4738 212.927 65.8336V65.7848C212.927 61.1417 209.329 57.3026 204.174 57.3026Z" fill="white"/>
<path fill-rule="evenodd" clip-rule="evenodd" d="M230.621 57.5846V68.9898L221.628 57.5846H218.892V74.0809H221.795V62.3454L231.054 74.0809H233.524V57.5846H230.621Z" fill="white"/>
<path fill-rule="evenodd" clip-rule="evenodd" d="M144.586 67.8347C146.936 67.1743 148.59 65.549 148.59 62.8384V62.7925C148.59 61.3539 148.087 60.1278 147.199 59.2348C146.12 58.1954 144.466 57.5837 142.356 57.5837H134.87V74.08H137.004H137.822V72.2452V68.3286V67.8175V60.2226H142.116C142.487 60.2226 142.823 60.2628 143.142 60.3173C144.694 60.5872 145.594 61.4917 145.594 62.9562V63.005C145.594 64.6761 144.249 65.7615 142.139 65.7615H140.5L139.354 68.3286H139.567H141.517L145.641 74.08H149.119L144.586 67.8347Z" fill="white"/>
</g>
<path d="M57.4867 70.08C74.6478 70.08 88.5597 56.1506 88.5597 38.9677C88.5597 21.7848 74.6478 7.85535 57.4867 7.85535C40.3255 7.85535 26.4136 21.7848 26.4136 38.9677C26.4136 56.1506 40.3255 70.08 57.4867 70.08Z" fill="#01D5E3"/>
<path d="M79.6185 30.4789C81.8453 33.4975 82.7018 36.2235 82.7018 39.9282C82.7018 44.4218 80.8518 48.5724 77.7 51.9341L79.6185 59.1033H85.4425L91.5749 52.1399L93.2194 41.952L93.562 35.8805L87.4981 29.02C82.1067 28.3705 79.4802 28.8568 79.6185 30.4789Z" fill="#1CB0F0"/>
<path d="M11.8194 59.9263L12.8815 64.1455C12.8815 64.1455 25.4203 89.9067 53.6499 99.4771C53.6499 99.4771 79.3326 88.5003 90.7409 69.8741L74.9934 56.1188C74.9934 56.1188 67.4564 62.1217 56.2536 62.1217C45.0509 62.1217 29.8398 55.4327 29.8398 41.6431C29.8398 27.8535 45.599 22.8111 45.599 22.8111L38.8842 21.1646H21.7203L10.8259 47.4402L11.8194 59.9263Z" fill="#1CB0F0"/>
<path d="M106.683 30.9679C106.204 30.4877 93.9801 15.6347 55.8496 2.49684C54.6444 1.67133 53.9912 1.41647 53.8898 1.73226C18.4724 10.7751 1.09644 29.7798 1.09644 30.9679C1.09644 32.156 6.16679 50.0131 9.45568 57.2852C9.72975 57.9026 14.1149 65.655 17.3695 69.8742C15.451 65.655 13.3612 61.9846 13.3612 55.673C13.3612 37.87 27.1334 23.3943 44.3658 22.7769C44.7769 22.7769 45.2223 22.7769 45.6334 22.8112L41.5223 18.6949C41.5223 18.6949 58.0695 15.9164 79.3101 28.7798C79.3101 28.7798 79.6185 29.4316 79.3101 31.3525C79.3101 31.3525 89.3138 35.6746 90.1703 44.0787C91.0268 52.4828 85.7166 57.2852 81.4342 57.9712C81.4342 57.9712 83.6611 54.5067 80.2351 52.6543C79.5157 52.2427 78.6592 52.0712 77.8027 52.1055C71.2592 52.1055 70.5055 59.5834 70.5055 59.5834C70.437 59.9608 70.437 60.3381 70.437 60.7154C70.437 60.7154 69.3407 71.6579 88.7999 71.4521C88.7999 71.4521 98.6666 60.2695 101.27 50.2189C102.23 46.5142 102.915 43.7357 103.36 41.6775C104.456 38.7618 105.518 34.4667 106.546 31.3452L106.683 30.9679Z" fill="#3B84F8"/>
<path opacity="0.895424" d="M70.8479 32.1071C71.122 31.9698 72.0127 31.5239 73.0405 30.4605C75.0961 30.735 77.1174 31.3867 77.1174 31.3867C73.3831 29.1227 68.2785 27.7849 62.6257 27.8192C62.6257 27.8192 64.7841 30.9065 70.7794 32.1757C70.7794 32.1757 70.8137 32.1414 70.8479 32.1071Z" fill="#109FDD"/>
<path d="M107.06 29.278C86.4359 11.4384 60.3647 2.16874 54.9517 0.384777L54.4378 0.209878L53.7527 0L52.5536 0.384777C47.1406 2.16874 21.0694 11.4384 0.445369 29.278L0 29.6628L0.102778 30.2575C0.137037 30.3974 2.36388 43.9346 9.96942 59.2207C14.4574 68.2105 19.9046 76.011 26.1398 82.4822C33.7796 90.3876 42.6869 96.2293 52.5878 99.8672L53.1703 100.077L53.7527 100.287L54.3693 100.042L54.9517 99.8322C64.8526 96.1943 73.7258 90.3527 81.3998 82.4473C87.635 76.011 93.0822 68.1755 97.5702 59.1857C105.176 43.9346 107.437 30.3624 107.437 30.2225L107.54 29.6278L107.06 29.278ZM95.6859 58.2413C91.3007 67.0212 85.9906 74.6817 79.8924 80.9781C72.3211 88.7786 63.5508 94.5153 53.7527 98.0482C43.9545 94.5153 35.1842 88.8136 27.6129 81.0131C21.5148 74.7167 16.2046 67.0911 11.8194 58.3112C5.2074 45.0889 2.74073 33.2308 2.22685 30.5023C23.3648 12.4178 50.0869 3.39303 53.7527 2.20372C57.3841 3.39303 84.1406 12.4178 105.278 30.5023C104.765 33.1958 102.264 45.0539 95.6859 58.2413Z" fill="#01D5E3"/>
<defs>
<clipPath id="clip0">
<rect width="121.939" height="17.4199" fill="white" transform="translate(111.818 57.0513)"/>
</clipPath>
</defs>
</svg>
