<svg width="55" height="50" fill="none" xmlns="http://www.w3.org/2000/svg"><path d="M29.345 34.906c8.548 0 15.477-6.938 15.477-15.497 0-8.558-6.93-15.496-15.477-15.496-8.548 0-15.477 6.938-15.477 15.496 0 8.559 6.93 15.497 15.477 15.497z" fill="#9EBFFF"/><path d="M40.368 15.181c1.11 1.504 1.536 2.862 1.536 4.707 0 2.238-.922 4.305-2.491 5.98l.955 3.57h2.901l3.055-3.468.819-5.074.17-3.024-3.02-3.418c-2.685-.323-3.994-.08-3.925.727z" fill="#fff"/><path d="M6.598 29.849l.529 2.101s6.245 12.832 20.306 17.599c0 0 12.793-5.468 18.475-14.745l-7.844-6.852s-3.754 2.99-9.334 2.99-13.156-3.332-13.156-10.2c0-6.868 7.85-9.38 7.85-9.38l-3.345-.82h-8.55L6.103 23.63l.495 6.219z" fill="#fff"/><path d="M53.849 15.425c-.24-.24-6.328-7.638-25.32-14.181-.6-.412-.926-.539-.977-.381C9.912 5.367 1.257 14.833 1.257 15.425c0 .592 2.525 9.486 4.163 13.108.137.308 2.321 4.17 3.942 6.27-.956-2.1-1.996-3.93-1.996-7.073 0-8.867 6.86-16.078 15.443-16.385.204 0 .426 0 .631.017l-2.048-2.05s8.242-1.384 18.822 5.023c0 0 .154.324 0 1.281 0 0 4.983 2.153 5.41 6.34.426 4.185-2.219 6.577-4.352 6.919 0 0 1.11-1.726-.597-2.648a2.263 2.263 0 0 0-1.212-.274c-3.259 0-3.634 3.725-3.634 3.725-.035.188-.035.376-.035.564 0 0-.545 5.45 9.147 5.348 0 0 4.914-5.57 6.211-10.577.478-1.845.82-3.229 1.041-4.254.546-1.452 1.075-3.591 1.587-5.146l.069-.188z" fill="#28548B"/><path opacity=".895" d="M36 15.992c.136-.068.58-.29 1.091-.82 1.024.137 2.031.462 2.031.462-1.86-1.128-4.403-1.794-7.218-1.777 0 0 1.075 1.537 4.061 2.17l.034-.035z" fill="#fff"/><path d="M54.036 14.583C43.764 5.697 30.778 1.08 28.082.192l-.256-.087L27.484 0l-.597.192C24.191 1.08 11.205 5.697.933 14.583l-.222.192.05.296c.018.07 1.127 6.812 4.915 14.426 2.236 4.478 4.949 8.363 8.055 11.587 3.805 3.937 8.242 6.847 13.173 8.659l.29.104.29.105.308-.122.29-.105c4.931-1.812 9.35-4.721 13.173-8.659 3.106-3.206 5.82-7.108 8.054-11.586 3.789-7.597 4.915-14.357 4.915-14.426l.051-.297-.239-.174zM48.371 29.01c-2.184 4.374-4.83 8.19-7.867 11.325-3.77 3.886-8.14 6.743-13.02 8.503-4.88-1.76-9.248-4.6-13.02-8.485-3.037-3.136-5.682-6.934-7.866-11.308-3.294-6.586-4.522-12.492-4.778-13.851C12.348 6.185 25.659 1.69 27.484 1.098c1.81.592 15.136 5.087 25.665 14.095-.256 1.342-1.502 7.248-4.778 13.816z" fill="#9EBFFF"/></svg>