<svg width="45" height="42" fill="none" xmlns="http://www.w3.org/2000/svg"><path d="M24.063 29.316c7.178 0 12.998-5.827 12.998-13.015 0-7.188-5.82-13.015-12.998-13.015-7.18 0-12.999 5.827-12.999 13.015 0 7.188 5.82 13.015 12.998 13.015z" fill="#95DFFF"/><path d="M33.32 12.75c.932 1.263 1.29 2.403 1.29 3.953 0 1.88-.774 3.616-2.092 5.022l.802 2.999h2.437l2.565-2.913.688-4.262.143-2.54-2.536-2.87c-2.256-.271-3.354-.068-3.297.61z" fill="#fff"/><path d="M4.959 25.068l.444 1.765s5.245 10.777 17.054 14.78c0 0 10.744-4.592 15.516-12.383l-6.587-5.754s-3.153 2.51-7.84 2.51c-4.686 0-11.05-2.797-11.05-8.566 0-5.768 6.593-7.878 6.593-7.878l-2.809-.688H9.1L4.543 19.845l.416 5.223z" fill="#fff"/><path d="M44.642 12.954c-.2-.2-5.314-6.414-21.265-11.91-.504-.345-.777-.451-.82-.32C7.741 4.508.473 12.459.473 12.955c0 .497 2.12 7.968 3.497 11.01.114.258 1.949 3.5 3.31 5.266-.803-1.765-1.677-3.3-1.677-5.94 0-7.448 5.761-13.504 12.97-13.762.172 0 .358 0 .53.014l-1.72-1.722s6.923-1.162 15.808 4.22c0 0 .129.272 0 1.075 0 0 4.185 1.808 4.543 5.324.358 3.516-1.863 5.524-3.654 5.811 0 0 .931-1.449-.502-2.224a1.9 1.9 0 0 0-1.018-.23c-2.737 0-3.052 3.129-3.052 3.129-.029.158-.029.316-.029.473 0 0-.458 4.578 7.682 4.492 0 0 4.127-4.678 5.216-8.883.402-1.55.688-2.712.875-3.573.458-1.22.902-3.016 1.332-4.322l.058-.158z" fill="#019FE3"/><path opacity=".895" d="M29.65 13.431c.116-.057.488-.244.918-.689.86.115 1.706.388 1.706.388-1.563-.947-3.698-1.507-6.063-1.493 0 0 .903 1.292 3.411 1.823l.029-.029z" fill="#fff"/><path d="M44.8 12.248C36.172 4.785 25.266.908 23.002.16l-.215-.073L22.5 0l-.502.161C19.734.907 8.828 4.785.2 12.248l-.186.16.043.25c.014.058.946 5.72 4.128 12.115 1.877 3.76 4.156 7.024 6.764 9.731 3.196 3.307 6.922 5.75 11.064 7.273l.243.087.244.088.258-.102.244-.088c4.141-1.522 7.853-3.966 11.063-7.273 2.609-2.692 4.887-5.97 6.765-9.73 3.181-6.38 4.127-12.058 4.127-12.116l.043-.25-.2-.145zm-4.758 12.115c-1.835 3.673-4.056 6.878-6.607 9.512-3.167 3.263-6.836 5.663-10.935 7.14-4.099-1.477-7.768-3.862-10.935-7.126-2.55-2.634-4.772-5.823-6.607-9.496C2.193 18.862 1.161 13.9.946 12.76 9.788 5.195 20.966 1.42 22.5.922c1.52.497 12.712 4.273 21.554 11.838-.215 1.127-1.26 6.087-4.013 11.603z" fill="#9EBFFF"/></svg>