<svg width="138" height="89" fill="none" xmlns="http://www.w3.org/2000/svg"><path d="M64.68 29.233l.441.23-.015.516-3.713 2.16-.434-.747 3.72-2.16zm-15.839 9.17l.427.746 3.926-2.27-.427-.747-3.926 2.27zm6.177-3.541l.427.746 3.712-2.167-.434-.747-3.705 2.168zm18.24-5.63l-.443.23.016.517 3.713 2.16.426-.747-3.712-2.16zm15.838 9.17l-.427.747-3.926-2.27.427-.747 3.926 2.27zm-6.178-3.54l-.426.746-3.713-2.167.435-.747 3.704 2.168z" fill="#fff"/><path fill-rule="evenodd" clip-rule="evenodd" d="M69.34 15.688h-.853v-4.31h.853v4.31zm0 6.9l-.419.166-.434-.167v-4.31h.853v4.31zM68.487 4.24h.853v4.549h-.853v-4.55z" fill="#fff"/><path d="M69.916.627l21.518 12.48.719.422.229.135v27.168l-.23.135-.718.42-10.759 6.241-5.537 3.215-.695.397v-4.406l.229-.135 4.1-2.374 7.677-4.454 2.133-1.23V18.062l-17.71 10.281v29.598l-.229.135-.719.421-.719.42-.229.136-.229-.135-.719-.42-.718-.422-.23-.135V28.343L49.355 18.063v20.079h.008v.508l1.382.794 8.42 4.882 4.1 2.374.23.135v4.406l-.688-.397-5.537-3.215-10.76-6.24-.718-.421-.23-.135v-27.16l.23-.135.719-.421C53.675 8.956 60.848 4.787 68.02.627l.718-.42.23-.136.229.135.718.421zm-18.673 14.14L68.968 25.05l17.726-10.282-16.24-9.424-1.486-.865-2.93 1.699-.206.119a32817.1 32817.1 0 0 0-14.59 8.471zm53.951 72.082a6.61 6.61 0 0 1-4.842 2.087c-1.943 0-3.697-.722-4.937-2.024-1.169-1.23-1.888-2.985-1.888-5.153 0-1.675.569-3.231 1.572-4.43.98-1.167 2.362-2 4.02-2.255h.009a7.805 7.805 0 0 1 1.121-.071c.364 0 .727.032 1.083.071h.015a6.858 6.858 0 0 1 4.14 2.287 6.715 6.715 0 0 1 1.611 4.406c-.008 2.096-.742 3.843-1.904 5.082zm-4.115-9.885a5.97 5.97 0 0 0-1.683 0c-1.153.183-2.109.738-2.772 1.58-.656.834-1.035 1.953-1.035 3.27 0 1.565.498 2.835 1.32 3.732.852.921 2.06 1.437 3.435 1.437 1.335 0 2.544-.508 3.397-1.445.806-.88 1.303-2.143 1.303-3.723 0-1.247-.41-2.366-1.106-3.215-.695-.85-1.69-1.438-2.859-1.636zm24.464-1.16c.134-.325.442-.587.908-.587h10.475c.482 0 .798.254.932.58a.994.994 0 0 1 .079.397c0 .135-.024.27-.079.397-.142.325-.45.58-.932.58h-4.234c0 2.143.008 3.691.008 5.24.008 2.087.008 4.302.008 5.517a.98.98 0 0 1-.293.723 1.074 1.074 0 0 1-.742.301c-.253 0-.53-.103-.727-.301a1.016 1.016 0 0 1-.276-.723V77.17h-4.211c-.466 0-.774-.254-.908-.587a.967.967 0 0 1-.079-.39.853.853 0 0 1 .071-.388zm-4.542 12.736l-3.997-4.36h-3.531v3.669c0 .468-.269.77-.616.905a1.126 1.126 0 0 1-.79 0 .91.91 0 0 1-.608-.89V76.21c0-.294.11-.54.292-.715.181-.175.434-.27.727-.27h4.786c1.73 0 3.065.477 3.99 1.239 1.034.857 1.556 2.072 1.556 3.398 0 1.127-.316 2.096-.996 2.834-.545.604-1.327 1.048-2.354 1.294l2.939 3.192c.355.357.403.746.284 1.064a1.022 1.022 0 0 1-.229.35.987.987 0 0 1-.347.213c-.34.135-.767.088-1.106-.27zm-3.721-11.41h-3.807v5.217h4.021c1.153-.032 1.982-.318 2.519-.762.514-.429.751-1.009.751-1.644v-.071a2.495 2.495 0 0 0-.972-1.97c-.584-.476-1.445-.77-2.512-.77zm-28.674 6.511c-.9.77-2.22 1.246-3.958 1.246h-3.34v2.994c0 .468-.27.77-.61.897a1.12 1.12 0 0 1-.79 0 .9.9 0 0 1-.607-.882V76.21c0-.286.118-.532.3-.707a1.02 1.02 0 0 1 .719-.278h4.384c1.69 0 2.97.532 3.863 1.342 1.042.945 1.548 2.279 1.548 3.612 0 1.35-.49 2.597-1.509 3.462zm-3.879-6.55H81.3v5.93h3.515c1.177-.031 2.015-.388 2.552-.912a2.57 2.57 0 0 0 .766-1.858v-.08a3.047 3.047 0 0 0-1.003-2.215c-.569-.524-1.375-.865-2.402-.865zM57.01 86.849a6.612 6.612 0 0 1-4.842 2.087c-1.944 0-3.697-.722-4.937-2.024-1.17-1.23-1.888-2.985-1.888-5.153 0-1.675.569-3.231 1.572-4.43.98-1.167 2.362-2 4.02-2.255h.008a7.808 7.808 0 0 1 1.122-.071c.363 0 .727.032 1.082.071h.016a6.858 6.858 0 0 1 4.14 2.287 6.715 6.715 0 0 1 1.61 4.406c-.007 2.096-.742 3.843-1.903 5.082zm-4.116-9.885a5.97 5.97 0 0 0-1.682 0c-1.153.183-2.11.738-2.773 1.58-.655.834-1.035 1.953-1.035 3.27 0 1.565.498 2.835 1.32 3.732.853.921 2.061 1.437 3.436 1.437 1.335 0 2.543-.508 3.397-1.445.805-.88 1.303-2.143 1.303-3.723 0-1.247-.41-2.366-1.106-3.215-.695-.85-1.69-1.438-2.86-1.636zm19.622 8.392l-.142-2.144v-7.209c0-.444.284-.738.648-.865.126-.04.268-.064.403-.064.134 0 .268.024.402.064.356.119.632.405.632.865v11.663c0 .326-.11.58-.292.77a1.218 1.218 0 0 1-.6.334 1.475 1.475 0 0 1-.672-.008c-.3-.08-.584-.254-.75-.532l-7.015-9.44.111 1.89v7.185a.98.98 0 0 1-.632.952c-.134.048-.276.08-.41.08-.143 0-.285-.024-.411-.08-.348-.142-.624-.452-.624-.952v-11.64c0-.325.102-.595.26-.785a1.01 1.01 0 0 1 .53-.342c.197-.055.41-.047.623.008.269.08.53.254.72.532l7.22 9.718zm-28.99 2.803c-.142.31-.466.555-.964.555h-8.286c-.348 0-.608-.095-.782-.278-.182-.182-.26-.436-.26-.754V76.027c0-.476.268-.786.615-.913a1.166 1.166 0 0 1 .806 0 .939.939 0 0 1 .616.913v10.798h7.283c.498 0 .814.246.964.555a.99.99 0 0 1 .087.39.86.86 0 0 1-.08.389zm-15.949-5.193h-7.322v3.859h7.71c.442 0 .742.262.876.587.048.12.08.254.08.381s-.025.262-.072.381c-.126.31-.419.54-.885.54h-8.515c-.348 0-.64-.127-.853-.325a1.166 1.166 0 0 1-.348-.842V76.392c0-.317.127-.611.356-.825.213-.199.497-.318.845-.318h8.531c.435 0 .719.238.838.548a1.01 1.01 0 0 1 0 .738.887.887 0 0 1-.854.572h-7.71v4.017h7.323c.427 0 .703.246.83.564a.94.94 0 0 1 .07.365c0 .127-.023.254-.062.365-.135.302-.403.548-.838.548zM1.88 75.654l4.7 7.352 4.66-7.36c.174-.27.403-.445.64-.516a.98.98 0 0 1 .545-.008c.174.048.34.15.459.302.15.182.252.436.252.738v11.703c0 .484-.268.794-.608.929-.126.055-.268.079-.403.079-.134 0-.276-.024-.402-.08-.34-.134-.609-.444-.609-.928V79.56l-3.61 5.685a1.13 1.13 0 0 1-.466.46c-.15.08-.316.12-.482.12a1.046 1.046 0 0 1-.916-.58l-3.61-5.661v8.289c0 .484-.268.794-.608.928-.127.056-.269.08-.403.08s-.276-.024-.403-.08c-.34-.134-.608-.444-.608-.928V76.17c0-.326.11-.595.284-.778a.908.908 0 0 1 .458-.27.928.928 0 0 1 .53.016c.22.071.442.246.6.516z" fill="#fff"/></svg>