<svg width="1440" height="922" fill="none" xmlns="http://www.w3.org/2000/svg"><path fill="#019FE3" d="M0 0h1440v921H0z"/><path d="M1335.47 539h-95.1a3.373 3.373 0 0 0-3.37 3.374v95.151a3.373 3.373 0 0 0 3.37 3.375h95.1c1.86 0 3.37-1.511 3.37-3.375v-95.151a3.373 3.373 0 0 0-3.37-3.374z" fill="#34B2E9"/><path fill="#34B2E9" d="M1270 640.678L1287.678 623l17.677 17.678-17.677 17.678z"/><path d="M1289.44 604.514c12.37 0 22.39-10.041 22.39-22.426 0-12.386-10.02-22.426-22.39-22.426-12.37 0-22.4 10.04-22.4 22.426 0 12.385 10.03 22.426 22.4 22.426z" fill="#01D5E3"/><path d="M1305.39 575.969c1.6 2.176 2.22 4.141 2.22 6.811 0 3.239-1.33 6.231-3.6 8.654l1.38 5.168h4.2l4.42-5.019 1.18-7.344.25-4.376-4.37-4.945c-3.89-.468-5.78-.118-5.68 1.051z" fill="#2CEAF6"/><path d="M1256.52 597.195l.76 3.041s9.04 18.569 29.39 25.467c0 0 18.51-7.912 26.74-21.338l-11.35-9.915s-5.44 4.327-13.51 4.327c-8.08 0-19.04-4.821-19.04-14.761 0-9.939 11.36-13.574 11.36-13.574l-4.84-1.187h-12.37l-7.86 18.94.72 9z" fill="#2CEAF6"/><path d="M1324.9 576.322c-.35-.346-9.16-11.052-36.64-20.522-.87-.595-1.34-.779-1.42-.551-25.53 6.518-38.05 20.216-38.05 21.073 0 .856 3.66 13.727 6.03 18.969.19.445 3.35 6.033 5.7 9.074-1.38-3.041-2.89-5.686-2.89-10.236 0-12.832 9.93-23.266 22.35-23.711.3 0 .62 0 .91.024l-2.96-2.967s11.93-2.002 27.24 7.27c0 0 .22.469 0 1.854 0 0 7.21 3.115 7.82 9.173.62 6.058-3.21 9.519-6.29 10.014 0 0 1.6-2.497-.87-3.833-.52-.296-1.13-.42-1.75-.395-4.72 0-5.26 5.39-5.26 5.39-.05.272-.05.544-.05.816 0 0-.79 7.887 13.24 7.739 0 0 7.11-8.061 8.99-15.305.69-2.67 1.18-4.673 1.5-6.157.79-2.101 1.56-5.197 2.3-7.447l.1-.272z" fill="#34B2E9"/><path opacity=".895" d="M1299.07 577.143c.19-.099.84-.421 1.58-1.187 1.48.198 2.94.668 2.94.668-2.7-1.632-6.37-2.597-10.45-2.572 0 0 1.56 2.225 5.88 3.14 0 0 .02-.025.05-.049z" fill="#109FDD"/><path d="M1325.17 575.104c-14.87-12.859-33.66-19.541-37.56-20.827l-.37-.126-.5-.151-.86.277c-3.9 1.286-22.69 7.968-37.56 20.827l-.32.277.07.429c.03.1 1.63 9.858 7.12 20.876 3.23 6.48 7.16 12.103 11.65 16.767 5.51 5.699 11.93 9.909 19.07 12.531l.42.152.41.151.45-.177.42-.151c7.14-2.622 13.53-6.833 19.06-12.531 4.5-4.639 8.42-10.287 11.66-16.767 5.48-10.993 7.11-20.776 7.11-20.877l.07-.428-.34-.252zm-8.2 20.876c-3.16 6.329-6.99 11.851-11.38 16.389-5.46 5.623-11.78 9.758-18.85 12.304-7.06-2.546-13.38-6.656-18.84-12.279-4.39-4.538-8.22-10.035-11.38-16.363-4.77-9.531-6.54-18.078-6.91-20.045 15.23-13.035 34.49-19.54 37.13-20.398 2.62.858 21.91 7.363 37.14 20.398-.37 1.942-2.17 10.489-6.91 19.994z" fill="#01D5E3"/><path d="M1400.79 169c16.13 0 29.21-13.117 29.21-29.297 0-13.899-9.65-25.53-22.6-28.535C1407.14 81.76 1383.29 58 1353.91 58c-20.17 0-37.73 11.2-46.85 27.738a22.636 22.636 0 0 0-9.04-1.874c-11.58 0-21.13 8.66-22.6 19.872-15.06 2.997-26.42 16.323-26.42 32.315 0 18.197 14.71 32.949 32.85 32.949h118.94zM129.793 433C145.924 433 159 419.883 159 403.703c0-13.899-9.653-25.53-22.598-28.535C136.137 345.76 112.292 322 82.911 322c-20.172 0-37.733 11.2-46.848 27.738a22.653 22.653 0 0 0-9.044-1.875c-11.577 0-21.132 8.66-22.595 19.873C-10.641 370.733-22 384.059-22 400.051-22 418.248-7.293 433 10.848 433h118.945z" fill="#34B2E9"/><path d="M655 144.166a4 4 0 0 1 4-4h173a4 4 0 0 1 4 4v53a4 4 0 0 1-4 4H659a4 4 0 0 1-4-4v-53z" fill="#fff" fill-opacity=".2"/><path d="M699.917 162.057h1.06v-4.203h2.816c2.438 0 3.347-1.614 3.347-2.981 0-1.483-.818-2.996-3.347-2.996h-3.876v10.18zm3.967-5.119h-2.907v-4.144h2.907c1.772 0 2.241 1.192 2.241 2.079 0 .974-.575 2.065-2.241 2.065zM711.511 162.232c1.983 0 3.316-1.455 3.316-3.898 0-2.472-1.333-3.883-3.316-3.883-1.984 0-3.316 1.455-3.316 3.898 0 2.472 1.332 3.883 3.316 3.883zm0-.916c-1.439 0-2.211-1.12-2.211-2.967 0-1.934.772-2.981 2.211-2.981 1.438 0 2.21 1.119 2.21 2.966 0 1.862-.802 2.982-2.21 2.982zM718.171 162.057h.969l1.514-4.508c.076-.233.197-.596.318-.989.121.393.258.771.333 1.004l1.545 4.493h.954l1.908-7.431h-1.06l-1.227 5.352c-.06.29-.136.581-.197.887-.091-.306-.166-.597-.257-.887l-1.62-5.352h-.727l-1.62 5.352c-.076.276-.152.523-.227.814l-.182-.814-1.272-5.352h-1.06l1.908 7.431zM730.365 162.232c.894 0 1.757-.364 2.362-.844l-.575-.683c-.591.421-1.181.581-1.741.581-1.318 0-2.105-1.018-2.287-2.53h5.27c.03-.32.03-.553.03-.713 0-2.501-1.408-3.592-3.059-3.592-1.983 0-3.361 1.411-3.361 3.883 0 2.094 1.272 3.898 3.361 3.898zm-2.271-4.392c.091-1.687 1.03-2.472 2.271-2.472.818 0 1.969.465 1.984 2.472h-4.255zM735.548 162.057h1.06v-4.203c0-1.832 1.105-2.385 1.878-2.385.499 0 .802.16.999.277l.167-.989c-.212-.146-.606-.306-1.091-.306-.954 0-1.605.509-1.953 1.222v-1.047h-1.06v7.431zM744.147 162.232c.893 0 1.756-.364 2.362-.844l-.576-.683c-.59.421-1.181.581-1.741.581-1.317 0-2.105-1.018-2.286-2.53h5.269c.03-.32.03-.553.03-.713 0-2.501-1.408-3.592-3.058-3.592-1.984 0-3.362 1.411-3.362 3.883 0 2.094 1.272 3.898 3.362 3.898zm-2.272-4.392c.091-1.687 1.03-2.472 2.272-2.472.817 0 1.968.465 1.983 2.472h-4.255zM751.995 162.232c.969 0 1.589-.364 2.059-.815v.64h1.06v-10.5l-1.06.509v3.083a3.209 3.209 0 0 0-2.059-.698c-1.969 0-3.195 1.44-3.195 3.883 0 2.371 1.211 3.898 3.195 3.898zm.121-.916c-1.363 0-2.211-1.324-2.211-2.982 0-1.905.787-2.966 2.211-2.966.984 0 1.62.581 1.938 1.076v3.708c-.424.742-1.166 1.164-1.938 1.164zM764.532 162.232c1.938 0 3.104-1.382 3.104-3.898 0-2.443-1.257-3.883-3.195-3.883-.757 0-1.56.378-2.059.902v-3.796l-1.06.509v9.991h1.06v-.669c.499.407 1.06.844 2.15.844zm-.167-.916c-.772 0-1.559-.466-1.983-1.164v-3.65c.287-.48 1.029-1.134 1.983-1.134 1.439 0 2.166 1.061 2.166 2.966 0 1.833-.712 2.982-2.166 2.982zM770.748 164.878h1.045l3.952-10.252h-1.136l-1.983 5.279-.273.756c-.091-.262-.167-.509-.257-.756l-1.954-5.279h-1.075l2.832 7.199-1.151 3.053z" fill="#fff"/><g clip-path="url(#clip0)" fill-rule="evenodd" clip-rule="evenodd" fill="#fff"><path d="M758.173 180.821v-.046c0-4.62 3.598-8.531 8.66-8.531 2.925 0 4.723.801 6.45 2.237l-1.87 2.194c-1.295-1.086-2.566-1.769-4.7-1.769-3.095 0-5.448 2.662-5.448 5.82v.049c0 3.391 2.28 5.889 5.711 5.889 1.581 0 3.019-.494 4.051-1.249v-3.736l2.855-1.872v6.929c-1.654 1.39-4.027 2.567-7.002 2.567-5.253 0-8.707-3.675-8.707-8.482zM703.207 172.809l-7.389 16.614h3.022l1.728-3.983 1.081-2.57 2.876-6.595 2.903 6.595 1.081 2.57 1.701 3.983h3.119l-7.386-16.614h-2.736zM744.555 172.466l-7.389 16.614h3.022l1.728-3.982 1.081-2.57 2.876-6.596 2.902 6.596 1.082 2.57 1.701 3.982h3.119l-7.386-16.614h-2.736zM793.835 180.88c0 3.204-2.326 5.82-5.661 5.82-3.332 0-5.708-2.662-5.708-5.866v-.049c0-3.205 2.326-5.821 5.658-5.821 3.335 0 5.711 2.662 5.711 5.87v.046zm-5.661-8.577c-5.159 0-8.804 3.888-8.804 8.531v.046c0 4.643 3.598 8.482 8.754 8.482 5.159 0 8.803-3.888 8.803-8.528v-.049c0-4.643-3.598-8.482-8.753-8.482zM814.621 172.585v11.405l-8.993-11.405h-2.736v16.496h2.903v-11.736l9.259 11.736h2.47v-16.496h-2.903zM728.586 182.835c2.35-.661 4.004-2.286 4.004-4.997v-.046c0-1.438-.503-2.664-1.391-3.557-1.079-1.04-2.733-1.651-4.843-1.651h-7.486v16.496h2.952v-13.857h4.294c.371 0 .707.04 1.026.094 1.552.27 2.452 1.175 2.452 2.639v.049c0 1.671-1.345 2.757-3.455 2.757H724.5l-1.146 2.567h2.163l4.124 5.751h3.478l-4.533-6.245z"/></g><path d="M641.487 185.08c17.161 0 31.073-13.929 31.073-31.112s-13.912-31.113-31.073-31.113c-17.162 0-31.073 13.93-31.073 31.113s13.911 31.112 31.073 31.112z" fill="#01D5E3"/><path d="M663.618 145.479c2.227 3.018 3.084 5.745 3.084 9.449 0 4.494-1.85 8.644-5.002 12.006l1.918 7.169h5.825l6.132-6.963 1.644-10.188.343-6.071-6.064-6.861c-5.391-.649-8.018-.163-7.88 1.459z" fill="#1CB0F0"/><path d="M595.819 174.926l1.062 4.22s12.539 25.761 40.769 35.331c0 0 25.683-10.977 37.091-29.603l-15.748-13.755s-7.537 6.003-18.739 6.003c-11.203 0-26.414-6.689-26.414-20.479 0-13.789 15.759-18.832 15.759-18.832l-6.715-1.646H605.72l-10.894 26.275.993 12.486z" fill="#1CB0F0"/><path d="M690.683 145.968c-.479-.48-12.703-15.333-50.833-28.471-1.206-.826-1.859-1.081-1.96-.765-35.418 9.043-52.794 28.048-52.794 29.236 0 1.188 5.071 19.045 8.36 26.317.274.618 4.659 8.37 7.914 12.589-1.919-4.219-4.009-7.889-4.009-14.201 0-17.803 13.772-32.279 31.005-32.896.411 0 .856 0 1.267.034l-4.111-4.116s16.547-2.779 37.788 10.085c0 0 .308.652 0 2.573 0 0 10.004 4.322 10.86 12.726.857 8.404-4.453 13.206-8.736 13.892 0 0 2.227-3.464-1.199-5.317-.719-.411-1.576-.583-2.432-.548-6.544 0-7.297 7.477-7.297 7.477-.069.378-.069.755-.069 1.132 0 0-1.096 10.943 18.363 10.737 0 0 9.867-11.183 12.47-21.233.96-3.705 1.645-6.483 2.09-8.541 1.096-2.916 2.158-7.211 3.186-10.333l.137-.377z" fill="#3B84F8"/><path opacity=".895" d="M654.848 147.107c.274-.137 1.165-.583 2.193-1.646 2.055.274 4.076.926 4.076.926-3.734-2.264-8.839-3.602-14.491-3.568 0 0 2.158 3.087 8.153 4.357l.069-.069z" fill="#109FDD"/><path d="M691.06 144.278c-20.624-17.84-46.695-27.109-52.108-28.893l-.514-.175-.685-.21-1.199.385c-5.413 1.784-31.485 11.053-52.109 28.893l-.445.385.103.594c.034.14 2.261 13.678 9.866 28.964 4.488 8.989 9.936 16.79 16.171 23.261 7.64 7.906 16.547 13.747 26.448 17.385l.582.21.583.21.616-.245.583-.21c9.901-3.638 18.774-9.479 26.448-17.385 6.235-6.436 11.682-14.271 16.17-23.261 7.606-15.251 9.867-28.824 9.867-28.964l.103-.594-.48-.35zm-11.374 28.963c-4.385 8.78-9.695 16.441-15.794 22.737-7.571 7.801-16.341 13.537-26.139 17.07-9.798-3.533-18.569-9.234-26.14-17.035-6.098-6.296-11.408-13.922-15.794-22.702-6.612-13.222-9.078-25.08-9.592-27.809 21.138-18.084 47.86-27.109 51.526-28.298 3.631 1.189 30.388 10.214 51.525 28.298-.513 2.694-3.014 14.552-9.592 27.739z" fill="#01D5E3"/><path d="M197.465 556h-95.093A3.373 3.373 0 0 0 99 559.374v95.151a3.374 3.374 0 0 0 3.372 3.375h95.093a3.374 3.374 0 0 0 3.372-3.375v-95.151a3.373 3.373 0 0 0-3.372-3.374z" fill="#34B2E9"/><path fill="#34B2E9" d="M132 657.678L149.678 640l17.677 17.678-17.677 17.678z"/><path d="M151.269 621.487c12.364 0 22.386-10.035 22.386-22.414 0-12.379-10.022-22.414-22.386-22.414-12.363 0-22.385 10.035-22.385 22.414 0 12.379 10.022 22.414 22.385 22.414z" fill="#85B4FF"/><path d="M167.214 592.957c1.604 2.175 2.221 4.139 2.221 6.808 0 3.237-1.332 6.227-3.603 8.649l1.382 5.165h4.196l4.418-5.017 1.184-7.339.247-4.374-4.368-4.943c-3.884-.468-5.776-.117-5.677 1.051z" fill="#fff"/><path d="M118.371 614.171l.765 3.04s9.033 18.559 29.37 25.453c0 0 18.502-7.908 26.721-21.326l-11.345-9.91s-5.43 4.325-13.501 4.325c-8.07 0-19.028-4.819-19.028-14.753 0-9.934 11.353-13.567 11.353-13.567l-4.838-1.186h-12.365l-7.848 18.929.716 8.995z" fill="#fff"/><path d="M186.711 593.31c-.345-.346-9.151-11.047-36.621-20.511-.868-.595-1.339-.779-1.412-.551-25.515 6.514-38.033 20.206-38.033 21.062 0 .856 3.653 13.72 6.022 18.959.198.445 3.357 6.03 5.702 9.069-1.383-3.039-2.888-5.684-2.888-10.231 0-12.825 9.922-23.254 22.336-23.698.296 0 .617 0 .913.024l-2.961-2.965s11.92-2.002 27.222 7.265c0 0 .223.47 0 1.854 0 0 7.207 3.113 7.824 9.168.617 6.054-3.208 9.514-6.293 10.008 0 0 1.604-2.496-.864-3.83-.519-.297-1.136-.42-1.753-.396-4.714 0-5.257 5.388-5.257 5.388-.049.271-.049.543-.049.815 0 0-.79 7.883 13.229 7.735 0 0 7.108-8.056 8.984-15.297.691-2.669 1.184-4.67 1.505-6.153.79-2.101 1.555-5.195 2.296-7.444l.098-.271z" fill="#5A99FC"/><path opacity=".895" d="M160.895 594.13c.197-.099.839-.42 1.579-1.186 1.481.198 2.937.667 2.937.667-2.69-1.631-6.367-2.595-10.44-2.57 0 0 1.555 2.224 5.874 3.139l.05-.05z" fill="#fff"/><path d="M186.983 592.092c-14.858-12.852-33.64-19.53-37.54-20.815l-.37-.126-.493-.151-.864.277c-3.9 1.285-22.682 7.963-37.54 20.815l-.321.277.075.429c.024.101 1.628 9.853 7.108 20.865 3.233 6.477 7.157 12.096 11.649 16.758 5.504 5.695 11.921 9.904 19.053 12.525l.42.151.42.151.444-.176.419-.152c7.133-2.62 13.525-6.829 19.054-12.524 4.492-4.637 8.416-10.281 11.649-16.758 5.479-10.987 7.108-20.765 7.108-20.865l.074-.429-.345-.252zm-8.194 20.866c-3.159 6.325-6.985 11.844-11.378 16.38-5.454 5.619-11.773 9.752-18.831 12.297-7.059-2.545-13.377-6.653-18.832-12.272-4.393-4.536-8.219-10.03-11.378-16.355-4.763-9.525-6.54-18.068-6.91-20.034 15.228-13.028 34.479-19.53 37.12-20.386 2.616.856 21.891 7.358 37.119 20.386-.37 1.941-2.171 10.483-6.91 19.984z" fill="#85B4FF"/><path d="M151.449 621.514c12.37 0 22.397-10.041 22.397-22.426 0-12.386-10.027-22.426-22.397-22.426s-22.398 10.04-22.398 22.426c0 12.385 10.028 22.426 22.398 22.426z" fill="#01D5E3"/><path d="M167.401 592.969c1.606 2.176 2.223 4.141 2.223 6.811 0 3.239-1.334 6.231-3.605 8.654l1.382 5.168h4.198l4.421-5.019 1.185-7.344.247-4.376-4.371-4.945c-3.886-.468-5.779-.118-5.68 1.051z" fill="#2CEAF6"/><path d="M118.532 614.195l.765 3.041s9.038 18.569 29.386 25.467c0 0 18.512-7.912 26.736-21.338l-11.351-9.915s-5.433 4.327-13.508 4.327-19.039-4.821-19.039-14.761c0-9.939 11.359-13.574 11.359-13.574l-4.84-1.187h-12.372l-7.852 18.94.716 9z" fill="#2CEAF6"/><path d="M186.91 593.322c-.346-.346-9.157-11.052-36.641-20.522-.869-.595-1.34-.779-1.413-.551-25.529 6.518-38.053 20.216-38.053 21.073 0 .856 3.654 13.727 6.025 18.969.198.445 3.358 6.033 5.704 9.074-1.382-3.041-2.889-5.686-2.889-10.236 0-12.832 9.927-23.266 22.348-23.711.297 0 .618 0 .914.024l-2.963-2.967s11.927-2.002 27.237 7.27c0 0 .223.469 0 1.854 0 0 7.211 3.115 7.828 9.173.618 6.058-3.21 9.519-6.297 10.014 0 0 1.605-2.497-.864-3.833-.519-.296-1.136-.42-1.753-.395-4.717 0-5.26 5.39-5.26 5.39-.049.272-.049.544-.049.816 0 0-.791 7.887 13.236 7.739 0 0 7.111-8.061 8.988-15.305.692-2.67 1.185-4.673 1.506-6.157.791-2.101 1.556-5.197 2.297-7.447l.099-.272z" fill="#34B2E9"/><path opacity=".895" d="M161.08 594.143c.197-.099.839-.421 1.58-1.187 1.482.198 2.939.668 2.939.668-2.692-1.632-6.371-2.597-10.446-2.572 0 0 1.556 2.225 5.877 3.14l.05-.049z" fill="#109FDD"/><path d="M187.181 592.104c-14.865-12.859-33.658-19.541-37.559-20.827l-.371-.126-.494-.151-.864.277c-3.902 1.286-22.694 7.968-37.56 20.827l-.321.277.075.429c.024.1 1.629 9.858 7.111 20.876 3.235 6.48 7.162 12.103 11.656 16.767 5.507 5.699 11.927 9.909 19.064 12.531l.42.152.419.151.445-.177.42-.151c7.136-2.622 13.532-6.833 19.064-12.531 4.494-4.639 8.42-10.287 11.655-16.767 5.482-10.993 7.112-20.776 7.112-20.877l.074-.428-.346-.252zm-8.198 20.876c-3.161 6.329-6.988 11.851-11.384 16.389-5.457 5.623-11.779 9.758-18.842 12.304-7.062-2.546-13.384-6.656-18.841-12.279-4.396-4.538-8.223-10.035-11.384-16.363-4.766-9.531-6.544-18.078-6.914-20.045 15.236-13.035 34.497-19.54 37.139-20.398 2.618.858 21.904 7.363 37.14 20.398-.37 1.942-2.173 10.489-6.914 19.994z" fill="#01D5E3"/><path fill-rule="evenodd" clip-rule="evenodd" d="M81.552 921.881h136.665V750.617H81.552v171.264z" fill="#FFFFFE"/><path fill-rule="evenodd" clip-rule="evenodd" d="M218.665 728.128l-68.332-36.905L82 728.128v22.489h136.665v-22.489z" fill="#4D5E82"/><path fill-rule="evenodd" clip-rule="evenodd" d="M122.363 801.873h-21.205V791.27c0-5.855 4.747-10.602 10.602-10.602 5.856 0 10.603 4.747 10.603 10.602v10.603zM160.487 801.873h-21.205V791.27c0-5.855 4.747-10.602 10.603-10.602 5.855 0 10.602 4.747 10.602 10.602v10.603zM198.611 801.873h-21.205V791.27c0-5.855 4.747-10.602 10.603-10.602 5.855 0 10.602 4.747 10.602 10.602v10.603zM122.363 871.647h-21.205v-10.602c0-5.856 4.747-10.603 10.602-10.603 5.856 0 10.603 4.747 10.603 10.603v10.602zM160.487 871.647h-21.205v-10.602c0-5.856 4.747-10.603 10.603-10.603 5.855 0 10.602 4.747 10.602 10.603v10.602zM198.611 871.647h-21.205v-10.602c0-5.856 4.747-10.603 10.603-10.603 5.855 0 10.602 4.747 10.602 10.603v10.602z" fill="#34B2E9"/><path fill-rule="evenodd" clip-rule="evenodd" d="M101.158 830.77h97.453v-9.225h-97.453v9.225z" fill="#4D5E82"/><path fill-rule="evenodd" clip-rule="evenodd" d="M218.217 821.545v100.336h61.701v-67.013l-61.701-33.323z" fill="#659BC2"/><path fill-rule="evenodd" clip-rule="evenodd" d="M218.217 821.545l61.701 33.323v-28.574l-61.701-33.324v28.575z" fill="#4D5E82"/><path fill-rule="evenodd" clip-rule="evenodd" d="M238.687 921.881h20.76v-39.789h-20.76v39.789z" fill="#FFFFFE"/><path fill-rule="evenodd" clip-rule="evenodd" d="M57.542 826.157c6.404-4.537 10.596-11.991 10.596-20.437 0-13.836-11.215-25.052-25.05-25.052-13.836 0-25.052 11.216-25.052 25.052 0 8.446 4.193 15.9 10.598 20.437-6.405 4.538-10.598 11.992-10.598 20.439 0 13.836 11.216 25.051 25.052 25.051 13.835 0 25.05-11.215 25.05-25.051 0-8.447-4.192-15.901-10.596-20.439z" fill="#34B2E9"/><path fill-rule="evenodd" clip-rule="evenodd" d="M37.898 921.881h10.379v-75.285h-10.38v75.285z" fill="#010604"/><path fill-rule="evenodd" clip-rule="evenodd" d="M280.097 921.35H393.65V679.824H280.097V921.35z" fill="#659BC2"/><path fill-rule="evenodd" clip-rule="evenodd" d="M393.65 661.005l-56.776-33.824-56.777 33.824v18.819H393.65v-18.819z" fill="#010604"/><path fill-rule="evenodd" clip-rule="evenodd" d="M301.945 727.319h11.442v-19.606h-11.442v19.606zM331.153 727.319h11.441v-19.606h-11.441v19.606zM360.36 727.319h11.442v-19.606H360.36v19.606zM301.945 774.81h11.442v-19.6h-11.442v19.6zM331.153 774.81h11.441v-19.6h-11.441v19.6zM360.36 774.81h11.442v-19.6H360.36v19.6zM301.945 822.31h11.442V802.7h-11.442v19.61zM331.153 822.31h11.441V802.7h-11.441v19.61zM360.36 822.31h11.442V802.7H360.36v19.61zM301.945 869.81h11.442V850.2h-11.442v19.61zM331.153 869.81h11.441V850.2h-11.441v19.61zM360.36 869.81h11.442V850.2H360.36v19.61z" fill="#4D5E82"/><path fill-rule="evenodd" clip-rule="evenodd" d="M537.279 921.35H393.65V748.08l143.629 68.63v104.64z" fill="#FFFFFE"/><path fill-rule="evenodd" clip-rule="evenodd" d="M393.65 713.763l143.629 68.627v34.32L393.65 748.08v-34.317z" fill="#4D5E82"/><path fill-rule="evenodd" clip-rule="evenodd" d="M438.124 852.3h-19.607v-9.8c0-5.42 4.389-9.8 9.803-9.8 5.414 0 9.804 4.38 9.804 9.8v9.8zM475.267 852.3h-19.606v-9.8c0-5.42 4.39-9.8 9.804-9.8a9.796 9.796 0 0 1 9.802 9.8v9.8zM512.411 852.3h-19.606v-9.8c0-5.42 4.389-9.8 9.803-9.8 5.414 0 9.803 4.38 9.803 9.8v9.8zM438.124 810.7h-19.607v-9.8c0-5.42 4.389-9.81 9.803-9.81 5.414 0 9.804 4.39 9.804 9.81v9.8z" fill="#34B2E9"/><path fill-rule="evenodd" clip-rule="evenodd" d="M438.124 921.35h54.681V873h-54.681v48.35z" fill="#659BC2"/><path fill-rule="evenodd" clip-rule="evenodd" d="M1200.51 825.63c6.4-4.54 10.59-12 10.59-20.44 0-13.84-11.21-25.05-25.05-25.05-13.83 0-25.05 11.21-25.05 25.05 0 8.44 4.19 15.9 10.6 20.44-6.41 4.53-10.6 11.99-10.6 20.43 0 13.84 11.22 25.06 25.05 25.06 13.84 0 25.05-11.22 25.05-25.06 0-8.44-4.19-15.9-10.59-20.43z" fill="#34B2E9"/><path fill-rule="evenodd" clip-rule="evenodd" d="M1180.86 921.35h10.38v-75.29h-10.38v75.29z" fill="#010604"/><path fill-rule="evenodd" clip-rule="evenodd" d="M647.979 825.63c0 25.12-20.367 45.49-45.49 45.49S557 850.75 557 825.63c0-25.13 20.366-45.49 45.489-45.49 25.123 0 45.49 20.36 45.49 45.49z" fill="#FED183"/><path fill-rule="evenodd" clip-rule="evenodd" d="M597.299 921.35h10.38v-75.29h-10.38v75.29z" fill="#010604"/><path fill-rule="evenodd" clip-rule="evenodd" d="M672.112 921.35H845.91V816.33H672.112v105.02z" fill="#34B2E9"/><path fill-rule="evenodd" clip-rule="evenodd" d="M845.91 774.81H672.112L657 816.33h204.022l-15.112-41.52z" fill="#4D5E82"/><path fill-rule="evenodd" clip-rule="evenodd" d="M713.095 858.47h-19.202v-9.6c0-5.3 4.298-9.6 9.601-9.6 5.303 0 9.601 4.3 9.601 9.6v9.6zM750.106 858.47h-19.202v-9.6c0-5.3 4.299-9.6 9.601-9.6 5.303 0 9.601 4.3 9.601 9.6v9.6zM787.118 858.47h-19.202v-9.6c0-5.3 4.298-9.6 9.601-9.6 5.302 0 9.601 4.3 9.601 9.6v9.6zM824.128 858.47h-19.201v-9.6c0-5.3 4.299-9.6 9.601-9.6 5.303 0 9.6 4.3 9.6 9.6v9.6z" fill="#FFFFFE"/><path fill-rule="evenodd" clip-rule="evenodd" d="M693.893 883.44h130.236v-8.66H693.893v8.66zM846 921.35h81.479V699.306H846V921.35z" fill="#4D5E82"/><path fill-rule="evenodd" clip-rule="evenodd" d="M927.479 921.35h133.051V663.882H927.479V921.35z" fill="#659BC2"/><path fill-rule="evenodd" clip-rule="evenodd" d="M1060.53 921.35h80.64V765.24h-80.64v156.11zM862.521 731.582h48.438v-8.649h-48.438v8.649zM862.521 763.86h48.438v-8.65h-48.438v8.65zM862.521 796.13h48.438v-8.64h-48.438v8.64zM862.521 828.41h48.438v-8.65h-48.438v8.65zM862.521 860.69h48.438v-8.65h-48.438v8.65z" fill="#FFFFFE"/><path fill-rule="evenodd" clip-rule="evenodd" d="M1076.63 796.13h48.44v-8.64h-48.44v8.64zM1076.63 828.41h48.44v-8.65h-48.44v8.65zM1076.63 860.69h48.44v-8.65h-48.44v8.65z" fill="#659BC2"/><path fill-rule="evenodd" clip-rule="evenodd" d="M945.893 699.306h96.227v-8.65h-96.227v8.65zM945.893 731.582h96.227v-8.649h-96.227v8.649zM945.893 763.86h96.227v-8.65h-96.227v8.65zM945.893 796.13h96.227v-8.64h-96.227v8.64zM945.893 828.41h96.227v-8.65h-96.227v8.65z" fill="#FFFFFE"/><path fill-rule="evenodd" clip-rule="evenodd" d="M982.082 921.35h23.848v-53.3h-23.848v53.3z" fill="#010604"/><path fill-rule="evenodd" clip-rule="evenodd" d="M1346.1 920.81H1233V748.08l113.1-54.417V920.81z" fill="#34B2E9"/><path fill-rule="evenodd" clip-rule="evenodd" d="M1233 713.951l113.1-54.415v34.127L1233 748.08v-34.129z" fill="#3B84F8"/><path fill-rule="evenodd" clip-rule="evenodd" d="M1325.66 766.7h-16.1v-8.05c0-4.45 3.6-8.05 8.05-8.05 4.45 0 8.05 3.6 8.05 8.05v8.05zM1292.21 766.7h-16.11v-8.05c0-4.45 3.61-8.05 8.06-8.05 4.44 0 8.05 3.6 8.05 8.05v8.05zM1325.66 803.75h-16.1v-8.05c0-4.45 3.6-8.05 8.05-8.05 4.45 0 8.05 3.6 8.05 8.05v8.05zM1292.21 803.75h-16.11v-8.05c0-4.45 3.61-8.05 8.06-8.05 4.44 0 8.05 3.6 8.05 8.05v8.05zM1325.66 840.81h-16.1v-8.06a8.051 8.051 0 0 1 16.1 0v8.06zM1292.21 840.81h-16.11v-8.06c0-4.44 3.61-8.05 8.06-8.05 4.44 0 8.05 3.61 8.05 8.05v8.06z" fill="#FFFFFE"/><path fill-rule="evenodd" clip-rule="evenodd" d="M1256.7 921.35h19.4v-51.54h-19.4v51.54z" fill="#4D5E82"/><path fill-rule="evenodd" clip-rule="evenodd" d="M1410.51 826.157c6.4-4.537 10.59-11.991 10.59-20.437 0-13.836-11.21-25.052-25.05-25.052-13.83 0-25.05 11.216-25.05 25.052 0 8.446 4.19 15.9 10.6 20.437-6.41 4.538-10.6 11.992-10.6 20.439 0 13.836 11.22 25.051 25.05 25.051 13.84 0 25.05-11.215 25.05-25.051 0-8.447-4.19-15.901-10.59-20.439z" fill="#FED183"/><path fill-rule="evenodd" clip-rule="evenodd" d="M1390.86 921.881h10.38v-75.285h-10.38v75.285z" fill="#010604"/><path d="M801.465 639h-95.093a3.373 3.373 0 0 0-3.372 3.374v95.151a3.374 3.374 0 0 0 3.372 3.375h95.093a3.374 3.374 0 0 0 3.372-3.375v-95.151a3.373 3.373 0 0 0-3.372-3.374z" fill="#34B2E9"/><path fill="#34B2E9" d="M736 740.678L753.678 723l17.677 17.678-17.677 17.678z"/><path d="M755.269 704.487c12.364 0 22.386-10.035 22.386-22.414 0-12.379-10.022-22.414-22.386-22.414-12.363 0-22.385 10.035-22.385 22.414 0 12.379 10.022 22.414 22.385 22.414z" fill="#85B4FF"/><path d="M771.214 675.957c1.604 2.175 2.221 4.139 2.221 6.808 0 3.237-1.332 6.227-3.603 8.649l1.382 5.165h4.196l4.418-5.017 1.184-7.339.247-4.374-4.368-4.943c-3.884-.468-5.776-.117-5.677 1.051z" fill="#fff"/><path d="M722.371 697.171l.765 3.04s9.033 18.559 29.37 25.453c0 0 18.502-7.908 26.721-21.326l-11.345-9.91s-5.43 4.325-13.501 4.325c-8.07 0-19.028-4.819-19.028-14.753 0-9.934 11.353-13.567 11.353-13.567l-4.838-1.186h-12.365l-7.848 18.929.716 8.995z" fill="#fff"/><path d="M790.711 676.31c-.345-.346-9.151-11.047-36.621-20.511-.868-.595-1.339-.779-1.412-.551-25.515 6.514-38.033 20.206-38.033 21.062 0 .856 3.653 13.72 6.022 18.959.198.445 3.357 6.03 5.702 9.069-1.383-3.039-2.888-5.684-2.888-10.231 0-12.825 9.922-23.254 22.336-23.698.296 0 .617 0 .913.024l-2.961-2.965s11.92-2.002 27.222 7.265c0 0 .223.47 0 1.854 0 0 7.207 3.113 7.824 9.168.617 6.054-3.208 9.514-6.293 10.008 0 0 1.604-2.496-.864-3.83-.519-.297-1.136-.42-1.753-.396-4.714 0-5.257 5.388-5.257 5.388-.049.271-.049.543-.049.815 0 0-.79 7.883 13.229 7.735 0 0 7.108-8.056 8.984-15.297.691-2.669 1.184-4.67 1.505-6.153.79-2.101 1.555-5.195 2.296-7.444l.098-.271z" fill="#5A99FC"/><path opacity=".895" d="M764.895 677.13c.197-.099.839-.42 1.579-1.186 1.481.198 2.937.667 2.937.667-2.69-1.631-6.367-2.595-10.44-2.57 0 0 1.555 2.224 5.874 3.139l.05-.05z" fill="#fff"/><path d="M790.983 675.092c-14.858-12.852-33.64-19.53-37.54-20.815l-.37-.126-.493-.151-.864.277c-3.9 1.285-22.682 7.963-37.54 20.815l-.321.277.075.429c.024.101 1.628 9.853 7.108 20.865 3.233 6.477 7.157 12.096 11.649 16.758 5.504 5.695 11.921 9.904 19.053 12.525l.42.151.42.151.444-.176.419-.152c7.133-2.62 13.525-6.829 19.054-12.524 4.492-4.637 8.416-10.281 11.649-16.758 5.479-10.987 7.108-20.765 7.108-20.865l.074-.429-.345-.252zm-8.194 20.866c-3.159 6.325-6.985 11.844-11.378 16.38-5.454 5.619-11.773 9.752-18.831 12.297-7.059-2.545-13.377-6.653-18.832-12.272-4.393-4.536-8.219-10.03-11.378-16.355-4.763-9.525-6.54-18.068-6.91-20.034 15.228-13.028 34.479-19.53 37.12-20.386 2.616.856 21.891 7.358 37.119 20.386-.37 1.941-2.171 10.483-6.91 19.984z" fill="#85B4FF"/><path d="M755.436 704.514c12.37 0 22.398-10.041 22.398-22.426 0-12.386-10.028-22.426-22.398-22.426-12.369 0-22.397 10.04-22.397 22.426 0 12.385 10.028 22.426 22.397 22.426z" fill="#01D5E3"/><path d="M771.389 675.969c1.605 2.176 2.222 4.141 2.222 6.811 0 3.239-1.333 6.231-3.605 8.654l1.383 5.168h4.198l4.42-5.019 1.186-7.344.246-4.376-4.37-4.945c-3.886-.468-5.78-.118-5.68 1.051z" fill="#2CEAF6"/><path d="M722.519 697.195l.766 3.041s9.038 18.569 29.386 25.467c0 0 18.512-7.912 26.735-21.338l-11.351-9.915s-5.432 4.327-13.507 4.327-19.04-4.821-19.04-14.761c0-9.939 11.36-13.574 11.36-13.574l-4.84-1.187h-12.372l-7.853 18.94.716 9z" fill="#2CEAF6"/><path d="M790.897 676.322c-.345-.346-9.156-11.052-36.641-20.522-.868-.595-1.339-.779-1.412-.551-25.529 6.518-38.054 20.216-38.054 21.073 0 .856 3.655 13.727 6.026 18.969.197.445 3.358 6.033 5.704 9.074-1.383-3.041-2.889-5.686-2.889-10.236 0-12.832 9.927-23.266 22.348-23.711.296 0 .617 0 .914.024l-2.964-2.967s11.927-2.002 27.238 7.27c0 0 .222.469 0 1.854 0 0 7.21 3.115 7.828 9.173.617 6.058-3.21 9.519-6.297 10.014 0 0 1.605-2.497-.864-3.833-.519-.296-1.136-.42-1.754-.395-4.716 0-5.26 5.39-5.26 5.39-.049.272-.049.544-.049.816 0 0-.79 7.887 13.236 7.739 0 0 7.112-8.061 8.989-15.305.691-2.67 1.185-4.673 1.506-6.157.79-2.101 1.556-5.197 2.297-7.447l.098-.272z" fill="#34B2E9"/><path opacity=".895" d="M765.067 677.143c.198-.099.84-.421 1.581-1.187 1.481.198 2.938.668 2.938.668-2.691-1.632-6.371-2.597-10.445-2.572 0 0 1.555 2.225 5.877 3.14l.049-.049z" fill="#109FDD"/><path d="M791.169 675.104c-14.866-12.859-33.658-19.541-37.56-20.827l-.37-.126-.494-.151-.864.277c-3.902 1.286-22.694 7.968-37.56 20.827l-.321.277.074.429c.025.1 1.63 9.858 7.112 20.876 3.235 6.48 7.161 12.103 11.656 16.767 5.506 5.699 11.927 9.909 19.063 12.531l.42.152.42.151.444-.177.42-.151c7.137-2.622 13.533-6.833 19.064-12.531 4.494-4.639 8.421-10.287 11.656-16.767 5.482-10.993 7.112-20.776 7.112-20.877l.074-.428-.346-.252zm-8.198 20.876c-3.161 6.329-6.989 11.851-11.384 16.389-5.458 5.623-11.78 9.758-18.842 12.304-7.063-2.546-13.384-6.656-18.842-12.279-4.395-4.538-8.223-10.035-11.384-16.363-4.766-9.531-6.543-18.078-6.914-20.045 15.236-13.035 34.498-19.54 37.14-20.398 2.618.858 21.904 7.363 37.14 20.398-.371 1.942-2.173 10.489-6.914 19.994z" fill="#01D5E3"/><defs><clipPath id="clip0"><path fill="#fff" transform="translate(695.818 172.051)" d="M0 0h121.939v17.42H0z"/></clipPath></defs></svg>