<svg width="1440" height="922" viewBox="0 0 1440 922" fill="none" xmlns="http://www.w3.org/2000/svg">
<rect width="1440" height="921" fill="#019FE3"/>
<path d="M1335.47 539H1240.37C1238.51 539 1237 540.511 1237 542.374V637.525C1237 639.389 1238.51 640.9 1240.37 640.9H1335.47C1337.33 640.9 1338.84 639.389 1338.84 637.525V542.374C1338.84 540.511 1337.33 539 1335.47 539Z" fill="#34B2E9"/>
<rect x="1270" y="640.678" width="25" height="25" transform="rotate(-45 1270 640.678)" fill="#34B2E9"/>
<path d="M1289.44 604.514C1301.81 604.514 1311.83 594.473 1311.83 582.088C1311.83 569.702 1301.81 559.662 1289.44 559.662C1277.07 559.662 1267.04 569.702 1267.04 582.088C1267.04 594.473 1277.07 604.514 1289.44 604.514Z" fill="#01D5E3"/>
<path d="M1305.39 575.969C1306.99 578.145 1307.61 580.11 1307.61 582.78C1307.61 586.019 1306.28 589.011 1304.01 591.434L1305.39 596.602H1309.59L1314.01 591.583L1315.19 584.239L1315.44 579.863L1311.07 574.918C1307.18 574.45 1305.29 574.8 1305.39 575.969Z" fill="#2CEAF6"/>
<path d="M1256.52 597.195L1257.28 600.236C1257.28 600.236 1266.32 618.805 1286.67 625.703C1286.67 625.703 1305.18 617.791 1313.41 604.365L1302.06 594.45C1302.06 594.45 1296.62 598.777 1288.55 598.777C1280.47 598.777 1269.51 593.956 1269.51 584.016C1269.51 574.077 1280.87 570.442 1280.87 570.442L1276.03 569.255H1263.66L1255.8 588.195L1256.52 597.195Z" fill="#2CEAF6"/>
<path d="M1324.9 576.322C1324.55 575.976 1315.74 565.27 1288.26 555.8C1287.39 555.205 1286.92 555.021 1286.84 555.249C1261.31 561.767 1248.79 575.465 1248.79 576.322C1248.79 577.178 1252.45 590.049 1254.82 595.291C1255.01 595.736 1258.17 601.324 1260.52 604.365C1259.14 601.324 1257.63 598.679 1257.63 594.129C1257.63 581.297 1267.56 570.863 1279.98 570.418C1280.28 570.418 1280.6 570.418 1280.89 570.442L1277.93 567.475C1277.93 567.475 1289.86 565.473 1305.17 574.745C1305.17 574.745 1305.39 575.214 1305.17 576.599C1305.17 576.599 1312.38 579.714 1312.99 585.772C1313.61 591.83 1309.78 595.291 1306.7 595.786C1306.7 595.786 1308.3 593.289 1305.83 591.953C1305.31 591.657 1304.7 591.533 1304.08 591.558C1299.36 591.558 1298.82 596.948 1298.82 596.948C1298.77 597.22 1298.77 597.492 1298.77 597.764C1298.77 597.764 1297.98 605.651 1312.01 605.503C1312.01 605.503 1319.12 597.442 1321 590.198C1321.69 587.528 1322.18 585.525 1322.5 584.041C1323.29 581.94 1324.06 578.844 1324.8 576.594L1324.9 576.322Z" fill="#34B2E9"/>
<path opacity="0.895424" d="M1299.07 577.143C1299.26 577.044 1299.91 576.722 1300.65 575.956C1302.13 576.154 1303.59 576.624 1303.59 576.624C1300.89 574.992 1297.22 574.027 1293.14 574.052C1293.14 574.052 1294.7 576.277 1299.02 577.192C1299.02 577.192 1299.04 577.167 1299.07 577.143Z" fill="#109FDD"/>
<path d="M1325.17 575.104C1310.3 562.245 1291.51 555.563 1287.61 554.277L1287.24 554.151L1286.74 554L1285.88 554.277C1281.98 555.563 1263.19 562.245 1248.32 575.104L1248 575.381L1248.07 575.81C1248.1 575.91 1249.7 585.668 1255.19 596.686C1258.42 603.166 1262.35 608.789 1266.84 613.453C1272.35 619.152 1278.77 623.362 1285.91 625.984L1286.33 626.136L1286.74 626.287L1287.19 626.11L1287.61 625.959C1294.75 623.337 1301.14 619.126 1306.67 613.428C1311.17 608.789 1315.09 603.141 1318.33 596.661C1323.81 585.668 1325.44 575.885 1325.44 575.784L1325.51 575.356L1325.17 575.104ZM1316.97 595.98C1313.81 602.309 1309.98 607.831 1305.59 612.369C1300.13 617.992 1293.81 622.127 1286.74 624.673C1279.68 622.127 1273.36 618.017 1267.9 612.394C1263.51 607.856 1259.68 602.359 1256.52 596.031C1251.75 586.5 1249.98 577.953 1249.61 575.986C1264.84 562.951 1284.1 556.446 1286.74 555.588C1289.36 556.446 1308.65 562.951 1323.88 575.986C1323.51 577.928 1321.71 586.475 1316.97 595.98Z" fill="#01D5E3"/>
<path d="M1400.79 169C1416.92 169 1430 155.883 1430 139.703C1430 125.804 1420.35 114.173 1407.4 111.168C1407.14 81.7596 1383.29 58 1353.91 58C1333.74 58 1316.18 69.2002 1307.06 85.7376C1304.29 84.5337 1301.23 83.8635 1298.02 83.8635C1286.44 83.8635 1276.89 92.5233 1275.42 103.736C1260.36 106.733 1249 120.059 1249 136.051C1249 154.248 1263.71 169 1281.85 169C1286.9 169 1397.33 169 1400.79 169Z" fill="#34B2E9"/>
<path d="M129.793 433C145.924 433 159 419.883 159 403.703C159 389.804 149.347 378.173 136.402 375.168C136.137 345.76 112.292 322 82.9107 322C62.7391 322 45.1782 333.2 36.0635 349.738C33.2902 348.534 30.2333 347.863 27.0195 347.863C15.4419 347.863 5.88673 356.523 4.42388 367.736C-10.6412 370.733 -22 384.059 -22 400.051C-22 418.248 -7.2934 433 10.8476 433C15.9008 433 126.331 433 129.793 433Z" fill="#34B2E9"/>
<path d="M655 144.166C655 141.957 656.791 140.166 659 140.166H832C834.209 140.166 836 141.957 836 144.166V197.166C836 199.375 834.209 201.166 832 201.166H659C656.791 201.166 655 199.375 655 197.166V144.166Z" fill="white" fill-opacity="0.2"/>
<path d="M699.917 162.057H700.977V157.854H703.793C706.231 157.854 707.14 156.24 707.14 154.873C707.14 153.39 706.322 151.877 703.793 151.877H699.917V162.057ZM703.884 156.938H700.977V152.794H703.884C705.656 152.794 706.125 153.986 706.125 154.873C706.125 155.847 705.55 156.938 703.884 156.938Z" fill="white"/>
<path d="M711.511 162.232C713.494 162.232 714.827 160.777 714.827 158.334C714.827 155.862 713.494 154.451 711.511 154.451C709.527 154.451 708.195 155.906 708.195 158.349C708.195 160.821 709.527 162.232 711.511 162.232ZM711.511 161.316C710.072 161.316 709.3 160.196 709.3 158.349C709.3 156.415 710.072 155.368 711.511 155.368C712.949 155.368 713.721 156.487 713.721 158.334C713.721 160.196 712.919 161.316 711.511 161.316Z" fill="white"/>
<path d="M718.171 162.057H719.14L720.654 157.549C720.73 157.316 720.851 156.953 720.972 156.56C721.093 156.953 721.23 157.331 721.305 157.564L722.85 162.057H723.804L725.712 154.626H724.652L723.425 159.978C723.365 160.268 723.289 160.559 723.228 160.865C723.137 160.559 723.062 160.268 722.971 159.978L721.351 154.626H720.624L719.004 159.978C718.928 160.254 718.852 160.501 718.777 160.792L718.595 159.978L717.323 154.626H716.263L718.171 162.057Z" fill="white"/>
<path d="M730.365 162.232C731.259 162.232 732.122 161.868 732.727 161.388L732.152 160.705C731.561 161.126 730.971 161.286 730.411 161.286C729.093 161.286 728.306 160.268 728.124 158.756H733.394C733.424 158.436 733.424 158.203 733.424 158.043C733.424 155.542 732.016 154.451 730.365 154.451C728.382 154.451 727.004 155.862 727.004 158.334C727.004 160.428 728.276 162.232 730.365 162.232ZM728.094 157.84C728.185 156.153 729.124 155.368 730.365 155.368C731.183 155.368 732.334 155.833 732.349 157.84H728.094Z" fill="white"/>
<path d="M735.548 162.057H736.608V157.854C736.608 156.022 737.713 155.469 738.486 155.469C738.985 155.469 739.288 155.629 739.485 155.746L739.652 154.757C739.44 154.611 739.046 154.451 738.561 154.451C737.607 154.451 736.956 154.96 736.608 155.673V154.626H735.548V162.057Z" fill="white"/>
<path d="M744.147 162.232C745.04 162.232 745.903 161.868 746.509 161.388L745.933 160.705C745.343 161.126 744.752 161.286 744.192 161.286C742.875 161.286 742.087 160.268 741.906 158.756H747.175C747.205 158.436 747.205 158.203 747.205 158.043C747.205 155.542 745.797 154.451 744.147 154.451C742.163 154.451 740.785 155.862 740.785 158.334C740.785 160.428 742.057 162.232 744.147 162.232ZM741.875 157.84C741.966 156.153 742.905 155.368 744.147 155.368C744.964 155.368 746.115 155.833 746.13 157.84H741.875Z" fill="white"/>
<path d="M751.995 162.232C752.964 162.232 753.584 161.868 754.054 161.417V162.057H755.114V151.557L754.054 152.066V155.149C753.584 154.786 752.949 154.451 751.995 154.451C750.026 154.451 748.8 155.891 748.8 158.334C748.8 160.705 750.011 162.232 751.995 162.232ZM752.116 161.316C750.753 161.316 749.905 159.992 749.905 158.334C749.905 156.429 750.692 155.368 752.116 155.368C753.1 155.368 753.736 155.949 754.054 156.444V160.152C753.63 160.894 752.888 161.316 752.116 161.316Z" fill="white"/>
<path d="M764.532 162.232C766.47 162.232 767.636 160.85 767.636 158.334C767.636 155.891 766.379 154.451 764.441 154.451C763.684 154.451 762.881 154.829 762.382 155.353V151.557L761.322 152.066V162.057H762.382V161.388C762.881 161.795 763.442 162.232 764.532 162.232ZM764.365 161.316C763.593 161.316 762.806 160.85 762.382 160.152V156.502C762.669 156.022 763.411 155.368 764.365 155.368C765.804 155.368 766.531 156.429 766.531 158.334C766.531 160.167 765.819 161.316 764.365 161.316Z" fill="white"/>
<path d="M770.748 164.878H771.793L775.745 154.626H774.609L772.626 159.905L772.353 160.661C772.262 160.399 772.186 160.152 772.096 159.905L770.142 154.626H769.067L771.899 161.825L770.748 164.878Z" fill="white"/>
<g clip-path="url(#clip0)">
<path fill-rule="evenodd" clip-rule="evenodd" d="M758.173 180.821V180.775C758.173 176.155 761.771 172.244 766.833 172.244C769.758 172.244 771.556 173.045 773.283 174.481L771.413 176.675C770.118 175.589 768.847 174.906 766.713 174.906C763.618 174.906 761.265 177.568 761.265 180.726V180.775C761.265 184.166 763.545 186.664 766.976 186.664C768.557 186.664 769.995 186.17 771.027 185.415V182.328V181.679L773.882 179.807V186.736C772.228 188.126 769.855 189.303 766.88 189.303C761.627 189.303 758.173 185.628 758.173 180.821Z" fill="white"/>
<path fill-rule="evenodd" clip-rule="evenodd" d="M703.207 172.809L695.818 189.423H698.84L700.568 185.44L701.649 182.87L704.525 176.275L707.428 182.87L708.509 185.44L710.21 189.423H713.329L705.943 172.809H703.207Z" fill="white"/>
<path fill-rule="evenodd" clip-rule="evenodd" d="M744.555 172.466L737.166 189.08H740.188L741.916 185.098L742.997 182.528L745.873 175.932L748.775 182.528L749.857 185.098L751.558 189.08H754.677L747.291 172.466H744.555Z" fill="white"/>
<path fill-rule="evenodd" clip-rule="evenodd" d="M793.835 180.88C793.835 184.084 791.509 186.7 788.174 186.7C784.842 186.7 782.466 184.038 782.466 180.834V180.785C782.466 177.58 784.792 174.964 788.124 174.964C791.459 174.964 793.835 177.626 793.835 180.834V180.88ZM788.174 172.303C783.015 172.303 779.37 176.191 779.37 180.834V180.88C779.37 185.523 782.968 189.362 788.124 189.362C793.283 189.362 796.927 185.474 796.927 180.834V180.785C796.927 176.142 793.329 172.303 788.174 172.303Z" fill="white"/>
<path fill-rule="evenodd" clip-rule="evenodd" d="M814.621 172.585V183.99L805.628 172.585H802.892V189.081H805.795V177.345L815.054 189.081H817.524V172.585H814.621Z" fill="white"/>
<path fill-rule="evenodd" clip-rule="evenodd" d="M728.586 182.835C730.936 182.174 732.59 180.549 732.59 177.838V177.792C732.59 176.354 732.087 175.128 731.199 174.235C730.12 173.195 728.466 172.584 726.356 172.584H718.87V189.08H721.004H721.822V187.245V183.329V182.817V175.223H726.116C726.487 175.223 726.823 175.263 727.142 175.317C728.694 175.587 729.594 176.492 729.594 177.956V178.005C729.594 179.676 728.249 180.762 726.139 180.762H724.5L723.354 183.329H723.567H725.517L729.641 189.08H733.119L728.586 182.835Z" fill="white"/>
</g>
<path d="M641.487 185.08C658.648 185.08 672.56 171.151 672.56 153.968C672.56 136.785 658.648 122.855 641.487 122.855C624.325 122.855 610.414 136.785 610.414 153.968C610.414 171.151 624.325 185.08 641.487 185.08Z" fill="#01D5E3"/>
<path d="M663.618 145.479C665.845 148.497 666.702 151.224 666.702 154.928C666.702 159.422 664.852 163.572 661.7 166.934L663.618 174.103H669.443L675.575 167.14L677.219 156.952L677.562 150.881L671.498 144.02C666.107 143.371 663.48 143.857 663.618 145.479Z" fill="#1CB0F0"/>
<path d="M595.819 174.926L596.881 179.146C596.881 179.146 609.42 204.907 637.65 214.477C637.65 214.477 663.333 203.5 674.741 184.874L658.993 171.119C658.993 171.119 651.456 177.122 640.254 177.122C629.051 177.122 613.84 170.433 613.84 156.643C613.84 142.854 629.599 137.811 629.599 137.811L622.884 136.165H605.72L594.826 162.44L595.819 174.926Z" fill="#1CB0F0"/>
<path d="M690.683 145.968C690.204 145.488 677.98 130.635 639.85 117.497C638.644 116.671 637.991 116.416 637.89 116.732C602.472 125.775 585.096 144.78 585.096 145.968C585.096 147.156 590.167 165.013 593.456 172.285C593.73 172.903 598.115 180.655 601.37 184.874C599.451 180.655 597.361 176.985 597.361 170.673C597.361 152.87 611.133 138.394 628.366 137.777C628.777 137.777 629.222 137.777 629.633 137.811L625.522 133.695C625.522 133.695 642.069 130.916 663.31 143.78C663.31 143.78 663.618 144.432 663.31 146.353C663.31 146.353 673.314 150.675 674.17 159.079C675.027 167.483 669.717 172.285 665.434 172.971C665.434 172.971 667.661 169.507 664.235 167.654C663.516 167.243 662.659 167.071 661.803 167.106C655.259 167.106 654.506 174.583 654.506 174.583C654.437 174.961 654.437 175.338 654.437 175.715C654.437 175.715 653.341 186.658 672.8 186.452C672.8 186.452 682.667 175.269 685.27 165.219C686.23 161.514 686.915 158.736 687.36 156.678C688.456 153.762 689.518 149.467 690.546 146.345L690.683 145.968Z" fill="#3B84F8"/>
<path opacity="0.895424" d="M654.848 147.107C655.122 146.97 656.013 146.524 657.041 145.461C659.096 145.735 661.117 146.387 661.117 146.387C657.383 144.123 652.278 142.785 646.626 142.819C646.626 142.819 648.784 145.906 654.779 147.176C654.779 147.176 654.814 147.141 654.848 147.107Z" fill="#109FDD"/>
<path d="M691.06 144.278C670.436 126.438 644.365 117.169 638.952 115.385L638.438 115.21L637.753 115L636.554 115.385C631.141 117.169 605.069 126.438 584.445 144.278L584 144.663L584.103 145.257C584.137 145.397 586.364 158.935 593.969 174.221C598.457 183.21 603.905 191.011 610.14 197.482C617.78 205.388 626.687 211.229 636.588 214.867L637.17 215.077L637.753 215.287L638.369 215.042L638.952 214.832C648.853 211.194 657.726 205.353 665.4 197.447C671.635 191.011 677.082 183.176 681.57 174.186C689.176 158.935 691.437 145.362 691.437 145.222L691.54 144.628L691.06 144.278ZM679.686 173.241C675.301 182.021 669.991 189.682 663.892 195.978C656.321 203.779 647.551 209.515 637.753 213.048C627.955 209.515 619.184 203.814 611.613 196.013C605.515 189.717 600.205 182.091 595.819 173.311C589.207 160.089 586.741 148.231 586.227 145.502C607.365 127.418 634.087 118.393 637.753 117.204C641.384 118.393 668.141 127.418 689.278 145.502C688.765 148.196 686.264 160.054 679.686 173.241Z" fill="#01D5E3"/>
<path d="M197.465 556H102.372C100.51 556 99 557.511 99 559.374V654.525C99 656.389 100.51 657.9 102.372 657.9H197.465C199.327 657.9 200.837 656.389 200.837 654.525V559.374C200.837 557.511 199.327 556 197.465 556Z" fill="#34B2E9"/>
<rect x="132" y="657.678" width="25" height="25" transform="rotate(-45 132 657.678)" fill="#34B2E9"/>
<path d="M151.269 621.487C163.633 621.487 173.655 611.452 173.655 599.073C173.655 586.694 163.633 576.659 151.269 576.659C138.906 576.659 128.884 586.694 128.884 599.073C128.884 611.452 138.906 621.487 151.269 621.487Z" fill="#85B4FF"/>
<path d="M167.214 592.957C168.818 595.132 169.435 597.096 169.435 599.765C169.435 603.002 168.103 605.992 165.832 608.414L167.214 613.579H171.41L175.828 608.562L177.012 601.223L177.259 596.849L172.891 591.906C169.007 591.438 167.115 591.789 167.214 592.957Z" fill="white"/>
<path d="M118.371 614.171L119.136 617.211C119.136 617.211 128.169 635.77 148.506 642.664C148.506 642.664 167.008 634.756 175.227 621.338L163.882 611.428C163.882 611.428 158.452 615.753 150.381 615.753C142.311 615.753 131.353 610.934 131.353 601C131.353 591.066 142.706 587.433 142.706 587.433L137.868 586.247H125.503L117.655 605.176L118.371 614.171Z" fill="white"/>
<path d="M186.711 593.31C186.366 592.964 177.56 582.263 150.09 572.799C149.222 572.204 148.751 572.02 148.678 572.248C123.163 578.762 110.645 592.454 110.645 593.31C110.645 594.166 114.298 607.03 116.667 612.269C116.865 612.714 120.024 618.299 122.369 621.338C120.986 618.299 119.481 615.654 119.481 611.107C119.481 598.282 129.403 587.853 141.817 587.409C142.113 587.409 142.434 587.409 142.73 587.433L139.769 584.468C139.769 584.468 151.689 582.466 166.991 591.733C166.991 591.733 167.214 592.203 166.991 593.587C166.991 593.587 174.198 596.7 174.815 602.755C175.432 608.809 171.607 612.269 168.522 612.763C168.522 612.763 170.126 610.267 167.658 608.933C167.139 608.636 166.522 608.513 165.905 608.537C161.191 608.537 160.648 613.925 160.648 613.925C160.599 614.196 160.599 614.468 160.599 614.74C160.599 614.74 159.809 622.623 173.828 622.475C173.828 622.475 180.936 614.419 182.812 607.178C183.503 604.509 183.996 602.508 184.317 601.025C185.107 598.924 185.872 595.83 186.613 593.581L186.711 593.31Z" fill="#5A99FC"/>
<path opacity="0.895424" d="M160.895 594.13C161.092 594.031 161.734 593.71 162.474 592.944C163.955 593.142 165.411 593.611 165.411 593.611C162.721 591.98 159.044 591.016 154.971 591.041C154.971 591.041 156.526 593.265 160.845 594.18C160.845 594.18 160.87 594.155 160.895 594.13Z" fill="white"/>
<path d="M186.983 592.092C172.125 579.24 153.343 572.562 149.443 571.277L149.073 571.151L148.58 571L147.716 571.277C143.816 572.562 125.034 579.24 110.176 592.092L109.855 592.369L109.93 592.798C109.954 592.899 111.558 602.651 117.038 613.663C120.271 620.14 124.195 625.759 128.687 630.421C134.191 636.116 140.608 640.325 147.74 642.946L148.16 643.097L148.58 643.248L149.024 643.072L149.443 642.92C156.576 640.3 162.968 636.091 168.497 630.396C172.989 625.759 176.913 620.115 180.146 613.638C185.625 602.651 187.254 592.873 187.254 592.773L187.328 592.344L186.983 592.092ZM178.789 612.958C175.63 619.283 171.804 624.802 167.411 629.338C161.957 634.957 155.638 639.09 148.58 641.635C141.521 639.09 135.203 634.982 129.748 629.363C125.355 624.827 121.529 619.333 118.37 613.008C113.607 603.483 111.83 594.94 111.46 592.974C126.688 579.946 145.939 573.444 148.58 572.588C151.196 573.444 170.471 579.946 185.699 592.974C185.329 594.915 183.528 603.457 178.789 612.958Z" fill="#85B4FF"/>
<path d="M151.449 621.514C163.819 621.514 173.846 611.473 173.846 599.088C173.846 586.702 163.819 576.662 151.449 576.662C139.079 576.662 129.051 586.702 129.051 599.088C129.051 611.473 139.079 621.514 151.449 621.514Z" fill="#01D5E3"/>
<path d="M167.401 592.969C169.007 595.145 169.624 597.11 169.624 599.78C169.624 603.019 168.29 606.011 166.019 608.434L167.401 613.602H171.599L176.02 608.583L177.205 601.239L177.452 596.863L173.081 591.918C169.195 591.45 167.302 591.8 167.401 592.969Z" fill="#2CEAF6"/>
<path d="M118.532 614.195L119.297 617.236C119.297 617.236 128.335 635.805 148.683 642.703C148.683 642.703 167.195 634.791 175.419 621.365L164.068 611.45C164.068 611.45 158.635 615.777 150.56 615.777C142.485 615.777 131.521 610.956 131.521 601.016C131.521 591.077 142.88 587.442 142.88 587.442L138.04 586.255H125.668L117.816 605.195L118.532 614.195Z" fill="#2CEAF6"/>
<path d="M186.91 593.322C186.564 592.976 177.753 582.27 150.269 572.8C149.4 572.205 148.929 572.021 148.856 572.249C123.327 578.767 110.803 592.465 110.803 593.322C110.803 594.178 114.457 607.049 116.828 612.291C117.026 612.736 120.186 618.324 122.532 621.365C121.15 618.324 119.643 615.679 119.643 611.129C119.643 598.297 129.57 587.863 141.991 587.418C142.288 587.418 142.609 587.418 142.905 587.442L139.942 584.475C139.942 584.475 151.869 582.473 167.179 591.745C167.179 591.745 167.402 592.214 167.179 593.599C167.179 593.599 174.39 596.714 175.007 602.772C175.625 608.83 171.797 612.291 168.71 612.786C168.71 612.786 170.315 610.289 167.846 608.953C167.327 608.657 166.71 608.533 166.093 608.558C161.376 608.558 160.833 613.948 160.833 613.948C160.784 614.22 160.784 614.492 160.784 614.764C160.784 614.764 159.993 622.651 174.02 622.503C174.02 622.503 181.131 614.442 183.008 607.198C183.7 604.528 184.193 602.525 184.514 601.041C185.305 598.94 186.07 595.844 186.811 593.594L186.91 593.322Z" fill="#34B2E9"/>
<path opacity="0.895424" d="M161.08 594.143C161.277 594.044 161.919 593.722 162.66 592.956C164.142 593.154 165.599 593.624 165.599 593.624C162.907 591.992 159.228 591.027 155.153 591.052C155.153 591.052 156.709 593.277 161.03 594.192C161.03 594.192 161.055 594.167 161.08 594.143Z" fill="#109FDD"/>
<path d="M187.181 592.104C172.316 579.245 153.523 572.563 149.622 571.277L149.251 571.151L148.757 571L147.893 571.277C143.991 572.563 125.199 579.245 110.333 592.104L110.012 592.381L110.087 592.81C110.111 592.91 111.716 602.668 117.198 613.686C120.433 620.166 124.36 625.789 128.854 630.453C134.361 636.152 140.781 640.362 147.918 642.984L148.338 643.136L148.757 643.287L149.202 643.11L149.622 642.959C156.758 640.337 163.154 636.126 168.686 630.428C173.18 625.789 177.106 620.141 180.341 613.661C185.823 602.668 187.453 592.885 187.453 592.784L187.527 592.356L187.181 592.104ZM178.983 612.98C175.822 619.309 171.995 624.831 167.599 629.369C162.142 634.992 155.82 639.127 148.757 641.673C141.695 639.127 135.373 635.017 129.916 629.394C125.52 624.856 121.693 619.359 118.532 613.031C113.766 603.5 111.988 594.953 111.618 592.986C126.854 579.951 146.115 573.446 148.757 572.588C151.375 573.446 170.661 579.951 185.897 592.986C185.527 594.928 183.724 603.475 178.983 612.98Z" fill="#01D5E3"/>
<path fill-rule="evenodd" clip-rule="evenodd" d="M81.552 921.881H218.217V750.617H81.552V921.881Z" fill="#FFFFFE"/>
<path fill-rule="evenodd" clip-rule="evenodd" d="M218.665 728.128L150.333 691.223L81.9998 728.128V750.617H218.665V728.128Z" fill="#4D5E82"/>
<path fill-rule="evenodd" clip-rule="evenodd" d="M122.363 801.873H101.158V791.27C101.158 785.415 105.905 780.668 111.76 780.668C117.616 780.668 122.363 785.415 122.363 791.27V801.873Z" fill="#34B2E9"/>
<path fill-rule="evenodd" clip-rule="evenodd" d="M160.487 801.873H139.282V791.27C139.282 785.415 144.029 780.668 149.885 780.668C155.74 780.668 160.487 785.415 160.487 791.27V801.873Z" fill="#34B2E9"/>
<path fill-rule="evenodd" clip-rule="evenodd" d="M198.611 801.873H177.406V791.27C177.406 785.415 182.153 780.668 188.009 780.668C193.864 780.668 198.611 785.415 198.611 791.27V801.873Z" fill="#34B2E9"/>
<path fill-rule="evenodd" clip-rule="evenodd" d="M122.363 871.647H101.158V861.045C101.158 855.189 105.905 850.442 111.76 850.442C117.616 850.442 122.363 855.189 122.363 861.045V871.647Z" fill="#34B2E9"/>
<path fill-rule="evenodd" clip-rule="evenodd" d="M160.487 871.647H139.282V861.045C139.282 855.189 144.029 850.442 149.885 850.442C155.74 850.442 160.487 855.189 160.487 861.045V871.647Z" fill="#34B2E9"/>
<path fill-rule="evenodd" clip-rule="evenodd" d="M198.611 871.647H177.406V861.045C177.406 855.189 182.153 850.442 188.009 850.442C193.864 850.442 198.611 855.189 198.611 861.045V871.647Z" fill="#34B2E9"/>
<path fill-rule="evenodd" clip-rule="evenodd" d="M101.158 830.77H198.611V821.545H101.158V830.77Z" fill="#4D5E82"/>
<path fill-rule="evenodd" clip-rule="evenodd" d="M218.217 821.545V921.881H279.918V854.868L218.217 821.545Z" fill="#659BC2"/>
<path fill-rule="evenodd" clip-rule="evenodd" d="M218.217 821.545L279.918 854.868V826.294L218.217 792.97V821.545Z" fill="#4D5E82"/>
<path fill-rule="evenodd" clip-rule="evenodd" d="M238.687 921.881H259.447V882.092H238.687V921.881Z" fill="#FFFFFE"/>
<path fill-rule="evenodd" clip-rule="evenodd" d="M57.5419 826.157C63.9459 821.62 68.1379 814.166 68.1379 805.72C68.1379 791.884 56.9229 780.668 43.0879 780.668C29.2519 780.668 18.0359 791.884 18.0359 805.72C18.0359 814.166 22.2289 821.62 28.6339 826.157C22.2289 830.695 18.0359 838.149 18.0359 846.596C18.0359 860.432 29.2519 871.647 43.0879 871.647C56.9229 871.647 68.1379 860.432 68.1379 846.596C68.1379 838.149 63.9459 830.695 57.5419 826.157Z" fill="#34B2E9"/>
<path fill-rule="evenodd" clip-rule="evenodd" d="M37.8977 921.881H48.2767V846.596H37.8977V921.881Z" fill="#010604"/>
<path fill-rule="evenodd" clip-rule="evenodd" d="M280.097 921.35H393.65V679.824H280.097V921.35Z" fill="#659BC2"/>
<path fill-rule="evenodd" clip-rule="evenodd" d="M393.65 661.005L336.874 627.181L280.097 661.005V679.824H393.65V661.005Z" fill="#010604"/>
<path fill-rule="evenodd" clip-rule="evenodd" d="M301.945 727.319H313.387V707.713H301.945V727.319Z" fill="#4D5E82"/>
<path fill-rule="evenodd" clip-rule="evenodd" d="M331.153 727.319H342.594V707.713H331.153V727.319Z" fill="#4D5E82"/>
<path fill-rule="evenodd" clip-rule="evenodd" d="M360.36 727.319H371.802V707.713H360.36V727.319Z" fill="#4D5E82"/>
<path fill-rule="evenodd" clip-rule="evenodd" d="M301.945 774.81H313.387V755.21H301.945V774.81Z" fill="#4D5E82"/>
<path fill-rule="evenodd" clip-rule="evenodd" d="M331.153 774.81H342.594V755.21H331.153V774.81Z" fill="#4D5E82"/>
<path fill-rule="evenodd" clip-rule="evenodd" d="M360.36 774.81H371.802V755.21H360.36V774.81Z" fill="#4D5E82"/>
<path fill-rule="evenodd" clip-rule="evenodd" d="M301.945 822.31H313.387V802.7H301.945V822.31Z" fill="#4D5E82"/>
<path fill-rule="evenodd" clip-rule="evenodd" d="M331.153 822.31H342.594V802.7H331.153V822.31Z" fill="#4D5E82"/>
<path fill-rule="evenodd" clip-rule="evenodd" d="M360.36 822.31H371.802V802.7H360.36V822.31Z" fill="#4D5E82"/>
<path fill-rule="evenodd" clip-rule="evenodd" d="M301.945 869.81H313.387V850.2H301.945V869.81Z" fill="#4D5E82"/>
<path fill-rule="evenodd" clip-rule="evenodd" d="M331.153 869.81H342.594V850.2H331.153V869.81Z" fill="#4D5E82"/>
<path fill-rule="evenodd" clip-rule="evenodd" d="M360.36 869.81H371.802V850.2H360.36V869.81Z" fill="#4D5E82"/>
<path fill-rule="evenodd" clip-rule="evenodd" d="M537.279 921.35H393.65V748.08L537.279 816.71V921.35Z" fill="#FFFFFE"/>
<path fill-rule="evenodd" clip-rule="evenodd" d="M393.65 713.763L537.279 782.39V816.71L393.65 748.08V713.763Z" fill="#4D5E82"/>
<path fill-rule="evenodd" clip-rule="evenodd" d="M438.124 852.3H418.517V842.5C418.517 837.08 422.906 832.7 428.32 832.7C433.734 832.7 438.124 837.08 438.124 842.5V852.3Z" fill="#34B2E9"/>
<path fill-rule="evenodd" clip-rule="evenodd" d="M475.267 852.3H455.661V842.5C455.661 837.08 460.051 832.7 465.465 832.7C470.879 832.7 475.267 837.08 475.267 842.5V852.3Z" fill="#34B2E9"/>
<path fill-rule="evenodd" clip-rule="evenodd" d="M512.411 852.3H492.805V842.5C492.805 837.08 497.194 832.7 502.608 832.7C508.022 832.7 512.411 837.08 512.411 842.5V852.3Z" fill="#34B2E9"/>
<path fill-rule="evenodd" clip-rule="evenodd" d="M438.124 810.7H418.517V800.9C418.517 795.48 422.906 791.09 428.32 791.09C433.734 791.09 438.124 795.48 438.124 800.9V810.7Z" fill="#34B2E9"/>
<path fill-rule="evenodd" clip-rule="evenodd" d="M438.124 921.35H492.805V873H438.124V921.35Z" fill="#659BC2"/>
<path fill-rule="evenodd" clip-rule="evenodd" d="M1200.51 825.63C1206.91 821.09 1211.1 813.63 1211.1 805.19C1211.1 791.35 1199.89 780.14 1186.05 780.14C1172.22 780.14 1161 791.35 1161 805.19C1161 813.63 1165.19 821.09 1171.6 825.63C1165.19 830.16 1161 837.62 1161 846.06C1161 859.9 1172.22 871.12 1186.05 871.12C1199.89 871.12 1211.1 859.9 1211.1 846.06C1211.1 837.62 1206.91 830.16 1200.51 825.63Z" fill="#34B2E9"/>
<path fill-rule="evenodd" clip-rule="evenodd" d="M1180.86 921.35H1191.24V846.06H1180.86V921.35Z" fill="#010604"/>
<path fill-rule="evenodd" clip-rule="evenodd" d="M647.979 825.63C647.979 850.75 627.612 871.12 602.489 871.12C577.366 871.12 557 850.75 557 825.63C557 800.5 577.366 780.14 602.489 780.14C627.612 780.14 647.979 800.5 647.979 825.63Z" fill="#FED183"/>
<path fill-rule="evenodd" clip-rule="evenodd" d="M597.299 921.35H607.679V846.06H597.299V921.35Z" fill="#010604"/>
<path fill-rule="evenodd" clip-rule="evenodd" d="M672.112 921.35H845.91V816.33H672.112V921.35Z" fill="#34B2E9"/>
<path fill-rule="evenodd" clip-rule="evenodd" d="M845.91 774.81H672.112L657 816.33H861.022L845.91 774.81Z" fill="#4D5E82"/>
<path fill-rule="evenodd" clip-rule="evenodd" d="M713.095 858.47H693.893V848.87C693.893 843.57 698.191 839.27 703.494 839.27C708.797 839.27 713.095 843.57 713.095 848.87V858.47Z" fill="#FFFFFE"/>
<path fill-rule="evenodd" clip-rule="evenodd" d="M750.106 858.47H730.904V848.87C730.904 843.57 735.203 839.27 740.505 839.27C745.808 839.27 750.106 843.57 750.106 848.87V858.47Z" fill="#FFFFFE"/>
<path fill-rule="evenodd" clip-rule="evenodd" d="M787.118 858.47H767.916V848.87C767.916 843.57 772.214 839.27 777.517 839.27C782.819 839.27 787.118 843.57 787.118 848.87V858.47Z" fill="#FFFFFE"/>
<path fill-rule="evenodd" clip-rule="evenodd" d="M824.128 858.47H804.927V848.87C804.927 843.57 809.226 839.27 814.528 839.27C819.831 839.27 824.128 843.57 824.128 848.87V858.47Z" fill="#FFFFFE"/>
<path fill-rule="evenodd" clip-rule="evenodd" d="M693.893 883.44H824.129V874.78H693.893V883.44Z" fill="#4D5E82"/>
<path fill-rule="evenodd" clip-rule="evenodd" d="M846 921.35H927.479V699.306H846V921.35Z" fill="#4D5E82"/>
<path fill-rule="evenodd" clip-rule="evenodd" d="M927.479 921.35H1060.53V663.882H927.479V921.35Z" fill="#659BC2"/>
<path fill-rule="evenodd" clip-rule="evenodd" d="M1060.53 921.35H1141.17V765.24H1060.53V921.35Z" fill="#FFFFFE"/>
<path fill-rule="evenodd" clip-rule="evenodd" d="M862.521 731.582H910.959V722.933H862.521V731.582Z" fill="#FFFFFE"/>
<path fill-rule="evenodd" clip-rule="evenodd" d="M862.521 763.86H910.959V755.21H862.521V763.86Z" fill="#FFFFFE"/>
<path fill-rule="evenodd" clip-rule="evenodd" d="M862.521 796.13H910.959V787.49H862.521V796.13Z" fill="#FFFFFE"/>
<path fill-rule="evenodd" clip-rule="evenodd" d="M862.521 828.41H910.959V819.76H862.521V828.41Z" fill="#FFFFFE"/>
<path fill-rule="evenodd" clip-rule="evenodd" d="M862.521 860.69H910.959V852.04H862.521V860.69Z" fill="#FFFFFE"/>
<path fill-rule="evenodd" clip-rule="evenodd" d="M1076.63 796.13H1125.07V787.49H1076.63V796.13Z" fill="#659BC2"/>
<path fill-rule="evenodd" clip-rule="evenodd" d="M1076.63 828.41H1125.07V819.76H1076.63V828.41Z" fill="#659BC2"/>
<path fill-rule="evenodd" clip-rule="evenodd" d="M1076.63 860.69H1125.07V852.04H1076.63V860.69Z" fill="#659BC2"/>
<path fill-rule="evenodd" clip-rule="evenodd" d="M945.893 699.306H1042.12V690.656H945.893V699.306Z" fill="#FFFFFE"/>
<path fill-rule="evenodd" clip-rule="evenodd" d="M945.893 731.582H1042.12V722.933H945.893V731.582Z" fill="#FFFFFE"/>
<path fill-rule="evenodd" clip-rule="evenodd" d="M945.893 763.86H1042.12V755.21H945.893V763.86Z" fill="#FFFFFE"/>
<path fill-rule="evenodd" clip-rule="evenodd" d="M945.893 796.13H1042.12V787.49H945.893V796.13Z" fill="#FFFFFE"/>
<path fill-rule="evenodd" clip-rule="evenodd" d="M945.893 828.41H1042.12V819.76H945.893V828.41Z" fill="#FFFFFE"/>
<path fill-rule="evenodd" clip-rule="evenodd" d="M982.082 921.35H1005.93V868.05H982.082V921.35Z" fill="#010604"/>
<path fill-rule="evenodd" clip-rule="evenodd" d="M1346.1 920.81H1233V748.08L1346.1 693.663V920.81Z" fill="#34B2E9"/>
<path fill-rule="evenodd" clip-rule="evenodd" d="M1233 713.951L1346.1 659.536V693.663L1233 748.08V713.951Z" fill="#3B84F8"/>
<path fill-rule="evenodd" clip-rule="evenodd" d="M1325.66 766.7H1309.56V758.65C1309.56 754.2 1313.16 750.6 1317.61 750.6C1322.06 750.6 1325.66 754.2 1325.66 758.65V766.7Z" fill="#FFFFFE"/>
<path fill-rule="evenodd" clip-rule="evenodd" d="M1292.21 766.7H1276.1V758.65C1276.1 754.2 1279.71 750.6 1284.16 750.6C1288.6 750.6 1292.21 754.2 1292.21 758.65V766.7Z" fill="#FFFFFE"/>
<path fill-rule="evenodd" clip-rule="evenodd" d="M1325.66 803.75H1309.56V795.7C1309.56 791.25 1313.16 787.65 1317.61 787.65C1322.06 787.65 1325.66 791.25 1325.66 795.7V803.75Z" fill="#FFFFFE"/>
<path fill-rule="evenodd" clip-rule="evenodd" d="M1292.21 803.75H1276.1V795.7C1276.1 791.25 1279.71 787.65 1284.16 787.65C1288.6 787.65 1292.21 791.25 1292.21 795.7V803.75Z" fill="#FFFFFE"/>
<path fill-rule="evenodd" clip-rule="evenodd" d="M1325.66 840.81H1309.56V832.75C1309.56 828.31 1313.16 824.7 1317.61 824.7C1322.06 824.7 1325.66 828.31 1325.66 832.75V840.81Z" fill="#FFFFFE"/>
<path fill-rule="evenodd" clip-rule="evenodd" d="M1292.21 840.81H1276.1V832.75C1276.1 828.31 1279.71 824.7 1284.16 824.7C1288.6 824.7 1292.21 828.31 1292.21 832.75V840.81Z" fill="#FFFFFE"/>
<path fill-rule="evenodd" clip-rule="evenodd" d="M1256.7 921.35H1276.1V869.81H1256.7V921.35Z" fill="#4D5E82"/>
<path fill-rule="evenodd" clip-rule="evenodd" d="M1410.51 826.157C1416.91 821.62 1421.1 814.166 1421.1 805.72C1421.1 791.884 1409.89 780.668 1396.05 780.668C1382.22 780.668 1371 791.884 1371 805.72C1371 814.166 1375.19 821.62 1381.6 826.157C1375.19 830.695 1371 838.149 1371 846.596C1371 860.432 1382.22 871.647 1396.05 871.647C1409.89 871.647 1421.1 860.432 1421.1 846.596C1421.1 838.149 1416.91 830.695 1410.51 826.157Z" fill="#FED183"/>
<path fill-rule="evenodd" clip-rule="evenodd" d="M1390.86 921.881H1401.24V846.596H1390.86V921.881Z" fill="#010604"/>
<path d="M801.465 639H706.372C704.51 639 703 640.511 703 642.374V737.525C703 739.389 704.51 740.9 706.372 740.9H801.465C803.327 740.9 804.837 739.389 804.837 737.525V642.374C804.837 640.511 803.327 639 801.465 639Z" fill="#34B2E9"/>
<rect x="736" y="740.678" width="25" height="25" transform="rotate(-45 736 740.678)" fill="#34B2E9"/>
<path d="M755.269 704.487C767.633 704.487 777.655 694.452 777.655 682.073C777.655 669.694 767.633 659.659 755.269 659.659C742.906 659.659 732.884 669.694 732.884 682.073C732.884 694.452 742.906 704.487 755.269 704.487Z" fill="#85B4FF"/>
<path d="M771.214 675.957C772.818 678.132 773.435 680.096 773.435 682.765C773.435 686.002 772.103 688.992 769.832 691.414L771.214 696.579H775.41L779.828 691.562L781.012 684.223L781.259 679.849L776.891 674.906C773.007 674.438 771.115 674.789 771.214 675.957Z" fill="white"/>
<path d="M722.371 697.171L723.136 700.211C723.136 700.211 732.169 718.77 752.506 725.664C752.506 725.664 771.008 717.756 779.227 704.338L767.882 694.428C767.882 694.428 762.452 698.753 754.381 698.753C746.311 698.753 735.353 693.934 735.353 684C735.353 674.066 746.706 670.433 746.706 670.433L741.868 669.247H729.503L721.655 688.176L722.371 697.171Z" fill="white"/>
<path d="M790.711 676.31C790.366 675.964 781.56 665.263 754.09 655.799C753.222 655.204 752.751 655.02 752.678 655.248C727.163 661.762 714.645 675.454 714.645 676.31C714.645 677.166 718.298 690.03 720.667 695.269C720.865 695.714 724.024 701.299 726.369 704.338C724.986 701.299 723.481 698.654 723.481 694.107C723.481 681.282 733.403 670.853 745.817 670.409C746.113 670.409 746.434 670.409 746.73 670.433L743.769 667.468C743.769 667.468 755.689 665.466 770.991 674.733C770.991 674.733 771.214 675.203 770.991 676.587C770.991 676.587 778.198 679.7 778.815 685.755C779.432 691.809 775.607 695.269 772.522 695.763C772.522 695.763 774.126 693.267 771.658 691.933C771.139 691.636 770.522 691.513 769.905 691.537C765.191 691.537 764.648 696.925 764.648 696.925C764.599 697.196 764.599 697.468 764.599 697.74C764.599 697.74 763.809 705.623 777.828 705.475C777.828 705.475 784.936 697.419 786.812 690.178C787.503 687.509 787.996 685.508 788.317 684.025C789.107 681.924 789.872 678.83 790.613 676.581L790.711 676.31Z" fill="#5A99FC"/>
<path opacity="0.895424" d="M764.895 677.13C765.092 677.031 765.734 676.71 766.474 675.944C767.955 676.142 769.411 676.611 769.411 676.611C766.721 674.98 763.044 674.016 758.971 674.041C758.971 674.041 760.526 676.265 764.845 677.18C764.845 677.18 764.87 677.155 764.895 677.13Z" fill="white"/>
<path d="M790.983 675.092C776.125 662.24 757.343 655.562 753.443 654.277L753.073 654.151L752.58 654L751.716 654.277C747.816 655.562 729.034 662.24 714.176 675.092L713.855 675.369L713.93 675.798C713.954 675.899 715.558 685.651 721.038 696.663C724.271 703.14 728.195 708.759 732.687 713.421C738.191 719.116 744.608 723.325 751.74 725.946L752.16 726.097L752.58 726.248L753.024 726.072L753.443 725.92C760.576 723.3 766.968 719.091 772.497 713.396C776.989 708.759 780.913 703.115 784.146 696.638C789.625 685.651 791.254 675.873 791.254 675.773L791.328 675.344L790.983 675.092ZM782.789 695.958C779.63 702.283 775.804 707.802 771.411 712.338C765.957 717.957 759.638 722.09 752.58 724.635C745.521 722.09 739.203 717.982 733.748 712.363C729.355 707.827 725.529 702.333 722.37 696.008C717.607 686.483 715.83 677.94 715.46 675.974C730.688 662.946 749.939 656.444 752.58 655.588C755.196 656.444 774.471 662.946 789.699 675.974C789.329 677.915 787.528 686.457 782.789 695.958Z" fill="#85B4FF"/>
<path d="M755.436 704.514C767.806 704.514 777.834 694.473 777.834 682.088C777.834 669.702 767.806 659.662 755.436 659.662C743.067 659.662 733.039 669.702 733.039 682.088C733.039 694.473 743.067 704.514 755.436 704.514Z" fill="#01D5E3"/>
<path d="M771.389 675.969C772.994 678.145 773.611 680.11 773.611 682.78C773.611 686.019 772.278 689.011 770.006 691.434L771.389 696.602H775.587L780.007 691.583L781.193 684.239L781.439 679.863L777.069 674.918C773.183 674.45 771.289 674.8 771.389 675.969Z" fill="#2CEAF6"/>
<path d="M722.519 697.195L723.285 700.236C723.285 700.236 732.323 718.805 752.671 725.703C752.671 725.703 771.183 717.791 779.406 704.365L768.055 694.45C768.055 694.45 762.623 698.777 754.548 698.777C746.473 698.777 735.508 693.956 735.508 684.016C735.508 674.077 746.868 670.442 746.868 670.442L742.028 669.255H729.656L721.803 688.195L722.519 697.195Z" fill="#2CEAF6"/>
<path d="M790.897 676.322C790.552 675.976 781.741 665.27 754.256 655.8C753.388 655.205 752.917 655.021 752.844 655.249C727.315 661.767 714.79 675.465 714.79 676.322C714.79 677.178 718.445 690.049 720.816 695.291C721.013 695.736 724.174 701.324 726.52 704.365C725.137 701.324 723.631 698.679 723.631 694.129C723.631 681.297 733.558 670.863 745.979 670.418C746.275 670.418 746.596 670.418 746.893 670.442L743.929 667.475C743.929 667.475 755.856 665.473 771.167 674.745C771.167 674.745 771.389 675.214 771.167 676.599C771.167 676.599 778.377 679.714 778.995 685.772C779.612 691.83 775.785 695.291 772.698 695.786C772.698 695.786 774.303 693.289 771.834 691.953C771.315 691.657 770.698 691.533 770.08 691.558C765.364 691.558 764.82 696.948 764.82 696.948C764.771 697.22 764.771 697.492 764.771 697.764C764.771 697.764 763.981 705.651 778.007 705.503C778.007 705.503 785.119 697.442 786.996 690.198C787.687 687.528 788.181 685.525 788.502 684.041C789.292 681.94 790.058 678.844 790.799 676.594L790.897 676.322Z" fill="#34B2E9"/>
<path opacity="0.895424" d="M765.067 677.143C765.265 677.044 765.907 676.722 766.648 675.956C768.129 676.154 769.586 676.624 769.586 676.624C766.895 674.992 763.215 674.027 759.141 674.052C759.141 674.052 760.696 676.277 765.018 677.192C765.018 677.192 765.043 677.167 765.067 677.143Z" fill="#109FDD"/>
<path d="M791.169 675.104C776.303 662.245 757.511 655.563 753.609 654.277L753.239 654.151L752.745 654L751.881 654.277C747.979 655.563 729.187 662.245 714.321 675.104L714 675.381L714.074 675.81C714.099 675.91 715.704 685.668 721.186 696.686C724.421 703.166 728.347 708.789 732.842 713.453C738.348 719.152 744.769 723.362 751.905 725.984L752.325 726.136L752.745 726.287L753.189 726.11L753.609 725.959C760.746 723.337 767.142 719.126 772.673 713.428C777.167 708.789 781.094 703.141 784.329 696.661C789.811 685.668 791.441 675.885 791.441 675.784L791.515 675.356L791.169 675.104ZM782.971 695.98C779.81 702.309 775.982 707.831 771.587 712.369C766.129 717.992 759.807 722.127 752.745 724.673C745.682 722.127 739.361 718.017 733.903 712.394C729.508 707.856 725.68 702.359 722.519 696.031C717.753 686.5 715.976 677.953 715.605 675.986C730.841 662.951 750.103 656.446 752.745 655.588C755.363 656.446 774.649 662.951 789.885 675.986C789.514 677.928 787.712 686.475 782.971 695.98Z" fill="#01D5E3"/>
<defs>
<clipPath id="clip0">
<rect width="121.939" height="17.4199" fill="white" transform="translate(695.818 172.051)"/>
</clipPath>
</defs>
</svg>
