<svg width="23" height="20" xmlns="http://www.w3.org/2000/svg"><g fill="#84A5CD" fill-rule="nonzero"><path d="M11.405 2.27c-.986 0-1.953.09-2.88.264C7.383.98 5.62.069 3.707.069c-1.486 0-2.327.479-3.647 1.08l1.023.86a4.594 4.594 0 0 1 1.622 3.234C1.232 6.574.435 8.206.435 9.94c0 1.736.825 3.41 2.333 4.752a4.592 4.592 0 0 1-1.62 3.181l-1.023.86 1.208.55c2.488 1.132 5.511.433 7.25-1.926a15.64 15.64 0 0 0 2.822.254c5.946 0 10.971-3.303 10.971-7.67 0-4.371-5.029-7.672-10.97-7.672zm6.744 11.808c-1.79 1.204-4.185 1.867-6.744 1.867-1.704 0-2.84-.286-3.572-.448l-.3.497c-.937 1.546-2.634 2.353-4.364 2.11.863-1.168 1.265-2.61 1.23-3.806l-.003-.395-.307-.248c-.929-.751-2.036-2.006-2.036-3.714 0-1.535.926-3.004 2.61-4.136C6.45 4.6 8.845 3.938 11.404 3.938c2.56 0 4.954.663 6.743 1.867 1.683 1.132 2.61 2.601 2.61 4.136 0 1.536-.927 3.005-2.61 4.137z"/><ellipse cx="11.243" cy="9.974" rx="1.262" ry="1.301"/><ellipse cx="6.957" cy="9.974" rx="1.262" ry="1.301"/><ellipse cx="15.565" cy="9.974" rx="1.262" ry="1.301"/></g></svg>