<svg width="20" height="16" fill="none" xmlns="http://www.w3.org/2000/svg"><path fill-rule="evenodd" clip-rule="evenodd" d="M19.641 1.88c-.443.189-.903.338-1.376.446.52-.476.912-1.07 1.133-1.734.063-.19-.151-.354-.33-.252a8.121 8.121 0 0 1-2.103.836.57.57 0 0 1-.5-.12A4.404 4.404 0 0 0 13.618.023a4.77 4.77 0 0 0-1.363.202c-1.396.416-2.472 1.523-2.81 2.888a4.247 4.247 0 0 0-.102 1.523.145.145 0 0 1-.039.116.162.162 0 0 1-.134.051C6.116 4.531 3.362 3.116 1.416.82a.23.23 0 0 0-.37.028 4.012 4.012 0 0 0-.582 2.08c0 1.121.469 2.178 1.283 2.949a3.95 3.95 0 0 1-.982-.366c-.149-.08-.332.023-.334.187-.021 1.666.993 3.148 2.513 3.816a4.016 4.016 0 0 1-.817-.066c-.167-.03-.308.122-.256.279.493 1.48 1.82 2.572 3.406 2.82A8.168 8.168 0 0 1 .83 13.845H.333a.328.328 0 0 0-.323.239.323.323 0 0 0 .164.362 12.177 12.177 0 0 0 5.934 1.538c1.824 0 3.53-.348 5.072-1.034a11.174 11.174 0 0 0 3.71-2.673 11.638 11.638 0 0 0 2.273-3.659c.505-1.298.772-2.682.772-4.004v-.063c0-.212.1-.412.274-.548a8.303 8.303 0 0 0 1.71-1.805c.126-.18-.072-.406-.278-.318z" fill="#84A5CD"/></svg>