<?xml version="1.0" encoding="UTF-8"?>
<svg width="22px" height="16px" viewBox="0 0 22 16" version="1.1" xmlns="http://www.w3.org/2000/svg" xmlns:xlink="http://www.w3.org/1999/xlink">
    <!-- Generator: Sketch 53.1 (72631) - https://sketchapp.com -->
    <title>Combined Shape 2</title>
    <desc>Created with Sketch.</desc>
    <g id="Page-1" stroke="none" stroke-width="1" fill="none" fill-rule="evenodd">
        <g id="Project---Roadmap" transform="translate(-1032.000000, -3504.000000)" fill="#84A5CD" fill-rule="nonzero">
            <g id="youtube" transform="translate(1032.000000, 3493.000000)">
                <g id="Combined-Shape-2" transform="translate(0.000000, 10.032533)">
                    <path d="M21.7723945,4.42200744 C21.7723945,4.42200744 22,6.27656469 22,8.13108075 L22,9.84018495 C22,11.6583686 21.7723945,13.5129259 21.7723945,13.5129259 C21.7723945,13.5129259 21.544832,15.076577 20.9,15.7674687 C20.0655039,16.640187 19.1172266,16.6765606 18.7,16.7129341 C15.6276055,16.9674667 11,16.9674667 11,16.9674667 C11,16.9674667 5.27239453,16.9310931 3.52760547,16.7493489 C3.03449609,16.6402282 1.93449609,16.6766018 1.1,15.7675099 C0.455210937,15.0766182 0.227605469,13.5129671 0.227605469,13.5129671 C0.227605469,13.5129671 0,11.6947834 0,9.84022614 L0,8.13112194 C0,6.27656469 0.227605469,4.42200744 0.227605469,4.42200744 C0.227605469,4.42200744 0.417226563,2.85839748 1.1,2.16746461 C1.93449609,1.29474632 2.88277344,1.25837276 3.3,1.2219992 C6.37239453,1.00384023 11,0.967466667 11,0.967466667 C11,0.967466667 15.6276055,1.00384023 18.7,1.2219992 C19.1172266,1.25837276 20.0655039,1.25837276 20.9,2.16746461 C21.5447891,2.85835628 21.7723945,4.42200744 21.7723945,4.42200744 Z M8.34483203,5.29472573 L8.34483203,13.1856462 L15.5517227,9.33111988 L8.34483203,5.29472573 Z" id="Combined-Shape"></path>
                </g>
            </g>
        </g>
    </g>
</svg>
