<svg width="22" height="16" xmlns="http://www.w3.org/2000/svg"><path d="M21.772 3.455S22 5.309 22 7.164v1.709c0 1.818-.228 3.672-.228 3.672s-.227 1.564-.872 2.255c-.834.873-1.783.91-2.2.945C15.628 16 11 16 11 16s-5.728-.036-7.472-.218c-.494-.11-1.594-.073-2.428-.982-.645-.69-.872-2.254-.872-2.254S0 10.727 0 8.873v-1.71C0 5.31.228 3.456.228 3.456S.418 1.89 1.1 1.2C1.934.327 2.883.29 3.3.255 6.372.036 11 0 11 0s4.628.036 7.7.255c.417.036 1.366.036 2.2.945.645.69.872 2.255.872 2.255zm-13.427.872v7.891l7.207-3.854-7.207-4.037z" fill="#84A5CD" fill-rule="nonzero"/></svg>