<svg width="180" height="184" viewBox="0 0 180 184" fill="none" xmlns="http://www.w3.org/2000/svg">
<path fill-rule="evenodd" clip-rule="evenodd" d="M164.603 91.1389C164.603 91.1389 151.893 103.636 138.539 106.247C125.186 108.859 123.598 99.1595 123.598 99.1595L164.603 91.1389Z" fill="#6F6DA4"/>
<path fill-rule="evenodd" clip-rule="evenodd" d="M164.591 91.0696C164.591 91.0696 148.138 84.2772 134.784 86.8887C121.431 89.5004 123.586 99.0895 123.586 99.0895L164.591 91.0696Z" fill="#6F6DA4"/>
<path fill-rule="evenodd" clip-rule="evenodd" d="M117.594 100.69L165.859 91.2502L165.691 90.3848L117.425 99.8249L117.594 100.69Z" fill="#3E3F71"/>
<path fill-rule="evenodd" clip-rule="evenodd" d="M126.369 40.5441C129.031 40.1572 131.334 38.418 132.441 35.9642C133.24 34.1987 134.319 32.525 135.684 31.0087C139.068 27.2513 143.595 25.1428 148.258 24.7328C150.766 24.5108 153.077 23.222 154.443 21.1019C154.978 20.2723 155.625 19.4916 156.387 18.7809C160.682 14.7743 167.367 14.4945 171.979 18.121C177.516 22.4736 178.133 30.5275 173.493 35.6791C173.052 36.1696 172.58 36.6153 172.081 37.0155C170.114 38.5967 169.069 41.0304 169.109 43.5536C169.182 48.2392 167.555 52.9651 164.17 56.7222C162.843 58.1957 161.341 59.4151 159.723 60.3793C157.337 61.8008 155.78 64.3252 155.653 67.1012C155.38 73.0984 153.016 79.0391 148.498 83.7425C139.07 93.5532 123.423 94.2372 113.189 85.2956C102.379 75.8508 101.437 59.4022 111.018 48.7632C115.188 44.1332 120.657 41.3763 126.369 40.5441Z" fill="#FFD08D"/>
<path fill-rule="evenodd" clip-rule="evenodd" d="M90.7638 108.755L120.686 75.5252L119.552 55.2296L120.659 55.1658L121.732 74.3637L136.165 58.3366L135.412 44.8458L136.52 44.7826L137.213 57.1735L150.072 42.8941L149.517 32.946L150.625 32.8831L151.119 41.7308L165.28 26.0055L166.105 26.7488L152.168 42.2265L160.54 41.748L160.602 42.8574L151.112 43.3993L138.128 57.8165L150.32 57.1199L150.382 58.2303L137.072 58.9893L122.501 75.1702L141.801 74.0683L141.863 75.178L121.443 76.3442L91.5896 109.494L90.7638 108.755Z" fill="#3E3F71"/>
<path d="M0.466442 17.6315L34.2035 169.296L24.7814 174.463L19.6145 183.885H127.816C143.378 183.885 143.824 170.309 142.101 163.521L108.364 14.5922L105.629 7.6016L61.2539 0.00317383H15.3594C0.040929 0.00317383 -0.951932 11.7554 0.466442 17.6315Z" fill="url(#paint0_linear)"/>
<path d="M34.204 169.296H4.11426C4.51951 174.159 8.18702 183.885 19.6151 183.885C31.0431 183.885 34.1027 174.159 34.204 169.296Z" fill="url(#paint1_linear)"/>
<path d="M14.1442 0.00258832C14.3113 -0.000822078 14.484 -0.000903232 14.6618 0.00258832H104.414C120.461 0.00258832 124.473 9.9312 124.473 14.8955H29.0371C29.0371 3.14727 19.7657 0.10282 14.6618 0.00258832H14.1442Z" fill="url(#paint2_linear)"/>
<path opacity="0.6" d="M24.4775 37.083H55.7831M26.3012 47.1129H57.6067M28.1248 57.1429H59.4303M30.2523 67.1728H61.5579M32.6838 77.2027H63.9894M34.8114 87.5366H107.148M36.939 97.8704H109.276M39.0665 107.596H111.404M41.802 117.93H114.139M44.5374 127.656H116.874M46.9689 138.294H119.306M48.7925 148.02H121.13M50.654 158.316H104.755" stroke="white" stroke-width="2" stroke-linecap="round"/>
<path d="M90.6708 63.3829C97.5335 62.903 102.699 56.8164 102.207 49.7881C101.716 42.7598 95.7538 37.4512 88.891 37.9311C82.0282 38.411 76.8633 44.4976 77.3547 51.5259C77.8462 58.5542 83.808 63.8628 90.6708 63.3829Z" fill="#44C9E6"/>
<path d="M98.2407 46.2305C99.2176 47.403 99.7855 48.8297 99.8915 50.3451C100.02 52.1832 99.3989 53.9328 98.2345 55.396L99.2069 58.2749L101.536 58.1121L103.789 55.0922L104.156 50.8788L104.119 48.3857L101.498 45.7489L98.2407 46.2305Z" fill="#B4E4EF"/>
<path d="M72.1193 60.5071L72.6646 62.2032C72.6646 62.2032 78.4158 72.3897 89.9786 75.5148C89.9786 75.5148 99.9351 70.3068 103.965 62.3691L97.2737 57.1831C97.2737 57.1831 94.4313 59.8493 89.9513 60.1625C85.4713 60.4758 79.1971 58.1652 78.8027 52.5248C78.4083 46.8845 84.5662 44.3813 84.5662 44.3813L81.8338 43.8956L74.97 44.3755L71.3648 55.4277L72.1193 60.5071Z" fill="#B4E4EF"/>
<path d="M109.227 46.0093C109.022 45.8263 104.715 40.9188 88.8089 35.6079C88.0033 35.35 87.2887 35.667 87.2887 35.667C73.3838 40.3562 66.969 48.4759 67.0029 48.9619C67.0369 49.4479 69.5753 56.6102 71.0985 59.4927C71.2258 59.7376 73.2012 62.7859 74.6234 64.4207C73.7355 62.7486 72.7948 61.3057 72.6143 58.7241C72.1051 51.4421 77.1985 45.136 84.0721 44.4016C84.2365 44.3901 84.4146 44.3776 84.58 44.3802L82.8183 42.8114C82.8183 42.8114 89.356 41.2122 98.2181 45.8798C98.2181 45.8798 98.3601 46.1377 98.2917 46.9321C98.2917 46.9321 102.416 48.4202 102.999 51.8338C103.582 55.2474 101.595 57.3602 99.9025 57.7605C99.9025 57.7605 100.694 56.2812 99.2709 55.6193C98.9714 55.4711 98.624 55.4249 98.2825 55.4628C95.6657 55.6458 95.5782 58.7256 95.5782 58.7256C95.5616 58.8818 95.5724 59.0362 95.5832 59.1905C95.5832 59.1905 95.4577 63.697 103.234 63.0686C103.234 63.0686 106.859 58.2187 107.613 54.0349C107.891 52.4928 108.085 51.3371 108.205 50.4828C108.56 49.2595 108.862 47.473 109.183 46.1675L109.227 46.0093Z" fill="#F9FAFC"/>
<path opacity="0.895424" d="M94.9295 47.4774C95.0352 47.4136 95.3786 47.2063 95.7592 46.7426C96.5892 46.7973 97.4162 47.0074 97.4162 47.0074C95.858 46.1858 93.7783 45.7813 91.5186 45.9534C91.5186 45.9534 92.47 47.1559 94.904 47.5074C94.904 47.5074 94.9167 47.4924 94.9295 47.4774Z" fill="white"/>
<path fill-rule="evenodd" clip-rule="evenodd" d="M87.665 34.9464C89.8807 35.5247 100.572 38.5872 109.33 45.3075L109.531 45.4371L109.507 45.6832C109.511 45.7405 108.995 51.3551 106.39 57.806C104.852 61.6086 102.898 64.9658 100.589 67.7728C97.746 71.221 94.3647 73.8585 90.5094 75.6234L90.2825 75.7255L90.0429 75.8429L89.804 75.7734L89.5651 75.7038C85.5016 74.4927 81.7725 72.3523 78.4912 69.3324C75.8127 66.8598 73.4112 63.8215 71.3593 60.2699C68.0248 54.4804 66.7126 49.2101 66.594 48.7336C66.5889 48.713 66.586 48.7014 66.5852 48.699L66.5271 48.4587L66.6942 48.2888C74.4316 40.4151 84.5923 35.8945 86.706 35.0135L87.1745 34.8226L87.4545 34.8892L87.665 34.9464ZM99.9437 67.2138C102.202 64.4679 104.107 61.186 105.609 57.4721C107.862 51.8942 108.523 46.9739 108.652 45.8578C99.6816 39.0518 88.7235 36.1086 87.2373 35.7237C85.8054 36.3127 75.3773 40.7513 67.4414 48.7395C67.725 49.8412 69.0506 54.6225 72.0729 59.846C74.0777 63.3146 76.4193 66.2852 79.0381 68.6901C82.2889 71.669 85.9593 73.7559 89.9786 74.927C93.7959 73.2079 97.1391 70.6162 99.9437 67.2138Z" fill="white"/>
<defs>
<linearGradient id="paint0_linear" x1="31.3279" y1="11.8408" x2="-3.00406" y2="166.67" gradientUnits="userSpaceOnUse">
<stop stop-color="#98DEEE"/>
<stop offset="1" stop-color="#44C9E6"/>
</linearGradient>
<linearGradient id="paint1_linear" x1="30.5212" y1="11.8378" x2="-9.4465" y2="163.768" gradientUnits="userSpaceOnUse">
<stop stop-color="#CEF6FF"/>
<stop offset="1" stop-color="#17AFD1"/>
</linearGradient>
<linearGradient id="paint2_linear" x1="30.5212" y1="11.8378" x2="-9.4465" y2="163.768" gradientUnits="userSpaceOnUse">
<stop stop-color="#CEF6FF"/>
<stop offset="1" stop-color="#17AFD1"/>
</linearGradient>
</defs>
</svg>
