<svg width="115" height="133" viewBox="0 0 115 133" fill="none" xmlns="http://www.w3.org/2000/svg">
<path d="M91.323 29.5518H23.3618L0 59.7241V70.5C0 71.6902 0.950795 72.6553 2.12389 72.6553H4.24778V128.69C4.24778 131.07 6.14937 133 8.49532 133H106.19C108.536 133 110.437 131.07 110.437 128.69V72.6553H112.561C113.734 72.6553 114.685 71.6904 114.685 70.5V59.7241L91.323 29.5518Z" fill="url(#paint0_linear)"/>
<mask id="mask0" mask-type="alpha" maskUnits="userSpaceOnUse" x="0" y="29" width="115" height="104">
<path d="M91.323 29.5518H23.3618L0 59.7241V70.5C0 71.6902 0.950795 72.6553 2.12389 72.6553H4.24778V128.69C4.24778 131.07 6.14937 133 8.49532 133H106.19C108.536 133 110.437 131.07 110.437 128.69V72.6553H112.561C113.734 72.6553 114.685 71.6904 114.685 70.5V59.7241L91.323 29.5518Z" fill="white"/>
</mask>
<g mask="url(#mask0)">
</g>
<path fill-rule="evenodd" clip-rule="evenodd" d="M0 59.7241H114.685V70.5C114.685 71.6902 113.734 72.6553 112.561 72.6553H2.12389C0.951035 72.6553 0 71.6904 0 70.5V59.7241Z" fill="#2CB6D4"/>
<path d="M114.685 59.7241L91.323 29.5518H82.8279H31.8569H23.3618L0 59.7241H114.685Z" fill="url(#paint1_linear)"/>
<mask id="mask1" mask-type="alpha" maskUnits="userSpaceOnUse" x="0" y="29" width="115" height="31">
<path d="M114.685 59.7241L91.323 29.5518H82.8279H31.8569H23.3618L0 59.7241H114.685Z" fill="white"/>
</mask>
<g mask="url(#mask1)">
</g>
<path fill-rule="evenodd" clip-rule="evenodd" d="M31.857 40.3276H27.6094L21.238 48.9482H31.857H82.8279H93.4469L87.0755 40.3276H82.8279" fill="#4299AC"/>
<path fill-rule="evenodd" clip-rule="evenodd" d="M32.0833 0H82.9167C85.7243 0 88 2.30913 88 5.15785V49H27V5.15785C27 2.30913 29.2757 0 32.0833 0Z" fill="url(#paint2_linear)"/>
<mask id="mask2" mask-type="alpha" maskUnits="userSpaceOnUse" x="31" y="8" width="52" height="41">
<path fill-rule="evenodd" clip-rule="evenodd" d="M36.1045 8H78.5804C80.9263 8 82.8279 9.92969 82.8279 12.3103V48.9482H31.8569V12.3103C31.8569 9.92969 33.7585 8 36.1045 8Z" fill="white"/>
</mask>
<g mask="url(#mask2)">
<path d="M59.0444 42.302C66.2293 42.302 72.0538 36.4426 72.0538 29.2147C72.0538 21.9868 66.2293 16.1274 59.0444 16.1274C51.8595 16.1274 46.035 21.9868 46.035 29.2147C46.035 36.4426 51.8595 42.302 59.0444 42.302Z" fill="#44C9E6"/>
<path d="M68.1812 25.2899C69.1135 26.5597 69.6011 28.0604 69.6011 29.6187C69.6011 31.5089 68.8266 33.2549 67.507 34.6689L68.3102 37.6847H70.7486L73.3161 34.7555L74.0046 30.47L74.148 27.9161L71.6092 25.0302L68.1812 25.2899Z" fill="#B4E4EF"/>
<path d="M39.9247 38.0309L40.3693 39.8057C40.3693 39.8057 45.619 50.6421 57.4379 54.6678C57.4379 54.6678 68.1905 50.0505 72.9669 42.2154L66.3738 36.4293C66.3738 36.4293 63.2183 38.9544 58.528 38.9544C53.8377 38.9544 47.4693 36.1407 47.4693 30.3401C47.4693 24.5396 54.0672 22.4185 54.0672 22.4185L51.2559 21.7259H44.0699L39.5087 32.7787L39.9247 38.0309Z" fill="#B4E4EF"/>
<path d="M79.6415 25.8496C79.4407 25.6476 75.311 20.317 59.1265 13.7436C58.306 13.422 57.5384 13.6953 57.5384 13.6953C42.7101 17.4991 35.4353 25.3498 35.4353 25.8496C35.4353 26.3494 37.5581 33.8609 38.9351 36.9199C39.0498 37.1796 40.8858 40.4406 42.2484 42.2154C41.4452 40.4406 40.5702 38.8967 40.5702 36.2417C40.5702 28.7529 46.3362 22.6638 53.5509 22.4041C53.7231 22.4041 53.9095 22.4041 54.0816 22.4185L52.3604 20.687C52.3604 20.687 59.2883 19.5182 68.1812 24.9292C68.1812 24.9292 68.3102 25.2033 68.1812 26.0114C68.1812 26.0114 72.3694 27.8294 72.728 31.3646C73.0866 34.8998 70.8634 36.9199 69.0704 37.2085C69.0704 37.2085 70.0028 35.7511 68.5684 34.9719C68.2672 34.7988 67.9086 34.7266 67.55 34.7411C64.8105 34.7411 64.4949 37.8866 64.4949 37.8866C64.4662 38.0453 64.4662 38.2041 64.4662 38.3628C64.4662 38.3628 64.0072 42.9657 72.1543 42.8791C72.1543 42.8791 76.2851 38.1752 77.3752 33.9474C77.7769 32.3891 78.0637 31.2203 78.2502 30.3546C78.7092 29.1281 79.1538 27.3214 79.5841 26.0083L79.6415 25.8496Z" fill="#F9FAFC"/>
<path opacity="0.895424" d="M64.6384 26.3288C64.7531 26.2711 65.1261 26.0835 65.5564 25.6362C66.417 25.7517 67.2632 26.0258 67.2632 26.0258C65.6998 25.0735 63.5626 24.5107 61.196 24.5252C61.196 24.5252 62.0996 25.8238 64.6097 26.3577C64.6097 26.3577 64.624 26.3433 64.6384 26.3288Z" fill="white"/>
<path fill-rule="evenodd" clip-rule="evenodd" d="M57.983 12.9849C60.2492 13.7353 71.1645 17.6346 79.7992 25.1388L80 25.2859L79.957 25.5361C79.957 25.5949 79.0103 31.304 75.8261 37.7194C73.9471 41.5009 71.6665 44.7969 69.056 47.5043C65.8431 50.8297 62.1282 53.2869 57.983 54.8172L57.7391 54.9055L57.481 55.0085L57.2371 54.9202L56.9933 54.8319C52.8481 53.3016 49.1188 50.8444 45.9202 47.519C43.3097 44.7969 41.0291 41.5156 39.1502 37.7341C36.0979 31.5705 35.1148 26.0829 35.0259 25.5868C35.0221 25.5653 35.0199 25.5532 35.0193 25.5508L34.9763 25.3006L35.1627 25.1388C43.7974 17.6346 54.7127 13.7353 56.9789 12.9849L57.481 12.8231L57.7678 12.9113L57.983 12.9849ZM68.4249 46.8863C70.978 44.2378 73.2012 41.0154 75.0372 37.3221C77.7911 31.7749 78.8382 26.7868 79.0533 25.6538C70.2035 18.0466 59.0013 14.2504 57.4809 13.7501C55.9462 14.2504 44.7584 18.0466 35.9085 25.6538C36.1237 26.8015 37.1564 31.7896 39.9247 37.3515C41.7606 41.0448 43.9838 44.2525 46.537 46.901C49.7068 50.1823 53.3787 52.5807 57.4809 54.0668C61.5831 52.5807 65.255 50.1675 68.4249 46.8863Z" fill="white"/>
</g>
<defs>
<linearGradient id="paint0_linear" x1="25.1621" y1="36.2113" x2="11.3026" y2="125.445" gradientUnits="userSpaceOnUse">
<stop stop-color="#98DEEE"/>
<stop offset="1" stop-color="#44C9E6"/>
</linearGradient>
<linearGradient id="paint1_linear" x1="124.647" y1="50.1602" x2="124.647" y2="14.7461" gradientUnits="userSpaceOnUse">
<stop stop-color="#98DEEE"/>
<stop offset="1" stop-color="#44C9E6"/>
</linearGradient>
<linearGradient id="paint2_linear" x1="-16.0213" y1="13.3891" x2="29.7599" y2="76.9425" gradientUnits="userSpaceOnUse">
<stop stop-color="#FAF9F4"/>
<stop offset="1" stop-color="#CEF1F9"/>
</linearGradient>
</defs>
</svg>
