<svg width="128" height="158" viewBox="0 0 128 158" fill="none" xmlns="http://www.w3.org/2000/svg">
<path d="M111 44.931L81.1333 15H15V139H111V44.931Z" fill="url(#paint0_linear)" fill-opacity="0.4"/>
<path fill-rule="evenodd" clip-rule="evenodd" d="M81 15V45H111L81 15Z" fill="#2CB6D4" fill-opacity="0.5"/>
<path fill-rule="evenodd" clip-rule="evenodd" d="M34.0909 45H52.9091C54.0654 45 55 44.106 55 43C55 41.894 54.0654 41 52.9091 41H34.0909C32.9346 41 32 41.894 32 43C32 44.106 32.9346 45 34.0909 45Z" fill="white"/>
<rect x="32" y="53" width="62" height="4" rx="2" fill="white"/>
<rect x="32" y="65" width="62" height="4" rx="2" fill="white"/>
<rect x="32" y="77" width="62" height="4" rx="2" fill="white"/>
<line x1="14.5" y1="157.5" x2="14.5" y2="0.5" stroke="#53CDE8" stroke-linecap="round" stroke-dasharray="3 3"/>
<line x1="0.5" y1="139.5" x2="126.5" y2="139.5" stroke="#53CDE8" stroke-linecap="round" stroke-dasharray="3 3"/>
<line x1="0.5" y1="14.5" x2="126.5" y2="14.5" stroke="#53CDE8" stroke-linecap="round" stroke-dasharray="3 3"/>
<line x1="111.5" y1="157.5" x2="111.5" y2="0.5" stroke="#53CDE8" stroke-linecap="round" stroke-dasharray="3 3"/>
<line x1="127.293" y1="61.9943" x2="66.9942" y2="0.707083" stroke="#53CDE8" stroke-linecap="round" stroke-dasharray="3 3"/>
<line x1="80.5" y1="44.5" x2="80.5" y2="0.5" stroke="#53CDE8" stroke-linecap="round" stroke-dasharray="3 3"/>
<line x1="82.5" y1="44.5" x2="126.5" y2="44.5" stroke="#53CDE8" stroke-linecap="round" stroke-dasharray="3 3"/>
<line x1="32.5" y1="40.5" x2="54.5" y2="40.5" stroke="#53CDE8" stroke-linecap="round" stroke-dasharray="3 3"/>
<line x1="32.5" y1="52.5" x2="93.5" y2="52.5" stroke="#53CDE8" stroke-linecap="round" stroke-dasharray="3 3"/>
<line x1="32.5" y1="64.5" x2="93.5" y2="64.5" stroke="#53CDE8" stroke-linecap="round" stroke-dasharray="3 3"/>
<line x1="32.5" y1="69.5" x2="93.5" y2="69.5" stroke="#53CDE8" stroke-linecap="round" stroke-dasharray="3 3"/>
<line x1="32.5" y1="76.5" x2="93.5" y2="76.5" stroke="#53CDE8" stroke-linecap="round" stroke-dasharray="3 3"/>
<line x1="32.5" y1="81.5" x2="93.5" y2="81.5" stroke="#53CDE8" stroke-linecap="round" stroke-dasharray="3 3"/>
<line x1="32.5" y1="57.5" x2="93.5" y2="57.5" stroke="#53CDE8" stroke-linecap="round" stroke-dasharray="3 3"/>
<line x1="32.5" y1="45.5" x2="54.5" y2="45.5" stroke="#53CDE8" stroke-linecap="round" stroke-dasharray="3 3"/>
<path d="M101.781 101.953C93.401 94.6698 82.8072 90.8854 80.6077 90.1571L80.3989 90.0857L80.1205 90L79.6333 90.1571C77.4338 90.8854 66.84 94.6698 58.4597 101.953L58.2787 102.11L58.3204 102.353C58.3344 102.41 59.2392 107.937 62.3297 114.177C64.1533 117.847 66.3667 121.032 68.9003 123.674C72.0046 126.901 75.6241 129.286 79.6472 130.771L79.8839 130.857L80.1205 130.943L80.3711 130.843L80.6077 130.757C84.6309 129.272 88.2364 126.887 91.3546 123.66C93.8882 121.032 96.1017 117.833 97.9253 114.163C101.016 107.937 101.934 102.396 101.934 102.339L101.976 102.096L101.781 101.953Z" fill="white"/>
<path d="M101.503 101.953L101.175 102.33L101.19 102.344L101.207 102.356L101.503 101.953ZM80.3291 90.1571L80.1673 90.6302L80.1719 90.6317L80.3291 90.1571ZM80.1202 90.0857L80.282 89.6126L80.2747 89.6101L80.2673 89.6078L80.1202 90.0857ZM79.8418 90L79.9889 89.5221L79.8383 89.4758L79.6884 89.5241L79.8418 90ZM79.3546 90.1571L79.2012 89.6812L79.1974 89.6824L79.3546 90.1571ZM58.181 101.953L58.5087 102.331L58.509 102.33L58.181 101.953ZM58 102.11L57.6722 101.732L57.4595 101.917L57.5072 102.195L58 102.11ZM58.0418 102.353L57.549 102.438L57.5519 102.455L57.556 102.471L58.0418 102.353ZM62.051 114.177L61.6029 114.399L61.6032 114.4L62.051 114.177ZM68.6216 123.674L68.2607 124.02L68.2613 124.021L68.6216 123.674ZM79.3685 130.771L79.1953 131.241L79.1983 131.242L79.3685 130.771ZM79.6052 130.857L79.4349 131.327H79.4349L79.6052 130.857ZM79.8418 130.943L79.6716 131.413L79.8504 131.478L80.0271 131.407L79.8418 130.943ZM80.0924 130.843L79.9222 130.373L79.9146 130.375L79.9071 130.378L80.0924 130.843ZM80.3291 130.757L80.4993 131.227L80.5022 131.226L80.3291 130.757ZM91.076 123.66L91.4355 124.007L91.4359 124.007L91.076 123.66ZM97.6466 114.163L98.0944 114.385L98.0945 114.385L97.6466 114.163ZM101.656 102.339L101.163 102.254L101.156 102.296V102.339H101.656ZM101.698 102.096L102.19 102.181L102.243 101.875L101.993 101.692L101.698 102.096ZM100.651 100.584C100.437 100.41 100.122 100.443 99.948 100.657C99.7737 100.871 99.8061 101.186 100.02 101.36L100.651 100.584ZM97.6227 99.528C97.8469 99.6892 98.1593 99.6381 98.3205 99.4139C98.4817 99.1897 98.4307 98.8773 98.2065 98.7161L97.6227 99.528ZM95.6635 96.9894C95.4311 96.8402 95.1218 96.9077 94.9726 97.1401C94.8235 97.3725 94.891 97.6818 95.1234 97.831L95.6635 96.9894ZM92.54 96.2599C92.7792 96.3979 93.085 96.3157 93.2229 96.0765C93.3608 95.8372 93.2787 95.5315 93.0394 95.3936L92.54 96.2599ZM90.349 93.9209C90.104 93.7936 89.8021 93.889 89.6748 94.1341C89.5475 94.3791 89.6429 94.681 89.8879 94.8083L90.349 93.9209ZM87.1713 93.4676C87.4214 93.5847 87.7191 93.4769 87.8362 93.2268C87.9533 92.9767 87.8455 92.6791 87.5954 92.562L87.1713 93.4676ZM84.7929 91.3182C84.5382 91.2113 84.2452 91.3311 84.1383 91.5858C84.0315 91.8404 84.1513 92.1334 84.4059 92.2403L84.7929 91.3182ZM81.5889 91.1294C81.8481 91.2247 82.1355 91.0919 82.2308 90.8327C82.3261 90.5735 82.1932 90.2862 81.9341 90.1908L81.5889 91.1294ZM80.4386 89.6661C80.1773 89.5768 79.8931 89.7162 79.8037 89.9775C79.7144 90.2387 79.8538 90.523 80.1151 90.6123L80.4386 89.6661ZM80.0107 90.5766C80.272 90.666 80.5562 90.5266 80.6455 90.2653C80.7349 90.004 80.5955 89.7198 80.3342 89.6304L80.0107 90.5766ZM80.1977 89.5864C79.9338 89.5052 79.654 89.6533 79.5728 89.9172C79.4915 90.1811 79.6396 90.4609 79.9036 90.5421L80.1977 89.5864ZM79.7644 90.4993C80.0283 90.5805 80.3081 90.4324 80.3893 90.1685C80.4705 89.9046 80.3224 89.6248 80.0585 89.5435L79.7644 90.4993ZM79.5666 89.5634C79.3038 89.6481 79.1594 89.9299 79.2441 90.1927C79.3289 90.4555 79.6106 90.5999 79.8734 90.5152L79.5666 89.5634ZM79.6298 90.5937C79.8926 90.509 80.037 90.2272 79.9523 89.9644C79.8675 89.7016 79.5858 89.5572 79.323 89.6419L79.6298 90.5937ZM77.7496 90.1908C77.4904 90.2861 77.3576 90.5735 77.4529 90.8327C77.5482 91.0919 77.8355 91.2247 78.0947 91.1294L77.7496 90.1908ZM75.2777 92.2403C75.5323 92.1334 75.6522 91.8404 75.5453 91.5858C75.4385 91.3311 75.1454 91.2113 74.8908 91.3182L75.2777 92.2403ZM72.0882 92.562C71.8381 92.6791 71.7303 92.9767 71.8474 93.2268C71.9646 93.4769 72.2622 93.5847 72.5123 93.4676L72.0882 92.562ZM69.7957 94.8083C70.0407 94.681 70.1362 94.3791 70.0088 94.1341C69.8815 93.889 69.5796 93.7936 69.3346 93.9209L69.7957 94.8083ZM66.6442 95.3936C66.405 95.5315 66.3228 95.8372 66.4607 96.0765C66.5987 96.3157 66.9044 96.3979 67.1436 96.2599L66.6442 95.3936ZM64.5603 97.831C64.7927 97.6818 64.8602 97.3725 64.711 97.1401C64.5619 96.9077 64.2526 96.8402 64.0202 96.9894L64.5603 97.831ZM61.4772 98.7161C61.253 98.8773 61.2019 99.1897 61.3631 99.4139C61.5243 99.6381 61.8368 99.6892 62.061 99.528L61.4772 98.7161ZM59.6633 101.36C59.8775 101.186 59.9099 100.871 59.7357 100.657C59.5614 100.443 59.2465 100.41 59.0323 100.584L59.6633 101.36ZM57.808 101.615C57.5994 101.796 57.5771 102.111 57.7581 102.32C57.9392 102.529 58.255 102.551 58.4635 102.37L57.808 101.615ZM58.373 102.448C58.5815 102.267 58.6038 101.952 58.4228 101.743C58.2418 101.534 57.926 101.512 57.7175 101.693L58.373 102.448ZM57.5177 102.256C57.5645 102.528 57.8231 102.71 58.0952 102.664C58.3674 102.617 58.55 102.358 58.5032 102.086L57.5177 102.256ZM58.5241 102.207C58.4773 101.935 58.2187 101.753 57.9466 101.799C57.6744 101.846 57.4917 102.105 57.5386 102.377L58.5241 102.207ZM57.8731 103.997C57.9355 104.266 58.2042 104.434 58.4732 104.371C58.7422 104.309 58.9096 104.04 58.8472 103.771L57.8731 103.997ZM59.6533 106.759C59.5726 106.495 59.2931 106.347 59.029 106.427C58.7649 106.508 58.6163 106.788 58.697 107.052L59.6533 106.759ZM59.716 110.045C59.8133 110.303 60.1016 110.434 60.3601 110.337C60.6185 110.24 60.7492 109.951 60.652 109.693L59.716 110.045ZM61.8358 112.555C61.7219 112.304 61.4256 112.192 61.1741 112.306C60.9225 112.42 60.8109 112.716 60.9248 112.968L61.8358 112.555ZM62.2769 115.701C62.4079 115.944 62.7112 116.035 62.9543 115.904C63.1974 115.773 63.2882 115.47 63.1572 115.227L62.2769 115.701ZM64.6016 117.698C64.4539 117.465 64.145 117.396 63.9117 117.543C63.6784 117.691 63.609 118 63.7567 118.233L64.6016 117.698ZM65.4182 120.653C65.5831 120.874 65.8964 120.92 66.1179 120.755C66.3394 120.591 66.3852 120.277 66.2203 120.056L65.4182 120.653ZM68.017 122.277C67.8346 122.069 67.5187 122.049 67.3114 122.231C67.104 122.414 67.0838 122.73 67.2662 122.937L68.017 122.277ZM69.4356 125.179C69.6372 125.368 69.9536 125.358 70.1424 125.156C70.3311 124.954 70.3206 124.638 70.119 124.449L69.4356 125.179ZM72.5638 126.5C72.3427 126.335 72.0294 126.38 71.8639 126.601C71.6984 126.822 71.7434 127.135 71.9644 127.301L72.5638 126.5ZM74.7167 129.127C74.9552 129.266 75.2614 129.186 75.4006 128.947C75.5398 128.709 75.4593 128.402 75.2208 128.263L74.7167 129.127ZM78.0625 129.707C77.8094 129.596 77.5147 129.712 77.4042 129.965C77.2937 130.218 77.4092 130.513 77.6623 130.623L78.0625 129.707ZM79.2575 131.263C79.5171 131.357 79.8038 131.223 79.8978 130.963C79.9918 130.703 79.8575 130.417 79.5979 130.323L79.2575 131.263ZM79.7162 130.366C79.4566 130.272 79.1699 130.406 79.0759 130.665C78.9819 130.925 79.1161 131.212 79.3758 131.306L79.7162 130.366ZM79.4941 131.349C79.7538 131.443 80.0405 131.308 80.1345 131.049C80.2285 130.789 80.0942 130.502 79.8345 130.408L79.4941 131.349ZM79.9529 130.451C79.6932 130.357 79.4065 130.492 79.3125 130.751C79.2185 131.011 79.3528 131.298 79.6124 131.392L79.9529 130.451ZM80.0897 131.382C80.3462 131.28 80.4712 130.989 80.3689 130.733C80.2665 130.476 79.9757 130.351 79.7192 130.453L80.0897 131.382ZM79.8445 130.403C79.588 130.506 79.463 130.797 79.5653 131.053C79.6677 131.31 79.9585 131.435 80.215 131.332L79.8445 130.403ZM80.3218 131.292C80.5814 131.198 80.7157 130.911 80.6217 130.651C80.5277 130.392 80.241 130.257 79.9813 130.351L80.3218 131.292ZM80.0997 130.308C79.84 130.402 79.7057 130.689 79.7998 130.949C79.8938 131.208 80.1805 131.343 80.4401 131.249L80.0997 130.308ZM82.0352 130.609C82.2883 130.498 82.4037 130.204 82.2931 129.95C82.1825 129.697 81.8878 129.582 81.6347 129.693L82.0352 130.609ZM84.4754 128.248C84.237 128.387 84.1567 128.693 84.296 128.931C84.4354 129.17 84.7416 129.25 84.98 129.111L84.4754 128.248ZM87.7309 127.284C87.9519 127.118 87.9969 126.805 87.8313 126.584C87.6657 126.363 87.3524 126.318 87.1314 126.483L87.7309 127.284ZM89.5772 124.433C89.3753 124.621 89.3645 124.938 89.553 125.139C89.7415 125.341 90.0579 125.352 90.2597 125.164L89.5772 124.433ZM92.4331 122.925C92.6157 122.718 92.5959 122.402 92.3888 122.219C92.1817 122.037 91.8657 122.057 91.6831 122.264L92.4331 122.925ZM93.4801 120.044C93.3152 120.266 93.3612 120.579 93.5827 120.744C93.8043 120.908 94.1175 120.862 94.2824 120.641L93.4801 120.044ZM95.9426 118.22C96.0902 117.987 96.0205 117.678 95.7871 117.53C95.5537 117.383 95.2449 117.452 95.0973 117.686L95.9426 118.22ZM96.5404 115.213C96.4095 115.456 96.5005 115.759 96.7436 115.89C96.9868 116.021 97.29 115.93 97.4209 115.687L96.5404 115.213ZM98.7738 112.954C98.888 112.703 98.7766 112.406 98.5252 112.292C98.2737 112.178 97.9773 112.29 97.8632 112.541L98.7738 112.954ZM99.0493 109.679C98.9519 109.938 99.0824 110.226 99.3408 110.324C99.5992 110.421 99.8876 110.29 99.985 110.032L99.0493 109.679ZM101.006 107.039C101.087 106.775 100.939 106.496 100.675 106.415C100.411 106.334 100.131 106.482 100.05 106.746L101.006 107.039ZM100.857 103.759C100.795 104.028 100.962 104.296 101.231 104.359C101.5 104.421 101.769 104.253 101.831 103.984L100.857 103.759ZM102.159 102.363C102.206 102.09 102.023 101.832 101.751 101.785C101.479 101.738 101.22 101.921 101.173 102.193L102.159 102.363ZM101.194 102.072C101.148 102.344 101.33 102.602 101.602 102.649C101.875 102.696 102.133 102.513 102.18 102.241L101.194 102.072ZM101.944 101.657C101.722 101.494 101.409 101.542 101.246 101.765C101.082 101.987 101.131 102.3 101.353 102.463L101.944 101.657ZM101.256 102.392C101.479 102.555 101.791 102.507 101.955 102.284C102.118 102.061 102.07 101.749 101.847 101.585L101.256 102.392ZM101.831 101.576C101.442 101.238 101.048 100.907 100.651 100.584L100.02 101.36C100.409 101.676 100.794 102 101.175 102.33L101.831 101.576ZM98.2065 98.7161C97.3621 98.1089 96.5114 97.5335 95.6635 96.9894L95.1234 97.831C95.9575 98.3663 96.7936 98.9318 97.6227 99.528L98.2065 98.7161ZM93.0394 95.3936C92.1238 94.8657 91.2229 94.375 90.349 93.9209L89.8879 94.8083C90.7498 95.2561 91.6378 95.7399 92.54 96.2599L93.0394 95.3936ZM87.5954 92.562C86.5896 92.091 85.6473 91.6767 84.7929 91.3182L84.4059 92.2403C85.2489 92.594 86.1788 93.0028 87.1713 93.4676L87.5954 92.562ZM81.9341 90.1908C81.2996 89.9575 80.8066 89.7885 80.4862 89.6824L80.1719 90.6317C80.4822 90.7345 80.965 90.9 81.5889 91.1294L81.9341 90.1908ZM80.4908 89.684L80.4386 89.6661L80.1151 90.6123L80.1673 90.6302L80.4908 89.684ZM80.3342 89.6304L80.282 89.6126L79.9585 90.5588L80.0107 90.5766L80.3342 89.6304ZM80.2673 89.6078L80.1977 89.5864L79.9036 90.5421L79.9732 90.5636L80.2673 89.6078ZM80.0585 89.5435L79.9889 89.5221L79.6947 90.4779L79.7644 90.4993L80.0585 89.5435ZM79.6884 89.5241L79.5666 89.5634L79.8734 90.5152L79.9952 90.4759L79.6884 89.5241ZM79.323 89.6419L79.2012 89.6812L79.508 90.633L79.6298 90.5937L79.323 89.6419ZM79.1974 89.6824C78.8771 89.7885 78.384 89.9575 77.7496 90.1908L78.0947 91.1294C78.7186 90.9 79.2014 90.7345 79.5118 90.6317L79.1974 89.6824ZM74.8908 91.3182C74.0363 91.6767 73.094 92.091 72.0882 92.562L72.5123 93.4676C73.5049 93.0028 74.4347 92.594 75.2777 92.2403L74.8908 91.3182ZM69.3346 93.9209C68.4608 94.375 67.5599 94.8657 66.6442 95.3936L67.1436 96.2599C68.0458 95.7399 68.9339 95.2561 69.7957 94.8083L69.3346 93.9209ZM64.0202 96.9894C63.1723 97.5335 62.3215 98.1089 61.4772 98.7161L62.061 99.528C62.89 98.9318 63.7262 98.3663 64.5603 97.831L64.0202 96.9894ZM59.0323 100.584C58.6353 100.907 58.2419 101.238 57.853 101.576L58.509 102.33C58.8893 102 59.2744 101.676 59.6633 101.36L59.0323 100.584ZM57.8532 101.575L57.808 101.615L58.4635 102.37L58.5087 102.331L57.8532 101.575ZM57.7175 101.693L57.6722 101.732L58.3278 102.488L58.373 102.448L57.7175 101.693ZM57.5072 102.195L57.5177 102.256L58.5032 102.086L58.4928 102.025L57.5072 102.195ZM57.5386 102.377L57.549 102.438L58.5345 102.268L58.5241 102.207L57.5386 102.377ZM57.556 102.471C57.5525 102.457 57.5533 102.462 57.5704 102.555C57.5835 102.627 57.6028 102.731 57.629 102.864C57.6814 103.131 57.761 103.515 57.8731 103.997L58.8472 103.771C58.7379 103.301 58.6606 102.928 58.6102 102.671C58.585 102.543 58.5665 102.444 58.5541 102.376C58.5456 102.329 58.5332 102.258 58.5275 102.234L57.556 102.471ZM58.697 107.052C58.9746 107.96 59.3114 108.969 59.716 110.045L60.652 109.693C60.2554 108.638 59.9254 107.65 59.6533 106.759L58.697 107.052ZM60.9248 112.968C61.1383 113.439 61.3641 113.917 61.6029 114.399L62.499 113.955C62.2656 113.484 62.0447 113.017 61.8358 112.555L60.9248 112.968ZM61.6032 114.4C61.8222 114.84 62.0468 115.274 62.2769 115.701L63.1572 115.227C62.9324 114.81 62.7129 114.386 62.4987 113.955L61.6032 114.4ZM63.7567 118.233C64.2875 119.072 64.8417 119.879 65.4182 120.653L66.2203 120.056C65.6592 119.302 65.1193 118.516 64.6016 117.698L63.7567 118.233ZM67.2662 122.937C67.5919 123.307 67.9235 123.668 68.2607 124.02L68.9825 123.328C68.6553 122.987 68.3334 122.636 68.017 122.277L67.2662 122.937ZM68.2613 124.021C68.6449 124.419 69.0365 124.806 69.4356 125.179L70.119 124.449C69.7327 124.088 69.3537 123.714 68.982 123.327L68.2613 124.021ZM71.9644 127.301C72.8517 127.965 73.7698 128.574 74.7167 129.127L75.2208 128.263C74.3071 127.73 73.4208 127.142 72.5638 126.5L71.9644 127.301ZM77.6623 130.623C78.1666 130.844 78.6777 131.049 79.1954 131.241L79.5417 130.302C79.0422 130.118 78.549 129.919 78.0625 129.707L77.6623 130.623ZM79.1983 131.242L79.2575 131.263L79.5979 130.323L79.5387 130.301L79.1983 131.242ZM79.3758 131.306L79.4349 131.327L79.7754 130.387L79.7162 130.366L79.3758 131.306ZM79.4349 131.327L79.4941 131.349L79.8345 130.408L79.7754 130.387L79.4349 131.327ZM79.6124 131.392L79.6716 131.413L80.012 130.473L79.9529 130.451L79.6124 131.392ZM80.0271 131.407L80.0897 131.382L79.7192 130.453L79.6565 130.478L80.0271 131.407ZM80.215 131.332L80.2777 131.307L79.9071 130.378L79.8445 130.403L80.215 131.332ZM80.2626 131.313L80.3218 131.292L79.9813 130.351L79.9222 130.373L80.2626 131.313ZM80.4401 131.249L80.4993 131.227L80.1588 130.287L80.0997 130.308L80.4401 131.249ZM80.5022 131.226C81.02 131.035 81.5311 130.829 82.0352 130.609L81.6347 129.693C81.1485 129.905 80.6555 130.104 80.1559 130.288L80.5022 131.226ZM84.98 129.111C85.9262 128.558 86.8436 127.948 87.7309 127.284L87.1314 126.483C86.274 127.126 85.3884 127.714 84.4754 128.248L84.98 129.111ZM90.2597 125.164C90.659 124.791 91.051 124.405 91.4355 124.007L90.7164 123.312C90.3435 123.698 89.9638 124.072 89.5772 124.433L90.2597 125.164ZM91.4359 124.007C91.7741 123.656 92.1065 123.295 92.4331 122.925L91.6831 122.264C91.3661 122.623 91.0437 122.973 90.716 123.313L91.4359 124.007ZM94.2824 120.641C94.8584 119.867 95.4122 119.059 95.9426 118.22L95.0973 117.686C94.58 118.504 94.0406 119.291 93.4801 120.044L94.2824 120.641ZM97.4209 115.687C97.6509 115.26 97.8755 114.826 98.0944 114.385L97.1988 113.94C96.9847 114.371 96.7652 114.796 96.5404 115.213L97.4209 115.687ZM98.0945 114.385C98.3336 113.903 98.5599 113.426 98.7738 112.954L97.8632 112.541C97.6539 113.002 97.4326 113.47 97.1987 113.941L98.0945 114.385ZM99.985 110.032C100.39 108.957 100.728 107.948 101.006 107.039L100.05 106.746C99.7774 107.637 99.4466 108.626 99.0493 109.679L99.985 110.032ZM101.831 103.984C101.943 103.501 102.022 103.116 102.074 102.848C102.099 102.715 102.118 102.61 102.131 102.536C102.137 102.499 102.142 102.469 102.146 102.447C102.147 102.436 102.149 102.425 102.15 102.415C102.151 102.411 102.152 102.404 102.153 102.397C102.153 102.393 102.154 102.387 102.154 102.38C102.154 102.376 102.156 102.36 102.156 102.339H101.156C101.156 102.298 101.162 102.261 101.159 102.281C101.159 102.282 101.159 102.286 101.157 102.294C101.155 102.31 101.151 102.334 101.145 102.367C101.134 102.433 101.116 102.532 101.092 102.659C101.043 102.915 100.966 103.288 100.857 103.759L101.831 103.984ZM102.149 102.423L102.159 102.363L101.173 102.193L101.163 102.254L102.149 102.423ZM102.18 102.241L102.19 102.181L101.205 102.011L101.194 102.072L102.18 102.241ZM101.993 101.692L101.944 101.657L101.353 102.463L101.402 102.499L101.993 101.692ZM101.847 101.585L101.798 101.55L101.207 102.356L101.256 102.392L101.847 101.585Z" fill="#53CDE8"/>
<path d="M98.3293 103.201L98.0013 103.579L98.017 103.592L98.0338 103.605L98.3293 103.201ZM80.2586 93.1341L80.0968 93.6072L80.1014 93.6087L80.2586 93.1341ZM80.0804 93.0731L80.2422 92.6L80.2348 92.5975L80.2275 92.5952L80.0804 93.0731ZM79.8428 93L79.9898 92.5221L79.8393 92.4758L79.6893 92.5241L79.8428 93ZM79.4269 93.1341L79.2735 92.6582L79.2698 92.6594L79.4269 93.1341ZM61.3562 103.201L61.684 103.579L61.6842 103.579L61.3562 103.201ZM61.2018 103.335L60.874 102.958L60.6613 103.142L60.709 103.42L61.2018 103.335ZM61.2374 103.543L60.7447 103.627L60.7476 103.644L60.7516 103.661L61.2374 103.543ZM64.6591 113.634L64.211 113.856L64.2113 113.857L64.6591 113.634ZM70.2668 121.739L69.906 122.085L69.9065 122.086L70.2668 121.739ZM79.4388 127.797L79.2657 128.266L79.2686 128.267L79.4388 127.797ZM79.6408 127.87L79.4706 128.34L79.4706 128.34L79.6408 127.87ZM79.8428 127.943L79.6725 128.413L79.8514 128.478L80.028 128.407L79.8428 127.943ZM80.0566 127.857L79.8864 127.387L79.8788 127.39L79.8713 127.393L80.0566 127.857ZM80.2586 127.784L80.4288 128.255L80.4318 128.253L80.2586 127.784ZM89.4306 121.727L89.7902 122.074L89.7905 122.074L89.4306 121.727ZM95.0383 113.622L95.4861 113.844L95.4862 113.844L95.0383 113.622ZM98.46 103.53L97.9672 103.446L97.96 103.488V103.53H98.46ZM98.4956 103.323L98.9884 103.408L99.0409 103.103L98.7912 102.92L98.4956 103.323ZM97.3076 101.702C97.0915 101.53 96.777 101.565 96.605 101.781C96.433 101.997 96.4687 102.312 96.6847 102.484L97.3076 101.702ZM93.9208 100.455C94.1493 100.61 94.4602 100.55 94.6153 100.322C94.7703 100.093 94.7108 99.7824 94.4823 99.6273L93.9208 100.455ZM91.5217 97.76C91.2835 97.6202 90.9772 97.7 90.8374 97.9382C90.6977 98.1764 90.7775 98.4828 91.0156 98.6225L91.5217 97.76ZM87.9987 96.9707C88.2446 97.0963 88.5458 96.9988 88.6714 96.7529C88.797 96.5069 88.6994 96.2058 88.4535 96.0802L87.9987 96.9707ZM85.2986 94.5764C85.0462 94.4643 84.7508 94.5781 84.6388 94.8305C84.5267 95.0829 84.6405 95.3783 84.8929 95.4904L85.2986 94.5764ZM81.7115 94.1828C81.9699 94.2802 82.2583 94.1498 82.3558 93.8914C82.4532 93.633 82.3228 93.3446 82.0644 93.2471L81.7115 94.1828ZM80.3758 92.6457C80.1145 92.5564 79.8303 92.6958 79.7409 92.9571C79.6516 93.2183 79.791 93.5026 80.0523 93.5919L80.3758 92.6457ZM79.9632 93.5615C80.2244 93.6508 80.5087 93.5114 80.598 93.2501C80.6874 92.9889 80.548 92.7046 80.2867 92.6153L79.9632 93.5615ZM80.168 92.577C79.9041 92.4957 79.6243 92.6438 79.5431 92.9078C79.4619 93.1717 79.61 93.4515 79.8739 93.5327L80.168 92.577ZM79.7551 93.4962C80.019 93.5774 80.2988 93.4293 80.38 93.1654C80.4613 92.9014 80.3132 92.6216 80.0492 92.5404L79.7551 93.4962ZM79.5854 92.5576C79.3226 92.6424 79.1782 92.9241 79.2629 93.1869C79.3477 93.4498 79.6294 93.5941 79.8922 93.5094L79.5854 92.5576ZM79.6843 93.5764C79.9471 93.4917 80.0915 93.2099 80.0068 92.9471C79.922 92.6843 79.6403 92.5399 79.3775 92.6247L79.6843 93.5764ZM77.6211 93.2471C77.3627 93.3446 77.2323 93.633 77.3297 93.8914C77.4272 94.1498 77.7156 94.2802 77.974 94.1828L77.6211 93.2471ZM74.7926 95.4904C75.045 95.3783 75.1588 95.0829 75.0468 94.8305C74.9347 94.5781 74.6393 94.4643 74.3869 94.5763L74.7926 95.4904ZM71.232 96.0802C70.9861 96.2058 70.8886 96.5069 71.0142 96.7529C71.1398 96.9988 71.441 97.0963 71.6869 96.9707L71.232 96.0802ZM68.6699 98.6225C68.9081 98.4828 68.9879 98.1764 68.8481 97.9382C68.7084 97.7 68.402 97.6202 68.1638 97.76L68.6699 98.6225ZM65.2032 99.6273C64.9747 99.7824 64.9152 100.093 65.0703 100.322C65.2253 100.55 65.5363 100.61 65.7648 100.455L65.2032 99.6273ZM63.0008 102.484C63.2169 102.312 63.2526 101.997 63.0806 101.781C62.9086 101.565 62.594 101.53 62.378 101.702L63.0008 102.484ZM60.9899 102.857C60.7813 103.038 60.759 103.354 60.94 103.563C61.121 103.771 61.4368 103.793 61.6454 103.612L60.9899 102.857ZM61.5682 103.679C61.7767 103.498 61.799 103.183 61.618 102.974C61.437 102.766 61.1212 102.743 60.9126 102.924L61.5682 103.679ZM60.7179 103.472C60.7647 103.744 61.0233 103.927 61.2955 103.88C61.5676 103.833 61.7503 103.575 61.7035 103.302L60.7179 103.472ZM61.7213 103.406C61.6745 103.134 61.4159 102.951 61.1437 102.998C60.8716 103.045 60.6889 103.303 60.7358 103.576L61.7213 103.406ZM61.0221 104.963C61.0845 105.232 61.3532 105.399 61.6222 105.337C61.8912 105.274 62.0586 105.006 61.9962 104.737L61.0221 104.963ZM62.6829 107.282C62.6022 107.018 62.3227 106.869 62.0586 106.95C61.7945 107.031 61.6458 107.31 61.7265 107.574L62.6829 107.282ZM62.5978 110.133C62.695 110.392 62.9833 110.522 63.2418 110.425C63.5002 110.328 63.631 110.04 63.5337 109.781L62.5978 110.133ZM64.5422 112.22C64.4283 111.968 64.132 111.856 63.8805 111.97C63.6289 112.084 63.5173 112.381 63.6313 112.632L64.5422 112.22ZM64.7874 114.97C64.9184 115.213 65.2217 115.304 65.4648 115.173C65.7079 115.042 65.7987 114.738 65.6677 114.495L64.7874 114.97ZM66.8978 116.6C66.7501 116.367 66.4412 116.297 66.2079 116.445C65.9746 116.593 65.9052 116.902 66.0529 117.135L66.8978 116.6ZM67.4741 119.205C67.639 119.426 67.9523 119.472 68.1738 119.307C68.3953 119.142 68.4411 118.829 68.2762 118.607L67.4741 119.205ZM69.8059 120.498C69.6235 120.291 69.3075 120.271 69.1002 120.453C68.8929 120.635 68.8726 120.951 69.055 121.159L69.8059 120.498ZM70.9115 123.077C71.1131 123.266 71.4295 123.256 71.6182 123.054C71.8069 122.853 71.7965 122.536 71.5949 122.347L70.9115 123.077ZM73.6752 124.093C73.4542 123.927 73.1408 123.972 72.9753 124.193C72.8098 124.414 72.8548 124.728 73.0759 124.893L73.6752 124.093ZM75.4318 126.456C75.6703 126.595 75.9765 126.515 76.1156 126.276C76.2548 126.038 76.1743 125.732 75.9358 125.593L75.4318 126.456ZM78.3535 126.821C78.1005 126.71 77.8057 126.826 77.6952 127.079C77.5847 127.332 77.7002 127.627 77.9533 127.737L78.3535 126.821ZM79.3191 128.285C79.5787 128.379 79.8654 128.245 79.9594 127.985C80.0535 127.725 79.9192 127.439 79.6595 127.345L79.3191 128.285ZM79.7605 127.381C79.5009 127.287 79.2142 127.422 79.1202 127.681C79.0262 127.941 79.1604 128.228 79.4201 128.322L79.7605 127.381ZM79.5211 128.358C79.7807 128.452 80.0674 128.318 80.1614 128.058C80.2554 127.799 80.1211 127.512 79.8615 127.418L79.5211 128.358ZM79.9625 127.454C79.7028 127.36 79.4161 127.495 79.3221 127.754C79.2281 128.014 79.3624 128.301 79.6221 128.395L79.9625 127.454ZM80.0815 128.386C80.338 128.284 80.463 127.993 80.3606 127.736C80.2583 127.48 79.9674 127.355 79.711 127.457L80.0815 128.386ZM79.8179 127.414C79.5614 127.517 79.4364 127.808 79.5387 128.064C79.6411 128.321 79.9319 128.446 80.1884 128.343L79.8179 127.414ZM80.2773 128.309C80.537 128.215 80.6713 127.929 80.5772 127.669C80.4832 127.409 80.1965 127.275 79.9369 127.369L80.2773 128.309ZM80.0379 127.333C79.7782 127.427 79.644 127.713 79.738 127.973C79.832 128.233 80.1187 128.367 80.3783 128.273L80.0379 127.333ZM81.7441 127.725C81.9971 127.614 82.1126 127.32 82.002 127.067C81.8914 126.814 81.5966 126.698 81.3436 126.809L81.7441 127.725ZM83.7603 125.579C83.5219 125.719 83.4416 126.025 83.5809 126.263C83.7203 126.502 84.0265 126.582 84.2649 126.443L83.7603 125.579ZM86.6197 124.878C86.8407 124.713 86.8856 124.399 86.7201 124.178C86.5545 123.957 86.2411 123.913 86.0201 124.078L86.6197 124.878ZM88.1014 122.333C87.8996 122.522 87.8888 122.838 88.0773 123.04C88.2658 123.242 88.5822 123.252 88.784 123.064L88.1014 122.333ZM90.6438 121.148C90.8264 120.941 90.8066 120.625 90.5995 120.443C90.3924 120.26 90.0764 120.28 89.8938 120.487L90.6438 121.148ZM91.4236 118.597C91.2587 118.819 91.3047 119.132 91.5263 119.297C91.7478 119.462 92.061 119.416 92.2259 119.194L91.4236 118.597ZM93.646 117.124C93.7935 116.89 93.7239 116.581 93.4905 116.434C93.2571 116.286 92.9482 116.356 92.8007 116.589L93.646 117.124ZM94.0298 114.483C93.8988 114.727 93.9898 115.03 94.2329 115.161C94.4761 115.292 94.7793 115.201 94.9102 114.958L94.0298 114.483ZM96.0671 112.621C96.1812 112.369 96.0699 112.073 95.8184 111.959C95.567 111.845 95.2706 111.956 95.1565 112.207L96.0671 112.621ZM96.1669 109.77C96.0695 110.028 96.2 110.316 96.4584 110.414C96.7168 110.511 97.0052 110.381 97.1026 110.122L96.1669 109.77ZM97.9757 107.564C98.0566 107.3 97.9081 107.02 97.644 106.939C97.38 106.858 97.1004 107.007 97.0195 107.271L97.9757 107.564ZM97.7067 104.726C97.6444 104.995 97.812 105.264 98.081 105.326C98.3501 105.388 98.6186 105.221 98.6809 104.951L97.7067 104.726ZM98.9617 103.563C99.0085 103.291 98.8258 103.033 98.5537 102.986C98.2815 102.939 98.0229 103.122 97.9761 103.394L98.9617 103.563ZM97.994 103.29C97.9471 103.562 98.1298 103.821 98.402 103.868C98.6741 103.915 98.9327 103.732 98.9795 103.46L97.994 103.29ZM98.7496 102.889C98.5268 102.726 98.2139 102.774 98.0507 102.997C97.8875 103.22 97.9358 103.533 98.1585 103.696L98.7496 102.889ZM98.0754 103.635C98.2981 103.798 98.611 103.75 98.7742 103.527C98.9374 103.305 98.8892 102.992 98.6664 102.828L98.0754 103.635ZM98.6573 102.824C98.2136 102.438 97.763 102.064 97.3076 101.702L96.6847 102.484C97.1294 102.838 97.569 103.203 98.0013 103.579L98.6573 102.824ZM94.4823 99.6273C93.4916 98.955 92.4981 98.3328 91.5217 97.76L91.0156 98.6225C91.975 99.1853 92.9499 99.7958 93.9208 100.455L94.4823 99.6273ZM88.4535 96.0802C87.3324 95.5076 86.2686 95.0068 85.2986 94.5764L84.8929 95.4904C85.848 95.9143 86.8953 96.4072 87.9987 96.9707L88.4535 96.0802ZM82.0644 93.2471C81.3221 92.9671 80.7556 92.7719 80.4158 92.6594L80.1014 93.6087C80.429 93.7172 80.9826 93.9078 81.7115 94.1828L82.0644 93.2471ZM80.4204 92.661L80.3758 92.6457L80.0523 93.5919L80.0968 93.6072L80.4204 92.661ZM80.2867 92.6153L80.2422 92.6L79.9186 93.5462L79.9632 93.5615L80.2867 92.6153ZM80.2275 92.5952L80.168 92.577L79.8739 93.5327L79.9333 93.551L80.2275 92.5952ZM80.0492 92.5404L79.9898 92.5221L79.6957 93.4779L79.7551 93.4962L80.0492 92.5404ZM79.6893 92.5241L79.5854 92.5576L79.8922 93.5094L79.9962 93.4759L79.6893 92.5241ZM79.3775 92.6247L79.2735 92.6582L79.5804 93.6099L79.6843 93.5764L79.3775 92.6247ZM79.2698 92.6594C78.9299 92.7719 78.3634 92.9671 77.6211 93.2471L77.974 94.1828C78.7029 93.9078 79.2566 93.7172 79.5841 93.6087L79.2698 92.6594ZM74.3869 94.5763C73.417 95.0068 72.3531 95.5076 71.232 96.0802L71.6869 96.9707C72.7902 96.4072 73.8375 95.9143 74.7926 95.4904L74.3869 94.5763ZM68.1638 97.76C67.1875 98.3328 66.1939 98.955 65.2032 99.6273L65.7648 100.455C66.7356 99.7958 67.7106 99.1853 68.6699 98.6225L68.1638 97.76ZM62.378 101.702C61.9225 102.064 61.4719 102.438 61.0282 102.824L61.6842 103.579C62.1165 103.203 62.5561 102.838 63.0008 102.484L62.378 101.702ZM61.0285 102.824L60.9899 102.857L61.6454 103.612L61.684 103.579L61.0285 102.824ZM60.9126 102.924L60.874 102.958L61.5295 103.713L61.5682 103.679L60.9126 102.924ZM60.709 103.42L60.7179 103.472L61.7035 103.302L61.6945 103.251L60.709 103.42ZM60.7358 103.576L60.7447 103.627L61.7302 103.458L61.7213 103.406L60.7358 103.576ZM60.7516 103.661C60.748 103.646 60.7478 103.645 60.763 103.729C60.7743 103.79 60.7908 103.879 60.8132 103.993C60.8581 104.221 60.9262 104.55 61.0221 104.963L61.9962 104.737C61.9032 104.336 61.8373 104.018 61.7945 103.8C61.773 103.691 61.7573 103.607 61.7468 103.549C61.7402 103.513 61.7287 103.447 61.7232 103.424L60.7516 103.661ZM61.7265 107.574C61.9639 108.351 62.2518 109.213 62.5978 110.133L63.5337 109.781C63.1959 108.883 62.9147 108.041 62.6829 107.282L61.7265 107.574ZM63.6313 112.632C63.8138 113.035 64.0069 113.444 64.211 113.856L65.1072 113.412C64.9083 113.011 64.7202 112.613 64.5422 112.22L63.6313 112.632ZM64.2113 113.857C64.3986 114.234 64.5907 114.605 64.7874 114.97L65.6677 114.495C65.4763 114.14 65.2893 113.779 65.1069 113.412L64.2113 113.857ZM66.0529 117.135C66.5069 117.852 66.981 118.542 67.4741 119.205L68.2762 118.607C67.7985 117.966 67.3387 117.297 66.8978 116.6L66.0529 117.135ZM69.055 121.159C69.3337 121.475 69.6174 121.784 69.906 122.085L70.6277 121.393C70.3492 121.103 70.0752 120.804 69.8059 120.498L69.055 121.159ZM69.9065 122.086C70.2348 122.427 70.5699 122.758 70.9115 123.077L71.5949 122.347C71.2661 122.04 70.9435 121.721 70.6272 121.393L69.9065 122.086ZM73.0759 124.893C73.8353 125.462 74.6212 125.983 75.4318 126.456L75.9358 125.593C75.1585 125.139 74.4045 124.639 73.6752 124.093L73.0759 124.893ZM77.9533 127.737C78.385 127.926 78.8225 128.102 79.2657 128.266L79.612 127.327C79.187 127.171 78.7675 127.002 78.3535 126.821L77.9533 127.737ZM79.2686 128.267L79.3191 128.285L79.6595 127.345L79.609 127.326L79.2686 128.267ZM79.4201 128.322L79.4706 128.34L79.811 127.4L79.7605 127.381L79.4201 128.322ZM79.4706 128.34L79.5211 128.358L79.8615 127.418L79.811 127.4L79.4706 128.34ZM79.6221 128.395L79.6725 128.413L80.013 127.473L79.9625 127.454L79.6221 128.395ZM80.028 128.407L80.0815 128.386L79.711 127.457L79.6575 127.478L80.028 128.407ZM80.1884 128.343L80.2419 128.322L79.8713 127.393L79.8179 127.414L80.1884 128.343ZM80.2268 128.328L80.2773 128.309L79.9369 127.369L79.8864 127.387L80.2268 128.328ZM80.3783 128.273L80.4288 128.254L80.0884 127.314L80.0379 127.333L80.3783 128.273ZM80.4318 128.253C80.875 128.09 81.3125 127.914 81.7441 127.725L81.3436 126.809C80.9299 126.989 80.5105 127.158 80.0854 127.315L80.4318 128.253ZM84.2649 126.443C85.0749 125.969 85.8602 125.447 86.6197 124.878L86.0201 124.078C85.2906 124.625 84.5371 125.125 83.7603 125.579L84.2649 126.443ZM88.784 123.064C89.1257 122.745 89.4611 122.415 89.7902 122.074L89.071 121.38C88.7537 121.708 88.4304 122.026 88.1014 122.333L88.784 123.064ZM89.7905 122.074C90.0799 121.774 90.3644 121.465 90.6438 121.148L89.8938 120.487C89.624 120.793 89.3496 121.091 89.0706 121.38L89.7905 122.074ZM92.2259 119.194C92.7187 118.532 93.1923 117.841 93.646 117.124L92.8007 116.589C92.3602 117.286 91.9008 117.956 91.4236 118.597L92.2259 119.194ZM94.9102 114.958C95.1069 114.592 95.2989 114.221 95.4861 113.844L94.5905 113.399C94.4082 113.767 94.2212 114.128 94.0298 114.483L94.9102 114.958ZM95.4862 113.844C95.6907 113.432 95.8842 113.024 96.0671 112.621L95.1565 112.207C94.9781 112.6 94.7896 112.998 94.5904 113.4L95.4862 113.844ZM97.1026 110.122C97.4492 109.203 97.7377 108.341 97.9757 107.564L97.0195 107.271C96.7872 108.03 96.5053 108.872 96.1669 109.77L97.1026 110.122ZM98.6809 104.951C98.7766 104.538 98.8445 104.209 98.8886 103.979C98.9107 103.865 98.9269 103.775 98.9378 103.711C98.9432 103.679 98.9474 103.653 98.9504 103.634C98.9519 103.624 98.9534 103.615 98.9546 103.606C98.9551 103.601 98.956 103.595 98.9567 103.588C98.9571 103.585 98.9577 103.579 98.9583 103.572C98.9586 103.568 98.96 103.551 98.96 103.53H97.96C97.96 103.51 97.9613 103.494 97.9616 103.491C97.9621 103.485 97.9626 103.48 97.9628 103.478C97.9631 103.476 97.9633 103.474 97.9634 103.473C97.9635 103.472 97.9636 103.472 97.9636 103.472C97.9636 103.472 97.9635 103.472 97.9632 103.474C97.963 103.476 97.9626 103.478 97.9621 103.481C97.9602 103.494 97.9569 103.514 97.9521 103.542C97.9425 103.598 97.9275 103.682 97.9066 103.79C97.8648 104.008 97.7995 104.325 97.7067 104.726L98.6809 104.951ZM98.9527 103.615L98.9617 103.563L97.9761 103.394L97.9672 103.446L98.9527 103.615ZM98.9795 103.46L98.9884 103.408L98.0029 103.238L97.994 103.29L98.9795 103.46ZM98.7912 102.92L98.7496 102.889L98.1585 103.696L98.2001 103.726L98.7912 102.92ZM98.6664 102.828L98.6248 102.798L98.0338 103.605L98.0754 103.635L98.6664 102.828Z" fill="#53CDE8"/>
<defs>
<linearGradient id="paint0_linear" x1="36.0625" y1="22.9826" x2="12.8479" y2="127.361" gradientUnits="userSpaceOnUse">
<stop stop-color="#98DEEE"/>
<stop offset="1" stop-color="#44C9E6"/>
</linearGradient>
</defs>
</svg>
