<svg width="140" height="158" viewBox="0 0 96 124" fill="none" xmlns="http://www.w3.org/2000/svg">
<path d="M96 29.931L66.1333 0H0V124H96V29.931Z" fill="url(#paint0_linear)"/>
<path d="M66.6378 103.611C73.6111 103.611 79.264 97.9238 79.264 90.9088C79.264 83.8938 73.6111 78.207 66.6378 78.207C59.6645 78.207 54.0116 83.8938 54.0116 90.9088C54.0116 97.9238 59.6645 103.611 66.6378 103.611Z" fill="#44C9E6"/>
<path d="M75.5054 87.0997C76.4103 88.332 76.8836 89.7885 76.8836 91.3009C76.8836 93.1355 76.1319 94.83 74.8511 96.2024L75.6307 99.1293H77.9972L80.4891 96.2864L81.1573 92.1272L81.2965 89.6484L78.8325 86.8476L75.5054 87.0997Z" fill="#B4E4EF"/>
<path d="M48.0814 99.4654L48.5129 101.188C48.5129 101.188 53.608 111.705 65.0787 115.612C65.0787 115.612 75.5146 111.131 80.1503 103.527L73.7514 97.9109C73.7514 97.9109 70.6888 100.362 66.1367 100.362C61.5846 100.362 55.4037 97.6308 55.4037 92.0011C55.4037 86.3714 61.8073 84.3128 61.8073 84.3128L59.0789 83.6406H52.1045L47.6777 94.3679L48.0814 99.4654Z" fill="#B4E4EF"/>
<path d="M86.6282 87.6428C86.4333 87.4468 82.4253 82.2733 66.7175 75.8935C65.9212 75.5814 65.1762 75.8465 65.1762 75.8465C50.7847 79.5383 43.7241 87.1578 43.7241 87.6428C43.7241 88.1279 45.7844 95.4182 47.1208 98.387C47.2322 98.6391 49.014 101.804 50.3365 103.527C49.557 101.804 48.7078 100.306 48.7078 97.7289C48.7078 90.4607 54.304 84.5509 61.3062 84.2988C61.4732 84.2988 61.6542 84.2988 61.8212 84.3128L60.1507 82.6323C60.1507 82.6323 66.8745 81.498 75.5054 86.7495C75.5054 86.7495 75.6307 87.0156 75.5054 87.7999C75.5054 87.7999 79.5703 89.5644 79.9183 92.9954C80.2664 96.4265 78.1086 98.387 76.3685 98.6671C76.3685 98.6671 77.2734 97.2527 75.8813 96.4965C75.589 96.3284 75.2409 96.2584 74.8929 96.2724C72.234 96.2724 71.9278 99.3253 71.9278 99.3253C71.8999 99.4794 71.8999 99.6334 71.8999 99.7875C71.8999 99.7875 71.4545 104.255 79.3615 104.171C79.3615 104.171 83.3707 99.6054 84.4287 95.5022C84.8185 93.9897 85.0969 92.8554 85.2779 92.0151C85.7233 90.8248 86.1549 89.0713 86.5725 87.7969L86.6282 87.6428Z" fill="#F9FAFC"/>
<path opacity="0.895424" d="M72.067 88.108C72.1784 88.052 72.5403 87.8699 72.958 87.4358C73.7932 87.5478 74.6145 87.8139 74.6145 87.8139C73.0972 86.8896 71.023 86.3434 68.726 86.3574C68.726 86.3574 69.603 87.6178 72.0392 88.136C72.0392 88.136 72.0531 88.122 72.067 88.108Z" fill="white"/>
<path fill-rule="evenodd" clip-rule="evenodd" d="M65.6077 75.1571C67.8072 75.8854 78.401 79.6698 86.7814 86.953L86.9762 87.0958L86.9345 87.3385C86.9345 87.3957 86.0157 92.9366 82.9253 99.163C81.1017 102.833 78.8882 106.032 76.3546 108.66C73.2364 111.887 69.6309 114.272 65.6077 115.757L65.3711 115.843L65.1205 115.943L64.8839 115.857L64.6472 115.771C60.6241 114.286 57.0046 111.901 53.9003 108.674C51.3667 106.032 49.1533 102.847 47.3297 99.1773C44.3673 93.1952 43.4131 87.8693 43.3269 87.3878C43.3231 87.3669 43.321 87.3552 43.3204 87.3528L43.2787 87.11L43.4597 86.953C51.84 79.6698 62.4338 75.8854 64.6333 75.1571L65.1205 75L65.3989 75.0857L65.6077 75.1571ZM75.7421 108.06C78.22 105.489 80.3777 102.362 82.1596 98.7774C84.8324 93.3936 85.8486 88.5524 86.0574 87.4528C77.4683 80.0697 66.5961 76.3852 65.1205 75.8997C63.6309 76.3852 52.7727 80.0697 44.1835 87.4528C44.3923 88.5667 45.3946 93.4078 48.0814 98.806C49.8632 102.39 52.021 105.504 54.4989 108.074C57.5754 111.259 61.1391 113.587 65.1205 115.029C69.1018 113.587 72.6656 111.244 75.7421 108.06Z" fill="white"/>
<mask id="mask0" mask-type="alpha" maskUnits="userSpaceOnUse" x="0" y="0" width="96" height="124">
<path d="M96 29.931L66.1333 0H0V124H96V29.931Z" fill="white"/>
</mask>
<g mask="url(#mask0)">
<path fill-rule="evenodd" clip-rule="evenodd" d="M66 0V30H96L66 0Z" fill="#2CB6D4"/>
<path opacity="0.6" fill-rule="evenodd" clip-rule="evenodd" d="M19.0909 30H37.9091C39.0654 30 40 29.106 40 28C40 26.894 39.0654 26 37.9091 26H19.0909C17.9346 26 17 26.894 17 28C17 29.106 17.9346 30 19.0909 30Z" fill="white"/>
<rect opacity="0.6" x="17" y="38" width="62" height="4" rx="2" fill="white"/>
<rect opacity="0.6" x="17" y="50" width="62" height="4" rx="2" fill="white"/>
<rect opacity="0.6" x="17" y="62" width="62" height="4" rx="2" fill="white"/>
</g>
<defs>
<linearGradient id="paint0_linear" x1="21.0625" y1="7.98263" x2="-2.15213" y2="112.361" gradientUnits="userSpaceOnUse">
<stop stop-color="#98DEEE"/>
<stop offset="1" stop-color="#44C9E6"/>
</linearGradient>
</defs>
</svg>
