<svg width="102" height="130" viewBox="0 0 102 130" fill="none" xmlns="http://www.w3.org/2000/svg">
<rect width="96" height="124" fill="url(#paint0_linear)"/>
<rect opacity="0.3" x="6" y="6" width="96" height="124" fill="url(#paint1_linear)"/>
<g opacity="0.6">
<path fill-rule="evenodd" clip-rule="evenodd" d="M19.0909 55H37.9091C39.0654 55 40 54.106 40 53C40 51.894 39.0654 51 37.9091 51H19.0909C17.9346 51 17 51.894 17 53C17 54.106 17.9346 55 19.0909 55Z" fill="white"/>
<rect x="17" y="63" width="62" height="4" rx="2" fill="white"/>
<rect x="17" y="75" width="62" height="4" rx="2" fill="white"/>
<rect x="17" y="87" width="62" height="4" rx="2" fill="white"/>
<rect x="17" y="99" width="62" height="4" rx="2" fill="white"/>
</g>
<path d="M23.4444 17.2685H25.6077L32.018 33.7665H28.8982L27.6116 30.182H21.4519L20.1539 33.7665H17L23.4444 17.2685ZM26.7008 27.6484L24.5374 21.6236L22.3627 27.6484H26.7008Z" fill="white"/>
<path d="M47.3889 24.8462V33.7665H45.1003L44.8498 31.443C44.4096 32.2292 43.7682 32.8519 42.9256 33.3111C42.0907 33.7704 41.1456 34 40.0906 34C38.3903 34 36.9556 33.6186 35.7867 32.8558C34.6177 32.0929 33.7448 31.0694 33.1679 29.785C32.5911 28.4929 32.3026 27.0685 32.3026 25.5117C32.3026 23.9471 32.5873 22.5227 33.1566 21.2383C33.7334 19.954 34.6026 18.9265 35.7639 18.1559C36.9329 17.3853 38.3675 17 40.0678 17C41.6618 17 43.0661 17.4087 44.2806 18.226C45.5026 19.0355 46.4363 20.207 47.0815 21.7404L44.5197 22.8379C44.1629 21.7482 43.5936 20.9348 42.8118 20.3977C42.0299 19.8606 41.1077 19.592 40.045 19.592C38.9596 19.592 38.0487 19.8567 37.3124 20.386C36.5837 20.9075 36.0448 21.6081 35.6956 22.4876C35.3464 23.3594 35.1719 24.3285 35.1719 25.3949C35.1719 26.5314 35.3464 27.5472 35.6956 28.4423C36.0448 29.3375 36.5875 30.0458 37.3238 30.5673C38.0601 31.0888 38.9823 31.3496 40.0906 31.3496C40.9331 31.3496 41.677 31.1939 42.3222 30.8826C42.975 30.5634 43.4873 30.0964 43.8593 29.4815C44.2388 28.8665 44.4438 28.1193 44.4741 27.2397H40.9331V24.8462H47.3889Z" fill="white"/>
<path d="M50.9071 17.2685H55.9511C57.0517 17.2685 58.0309 17.4631 58.8886 17.8523C59.7464 18.2337 60.4181 18.7942 60.9039 19.5337C61.3897 20.2653 61.6326 21.1371 61.6326 22.149C61.6326 23.1532 61.3897 24.0133 60.9039 24.7294C60.4181 25.4455 59.7464 25.9904 58.8886 26.364C58.0309 26.7376 57.0517 26.9245 55.9511 26.9245H53.7764V33.7665H50.9071V17.2685ZM55.9511 24.1573C56.9227 24.1573 57.6324 23.9899 58.0802 23.6552C58.5357 23.3205 58.7634 22.8185 58.7634 22.149C58.7634 20.7402 57.826 20.0357 55.9511 20.0357H53.7764V24.1573H55.9511Z" fill="white"/>
<path d="M63.5113 25.6868H70.1606V27.8352H63.5113V25.6868Z" fill="white"/>
<path d="M78.6038 17.2685V33.7665H75.7573V22.1023H72V19.8489H74.1519C75.2981 19.8489 75.8712 19.3235 75.8712 18.2727V17.2685H78.6038Z" fill="white"/>
<defs>
<linearGradient id="paint0_linear" x1="21.0625" y1="7.98263" x2="-2.15213" y2="112.361" gradientUnits="userSpaceOnUse">
<stop stop-color="#98DEEE"/>
<stop offset="1" stop-color="#44C9E6"/>
</linearGradient>
<linearGradient id="paint1_linear" x1="27.0625" y1="13.9826" x2="3.84787" y2="118.361" gradientUnits="userSpaceOnUse">
<stop stop-color="#98DEEE"/>
<stop offset="1" stop-color="#44C9E6"/>
</linearGradient>
</defs>
</svg>
