<svg width="140" height="158" viewBox="0 0 140 111" fill="none" xmlns="http://www.w3.org/2000/svg">
<path d="M82.1149 75.0891C90.5258 71.5003 97.1657 66.6154 102.031 60.4324C106.896 54.2508 109.329 47.519 109.329 40.2366C109.329 32.954 106.896 26.2216 102.029 20.0397C97.1643 13.8578 90.5256 8.9724 82.1135 5.38283C73.7015 1.79382 64.5522 0 54.6642 0C44.777 0 35.6277 1.79492 27.2152 5.38283C18.8034 8.97212 12.1644 13.8576 7.29911 20.0397C2.43331 26.2227 0 32.954 0 40.2369C0 46.4708 1.84042 52.3411 5.51554 57.842C9.19039 63.3419 14.2379 67.9793 20.6563 71.7508C20.1391 73.0093 19.6084 74.1604 19.0648 75.2096C18.5208 76.2572 17.8744 77.2649 17.1232 78.2349C16.3726 79.2052 15.7908 79.9643 15.3763 80.5126C14.9621 81.0626 14.2893 81.8372 13.357 82.8308C12.4249 83.8264 11.8293 84.4812 11.5709 84.7947C11.5709 84.7422 11.4673 84.8608 11.2601 85.149C11.0526 85.4372 10.9362 85.5674 10.9106 85.5429C10.8845 85.5145 10.7809 85.6455 10.5997 85.9337C10.4186 86.2222 10.3278 86.3662 10.3278 86.3662L10.1333 86.7578C10.0566 86.9161 10.0038 87.0708 9.97828 87.2291C9.95218 87.3851 9.93912 87.5566 9.93912 87.7394C9.93912 87.9222 9.96469 88.0917 10.0174 88.2497C10.1211 88.9299 10.4186 89.479 10.9103 89.9001C11.4018 90.3185 11.9318 90.5274 12.5019 90.5274H12.735C15.3228 90.1608 17.5491 89.7419 19.4124 89.2698C27.3843 87.1751 34.5804 83.8206 40.9991 79.2107C45.6577 80.0491 50.2132 80.4681 54.6648 80.4681C64.5527 80.4716 73.7032 78.6784 82.1149 75.0891Z" fill="url(#paint0_linear)"/>
<path opacity="0.4" d="M133.633 77.996C137.31 72.5215 139.147 66.6427 139.147 60.3551C139.147 53.9104 137.203 47.8818 133.322 42.2766C129.439 36.6719 124.158 32.0083 117.481 28.2885C118.671 32.2175 119.266 36.199 119.266 40.2339C119.266 47.2537 117.534 53.9073 114.064 60.1949C110.595 66.4806 105.626 72.0335 99.1553 76.8543C93.1502 81.255 86.317 84.6332 78.6551 86.9916C70.9953 89.3483 62.997 90.528 54.6625 90.528C53.1101 90.528 50.8321 90.4242 47.8301 90.215C58.2345 97.1291 70.4517 100.588 84.4796 100.588C88.932 100.588 93.4869 100.168 98.1463 99.3297C104.565 103.942 111.761 107.293 119.733 109.39C121.596 109.863 123.822 110.281 126.41 110.647C127.031 110.7 127.602 110.516 128.119 110.097C128.637 109.678 128.974 109.103 129.128 108.371C129.104 108.056 129.128 107.883 129.206 107.858C129.283 107.834 129.27 107.662 129.167 107.349C129.065 107.034 129.013 106.877 129.013 106.877L128.819 106.485C128.765 106.381 128.678 106.236 128.547 106.053C128.418 105.872 128.315 105.739 128.236 105.661C128.16 105.582 128.045 105.451 127.888 105.269C127.734 105.087 127.63 104.968 127.577 104.915C127.319 104.601 126.724 103.946 125.792 102.95C124.86 101.956 124.188 101.183 123.774 100.633C123.36 100.083 122.777 99.324 122.027 98.3537C121.276 97.3853 120.629 96.3766 120.085 95.3284C119.542 94.2808 119.011 93.1277 118.493 91.8712C124.912 88.0959 129.959 83.4724 133.633 77.996Z" fill="url(#paint1_linear)"/>
<defs>
<linearGradient id="paint0_linear" x1="23.9869" y1="5.8278" x2="12.812" y2="84.2066" gradientUnits="userSpaceOnUse">
<stop stop-color="#98DEEE"/>
<stop offset="1" stop-color="#44C9E6"/>
</linearGradient>
<linearGradient id="paint1_linear" x1="56.1946" y1="-12.5735" x2="36.016" y2="100.034" gradientUnits="userSpaceOnUse">
<stop stop-color="#98DEEE"/>
<stop offset="1" stop-color="#3DC2E0"/>
</linearGradient>
</defs>
</svg>
