<svg width="540" height="289" viewBox="0 0 540 289" fill="none" xmlns="http://www.w3.org/2000/svg">
<path d="M0 0H540V289H0V0Z" fill="url(#paint0_linear)"/>
<path d="M186.868 133.995L200.373 170.009C204.214 170.671 206.578 171.573 206.578 172.568L206.578 172.587L206.571 172.567L206.594 172.654C206.675 173.071 206.662 173.524 206.555 174.014L206.578 174.015L206.505 174.219C206.4 174.613 206.237 175.029 206.015 175.468C202.436 183.929 194.525 189.898 184.789 189.898C175.204 189.898 167.02 184.112 163.315 175.859L163.532 176.244C163.093 175.491 162.795 174.805 162.637 174.186C162.618 174.131 162.598 174.073 162.577 174.015L162.597 174.014C162.505 173.589 162.482 173.197 162.528 172.838L162.577 172.568L162.587 172.455C162.765 171.467 165.277 170.577 169.233 169.934L182.71 133.995C183.359 132.252 186.215 132.252 186.868 133.995ZM258.108 133.991L271.61 169.996C275.268 170.62 277.604 171.461 277.866 172.393L277.828 172.317C278.042 172.728 278.104 173.202 278.015 173.738L277.958 174.011C277.881 174.315 277.762 174.633 277.599 174.969C274.112 183.695 265.953 189.893 256.029 189.893C246.21 189.893 237.861 183.821 234.291 175.246C234.08 174.829 233.912 174.429 233.827 174.054L233.818 174.015C233.818 174.014 233.817 174.012 233.817 174.011L233.818 174.01L233.79 173.839C233.755 173.536 233.774 173.17 233.846 172.741L233.901 172.452L233.896 172.476C233.898 172.46 233.901 172.443 233.905 172.427L233.91 172.408L233.913 172.409C234.158 171.446 236.618 170.579 240.465 169.947L253.95 133.991C254.598 132.247 257.455 132.247 258.108 133.991ZM184.789 141.116L174.21 169.325C177.299 169.049 180.829 168.892 184.578 168.892L185.25 168.894C188.925 168.912 192.374 169.081 195.383 169.365L184.789 141.116ZM256.029 141.116L245.446 169.332C248.553 169.051 252.11 168.892 255.89 168.892L256.562 168.894C260.207 168.912 263.63 169.078 266.621 169.358L256.029 141.116ZM220.721 92.2211C220.721 92.2211 225.99 108.752 225.99 111.679C225.99 113.695 224.826 115.399 223.169 116.293C224.533 116.735 225.732 117.513 226.67 118.554C228.762 116.731 231.845 115.036 236.27 115.036C241.33 115.036 245.679 117.249 249.517 119.203C250.739 119.824 251.925 120.418 253.022 120.883C253.839 120.016 254.981 119.462 256.261 119.462C258.739 119.462 260.747 121.482 260.747 123.977C260.747 126.471 258.739 128.491 256.261 128.491C254.248 128.491 252.609 127.137 252.04 125.3C250.57 124.736 249.064 123.977 247.513 123.19C244.119 121.464 240.268 119.507 236.27 119.507C232.427 119.507 230.028 121.299 228.66 122.814C228.713 123.199 228.775 123.579 228.775 123.977C228.775 128.451 225.168 132.081 220.721 132.081C216.275 132.081 212.667 128.451 212.667 123.977C212.667 123.579 212.73 123.194 212.783 122.81C211.41 121.29 209.011 119.507 205.173 119.507C201.175 119.507 197.323 121.469 193.925 123.194C192.379 123.981 190.873 124.741 189.402 125.304C188.834 127.141 187.195 128.496 185.182 128.496C182.703 128.496 180.695 126.471 180.695 123.977C180.695 121.482 182.703 119.462 185.182 119.462C186.462 119.462 187.603 120.021 188.421 120.883C189.518 120.423 190.7 119.828 191.921 119.203C195.76 117.249 200.113 115.036 205.173 115.036C209.598 115.036 212.681 116.731 214.773 118.554C215.71 117.513 216.91 116.731 218.274 116.293C216.617 115.399 215.453 113.7 215.453 111.679C215.453 108.752 220.721 92.2211 220.721 92.2211Z" fill="url(#paint1_linear)"/>
<path d="M283.691 86.7149C283.691 86.7149 278.225 87.1847 274.604 89.1414C274.604 89.1414 289.006 89.0636 295.709 94.6946C295.709 94.6946 279.409 89.6861 260.409 102.124C260.409 102.124 290.627 96.3343 304.952 108.616C304.952 108.616 300.329 100.06 290.607 98.219C290.607 98.219 301.669 97.7781 305.457 99.6196C305.457 99.6196 302.185 92.5707 298.476 90.8907V85.8659C298.476 84.8484 292.937 79.6739 283.691 78.8007V86.7149Z" fill="url(#paint2_linear)"/>
<path d="M281.233 109.184C281.233 109.184 283.564 111.217 284.551 113.096C284.551 113.096 282.42 115.202 280.383 116.239C280.383 116.239 286.553 118.182 288.177 120.48C284.888 119.446 279.271 119.833 277.918 122.627C281.673 122.222 283.973 123.192 284.456 124.631C284.456 124.631 283.564 125.917 280.83 126.489C277.918 127.098 277.174 128.308 277.174 129.999C277.174 131.689 279.385 133.235 283.401 133.11C287.411 132.982 298.348 131.327 299.175 110.635C298.348 108.689 288.358 104.716 281.207 104.759L281.233 109.184Z" fill="white"/>
<path d="M302.614 132.083C307.524 124.443 310.21 117.785 310.673 112.111C317.942 120.188 317.505 129.646 316.27 136.883C315.437 134.554 314.362 132.158 313.046 129.696C313.916 140.855 310.612 146.897 303.136 147.821C302.261 142.666 302.087 137.42 302.614 132.083Z" fill="white"/>
<path d="M211.891 62.7787C210.527 64.8774 208.527 70.7126 205.892 80.2843C199.97 87.0615 194.176 96.3628 188.512 108.188C185.715 109.058 182.748 110.285 179.611 111.871C187.656 97.0787 195.528 85.9127 203.224 78.3709C205.003 72.4602 207.892 67.2628 211.891 62.7787Z" fill="white"/>
<path d="M228.11 79.2805L208.204 88.6718C213.876 88.7672 218.381 87.736 221.718 85.5781C225.055 83.4203 227.185 81.3211 228.11 79.2805Z" fill="white"/>
<path d="M220.765 75.8548C220.652 71.7505 220.118 69.4436 219.162 68.9342C218.099 68.4595 217.481 67.4371 218.099 65.5702C218.48 64.3835 218.365 63.0625 217.755 61.6071L223.154 58L229.231 61.8305C229.443 63.1821 229.002 64.4287 227.906 65.5702C229.231 67.0034 229.231 68.8532 227.696 70.9898C227.739 71.5191 227.769 72.0381 227.785 72.5467C227.81 73.3175 227.781 74.4202 227.696 75.8548H220.765Z" fill="white"/>
<path d="M295.739 139.088C294.787 156.439 298.481 166.3 306.821 168.669C319.332 172.224 336.067 173.261 340.617 199.611C341.748 203.175 341.198 206.449 342.133 209.66C338.464 213.544 334.486 217.13 330.238 220.379C326.08 210.324 320.881 204.115 313.572 199.611C284.767 181.667 278.823 161.493 295.739 139.088Z" fill="white"/>
<path d="M223.221 194.307C238.305 232.174 262.45 207.911 281.102 216.781C289.631 220.837 294.283 228.282 295.059 239.116C287.788 240.81 280.211 241.704 272.426 241.704C257.33 241.704 243.018 238.343 230.193 232.327C230.146 220.928 227.821 208.255 223.221 194.307Z" fill="white"/>
<path d="M303.756 81.0111C309.84 90.685 312.678 97.8407 312.269 102.478C312.114 104.154 311.377 106.024 310.059 108.087C314.689 107.674 317.004 104.827 317.004 99.5462C317.004 94.2656 312.588 88.0872 303.756 81.0111Z" fill="white"/>
<path d="M250.89 91.913C254.802 90.8321 258 88.3912 260.483 84.5904C260.326 86.8533 259.759 88.8011 258.783 90.4339C270.091 88.3998 278.868 81.5477 285.112 69.8777C273.598 63.6172 261.729 67.8879 255.368 75.6762C251.127 80.8684 249.634 86.2807 250.89 91.913Z" fill="white"/>
<defs>
<linearGradient id="paint0_linear" x1="-143.462" y1="351.723" x2="35.6779" y2="-31.1843" gradientUnits="userSpaceOnUse">
<stop stop-color="#FFC58F"/>
<stop offset="1" stop-color="#FF7C7C"/>
</linearGradient>
<linearGradient id="paint1_linear" x1="162.505" y1="175.829" x2="431.814" y2="-61.1504" gradientUnits="userSpaceOnUse">
<stop stop-color="#FFD4AB"/>
<stop offset="1" stop-color="#FF7C7C"/>
</linearGradient>
<linearGradient id="paint2_linear" x1="260.409" y1="104.322" x2="342.727" y2="11.8071" gradientUnits="userSpaceOnUse">
<stop stop-color="#FFD4AB"/>
<stop offset="1" stop-color="#FF7C7C"/>
</linearGradient>
</defs>
</svg>
