<svg width="288" height="216" viewBox="0 0 288 216" fill="none" xmlns="http://www.w3.org/2000/svg">
<path d="M151.425 156.686C185.891 156.686 213.832 128.712 213.832 94.2045C213.832 59.6967 185.891 31.7227 151.425 31.7227C116.959 31.7227 89.0188 59.6967 89.0188 94.2045C89.0188 128.712 116.959 156.686 151.425 156.686Z" fill="#44C9E6"/>
<path d="M195.878 77.1559C200.348 83.2211 202.068 88.6953 202.068 96.1334C202.068 105.159 198.35 113.495 192.021 120.243L195.872 134.644H207.57L219.888 120.66L223.189 100.2L223.878 88.006L211.699 74.2305C200.875 72.9213 195.6 73.9003 195.878 77.1559Z" fill="#CAF2F9"/>
<mask id="mask0" mask-type="alpha" maskUnits="userSpaceOnUse" x="57" y="58" width="162" height="158">
<path d="M59.7092 136.301L61.8403 144.776C61.8403 144.776 87.0264 196.512 143.723 215.733C143.723 215.733 195.305 193.685 218.215 156.281L186.589 128.655C186.589 128.655 171.451 140.71 148.952 140.71C126.453 140.71 95.9044 127.276 95.9044 99.5802C95.9044 71.8845 127.554 61.7585 127.554 61.7585L114.066 58.4508H79.5905L57.7112 111.224L59.7092 136.301Z" fill="#CAF2F9"/>
</mask>
<g mask="url(#mask0)">
<circle cx="146.961" cy="112.62" r="89.4015" fill="#CAF2F9"/>
</g>
<mask id="mask1" mask-type="alpha" maskUnits="userSpaceOnUse" x="36" y="0" width="215" height="160">
<path d="M250.235 78.1408C249.273 77.1792 240.61 32.5799 164.026 6.19339C161.606 4.53663 80.7774 -8.49733 93.1185 9.11878C21.9847 27.2794 38.1713 75.7542 38.1713 78.1408C38.1713 80.5275 48.3523 116.391 54.9601 130.995C55.5102 132.235 64.3187 147.806 70.857 156.281C67.0058 147.806 62.8072 140.437 62.8072 127.763C62.8072 92.0089 90.4661 62.9345 125.075 61.6949C125.903 61.6949 126.795 61.6949 127.623 61.7644L119.364 53.4979C119.364 53.4979 152.6 47.9194 195.259 73.7498C195.259 73.7498 195.878 75.059 195.259 78.9171C195.259 78.9171 215.348 87.5948 217.068 104.475C218.788 121.356 208.121 131.001 199.521 132.374C199.521 132.374 203.992 125.416 197.112 121.697C195.664 120.869 193.944 120.527 192.224 120.597C179.084 120.597 177.566 135.618 177.566 135.618C177.427 136.377 177.427 137.135 177.427 137.888C177.427 137.888 175.227 159.867 214.306 159.45C214.306 159.45 234.124 136.991 239.353 116.808C241.282 109.37 242.654 103.786 243.552 99.6555C245.752 93.7989 247.889 85.1734 249.951 78.9055L250.235 78.1408Z" fill="url(#paint0_radial)"/>
</mask>
<g mask="url(#mask1)">
<circle cx="143.264" cy="107.914" r="87.3849" fill="#7ED7E8"/>
<circle cx="147.369" cy="112.203" r="86.6227" fill="url(#paint1_linear)"/>
</g>
<path d="M178.26 80.429C178.811 80.151 180.6 79.2589 182.662 77.1213C186.791 77.6716 190.851 78.9808 190.851 78.9808C183.351 74.4334 173.1 71.7455 161.744 71.815C161.744 71.815 166.081 78.0134 178.121 80.5623C178.121 80.5681 178.191 80.4986 178.26 80.429Z" fill="#F9FAFC"/>
<path d="M110.397 197.959L110.397 197.959C115.998 200.328 121.856 202.144 127.817 203.366C127.817 203.366 127.817 203.366 127.817 203.366L127.666 204.101C133.825 205.361 140.163 206 146.5 206C152.837 206 159.175 205.361 165.334 204.101L110.397 197.959ZM110.397 197.959C104.899 195.635 99.6003 192.757 94.6383 189.406C89.728 186.088 85.1142 182.28 80.9172 178.083C76.7203 173.886 72.9116 169.272 69.5943 164.362L69.5941 164.361M110.397 197.959L69.5941 164.361M69.5941 164.361C66.2426 159.406 63.3649 154.101 61.0412 148.603L61.0411 148.603M69.5941 164.361L61.0411 148.603M61.0411 148.603C58.6718 143.002 56.8561 137.144 55.6342 131.183C54.3839 125.074 53.75 118.787 53.75 112.5C53.75 106.213 54.3839 99.9258 55.6342 93.8168C56.8562 87.8615 58.6719 81.9976 61.0411 76.3972L61.0412 76.397M61.0411 148.603L61.0412 76.397M61.0412 76.397C63.3648 70.899 66.2426 65.6003 69.5943 60.6383C72.9116 55.728 76.7203 51.1142 80.9172 46.9172C85.1142 42.7203 89.728 38.9116 94.6384 35.5943L94.6387 35.5941M61.0412 76.397L94.6387 35.5941M94.6387 35.5941C99.5945 32.2426 104.899 29.3649 110.397 27.0412L110.397 27.0411M94.6387 35.5941L110.397 27.0411M110.397 27.0411C115.998 24.6718 121.856 22.8561 127.817 21.6342C133.926 20.3839 140.213 19.75 146.5 19.75C152.787 19.75 159.074 20.3839 165.183 21.6342C171.144 22.8561 177.002 24.6718 182.603 27.0411L182.603 27.0412M110.397 27.0411L182.603 27.0412M182.603 27.0412C188.101 29.3648 193.4 32.2426 198.362 35.5943C203.272 38.9116 207.886 42.7203 212.083 46.9172C216.28 51.1142 220.088 55.728 223.406 60.6384L223.406 60.6387M182.603 27.0412L223.406 60.6387M223.406 60.6387C226.757 65.5945 229.635 70.8988 231.959 76.397L231.959 76.3972M223.406 60.6387L231.959 76.3972M231.959 76.3972C234.328 81.9978 236.144 87.8559 237.366 93.8168L231.959 76.3972ZM101.224 45.3397L101.224 45.3394C105.552 42.4174 110.176 39.9017 114.976 37.8737C124.958 33.6496 135.562 31.5118 146.5 31.5118C157.438 31.5118 168.042 33.6555 178.024 37.8796C182.818 39.9074 187.448 42.423 191.776 45.3451L191.776 45.3454C196.064 48.2443 200.101 51.5729 203.767 55.2388C207.433 58.9047 210.761 62.9421 213.66 67.2294L213.661 67.2298C216.583 71.5575 219.098 76.1818 221.126 80.9816C221.126 80.9817 221.126 80.9818 221.126 80.982L220.435 81.2739L101.224 45.3397ZM101.224 45.3397C96.9363 48.2385 92.899 51.5671 89.2331 55.2331C85.5676 58.8985 82.233 62.9359 79.3394 67.2298C76.4172 71.5578 73.9017 76.188 71.8738 80.9817C67.6497 90.9639 65.5118 101.568 65.5118 112.506C65.5118 123.443 67.6496 134.047 71.8737 144.03C73.9017 148.829 76.4174 153.454 79.3394 157.782L79.3397 157.782M101.224 45.3397L79.3397 157.782M79.3397 157.782C82.2385 162.069 85.5671 166.107 89.2331 169.773C92.899 173.439 96.9363 176.767 101.224 179.666L101.224 179.666M79.3397 157.782L101.224 179.666M101.224 179.666C105.552 182.589 110.182 185.104 114.976 187.132M101.224 179.666L114.976 187.132M114.976 187.132C124.958 191.356 135.562 193.494 146.5 193.494M114.976 187.132L146.5 193.494M146.5 193.494C157.438 193.494 168.042 191.356 178.024 187.132L146.5 193.494Z" fill="#C3F3FE" stroke="#8FD9EB" stroke-width="1.5"/>
<defs>
<radialGradient id="paint0_radial" cx="0" cy="0" r="1" gradientUnits="userSpaceOnUse" gradientTransform="translate(10.1429 227.484) scale(0.38788 0.387989)">
<stop stop-color="#00C9FF"/>
<stop offset="1" stop-color="#7DD6E7"/>
</radialGradient>
<linearGradient id="paint1_linear" x1="98.7567" y1="36.7327" x2="73.1631" y2="185.371" gradientUnits="userSpaceOnUse">
<stop stop-color="#98DEEE"/>
<stop offset="1" stop-color="#44C9E6"/>
</linearGradient>
</defs>
</svg>
