<svg width="197" height="194" viewBox="0 0 197 194" fill="none" xmlns="http://www.w3.org/2000/svg">
<path d="M108.097 140.293C138.957 140.293 163.974 115.246 163.974 84.3482C163.974 53.4508 138.957 28.4036 108.097 28.4036C77.2372 28.4036 52.2202 53.4508 52.2202 84.3482C52.2202 115.246 77.2372 140.293 108.097 140.293Z" fill="#44C9E6"/>
<path d="M147.899 69.0834C151.902 74.514 153.442 79.4155 153.442 86.0753C153.442 94.1563 150.113 101.62 144.445 107.663L147.894 120.557H158.368L169.397 108.036L172.353 89.7164L172.97 78.7983L162.065 66.4641C152.374 65.2919 147.65 66.1684 147.899 69.0834Z" fill="#CAF2F9"/>
<mask id="mask0" mask-type="alpha" maskUnits="userSpaceOnUse" x="24" y="52" width="144" height="142">
<path d="M25.9772 122.041L27.8854 129.629C27.8854 129.629 50.4364 175.952 101.201 193.162C101.201 193.162 147.386 173.421 167.9 139.93L139.583 115.194C139.583 115.194 126.028 125.988 105.883 125.988C85.7381 125.988 58.3855 113.96 58.3855 89.1615C58.3855 64.3635 86.7233 55.297 86.7233 55.297L74.6467 52.3353H43.7784L24.1882 99.5869L25.9772 122.041Z" fill="#CAF2F9"/>
</mask>
<g mask="url(#mask0)">
<circle cx="104.1" cy="100.837" r="80.0478" fill="#CAF2F9"/>
</g>
<mask id="mask1" mask-type="alpha" maskUnits="userSpaceOnUse" x="5" y="0" width="192" height="143">
<path d="M196.569 69.9653C195.708 69.1043 187.951 29.1712 119.38 5.5454C117.213 4.06198 44.8411 -7.60829 55.891 8.16473C-7.80038 24.4253 6.69261 67.8283 6.69261 69.9653C6.69261 72.1022 15.8084 104.214 21.7249 117.29C22.2175 118.4 30.1044 132.342 35.9586 139.93C32.5104 132.342 28.751 125.744 28.751 114.395C28.751 82.3825 53.5161 56.35 84.5036 55.24C85.2451 55.24 86.0437 55.24 86.7852 55.3022L79.3909 47.9007C79.3909 47.9007 109.15 42.9058 147.345 66.0337C147.345 66.0337 147.899 67.2059 147.345 70.6603C147.345 70.6603 165.333 78.4301 166.873 93.5444C168.413 108.659 158.861 117.295 151.161 118.524C151.161 118.524 155.164 112.295 149.004 108.965C147.708 108.223 146.168 107.917 144.628 107.979C132.862 107.979 131.503 121.429 131.503 121.429C131.379 122.108 131.379 122.788 131.379 123.462C131.379 123.462 129.409 143.14 164.399 142.767C164.399 142.767 182.143 122.658 186.826 104.587C188.552 97.9273 189.781 92.9272 190.585 89.229C192.555 83.9852 194.469 76.2621 196.315 70.6499L196.569 69.9653Z" fill="url(#paint0_radial)"/>
</mask>
<g mask="url(#mask1)">
<circle cx="100.79" cy="96.624" r="78.2422" fill="#7ED7E8"/>
<circle cx="104.466" cy="100.463" r="77.5598" fill="url(#paint1_linear)"/>
</g>
<path d="M132.125 72.0141C132.617 71.7651 134.22 70.9664 136.066 69.0524C139.763 69.5452 143.398 70.7174 143.398 70.7174C136.683 66.6458 127.505 64.2391 117.336 64.3013C117.336 64.3013 121.22 69.8512 132 72.1334C132 72.1386 132.063 72.0763 132.125 72.0141Z" fill="white"/>
<path d="M103.05 184.99C97.3412 184.99 91.6322 184.414 86.0839 183.278C80.6704 182.168 75.3503 180.519 70.2635 178.366C65.27 176.255 60.458 173.641 55.952 170.596C51.4926 167.583 47.3028 164.123 43.4916 160.311C39.6804 156.499 36.2218 152.308 33.2091 147.847C30.1653 143.345 27.5519 138.527 25.4415 133.532C23.2896 128.443 21.6406 123.122 20.531 117.707C19.3954 112.157 18.8198 106.446 18.8198 100.736C18.8198 95.025 19.3954 89.3143 20.531 83.7644C21.6406 78.3546 23.2896 73.0278 25.4415 67.9396C27.5519 62.9447 30.1653 58.1313 33.2091 53.624C36.2218 49.1634 39.6804 44.9725 43.4916 41.1602C47.3028 37.3479 51.4926 33.8883 55.952 30.8748C60.4528 27.8301 65.27 25.216 70.2635 23.105C75.3503 20.9525 80.6704 19.3031 86.0839 18.1931C91.6322 17.0572 97.3412 16.4814 103.05 16.4814C108.759 16.4814 114.468 17.0572 120.017 18.1931C125.43 19.3031 130.75 20.9525 135.837 23.105C140.831 25.216 145.643 27.8301 150.149 30.8748C154.608 33.8883 158.798 37.3479 162.609 41.1602C166.42 44.9725 169.879 49.1634 172.891 53.624C175.935 58.1262 178.549 62.9447 180.659 67.9396C182.811 73.0278 184.46 78.3494 185.57 83.7644C186.705 89.3143 187.281 95.025 187.281 100.736C187.281 106.446 186.705 112.157 185.57 117.707C184.46 123.122 182.811 128.443 180.659 133.532C178.549 138.527 175.935 143.34 172.891 147.847C169.879 152.308 166.42 156.499 162.609 160.311C158.798 164.123 154.608 167.583 150.149 170.596C145.648 173.641 140.831 176.255 135.837 178.366C130.75 180.519 125.43 182.168 120.017 183.278C114.468 184.414 108.759 184.99 103.05 184.99ZM103.05 28.4318C93.2863 28.4318 83.8231 30.3405 74.9147 34.1113C70.6316 35.9215 66.5041 38.1674 62.641 40.7764C58.8143 43.3646 55.2105 46.3366 51.9385 49.6095C48.6666 52.8823 45.6902 56.4871 43.1079 60.3202C40.4997 64.1843 38.2544 68.3182 36.4448 72.5973C32.675 81.5082 30.7668 90.9741 30.7668 100.741C30.7668 110.508 32.675 119.973 36.4448 128.884C38.2544 133.169 40.4997 137.297 43.1079 141.161C45.6954 144.989 48.6666 148.594 51.9385 151.867C55.2105 155.14 58.8143 158.112 62.641 160.7C66.5041 163.309 70.6368 165.555 74.9147 167.365C83.8231 171.136 93.2863 173.045 103.05 173.045C112.814 173.045 122.277 171.136 131.186 167.365C135.469 165.555 139.596 163.309 143.46 160.7C147.286 158.112 150.89 155.14 154.162 151.867C157.434 148.594 160.405 144.989 162.993 141.161C165.601 137.297 167.846 133.163 169.656 128.884C173.426 119.973 175.334 110.508 175.334 100.741C175.334 90.9741 173.426 81.5082 169.656 72.5973C167.846 68.313 165.601 64.1843 162.993 60.3202C160.405 56.4923 157.434 52.8875 154.162 49.6146C150.89 46.3418 147.286 43.3697 143.46 40.7815C139.596 38.1726 135.464 35.9267 131.186 34.1165C122.277 30.3457 112.814 28.4318 103.05 28.4318Z" fill="url(#paint2_radial)"/>
<defs>
<radialGradient id="paint0_radial" cx="0" cy="0" r="1" gradientUnits="userSpaceOnUse" gradientTransform="translate(-18.4033 203.683) scale(0.347298)">
<stop stop-color="#00C9FF"/>
<stop offset="1" stop-color="#7DD6E7"/>
</radialGradient>
<linearGradient id="paint1_linear" x1="60.9394" y1="32.8894" x2="38.0236" y2="165.976" gradientUnits="userSpaceOnUse">
<stop stop-color="#98DEEE"/>
<stop offset="1" stop-color="#44C9E6"/>
</linearGradient>
<radialGradient id="paint2_radial" cx="0" cy="0" r="1" gradientUnits="userSpaceOnUse" gradientTransform="translate(103.05 100.741) scale(84.2261 84.2498)">
<stop stop-color="#00C9FF"/>
<stop offset="1" stop-color="#54CDE7"/>
</radialGradient>
</defs>
</svg>
