<svg width="242" height="193" viewBox="0 0 242 193" fill="none" xmlns="http://www.w3.org/2000/svg">
<g style="mix-blend-mode:multiply">
<path d="M129.5 28L202.679 79.75H56.3209L129.5 28Z" fill="url(#paint0_linear)"/>
</g>
<rect x="73.75" y="88.75" width="14.5" height="73.5" fill="url(#paint1_linear)" stroke="#8FD9EB" stroke-width="1.5"/>
<rect x="123.363" y="88.604" width="13.3175" height="73.646" fill="url(#paint2_linear)" stroke="#8FD9EB" stroke-width="1.5"/>
<rect x="171.75" y="88.604" width="13.3175" height="73.646" fill="url(#paint3_linear)" stroke="#8FD9EB" stroke-width="1.5"/>
<rect opacity="0.2" x="182" y="30" width="15" height="15" fill="url(#paint4_linear)"/>
<rect x="227.75" y="30.75" width="13.5" height="13.5" stroke="#8FD9EB" stroke-width="1.5"/>
<rect x="197.75" y="30.75" width="13.5" height="13.5" fill="url(#paint5_linear)" stroke="#8FD9EB" stroke-width="1.5"/>
<rect opacity="0.6" x="197" y="15" width="15" height="15" fill="url(#paint6_linear)"/>
<rect x="212" width="15" height="15" fill="url(#paint7_linear)"/>
<rect x="212.75" y="0.75" width="13.5" height="13.5" stroke="#8FD9EB" stroke-opacity="0.2" stroke-width="1.5"/>
<rect opacity="0.2" y="163" width="15" height="15" fill="url(#paint8_linear)"/>
<rect opacity="0.2" x="45" y="163" width="15" height="15" fill="url(#paint9_linear)"/>
<rect x="15" y="163" width="15" height="15" fill="url(#paint10_linear)"/>
<rect opacity="0.6" x="15" y="148" width="15" height="15" fill="url(#paint11_linear)"/>
<rect opacity="0.2" x="30" y="178" width="15" height="15" fill="url(#paint12_linear)"/>
<rect x="30.75" y="133.75" width="13.5" height="13.5" fill="url(#paint13_linear)" stroke="#8FD9EB" stroke-width="1.5"/>
<defs>
<linearGradient id="paint0_linear" x1="165" y1="62" x2="97.0261" y2="62.0803" gradientUnits="userSpaceOnUse">
<stop stop-color="#98DEEE"/>
<stop offset="1" stop-color="#44C9E6"/>
</linearGradient>
<linearGradient id="paint1_linear" x1="70.913" y1="88" x2="102.505" y2="93.576" gradientUnits="userSpaceOnUse">
<stop stop-color="#98DEEE"/>
<stop offset="1" stop-color="#44C9E6" stop-opacity="0.12"/>
</linearGradient>
<linearGradient id="paint2_linear" x1="120.68" y1="87.854" x2="150.067" y2="92.6481" gradientUnits="userSpaceOnUse">
<stop stop-color="#98DEEE"/>
<stop offset="1" stop-color="#44C9E6" stop-opacity="0.12"/>
</linearGradient>
<linearGradient id="paint3_linear" x1="125" y1="-5" x2="193.958" y2="-2.08413" gradientUnits="userSpaceOnUse">
<stop stop-color="#98DEEE"/>
<stop offset="1" stop-color="#44C9E6" stop-opacity="0.12"/>
</linearGradient>
<linearGradient id="paint4_linear" x1="180.043" y1="30" x2="198.174" y2="45" gradientUnits="userSpaceOnUse">
<stop stop-color="#98DEEE"/>
<stop offset="1" stop-color="#44C9E6" stop-opacity="0.12"/>
</linearGradient>
<linearGradient id="paint5_linear" x1="195.043" y1="30" x2="213.174" y2="45" gradientUnits="userSpaceOnUse">
<stop stop-color="#98DEEE"/>
<stop offset="1" stop-color="#44C9E6" stop-opacity="0.12"/>
</linearGradient>
<linearGradient id="paint6_linear" x1="195.043" y1="15" x2="213.174" y2="30" gradientUnits="userSpaceOnUse">
<stop stop-color="#98DEEE"/>
<stop offset="1" stop-color="#44C9E6" stop-opacity="0.12"/>
</linearGradient>
<linearGradient id="paint7_linear" x1="210.043" y1="8.83084e-08" x2="228.174" y2="15" gradientUnits="userSpaceOnUse">
<stop stop-color="#98DEEE"/>
<stop offset="1" stop-color="#44C9E6" stop-opacity="0.12"/>
</linearGradient>
<linearGradient id="paint8_linear" x1="-1.95652" y1="163" x2="16.1739" y2="178" gradientUnits="userSpaceOnUse">
<stop stop-color="#98DEEE"/>
<stop offset="1" stop-color="#44C9E6" stop-opacity="0.12"/>
</linearGradient>
<linearGradient id="paint9_linear" x1="43.0435" y1="163" x2="61.1739" y2="178" gradientUnits="userSpaceOnUse">
<stop stop-color="#98DEEE"/>
<stop offset="1" stop-color="#44C9E6" stop-opacity="0.12"/>
</linearGradient>
<linearGradient id="paint10_linear" x1="13.0435" y1="163" x2="31.1739" y2="178" gradientUnits="userSpaceOnUse">
<stop stop-color="#98DEEE"/>
<stop offset="1" stop-color="#44C9E6" stop-opacity="0.12"/>
</linearGradient>
<linearGradient id="paint11_linear" x1="13.0435" y1="148" x2="31.1739" y2="163" gradientUnits="userSpaceOnUse">
<stop stop-color="#98DEEE"/>
<stop offset="1" stop-color="#44C9E6" stop-opacity="0.12"/>
</linearGradient>
<linearGradient id="paint12_linear" x1="28.0435" y1="178" x2="46.1739" y2="193" gradientUnits="userSpaceOnUse">
<stop stop-color="#98DEEE"/>
<stop offset="1" stop-color="#44C9E6" stop-opacity="0.12"/>
</linearGradient>
<linearGradient id="paint13_linear" x1="28.0435" y1="133" x2="46.1739" y2="148" gradientUnits="userSpaceOnUse">
<stop stop-color="#98DEEE"/>
<stop offset="1" stop-color="#44C9E6" stop-opacity="0.12"/>
</linearGradient>
</defs>
</svg>
