<svg width="1440" height="569" viewBox="0 0 1440 569" fill="none" xmlns="http://www.w3.org/2000/svg">
<mask id="mask0" mask-type="alpha" maskUnits="userSpaceOnUse" x="0" y="0" width="1440" height="569">
<rect width="1440" height="569" fill="url(#paint0_radial)"/>
</mask>
<g mask="url(#mask0)">
<path d="M730.823 560.823C896.86 560.823 1031.46 426.061 1031.46 259.822C1031.46 93.5838 896.86 -41.179 730.823 -41.179C564.785 -41.179 430.185 93.5838 430.185 259.822C430.185 426.061 564.785 560.823 730.823 560.823Z" fill="#44C9E6"/>
<path d="M944.969 177.692C966.507 206.911 974.793 233.282 974.793 269.115C974.793 312.593 956.882 352.751 926.388 385.262L944.941 454.638H1001.3L1060.64 387.271L1076.54 288.705L1079.86 229.962L1021.19 163.6C969.045 157.293 943.63 162.009 944.969 177.692Z" fill="url(#paint1_linear)" fill-opacity="0.8"/>
<mask id="mask1" mask-type="alpha" maskUnits="userSpaceOnUse" x="279" y="87" width="774" height="759">
<path d="M288.989 462.621L299.256 503.448C299.256 503.448 420.587 752.682 693.717 845.277C693.717 845.277 942.212 739.064 1052.58 558.871L900.224 425.784C900.224 425.784 827.296 483.857 718.91 483.857C610.523 483.857 463.356 419.142 463.356 285.72C463.356 152.299 615.823 103.518 615.823 103.518L550.847 87.583H384.765L279.364 341.813L288.989 462.621Z" fill="url(#paint2_linear)"/>
</mask>
<g mask="url(#mask1)">
<circle cx="709.318" cy="348.537" r="430.684" fill="#0ED0E8"/>
</g>
<mask id="mask2" mask-type="alpha" maskUnits="userSpaceOnUse" x="177" y="-194" width="1030" height="769">
<path d="M1206.83 182.437C1202.2 177.804 1160.46 -37.049 791.529 -164.164C779.867 -172.145 390.483 -234.935 449.936 -150.071C107.255 -62.5836 185.232 170.939 185.232 182.437C185.232 193.934 234.278 366.705 266.11 437.057C268.761 443.029 311.195 518.042 342.693 558.87C324.14 518.042 303.913 482.545 303.913 421.485C303.913 249.245 437.158 109.182 603.881 103.21C607.871 103.21 612.167 103.21 616.157 103.545L576.373 63.722C576.373 63.722 736.484 36.8479 941.987 161.284C941.987 161.284 944.972 167.591 941.987 186.176C941.987 186.176 1038.77 227.981 1047.05 309.301C1055.34 390.621 1003.95 437.085 962.521 443.699C962.521 443.699 984.058 410.183 950.915 392.267C943.94 388.276 935.654 386.63 927.368 386.965C864.066 386.965 856.756 459.327 856.756 459.327C856.087 462.983 856.087 466.638 856.087 470.266C856.087 470.266 845.485 576.144 1033.75 574.135C1033.75 574.135 1129.22 465.941 1154.41 368.714C1163.7 332.882 1170.31 305.98 1174.64 286.082C1185.24 257.869 1195.53 216.316 1205.46 186.121L1206.83 182.437Z" fill="url(#paint3_radial)"/>
</mask>
<g mask="url(#mask2)">
<circle cx="691.506" cy="325.869" r="420.969" fill="#7ED7E8"/>
<circle cx="711.284" cy="346.526" r="417.298" fill="url(#paint4_linear)" stroke="url(#paint5_linear)" stroke-width="2"/>
</g>
<path d="M860.1 193.461C862.75 192.121 871.371 187.823 881.303 177.526C901.195 180.177 920.752 186.484 920.752 186.484C884.623 164.577 835.242 151.628 780.532 151.963C780.532 151.963 801.428 181.824 859.43 194.102C859.43 194.13 859.765 193.795 860.1 193.461Z" fill="#37E3EF"/>
<path d="M707.097 798.388C676.567 798.388 646.037 795.31 616.368 789.237C587.419 783.303 558.969 774.486 531.767 762.978C505.064 751.693 479.331 737.717 455.235 721.44C431.388 705.33 408.983 686.835 388.602 666.454C368.221 646.073 349.726 623.668 333.616 599.821C317.339 575.753 303.363 549.992 292.078 523.289C280.57 496.087 271.753 467.638 265.819 438.689C259.746 409.019 256.668 378.489 256.668 347.96C256.668 317.43 259.746 286.9 265.819 257.23C271.753 228.309 280.57 199.832 292.078 172.63C303.363 145.927 317.339 120.194 333.616 96.0978C349.726 72.2509 368.221 49.8459 388.602 29.4652C408.983 9.08443 431.388 -9.41075 455.235 -25.5213C479.303 -41.7981 505.064 -55.7735 531.767 -67.0592C558.969 -78.5667 587.419 -87.3845 616.368 -93.3185C646.037 -99.3911 676.567 -102.469 707.097 -102.469C737.626 -102.469 768.156 -99.3911 797.826 -93.3185C826.775 -87.3845 855.224 -78.5667 882.426 -67.0592C909.129 -55.7735 934.862 -41.7981 958.958 -25.5213C982.805 -9.41075 1005.21 9.08443 1025.59 29.4652C1045.97 49.8459 1064.47 72.2509 1080.58 96.0978C1096.85 120.166 1110.83 145.927 1122.12 172.63C1133.62 199.832 1142.44 228.281 1148.37 257.23C1154.45 286.9 1157.53 317.43 1157.53 347.96C1157.53 378.489 1154.45 409.019 1148.37 438.689C1142.44 467.638 1133.62 496.087 1122.12 523.289C1110.83 549.992 1096.85 575.725 1080.58 599.821C1064.47 623.668 1045.97 646.073 1025.59 666.454C1005.21 686.835 982.805 705.33 958.958 721.44C934.89 737.717 909.129 751.693 882.426 762.978C855.224 774.486 826.775 783.303 797.826 789.237C768.156 795.31 737.626 798.388 707.097 798.388ZM707.097 -38.5816C654.883 -38.5816 604.278 -28.3773 556.639 -8.21841C533.735 1.45898 511.663 13.4656 491.005 27.4133C470.541 41.25 451.27 57.1386 433.773 74.6356C416.276 92.1325 400.359 111.404 386.55 131.896C372.603 152.554 360.596 174.654 350.919 197.53C330.76 245.168 320.555 295.774 320.555 347.987C320.555 400.201 330.76 450.806 350.919 498.444C360.596 521.348 372.603 543.421 386.55 564.079C400.387 584.543 416.276 603.814 433.773 621.311C451.27 638.808 470.541 654.697 491.005 668.534C511.663 682.481 533.763 694.488 556.639 704.165C604.278 724.324 654.883 734.528 707.097 734.528C759.31 734.528 809.915 724.324 857.554 704.165C880.458 694.488 902.53 682.481 923.188 668.534C943.652 654.697 962.923 638.808 980.42 621.311C997.917 603.814 1013.81 584.543 1027.64 564.079C1041.59 543.421 1053.6 521.321 1063.27 498.444C1083.43 450.806 1093.64 400.201 1093.64 347.987C1093.64 295.774 1083.43 245.168 1063.27 197.53C1053.6 174.626 1041.59 152.554 1027.64 131.896C1013.81 111.432 997.917 92.1603 980.42 74.6633C962.923 57.1664 943.652 41.2777 923.188 27.441C902.53 13.4933 880.43 1.48671 857.554 -8.19068C809.915 -28.3496 759.31 -38.5816 707.097 -38.5816Z" fill="url(#paint6_linear)" stroke="url(#paint7_linear)" stroke-width="2"/>
<path opacity="0.25" d="M707 -271C748.955 -271 790.91 -266.77 831.684 -258.425C871.467 -250.27 910.564 -238.152 947.947 -222.338C984.643 -206.829 1020.01 -187.623 1053.12 -165.255C1085.89 -143.115 1116.68 -117.698 1144.69 -89.6897C1172.7 -61.6815 1198.12 -30.8916 1220.25 1.87987C1242.62 34.9562 1261.83 70.3571 1277.34 107.054C1293.15 144.436 1305.27 183.533 1313.42 223.316C1321.77 264.09 1326 306.045 1326 348C1326 389.955 1321.77 431.91 1313.42 472.684C1305.27 512.429 1293.15 551.564 1277.34 588.947C1261.83 625.643 1242.62 661.006 1220.25 694.12C1198.12 726.892 1172.7 757.682 1144.69 785.69C1116.68 813.698 1085.89 839.115 1053.12 861.255C1020.04 883.623 984.643 902.829 947.947 918.338C910.564 934.152 871.467 946.27 831.684 954.425C790.91 962.77 748.955 967 707 967C665.045 967 623.09 962.77 582.316 954.425C542.533 946.27 503.436 934.152 466.053 918.338C429.357 902.829 393.994 883.623 360.88 861.255C328.108 839.115 297.318 813.698 269.31 785.69C241.302 757.682 215.885 726.892 193.745 694.12C171.377 661.044 152.171 625.643 136.662 588.947C120.848 551.564 108.73 512.467 100.575 472.684C92.2297 431.91 87.9999 389.955 87.9999 348C87.9999 306.045 92.2297 264.09 100.575 223.316C108.73 183.533 120.848 144.436 136.662 107.053C152.171 70.357 171.377 34.9942 193.745 1.87978C215.885 -30.8916 241.302 -61.6816 269.31 -89.6898C297.318 -117.698 328.108 -143.115 360.88 -165.255C393.956 -187.623 429.357 -206.829 466.053 -222.338C503.436 -238.152 542.533 -250.27 582.316 -258.425C623.09 -266.77 665.045 -271 707 -271ZM707 879.203C778.754 879.203 848.298 865.18 913.765 837.476C945.241 824.177 975.574 807.677 1003.96 788.51C1032.09 769.495 1058.57 747.66 1082.61 723.615C1106.66 699.569 1128.53 673.086 1147.51 644.925C1166.68 616.536 1183.18 586.165 1196.48 554.727C1224.18 489.26 1238.2 419.716 1238.2 347.962C1238.2 276.208 1224.18 206.664 1196.48 141.197C1183.18 109.721 1166.68 79.3882 1147.51 50.9989C1128.49 22.8764 1106.66 -3.60744 1082.61 -27.6525C1058.57 -51.6977 1032.09 -73.5326 1003.96 -92.5478C975.574 -111.715 945.203 -128.215 913.765 -141.514C848.298 -169.218 778.754 -183.241 707 -183.241C635.246 -183.241 565.702 -169.218 500.235 -141.514C468.759 -128.215 438.426 -111.715 410.037 -92.5478C381.914 -73.5327 355.431 -51.6977 331.385 -27.6526C307.34 -3.60751 285.505 22.8764 266.49 50.9989C247.323 79.3882 230.823 109.759 217.524 141.197C189.82 206.663 175.797 276.208 175.797 347.962C175.797 419.716 189.82 489.26 217.523 554.727C230.823 586.203 247.323 616.536 266.49 644.925C285.505 673.047 307.34 699.531 331.385 723.576C355.43 747.622 381.914 769.456 410.037 788.472C438.426 807.639 468.797 824.139 500.235 837.438C565.701 865.142 635.246 879.203 707 879.203Z" fill="url(#paint8_linear)" stroke="url(#paint9_linear)"/>
</g>
<path d="M860.1 193.461C862.75 192.121 871.371 187.823 881.303 177.526C901.195 180.177 920.752 186.484 920.752 186.484C884.623 164.577 835.242 151.628 780.532 151.963C780.532 151.963 801.428 181.824 859.43 194.102C859.43 194.13 859.765 193.795 860.1 193.461Z" stroke="url(#paint10_linear)" stroke-width="2"/>
<defs>
<radialGradient id="paint0_radial" cx="0" cy="0" r="1" gradientUnits="userSpaceOnUse" gradientTransform="translate(-111.667 -383.697) rotate(146.565) scale(1089.25 911.291)">
<stop stop-color="#32FFF5"/>
<stop offset="1" stop-color="#01BFE3"/>
</radialGradient>
<linearGradient id="paint1_linear" x1="1033.44" y1="-167.359" x2="588.255" y2="679.137" gradientUnits="userSpaceOnUse">
<stop stop-color="#32FFF5"/>
<stop offset="1" stop-color="#01BFE3"/>
</linearGradient>
<linearGradient id="paint2_linear" x1="707.492" y1="-1222.55" x2="-61.7606" y2="469.888" gradientUnits="userSpaceOnUse">
<stop stop-color="#32FFF5"/>
<stop offset="1" stop-color="#01BFE3"/>
</linearGradient>
<radialGradient id="paint3_radial" cx="0" cy="0" r="1" gradientUnits="userSpaceOnUse" gradientTransform="translate(50.2074 901.883) scale(1.86858 1.8691)">
<stop stop-color="#00C9FF"/>
<stop offset="1" stop-color="#7DD6E7"/>
</radialGradient>
<linearGradient id="paint4_linear" x1="756.1" y1="-1513.88" x2="-102.501" y2="337.217" gradientUnits="userSpaceOnUse">
<stop stop-color="#32FFF5"/>
<stop offset="1" stop-color="#01BFE3"/>
</linearGradient>
<linearGradient id="paint5_linear" x1="711.284" y1="45.5391" x2="711.284" y2="543.741" gradientUnits="userSpaceOnUse">
<stop stop-color="white"/>
<stop offset="1" stop-color="white" stop-opacity="0"/>
</linearGradient>
<linearGradient id="paint6_linear" x1="755.471" y1="-1660.15" x2="-171.298" y2="337.911" gradientUnits="userSpaceOnUse">
<stop stop-color="#32FFF5"/>
<stop offset="1" stop-color="#01BFE3"/>
</linearGradient>
<linearGradient id="paint7_linear" x1="707.096" y1="641" x2="707.096" y2="-59.0002" gradientUnits="userSpaceOnUse">
<stop stop-color="#5FF1FC"/>
<stop offset="1" stop-color="white" stop-opacity="0"/>
</linearGradient>
<linearGradient id="paint8_linear" x1="640.522" y1="3107.63" x2="1914.13" y2="361.81" gradientUnits="userSpaceOnUse">
<stop stop-color="#32FFF5"/>
<stop offset="1" stop-color="#01BFE3"/>
</linearGradient>
<linearGradient id="paint9_linear" x1="707" y1="-54.7097" x2="707" y2="907.263" gradientUnits="userSpaceOnUse">
<stop stop-color="#5FF1FC"/>
<stop offset="1" stop-color="white" stop-opacity="0"/>
</linearGradient>
<linearGradient id="paint10_linear" x1="850.642" y1="157.831" x2="850.642" y2="178.319" gradientUnits="userSpaceOnUse">
<stop stop-color="#5FF1FC"/>
<stop offset="1" stop-color="white" stop-opacity="0"/>
</linearGradient>
</defs>
</svg>
