<svg width="196" height="147" viewBox="0 0 196 147" fill="none" xmlns="http://www.w3.org/2000/svg">
<path d="M130.234 32.4522C130.245 39.8364 127.702 47.0007 123.03 52.7349H72.3204C67.6504 47.0007 65.1068 39.8364 65.1167 32.4522C65.1167 14.5286 79.6949 0 97.6751 0C115.657 0 130.234 14.5286 130.234 32.4522Z" fill="url(#paint0_linear)"/>
<path d="M146.513 56.7914V117.639C146.511 118.535 146.211 119.406 145.659 120.113C145.504 120.321 145.327 120.511 145.13 120.682C145.009 120.803 144.846 120.884 144.723 121.007L116.602 145.061C115.86 145.683 114.924 146.027 113.955 146.035H81.3963C80.4285 146.027 79.4926 145.683 78.7513 145.061L50.6304 121.007C50.5071 120.884 50.3442 120.803 50.223 120.682C50.0262 120.511 49.8474 120.321 49.6924 120.113C49.1419 119.406 48.8419 118.535 48.8379 117.639V56.7914C48.8379 54.5512 50.6602 52.7349 52.9077 52.7349H142.443C144.691 52.7349 146.513 54.5512 146.513 56.7914Z" fill="url(#paint1_linear)"/>
<path fill-rule="evenodd" clip-rule="evenodd" d="M194.159 130.997L183.142 120.016V93.3002C183.142 92.2246 182.712 91.1927 181.949 90.4321L161.6 70.1494L155.845 75.8856L175.002 94.9798V120.016L163.985 130.997C163.222 131.758 162.794 132.79 162.792 133.865V141.979C162.792 144.219 164.615 146.035 166.862 146.035C169.11 146.035 170.932 144.219 170.932 141.979V135.545L179.072 127.432L187.211 135.545V141.979C187.211 144.219 189.034 146.035 191.281 146.035C193.529 146.035 195.351 144.219 195.351 141.979V133.865C195.351 132.79 194.922 131.758 194.159 130.997Z" fill="#42B1CA"/>
<path fill-rule="evenodd" clip-rule="evenodd" d="M20.349 120.016V94.9798L39.5057 75.8856L33.7507 70.1494L13.4017 90.4321C12.6386 91.1927 12.2114 92.2246 12.2094 93.3002V120.016L1.19232 130.997C0.429237 131.758 0.00198723 132.79 0 133.865V141.979C0 144.219 1.82227 146.035 4.0698 146.035C6.31733 146.035 8.1396 144.219 8.1396 141.979V135.545L16.2792 127.432L24.4188 135.545V141.979C24.4188 144.219 26.2411 146.035 28.4886 146.035C30.7361 146.035 32.5584 144.219 32.5584 141.979V133.865C32.5584 132.79 32.1292 131.758 31.3661 130.997L20.349 120.016Z" fill="#42B1CA"/>
<path fill-rule="evenodd" clip-rule="evenodd" d="M83.4309 16.2261H111.919C115.292 16.2261 118.024 18.6343 118.024 21.6064C118.024 24.5767 115.292 26.9866 111.919 26.9866H83.4309C80.0606 26.9866 77.3262 24.5767 77.3262 21.6064C77.3262 18.6343 80.0606 16.2261 83.4309 16.2261Z" fill="white"/>
<path d="M130.234 32.4522C130.245 39.8364 127.702 47.0007 123.03 52.7349H72.3204C67.6504 47.0007 65.1068 39.8364 65.1167 32.4522C65.1167 14.5286 79.6949 0 97.6751 0C115.657 0 130.234 14.5286 130.234 32.4522Z" fill="url(#paint2_linear)"/>
<path d="M146.513 56.7914V117.639C146.511 118.535 146.211 119.406 145.659 120.113C145.504 120.321 145.327 120.511 145.13 120.682C145.009 120.803 144.846 120.884 144.723 121.007L116.602 145.061C115.86 145.683 114.924 146.027 113.955 146.035H81.3963C80.4285 146.027 79.4926 145.683 78.7513 145.061L50.6304 121.007C50.5071 120.884 50.3442 120.803 50.223 120.682C50.0262 120.511 49.8474 120.321 49.6924 120.113C49.1419 119.406 48.8419 118.535 48.8379 117.639V56.7914C48.8379 54.5512 50.6602 52.7349 52.9077 52.7349H142.443C144.691 52.7349 146.513 54.5512 146.513 56.7914Z" fill="url(#paint3_linear)"/>
<path fill-rule="evenodd" clip-rule="evenodd" d="M194.159 130.997L183.142 120.016V93.3002C183.142 92.2246 182.712 91.1927 181.949 90.4321L161.6 70.1494L155.845 75.8856L175.002 94.9798V120.016L163.985 130.997C163.222 131.758 162.794 132.79 162.792 133.865V141.979C162.792 144.219 164.615 146.035 166.862 146.035C169.11 146.035 170.932 144.219 170.932 141.979V135.545L179.072 127.432L187.211 135.545V141.979C187.211 144.219 189.034 146.035 191.281 146.035C193.529 146.035 195.351 144.219 195.351 141.979V133.865C195.351 132.79 194.922 131.758 194.159 130.997Z" fill="#42B1CA"/>
<path fill-rule="evenodd" clip-rule="evenodd" d="M20.349 120.016V94.9798L39.5057 75.8856L33.7507 70.1494L13.4017 90.4321C12.6386 91.1927 12.2114 92.2246 12.2094 93.3002V120.016L1.19232 130.997C0.429237 131.758 0.00198723 132.79 0 133.865V141.979C0 144.219 1.82227 146.035 4.0698 146.035C6.31733 146.035 8.1396 144.219 8.1396 141.979V135.545L16.2792 127.432L24.4188 135.545V141.979C24.4188 144.219 26.2411 146.035 28.4886 146.035C30.7361 146.035 32.5584 144.219 32.5584 141.979V133.865C32.5584 132.79 32.1292 131.758 31.3661 130.997L20.349 120.016Z" fill="#42B1CA"/>
<path fill-rule="evenodd" clip-rule="evenodd" d="M83.4309 16.2261H111.919C115.292 16.2261 118.024 18.6343 118.024 21.6064C118.024 24.5767 115.292 26.9866 111.919 26.9866H83.4309C80.0606 26.9866 77.3262 24.5767 77.3262 21.6064C77.3262 18.6343 80.0606 16.2261 83.4309 16.2261Z" fill="white"/>
<path d="M130.234 32.4522C130.245 39.8364 127.702 47.0007 123.03 52.7349H72.3204C67.6504 47.0007 65.1068 39.8364 65.1167 32.4522C65.1167 14.5286 79.6949 0 97.6751 0C115.657 0 130.234 14.5286 130.234 32.4522Z" fill="url(#paint4_linear)"/>
<path d="M146.513 56.7914V117.639C146.511 118.535 146.211 119.406 145.659 120.113C145.504 120.321 145.327 120.511 145.13 120.682C145.009 120.803 144.846 120.884 144.723 121.007L116.602 145.061C115.86 145.683 114.924 146.027 113.955 146.035H81.3963C80.4285 146.027 79.4926 145.683 78.7513 145.061L50.6304 121.007C50.5071 120.884 50.3442 120.803 50.223 120.682C50.0262 120.511 49.8474 120.321 49.6924 120.113C49.1419 119.406 48.8419 118.535 48.8379 117.639V56.7914C48.8379 54.5512 50.6602 52.7349 52.9077 52.7349H142.443C144.691 52.7349 146.513 54.5512 146.513 56.7914Z" fill="url(#paint5_linear)"/>
<path fill-rule="evenodd" clip-rule="evenodd" d="M194.159 130.997L183.142 120.016V93.3002C183.142 92.2246 182.712 91.1927 181.949 90.4321L161.6 70.1494L155.845 75.8856L175.002 94.9798V120.016L163.985 130.997C163.222 131.758 162.794 132.79 162.792 133.865V141.979C162.792 144.219 164.615 146.035 166.862 146.035C169.11 146.035 170.932 144.219 170.932 141.979V135.545L179.072 127.432L187.211 135.545V141.979C187.211 144.219 189.034 146.035 191.281 146.035C193.529 146.035 195.351 144.219 195.351 141.979V133.865C195.351 132.79 194.922 131.758 194.159 130.997Z" fill="#42B1CA"/>
<path fill-rule="evenodd" clip-rule="evenodd" d="M20.349 120.016V94.9798L39.5057 75.8856L33.7507 70.1494L13.4017 90.4321C12.6386 91.1927 12.2114 92.2246 12.2094 93.3002V120.016L1.19232 130.997C0.429237 131.758 0.00198723 132.79 0 133.865V141.979C0 144.219 1.82227 146.035 4.0698 146.035C6.31733 146.035 8.1396 144.219 8.1396 141.979V135.545L16.2792 127.432L24.4188 135.545V141.979C24.4188 144.219 26.2411 146.035 28.4886 146.035C30.7361 146.035 32.5584 144.219 32.5584 141.979V133.865C32.5584 132.79 32.1292 131.758 31.3661 130.997L20.349 120.016Z" fill="#42B1CA"/>
<path fill-rule="evenodd" clip-rule="evenodd" d="M83.4309 16.2261H111.919C115.292 16.2261 118.024 18.6343 118.024 21.6064C118.024 24.5767 115.292 26.9866 111.919 26.9866H83.4309C80.0606 26.9866 77.3262 24.5767 77.3262 21.6064C77.3262 18.6343 80.0606 16.2261 83.4309 16.2261Z" fill="white"/>
<path d="M130.234 32.4522C130.245 39.8364 127.702 47.0007 123.03 52.7349H72.3204C67.6504 47.0007 65.1068 39.8364 65.1167 32.4522C65.1167 14.5286 79.6949 0 97.6751 0C115.657 0 130.234 14.5286 130.234 32.4522Z" fill="url(#paint6_linear)"/>
<path fill-rule="evenodd" clip-rule="evenodd" d="M194.159 130.997L183.142 120.016V93.3002C183.142 92.2246 182.712 91.1927 181.949 90.4321L161.6 70.1494L155.845 75.8856L175.002 94.9798V120.016L163.985 130.997C163.222 131.758 162.794 132.79 162.792 133.865V141.979C162.792 144.219 164.615 146.035 166.862 146.035C169.11 146.035 170.932 144.219 170.932 141.979V135.545L179.072 127.432L187.211 135.545V141.979C187.211 144.219 189.034 146.035 191.281 146.035C193.529 146.035 195.351 144.219 195.351 141.979V133.865C195.351 132.79 194.922 131.758 194.159 130.997Z" fill="#55C9E3"/>
<path fill-rule="evenodd" clip-rule="evenodd" d="M20.349 120.016V94.9798L39.5057 75.8856L33.7507 70.1494L13.4017 90.4321C12.6386 91.1927 12.2114 92.2246 12.2094 93.3002V120.016L1.19232 130.997C0.429237 131.758 0.00198723 132.79 0 133.865V141.979C0 144.219 1.82227 146.035 4.0698 146.035C6.31733 146.035 8.1396 144.219 8.1396 141.979V135.545L16.2792 127.432L24.4188 135.545V141.979C24.4188 144.219 26.2411 146.035 28.4886 146.035C30.7361 146.035 32.5584 144.219 32.5584 141.979V133.865C32.5584 132.79 32.1292 131.758 31.3661 130.997L20.349 120.016Z" fill="#55C9E3"/>
<path fill-rule="evenodd" clip-rule="evenodd" d="M83.4309 16.2261H111.919C115.292 16.2261 118.024 18.6343 118.024 21.6064C118.024 24.5767 115.292 26.9866 111.919 26.9866H83.4309C80.0606 26.9866 77.3262 24.5767 77.3262 21.6064C77.3262 18.6343 80.0606 16.2261 83.4309 16.2261Z" fill="white"/>
<path d="M100.948 100.57C111.729 100.57 120.469 91.7778 120.469 80.9323C120.469 70.0867 111.729 61.2947 100.948 61.2947C90.167 61.2947 81.4272 70.0867 81.4272 80.9323C81.4272 91.7778 90.167 100.57 100.948 100.57Z" fill="#44C9E6"/>
<path d="M114.658 75.0432C116.057 76.9485 116.789 79.2002 116.789 81.5385C116.789 84.3748 115.627 86.9946 113.646 89.1164L114.852 93.6415H118.511L122.363 89.2463L123.396 82.8159L123.611 78.9837L119.802 74.6534L114.658 75.0432Z" fill="#B4E4EF"/>
<path d="M72.2584 94.1611L72.9256 96.8242C72.9256 96.8242 80.8028 113.084 98.5371 119.125C98.5371 119.125 114.671 112.197 121.838 100.44L111.945 91.7578C111.945 91.7578 107.211 95.5468 100.173 95.5468C93.135 95.5468 83.5791 91.3248 83.5791 82.6211C83.5791 73.9173 93.4794 70.7346 93.4794 70.7346L89.261 69.6953H78.4784L71.6343 86.2801L72.2584 94.1611Z" fill="#B4E4EF"/>
<path d="M131.854 75.8829C131.553 75.5798 125.356 67.5813 101.071 57.7179C99.8401 57.2353 98.6883 57.6453 98.6883 57.6453C76.4384 63.353 65.5225 75.133 65.5225 75.8829C65.5225 76.6329 68.7078 87.9039 70.7739 92.494C70.9461 92.8837 73.7009 97.7768 75.7455 100.44C74.5403 97.7768 73.2274 95.4602 73.2274 91.4764C73.2274 80.2394 81.8794 71.1026 92.7051 70.7129C92.9633 70.7129 93.2431 70.7129 93.5014 70.7346L90.9187 68.1364C90.9187 68.1364 101.314 66.3827 114.658 74.5019C114.658 74.5019 114.851 74.9132 114.658 76.1257C114.658 76.1257 120.942 78.8537 121.48 84.1583C122.018 89.4628 118.682 92.494 115.992 92.927C115.992 92.927 117.391 90.7402 115.239 89.5711C114.787 89.3112 114.249 89.203 113.711 89.2246C109.6 89.2246 109.127 93.9446 109.127 93.9446C109.084 94.1827 109.084 94.4209 109.084 94.6591C109.084 94.6591 108.395 101.566 120.619 101.436C120.619 101.436 126.818 94.3776 128.454 88.0338C129.056 85.6955 129.487 83.9418 129.766 82.6427C130.455 80.8023 131.122 78.0914 131.768 76.1211L131.854 75.8829Z" fill="#F9FAFC"/>
<path opacity="0.895424" d="M109.342 76.602C109.514 76.5154 110.073 76.234 110.719 75.5628C112.01 75.736 113.28 76.1474 113.28 76.1474C110.934 74.7184 107.727 73.874 104.176 73.8956C104.176 73.8956 105.532 75.8442 109.299 76.6453C109.299 76.6453 109.32 76.6237 109.342 76.602Z" fill="white"/>
<path fill-rule="evenodd" clip-rule="evenodd" d="M99.3557 56.5794C102.756 57.7054 119.135 63.5563 132.091 74.8164L132.392 75.0372L132.328 75.4125C132.328 75.5008 130.907 84.0673 126.129 93.6936C123.31 99.3678 119.888 104.313 115.971 108.376C111.15 113.366 105.576 117.053 99.3557 119.349L98.9898 119.481L98.6024 119.636L98.2365 119.503L97.8706 119.371C91.6507 117.075 86.0549 113.388 81.2555 108.398C77.3384 104.313 73.9164 99.3899 71.097 93.7157C66.517 84.4672 65.0418 76.233 64.9085 75.4886C64.9027 75.4564 64.8994 75.4382 64.8986 75.4346L64.834 75.0592L65.1138 74.8164C78.0702 63.5563 94.4486 57.7054 97.8491 56.5794L98.6024 56.3366L99.0328 56.469L99.3557 56.5794ZM115.023 107.449C118.854 103.474 122.19 98.6392 124.945 93.0975C129.077 84.7738 130.648 77.2892 130.971 75.5891C117.692 64.1745 100.883 58.4782 98.6016 57.7275C96.2987 58.4782 79.5114 64.1745 66.2321 75.5891C66.555 77.3113 68.1046 84.7959 72.2584 93.1416C75.0132 98.6834 78.3492 103.497 82.1801 107.471C86.9365 112.394 92.4462 115.993 98.6016 118.223C104.757 115.993 110.267 112.372 115.023 107.449Z" fill="white"/>
<path d="M48.8378 56.7914V89.2437H44.768C38.0334 89.2239 32.5805 83.7868 32.5586 77.0741V68.961C32.5805 62.2483 38.0334 56.8112 44.768 56.7914L48.8378 56.7914Z" fill="url(#paint7_linear)"/>
<path d="M162.791 68.961V77.0741C162.772 83.7868 157.317 89.2239 150.582 89.2437H146.512V56.7914H150.582C157.317 56.8112 162.772 62.2483 162.791 68.961Z" fill="url(#paint8_linear)"/>
<path d="M187.21 93.3002C187.21 97.7806 183.568 101.413 179.071 101.413C174.576 101.413 170.931 97.7806 170.931 93.3002C170.931 88.8198 174.576 85.1871 179.071 85.1871C183.568 85.1871 187.21 88.8198 187.21 93.3002Z" fill="url(#paint9_linear)"/>
<path d="M24.4193 93.3002C24.4193 97.7806 20.7768 101.413 16.2797 101.413C11.7847 101.413 8.14014 97.7806 8.14014 93.3002C8.14014 88.8198 11.7847 85.1871 16.2797 85.1871C20.7768 85.1871 24.4193 88.8198 24.4193 93.3002Z" fill="url(#paint10_linear)"/>
<defs>
<linearGradient id="paint0_linear" x1="65.1167" y1="0" x2="65.1167" y2="52.7349" gradientUnits="userSpaceOnUse">
<stop stop-color="#B0E4EF" stop-opacity="0.790025"/>
<stop offset="1" stop-color="#39B7D2"/>
</linearGradient>
<linearGradient id="paint1_linear" x1="45.4072" y1="135.689" x2="153.088" y2="197.321" gradientUnits="userSpaceOnUse">
<stop stop-color="#B0E4EF" stop-opacity="0.790025"/>
<stop offset="1" stop-color="#39B7D2"/>
</linearGradient>
<linearGradient id="paint2_linear" x1="65.1167" y1="0" x2="65.1167" y2="52.7349" gradientUnits="userSpaceOnUse">
<stop stop-color="#B0E4EF" stop-opacity="0.790025"/>
<stop offset="1" stop-color="#39B7D2"/>
</linearGradient>
<linearGradient id="paint3_linear" x1="45.4072" y1="135.689" x2="153.088" y2="197.321" gradientUnits="userSpaceOnUse">
<stop stop-color="#B0E4EF" stop-opacity="0.790025"/>
<stop offset="1" stop-color="#39B7D2"/>
</linearGradient>
<linearGradient id="paint4_linear" x1="65.1167" y1="0" x2="65.1167" y2="52.7349" gradientUnits="userSpaceOnUse">
<stop stop-color="#B0E4EF" stop-opacity="0.790025"/>
<stop offset="1" stop-color="#39B7D2"/>
</linearGradient>
<linearGradient id="paint5_linear" x1="45.4072" y1="135.689" x2="153.088" y2="197.321" gradientUnits="userSpaceOnUse">
<stop stop-color="#B0E4EF" stop-opacity="0.790025"/>
<stop offset="1" stop-color="#39B7D2"/>
</linearGradient>
<linearGradient id="paint6_linear" x1="65.1167" y1="0" x2="65.1167" y2="52.7349" gradientUnits="userSpaceOnUse">
<stop stop-color="#B0E4EF" stop-opacity="0.790025"/>
<stop offset="1" stop-color="#39B7D2"/>
</linearGradient>
<linearGradient id="paint7_linear" x1="32.5586" y1="56.7914" x2="32.5586" y2="89.2437" gradientUnits="userSpaceOnUse">
<stop stop-color="#B0E4EF" stop-opacity="0.790025"/>
<stop offset="1" stop-color="#39B7D2"/>
</linearGradient>
<linearGradient id="paint8_linear" x1="146.512" y1="56.7914" x2="146.512" y2="89.2437" gradientUnits="userSpaceOnUse">
<stop stop-color="#B0E4EF" stop-opacity="0.790025"/>
<stop offset="1" stop-color="#39B7D2"/>
</linearGradient>
<linearGradient id="paint9_linear" x1="170.931" y1="85.1871" x2="170.931" y2="101.413" gradientUnits="userSpaceOnUse">
<stop stop-color="#B0E4EF" stop-opacity="0.790025"/>
<stop offset="1" stop-color="#39B7D2"/>
</linearGradient>
<linearGradient id="paint10_linear" x1="8.14014" y1="85.1871" x2="8.14014" y2="101.413" gradientUnits="userSpaceOnUse">
<stop stop-color="#B0E4EF" stop-opacity="0.790025"/>
<stop offset="1" stop-color="#39B7D2"/>
</linearGradient>
</defs>
</svg>
