<svg width="864" height="777" viewBox="0 0 864 777" fill="none" xmlns="http://www.w3.org/2000/svg">
<g filter="url(#filter0_f)">
<path fill-rule="evenodd" clip-rule="evenodd" d="M660.5 324C704.959 324 741 287.959 741 243.5C741 199.041 704.959 163 660.5 163C616.041 163 580 199.041 580 243.5C580 287.959 616.041 324 660.5 324Z" fill="#02EEE1" fill-opacity="0.0986396"/>
</g>
<g filter="url(#filter1_f)">
<path fill-rule="evenodd" clip-rule="evenodd" d="M415.5 654C459.959 654 496 617.959 496 573.5C496 529.041 459.959 493 415.5 493C371.041 493 335 529.041 335 573.5C335 617.959 371.041 654 415.5 654Z" fill="#02EEE1" fill-opacity="0.0986396"/>
</g>
<g filter="url(#filter2_f)">
<path fill-rule="evenodd" clip-rule="evenodd" d="M202.5 303C246.407 303 282 267.407 282 223.5C282 179.593 246.407 144 202.5 144C158.593 144 123 179.593 123 223.5C123 267.407 158.593 303 202.5 303Z" fill="#FDB054" fill-opacity="0.13"/>
</g>
<rect x="551" y="387" width="92" height="92" rx="12" fill="url(#paint0_linear)"/>
<path d="M605.467 418.83C605.467 416.967 603.988 415.442 602.181 415.442H585.144L587.33 404.684C587.379 404.43 587.412 404.159 587.412 403.888C587.412 402.837 587.001 401.888 586.327 401.194L583.715 398.5L567.484 415.239C566.597 416.154 566.038 417.424 566.038 418.83V440.855C566.038 443.667 568.239 445.938 570.967 445.938H593.145C595.182 445.938 596.94 444.667 597.68 442.837L605.122 424.913C605.335 424.337 605.467 423.727 605.467 423.066V418.83Z" fill="white"/>
<path d="M587.943 447.17C587.943 449.033 589.422 450.558 591.229 450.558L608.265 450.558L606.08 461.316C606.031 461.57 605.998 461.841 605.998 462.112C605.998 463.163 606.409 464.112 607.082 464.806L609.694 467.5L625.926 450.761C626.813 449.846 627.372 448.576 627.372 447.17L627.372 425.145C627.372 422.333 625.17 420.062 622.443 420.062L600.264 420.062C598.227 420.062 596.469 421.333 595.73 423.163L588.288 441.087C588.074 441.663 587.943 442.273 587.943 442.934L587.943 447.17Z" fill="white" fill-opacity="0.6"/>
<rect x="551" y="387" width="92" height="92" rx="12" fill="#14202E"/>
<mask id="mask0" mask-type="alpha" maskUnits="userSpaceOnUse" x="551" y="387" width="92" height="92">
<path d="M617.653 387H576.511C562.625 387 551.368 398.327 551.368 412.3V453.7C551.368 467.673 562.625 479 576.511 479H617.653C631.539 479 642.796 467.673 642.796 453.7V412.3C642.796 398.327 631.539 387 617.653 387Z" fill="white"/>
</mask>
<g mask="url(#mask0)">
<path opacity="0.06" fill-rule="evenodd" clip-rule="evenodd" d="M573.783 448.212C572.614 448.212 571.666 449.166 571.666 450.341V524.908H575.901V450.341C575.901 449.166 574.953 448.212 573.783 448.212Z" fill="url(#paint1_linear)"/>
<path opacity="0.0653655" fill-rule="evenodd" clip-rule="evenodd" d="M574.095 379.593V396.984C571.117 398.185 568.276 399.557 565.619 401.1C559.047 404.915 554.267 409.373 551.284 414.125V396.734C554.267 391.978 559.047 387.519 565.619 383.705C568.276 382.162 571.117 380.789 574.095 379.593Z" fill="#51FFFF"/>
<path opacity="0.0158398" fill-rule="evenodd" clip-rule="evenodd" d="M653.052 394.816V412.207C650.327 406.391 645.027 400.897 637.153 396.33C635.287 395.247 633.33 394.25 631.3 393.332V375.936C633.33 376.854 635.287 377.851 637.153 378.935C645.027 383.506 650.327 389 653.052 394.816Z" fill="#51FFFF"/>
<path opacity="0.115327" fill-rule="evenodd" clip-rule="evenodd" d="M626.909 423.251C625.74 423.251 624.792 424.205 624.792 425.38V499.948H629.027V425.38C629.027 424.205 628.079 423.251 626.909 423.251Z" fill="url(#paint2_linear)"/>
<path opacity="0.115327" fill-rule="evenodd" clip-rule="evenodd" d="M563.49 411.949C562.32 411.949 561.372 412.903 561.372 414.078V488.646H565.608V414.078C565.608 412.903 564.66 411.949 563.49 411.949Z" fill="url(#paint3_linear)"/>
<path opacity="0.0892392" fill-rule="evenodd" clip-rule="evenodd" d="M568.646 405.087C568.324 405.087 568.065 405.348 568.065 405.671V471.339H569.227V405.671C569.227 405.348 568.966 405.087 568.646 405.087Z" fill="url(#paint4_linear)"/>
<g opacity="0.06">
<path opacity="0.06" fill-rule="evenodd" clip-rule="evenodd" d="M621.527 405.85C620.914 405.85 620.416 406.35 620.416 406.966V471.688H622.638V406.966C622.638 406.35 622.14 405.85 621.527 405.85Z" fill="url(#paint5_linear)"/>
</g>
<path fill-rule="evenodd" clip-rule="evenodd" d="M596.61 416.851C596.435 416.851 596.294 416.992 596.294 417.168V452.901H596.925V417.168C596.925 416.992 596.784 416.851 596.61 416.851Z" fill="url(#paint6_linear)"/>
<g opacity="0.03">
<path opacity="0.03" fill-rule="evenodd" clip-rule="evenodd" d="M573.849 404.414C573.528 404.414 573.268 404.676 573.268 404.998V470.666H574.43V404.998C574.43 404.676 574.17 404.414 573.849 404.414Z" fill="url(#paint7_linear)"/>
</g>
<path fill-rule="evenodd" clip-rule="evenodd" d="M581.669 433.966L574.253 442.555L575.815 443.992L583.232 435.403L581.669 433.966Z" fill="#038CAB"/>
<g opacity="0.187663" filter="url(#filter3_f)">
<path fill-rule="evenodd" clip-rule="evenodd" d="M581.669 433.966L574.253 442.555L575.815 443.992L583.232 435.403L581.669 433.966Z" fill="#038CAB"/>
</g>
<g filter="url(#filter4_d)">
<path d="M580.219 432.786C580.219 435.473 582.385 437.65 585.057 437.65C587.73 437.65 589.897 435.473 589.897 432.786C589.897 430.1 587.73 427.922 585.057 427.922C582.385 427.922 580.219 430.1 580.219 432.786Z" fill="black"/>
</g>
<path d="M580.219 432.786C580.219 435.473 582.385 437.65 585.057 437.65C587.73 437.65 589.897 435.473 589.897 432.786C589.897 430.1 587.73 427.922 585.057 427.922C582.385 427.922 580.219 430.1 580.219 432.786Z" fill="url(#paint8_linear)"/>
<path fill-rule="evenodd" clip-rule="evenodd" d="M596.702 466.134C600.968 466.134 604.812 463.265 608.361 456.032C612.999 446.581 612.831 439.736 610.898 434.568C608.965 429.399 603.669 426.582 596.668 426.582C589.667 426.582 584.369 429.399 582.437 434.568C580.504 439.736 581.405 450.762 586.89 459.407C588.844 462.487 592.437 466.134 596.702 466.134Z" fill="url(#paint9_linear)"/>
<g opacity="0.460403" filter="url(#filter5_f)">
<path fill-rule="evenodd" clip-rule="evenodd" d="M596.702 466.134C600.968 466.134 604.812 463.265 608.361 456.032C612.999 446.581 612.831 439.736 610.898 434.568C608.965 429.399 603.669 426.582 596.668 426.582C589.667 426.582 584.369 429.399 582.437 434.568C580.504 439.736 581.405 450.762 586.89 459.407C588.844 462.487 592.437 466.134 596.702 466.134Z" fill="url(#paint10_linear)"/>
</g>
<g opacity="0.460403" filter="url(#filter6_f)">
<path fill-rule="evenodd" clip-rule="evenodd" d="M596.702 466.134C600.968 466.134 604.812 463.265 608.361 456.032C612.999 446.581 612.831 439.736 610.898 434.568C608.965 429.399 603.669 426.582 596.668 426.582C589.667 426.582 584.369 429.399 582.437 434.568C580.504 439.736 581.405 450.762 586.89 459.407C588.844 462.487 592.437 466.134 596.702 466.134Z" fill="url(#paint11_linear)"/>
</g>
<g opacity="0.502069" filter="url(#filter7_f)">
<path fill-rule="evenodd" clip-rule="evenodd" d="M597.3 430.031C588.525 430.031 581.412 422.88 581.412 414.058C581.412 405.236 588.525 398.085 597.3 398.085C606.074 398.085 613.188 405.236 613.188 414.058C613.188 422.88 606.074 430.031 597.3 430.031Z" fill="url(#paint12_linear)"/>
</g>
<g filter="url(#filter8_f)">
<path fill-rule="evenodd" clip-rule="evenodd" d="M601.034 421.766C595.698 422.139 590.027 421.457 585.91 419.722C584.653 419.193 583.05 417.968 582.259 417.338C581.344 415.874 581.412 414.882 581.412 413.168C581.412 411.86 581.713 410.604 582.259 409.432C583.103 410.253 584.319 411.022 585.91 411.693C590.027 413.428 595.698 414.11 601.034 413.737C603.364 413.428 605.409 414.16 605.409 417.568C605.409 420.795 603.3 421.457 601.034 421.766Z" fill="white"/>
</g>
<path opacity="0.873628" fill-rule="evenodd" clip-rule="evenodd" d="M608.778 431.07C606.138 428.144 601.876 426.582 596.668 426.582C591.922 426.582 587.963 427.881 585.301 430.326C588.305 433.592 592.614 435.64 597.405 435.64C601.819 435.64 605.824 433.899 608.778 431.07Z" fill="#00A5CA"/>
<path fill-rule="evenodd" clip-rule="evenodd" d="M613.19 414.059C613.19 422.881 606.076 430.032 597.302 430.032C588.527 430.032 581.414 422.881 581.414 414.059C581.414 405.237 588.527 398.086 597.302 398.086C606.076 398.086 613.19 405.237 613.19 414.059Z" fill="url(#paint13_linear)"/>
<path fill-rule="evenodd" clip-rule="evenodd" d="M601.036 421.767C595.7 422.14 590.029 421.458 585.912 419.723C584.655 419.193 583.052 417.968 582.261 417.339C581.346 415.875 581.414 414.883 581.414 413.168C581.414 411.861 581.715 410.605 582.261 409.433C583.105 410.253 584.321 411.023 585.912 411.694C590.029 413.429 595.7 414.11 601.036 413.738C603.366 413.429 605.411 414.16 605.411 417.568C605.411 420.795 603.302 421.458 601.036 421.767Z" fill="white"/>
<path opacity="0.739258" fill-rule="evenodd" clip-rule="evenodd" d="M610.653 436.892C610.653 439.194 608.81 441.994 606.535 443.146C604.262 444.297 602.418 443.364 602.418 441.061C602.418 438.759 604.262 435.959 606.536 434.807C608.81 433.656 610.654 434.589 610.653 436.892Z" fill="#00A5CA"/>
<path fill-rule="evenodd" clip-rule="evenodd" d="M612.456 443.875L617.631 456.324L615.256 457.323L610.081 444.874L612.456 443.875Z" fill="#038CAB"/>
<path fill-rule="evenodd" clip-rule="evenodd" d="M615.036 441.445C615.036 444.132 612.869 446.309 610.198 446.309C607.525 446.309 605.359 444.132 605.359 441.445C605.359 438.758 607.525 436.581 610.198 436.581C612.869 436.581 615.036 438.758 615.036 441.445Z" fill="url(#paint14_linear)"/>
<path opacity="0.01" fill-rule="evenodd" clip-rule="evenodd" d="M560.377 446.726C559.142 446.119 557.94 445.483 556.783 444.811C554.238 443.333 551.944 441.728 549.919 440.014L549.919 457.797C552.315 460.393 555.378 462.78 559.037 464.9C559.477 465.155 559.925 465.405 560.377 465.65L560.377 446.726Z" fill="#51FFFF"/>
<g opacity="0.501163" filter="url(#filter9_f)">
<path fill-rule="evenodd" clip-rule="evenodd" d="M615.799 454.575C613.525 455.92 611.681 459.192 611.681 461.881C611.68 464.344 613.224 470.57 615.23 470.576L615.237 470.576C615.42 470.575 615.608 470.522 615.798 470.409C618.072 469.064 619.916 459.7 619.916 457.01C619.916 455.101 618.989 453.998 617.638 453.999C617.084 453.999 616.46 454.184 615.799 454.575Z" fill="url(#paint15_linear)"/>
</g>
<g opacity="0.309152" filter="url(#filter10_f)">
<path fill-rule="evenodd" clip-rule="evenodd" d="M576.236 441.765C577.314 443.605 577.342 446.572 576.297 448.392C575.341 450.059 571.838 453.64 570.425 452.824L570.419 452.821C570.291 452.745 570.18 452.633 570.089 452.479C569.011 450.639 571.349 443.55 572.394 441.73C573.134 440.439 574.215 440.071 575.166 440.624C575.555 440.85 575.923 441.231 576.236 441.765Z" fill="url(#paint16_linear)"/>
</g>
<g filter="url(#filter11_d)">
<path d="M615.797 454.103C613.239 455.532 611.165 459.009 611.165 461.866C611.165 464.484 612.902 471.098 615.158 471.105H615.167C615.373 471.104 615.584 471.048 615.798 470.928C618.356 469.499 620.429 459.55 620.429 456.691C620.429 454.663 619.386 453.491 617.866 453.491C617.243 453.492 616.54 453.688 615.797 454.103Z" fill="black"/>
</g>
<path d="M615.797 454.103C613.239 455.532 611.165 459.009 611.165 461.866C611.165 464.484 612.902 471.098 615.158 471.105H615.167C615.373 471.104 615.584 471.048 615.798 470.928C618.356 469.499 620.429 459.55 620.429 456.691C620.429 454.663 619.386 453.491 617.866 453.491C617.243 453.492 616.54 453.688 615.797 454.103Z" fill="url(#paint17_linear)"/>
<g opacity="0.0983305" filter="url(#filter12_f)">
<path fill-rule="evenodd" clip-rule="evenodd" d="M615.797 454.103C613.239 455.532 611.165 459.009 611.165 461.866C611.165 464.484 612.902 471.098 615.158 471.105H615.167C615.373 471.104 615.584 471.048 615.798 470.928C618.356 469.499 620.429 459.55 620.429 456.691C620.429 454.663 619.386 453.491 617.866 453.491C617.243 453.492 616.54 453.688 615.797 454.103Z" fill="url(#paint18_linear)"/>
</g>
<g filter="url(#filter13_d)">
<path d="M576.355 441.563C577.535 443.511 577.611 446.625 576.526 448.518C575.532 450.251 571.848 453.952 570.326 453.073L570.321 453.07C570.182 452.988 570.062 452.869 569.963 452.706C568.782 450.758 571.165 443.357 572.251 441.464C573.022 440.121 574.17 439.753 575.194 440.348C575.613 440.593 576.012 440.998 576.355 441.563Z" fill="black"/>
</g>
<path d="M576.355 441.563C577.535 443.511 577.611 446.625 576.526 448.518C575.532 450.251 571.848 453.952 570.326 453.073L570.321 453.07C570.182 452.988 570.062 452.869 569.963 452.706C568.782 450.758 571.165 443.357 572.251 441.464C573.022 440.121 574.17 439.753 575.194 440.348C575.613 440.593 576.012 440.998 576.355 441.563Z" fill="url(#paint19_linear)"/>
</g>
<rect x="551" y="387" width="92" height="92" rx="12" fill="url(#paint20_linear)"/>
<path d="M571.109 451.464C565.643 441.823 569.361 426.704 580.67 415.394C593.513 402.553 611.269 399.492 620.334 408.557C620.344 408.568 620.355 408.581 620.369 408.593C618.555 413.873 612.775 425.103 595.457 431.176C579.59 436.74 573.471 445.591 571.109 451.464ZM614.997 423.369C610.855 427.514 604.968 431.582 596.628 434.509C579.704 440.443 574.976 450.16 573.656 454.866C573.72 454.93 573.772 454.996 573.832 455.055C582.896 464.121 600.654 461.059 613.494 448.218C624.92 436.792 628.596 421.479 622.884 411.855C621.509 415.06 619.117 419.248 614.997 423.369Z" fill="url(#paint21_linear)"/>
<rect x="551" y="387" width="92" height="92" rx="12" fill="url(#paint22_linear)"/>
<path d="M623.377 406.671H583.036C582.179 406.671 581.484 407.366 581.484 408.223V454.771C581.478 456.454 580.92 458.09 579.894 459.426H617.171C621.453 459.421 624.924 455.95 624.929 451.667V408.223C624.929 407.366 624.234 406.671 623.377 406.671V406.671ZM614.067 447.012H592.345C591.488 447.012 590.793 446.318 590.793 445.461C590.793 444.604 591.488 443.909 592.345 443.909H614.067C614.924 443.909 615.619 444.604 615.619 445.461C615.619 446.318 614.924 447.012 614.067 447.012ZM614.067 437.703H592.345C591.488 437.703 590.793 437.009 590.793 436.152C590.793 435.295 591.488 434.6 592.345 434.6H614.067C614.924 434.6 615.619 435.295 615.619 436.152C615.619 437.009 614.924 437.703 614.067 437.703ZM614.067 428.393H592.345C591.488 428.393 590.793 427.699 590.793 426.842C590.793 425.985 591.488 425.29 592.345 425.29H614.067C614.924 425.29 615.619 425.985 615.619 426.842C615.619 427.699 614.924 428.393 614.067 428.393ZM614.067 419.084H592.345C591.488 419.084 590.793 418.39 590.793 417.533C590.793 416.676 591.488 415.981 592.345 415.981H614.067C614.924 415.981 615.619 416.676 615.619 417.533C615.619 418.39 614.924 419.084 614.067 419.084Z" fill="url(#paint23_linear)"/>
<path d="M576.829 412.878H570.623C569.766 412.878 569.071 413.572 569.071 414.429V454.771C569.071 457.341 571.155 459.426 573.726 459.426C576.297 459.426 578.381 457.341 578.381 454.771V414.429C578.381 413.572 577.686 412.878 576.829 412.878Z" fill="white" fill-opacity="0.6"/>
<g filter="url(#filter14_f)">
<path d="M623.4 406.714H583.666C582.822 406.714 582.138 407.407 582.138 408.261V454.647C582.132 456.325 581.582 457.955 580.571 459.286H617.287C621.506 459.281 624.924 455.822 624.928 451.554V408.261C624.928 407.407 624.244 406.714 623.4 406.714ZM614.231 446.915H592.836C591.992 446.915 591.307 446.224 591.307 445.37C591.307 444.516 591.992 443.823 592.836 443.823H614.231C615.075 443.823 615.759 444.516 615.759 445.37C615.759 446.224 615.075 446.915 614.231 446.915ZM614.231 437.638H592.836C591.992 437.638 591.307 436.946 591.307 436.092C591.307 435.238 591.992 434.546 592.836 434.546H614.231C615.075 434.546 615.759 435.238 615.759 436.092C615.759 436.946 615.075 437.638 614.231 437.638ZM614.231 428.361H592.836C591.992 428.361 591.307 427.669 591.307 426.815C591.307 425.961 591.992 425.269 592.836 425.269H614.231C615.075 425.269 615.759 425.961 615.759 426.815C615.759 427.669 615.075 428.361 614.231 428.361ZM614.231 419.084H592.836C591.992 419.084 591.307 418.392 591.307 417.538C591.307 416.684 591.992 415.991 592.836 415.991H614.231C615.075 415.991 615.759 416.684 615.759 417.538C615.759 418.392 615.075 419.084 614.231 419.084Z" fill="url(#paint24_linear)" fill-opacity="0.7"/>
</g>
<rect x="551" y="387" width="92" height="92" rx="12" fill="url(#paint25_linear)"/>
<g clip-path="url(#clip0)">
<path d="M618.467 461.724C618.467 462.747 617.649 463.667 616.525 463.667H614.276C613.253 463.667 612.333 462.849 612.333 461.724V458.453C612.333 457.431 613.151 456.511 614.276 456.511H616.525C617.547 456.511 618.467 457.329 618.467 458.453V461.724Z" fill="#E4D0EC"/>
<path d="M580.645 461.724C580.645 462.747 579.827 463.667 578.703 463.667H576.454C575.432 463.667 574.512 462.849 574.512 461.724V458.453C574.512 457.431 575.329 456.511 576.454 456.511H578.703C579.725 456.511 580.645 457.329 580.645 458.453V461.724Z" fill="#E4D0EC"/>
<path d="M625.622 453.853C625.622 457.022 623.169 459.578 620 459.578H574C570.831 459.578 568.378 457.022 568.378 453.853V407.853C568.378 404.684 570.831 402.333 574 402.333H620C623.169 402.333 625.622 404.684 625.622 407.751V453.853Z" fill="white"/>
<path d="M619.489 448.538C619.489 450.991 617.138 453.444 614.787 453.444H579.214C576.761 453.444 574.512 450.991 574.512 448.538V413.067C574.512 410.613 576.863 408.467 579.214 408.467H614.787C617.241 408.467 619.489 410.613 619.489 413.067V448.538Z" fill="#E4618B" fill-opacity="0.15"/>
<path d="M577.578 424.004C577.578 425.027 576.76 425.844 575.738 425.844H575.227C574.204 425.844 573.387 425.027 573.387 424.004V418.382C573.387 417.36 574.204 416.542 575.227 416.542H575.738C576.76 416.542 577.578 417.36 577.578 418.382V424.004Z" fill="#F9C1E2"/>
<path d="M577.578 444.449C577.578 445.471 576.76 446.289 575.738 446.289H575.227C574.204 446.289 573.387 445.471 573.387 444.449V438.827C573.387 437.804 574.204 436.987 575.227 436.987H575.738C576.76 436.987 577.578 437.804 577.578 438.827V444.449Z" fill="#F9C1E2"/>
<path d="M607.953 429.167C607.953 432.887 608.022 437.091 610.653 439.722L611.692 440.761C612.547 441.616 612.547 443.002 611.692 443.858C610.836 444.714 609.45 444.714 608.594 443.858L607.556 442.819C604.925 440.189 600.721 440.119 597 440.119C593.28 440.119 589.076 440.189 586.445 442.819L585.406 443.858C584.55 444.714 583.164 444.714 582.309 443.858C581.453 443.003 581.453 441.616 582.309 440.761L583.347 439.722C585.978 437.091 586.048 432.887 586.048 429.167C586.048 425.446 585.978 421.242 583.347 418.611L582.309 417.572C581.453 416.717 581.453 415.331 582.309 414.475C583.164 413.619 584.55 413.619 585.406 414.475L586.445 415.514C589.076 418.144 593.28 418.214 597 418.214C600.721 418.214 604.925 418.144 607.556 415.514L608.594 414.475C609.45 413.619 610.836 413.619 611.692 414.475C612.548 415.33 612.548 416.717 611.692 417.572L610.653 418.611C608.023 421.242 607.953 425.446 607.953 429.167ZM597 422.595C593.377 422.595 590.429 425.543 590.429 429.167C590.429 432.79 593.377 435.738 597 435.738C600.624 435.738 603.572 432.79 603.572 429.167C603.572 425.543 600.624 422.595 597 422.595ZM597 431.357C595.791 431.357 594.81 430.376 594.81 429.167C594.81 427.957 595.791 426.976 597 426.976C598.21 426.976 599.191 427.957 599.191 429.167C599.191 430.376 598.21 431.357 597 431.357Z" fill="url(#paint26_linear)"/>
</g>
<g opacity="0.3" filter="url(#filter15_f)">
<rect x="478" y="361" width="36" height="36" rx="12" fill="url(#paint27_linear)"/>
</g>
<g filter="url(#filter16_f)">
<rect x="282" y="136" width="36" height="36" rx="12" fill="url(#paint28_linear)"/>
</g>
<g opacity="0.1" filter="url(#filter17_f)">
<rect x="365" y="33" width="51" height="51" rx="12" fill="url(#paint29_linear)"/>
</g>
<g opacity="0.3" filter="url(#filter18_f)">
<rect x="167" y="382" width="72" height="72" rx="12" fill="url(#paint30_linear)"/>
</g>
<g filter="url(#filter19_f)">
<rect x="684" y="189" width="53" height="53" rx="12" fill="url(#paint31_linear)"/>
</g>
<rect x="323" y="292" width="102" height="102" rx="12" fill="url(#paint32_linear)"/>
<path d="M383.387 327.29C383.387 325.224 381.748 323.534 379.744 323.534H360.856L363.279 311.606C363.333 311.324 363.37 311.024 363.37 310.723C363.37 309.559 362.914 308.507 362.167 307.737L359.271 304.75L341.276 323.308C340.292 324.322 339.673 325.731 339.673 327.29V351.709C339.673 354.827 342.114 357.344 345.137 357.344H369.726C371.985 357.344 373.934 355.935 374.754 353.906L383.005 334.034C383.241 333.395 383.387 332.719 383.387 331.986V327.29Z" fill="white"/>
<path d="M363.959 358.71C363.959 360.776 365.598 362.466 367.601 362.466L386.49 362.466L384.067 374.394C384.012 374.676 383.976 374.976 383.976 375.277C383.976 376.441 384.432 377.493 385.178 378.263L388.074 381.25L406.07 362.692C407.054 361.678 407.673 360.269 407.673 358.71L407.673 334.291C407.673 331.173 405.232 328.656 402.209 328.656L377.619 328.656C375.361 328.656 373.412 330.065 372.592 332.094L364.341 351.966C364.104 352.605 363.959 353.281 363.959 354.014L363.959 358.71Z" fill="white" fill-opacity="0.6"/>
<rect x="323" y="292" width="102" height="102" rx="12" fill="#14202E"/>
<mask id="mask1" mask-type="alpha" maskUnits="userSpaceOnUse" x="323" y="292" width="102" height="102">
<path d="M396.898 292H351.283C335.888 292 323.407 304.558 323.407 320.05V365.95C323.407 381.442 335.888 394 351.283 394H396.898C412.293 394 424.774 381.442 424.774 365.95V320.05C424.774 304.558 412.293 292 396.898 292Z" fill="white"/>
</mask>
<g mask="url(#mask1)">
<path opacity="0.06" fill-rule="evenodd" clip-rule="evenodd" d="M348.26 359.865C346.963 359.865 345.912 360.923 345.912 362.226V444.898H350.608V362.226C350.608 360.923 349.557 359.865 348.26 359.865Z" fill="url(#paint33_linear)"/>
<path opacity="0.0653655" fill-rule="evenodd" clip-rule="evenodd" d="M348.605 283.787V303.068C345.304 304.401 342.153 305.922 339.208 307.633C331.921 311.862 326.622 316.805 323.314 322.073V302.792C326.622 297.519 331.921 292.575 339.208 288.346C342.153 286.635 345.304 285.114 348.605 283.787Z" fill="#51FFFF"/>
<path opacity="0.0158398" fill-rule="evenodd" clip-rule="evenodd" d="M436.145 300.666V319.947C433.124 313.498 427.248 307.407 418.518 302.344C416.449 301.143 414.279 300.038 412.028 299.02V279.733C414.279 280.751 416.449 281.856 418.518 283.058C427.248 288.126 433.124 294.217 436.145 300.666Z" fill="#51FFFF"/>
<path opacity="0.115327" fill-rule="evenodd" clip-rule="evenodd" d="M407.161 332.191C405.864 332.191 404.812 333.249 404.812 334.552V417.224H409.509V334.552C409.509 333.249 408.458 332.191 407.161 332.191Z" fill="url(#paint34_linear)"/>
<path opacity="0.115327" fill-rule="evenodd" clip-rule="evenodd" d="M336.848 319.661C335.551 319.661 334.5 320.718 334.5 322.022V404.694H339.196V322.022C339.196 320.718 338.145 319.661 336.848 319.661Z" fill="url(#paint35_linear)"/>
<path opacity="0.0892392" fill-rule="evenodd" clip-rule="evenodd" d="M342.564 312.052C342.208 312.052 341.92 312.342 341.92 312.7V385.506H343.208V312.7C343.208 312.342 342.919 312.052 342.564 312.052Z" fill="url(#paint36_linear)"/>
<g opacity="0.06">
<path opacity="0.06" fill-rule="evenodd" clip-rule="evenodd" d="M401.194 312.898C400.514 312.898 399.962 313.453 399.962 314.136V385.893H402.426V314.136C402.426 313.453 401.874 312.898 401.194 312.898Z" fill="url(#paint37_linear)"/>
</g>
<path fill-rule="evenodd" clip-rule="evenodd" d="M373.567 325.095C373.374 325.095 373.217 325.252 373.217 325.447V365.064H373.917V325.447C373.917 325.252 373.761 325.095 373.567 325.095Z" fill="url(#paint38_linear)"/>
<g opacity="0.03">
<path opacity="0.03" fill-rule="evenodd" clip-rule="evenodd" d="M348.333 311.307C347.977 311.307 347.689 311.597 347.689 311.954V384.76H348.977V311.954C348.977 311.597 348.688 311.307 348.333 311.307Z" fill="url(#paint39_linear)"/>
</g>
<path fill-rule="evenodd" clip-rule="evenodd" d="M357.002 344.071L348.78 353.593L350.512 355.186L358.735 345.664L357.002 344.071Z" fill="#038CAB"/>
<g opacity="0.187663" filter="url(#filter20_f)">
<path fill-rule="evenodd" clip-rule="evenodd" d="M357.002 344.071L348.78 353.593L350.512 355.186L358.735 345.664L357.002 344.071Z" fill="#038CAB"/>
</g>
<g filter="url(#filter21_d)">
<path d="M355.396 342.763C355.396 345.741 357.797 348.156 360.76 348.156C363.722 348.156 366.125 345.741 366.125 342.763C366.125 339.784 363.722 337.37 360.76 337.37C357.797 337.37 355.396 339.784 355.396 342.763Z" fill="black"/>
</g>
<path d="M355.396 342.763C355.396 345.741 357.797 348.156 360.76 348.156C363.722 348.156 366.125 345.741 366.125 342.763C366.125 339.784 363.722 337.37 360.76 337.37C357.797 337.37 355.396 339.784 355.396 342.763Z" fill="url(#paint40_linear)"/>
<path fill-rule="evenodd" clip-rule="evenodd" d="M373.67 379.735C378.4 379.735 382.662 376.554 386.597 368.535C391.739 358.056 391.552 350.468 389.409 344.738C387.266 339.007 381.394 335.884 373.632 335.884C365.871 335.884 359.997 339.007 357.854 344.738C355.711 350.468 356.71 362.692 362.791 372.277C364.958 375.691 368.941 379.735 373.67 379.735Z" fill="url(#paint41_linear)"/>
<g opacity="0.460403" filter="url(#filter22_f)">
<path fill-rule="evenodd" clip-rule="evenodd" d="M373.67 379.735C378.4 379.735 382.662 376.554 386.597 368.535C391.739 358.056 391.552 350.468 389.409 344.738C387.266 339.007 381.394 335.884 373.632 335.884C365.871 335.884 359.997 339.007 357.854 344.738C355.711 350.468 356.71 362.692 362.791 372.277C364.958 375.691 368.941 379.735 373.67 379.735Z" fill="url(#paint42_linear)"/>
</g>
<g opacity="0.460403" filter="url(#filter23_f)">
<path fill-rule="evenodd" clip-rule="evenodd" d="M373.67 379.735C378.4 379.735 382.662 376.554 386.597 368.535C391.739 358.056 391.552 350.468 389.409 344.738C387.266 339.007 381.394 335.884 373.632 335.884C365.871 335.884 359.997 339.007 357.854 344.738C355.711 350.468 356.71 362.692 362.791 372.277C364.958 375.691 368.941 379.735 373.67 379.735Z" fill="url(#paint43_linear)"/>
</g>
<g opacity="0.502069" filter="url(#filter24_f)">
<path fill-rule="evenodd" clip-rule="evenodd" d="M374.332 339.708C364.604 339.708 356.717 331.779 356.717 321.999C356.717 312.218 364.604 304.29 374.332 304.29C384.061 304.29 391.948 312.218 391.948 321.999C391.948 331.779 384.061 339.708 374.332 339.708Z" fill="url(#paint44_linear)"/>
</g>
<g filter="url(#filter25_f)">
<path fill-rule="evenodd" clip-rule="evenodd" d="M378.473 330.545C372.557 330.958 366.27 330.203 361.705 328.279C360.311 327.691 358.533 326.333 357.657 325.636C356.643 324.012 356.718 322.912 356.718 321.012C356.718 319.562 357.051 318.17 357.657 316.87C358.592 317.78 359.941 318.633 361.705 319.376C366.27 321.301 372.557 322.056 378.473 321.643C381.056 321.301 383.323 322.111 383.323 325.89C383.323 329.468 380.985 330.203 378.473 330.545Z" fill="white"/>
</g>
<path opacity="0.873628" fill-rule="evenodd" clip-rule="evenodd" d="M387.058 340.86C384.132 337.615 379.406 335.884 373.632 335.884C368.37 335.884 363.981 337.324 361.029 340.035C364.36 343.656 369.138 345.927 374.449 345.927C379.343 345.927 383.783 343.996 387.058 340.86Z" fill="#00A5CA"/>
<path fill-rule="evenodd" clip-rule="evenodd" d="M391.95 322C391.95 331.78 384.063 339.709 374.334 339.709C364.606 339.709 356.719 331.78 356.719 322C356.719 312.219 364.606 304.291 374.334 304.291C384.063 304.291 391.95 312.219 391.95 322Z" fill="url(#paint45_linear)"/>
<path fill-rule="evenodd" clip-rule="evenodd" d="M378.475 330.546C372.559 330.959 366.271 330.203 361.707 328.279C360.313 327.692 358.535 326.334 357.659 325.636C356.645 324.013 356.719 322.913 356.719 321.012C356.719 319.563 357.053 318.171 357.659 316.871C358.594 317.781 359.943 318.634 361.707 319.377C366.271 321.301 372.559 322.057 378.475 321.644C381.058 321.301 383.325 322.112 383.325 325.891C383.325 329.468 380.987 330.203 378.475 330.546Z" fill="white"/>
<path opacity="0.739258" fill-rule="evenodd" clip-rule="evenodd" d="M389.138 347.315C389.137 349.868 387.093 352.972 384.572 354.249C382.051 355.525 380.007 354.491 380.007 351.938C380.007 349.385 382.052 346.281 384.573 345.004C387.094 343.728 389.138 344.762 389.138 347.315Z" fill="#00A5CA"/>
<path fill-rule="evenodd" clip-rule="evenodd" d="M391.136 355.057L396.873 368.859L394.24 369.967L388.502 356.164L391.136 355.057Z" fill="#038CAB"/>
<path fill-rule="evenodd" clip-rule="evenodd" d="M393.996 352.363C393.996 355.341 391.594 357.756 388.632 357.756C385.669 357.756 383.268 355.341 383.268 352.363C383.268 349.384 385.669 346.97 388.632 346.97C391.594 346.97 393.996 349.384 393.996 352.363Z" fill="url(#paint46_linear)"/>
<path opacity="0.01" fill-rule="evenodd" clip-rule="evenodd" d="M333.396 358.217C332.027 357.544 330.695 356.839 329.412 356.095C326.59 354.455 324.046 352.677 321.801 350.777L321.801 370.492C324.458 373.37 327.854 376.016 331.911 378.367C332.398 378.65 332.895 378.927 333.396 379.199L333.396 358.217Z" fill="#51FFFF"/>
<g opacity="0.501163" filter="url(#filter26_f)">
<path fill-rule="evenodd" clip-rule="evenodd" d="M394.842 366.919C392.321 368.411 390.276 372.038 390.276 375.02C390.276 377.751 391.988 384.653 394.211 384.66L394.22 384.66C394.423 384.659 394.63 384.6 394.841 384.475C397.363 382.984 399.407 372.602 399.407 369.619C399.407 367.504 398.379 366.281 396.881 366.281C396.267 366.281 395.575 366.486 394.842 366.919Z" fill="url(#paint47_linear)"/>
</g>
<g opacity="0.309152" filter="url(#filter27_f)">
<path fill-rule="evenodd" clip-rule="evenodd" d="M350.98 352.718C352.175 354.757 352.205 358.047 351.047 360.065C349.987 361.913 346.103 365.883 344.536 364.978L344.53 364.975C344.388 364.891 344.265 364.767 344.165 364.596C342.969 362.556 345.561 354.697 346.719 352.678C347.541 351.247 348.739 350.84 349.793 351.452C350.225 351.703 350.632 352.125 350.98 352.718Z" fill="url(#paint48_linear)"/>
</g>
<g filter="url(#filter28_d)">
<path d="M394.841 366.397C392.004 367.982 389.705 371.836 389.705 375.004C389.705 377.906 391.631 385.239 394.132 385.246H394.142C394.37 385.246 394.604 385.183 394.841 385.051C397.678 383.466 399.976 372.436 399.976 369.266C399.976 367.018 398.82 365.719 397.134 365.719C396.444 365.719 395.665 365.937 394.841 366.397Z" fill="black"/>
</g>
<path d="M394.841 366.397C392.004 367.982 389.705 371.836 389.705 375.004C389.705 377.906 391.631 385.239 394.132 385.246H394.142C394.37 385.246 394.604 385.183 394.841 385.051C397.678 383.466 399.976 372.436 399.976 369.266C399.976 367.018 398.82 365.719 397.134 365.719C396.444 365.719 395.665 365.937 394.841 366.397Z" fill="url(#paint49_linear)"/>
<g opacity="0.0983305" filter="url(#filter29_f)">
<path fill-rule="evenodd" clip-rule="evenodd" d="M394.841 366.397C392.004 367.982 389.705 371.836 389.705 375.004C389.705 377.906 391.631 385.239 394.132 385.246H394.142C394.37 385.246 394.604 385.183 394.841 385.051C397.678 383.466 399.976 372.436 399.976 369.266C399.976 367.018 398.82 365.719 397.134 365.719C396.444 365.719 395.665 365.937 394.841 366.397Z" fill="url(#paint50_linear)"/>
</g>
<g filter="url(#filter30_d)">
<path d="M351.111 352.494C352.419 354.654 352.504 358.106 351.3 360.204C350.198 362.126 346.115 366.229 344.427 365.254L344.421 365.251C344.267 365.161 344.134 365.028 344.024 364.847C342.715 362.688 345.357 354.483 346.561 352.384C347.415 350.895 348.688 350.487 349.823 351.147C350.288 351.417 350.73 351.867 351.111 352.494Z" fill="black"/>
</g>
<path d="M351.111 352.494C352.419 354.654 352.504 358.106 351.3 360.204C350.198 362.126 346.115 366.229 344.427 365.254L344.421 365.251C344.267 365.161 344.134 365.028 344.024 364.847C342.715 362.688 345.357 354.483 346.561 352.384C347.415 350.895 348.688 350.487 349.823 351.147C350.288 351.417 350.73 351.867 351.111 352.494Z" fill="url(#paint51_linear)"/>
</g>
<rect x="525" y="163" width="72" height="72" rx="12" fill="url(#paint52_linear)"/>
<path d="M567.626 187.911C567.626 186.452 566.469 185.259 565.055 185.259H551.722L553.432 176.84C553.47 176.641 553.496 176.429 553.496 176.216C553.496 175.394 553.175 174.652 552.648 174.108L550.603 172L537.901 185.1C537.206 185.816 536.769 186.81 536.769 187.911V205.147C536.769 207.348 538.492 209.125 540.626 209.125H557.983C559.578 209.125 560.953 208.131 561.532 206.699L567.356 192.671C567.523 192.22 567.626 191.743 567.626 191.225V187.911Z" fill="white"/>
<path d="M553.912 210.089C553.912 211.548 555.069 212.741 556.483 212.741L569.816 212.741L568.106 221.16C568.068 221.359 568.042 221.571 568.042 221.784C568.042 222.606 568.363 223.348 568.891 223.892L570.935 226L583.638 212.9C584.332 212.184 584.769 211.19 584.769 210.089L584.769 192.853C584.769 190.652 583.046 188.875 580.912 188.875L563.555 188.875C561.96 188.875 560.585 189.869 560.006 191.301L554.182 205.329C554.015 205.78 553.912 206.257 553.912 206.775L553.912 210.089Z" fill="white" fill-opacity="0.6"/>
<rect x="525" y="163" width="72" height="72" rx="12" fill="#14202E"/>
<mask id="mask2" mask-type="alpha" maskUnits="userSpaceOnUse" x="525" y="163" width="72" height="72">
<path d="M577.163 163H544.965C534.097 163 525.288 171.865 525.288 182.8V215.2C525.288 226.135 534.097 235 544.965 235H577.163C588.031 235 596.84 226.135 596.84 215.2V182.8C596.84 171.865 588.031 163 577.163 163Z" fill="white"/>
</mask>
<g mask="url(#mask2)">
<path opacity="0.06" fill-rule="evenodd" clip-rule="evenodd" d="M542.831 210.905C541.915 210.905 541.173 211.651 541.173 212.571V270.928H544.488V212.571C544.488 211.651 543.746 210.905 542.831 210.905Z" fill="url(#paint53_linear)"/>
<path opacity="0.0653655" fill-rule="evenodd" clip-rule="evenodd" d="M543.074 157.203V170.813C540.744 171.753 538.52 172.827 536.441 174.035C531.298 177.02 527.557 180.509 525.222 184.228V170.618C527.557 166.896 531.298 163.406 536.441 160.421C538.52 159.213 540.744 158.139 543.074 157.203Z" fill="#51FFFF"/>
<path opacity="0.0158398" fill-rule="evenodd" clip-rule="evenodd" d="M604.868 169.117V182.727C602.735 178.175 598.587 173.876 592.424 170.302C590.964 169.454 589.432 168.674 587.844 167.955V154.341C589.432 155.06 590.964 155.84 592.424 156.688C598.587 160.265 602.735 164.565 604.868 169.117Z" fill="#51FFFF"/>
<path opacity="0.115327" fill-rule="evenodd" clip-rule="evenodd" d="M584.408 191.37C583.492 191.37 582.75 192.117 582.75 193.037V251.394H586.065V193.037C586.065 192.117 585.323 191.37 584.408 191.37Z" fill="url(#paint54_linear)"/>
<path opacity="0.115327" fill-rule="evenodd" clip-rule="evenodd" d="M534.775 182.525C533.86 182.525 533.118 183.272 533.118 184.192V242.549H536.433V184.192C536.433 183.272 535.691 182.525 534.775 182.525Z" fill="url(#paint55_linear)"/>
<path opacity="0.0892392" fill-rule="evenodd" clip-rule="evenodd" d="M538.81 177.155C538.559 177.155 538.355 177.359 538.355 177.612V229.004H539.265V177.612C539.265 177.359 539.061 177.155 538.81 177.155Z" fill="url(#paint56_linear)"/>
<g opacity="0.06">
<path opacity="0.06" fill-rule="evenodd" clip-rule="evenodd" d="M580.196 177.752C579.716 177.752 579.326 178.143 579.326 178.626V229.278H581.065V178.626C581.065 178.143 580.676 177.752 580.196 177.752Z" fill="url(#paint57_linear)"/>
</g>
<path fill-rule="evenodd" clip-rule="evenodd" d="M560.695 186.361C560.558 186.361 560.448 186.472 560.448 186.61V214.574H560.942V186.61C560.942 186.472 560.831 186.361 560.695 186.361Z" fill="url(#paint58_linear)"/>
<g opacity="0.03">
<path opacity="0.03" fill-rule="evenodd" clip-rule="evenodd" d="M542.882 176.629C542.631 176.629 542.428 176.833 542.428 177.086V228.478H543.337V177.086C543.337 176.833 543.133 176.629 542.882 176.629Z" fill="url(#paint59_linear)"/>
</g>
<path fill-rule="evenodd" clip-rule="evenodd" d="M549.002 199.756L543.198 206.478L544.421 207.602L550.225 200.88L549.002 199.756Z" fill="#038CAB"/>
<g opacity="0.187663" filter="url(#filter31_f)">
<path fill-rule="evenodd" clip-rule="evenodd" d="M549.002 199.756L543.198 206.478L544.421 207.602L550.225 200.88L549.002 199.756Z" fill="#038CAB"/>
</g>
<g filter="url(#filter32_d)">
<path d="M547.868 198.833C547.868 200.935 549.563 202.639 551.654 202.639C553.745 202.639 555.441 200.935 555.441 198.833C555.441 196.73 553.745 195.026 551.654 195.026C549.563 195.026 547.868 196.73 547.868 198.833Z" fill="black"/>
</g>
<path d="M547.868 198.833C547.868 200.935 549.563 202.639 551.654 202.639C553.745 202.639 555.441 200.935 555.441 198.833C555.441 196.73 553.745 195.026 551.654 195.026C549.563 195.026 547.868 196.73 547.868 198.833Z" fill="url(#paint60_linear)"/>
<path fill-rule="evenodd" clip-rule="evenodd" d="M560.768 224.931C564.106 224.931 567.114 222.686 569.892 217.025C573.521 209.628 573.39 204.272 571.877 200.227C570.365 196.182 566.219 193.977 560.741 193.977C555.262 193.977 551.116 196.182 549.603 200.227C548.09 204.272 548.796 212.901 553.088 219.666C554.618 222.077 557.429 224.931 560.768 224.931Z" fill="url(#paint61_linear)"/>
<g opacity="0.460403" filter="url(#filter33_f)">
<path fill-rule="evenodd" clip-rule="evenodd" d="M560.768 224.931C564.106 224.931 567.114 222.686 569.892 217.025C573.522 209.628 573.39 204.272 571.877 200.227C570.365 196.182 566.219 193.977 560.741 193.977C555.262 193.977 551.116 196.182 549.603 200.227C548.09 204.272 548.796 212.901 553.088 219.666C554.618 222.077 557.429 224.931 560.768 224.931Z" fill="url(#paint62_linear)"/>
</g>
<g opacity="0.460403" filter="url(#filter34_f)">
<path fill-rule="evenodd" clip-rule="evenodd" d="M560.768 224.931C564.106 224.931 567.114 222.686 569.892 217.025C573.522 209.628 573.39 204.272 571.877 200.227C570.365 196.182 566.219 193.977 560.741 193.977C555.262 193.977 551.116 196.182 549.603 200.227C548.09 204.272 548.796 212.901 553.088 219.666C554.618 222.077 557.429 224.931 560.768 224.931Z" fill="url(#paint63_linear)"/>
</g>
<g opacity="0.502069" filter="url(#filter35_f)">
<path fill-rule="evenodd" clip-rule="evenodd" d="M561.235 196.677C554.368 196.677 548.801 191.08 548.801 184.176C548.801 177.272 554.368 171.675 561.235 171.675C568.102 171.675 573.67 177.272 573.67 184.176C573.67 191.08 568.102 196.677 561.235 196.677Z" fill="url(#paint64_linear)"/>
</g>
<g filter="url(#filter36_f)">
<path fill-rule="evenodd" clip-rule="evenodd" d="M564.157 190.208C559.981 190.5 555.543 189.967 552.321 188.609C551.337 188.194 550.082 187.235 549.464 186.743C548.748 185.597 548.801 184.821 548.801 183.479C548.801 182.456 549.036 181.473 549.464 180.555C550.124 181.198 551.076 181.8 552.321 182.325C555.543 183.683 559.981 184.216 564.157 183.925C565.981 183.683 567.581 184.255 567.581 186.922C567.581 189.448 565.931 189.967 564.157 190.208Z" fill="white"/>
</g>
<path opacity="0.873628" fill-rule="evenodd" clip-rule="evenodd" d="M570.218 197.49C568.152 195.199 564.816 193.977 560.741 193.977C557.026 193.977 553.927 194.993 551.844 196.907C554.195 199.463 557.568 201.066 561.317 201.066C564.772 201.066 567.906 199.704 570.218 197.49Z" fill="#00A5CA"/>
<path fill-rule="evenodd" clip-rule="evenodd" d="M573.671 184.177C573.671 191.08 568.104 196.677 561.236 196.677C554.369 196.677 548.802 191.08 548.802 184.177C548.802 177.272 554.369 171.676 561.236 171.676C568.104 171.676 573.671 177.272 573.671 184.177Z" fill="url(#paint65_linear)"/>
<path fill-rule="evenodd" clip-rule="evenodd" d="M564.159 190.209C559.983 190.5 555.545 189.967 552.323 188.609C551.339 188.195 550.084 187.236 549.465 186.743C548.749 185.597 548.802 184.821 548.802 183.479C548.802 182.456 549.038 181.473 549.465 180.556C550.125 181.198 551.077 181.8 552.323 182.325C555.545 183.683 559.983 184.217 564.159 183.925C565.982 183.683 567.582 184.256 567.582 186.923C567.582 189.448 565.932 189.967 564.159 190.209Z" fill="white"/>
<path opacity="0.739258" fill-rule="evenodd" clip-rule="evenodd" d="M571.685 202.046C571.685 203.848 570.242 206.039 568.463 206.94C566.683 207.841 565.24 207.111 565.24 205.309C565.24 203.507 566.684 201.316 568.463 200.414C570.243 199.514 571.686 200.244 571.685 202.046Z" fill="#00A5CA"/>
<path fill-rule="evenodd" clip-rule="evenodd" d="M573.096 207.511L577.146 217.253L575.287 218.035L571.237 208.292L573.096 207.511Z" fill="#038CAB"/>
<path fill-rule="evenodd" clip-rule="evenodd" d="M575.115 205.609C575.115 207.712 573.419 209.416 571.329 209.416C569.237 209.416 567.542 207.712 567.542 205.609C567.542 203.506 569.237 201.802 571.329 201.802C573.419 201.802 575.115 203.506 575.115 205.609Z" fill="url(#paint66_linear)"/>
<path opacity="0.01" fill-rule="evenodd" clip-rule="evenodd" d="M532.338 209.742C531.372 209.267 530.432 208.769 529.526 208.243C527.534 207.086 525.739 205.831 524.154 204.49L524.154 218.406C526.029 220.438 528.426 222.306 531.29 223.965C531.634 224.165 531.984 224.36 532.338 224.552L532.338 209.742Z" fill="#51FFFF"/>
<g opacity="0.501163" filter="url(#filter37_f)">
<path fill-rule="evenodd" clip-rule="evenodd" d="M575.712 215.884C573.932 216.937 572.489 219.498 572.489 221.603C572.489 223.53 573.697 228.402 575.267 228.407L575.273 228.407C575.416 228.406 575.563 228.365 575.711 228.277C577.491 227.224 578.934 219.896 578.934 217.79C578.935 216.297 578.209 215.434 577.151 215.434C576.718 215.434 576.229 215.579 575.712 215.884Z" fill="url(#paint67_linear)"/>
</g>
<g opacity="0.309152" filter="url(#filter38_f)">
<path fill-rule="evenodd" clip-rule="evenodd" d="M544.75 205.86C545.594 207.3 545.615 209.622 544.798 211.046C544.05 212.35 541.308 215.153 540.202 214.514L540.198 214.512C540.097 214.453 540.01 214.365 539.94 214.244C539.096 212.805 540.926 207.257 541.743 205.832C542.323 204.821 543.169 204.534 543.913 204.966C544.217 205.144 544.505 205.441 544.75 205.86Z" fill="url(#paint68_linear)"/>
</g>
<g filter="url(#filter39_d)">
<path d="M575.711 215.515C573.709 216.634 572.086 219.355 572.086 221.591C572.086 223.639 573.446 228.816 575.211 228.821H575.218C575.379 228.82 575.544 228.776 575.711 228.683C577.714 227.565 579.336 219.778 579.336 217.541C579.336 215.954 578.52 215.037 577.33 215.037C576.843 215.037 576.293 215.191 575.711 215.515Z" fill="black"/>
</g>
<path d="M575.711 215.515C573.709 216.634 572.086 219.355 572.086 221.591C572.086 223.639 573.446 228.816 575.211 228.821H575.218C575.379 228.82 575.544 228.776 575.711 228.683C577.714 227.565 579.336 219.778 579.336 217.541C579.336 215.954 578.52 215.037 577.33 215.037C576.843 215.037 576.293 215.191 575.711 215.515Z" fill="url(#paint69_linear)"/>
<g opacity="0.0983305" filter="url(#filter40_f)">
<path fill-rule="evenodd" clip-rule="evenodd" d="M575.711 215.515C573.709 216.634 572.086 219.355 572.086 221.591C572.086 223.639 573.446 228.816 575.211 228.821H575.218C575.379 228.82 575.544 228.776 575.711 228.683C577.714 227.565 579.336 219.778 579.336 217.541C579.336 215.954 578.52 215.037 577.33 215.037C576.843 215.037 576.293 215.191 575.711 215.515Z" fill="url(#paint70_linear)"/>
</g>
<g filter="url(#filter41_d)">
<path d="M544.843 205.702C545.767 207.226 545.826 209.663 544.977 211.144C544.199 212.501 541.316 215.397 540.125 214.709L540.121 214.706C540.012 214.643 539.918 214.549 539.841 214.422C538.917 212.897 540.782 207.106 541.632 205.624C542.234 204.573 543.133 204.285 543.934 204.751C544.262 204.942 544.574 205.259 544.843 205.702Z" fill="black"/>
</g>
<path d="M544.843 205.702C545.767 207.226 545.826 209.663 544.977 211.144C544.199 212.501 541.316 215.397 540.125 214.709L540.121 214.706C540.012 214.643 539.918 214.549 539.841 214.422C538.917 212.897 540.782 207.106 541.632 205.624C542.234 204.573 543.133 204.285 543.934 204.751C544.262 204.942 544.574 205.259 544.843 205.702Z" fill="url(#paint71_linear)"/>
</g>
<rect x="525" y="163" width="72" height="72" rx="12" fill="url(#paint72_linear)"/>
<path d="M560.376 172.285C560.772 172.104 561.228 172.104 561.624 172.285L585.91 183.386C587.376 184.056 586.898 186.25 585.287 186.25H536.713C535.102 186.25 534.624 184.056 536.09 183.386L560.376 172.285Z" fill="white"/>
<rect x="543" y="191.286" width="5.14286" height="30.8571" rx="2.57143" fill="url(#paint73_linear)" fill-opacity="0.8"/>
<rect x="543" y="191.286" width="5.14286" height="30.8571" rx="2.57143" fill="url(#paint74_linear)" fill-opacity="0.8"/>
<rect x="558.429" y="191.286" width="5.14286" height="30.8571" rx="2.57143" fill="url(#paint75_linear)" fill-opacity="0.8"/>
<rect x="558.429" y="191.286" width="5.14286" height="30.8571" rx="2.57143" fill="url(#paint76_linear)" fill-opacity="0.8"/>
<rect x="573.857" y="191.286" width="5.14286" height="30.8571" rx="2.57143" fill="url(#paint77_linear)" fill-opacity="0.8"/>
<rect x="573.857" y="191.286" width="5.14286" height="30.8571" rx="2.57143" fill="url(#paint78_linear)" fill-opacity="0.8"/>
<rect x="537.414" y="222.143" width="5.14286" height="47.1724" rx="2.57143" transform="rotate(-90 537.414 222.143)" fill="url(#paint79_linear)" fill-opacity="0.9"/>
<rect x="323" y="497" width="72" height="72" rx="12" fill="url(#paint80_linear)"/>
<path d="M338.737 547.45C334.46 539.905 337.37 528.073 346.22 519.222C356.271 509.172 370.167 506.777 377.262 513.871C377.269 513.88 377.278 513.89 377.289 513.899C375.869 518.031 371.346 526.82 357.792 531.572C345.375 535.927 340.586 542.854 338.737 547.45ZM373.084 525.463C369.843 528.707 365.236 531.891 358.709 534.181C345.464 538.825 341.764 546.43 340.731 550.112C340.781 550.162 340.821 550.215 340.868 550.261C347.962 557.355 361.86 554.959 371.909 544.91C380.851 535.968 383.727 523.984 379.257 516.451C378.181 518.96 376.309 522.237 373.084 525.463Z" fill="url(#paint81_linear)"/>
<rect x="721" y="316" width="38" height="38" rx="6" fill="url(#paint82_linear)"/>
<path d="M750.895 324.125H734.232C733.878 324.125 733.591 324.412 733.591 324.766V343.992C733.589 344.688 733.358 345.363 732.934 345.915H748.331C750.1 345.913 751.534 344.48 751.536 342.71V324.766C751.536 324.412 751.248 324.125 750.895 324.125V324.125ZM747.049 340.788H738.077C737.723 340.788 737.436 340.501 737.436 340.147C737.436 339.793 737.723 339.506 738.077 339.506H747.049C747.403 339.506 747.69 339.793 747.69 340.147C747.69 340.501 747.403 340.788 747.049 340.788ZM747.049 336.943H738.077C737.723 336.943 737.436 336.656 737.436 336.302C737.436 335.948 737.723 335.661 738.077 335.661H747.049C747.403 335.661 747.69 335.948 747.69 336.302C747.69 336.656 747.403 336.943 747.049 336.943ZM747.049 333.097H738.077C737.723 333.097 737.436 332.811 737.436 332.457C737.436 332.103 737.723 331.816 738.077 331.816H747.049C747.403 331.816 747.69 332.103 747.69 332.457C747.69 332.811 747.403 333.097 747.049 333.097ZM747.049 329.252H738.077C737.723 329.252 737.436 328.965 737.436 328.611C737.436 328.258 737.723 327.97 738.077 327.97H747.049C747.403 327.97 747.69 328.258 747.69 328.611C747.69 328.965 747.403 329.252 747.049 329.252Z" fill="url(#paint83_linear)"/>
<path d="M731.669 326.689H729.105C728.751 326.689 728.464 326.976 728.464 327.33V343.993C728.464 345.054 729.325 345.915 730.387 345.915C731.449 345.915 732.31 345.054 732.31 343.993V327.33C732.31 326.976 732.023 326.689 731.669 326.689Z" fill="white" fill-opacity="0.6"/>
<circle opacity="0.3" cx="494" cy="329" r="261.25" stroke="url(#paint84_linear)" stroke-width="1.5"/>
<circle opacity="0.15" cx="494" cy="329" r="295.25" stroke="url(#paint85_linear)" stroke-width="1.5"/>
<circle opacity="0.04" cx="494" cy="329" r="328.25" stroke="url(#paint86_linear)" stroke-width="1.5"/>
<rect x="234" y="163" width="72" height="72" rx="12" fill="url(#paint87_linear)"/>
<path d="M291.317 209.015V188.985C291.317 187.567 290.56 186.256 289.332 185.547L271.985 175.532C270.757 174.823 269.243 174.823 268.015 175.532L250.669 185.547C249.44 186.256 248.684 187.567 248.684 188.985V209.015C248.684 210.433 249.44 211.744 250.669 212.453L268.015 222.468C269.243 223.178 270.757 223.178 271.985 222.468L289.331 212.453C290.56 211.744 291.317 210.433 291.317 209.015Z" fill="#7D80F2"/>
<path d="M289.332 212.453C289.948 212.097 290.445 211.59 290.788 210.993L270 198.991V223C270.685 223 271.371 222.823 271.985 222.468L289.332 212.453Z" fill="#7370DB"/>
<path d="M270 199L290.785 187C290.442 186.406 289.946 185.902 289.332 185.547L271.985 175.532C270.757 174.823 269.243 174.823 268.015 175.532L250.668 185.547C250.054 185.902 249.558 186.406 249.215 187L270 199Z" fill="url(#paint88_linear)"/>
<path d="M250.668 212.453C250.052 212.097 249.554 211.59 249.211 210.994L270 198.991V223C269.314 223 268.629 222.823 268.015 222.468L250.668 212.453Z" fill="#8BB3EA" fill-opacity="0.1"/>
<rect x="583" y="37" width="38" height="38" rx="4" fill="url(#paint89_linear)"/>
<path d="M605.619 50.1473C605.619 49.3776 605.008 48.7478 604.262 48.7478H597.225L598.127 44.3042C598.148 44.1993 598.161 44.0873 598.161 43.9754C598.161 43.5415 597.992 43.1496 597.713 42.8627L596.634 41.75L589.93 48.6638C589.564 49.0417 589.333 49.5665 589.333 50.1473V59.2444C589.333 60.4061 590.242 61.3438 591.369 61.3438H600.529C601.371 61.3438 602.097 60.8189 602.402 60.0632L605.476 52.6596C605.564 52.4216 605.619 52.1697 605.619 51.8968V50.1473Z" fill="white"/>
<path d="M598.381 61.8527C598.381 62.6224 598.992 63.2522 599.738 63.2522L606.775 63.2522L605.873 67.6958C605.852 67.8007 605.839 67.9127 605.839 68.0246C605.839 68.4585 606.008 68.8504 606.287 69.1373L607.366 70.25L614.07 63.3362C614.436 62.9583 614.667 62.4335 614.667 61.8527L614.667 52.7556C614.667 51.5939 613.758 50.6562 612.631 50.6562L603.471 50.6562C602.629 50.6562 601.903 51.1811 601.598 51.9368L598.524 59.3404C598.436 59.5784 598.381 59.8303 598.381 60.1032L598.381 61.8527Z" fill="white" fill-opacity="0.6"/>
<g filter="url(#filter42_f)">
<rect x="675" y="533" width="36" height="36" rx="4" fill="url(#paint90_linear)"/>
</g>
<g filter="url(#filter43_f)">
<path d="M701.379 538.823H684.895C684.288 538.823 683.796 539.316 683.796 539.922V561.901C683.796 562.508 684.288 563 684.895 563H701.379C701.986 563 702.478 562.508 702.478 561.901V539.922C702.478 539.316 701.986 538.823 701.379 538.823ZM700.28 541.021V544.317H685.993V541.021H700.28ZM685.993 560.802V546.515H700.28V560.801H685.993V560.802Z" fill="url(#paint91_linear)"/>
<path d="M689.923 547.487H687.642C687.338 547.487 687.092 547.734 687.092 548.037V550.32C687.092 550.623 687.339 550.869 687.642 550.869H689.923C690.226 550.869 690.472 550.622 690.472 550.32V548.037C690.473 547.733 690.228 547.487 689.923 547.487Z" fill="white" fill-opacity="0.9"/>
<path d="M694.276 547.487H691.996C691.692 547.487 691.446 547.734 691.446 548.037V550.32C691.446 550.623 691.692 550.869 691.996 550.869H694.276C694.58 550.869 694.826 550.622 694.826 550.32V548.037C694.826 547.733 694.58 547.487 694.276 547.487Z" fill="white" fill-opacity="0.8"/>
<path d="M698.631 547.487H696.35C696.046 547.487 695.801 547.734 695.801 548.037V550.32C695.801 550.623 696.047 550.869 696.35 550.869H698.631C698.934 550.869 699.18 550.622 699.18 550.32V548.037C699.18 547.733 698.934 547.487 698.631 547.487Z" fill="white" fill-opacity="0.7"/>
<path d="M689.923 551.968H687.642C687.338 551.968 687.092 552.214 687.092 552.517V554.8C687.092 555.103 687.339 555.349 687.642 555.349H689.923C690.226 555.349 690.472 555.103 690.472 554.8V552.517C690.473 552.213 690.228 551.968 689.923 551.968Z" fill="white" fill-opacity="0.8"/>
<path d="M694.276 551.968H691.996C691.692 551.968 691.446 552.214 691.446 552.517V554.8C691.446 555.103 691.692 555.349 691.996 555.349H694.276C694.58 555.349 694.826 555.103 694.826 554.8V552.517C694.826 552.213 694.58 551.968 694.276 551.968Z" fill="white" fill-opacity="0.7"/>
<path d="M689.923 556.449H687.642C687.338 556.449 687.092 556.695 687.092 556.998V559.28C687.092 559.585 687.339 559.83 687.642 559.83H689.923C690.226 559.83 690.472 559.583 690.472 559.28V556.998C690.473 556.694 690.228 556.449 689.923 556.449Z" fill="white" fill-opacity="0.6"/>
<path d="M694.276 556.449H691.996C691.692 556.449 691.446 556.695 691.446 556.998V559.28C691.446 559.585 691.692 559.83 691.996 559.83H694.276C694.58 559.83 694.826 559.583 694.826 559.28V556.998C694.826 556.694 694.58 556.449 694.276 556.449Z" fill="white" fill-opacity="0.4"/>
<path d="M698.631 551.968H696.35C696.046 551.968 695.801 552.214 695.801 552.517V559.28C695.801 559.585 696.047 559.83 696.35 559.83H698.631C698.934 559.83 699.18 559.583 699.18 559.28V552.517C699.18 552.213 698.934 551.968 698.631 551.968Z" fill="white" fill-opacity="0.2"/>
</g>
<defs>
<filter id="filter0_f" x="457.677" y="40.6773" width="405.645" height="405.645" filterUnits="userSpaceOnUse" color-interpolation-filters="sRGB">
<feFlood flood-opacity="0" result="BackgroundImageFix"/>
<feBlend mode="normal" in="SourceGraphic" in2="BackgroundImageFix" result="shape"/>
<feGaussianBlur stdDeviation="61.1613" result="effect1_foregroundBlur"/>
</filter>
<filter id="filter1_f" x="212.677" y="370.677" width="405.645" height="405.645" filterUnits="userSpaceOnUse" color-interpolation-filters="sRGB">
<feFlood flood-opacity="0" result="BackgroundImageFix"/>
<feBlend mode="normal" in="SourceGraphic" in2="BackgroundImageFix" result="shape"/>
<feGaussianBlur stdDeviation="61.1613" result="effect1_foregroundBlur"/>
</filter>
<filter id="filter2_f" x="0.677315" y="21.6773" width="403.645" height="403.645" filterUnits="userSpaceOnUse" color-interpolation-filters="sRGB">
<feFlood flood-opacity="0" result="BackgroundImageFix"/>
<feBlend mode="normal" in="SourceGraphic" in2="BackgroundImageFix" result="shape"/>
<feGaussianBlur stdDeviation="61.1613" result="effect1_foregroundBlur"/>
</filter>
<filter id="filter3_f" x="561.652" y="421.366" width="34.1794" height="35.2255" filterUnits="userSpaceOnUse" color-interpolation-filters="sRGB">
<feFlood flood-opacity="0" result="BackgroundImageFix"/>
<feBlend mode="normal" in="SourceGraphic" in2="BackgroundImageFix" result="shape"/>
<feGaussianBlur stdDeviation="6.3" result="effect1_foregroundBlur"/>
</filter>
<filter id="filter4_d" x="575.219" y="425.922" width="19.6773" height="19.7283" filterUnits="userSpaceOnUse" color-interpolation-filters="sRGB">
<feFlood flood-opacity="0" result="BackgroundImageFix"/>
<feColorMatrix in="SourceAlpha" type="matrix" values="0 0 0 0 0 0 0 0 0 0 0 0 0 0 0 0 0 0 127 0"/>
<feOffset dy="3"/>
<feGaussianBlur stdDeviation="2.5"/>
<feColorMatrix type="matrix" values="0 0 0 0 0.0784314 0 0 0 0 0.12549 0 0 0 0 0.180392 0 0 0 0.457687 0"/>
<feBlend mode="normal" in2="BackgroundImageFix" result="effect1_dropShadow"/>
<feBlend mode="normal" in="SourceGraphic" in2="effect1_dropShadow" result="shape"/>
</filter>
<filter id="filter5_f" x="573.408" y="418.482" width="46.868" height="55.7522" filterUnits="userSpaceOnUse" color-interpolation-filters="sRGB">
<feFlood flood-opacity="0" result="BackgroundImageFix"/>
<feBlend mode="normal" in="SourceGraphic" in2="BackgroundImageFix" result="shape"/>
<feGaussianBlur stdDeviation="4.05" result="effect1_foregroundBlur"/>
</filter>
<filter id="filter6_f" x="573.408" y="418.482" width="46.868" height="55.7522" filterUnits="userSpaceOnUse" color-interpolation-filters="sRGB">
<feFlood flood-opacity="0" result="BackgroundImageFix"/>
<feBlend mode="normal" in="SourceGraphic" in2="BackgroundImageFix" result="shape"/>
<feGaussianBlur stdDeviation="4.05" result="effect1_foregroundBlur"/>
</filter>
<filter id="filter7_f" x="576.912" y="393.585" width="40.7768" height="40.9461" filterUnits="userSpaceOnUse" color-interpolation-filters="sRGB">
<feFlood flood-opacity="0" result="BackgroundImageFix"/>
<feBlend mode="normal" in="SourceGraphic" in2="BackgroundImageFix" result="shape"/>
<feGaussianBlur stdDeviation="2.25" result="effect1_foregroundBlur"/>
</filter>
<filter id="filter8_f" x="578.711" y="406.732" width="29.3982" height="17.833" filterUnits="userSpaceOnUse" color-interpolation-filters="sRGB">
<feFlood flood-opacity="0" result="BackgroundImageFix"/>
<feBlend mode="normal" in="SourceGraphic" in2="BackgroundImageFix" result="shape"/>
<feGaussianBlur stdDeviation="1.35" result="effect1_foregroundBlur"/>
</filter>
<filter id="filter9_f" x="605.381" y="447.699" width="20.8356" height="29.1771" filterUnits="userSpaceOnUse" color-interpolation-filters="sRGB">
<feFlood flood-opacity="0" result="BackgroundImageFix"/>
<feBlend mode="normal" in="SourceGraphic" in2="BackgroundImageFix" result="shape"/>
<feGaussianBlur stdDeviation="3.15" result="effect1_foregroundBlur"/>
</filter>
<filter id="filter10_f" x="566.212" y="436.775" width="14.4512" height="19.768" filterUnits="userSpaceOnUse" color-interpolation-filters="sRGB">
<feFlood flood-opacity="0" result="BackgroundImageFix"/>
<feBlend mode="normal" in="SourceGraphic" in2="BackgroundImageFix" result="shape"/>
<feGaussianBlur stdDeviation="1.8" result="effect1_foregroundBlur"/>
</filter>
<filter id="filter11_d" x="600.165" y="445.491" width="31.2643" height="39.6134" filterUnits="userSpaceOnUse" color-interpolation-filters="sRGB">
<feFlood flood-opacity="0" result="BackgroundImageFix"/>
<feColorMatrix in="SourceAlpha" type="matrix" values="0 0 0 0 0 0 0 0 0 0 0 0 0 0 0 0 0 0 127 0"/>
<feOffset dy="3"/>
<feGaussianBlur stdDeviation="5.5"/>
<feColorMatrix type="matrix" values="0 0 0 0 0.0784314 0 0 0 0 0.12549 0 0 0 0 0.180392 0 0 0 0.967412 0"/>
<feBlend mode="normal" in2="BackgroundImageFix" result="effect1_dropShadow"/>
<feBlend mode="normal" in="SourceGraphic" in2="effect1_dropShadow" result="shape"/>
</filter>
<filter id="filter12_f" x="603.165" y="445.491" width="25.2643" height="33.6134" filterUnits="userSpaceOnUse" color-interpolation-filters="sRGB">
<feFlood flood-opacity="0" result="BackgroundImageFix"/>
<feBlend mode="normal" in="SourceGraphic" in2="BackgroundImageFix" result="shape"/>
<feGaussianBlur stdDeviation="4" result="effect1_foregroundBlur"/>
</filter>
<filter id="filter13_d" x="565.643" y="438.073" width="15.6498" height="21.1328" filterUnits="userSpaceOnUse" color-interpolation-filters="sRGB">
<feFlood flood-opacity="0" result="BackgroundImageFix"/>
<feColorMatrix in="SourceAlpha" type="matrix" values="0 0 0 0 0 0 0 0 0 0 0 0 0 0 0 0 0 0 127 0"/>
<feOffset dy="2"/>
<feGaussianBlur stdDeviation="2"/>
<feColorMatrix type="matrix" values="0 0 0 0 0.0784314 0 0 0 0 0.12549 0 0 0 0 0.180392 0 0 0 1 0"/>
<feBlend mode="normal" in2="BackgroundImageFix" result="effect1_dropShadow"/>
<feBlend mode="normal" in="SourceGraphic" in2="effect1_dropShadow" result="shape"/>
</filter>
<filter id="filter14_f" x="578.571" y="404.714" width="48.3571" height="56.5714" filterUnits="userSpaceOnUse" color-interpolation-filters="sRGB">
<feFlood flood-opacity="0" result="BackgroundImageFix"/>
<feBlend mode="normal" in="SourceGraphic" in2="BackgroundImageFix" result="shape"/>
<feGaussianBlur stdDeviation="1" result="effect1_foregroundBlur"/>
</filter>
<filter id="filter15_f" x="458" y="341" width="76" height="76" filterUnits="userSpaceOnUse" color-interpolation-filters="sRGB">
<feFlood flood-opacity="0" result="BackgroundImageFix"/>
<feBlend mode="normal" in="SourceGraphic" in2="BackgroundImageFix" result="shape"/>
<feGaussianBlur stdDeviation="10" result="effect1_foregroundBlur"/>
</filter>
<filter id="filter16_f" x="248" y="102" width="104" height="104" filterUnits="userSpaceOnUse" color-interpolation-filters="sRGB">
<feFlood flood-opacity="0" result="BackgroundImageFix"/>
<feBlend mode="normal" in="SourceGraphic" in2="BackgroundImageFix" result="shape"/>
<feGaussianBlur stdDeviation="17" result="effect1_foregroundBlur"/>
</filter>
<filter id="filter17_f" x="345" y="13" width="91" height="91" filterUnits="userSpaceOnUse" color-interpolation-filters="sRGB">
<feFlood flood-opacity="0" result="BackgroundImageFix"/>
<feBlend mode="normal" in="SourceGraphic" in2="BackgroundImageFix" result="shape"/>
<feGaussianBlur stdDeviation="10" result="effect1_foregroundBlur"/>
</filter>
<filter id="filter18_f" x="137" y="352" width="132" height="132" filterUnits="userSpaceOnUse" color-interpolation-filters="sRGB">
<feFlood flood-opacity="0" result="BackgroundImageFix"/>
<feBlend mode="normal" in="SourceGraphic" in2="BackgroundImageFix" result="shape"/>
<feGaussianBlur stdDeviation="15" result="effect1_foregroundBlur"/>
</filter>
<filter id="filter19_f" x="634" y="139" width="153" height="153" filterUnits="userSpaceOnUse" color-interpolation-filters="sRGB">
<feFlood flood-opacity="0" result="BackgroundImageFix"/>
<feBlend mode="normal" in="SourceGraphic" in2="BackgroundImageFix" result="shape"/>
<feGaussianBlur stdDeviation="25" result="effect1_foregroundBlur"/>
</filter>
<filter id="filter20_f" x="336.18" y="331.471" width="35.1554" height="36.3153" filterUnits="userSpaceOnUse" color-interpolation-filters="sRGB">
<feFlood flood-opacity="0" result="BackgroundImageFix"/>
<feBlend mode="normal" in="SourceGraphic" in2="BackgroundImageFix" result="shape"/>
<feGaussianBlur stdDeviation="6.3" result="effect1_foregroundBlur"/>
</filter>
<filter id="filter21_d" x="350.396" y="335.37" width="20.7292" height="20.7857" filterUnits="userSpaceOnUse" color-interpolation-filters="sRGB">
<feFlood flood-opacity="0" result="BackgroundImageFix"/>
<feColorMatrix in="SourceAlpha" type="matrix" values="0 0 0 0 0 0 0 0 0 0 0 0 0 0 0 0 0 0 127 0"/>
<feOffset dy="3"/>
<feGaussianBlur stdDeviation="2.5"/>
<feColorMatrix type="matrix" values="0 0 0 0 0.0784314 0 0 0 0 0.12549 0 0 0 0 0.180392 0 0 0 0.457687 0"/>
<feBlend mode="normal" in2="BackgroundImageFix" result="effect1_dropShadow"/>
<feBlend mode="normal" in="SourceGraphic" in2="effect1_dropShadow" result="shape"/>
</filter>
<filter id="filter22_f" x="348.725" y="327.784" width="50.2015" height="60.0514" filterUnits="userSpaceOnUse" color-interpolation-filters="sRGB">
<feFlood flood-opacity="0" result="BackgroundImageFix"/>
<feBlend mode="normal" in="SourceGraphic" in2="BackgroundImageFix" result="shape"/>
<feGaussianBlur stdDeviation="4.05" result="effect1_foregroundBlur"/>
</filter>
<filter id="filter23_f" x="348.725" y="327.784" width="50.2015" height="60.0514" filterUnits="userSpaceOnUse" color-interpolation-filters="sRGB">
<feFlood flood-opacity="0" result="BackgroundImageFix"/>
<feBlend mode="normal" in="SourceGraphic" in2="BackgroundImageFix" result="shape"/>
<feGaussianBlur stdDeviation="4.05" result="effect1_foregroundBlur"/>
</filter>
<filter id="filter24_f" x="352.217" y="299.79" width="44.2308" height="44.4185" filterUnits="userSpaceOnUse" color-interpolation-filters="sRGB">
<feFlood flood-opacity="0" result="BackgroundImageFix"/>
<feBlend mode="normal" in="SourceGraphic" in2="BackgroundImageFix" result="shape"/>
<feGaussianBlur stdDeviation="2.25" result="effect1_foregroundBlur"/>
</filter>
<filter id="filter25_f" x="354.016" y="314.17" width="32.0067" height="19.1844" filterUnits="userSpaceOnUse" color-interpolation-filters="sRGB">
<feFlood flood-opacity="0" result="BackgroundImageFix"/>
<feBlend mode="normal" in="SourceGraphic" in2="BackgroundImageFix" result="shape"/>
<feGaussianBlur stdDeviation="1.35" result="effect1_foregroundBlur"/>
</filter>
<filter id="filter26_f" x="383.976" y="359.981" width="21.7308" height="30.979" filterUnits="userSpaceOnUse" color-interpolation-filters="sRGB">
<feFlood flood-opacity="0" result="BackgroundImageFix"/>
<feBlend mode="normal" in="SourceGraphic" in2="BackgroundImageFix" result="shape"/>
<feGaussianBlur stdDeviation="3.15" result="effect1_foregroundBlur"/>
</filter>
<filter id="filter27_f" x="340.257" y="347.576" width="15.2394" height="21.1341" filterUnits="userSpaceOnUse" color-interpolation-filters="sRGB">
<feFlood flood-opacity="0" result="BackgroundImageFix"/>
<feBlend mode="normal" in="SourceGraphic" in2="BackgroundImageFix" result="shape"/>
<feGaussianBlur stdDeviation="1.8" result="effect1_foregroundBlur"/>
</filter>
<filter id="filter28_d" x="378.705" y="357.719" width="32.2713" height="41.5279" filterUnits="userSpaceOnUse" color-interpolation-filters="sRGB">
<feFlood flood-opacity="0" result="BackgroundImageFix"/>
<feColorMatrix in="SourceAlpha" type="matrix" values="0 0 0 0 0 0 0 0 0 0 0 0 0 0 0 0 0 0 127 0"/>
<feOffset dy="3"/>
<feGaussianBlur stdDeviation="5.5"/>
<feColorMatrix type="matrix" values="0 0 0 0 0.0784314 0 0 0 0 0.12549 0 0 0 0 0.180392 0 0 0 0.967412 0"/>
<feBlend mode="normal" in2="BackgroundImageFix" result="effect1_dropShadow"/>
<feBlend mode="normal" in="SourceGraphic" in2="effect1_dropShadow" result="shape"/>
</filter>
<filter id="filter29_f" x="381.705" y="357.719" width="26.2713" height="35.5279" filterUnits="userSpaceOnUse" color-interpolation-filters="sRGB">
<feFlood flood-opacity="0" result="BackgroundImageFix"/>
<feBlend mode="normal" in="SourceGraphic" in2="BackgroundImageFix" result="shape"/>
<feGaussianBlur stdDeviation="4" result="effect1_foregroundBlur"/>
</filter>
<filter id="filter30_d" x="339.669" y="348.842" width="16.4813" height="22.5603" filterUnits="userSpaceOnUse" color-interpolation-filters="sRGB">
<feFlood flood-opacity="0" result="BackgroundImageFix"/>
<feColorMatrix in="SourceAlpha" type="matrix" values="0 0 0 0 0 0 0 0 0 0 0 0 0 0 0 0 0 0 127 0"/>
<feOffset dy="2"/>
<feGaussianBlur stdDeviation="2"/>
<feColorMatrix type="matrix" values="0 0 0 0 0.0784314 0 0 0 0 0.12549 0 0 0 0 0.180392 0 0 0 1 0"/>
<feBlend mode="normal" in2="BackgroundImageFix" result="effect1_dropShadow"/>
<feBlend mode="normal" in="SourceGraphic" in2="effect1_dropShadow" result="shape"/>
</filter>
<filter id="filter31_f" x="530.598" y="187.156" width="32.2274" height="33.0461" filterUnits="userSpaceOnUse" color-interpolation-filters="sRGB">
<feFlood flood-opacity="0" result="BackgroundImageFix"/>
<feBlend mode="normal" in="SourceGraphic" in2="BackgroundImageFix" result="shape"/>
<feGaussianBlur stdDeviation="6.3" result="effect1_foregroundBlur"/>
</filter>
<filter id="filter32_d" x="542.868" y="193.026" width="17.5736" height="17.6135" filterUnits="userSpaceOnUse" color-interpolation-filters="sRGB">
<feFlood flood-opacity="0" result="BackgroundImageFix"/>
<feColorMatrix in="SourceAlpha" type="matrix" values="0 0 0 0 0 0 0 0 0 0 0 0 0 0 0 0 0 0 127 0"/>
<feOffset dy="3"/>
<feGaussianBlur stdDeviation="2.5"/>
<feColorMatrix type="matrix" values="0 0 0 0 0.0784314 0 0 0 0 0.12549 0 0 0 0 0.180392 0 0 0 0.457687 0"/>
<feBlend mode="normal" in2="BackgroundImageFix" result="effect1_dropShadow"/>
<feBlend mode="normal" in="SourceGraphic" in2="effect1_dropShadow" result="shape"/>
</filter>
<filter id="filter33_f" x="540.776" y="185.877" width="40.2011" height="47.1539" filterUnits="userSpaceOnUse" color-interpolation-filters="sRGB">
<feFlood flood-opacity="0" result="BackgroundImageFix"/>
<feBlend mode="normal" in="SourceGraphic" in2="BackgroundImageFix" result="shape"/>
<feGaussianBlur stdDeviation="4.05" result="effect1_foregroundBlur"/>
</filter>
<filter id="filter34_f" x="540.776" y="185.877" width="40.2011" height="47.1539" filterUnits="userSpaceOnUse" color-interpolation-filters="sRGB">
<feFlood flood-opacity="0" result="BackgroundImageFix"/>
<feBlend mode="normal" in="SourceGraphic" in2="BackgroundImageFix" result="shape"/>
<feGaussianBlur stdDeviation="4.05" result="effect1_foregroundBlur"/>
</filter>
<filter id="filter35_f" x="544.301" y="167.175" width="33.8688" height="34.0013" filterUnits="userSpaceOnUse" color-interpolation-filters="sRGB">
<feFlood flood-opacity="0" result="BackgroundImageFix"/>
<feBlend mode="normal" in="SourceGraphic" in2="BackgroundImageFix" result="shape"/>
<feGaussianBlur stdDeviation="2.25" result="effect1_foregroundBlur"/>
</filter>
<filter id="filter36_f" x="546.1" y="177.855" width="24.1812" height="15.1302" filterUnits="userSpaceOnUse" color-interpolation-filters="sRGB">
<feFlood flood-opacity="0" result="BackgroundImageFix"/>
<feBlend mode="normal" in="SourceGraphic" in2="BackgroundImageFix" result="shape"/>
<feGaussianBlur stdDeviation="1.35" result="effect1_foregroundBlur"/>
</filter>
<filter id="filter37_f" x="566.189" y="209.134" width="19.0452" height="25.5734" filterUnits="userSpaceOnUse" color-interpolation-filters="sRGB">
<feFlood flood-opacity="0" result="BackgroundImageFix"/>
<feBlend mode="normal" in="SourceGraphic" in2="BackgroundImageFix" result="shape"/>
<feGaussianBlur stdDeviation="3.15" result="effect1_foregroundBlur"/>
</filter>
<filter id="filter38_f" x="536.122" y="201.172" width="12.8748" height="17.0358" filterUnits="userSpaceOnUse" color-interpolation-filters="sRGB">
<feFlood flood-opacity="0" result="BackgroundImageFix"/>
<feBlend mode="normal" in="SourceGraphic" in2="BackgroundImageFix" result="shape"/>
<feGaussianBlur stdDeviation="1.8" result="effect1_foregroundBlur"/>
</filter>
<filter id="filter39_d" x="561.086" y="207.037" width="29.2503" height="35.7844" filterUnits="userSpaceOnUse" color-interpolation-filters="sRGB">
<feFlood flood-opacity="0" result="BackgroundImageFix"/>
<feColorMatrix in="SourceAlpha" type="matrix" values="0 0 0 0 0 0 0 0 0 0 0 0 0 0 0 0 0 0 127 0"/>
<feOffset dy="3"/>
<feGaussianBlur stdDeviation="5.5"/>
<feColorMatrix type="matrix" values="0 0 0 0 0.0784314 0 0 0 0 0.12549 0 0 0 0 0.180392 0 0 0 0.967412 0"/>
<feBlend mode="normal" in2="BackgroundImageFix" result="effect1_dropShadow"/>
<feBlend mode="normal" in="SourceGraphic" in2="effect1_dropShadow" result="shape"/>
</filter>
<filter id="filter40_f" x="564.086" y="207.037" width="23.2503" height="29.7844" filterUnits="userSpaceOnUse" color-interpolation-filters="sRGB">
<feFlood flood-opacity="0" result="BackgroundImageFix"/>
<feBlend mode="normal" in="SourceGraphic" in2="BackgroundImageFix" result="shape"/>
<feGaussianBlur stdDeviation="4" result="effect1_foregroundBlur"/>
</filter>
<filter id="filter41_d" x="535.59" y="202.535" width="13.9868" height="18.2778" filterUnits="userSpaceOnUse" color-interpolation-filters="sRGB">
<feFlood flood-opacity="0" result="BackgroundImageFix"/>
<feColorMatrix in="SourceAlpha" type="matrix" values="0 0 0 0 0 0 0 0 0 0 0 0 0 0 0 0 0 0 127 0"/>
<feOffset dy="2"/>
<feGaussianBlur stdDeviation="2"/>
<feColorMatrix type="matrix" values="0 0 0 0 0.0784314 0 0 0 0 0.12549 0 0 0 0 0.180392 0 0 0 1 0"/>
<feBlend mode="normal" in2="BackgroundImageFix" result="effect1_dropShadow"/>
<feBlend mode="normal" in="SourceGraphic" in2="effect1_dropShadow" result="shape"/>
</filter>
<filter id="filter42_f" x="671" y="529" width="44" height="44" filterUnits="userSpaceOnUse" color-interpolation-filters="sRGB">
<feFlood flood-opacity="0" result="BackgroundImageFix"/>
<feBlend mode="normal" in="SourceGraphic" in2="BackgroundImageFix" result="shape"/>
<feGaussianBlur stdDeviation="2" result="effect1_foregroundBlur"/>
</filter>
<filter id="filter43_f" x="679.796" y="534.823" width="26.6818" height="32.1766" filterUnits="userSpaceOnUse" color-interpolation-filters="sRGB">
<feFlood flood-opacity="0" result="BackgroundImageFix"/>
<feBlend mode="normal" in="SourceGraphic" in2="BackgroundImageFix" result="shape"/>
<feGaussianBlur stdDeviation="2" result="effect1_foregroundBlur"/>
</filter>
<linearGradient id="paint0_linear" x1="551" y1="371.659" x2="628.214" y2="479" gradientUnits="userSpaceOnUse">
<stop stop-color="#A8ED2F"/>
<stop offset="1" stop-color="#68DFB1"/>
</linearGradient>
<linearGradient id="paint1_linear" x1="573.784" y1="484.527" x2="573.784" y2="443.279" gradientUnits="userSpaceOnUse">
<stop stop-color="#52CAE4" stop-opacity="0"/>
<stop offset="1" stop-color="#48D8F4"/>
</linearGradient>
<linearGradient id="paint2_linear" x1="626.91" y1="459.566" x2="626.91" y2="418.318" gradientUnits="userSpaceOnUse">
<stop stop-color="#52CAE4" stop-opacity="0"/>
<stop offset="1" stop-color="#48D8F4"/>
</linearGradient>
<linearGradient id="paint3_linear" x1="563.49" y1="448.264" x2="563.49" y2="407.016" gradientUnits="userSpaceOnUse">
<stop stop-color="#52CAE4" stop-opacity="0"/>
<stop offset="1" stop-color="#48D8F4"/>
</linearGradient>
<linearGradient id="paint4_linear" x1="568.646" y1="471.145" x2="568.646" y2="400.826" gradientUnits="userSpaceOnUse">
<stop stop-opacity="0"/>
<stop offset="1" stop-color="#48D8F4"/>
</linearGradient>
<linearGradient id="paint5_linear" x1="621.527" y1="471.496" x2="621.527" y2="401.615" gradientUnits="userSpaceOnUse">
<stop stop-opacity="0"/>
<stop offset="1" stop-color="#48D8F4"/>
</linearGradient>
<linearGradient id="paint6_linear" x1="596.61" y1="452.795" x2="596.61" y2="414.532" gradientUnits="userSpaceOnUse">
<stop/>
<stop offset="1" stop-color="#48D8F4"/>
</linearGradient>
<linearGradient id="paint7_linear" x1="573.849" y1="470.472" x2="573.849" y2="400.153" gradientUnits="userSpaceOnUse">
<stop stop-opacity="0"/>
<stop offset="1" stop-color="#48D8F4"/>
</linearGradient>
<linearGradient id="paint8_linear" x1="585.058" y1="433.37" x2="566.731" y2="442.003" gradientUnits="userSpaceOnUse">
<stop stop-color="#007A94"/>
<stop offset="1" stop-color="#35F7EE"/>
</linearGradient>
<linearGradient id="paint9_linear" x1="598.979" y1="441.379" x2="598.979" y2="466.134" gradientUnits="userSpaceOnUse">
<stop stop-color="#06BCE5"/>
<stop offset="1" stop-color="#35F7EE"/>
</linearGradient>
<linearGradient id="paint10_linear" x1="598.979" y1="441.379" x2="598.979" y2="466.134" gradientUnits="userSpaceOnUse">
<stop stop-color="#06BCE5"/>
<stop offset="1" stop-color="#35F7EE"/>
</linearGradient>
<linearGradient id="paint11_linear" x1="598.979" y1="456.523" x2="598.979" y2="462.839" gradientUnits="userSpaceOnUse">
<stop stop-color="#06BCE5" stop-opacity="0"/>
<stop offset="1" stop-color="#35F7EE"/>
</linearGradient>
<linearGradient id="paint12_linear" x1="595.208" y1="430.002" x2="607.538" y2="378.532" gradientUnits="userSpaceOnUse">
<stop stop-color="#06BCE5"/>
<stop offset="1" stop-color="#35F7EE"/>
</linearGradient>
<linearGradient id="paint13_linear" x1="595.21" y1="430.003" x2="600.448" y2="400.298" gradientUnits="userSpaceOnUse">
<stop stop-color="#06BCE5"/>
<stop offset="1" stop-color="#35F7EE"/>
</linearGradient>
<linearGradient id="paint14_linear" x1="607.605" y1="443.47" x2="618.995" y2="434.095" gradientUnits="userSpaceOnUse">
<stop stop-color="#06BCE5"/>
<stop offset="1" stop-color="#A9FFFB"/>
</linearGradient>
<linearGradient id="paint15_linear" x1="615.247" y1="465.743" x2="623.039" y2="452.903" gradientUnits="userSpaceOnUse">
<stop stop-color="#06BCE5"/>
<stop offset="1" stop-color="#A9FFFB"/>
</linearGradient>
<linearGradient id="paint16_linear" x1="572.32" y1="449.566" x2="573.769" y2="439.032" gradientUnits="userSpaceOnUse">
<stop stop-color="#039CBE"/>
<stop offset="1" stop-color="#A9FFFB"/>
</linearGradient>
<linearGradient id="paint17_linear" x1="615.464" y1="471.105" x2="620.04" y2="454.378" gradientUnits="userSpaceOnUse">
<stop stop-color="#06BCE5"/>
<stop offset="1" stop-color="#A9FFFB"/>
</linearGradient>
<linearGradient id="paint18_linear" x1="615.464" y1="471.105" x2="620.04" y2="454.378" gradientUnits="userSpaceOnUse">
<stop stop-color="#06BCE5"/>
<stop offset="1" stop-color="#A9FFFB"/>
</linearGradient>
<linearGradient id="paint19_linear" x1="572.331" y1="449.703" x2="573.702" y2="438.716" gradientUnits="userSpaceOnUse">
<stop stop-color="#039CBE"/>
<stop offset="1" stop-color="#A9FFFB"/>
</linearGradient>
<linearGradient id="paint20_linear" x1="551" y1="387" x2="630.679" y2="479" gradientUnits="userSpaceOnUse">
<stop stop-color="#90F7EC"/>
<stop offset="1" stop-color="#32CCBC"/>
</linearGradient>
<linearGradient id="paint21_linear" x1="602.75" y1="421.5" x2="611.786" y2="447.786" gradientUnits="userSpaceOnUse">
<stop stop-color="white"/>
<stop offset="1" stop-color="white" stop-opacity="0.67"/>
</linearGradient>
<linearGradient id="paint22_linear" x1="643" y1="488.036" x2="551" y2="369.75" gradientUnits="userSpaceOnUse">
<stop stop-color="#5961F9"/>
<stop offset="1" stop-color="#EE9AE5"/>
</linearGradient>
<linearGradient id="paint23_linear" x1="606.036" y1="443.678" x2="601.929" y2="515.143" gradientUnits="userSpaceOnUse">
<stop stop-color="white"/>
<stop offset="1" stop-color="white" stop-opacity="0"/>
</linearGradient>
<linearGradient id="paint24_linear" x1="590.139" y1="409.213" x2="607.423" y2="437.685" gradientUnits="userSpaceOnUse">
<stop stop-color="white"/>
<stop offset="1" stop-color="white" stop-opacity="0"/>
</linearGradient>
<linearGradient id="paint25_linear" x1="551" y1="387" x2="680.056" y2="532.028" gradientUnits="userSpaceOnUse">
<stop stop-color="#F5A623"/>
<stop offset="1" stop-color="#D012FF"/>
</linearGradient>
<linearGradient id="paint26_linear" x1="581.667" y1="413.833" x2="624.686" y2="462.176" gradientUnits="userSpaceOnUse">
<stop stop-color="#F5A623"/>
<stop offset="1" stop-color="#D012FF"/>
</linearGradient>
<linearGradient id="paint27_linear" x1="478" y1="361" x2="528.5" y2="417.75" gradientUnits="userSpaceOnUse">
<stop stop-color="#F5A623"/>
<stop offset="1" stop-color="#D012FF"/>
</linearGradient>
<linearGradient id="paint28_linear" x1="282" y1="136" x2="282" y2="172" gradientUnits="userSpaceOnUse">
<stop stop-color="#FAD961"/>
<stop offset="1" stop-color="#FF8946"/>
</linearGradient>
<linearGradient id="paint29_linear" x1="365" y1="33" x2="436.542" y2="113.396" gradientUnits="userSpaceOnUse">
<stop stop-color="#4DF523"/>
<stop offset="1" stop-color="#12E3FF"/>
</linearGradient>
<linearGradient id="paint30_linear" x1="167" y1="382" x2="229.357" y2="454" gradientUnits="userSpaceOnUse">
<stop stop-color="#90F7EC"/>
<stop offset="1" stop-color="#32CCBC"/>
</linearGradient>
<linearGradient id="paint31_linear" x1="686.839" y1="195.152" x2="733.688" y2="248.625" gradientUnits="userSpaceOnUse">
<stop stop-color="#65AAFF"/>
<stop offset="1" stop-color="#5D21D4"/>
</linearGradient>
<linearGradient id="paint32_linear" x1="323" y1="274.991" x2="408.607" y2="394" gradientUnits="userSpaceOnUse">
<stop stop-color="#A8ED2F"/>
<stop offset="1" stop-color="#68DFB1"/>
</linearGradient>
<linearGradient id="paint33_linear" x1="348.26" y1="400.128" x2="348.26" y2="354.396" gradientUnits="userSpaceOnUse">
<stop stop-color="#52CAE4" stop-opacity="0"/>
<stop offset="1" stop-color="#48D8F4"/>
</linearGradient>
<linearGradient id="paint34_linear" x1="407.161" y1="372.454" x2="407.161" y2="326.722" gradientUnits="userSpaceOnUse">
<stop stop-color="#52CAE4" stop-opacity="0"/>
<stop offset="1" stop-color="#48D8F4"/>
</linearGradient>
<linearGradient id="paint35_linear" x1="336.848" y1="359.923" x2="336.848" y2="314.192" gradientUnits="userSpaceOnUse">
<stop stop-color="#52CAE4" stop-opacity="0"/>
<stop offset="1" stop-color="#48D8F4"/>
</linearGradient>
<linearGradient id="paint36_linear" x1="342.564" y1="385.29" x2="342.564" y2="307.328" gradientUnits="userSpaceOnUse">
<stop stop-opacity="0"/>
<stop offset="1" stop-color="#48D8F4"/>
</linearGradient>
<linearGradient id="paint37_linear" x1="401.194" y1="385.68" x2="401.194" y2="308.203" gradientUnits="userSpaceOnUse">
<stop stop-opacity="0"/>
<stop offset="1" stop-color="#48D8F4"/>
</linearGradient>
<linearGradient id="paint38_linear" x1="373.567" y1="364.947" x2="373.567" y2="322.524" gradientUnits="userSpaceOnUse">
<stop/>
<stop offset="1" stop-color="#48D8F4"/>
</linearGradient>
<linearGradient id="paint39_linear" x1="348.333" y1="384.545" x2="348.333" y2="306.583" gradientUnits="userSpaceOnUse">
<stop stop-opacity="0"/>
<stop offset="1" stop-color="#48D8F4"/>
</linearGradient>
<linearGradient id="paint40_linear" x1="360.76" y1="343.41" x2="340.441" y2="352.981" gradientUnits="userSpaceOnUse">
<stop stop-color="#007A94"/>
<stop offset="1" stop-color="#35F7EE"/>
</linearGradient>
<linearGradient id="paint41_linear" x1="376.194" y1="352.289" x2="376.194" y2="379.735" gradientUnits="userSpaceOnUse">
<stop stop-color="#06BCE5"/>
<stop offset="1" stop-color="#35F7EE"/>
</linearGradient>
<linearGradient id="paint42_linear" x1="376.194" y1="352.289" x2="376.194" y2="379.735" gradientUnits="userSpaceOnUse">
<stop stop-color="#06BCE5"/>
<stop offset="1" stop-color="#35F7EE"/>
</linearGradient>
<linearGradient id="paint43_linear" x1="376.194" y1="369.079" x2="376.194" y2="376.082" gradientUnits="userSpaceOnUse">
<stop stop-color="#06BCE5" stop-opacity="0"/>
<stop offset="1" stop-color="#35F7EE"/>
</linearGradient>
<linearGradient id="paint44_linear" x1="372.013" y1="339.676" x2="385.683" y2="282.611" gradientUnits="userSpaceOnUse">
<stop stop-color="#06BCE5"/>
<stop offset="1" stop-color="#35F7EE"/>
</linearGradient>
<linearGradient id="paint45_linear" x1="372.015" y1="339.677" x2="377.822" y2="306.743" gradientUnits="userSpaceOnUse">
<stop stop-color="#06BCE5"/>
<stop offset="1" stop-color="#35F7EE"/>
</linearGradient>
<linearGradient id="paint46_linear" x1="385.758" y1="354.607" x2="398.385" y2="344.214" gradientUnits="userSpaceOnUse">
<stop stop-color="#06BCE5"/>
<stop offset="1" stop-color="#A9FFFB"/>
</linearGradient>
<linearGradient id="paint47_linear" x1="394.23" y1="379.302" x2="402.869" y2="365.066" gradientUnits="userSpaceOnUse">
<stop stop-color="#06BCE5"/>
<stop offset="1" stop-color="#A9FFFB"/>
</linearGradient>
<linearGradient id="paint48_linear" x1="346.638" y1="361.366" x2="348.244" y2="349.687" gradientUnits="userSpaceOnUse">
<stop stop-color="#039CBE"/>
<stop offset="1" stop-color="#A9FFFB"/>
</linearGradient>
<linearGradient id="paint49_linear" x1="394.471" y1="385.246" x2="399.544" y2="366.702" gradientUnits="userSpaceOnUse">
<stop stop-color="#06BCE5"/>
<stop offset="1" stop-color="#A9FFFB"/>
</linearGradient>
<linearGradient id="paint50_linear" x1="394.471" y1="385.246" x2="399.544" y2="366.702" gradientUnits="userSpaceOnUse">
<stop stop-color="#06BCE5"/>
<stop offset="1" stop-color="#A9FFFB"/>
</linearGradient>
<linearGradient id="paint51_linear" x1="346.649" y1="361.519" x2="348.169" y2="349.337" gradientUnits="userSpaceOnUse">
<stop stop-color="#039CBE"/>
<stop offset="1" stop-color="#A9FFFB"/>
</linearGradient>
<linearGradient id="paint52_linear" x1="525" y1="150.994" x2="585.429" y2="235" gradientUnits="userSpaceOnUse">
<stop stop-color="#A8ED2F"/>
<stop offset="1" stop-color="#68DFB1"/>
</linearGradient>
<linearGradient id="paint53_linear" x1="542.831" y1="239.326" x2="542.831" y2="207.044" gradientUnits="userSpaceOnUse">
<stop stop-color="#52CAE4" stop-opacity="0"/>
<stop offset="1" stop-color="#48D8F4"/>
</linearGradient>
<linearGradient id="paint54_linear" x1="584.408" y1="219.791" x2="584.408" y2="187.51" gradientUnits="userSpaceOnUse">
<stop stop-color="#52CAE4" stop-opacity="0"/>
<stop offset="1" stop-color="#48D8F4"/>
</linearGradient>
<linearGradient id="paint55_linear" x1="534.775" y1="210.946" x2="534.775" y2="178.665" gradientUnits="userSpaceOnUse">
<stop stop-color="#52CAE4" stop-opacity="0"/>
<stop offset="1" stop-color="#48D8F4"/>
</linearGradient>
<linearGradient id="paint56_linear" x1="538.81" y1="228.852" x2="538.81" y2="173.82" gradientUnits="userSpaceOnUse">
<stop stop-opacity="0"/>
<stop offset="1" stop-color="#48D8F4"/>
</linearGradient>
<linearGradient id="paint57_linear" x1="580.196" y1="229.127" x2="580.196" y2="174.437" gradientUnits="userSpaceOnUse">
<stop stop-opacity="0"/>
<stop offset="1" stop-color="#48D8F4"/>
</linearGradient>
<linearGradient id="paint58_linear" x1="560.695" y1="214.492" x2="560.695" y2="184.546" gradientUnits="userSpaceOnUse">
<stop/>
<stop offset="1" stop-color="#48D8F4"/>
</linearGradient>
<linearGradient id="paint59_linear" x1="542.882" y1="228.326" x2="542.882" y2="173.294" gradientUnits="userSpaceOnUse">
<stop stop-opacity="0"/>
<stop offset="1" stop-color="#48D8F4"/>
</linearGradient>
<linearGradient id="paint60_linear" x1="551.654" y1="199.29" x2="537.311" y2="206.046" gradientUnits="userSpaceOnUse">
<stop stop-color="#007A94"/>
<stop offset="1" stop-color="#35F7EE"/>
</linearGradient>
<linearGradient id="paint61_linear" x1="562.549" y1="205.557" x2="562.549" y2="224.931" gradientUnits="userSpaceOnUse">
<stop stop-color="#06BCE5"/>
<stop offset="1" stop-color="#35F7EE"/>
</linearGradient>
<linearGradient id="paint62_linear" x1="562.549" y1="205.557" x2="562.549" y2="224.931" gradientUnits="userSpaceOnUse">
<stop stop-color="#06BCE5"/>
<stop offset="1" stop-color="#35F7EE"/>
</linearGradient>
<linearGradient id="paint63_linear" x1="562.549" y1="217.409" x2="562.549" y2="222.353" gradientUnits="userSpaceOnUse">
<stop stop-color="#06BCE5" stop-opacity="0"/>
<stop offset="1" stop-color="#35F7EE"/>
</linearGradient>
<linearGradient id="paint64_linear" x1="559.598" y1="196.654" x2="569.247" y2="156.372" gradientUnits="userSpaceOnUse">
<stop stop-color="#06BCE5"/>
<stop offset="1" stop-color="#35F7EE"/>
</linearGradient>
<linearGradient id="paint65_linear" x1="559.599" y1="196.654" x2="563.698" y2="173.407" gradientUnits="userSpaceOnUse">
<stop stop-color="#06BCE5"/>
<stop offset="1" stop-color="#35F7EE"/>
</linearGradient>
<linearGradient id="paint66_linear" x1="569.3" y1="207.194" x2="578.213" y2="199.857" gradientUnits="userSpaceOnUse">
<stop stop-color="#06BCE5"/>
<stop offset="1" stop-color="#A9FFFB"/>
</linearGradient>
<linearGradient id="paint67_linear" x1="575.28" y1="224.625" x2="581.378" y2="214.576" gradientUnits="userSpaceOnUse">
<stop stop-color="#06BCE5"/>
<stop offset="1" stop-color="#A9FFFB"/>
</linearGradient>
<linearGradient id="paint68_linear" x1="541.686" y1="211.964" x2="542.819" y2="203.72" gradientUnits="userSpaceOnUse">
<stop stop-color="#039CBE"/>
<stop offset="1" stop-color="#A9FFFB"/>
</linearGradient>
<linearGradient id="paint69_linear" x1="575.45" y1="228.821" x2="579.031" y2="215.731" gradientUnits="userSpaceOnUse">
<stop stop-color="#06BCE5"/>
<stop offset="1" stop-color="#A9FFFB"/>
</linearGradient>
<linearGradient id="paint70_linear" x1="575.45" y1="228.821" x2="579.031" y2="215.731" gradientUnits="userSpaceOnUse">
<stop stop-color="#06BCE5"/>
<stop offset="1" stop-color="#A9FFFB"/>
</linearGradient>
<linearGradient id="paint71_linear" x1="541.694" y1="212.072" x2="542.767" y2="203.473" gradientUnits="userSpaceOnUse">
<stop stop-color="#039CBE"/>
<stop offset="1" stop-color="#A9FFFB"/>
</linearGradient>
<linearGradient id="paint72_linear" x1="525" y1="163" x2="525" y2="235" gradientUnits="userSpaceOnUse">
<stop stop-color="#FAD961"/>
<stop offset="1" stop-color="#FF8946"/>
</linearGradient>
<linearGradient id="paint73_linear" x1="545.571" y1="197.714" x2="555.214" y2="230.5" gradientUnits="userSpaceOnUse">
<stop stop-color="#FFFCFC"/>
<stop offset="1" stop-color="#FFFCFC" stop-opacity="0"/>
</linearGradient>
<linearGradient id="paint74_linear" x1="545.571" y1="197.714" x2="555.214" y2="230.5" gradientUnits="userSpaceOnUse">
<stop stop-color="#FFFCFC"/>
<stop offset="1" stop-color="#FFFCFC" stop-opacity="0"/>
</linearGradient>
<linearGradient id="paint75_linear" x1="561" y1="197.714" x2="570.643" y2="230.5" gradientUnits="userSpaceOnUse">
<stop stop-color="#FFFCFC"/>
<stop offset="1" stop-color="#FFFCFC" stop-opacity="0"/>
</linearGradient>
<linearGradient id="paint76_linear" x1="561" y1="197.714" x2="570.643" y2="230.5" gradientUnits="userSpaceOnUse">
<stop stop-color="#FFFCFC"/>
<stop offset="1" stop-color="#FFFCFC" stop-opacity="0"/>
</linearGradient>
<linearGradient id="paint77_linear" x1="576.428" y1="197.714" x2="586.071" y2="230.5" gradientUnits="userSpaceOnUse">
<stop stop-color="#FFFCFC"/>
<stop offset="1" stop-color="#FFFCFC" stop-opacity="0"/>
</linearGradient>
<linearGradient id="paint78_linear" x1="576.428" y1="197.714" x2="586.071" y2="230.5" gradientUnits="userSpaceOnUse">
<stop stop-color="#FFFCFC"/>
<stop offset="1" stop-color="#FFFCFC" stop-opacity="0"/>
</linearGradient>
<linearGradient id="paint79_linear" x1="542.557" y1="227.729" x2="546.285" y2="281.489" gradientUnits="userSpaceOnUse">
<stop stop-color="#FFFCFC"/>
<stop offset="1" stop-color="#FFFCFC" stop-opacity="0.4"/>
</linearGradient>
<linearGradient id="paint80_linear" x1="323" y1="497" x2="385.357" y2="569" gradientUnits="userSpaceOnUse">
<stop stop-color="#90F7EC"/>
<stop offset="1" stop-color="#32CCBC"/>
</linearGradient>
<linearGradient id="paint81_linear" x1="363.5" y1="524" x2="370.571" y2="544.571" gradientUnits="userSpaceOnUse">
<stop stop-color="white"/>
<stop offset="1" stop-color="white" stop-opacity="0.67"/>
</linearGradient>
<linearGradient id="paint82_linear" x1="759" y1="357.732" x2="721" y2="308.875" gradientUnits="userSpaceOnUse">
<stop stop-color="#5961F9"/>
<stop offset="1" stop-color="#EE9AE5"/>
</linearGradient>
<linearGradient id="paint83_linear" x1="743.732" y1="339.411" x2="742.036" y2="368.929" gradientUnits="userSpaceOnUse">
<stop stop-color="white"/>
<stop offset="1" stop-color="white" stop-opacity="0"/>
</linearGradient>
<linearGradient id="paint84_linear" x1="494" y1="67" x2="785" y2="703" gradientUnits="userSpaceOnUse">
<stop stop-color="#4D74FF"/>
<stop offset="1" stop-color="#4D74FF" stop-opacity="0"/>
</linearGradient>
<linearGradient id="paint85_linear" x1="494" y1="33" x2="822.763" y2="751.534" gradientUnits="userSpaceOnUse">
<stop stop-color="#4D74FF"/>
<stop offset="1" stop-color="#4D74FF" stop-opacity="0"/>
</linearGradient>
<linearGradient id="paint86_linear" x1="494" y1="0" x2="859.416" y2="798.641" gradientUnits="userSpaceOnUse">
<stop stop-color="#4D74FF"/>
<stop offset="1" stop-color="#4D74FF" stop-opacity="0"/>
</linearGradient>
<linearGradient id="paint87_linear" x1="237.857" y1="171.357" x2="301.5" y2="244" gradientUnits="userSpaceOnUse">
<stop stop-color="#65AAFF"/>
<stop offset="1" stop-color="#5D21D4"/>
</linearGradient>
<linearGradient id="paint88_linear" x1="270" y1="175" x2="306" y2="203.5" gradientUnits="userSpaceOnUse">
<stop stop-color="white"/>
<stop offset="1" stop-color="#DBEAFF" stop-opacity="0"/>
</linearGradient>
<linearGradient id="paint89_linear" x1="583" y1="30.6634" x2="614.893" y2="75" gradientUnits="userSpaceOnUse">
<stop stop-color="#A8ED2F"/>
<stop offset="1" stop-color="#68DFB1"/>
</linearGradient>
<linearGradient id="paint90_linear" x1="711" y1="569" x2="687.108" y2="519.408" gradientUnits="userSpaceOnUse">
<stop stop-color="#46C4E6"/>
<stop offset="1" stop-color="#4A80E4"/>
</linearGradient>
<linearGradient id="paint91_linear" x1="693.137" y1="538.823" x2="716.383" y2="580.977" gradientUnits="userSpaceOnUse">
<stop stop-color="white"/>
<stop offset="1" stop-color="white" stop-opacity="0"/>
</linearGradient>
<clipPath id="clip0">
<rect width="61.3333" height="61.3333" fill="white" transform="translate(566.333 402.333)"/>
</clipPath>
</defs>
</svg>
