<svg width="380" height="411" xmlns="http://www.w3.org/2000/svg"><defs><linearGradient x1="14.958%" y1="0%" x2="116.401%" y2="127.873%" id="b"><stop stop-color="#F1F8F9" offset="0%"/><stop stop-color="#F7F8F9" offset="100%"/><stop stop-color="#00EFE2" offset="100%"/></linearGradient><linearGradient x1="14.958%" y1="0%" x2="116.401%" y2="127.873%" id="a"><stop stop-color="#267E8A" stop-opacity=".4" offset="0%"/><stop stop-color="#00EFE2" offset="95.851%"/><stop stop-color="#00EFE2" offset="100%"/></linearGradient><linearGradient x1="11.355%" y1="113.983%" x2="92.101%" y2="-28.273%" id="c"><stop stop-color="#191B1C" offset="0%"/><stop stop-color="#374043" offset="100%"/></linearGradient><linearGradient x1="29.123%" y1="90.962%" x2="68.871%" y2="4.359%" id="d"><stop stop-color="#101010" offset="0%"/><stop stop-color="#393937" offset="100%"/></linearGradient><linearGradient x1="103.962%" y1="26.421%" x2="18.317%" y2="80.849%" id="e"><stop stop-color="#02B4E5" offset="0%"/><stop stop-color="#00EFE2" offset="100%"/><stop stop-color="#01EAE2" offset="100%"/></linearGradient><linearGradient x1="80.632%" y1="8.395%" x2="45.772%" y2="115.399%" id="f"><stop stop-color="#00E3E9" offset="0%"/><stop stop-color="#02B2E4" offset="100%"/></linearGradient><linearGradient x1="17.788%" y1="0%" x2="36.122%" y2="108.251%" id="g"><stop stop-color="#00F5E6" offset="0%"/><stop stop-color="#01DDEF" offset="100%"/></linearGradient><linearGradient x1="75.295%" y1="102.746%" x2="29.969%" y2="-8.196%" id="h"><stop stop-color="#01BBE4" offset="0%"/><stop stop-color="#00EFE2" offset="100%"/><stop stop-color="#00F4E1" offset="100%"/></linearGradient></defs><g fill="none" fill-rule="evenodd"><g stroke="url(#a)" stroke-dasharray="1,3" transform="translate(-1 -1)"><path d="M191.75 192.313L.404.965" fill="url(#b)"/><path d="M381.75 192.313L190.404.965" fill="url(#b)" transform="matrix(-1 0 0 1 572.154 0)"/><path d="M191.75 412.313L.404 220.965" fill="url(#b)" transform="matrix(1 0 0 -1 0 633.279)"/><path d="M381.75 412.313L190.404 220.965" fill="url(#b)" transform="rotate(180 286.077 316.64)"/><circle fill="url(#c)" cx="190" cy="208" r="155"/></g><path d="M51.973 146.55c-11.463-11.515-21.448-25.482-29.68-41.518C10.945 82.956 6.078 63.06 4.52 55.575 42.547 24.39 89.04 8.265 100.01 4.74c11.023 3.572 57.751 19.889 95.494 50.833-1.571 7.461-6.462 27.276-17.769 49.33-8.277 16.124-18.263 30.113-29.678 41.58-13.955 13.987-30.115 24.337-48.043 30.773-17.993-6.459-34.153-16.786-48.041-30.706z" fill="url(#d)" transform="translate(89 116)"/><path d="M100 .436l2.962.915c9.157 2.935 56.837 19.222 94.78 51.12l2.051 1.456-.455 2.57-.005-.001c-.488 3.596-5.282 26.664-18.034 51.541-8.22 16.018-18.187 29.965-29.629 41.454-14.116 14.149-30.485 24.614-48.652 31.108l-1.029.36-1.932.747-2.965-1.04c-18.28-6.535-34.65-17.002-48.67-31.116-11.506-11.618-21.473-25.563-29.625-41.45C6.119 83.31 1.572 60.955.79 56.725l-.465-2.603 1.89-1.587C40.166 20.597 87.908 4.288 97.092 1.343L100 .436zM51.973 146.55c13.888 13.92 30.048 24.247 48.04 30.706 17.929-6.436 34.09-16.786 48.044-30.773 11.415-11.467 21.4-25.456 29.678-41.58 11.307-22.054 16.198-41.869 17.769-49.33-37.743-30.944-84.47-47.26-95.494-50.833C89.041 8.264 42.547 24.39 4.52 55.575c1.558 7.485 6.425 27.38 17.773 49.457 8.232 16.036 18.217 30.003 29.68 41.518z" fill="url(#e)" transform="translate(89 116)"/><path d="M84.514 41.12c-.066 0-30.15 9.548-30.15 35.665 0 26.116 29.039 38.783 50.424 38.783 11.632 0 21.187-3.362 27.49-6.43.812-3.702 3.766-12.47 13.54-12.536 1.743-.068 3.378.257 4.752 1.036 6.54 3.51 2.289 10.07 2.289 10.07a14.805 14.805 0 0 0 1.495-.32c7.86-2.104 16.718-11.035 15.182-25.99-1.232-11.994-12.375-19.595-17.795-22.615-1.775-.988-2.937-1.488-2.937-1.488.196-1.218.26-2.16.26-2.884 0-.136-.003-.263-.007-.383v-1.403c-28.445-17.14-52.516-19.781-64.388-19.781-5.129 0-8.003.479-8.003.479l7.848 7.796zm60.104 16.24s-3.859-1.234-7.782-1.754c-1.963 2.014-3.664 2.858-4.187 3.119l-.13.13c-11.446-2.405-15.566-8.252-15.566-8.252 10.792-.064 20.537 2.47 27.665 6.757z" fill="url(#f)" transform="translate(89 116)"/><path d="M155.278 73.536c0 8.511-3.53 16.372-9.549 22.738l-.285.327.482-.001c1.635-.066 3.27.259 4.644 1.038 6.54 3.51 2.289 10.07 2.289 10.07 8.175-1.3 18.312-10.394 16.677-26.31-1.232-11.994-12.375-19.595-17.795-22.615a32.371 32.371 0 0 1 3.537 14.753" fill="url(#g)" transform="translate(89 116)"/><path d="M22.906 103.355c0 1.054.041 2.057.1 3.038 8.094 15.462 17.83 28.97 28.967 40.157 13.888 13.92 30.048 24.247 48.04 30.706 17.929-6.436 34.09-16.786 48.044-30.773 4.137-4.155 8.083-8.647 11.831-13.446-29.836-2.13-28.024-20.132-28.024-20.132 0-.714 0-1.429.131-2.144 0 0 .066-.632.283-1.624-6.302 3.069-15.858 6.431-27.49 6.431-21.385 0-50.424-12.667-50.424-38.783 0-26.117 30.084-35.666 30.084-35.666l-.015-.004c-.763-.059-1.58-.061-2.34-.061-32.896 1.17-59.187 28.584-59.187 62.301" fill="url(#h)" transform="translate(89 116)"/></g></svg>