<svg width="1440" height="861" viewBox="0 0 1440 861" version="1.1" xmlns="http://www.w3.org/2000/svg" xmlns:xlink="http://www.w3.org/1999/xlink">
<title>background</title>
<desc>Created using Figma</desc>
<g id="Canvas" transform="translate(-1294 -769)">
<g id="disintermediating">
<mask id="mask0_outline" mask-type="alpha">
<g id="Mask">
<use xlink:href="#path0_fill" transform="translate(1294 769.695)" fill="#FFFFFF"/>
</g>
</mask>
<g id="bg" mask="url(#mask0_outline)">
<use xlink:href="#path1_fill" transform="translate(1294 770)" fill="url(#paint1_linear)"/>
</g>
<g id="lines bg" mask="url(#mask0_outline)">
<g id="Line 2 Copy 2">
<use xlink:href="#path2_stroke" transform="translate(1101 889)" fill="url(#paint2_linear)"/>
</g>
<g id="Line" opacity="0.445596">
<use xlink:href="#path3_stroke" transform="translate(1263 680.5)" fill="url(#paint3_linear)"/>
</g>
<g id="Line Copy" opacity="0.445596">
<use xlink:href="#path3_stroke" transform="translate(2080 680.5)" fill="url(#paint4_linear)"/>
</g>
<g id="Line 2" opacity="0.445596">
<use xlink:href="#path2_stroke" transform="translate(1534 565)" fill="url(#paint5_linear)"/>
</g>
<g id="Line 2 Copy">
<use xlink:href="#path2_stroke" transform="translate(2509 718)" fill="url(#paint6_linear)"/>
</g>
<g id="Group 26">
<g id="Group 28" opacity="0.327163">
<g id="Oval 5" filter="url(#filter0_f)">
<use xlink:href="#path4_fill" transform="translate(1530.78 938.784)" fill="#FFFFFF"/>
</g>
<g id="Oval 5 Copy">
<use xlink:href="#path5_fill" transform="translate(1532 940)" fill="#FFFFFF"/>
</g>
</g>
</g>
<g id="Group 26 Copy" opacity="0.185519">
<g id="Oval 5" filter="url(#filter1_f)">
<use xlink:href="#path4_fill" transform="translate(1684.78 1087.78)" fill="#FFFFFF"/>
</g>
<g id="Oval 5 Copy">
<use xlink:href="#path5_fill" transform="translate(1686 1089)" fill="#FFFFFF"/>
</g>
</g>
<g id="Group 26 Copy 2">
<g id="Oval 5" filter="url(#filter2_f)">
<use xlink:href="#path4_fill" transform="translate(2505.78 1091.78)" fill="#FFFFFF"/>
</g>
<g id="Oval 5 Copy">
<use xlink:href="#path5_fill" transform="translate(2507 1093)" fill="#FFFFFF"/>
</g>
</g>
</g>
</g>
</g>
<defs>
<filter id="filter0_f" filterUnits="userSpaceOnUse" x="1526" y="934" width="16" height="16" color-interpolation-filters="sRGB">
<feFlood flood-opacity="0" result="BackgroundImageFix"/>
<feBlend mode="normal" in="SourceGraphic" in2="BackgroundImageFix" result="shape"/>
<feGaussianBlur stdDeviation="2.28293" result="effect1_foregroundBlur"/>
</filter>
<filter id="filter1_f" filterUnits="userSpaceOnUse" x="1680" y="1083" width="16" height="16" color-interpolation-filters="sRGB">
<feFlood flood-opacity="0" result="BackgroundImageFix"/>
<feBlend mode="normal" in="SourceGraphic" in2="BackgroundImageFix" result="shape"/>
<feGaussianBlur stdDeviation="2.28293" result="effect1_foregroundBlur"/>
</filter>
<filter id="filter2_f" filterUnits="userSpaceOnUse" x="2501" y="1087" width="16" height="16" color-interpolation-filters="sRGB">
<feFlood flood-opacity="0" result="BackgroundImageFix"/>
<feBlend mode="normal" in="SourceGraphic" in2="BackgroundImageFix" result="shape"/>
<feGaussianBlur stdDeviation="2.28293" result="effect1_foregroundBlur"/>
</filter>
<linearGradient id="paint1_linear" x1="0" y1="0" x2="1" y2="0" gradientUnits="userSpaceOnUse" gradientTransform="matrix(1162.73 -1223.4 2048.48 694.411 163.516 980.255)">
<stop offset="0" stop-color="#0B0B0A"/>
<stop offset="1" stop-color="#464F51"/>
</linearGradient>
<linearGradient id="paint2_linear" x1="0" y1="0" x2="1" y2="0" gradientUnits="userSpaceOnUse" gradientTransform="matrix(-736.617 965.516 -965.516 -736.617 847.566 -602)">
<stop offset="0" stop-color="#C8C8C8"/>
<stop offset="1" stop-color="#979797" stop-opacity="0.01"/>
</linearGradient>
<linearGradient id="paint3_linear" x1="0" y1="0" x2="1" y2="0" gradientUnits="userSpaceOnUse" gradientTransform="matrix(0 521.378 -539.929 0 276.5 0)">
<stop offset="0" stop-color="#C8C8C8"/>
<stop offset="1" stop-color="#979797" stop-opacity="0.01"/>
</linearGradient>
<linearGradient id="paint4_linear" x1="0" y1="0" x2="1" y2="0" gradientUnits="userSpaceOnUse" gradientTransform="matrix(-317.379 -469.84 486.557 -306.474 527.238 516.434)">
<stop offset="0" stop-color="#C8C8C8" stop-opacity="0.01"/>
<stop offset="1" stop-color="#979797"/>
</linearGradient>
<linearGradient id="paint5_linear" x1="0" y1="0" x2="1" y2="0" gradientUnits="userSpaceOnUse" gradientTransform="matrix(-553.027 719.48 -719.48 -553.027 188.5 0)">
<stop offset="0" stop-color="#C8C8C8" stop-opacity="0.01"/>
<stop offset="0.0123624" stop-color="#C7C7C7" stop-opacity="0.0123624"/>
<stop offset="1" stop-color="#979797"/>
</linearGradient>
<linearGradient id="paint6_linear" x1="0" y1="0" x2="1" y2="0" gradientUnits="userSpaceOnUse" gradientTransform="matrix(-754.469 533.848 -533.848 -754.469 232.246 137.41)">
<stop offset="0" stop-color="#C8C8C8" stop-opacity="0.01"/>
<stop offset="1" stop-color="#979797"/>
</linearGradient>
<path id="path0_fill" fill-rule="evenodd" d="M 0 859.805L 1440 859.805L 1440 0C 1440 0 805.211 116.617 720 116.617C 634.789 116.617 0 0 0 0L 0 859.805Z"/>
<path id="path1_fill" fill-rule="evenodd" d="M 0 0L 1440 0L 1440 860L 0 860L 0 0Z"/>
<path id="path2_stroke" d="M 0.146447 376.146L -0.207107 376.5L 0.5 377.207L 0.853553 376.854L 0.146447 376.146ZM 377.208 0.499332L 377.561 0.145779L 376.854 -0.561328L 376.501 -0.207775L 377.208 0.499332ZM 0.853553 376.854L 377.208 0.499332L 376.501 -0.207775L 0.146447 376.146L 0.853553 376.854Z"/>
<path id="path3_stroke" d="M 0.847309 0.14031L 0.487619 -0.206998L -0.206998 0.512381L 0.152691 0.85969L 0.847309 0.14031ZM 552.153 533.86L 552.512 534.207L 553.207 533.488L 552.847 533.14L 552.153 533.86ZM 0.152691 0.85969L 552.153 533.86L 552.847 533.14L 0.847309 0.14031L 0.152691 0.85969Z"/>
<path id="path4_fill" fill-rule="evenodd" d="M 3.21582 6.43164C 4.99187 6.43164 6.43164 4.99187 6.43164 3.21582C 6.43164 1.43977 4.99187 0 3.21582 0C 1.43977 0 0 1.43977 0 3.21582C 0 4.99187 1.43977 6.43164 3.21582 6.43164Z"/>
<path id="path5_fill" fill-rule="evenodd" d="M 2 4C 3.10457 4 4 3.10457 4 2C 4 0.89543 3.10457 0 2 0C 0.89543 0 0 0.89543 0 2C 0 3.10457 0.89543 4 2 4Z"/>
</defs>
</svg>
