<svg fill="none" height="52" viewBox="0 0 366 52" width="366" xmlns="http://www.w3.org/2000/svg" xmlns:xlink="http://www.w3.org/1999/xlink"><linearGradient id="a" gradientUnits="userSpaceOnUse" x1="416" x2="399.732" y1="46" y2="-58.6226"><stop offset="0" stop-color="#402dff"/><stop offset="1" stop-color="#c86dd7"/></linearGradient><linearGradient id="b" gradientUnits="userSpaceOnUse" x1="39.0001" x2="13.1174" y1="43" y2="-10.7245"><stop offset="0" stop-color="#3023ae"/><stop offset="1" stop-color="#c86dd7"/></linearGradient><path d="m62.6656 10.7822h2.5977l9.9824 26.2178h-3.544l-2.1894-6.123h-11.0401l-2.2265 6.123h-3.5625zm5.8262 17.293-4.5088-12.6172-4.4902 12.6172zm10.2404-9.6113h3.0615v3.6367c.2845-.8535.7175-1.5772 1.2989-2.1709.5813-.5938 1.2308-1.0391 1.9482-1.3359.7298-.2969 1.472-.4454 2.2266-.4454.569 0 1.1194.0866 1.6513.2598.5319.1608 1.002.4144 1.4102.7607l-1.4473 2.5977c-.6679-.3711-1.3606-.5566-2.0781-.5566-.8411 0-1.6452.2412-2.4121.7236s-1.3978 1.2432-1.8926 2.2822c-.4824 1.0267-.7236 2.3132-.7236 3.8594v8.9248h-3.043zm20.9836-.3155c1.5962 0 2.9622.3093 4.1002.9278 1.151.6061 2.023 1.4782 2.617 2.6162.593 1.138.89 2.4739.89 4.0078v11.2998h-2.616l-.204-3.3027c-.631 1.1627-1.528 2.0595-2.691 2.6904-1.162.6185-2.4054.9277-3.729.9277-1.2617 0-2.3874-.2288-3.3769-.6865-.9773-.47-1.7442-1.138-2.3008-2.0039-.5567-.8783-.835-1.9173-.835-3.1172 0-1.8431.668-3.1852 2.0039-4.0264 1.3483-.8535 3.2285-1.2802 5.6406-1.2802h5.2512c-.013-1.237-.167-2.239-.464-3.0059-.297-.7793-.792-1.3545-1.484-1.7256-.681-.3834-1.602-.5752-2.7651-.5752-2.1152 0-3.7975.9649-5.0468 2.8946l-2.4122-1.7442c.9401-1.2864 2.004-2.2575 3.1915-2.9131s2.5976-.9834 4.2304-.9834zm-1.0205 16.4766c1.5087 0 2.7647-.4515 3.7667-1.3545 1.014-.9154 1.682-2.1029 2.004-3.5625v-1.206h-5.0656c-1.5215 0-2.6719.2783-3.4512.8349-.7669.5567-1.1504 1.3174-1.1504 2.2822 0 .9154.3402 1.6452 1.0205 2.1895.6804.5443 1.639.8164 2.876.8164zm21.2617-.0742c1.608.235 2.913.501 3.915.7978 1.015.2845 1.868.7793 2.561 1.4844s1.039 1.6885 1.039 2.9502c0 1.237-.34 2.2946-1.021 3.1729-.668.8782-1.595 1.54-2.783 1.9853-1.187.4453-2.548.668-4.082.668-1.781 0-3.315-.2722-4.601-.8164-1.274-.5443-2.246-1.2989-2.913-2.2637-.668-.9525-1.002-2.0534-1.002-3.3027 0-.2969.018-.569.055-.8164l2.561-2.2823c-1.472-.7669-2.208-1.9606-2.208-3.581 0-.7793.161-1.4658.482-2.0596.322-.5937.798-1.1256 1.429-1.5957-.507-.569-.897-1.2122-1.169-1.9297-.272-.7174-.408-1.4844-.408-2.3008 0-1.2493.321-2.3688.965-3.3584.643-.9895 1.515-1.7627 2.616-2.3193s2.313-.835 3.637-.835c.865 0 1.688.1237 2.467.3711.78.2351 1.485.5752 2.116 1.0205l2.634-2.2822 1.633 2.041-2.542 2.1153c.619 1.0019.928 2.1399.928 3.414s-.316 2.3998-.946 3.377c-.631.9772-1.491 1.7317-2.58 2.2637-1.088.5319-2.294.7978-3.618.7978-1.385 0-2.647-.2907-3.785-.8721-.767.3711-1.15.9092-1.15 1.6143 0 .5443.204.971.612 1.2803.421.3092.959.538 1.614.6865.668.1484 1.633.3092 2.895.4824zm-.816-13.9531c-.817 0-1.534.1731-2.153.5195-.618.3463-1.094.8288-1.428 1.4473-.334.6184-.501 1.3235-.501 2.1152s.161 1.4905.482 2.0967c.334.5937.804 1.0638 1.41 1.4101.619.334 1.343.501 2.171.501.829 0 1.547-.167 2.153-.501s1.07-.804 1.391-1.4101c.322-.6062.483-1.2989.483-2.0782 0-.804-.161-1.5153-.483-2.1337-.321-.6185-.785-1.101-1.391-1.4473-.606-.3464-1.318-.5195-2.134-.5195zm.427 22.5439c1.509 0 2.702-.2659 3.581-.7978.89-.532 1.336-1.2741 1.336-2.2266 0-.6432-.223-1.1442-.668-1.5029-.433-.3588-1.027-.6247-1.782-.7979-.742-.1732-1.799-.3463-3.172-.5195-.112-.0124-.52-.0619-1.225-.1485-.693-.0866-1.361-.2041-2.004-.3525l-1.744 2.2822.056.5567c.185 1.138.779 2.0039 1.781 2.5976 1.014.6061 2.294.9092 3.841.9092zm19.35-5.8262c-1.768 0-3.346-.4267-4.731-1.2802-1.385-.8659-2.468-2.0287-3.247-3.4883-.767-1.472-1.151-3.0925-1.151-4.8614 0-1.7565.384-3.3584 1.151-4.8056.779-1.4597 1.862-2.61 3.247-3.4512 1.385-.8535 2.963-1.2803 4.731-1.2803 1.769 0 3.346.4268 4.732 1.2803 1.398.8412 2.486 1.9915 3.265 3.4512.78 1.4596 1.169 3.0615 1.169 4.8056 0 1.7689-.389 3.3894-1.169 4.8614-.779 1.4596-1.867 2.6224-3.265 3.4883-1.386.8535-2.963 1.2802-4.732 1.2802zm0-2.7275c1.237 0 2.301-.3093 3.192-.9277.89-.6185 1.565-1.4473 2.022-2.4864.458-1.0514.687-2.2142.687-3.4883 0-1.2617-.229-2.4059-.687-3.4326-.457-1.039-1.132-1.8616-2.022-2.4677-.891-.6062-1.955-.9092-3.192-.9092-1.224 0-2.282.303-3.172.9092-.879.5937-1.547 1.4101-2.004 2.4492-.458 1.0267-.687 2.1771-.687 3.4511 0 1.2741.229 2.4369.687 3.4883.457 1.0515 1.125 1.8864 2.004 2.5049.89.6061 1.948.9092 3.172.9092zm13.321-16.124h3.136v2.8203c.618-1.0267 1.428-1.806 2.43-2.3379s2.085-.7979 3.247-.7979c1.448 0 2.654.3278 3.619.9834.977.6433 1.7 1.5153 2.17 2.6162.483 1.101.736 2.3379.761 3.711v11.541h-3.136v-10.9658c0-1.5586-.364-2.777-1.094-3.6553-.73-.8782-1.788-1.3174-3.173-1.3174-1.509 0-2.691.4515-3.544 1.3545-.854.8906-1.28 2.1895-1.28 3.8965v10.6875h-3.136zm30.537-7.6817h7.255c2.907 0 5.363.5134 7.367 1.5401 2.003 1.0267 3.519 2.5358 4.545 4.5273 1.027 1.9792 1.54 4.3913 1.54 7.2363 0 2.7214-.525 5.0469-1.577 6.9766-1.039 1.9297-2.566 3.4017-4.583 4.416-2.016 1.0143-4.459 1.5215-7.329 1.5215h-7.218zm6.903 23.2119c3.401 0 6.005-.8164 7.811-2.4492 1.819-1.6328 2.728-4.1624 2.728-7.5888 0-3.476-.829-6.0365-2.486-7.6817-1.658-1.6575-4.243-2.4863-7.756-2.4863h-3.934v20.206zm25.028-15.8457c1.596 0 2.963.3093 4.101.9278 1.15.6061 2.022 1.4782 2.616 2.6162s.891 2.4739.891 4.0078v11.2998h-2.616l-.205-3.3027c-.63 1.1627-1.527 2.0595-2.69 2.6904-1.163.6185-2.406.9277-3.73.9277-1.261 0-2.387-.2288-3.376-.6865-.978-.47-1.745-1.138-2.301-2.0039-.557-.8783-.835-1.9173-.835-3.1172 0-1.8431.668-3.1852 2.004-4.0264 1.348-.8535 3.228-1.2802 5.64-1.2802h5.251c-.012-1.237-.167-2.239-.464-3.0059-.296-.7793-.791-1.3545-1.484-1.7256-.68-.3834-1.602-.5752-2.765-.5752-2.115 0-3.797.9649-5.046 2.8946l-2.413-1.7442c.941-1.2864 2.004-2.2575 3.192-2.9131 1.187-.6556 2.597-.9834 4.23-.9834zm-1.02 16.4766c1.509 0 2.764-.4515 3.766-1.3545 1.015-.9154 1.683-2.1029 2.004-3.5625v-1.206h-5.065c-1.522 0-2.672.2783-3.451.8349-.767.5567-1.151 1.3174-1.151 2.2822 0 .9154.34 1.6452 1.021 2.1895.68.5443 1.639.8164 2.876.8164zm13.877-16.1611h3.061v3.6367c.285-.8535.718-1.5772 1.299-2.1709.582-.5938 1.231-1.0391 1.949-1.3359.729-.2969 1.472-.4454 2.226-.4454.569 0 1.12.0866 1.651.2598.532.1608 1.002.4144 1.411.7607l-1.448 2.5977c-.668-.3711-1.36-.5566-2.078-.5566-.841 0-1.645.2412-2.412.7236s-1.398 1.2432-1.892 2.2822c-.483 1.0267-.724 2.3132-.724 3.8594v8.9248h-3.043zm14.508-7.6817h3.136v16.9776l8.702-9.2959h4.1l-6.809 7.0136 7.774 11.5225h-3.711l-6.197-9.5742-3.859 4.1006v5.4736h-3.136zm19.926 7.6817h3.043v2.9131c.519-1.0886 1.249-1.8988 2.189-2.4307s2.01-.7979 3.21-.7979c1.336 0 2.499.3155 3.489.9463.989.6185 1.7 1.5772 2.133 2.876.594-1.2741 1.417-2.2266 2.468-2.8574 1.064-.6432 2.264-.9649 3.6-.9649 1.459 0 2.672.3402 3.637 1.0205.964.6804 1.676 1.6143 2.133 2.8018.47 1.1875.705 2.5544.705 4.1006v10.9287h-3.154v-10.5576c0-1.7442-.309-3.0739-.928-3.9893-.606-.9153-1.608-1.373-3.006-1.373-.927 0-1.744.2288-2.449.6865-.705.4453-1.249 1.0638-1.633 1.8555-.371.7793-.556 1.6637-.556 2.6533v10.7246h-3.136v-11.0215c0-1.5462-.315-2.7461-.946-3.5996-.631-.8659-1.621-1.2988-2.969-1.2988-.94 0-1.763.2288-2.468.6865-.705.4453-1.249 1.0638-1.633 1.8555-.371.7793-.556 1.6637-.556 2.6533v10.7246h-3.154zm39.334 18.8515c-1.769 0-3.346-.4267-4.731-1.2802-1.386-.8659-2.468-2.0287-3.247-3.4883-.767-1.472-1.151-3.0925-1.151-4.8614 0-1.7565.384-3.3584 1.151-4.8056.779-1.4597 1.861-2.61 3.247-3.4512 1.385-.8535 2.962-1.2803 4.731-1.2803s3.346.4268 4.732 1.2803c1.397.8412 2.486 1.9915 3.265 3.4512.78 1.4596 1.169 3.0615 1.169 4.8056 0 1.7689-.389 3.3894-1.169 4.8614-.779 1.4596-1.868 2.6224-3.265 3.4883-1.386.8535-2.963 1.2802-4.732 1.2802zm0-2.7275c1.237 0 2.301-.3093 3.192-.9277.89-.6185 1.564-1.4473 2.022-2.4864.458-1.0514.687-2.2142.687-3.4883 0-1.2617-.229-2.4059-.687-3.4326-.458-1.039-1.132-1.8616-2.022-2.4677-.891-.6062-1.955-.9092-3.192-.9092-1.224 0-2.282.303-3.173.9092-.878.5937-1.546 1.4101-2.004 2.4492-.457 1.0267-.686 2.1771-.686 3.4511 0 1.2741.229 2.4369.686 3.4883.458 1.0515 1.126 1.8864 2.004 2.5049.891.6061 1.949.9092 3.173.9092zm19.982 2.7275c-1.645 0-3.086-.4267-4.323-1.2802-1.237-.8659-2.19-2.0287-2.858-3.4883-.668-1.4597-1.002-3.0677-1.002-4.8242 0-1.7442.328-3.3461.984-4.8057.668-1.4596 1.614-2.6162 2.838-3.4697 1.237-.8659 2.672-1.2989 4.305-1.2989 1.324 0 2.536.3217 3.637.9649 1.113.6432 1.967 1.54 2.56 2.6904v-11.0215h3.192v26.2178h-2.932l-.13-3.5068c-.593 1.2122-1.453 2.1523-2.579 2.8203-1.113.6679-2.344 1.0019-3.692 1.0019zm.742-2.8574c1.175 0 2.189-.2907 3.043-.8721.853-.5813 1.503-1.3792 1.948-2.3935.445-1.0267.668-2.1833.668-3.4697 0-1.2741-.223-2.4183-.668-3.4327-.445-1.0267-1.095-1.8307-1.948-2.4121-.854-.5814-1.868-.872-3.043-.872s-2.196.2968-3.062.8906c-.865.5814-1.527 1.3854-1.985 2.4121-.458 1.0143-.686 2.1523-.686 3.4141 0 1.274.228 2.4244.686 3.4511.458 1.0144 1.12 1.8184 1.985 2.4121.866.5814 1.887.8721 3.062.8721zm21.763 2.8574c-1.893 0-3.507-.4205-4.843-1.2617-1.336-.8411-2.344-1.9792-3.024-3.4141-.681-1.4472-1.021-3.0553-1.021-4.8242 0-1.7441.328-3.3522.984-4.8242.655-1.472 1.626-2.6471 2.913-3.5254 1.299-.8782 2.857-1.3174 4.675-1.3174 1.943 0 3.526.4454 4.75 1.336 1.237.8906 2.128 2.0101 2.672 3.3584.545 1.3359.817 2.709.817 4.1191 0 .334-.019.668-.056 1.002-.025.3216-.056.5566-.093.705h-13.34c.123 1.8184.655 3.2409 1.595 4.2676.953 1.0143 2.282 1.5215 3.989 1.5215 1.04 0 1.961-.167 2.765-.501.804-.3463 1.583-.9215 2.338-1.7256l2.189 1.9112c-1.026 1.1009-2.127 1.9049-3.302 2.4121-1.163.5071-2.499.7607-4.008.7607zm4.806-10.9472c0-.5319-.025-.9216-.075-1.169-.111-.804-.377-1.5338-.797-2.1894-.409-.668-.978-1.1999-1.708-1.5957-.717-.4082-1.57-.6123-2.56-.6123-1.522 0-2.728.5071-3.618 1.5214-.891 1.002-1.429 2.3503-1.614 4.045z" fill="url(#a)"/><rect fill="url(#b)" height="39" rx="4" width="39" x=".000061" y="4"/><path d="m30.9891 28.3664c-.2144-.264-.5744-.3616-.8912-.248-.888.3184-1.8512.4816-2.8656.4816-4.8528 0-8.8-3.9488-8.8-8.8 0-2.92 1.4416-5.6384 3.856-7.2736.2736-.1856.4048-.52.3312-.8416s-.3376-.5648-.6656-.6128c-.3744-.0544-.7472-.072-1.1216-.072-6.6176 0-11.99996 5.3824-11.99996 12s5.38236 12 11.99996 12c4.2 0 8.0208-2.1344 10.2176-5.7088.1776-.2896.152-.6592-.0608-.9248z" fill="#fff"/></svg>