<svg width="414" height="873" viewBox="0 0 414 873" fill="none" xmlns="http://www.w3.org/2000/svg">
<g clip-path="url(#clip0)">
<path fill-rule="evenodd" clip-rule="evenodd" d="M-0.0148315 872.931H79.5197V773.261H-0.0148315V872.931Z" fill="#FFFFFE"/>
<path fill-rule="evenodd" clip-rule="evenodd" d="M79.7803 760.173L40.0133 738.695L0.245728 760.173V773.261H79.7803V760.173Z" fill="#4D5E82"/>
<path fill-rule="evenodd" clip-rule="evenodd" d="M23.7358 803.09H11.3952V796.919C11.3952 793.512 14.1578 790.749 17.5652 790.749C20.9732 790.749 23.7358 793.512 23.7358 796.919V803.09Z" fill="#6CAE8E"/>
<path fill-rule="evenodd" clip-rule="evenodd" d="M45.9228 803.09H33.5822V796.919C33.5822 793.512 36.3448 790.749 39.7528 790.749C43.1602 790.749 45.9228 793.512 45.9228 796.919V803.09Z" fill="#6CAE8E"/>
<path fill-rule="evenodd" clip-rule="evenodd" d="M68.1097 803.09H55.769V796.919C55.769 793.512 58.5316 790.749 61.9396 790.749C65.3471 790.749 68.1097 793.512 68.1097 796.919V803.09Z" fill="#6CAE8E"/>
<path fill-rule="evenodd" clip-rule="evenodd" d="M23.7358 843.696H11.3952V837.526C11.3952 834.118 14.1578 831.356 17.5652 831.356C20.9732 831.356 23.7358 834.118 23.7358 837.526V843.696Z" fill="#6CAE8E"/>
<path fill-rule="evenodd" clip-rule="evenodd" d="M45.9228 843.696H33.5822V837.526C33.5822 834.118 36.3448 831.356 39.7528 831.356C43.1602 831.356 45.9228 834.118 45.9228 837.526V843.696Z" fill="#6CAE8E"/>
<path fill-rule="evenodd" clip-rule="evenodd" d="M68.1097 843.696H55.769V837.526C55.769 834.118 58.5316 831.356 61.9396 831.356C65.3471 831.356 68.1097 834.118 68.1097 837.526V843.696Z" fill="#6CAE8E"/>
<path fill-rule="evenodd" clip-rule="evenodd" d="M11.3952 819.907H68.1096V814.538H11.3952V819.907Z" fill="#4D5E82"/>
<path fill-rule="evenodd" clip-rule="evenodd" d="M79.5197 814.538V872.931H115.428V833.931L79.5197 814.538Z" fill="#659BC2"/>
<path fill-rule="evenodd" clip-rule="evenodd" d="M79.5197 814.539L115.428 833.931V817.302L79.5197 797.909V814.539Z" fill="#4D5E82"/>
<path fill-rule="evenodd" clip-rule="evenodd" d="M91.4326 872.931H103.514V849.775H91.4326V872.931Z" fill="#FFFFFE"/>
</g>
<g clip-path="url(#clip1)">
<path fill-rule="evenodd" clip-rule="evenodd" d="M115.532 872.622H181.616V732.062H115.532V872.622Z" fill="#659BC2"/>
<path fill-rule="evenodd" clip-rule="evenodd" d="M181.616 721.11L148.574 701.425L115.532 721.11V732.062H181.616V721.11Z" fill="#010604"/>
<path fill-rule="evenodd" clip-rule="evenodd" d="M128.247 759.702H134.906V748.292H128.247V759.702Z" fill="#4D5E82"/>
<path fill-rule="evenodd" clip-rule="evenodd" d="M145.245 759.702H151.903V748.292H145.245V759.702Z" fill="#4D5E82"/>
<path fill-rule="evenodd" clip-rule="evenodd" d="M162.242 759.702H168.901V748.292H162.242V759.702Z" fill="#4D5E82"/>
<path fill-rule="evenodd" clip-rule="evenodd" d="M128.247 787.34H134.906V775.934H128.247V787.34Z" fill="#4D5E82"/>
<path fill-rule="evenodd" clip-rule="evenodd" d="M145.245 787.34H151.903V775.934H145.245V787.34Z" fill="#4D5E82"/>
<path fill-rule="evenodd" clip-rule="evenodd" d="M162.242 787.34H168.901V775.934H162.242V787.34Z" fill="#4D5E82"/>
<path fill-rule="evenodd" clip-rule="evenodd" d="M128.247 814.984H134.906V803.571H128.247V814.984Z" fill="#4D5E82"/>
<path fill-rule="evenodd" clip-rule="evenodd" d="M145.245 814.984H151.903V803.571H145.245V814.984Z" fill="#4D5E82"/>
<path fill-rule="evenodd" clip-rule="evenodd" d="M162.242 814.984H168.901V803.571H162.242V814.984Z" fill="#4D5E82"/>
<path fill-rule="evenodd" clip-rule="evenodd" d="M128.247 842.627H134.906V831.215H128.247V842.627Z" fill="#4D5E82"/>
<path fill-rule="evenodd" clip-rule="evenodd" d="M145.245 842.627H151.903V831.215H145.245V842.627Z" fill="#4D5E82"/>
<path fill-rule="evenodd" clip-rule="evenodd" d="M162.242 842.627H168.901V831.215H162.242V842.627Z" fill="#4D5E82"/>
<path fill-rule="evenodd" clip-rule="evenodd" d="M265.203 872.622H181.616V771.784L265.203 811.725V872.622Z" fill="#FFFFFE"/>
<path fill-rule="evenodd" clip-rule="evenodd" d="M181.616 751.813L265.203 791.752V811.725L181.616 771.784V751.813Z" fill="#4D5E82"/>
<path fill-rule="evenodd" clip-rule="evenodd" d="M207.498 832.437H196.088V826.734C196.088 823.579 198.642 821.03 201.793 821.03C204.944 821.03 207.498 823.579 207.498 826.734V832.437Z" fill="#6CAE8E"/>
<path fill-rule="evenodd" clip-rule="evenodd" d="M229.114 832.437H217.704V826.734C217.704 823.579 220.259 821.03 223.41 821.03C226.561 821.03 229.114 823.579 229.114 826.734V832.437Z" fill="#6CAE8E"/>
<path fill-rule="evenodd" clip-rule="evenodd" d="M250.731 832.437H239.321V826.734C239.321 823.579 241.875 821.03 245.026 821.03C248.177 821.03 250.731 823.579 250.731 826.734V832.437Z" fill="#6CAE8E"/>
<path fill-rule="evenodd" clip-rule="evenodd" d="M207.498 808.227H196.088V802.524C196.088 799.37 198.642 796.815 201.793 796.815C204.944 796.815 207.498 799.37 207.498 802.524V808.227Z" fill="#6CAE8E"/>
<path fill-rule="evenodd" clip-rule="evenodd" d="M207.498 872.622H239.321V844.484H207.498V872.622Z" fill="#659BC2"/>
<path fill-rule="evenodd" clip-rule="evenodd" d="M329.627 816.916C329.627 831.535 317.774 843.39 303.153 843.39C288.533 843.39 276.68 831.535 276.68 816.916C276.68 802.291 288.533 790.442 303.153 790.442C317.774 790.442 329.627 802.291 329.627 816.916Z" fill="#FED183"/>
<path fill-rule="evenodd" clip-rule="evenodd" d="M300.133 872.622H306.174V828.805H300.133V872.622Z" fill="#010604"/>
<path fill-rule="evenodd" clip-rule="evenodd" d="M343.672 872.622H444.816V811.504H343.672V872.622Z" fill="#6CAE8E"/>
<path fill-rule="evenodd" clip-rule="evenodd" d="M444.816 787.34H343.672L334.877 811.503H453.611L444.816 787.34Z" fill="#4D5E82"/>
<path fill-rule="evenodd" clip-rule="evenodd" d="M367.522 836.028H356.348V830.441C356.348 827.356 358.849 824.854 361.935 824.854C365.021 824.854 367.522 827.356 367.522 830.441V836.028Z" fill="#FFFFFE"/>
<path fill-rule="evenodd" clip-rule="evenodd" d="M389.062 836.028H377.887V830.441C377.887 827.356 380.388 824.854 383.474 824.854C386.56 824.854 389.062 827.356 389.062 830.441V836.028Z" fill="#FFFFFE"/>
<path fill-rule="evenodd" clip-rule="evenodd" d="M410.601 836.028H399.427V830.441C399.427 827.356 401.928 824.854 405.014 824.854C408.1 824.854 410.601 827.356 410.601 830.441V836.028Z" fill="#FFFFFE"/>
<path fill-rule="evenodd" clip-rule="evenodd" d="M356.348 850.559H432.141V845.52H356.348V850.559Z" fill="#4D5E82"/>
<path d="M424.771 708.303H369.43C368.346 708.303 367.467 709.183 367.467 710.267V765.642C367.467 766.726 368.346 767.606 369.43 767.606H424.771C425.854 767.606 426.733 766.726 426.733 765.642V710.267C426.733 709.183 425.854 708.303 424.771 708.303Z" fill="#5A99FC"/>
<path d="M397.886 746.414C405.081 746.414 410.914 740.574 410.914 733.37C410.914 726.166 405.081 720.326 397.886 720.326C390.691 720.326 384.859 726.166 384.859 733.37C384.859 740.574 390.691 746.414 397.886 746.414Z" fill="#85B4FF"/>
<path d="M407.165 729.811C408.099 731.077 408.458 732.22 408.458 733.773C408.458 735.657 407.683 737.397 406.361 738.807L407.165 741.812H409.607L412.178 738.893L412.868 734.622L413.011 732.076L410.469 729.2C408.209 728.927 407.107 729.131 407.165 729.811Z" fill="white"/>
<path d="M378.74 742.157L379.185 743.926C379.185 743.926 384.442 754.727 396.278 758.739C396.278 758.739 407.046 754.137 411.829 746.328L405.226 740.561C405.226 740.561 402.066 743.078 397.369 743.078C392.673 743.078 386.295 740.273 386.295 734.492C386.295 728.711 392.902 726.596 392.902 726.596L390.087 725.906H382.891L378.324 736.922L378.74 742.157Z" fill="white"/>
<path d="M418.512 730.016C418.311 729.815 413.186 723.588 397.2 718.08C396.695 717.734 396.421 717.627 396.378 717.759C381.529 721.55 374.244 729.518 374.244 730.016C374.244 730.514 376.37 738.001 377.749 741.05C377.864 741.309 379.702 744.559 381.067 746.328C380.263 744.559 379.386 743.02 379.386 740.374C379.386 732.91 385.16 726.841 392.385 726.582C392.558 726.582 392.744 726.582 392.917 726.597L391.193 724.871C391.193 724.871 398.131 723.706 407.036 729.099C407.036 729.099 407.165 729.372 407.036 730.178C407.036 730.178 411.23 731.99 411.589 735.513C411.948 739.037 409.722 741.05 407.926 741.338C407.926 741.338 408.86 739.885 407.424 739.108C407.122 738.936 406.763 738.864 406.404 738.878C403.661 738.878 403.345 742.014 403.345 742.014C403.316 742.172 403.316 742.33 403.316 742.488C403.316 742.488 402.856 747.076 411.015 746.99C411.015 746.99 415.151 742.301 416.243 738.087C416.645 736.534 416.932 735.369 417.119 734.506C417.579 733.284 418.024 731.483 418.455 730.174L418.512 730.016Z" fill="#5A99FC"/>
<path opacity="0.895424" d="M403.488 730.494C403.603 730.436 403.976 730.249 404.407 729.804C405.269 729.919 406.116 730.192 406.116 730.192C404.551 729.243 402.411 728.682 400.041 728.696C400.041 728.696 400.946 729.991 403.459 730.523C403.459 730.523 403.473 730.508 403.488 730.494Z" fill="white"/>
<path d="M418.67 729.308C410.023 721.828 399.093 717.942 396.824 717.194L396.608 717.121L396.321 717.033L395.818 717.194C393.549 717.942 382.618 721.828 373.971 729.308L373.785 729.469L373.828 729.718C373.842 729.777 374.776 735.453 377.964 741.862C379.846 745.631 382.13 748.901 384.744 751.614C387.947 754.928 391.681 757.378 395.832 758.903L396.077 758.991L396.321 759.079L396.579 758.976L396.824 758.888C400.975 757.363 404.695 754.914 407.912 751.599C410.526 748.901 412.81 745.616 414.692 741.847C417.88 735.453 418.828 729.762 418.828 729.704L418.871 729.455L418.67 729.308ZM413.902 741.451C412.063 745.132 409.837 748.344 407.28 750.983C404.106 754.254 400.429 756.659 396.321 758.14C392.213 756.659 388.536 754.269 385.362 750.998C382.805 748.358 380.579 745.161 378.74 741.48C375.968 735.937 374.934 730.965 374.718 729.821C383.58 722.239 394.784 718.455 396.321 717.957C397.843 718.455 409.061 722.239 417.923 729.821C417.708 730.95 416.659 735.922 413.902 741.451Z" fill="#85B4FF"/>
</g>
<path d="M68.6067 660H13.2657C12.1819 660 11.3033 660.879 11.3033 661.964V717.339C11.3033 718.423 12.1819 719.302 13.2657 719.302H68.6067C69.6905 719.302 70.5691 718.423 70.5691 717.339V661.964C70.5691 660.879 69.6905 660 68.6067 660Z" fill="#5A99FC"/>
<rect x="30.5082" y="719.173" width="14.5492" height="14.5492" transform="rotate(-45 30.5082 719.173)" fill="#5A99FC"/>
<path d="M41.7224 698.111C48.9173 698.111 54.7499 692.271 54.7499 685.067C54.7499 677.863 48.9173 672.023 41.7224 672.023C34.5274 672.023 28.6948 677.863 28.6948 685.067C28.6948 692.271 34.5274 698.111 41.7224 698.111Z" fill="#85B4FF"/>
<path d="M51.0016 681.508C51.9352 682.774 52.2943 683.916 52.2943 685.47C52.2943 687.354 51.5187 689.094 50.1973 690.503L51.0016 693.509H53.4434L56.0144 690.589L56.7039 686.318L56.8475 683.773L54.3052 680.896C52.0448 680.624 50.9436 680.828 51.0016 681.508Z" fill="white"/>
<path d="M22.5763 693.854L23.0216 695.623C23.0216 695.623 28.2786 706.423 40.114 710.436C40.114 710.436 50.8817 705.834 55.6647 698.025L49.0624 692.258C49.0624 692.258 45.9025 694.774 41.2056 694.774C36.5088 694.774 30.1315 691.97 30.1315 686.189C30.1315 680.407 36.7386 678.293 36.7386 678.293L33.9234 677.603H26.7273L22.1598 688.619L22.5763 693.854Z" fill="white"/>
<path d="M62.3483 681.713C62.1473 681.512 57.0225 675.284 41.036 669.776C40.5307 669.43 40.2568 669.323 40.2144 669.456C25.3654 673.247 18.0804 681.215 18.0804 681.713C18.0804 682.211 20.2062 689.698 21.585 692.747C21.7 693.005 23.5385 696.256 24.903 698.025C24.0986 696.256 23.2225 694.717 23.2225 692.071C23.2225 684.607 28.9966 678.538 36.2213 678.279C36.3937 678.279 36.5804 678.279 36.7528 678.293L35.0292 676.567C35.0292 676.567 41.9667 675.402 50.872 680.796C50.872 680.796 51.0013 681.069 50.872 681.874C50.872 681.874 55.0661 683.686 55.4252 687.21C55.7843 690.733 53.5579 692.747 51.7625 693.034C51.7625 693.034 52.6961 691.582 51.2598 690.805C50.9582 690.633 50.5991 690.561 50.24 690.575C47.4966 690.575 47.1806 693.71 47.1806 693.71C47.1519 693.868 47.1519 694.027 47.1519 694.185C47.1519 694.185 46.6922 698.772 54.8507 698.686C54.8507 698.686 58.9873 693.998 60.0789 689.784C60.4811 688.231 60.7684 687.066 60.9551 686.203C61.4147 684.981 61.86 683.18 62.2909 681.871L62.3483 681.713Z" fill="#5A99FC"/>
<path opacity="0.895424" d="M47.324 682.19C47.4389 682.133 47.8123 681.946 48.2432 681.5C49.105 681.615 49.9525 681.888 49.9525 681.888C48.3869 680.939 46.2467 680.378 43.8768 680.393C43.8768 680.393 44.7817 681.687 47.2953 682.219C47.2953 682.219 47.3096 682.205 47.324 682.19Z" fill="white"/>
<path d="M62.5064 681.005C53.8596 673.525 42.9291 669.639 40.6597 668.891L40.4442 668.817L40.1569 668.729L39.6542 668.891C37.3848 669.639 26.4543 673.525 17.8075 681.005L17.6208 681.166L17.6639 681.415C17.6782 681.474 18.6119 687.149 21.8005 693.558C23.6821 697.327 25.9659 700.598 28.5801 703.311C31.7831 706.625 35.5176 709.074 39.6686 710.599L39.9128 710.687L40.1569 710.775L40.4155 710.673L40.6597 710.585C44.8107 709.06 48.5308 706.61 51.7482 703.296C54.3623 700.598 56.6461 697.313 58.5277 693.543C61.7164 687.149 62.6644 681.459 62.6644 681.4L62.7075 681.151L62.5064 681.005ZM57.7377 693.148C55.8992 696.829 53.6729 700.04 51.1162 702.68C47.9419 705.951 44.2649 708.356 40.1569 709.837C36.049 708.356 32.372 705.965 29.1977 702.695C26.641 700.055 24.4147 696.858 22.5762 693.177C19.804 687.633 18.7699 682.662 18.5544 681.518C27.4166 673.936 38.6201 670.152 40.1569 669.653C41.6795 670.152 52.8973 673.936 61.7595 681.518C61.544 682.647 60.4955 687.619 57.7377 693.148Z" fill="#85B4FF"/>
<path d="M486.793 190C502.924 190 516 176.883 516 160.703C516 146.804 506.347 135.173 493.402 132.168C493.137 102.76 469.292 79 439.911 79C419.739 79 402.178 90.2002 393.064 106.738C390.29 105.534 387.233 104.863 384.02 104.863C372.442 104.863 362.887 113.523 361.424 124.736C346.359 127.733 335 141.059 335 157.051C335 175.248 349.707 190 367.848 190C372.901 190 483.331 190 486.793 190Z" fill="#5A99FC"/>
<path d="M93.7932 584C109.924 584 123 570.883 123 554.703C123 540.804 113.347 529.173 100.402 526.168C100.137 496.76 76.2917 473 46.9107 473C26.7391 473 9.17822 484.2 0.06353 500.738C-2.7098 499.534 -5.76665 498.863 -8.98046 498.863C-20.5581 498.863 -30.1133 507.523 -31.5761 518.736C-46.6412 521.733 -58 535.059 -58 551.051C-58 569.248 -43.2934 584 -25.1524 584C-20.0992 584 90.3313 584 93.7932 584Z" fill="#5A99FC"/>
<path d="M138 28.5474C138 26.3382 139.791 24.5474 142 24.5474H315C317.209 24.5474 319 26.3382 319 28.5474V81.5474C319 83.7565 317.209 85.5474 315 85.5474H142C139.791 85.5474 138 83.7565 138 81.5474V28.5474Z" fill="white" fill-opacity="0.2"/>
<path d="M182.917 46.4385H183.977V42.2357H186.793C189.231 42.2357 190.14 40.6215 190.14 39.2545C190.14 37.7711 189.322 36.2587 186.793 36.2587H182.917V46.4385ZM186.884 41.3195H183.977V37.1748H186.884C188.656 37.1748 189.125 38.3673 189.125 39.2545C189.125 40.2288 188.55 41.3195 186.884 41.3195Z" fill="white"/>
<path d="M194.511 46.6131C196.494 46.6131 197.827 45.1588 197.827 42.7156C197.827 40.2434 196.494 38.8327 194.511 38.8327C192.527 38.8327 191.195 40.287 191.195 42.7302C191.195 45.2024 192.527 46.6131 194.511 46.6131ZM194.511 45.6969C193.072 45.6969 192.3 44.5771 192.3 42.7302C192.3 40.796 193.072 39.7489 194.511 39.7489C195.949 39.7489 196.721 40.8687 196.721 42.7156C196.721 44.5771 195.919 45.6969 194.511 45.6969Z" fill="white"/>
<path d="M201.171 46.4385H202.14L203.654 41.9303C203.73 41.6976 203.851 41.3341 203.972 40.9414C204.093 41.3341 204.229 41.7122 204.305 41.9448L205.85 46.4385H206.804L208.711 39.0072H207.652L206.425 44.3589C206.364 44.6498 206.289 44.9406 206.228 45.246C206.137 44.9406 206.062 44.6498 205.971 44.3589L204.351 39.0072H203.624L202.004 44.3589C201.928 44.6352 201.852 44.8825 201.776 45.1733L201.595 44.3589L200.323 39.0072H199.263L201.171 46.4385Z" fill="white"/>
<path d="M213.365 46.6131C214.258 46.6131 215.122 46.2495 215.727 45.7696L215.152 45.0861C214.561 45.5078 213.971 45.6678 213.411 45.6678C212.093 45.6678 211.306 44.6498 211.124 43.1373H216.393C216.424 42.8174 216.424 42.5847 216.424 42.4248C216.424 39.9234 215.016 38.8327 213.365 38.8327C211.381 38.8327 210.004 40.2434 210.004 42.7156C210.004 44.8098 211.276 46.6131 213.365 46.6131ZM211.094 42.2212C211.185 40.5342 212.123 39.7489 213.365 39.7489C214.183 39.7489 215.334 40.2143 215.349 42.2212H211.094Z" fill="white"/>
<path d="M218.548 46.4385H219.608V42.2357C219.608 40.4033 220.713 39.8507 221.486 39.8507C221.985 39.8507 222.288 40.0107 222.485 40.127L222.652 39.1381C222.44 38.9927 222.046 38.8327 221.561 38.8327C220.607 38.8327 219.956 39.3417 219.608 40.0543V39.0072H218.548V46.4385Z" fill="white"/>
<path d="M227.147 46.6131C228.04 46.6131 228.903 46.2495 229.509 45.7696L228.933 45.0861C228.343 45.5078 227.752 45.6678 227.192 45.6678C225.875 45.6678 225.087 44.6498 224.906 43.1373H230.175C230.205 42.8174 230.205 42.5847 230.205 42.4248C230.205 39.9234 228.797 38.8327 227.147 38.8327C225.163 38.8327 223.785 40.2434 223.785 42.7156C223.785 44.8098 225.057 46.6131 227.147 46.6131ZM224.875 42.2212C224.966 40.5342 225.905 39.7489 227.147 39.7489C227.964 39.7489 229.115 40.2143 229.13 42.2212H224.875Z" fill="white"/>
<path d="M234.994 46.6131C235.964 46.6131 236.584 46.2495 237.054 45.7987V46.4385H238.114V35.9387L237.054 36.4477V39.5308C236.584 39.1672 235.948 38.8327 234.994 38.8327C233.026 38.8327 231.8 40.2724 231.8 42.7156C231.8 45.0861 233.011 46.6131 234.994 46.6131ZM235.116 45.6969C233.753 45.6969 232.905 44.3735 232.905 42.7156C232.905 40.8105 233.692 39.7489 235.116 39.7489C236.1 39.7489 236.736 40.3306 237.054 40.8251V44.5334C236.63 45.2751 235.888 45.6969 235.116 45.6969Z" fill="white"/>
<path d="M247.532 46.6131C249.47 46.6131 250.636 45.2315 250.636 42.7156C250.636 40.2724 249.379 38.8327 247.441 38.8327C246.684 38.8327 245.881 39.2108 245.382 39.7344V35.9387L244.322 36.4477V46.4385H245.382V45.7696C245.881 46.1768 246.442 46.6131 247.532 46.6131ZM247.365 45.6969C246.593 45.6969 245.806 45.2315 245.382 44.5334V40.8832C245.669 40.4033 246.411 39.7489 247.365 39.7489C248.804 39.7489 249.531 40.8105 249.531 42.7156C249.531 44.548 248.819 45.6969 247.365 45.6969Z" fill="white"/>
<path d="M253.748 49.2598H254.793L258.745 39.0072H257.609L255.625 44.2862L255.353 45.0424C255.262 44.7807 255.186 44.5334 255.095 44.2862L253.142 39.0072H252.067L254.899 46.2059L253.748 49.2598Z" fill="white"/>
<g clip-path="url(#clip2)">
<path fill-rule="evenodd" clip-rule="evenodd" d="M241.172 65.2023V65.1563C241.172 60.5362 244.77 56.6254 249.833 56.6254C252.758 56.6254 254.556 57.4265 256.283 58.8622L254.413 61.056C253.118 59.9706 251.846 59.2872 249.713 59.2872C246.618 59.2872 244.265 61.949 244.265 65.1075V65.1563C244.265 68.5475 246.545 71.0456 249.976 71.0456C251.557 71.0456 252.995 70.5517 254.027 69.7965V66.7098V66.0608L256.882 64.1887V71.1174C255.228 72.5071 252.855 73.6844 249.879 73.6844C244.627 73.6844 241.172 70.009 241.172 65.2023Z" fill="white"/>
<path fill-rule="evenodd" clip-rule="evenodd" d="M186.207 57.1901L178.818 73.8041H181.84L183.568 69.8214L184.649 67.2515L187.525 60.6559L190.428 67.2515L191.509 69.8214L193.21 73.8041H196.329L188.943 57.1901H186.207Z" fill="white"/>
<path fill-rule="evenodd" clip-rule="evenodd" d="M227.555 56.8477L220.166 73.4616H223.189L224.916 69.479L225.997 66.9091L228.873 60.3135L231.776 66.9091L232.857 69.479L234.558 73.4616H237.677L230.291 56.8477H227.555Z" fill="white"/>
<path fill-rule="evenodd" clip-rule="evenodd" d="M276.835 65.2609C276.835 68.4654 274.509 71.0812 271.174 71.0812C267.842 71.0812 265.466 68.4194 265.466 65.2149V65.1661C265.466 61.9616 267.792 59.3458 271.124 59.3458C274.459 59.3458 276.835 62.0076 276.835 65.2149V65.2609ZM271.174 56.684C266.015 56.684 262.37 60.5719 262.37 65.2149V65.2609C262.37 69.9039 265.968 73.743 271.124 73.743C276.283 73.743 279.927 69.8551 279.927 65.2149V65.1661C279.927 60.523 276.33 56.684 271.174 56.684Z" fill="white"/>
<path fill-rule="evenodd" clip-rule="evenodd" d="M297.621 56.9659V68.3712L288.628 56.9659H285.892V73.4622H288.795V61.7267L298.054 73.4622H300.524V56.9659H297.621Z" fill="white"/>
<path fill-rule="evenodd" clip-rule="evenodd" d="M211.586 67.216C213.936 66.5556 215.59 64.9304 215.59 62.2198V62.1738C215.59 60.7353 215.087 59.5092 214.199 58.6161C213.12 57.5767 211.466 56.9651 209.356 56.9651H201.87V73.4614H204.004H204.822V71.6265V67.7099V67.1988V59.6039H209.116C209.487 59.6039 209.823 59.6441 210.142 59.6987C211.694 59.9686 212.594 60.8731 212.594 62.3375V62.3863C212.594 64.0575 211.25 65.1429 209.139 65.1429H207.5L206.354 67.7099H206.567H208.517L212.641 73.4614H216.119L211.586 67.216Z" fill="white"/>
</g>
<path d="M120.945 69.4202C137.945 69.4202 151.726 55.6219 151.726 38.6008C151.726 21.5797 137.945 7.78137 120.945 7.78137C103.946 7.78137 90.1647 21.5797 90.1647 38.6008C90.1647 55.6219 103.946 69.4202 120.945 69.4202Z" fill="#85B4FF"/>
<path d="M142.87 30.1919C145.075 33.1821 145.924 35.8825 145.924 39.5523C145.924 44.0036 144.091 48.1151 140.969 51.4451L142.87 58.5468H148.639L154.713 51.649L156.342 41.557L156.682 35.5427L150.675 28.7468C145.334 28.1034 142.733 28.5851 142.87 30.1919Z" fill="white"/>
<path d="M75.7085 59.3617L76.7606 63.5412C76.7606 63.5412 89.1814 89.0598 117.145 98.5401C117.145 98.5401 142.586 87.6667 153.887 69.2158L138.288 55.59C138.288 55.59 130.822 61.5364 119.724 61.5364C108.627 61.5364 93.5592 54.9104 93.5592 41.2506C93.5592 27.5908 109.17 22.5959 109.17 22.5959L102.518 20.9648H85.5162L74.7244 46.9932L75.7085 59.3617Z" fill="white"/>
<path d="M169.679 30.6762C169.203 30.2004 157.095 15.4873 119.324 2.47315C118.13 1.65541 117.483 1.40295 117.382 1.71577C82.2983 10.6735 65.0859 29.4992 65.0859 30.6762C65.0859 31.8531 70.1085 49.542 73.3664 56.7457C73.6379 57.3573 77.9818 65.0367 81.2058 69.2161C79.3053 65.0367 77.2352 61.4009 77.2352 55.1486C77.2352 37.5133 90.8777 23.1739 107.948 22.5623C108.355 22.5623 108.796 22.5623 109.204 22.5962L105.131 18.5187C105.131 18.5187 121.523 15.7664 142.563 28.5087C142.563 28.5087 142.869 29.1543 142.563 31.0571C142.563 31.0571 152.473 35.3386 153.321 43.6635C154.17 51.9885 148.909 56.7457 144.667 57.4253C144.667 57.4253 146.873 53.9933 143.48 52.1584C142.767 51.7507 141.918 51.5808 141.07 51.6148C134.588 51.6148 133.842 59.0223 133.842 59.0223C133.774 59.3961 133.774 59.7698 133.774 60.1436C133.774 60.1436 132.688 70.9831 151.964 70.7792C151.964 70.7792 161.737 59.7019 164.317 49.7459C165.267 46.0761 165.946 43.3237 166.387 41.285C167.473 38.3967 168.525 34.1421 169.543 31.0499L169.679 30.6762Z" fill="#5A99FC"/>
<path opacity="0.895424" d="M134.18 31.8045C134.452 31.6686 135.334 31.2268 136.352 30.1735C138.388 30.4453 140.391 31.0909 140.391 31.0909C136.692 28.8483 131.635 27.5231 126.035 27.557C126.035 27.557 128.173 30.6152 134.112 31.8724C134.112 31.8724 134.146 31.8385 134.18 31.8045Z" fill="white"/>
<path d="M170.052 29.0024C149.622 11.3307 123.796 2.14833 118.434 0.381155L117.925 0.207903L117.247 0L116.059 0.381155C110.697 2.14833 84.871 11.3307 64.4412 29.0024L64 29.3836L64.1018 29.9726C64.1357 30.1112 66.3416 43.5209 73.8756 58.6632C78.3213 67.5683 83.7172 75.2954 89.8937 81.7057C97.4615 89.5367 106.285 95.3233 116.093 98.927L116.67 99.1349L117.247 99.3428L117.857 99.1002L118.434 98.8923C128.242 95.2887 137.032 89.5021 144.633 81.6711C150.81 75.2954 156.206 67.5337 160.652 58.6285C168.186 43.5209 170.425 30.0766 170.425 29.938L170.527 29.3489L170.052 29.0024ZM158.785 57.693C154.441 66.3902 149.181 73.9787 143.14 80.2157C135.64 87.9428 126.952 93.6255 117.247 97.1251C107.541 93.6255 98.8529 87.9774 91.3529 80.2504C85.3122 74.0133 80.052 66.4595 75.7081 57.7623C69.1584 44.6644 66.7149 32.9179 66.2059 30.2152C87.1448 12.3009 113.615 3.36109 117.247 2.18298C120.844 3.36109 147.348 12.3009 168.287 30.2152C167.778 32.8833 165.301 44.6297 158.785 57.693Z" fill="#85B4FF"/>
<defs>
<clipPath id="clip0">
<rect width="152.475" height="134.434" fill="white" transform="translate(-37 738.566)"/>
</clipPath>
<clipPath id="clip1">
<rect width="736.771" height="171.68" fill="white" transform="translate(115.475 701.32)"/>
</clipPath>
<clipPath id="clip2">
<rect width="121.939" height="17.4199" fill="white" transform="translate(178.818 56.4326)"/>
</clipPath>
</defs>
</svg>
