<svg width="1912" height="168" viewBox="0 0 1912 168" fill="none" xmlns="http://www.w3.org/2000/svg">
<g id="Group 55">
<g id="Group 47">
<g id="Group 46">
<g id="Group 48">
<g id="Group 51">
<g id="Group 53">
<g id="Rectangle Copy 12" filter="url(#filter0_d)">
<rect x="44" y="120" width="302" height="44" rx="10.9" fill="url(#paint0_linear)"/>
</g>
<path id="Aragon was born" fill-rule="evenodd" clip-rule="evenodd" d="M94.9312 150.8L101.229 132.496H104.147L110.342 150.8H108.141L106.349 145.526H98.7968L97.0304 150.8H94.9312ZM102.586 134.339L99.4112 143.76H105.76L102.586 134.339ZM113.414 150.8V137.411H115.539V139.818C116.384 138.307 117.536 137.258 119.942 137.181V139.178C117.254 139.306 115.539 140.15 115.539 143.453V150.8H113.414ZM126.394 151.03C123.91 151.03 121.939 149.827 121.939 147.088C121.939 143.99 125.216 142.941 128.646 142.941H130.566V141.968C130.566 139.843 129.747 138.947 127.699 138.947C125.856 138.947 124.832 139.715 124.627 141.354H122.502C122.784 138.307 125.216 137.181 127.802 137.181C130.362 137.181 132.691 138.23 132.691 141.968V150.8H130.566V149.11C129.568 150.365 128.365 151.03 126.394 151.03ZM126.598 149.341C128.851 149.341 130.566 148.189 130.566 146.115V144.451H128.723C126.035 144.451 124.064 145.117 124.064 147.088C124.064 148.47 124.73 149.341 126.598 149.341ZM142.214 155.69C138.246 155.69 136.506 153.821 136.147 151.568H138.323C138.63 153.104 139.91 153.898 142.189 153.898C144.826 153.898 146.49 152.643 146.49 149.776V147.83C145.722 149.136 143.904 150.365 141.958 150.365C138.451 150.365 135.866 147.702 135.866 144.016V143.837C135.866 140.202 138.426 137.181 142.112 137.181C144.339 137.181 145.722 138.256 146.49 139.562V137.411H148.614V149.904C148.589 153.795 145.952 155.69 142.214 155.69ZM142.189 148.598C144.672 148.598 146.566 146.858 146.566 143.862V143.683C146.566 140.688 144.928 138.947 142.317 138.947C139.654 138.947 138.067 140.918 138.067 143.734V143.939C138.067 146.858 139.936 148.598 142.189 148.598ZM158.496 149.264C161.184 149.264 162.874 147.242 162.874 144.221V144.042C162.874 140.944 161.158 138.947 158.496 138.947C155.808 138.947 154.118 140.944 154.118 144.016V144.221C154.118 147.267 155.782 149.264 158.496 149.264ZM158.47 151.03C154.656 151.03 151.917 148.138 151.917 144.221V144.016C151.917 139.997 154.707 137.181 158.496 137.181C162.285 137.181 165.075 139.971 165.075 143.99V144.195C165.075 148.24 162.285 151.03 158.47 151.03ZM168.378 150.8V137.411H170.502V139.536C171.117 138.282 172.602 137.181 174.803 137.181C177.568 137.181 179.514 138.691 179.514 142.582V150.8H177.389V142.429C177.389 140.074 176.39 139.024 174.24 139.024C172.269 139.024 170.502 140.278 170.502 142.685V150.8H168.378ZM193.158 150.8L189.037 137.411H191.341L194.464 148.189L197.715 137.411H199.558L202.605 148.189L205.754 137.411H207.93L203.757 150.8H201.402L198.611 140.765L195.488 150.8H193.158ZM214.15 151.03C211.667 151.03 209.696 149.827 209.696 147.088C209.696 143.99 212.973 142.941 216.403 142.941H218.323V141.968C218.323 139.843 217.504 138.947 215.456 138.947C213.613 138.947 212.589 139.715 212.384 141.354H210.259C210.541 138.307 212.973 137.181 215.558 137.181C218.118 137.181 220.448 138.23 220.448 141.968V150.8H218.323V149.11C217.325 150.365 216.122 151.03 214.15 151.03ZM214.355 149.341C216.608 149.341 218.323 148.189 218.323 146.115V144.451H216.48C213.792 144.451 211.821 145.117 211.821 147.088C211.821 148.47 212.486 149.341 214.355 149.341ZM228.768 151.03C225.568 151.03 223.648 149.418 223.52 146.678H225.594C225.747 148.266 226.592 149.264 228.742 149.264C230.765 149.264 231.661 148.573 231.661 147.139C231.661 145.731 230.611 145.27 228.538 144.886C225.056 144.246 223.878 143.274 223.878 140.944C223.878 138.461 226.31 137.181 228.41 137.181C230.816 137.181 232.89 138.154 233.248 141.046H231.2C230.893 139.587 230.074 138.947 228.384 138.947C226.848 138.947 225.85 139.715 225.85 140.867C225.85 142.07 226.515 142.557 228.973 142.992C231.738 143.504 233.683 144.118 233.683 146.96C233.683 149.392 232.019 151.03 228.768 151.03ZM250.349 151.03C248.173 151.03 246.586 149.93 245.818 148.598V150.8H243.693V131.011H245.818V139.664C246.586 138.358 248.403 137.181 250.349 137.181C253.856 137.181 256.442 139.741 256.442 143.914V144.118C256.442 148.214 254.035 151.03 250.349 151.03ZM250.144 149.264C252.806 149.264 254.24 147.472 254.24 144.221V144.016C254.24 140.637 252.371 138.947 250.118 138.947C247.635 138.947 245.741 140.586 245.741 144.016V144.221C245.741 147.651 247.533 149.264 250.144 149.264ZM265.325 149.264C268.013 149.264 269.702 147.242 269.702 144.221V144.042C269.702 140.944 267.987 138.947 265.325 138.947C262.637 138.947 260.947 140.944 260.947 144.016V144.221C260.947 147.267 262.611 149.264 265.325 149.264ZM265.299 151.03C261.485 151.03 258.746 148.138 258.746 144.221V144.016C258.746 139.997 261.536 137.181 265.325 137.181C269.114 137.181 271.904 139.971 271.904 143.99V144.195C271.904 148.24 269.114 151.03 265.299 151.03ZM275.206 150.8V137.411H277.331V139.818C278.176 138.307 279.328 137.258 281.734 137.181V139.178C279.046 139.306 277.331 140.15 277.331 143.453V150.8H275.206ZM284.832 150.8V137.411H286.957V139.536C287.571 138.282 289.056 137.181 291.258 137.181C294.022 137.181 295.968 138.691 295.968 142.582V150.8H293.843V142.429C293.843 140.074 292.845 139.024 290.694 139.024C288.723 139.024 286.957 140.278 286.957 142.685V150.8H284.832Z" fill="#7F8198"/>
<g id="NOV 2016">
<path d="M14.4975 97.7496H27.0693L14.4975 105.164V106.693H29.4002V105.301H16.7861L29.4002 97.8867V96.3574H14.4975V97.7496Z" fill="#7F8198"/>
<path d="M29.5584 84.5895C29.5584 79.9172 26.0041 77.7445 21.9436 77.7445C17.883 77.7445 14.3393 79.9172 14.3393 84.5895C14.3393 89.2301 17.883 91.4133 21.9436 91.4133C26.0041 91.4133 29.5584 89.2301 29.5584 84.5895ZM28.2611 84.5895C28.2611 88.302 25.3607 89.8945 21.9436 89.8945C18.5369 89.8945 15.626 88.302 15.626 84.5895C15.626 80.8453 18.5369 79.2633 21.9436 79.2633C25.3607 79.2633 28.2611 80.8453 28.2611 84.5895Z" fill="#7F8198"/>
<path d="M14.4975 63.6035L27.1959 68.4867L14.4975 73.391V74.9836L29.4002 69.0773V67.9066L14.4975 62.0215L14.4975 63.6035Z" fill="#7F8198"/>
<path d="M28.0818 50.1082C26.1096 46.8176 22.6924 42.641 18.7162 42.641C15.9529 42.641 14.3498 44.4551 14.3498 47.1234C14.3498 50.1504 16.533 51.8906 19.4229 51.8906L19.5072 50.4773C17.3029 50.4352 15.6471 49.4016 15.6471 47.1129C15.6471 45.1512 16.8705 44.0859 18.6846 44.0859C22.7029 44.0859 25.867 48.716 28.0818 52.2598H29.4002V41.85H28.0818V50.1082Z" fill="#7F8198"/>
<path d="M29.5584 33.4465C29.5584 29.7445 25.7299 28.3418 21.9857 28.3418C18.1994 28.3418 14.3076 29.7762 14.3076 33.5941C14.3076 37.8023 18.6846 38.7305 21.9436 38.7305C25.1814 38.7305 29.5584 37.7707 29.5584 33.4465ZM28.1873 33.4781C28.1873 36.6211 24.7701 37.3066 21.9436 37.3066C19.0959 37.3066 15.7104 36.6316 15.7104 33.5941C15.7104 30.7254 18.8639 29.8289 21.9541 29.8289C25.0021 29.8289 28.1873 30.7043 28.1873 33.4781Z" fill="#7F8198"/>
<path d="M14.4975 19.5269H15.7842C16.5857 19.5269 16.9021 19.9699 16.9021 20.7926L16.9021 23.3344H18.0307L18.0307 19.5797H29.4002V18.1559H14.4975V19.5269Z" fill="#7F8198"/>
<path d="M19.676 6.3457C19.676 6.80976 19.7393 7.26327 19.8553 7.69569L14.4975 4.49999L14.4975 6.1453L21.9857 10.6172C22.7451 11.1129 23.6521 11.3977 24.6119 11.3977C27.3436 11.3977 29.5584 9.13007 29.5584 6.3457C29.5584 3.57187 27.3436 1.30429 24.6119 1.30429C21.9014 1.30429 19.676 3.58241 19.676 6.3457ZM28.2084 6.3457C28.2084 8.3707 26.6053 9.98437 24.6119 9.98437C22.6502 9.98437 21.026 8.36015 21.026 6.3457C21.026 4.35234 22.6502 2.71757 24.6119 2.71757C26.5947 2.71757 28.2084 4.35234 28.2084 6.3457Z" fill="#7F8198"/>
</g>
<g id="FEB 2017">
<path d="M373.4 104.088V102.643H366.587V95.0707H365.247V102.643H359.837V94.016H358.497V104.088H373.4Z" fill="#7F8198"/>
<path d="M373.4 89.5992V79.8539H372.029V88.1543H366.587V80.6871H365.247V88.1543H359.837V79.8539H358.497V89.5992H373.4Z" fill="#7F8198"/>
<path d="M373.4 74.9625V70.016C373.4 67.2316 371.955 65.2593 369.276 65.2593C367.42 65.2593 365.912 66.3562 365.511 68.0015C365.058 66.8836 363.845 65.9871 362.326 65.9871C359.637 65.9871 358.497 67.9488 358.497 70.4484V74.9625H373.4ZM365.026 73.5176H359.816V70.4273C359.816 68.4656 360.691 67.3265 362.41 67.3265C364.119 67.3265 365.026 68.5289 365.026 69.9949V73.5176ZM372.019 73.5176H366.292V69.6152C366.292 67.7801 367.431 66.6832 369.118 66.6832C371.048 66.6832 372.019 67.8328 372.019 69.9949V73.5176Z" fill="#7F8198"/>
<path d="M372.082 52.7133C370.11 49.4226 366.692 45.2461 362.716 45.2461C359.953 45.2461 358.35 47.0601 358.35 49.7285C358.35 52.7554 360.533 54.4957 363.423 54.4957L363.507 53.0824C361.303 53.0402 359.647 52.0066 359.647 49.7179C359.647 47.7562 360.871 46.691 362.685 46.691C366.703 46.691 369.867 51.3211 372.082 54.8648H373.4V44.4551H372.082V52.7133Z" fill="#7F8198"/>
<path d="M373.558 36.0515C373.558 32.3496 369.73 30.9469 365.986 30.9469C362.199 30.9469 358.308 32.3812 358.308 36.1992C358.308 40.4074 362.685 41.3355 365.944 41.3355C369.181 41.3355 373.558 40.3758 373.558 36.0515ZM372.187 36.0832C372.187 39.2261 368.77 39.9117 365.944 39.9117C363.096 39.9117 359.71 39.2367 359.71 36.1992C359.71 33.3304 362.864 32.434 365.954 32.434C369.002 32.434 372.187 33.3093 372.187 36.0832Z" fill="#7F8198"/>
<path d="M358.497 22.132H359.784C360.586 22.132 360.902 22.575 360.902 23.3976V25.9394H362.031V22.1847H373.4V20.7609H358.497V22.132Z" fill="#7F8198"/>
<path d="M358.497 14.2137H359.826V5.25935L373.4 12.4523V10.8492L359.373 3.55075H358.497V14.2137Z" fill="#7F8198"/>
</g>
<g id="MAY 2017">
<path d="M604.497 94.459L616.563 99.4583L604.497 104.468V106.472H619.4V105.08H606.375L618.177 100.175V98.7622L606.396 93.8579H619.4V92.4657H604.497V94.459Z" fill="#7F8198"/>
<path d="M619.4 88.1543V86.5723L615.804 85.2856V78.7149L619.4 77.4493V75.8778L604.497 81.4043V82.6172L619.4 88.1543ZM614.549 84.8321L606.522 82.0055L614.549 79.1684V84.8321Z" fill="#7F8198"/>
<path d="M619.4 69.2778V67.7801H613.705L604.497 62.1059V63.8672L612.292 68.5395L604.497 73.2012V74.952L613.705 69.2778H619.4Z" fill="#7F8198"/>
<path d="M618.082 50.3297C616.11 47.0391 612.692 42.8626 608.716 42.8626C605.953 42.8626 604.35 44.6766 604.35 47.345C604.35 50.3719 606.533 52.1122 609.423 52.1122L609.507 50.6989C607.303 50.6567 605.647 49.6231 605.647 47.3344C605.647 45.3727 606.871 44.3075 608.685 44.3075C612.703 44.3075 615.867 48.9376 618.082 52.4813H619.4V42.0715H618.082V50.3297Z" fill="#7F8198"/>
<path d="M619.558 33.668C619.558 29.9661 615.73 28.5633 611.986 28.5633C608.199 28.5633 604.308 29.9977 604.308 33.8157C604.308 38.0239 608.685 38.952 611.944 38.952C615.181 38.952 619.558 37.9922 619.558 33.668ZM618.187 33.6997C618.187 36.8426 614.77 37.5282 611.944 37.5282C609.096 37.5282 605.71 36.8532 605.71 33.8157C605.71 30.9469 608.864 30.0504 611.954 30.0504C615.002 30.0504 618.187 30.9258 618.187 33.6997Z" fill="#7F8198"/>
<path d="M604.497 19.7485H605.784C606.586 19.7485 606.902 20.1915 606.902 21.0141V23.5559H608.031V19.8012H619.4V18.3774H604.497V19.7485Z" fill="#7F8198"/>
<path d="M604.497 11.8301H605.826V2.87583L619.4 10.0688V8.46568L605.373 1.16724H604.497V11.8301Z" fill="#7F8198"/>
</g>
<g id="MAR 2018">
<path d="M1024.5 94.9125L1036.56 99.9117L1024.5 104.922V106.925H1039.4V105.533H1026.37L1038.18 100.629V99.2156L1026.4 94.3114H1039.4V92.9192H1024.5V94.9125Z" fill="#7F8198"/>
<path d="M1039.4 88.6078V87.0258L1035.8 85.7391V79.1684L1039.4 77.9028V76.3313L1024.5 81.8578V83.0707L1039.4 88.6078ZM1034.55 85.2856L1026.52 82.459L1034.55 79.6219V85.2856Z" fill="#7F8198"/>
<path d="M1039.4 72.041V70.5961H1032.67V68.4762C1032.67 68.1281 1032.66 67.7801 1032.64 67.4742L1039.4 63.5824V61.9371L1032.49 66.061C1032.03 64.1309 1030.67 62.9074 1028.65 62.9074C1026 62.9074 1024.5 64.9957 1024.5 67.8645V72.041H1039.4ZM1031.47 70.5856H1025.81V67.8539C1025.81 65.6707 1026.86 64.3524 1028.67 64.3524C1030.45 64.3524 1031.44 65.5758 1031.47 67.7485V70.5856Z" fill="#7F8198"/>
<path d="M1038.08 49.8762C1036.11 46.5856 1032.69 42.409 1028.72 42.409C1025.95 42.409 1024.35 44.2231 1024.35 46.8914C1024.35 49.9184 1026.53 51.6586 1029.42 51.6586L1029.51 50.2453C1027.3 50.2031 1025.65 49.1695 1025.65 46.8809C1025.65 44.9192 1026.87 43.8539 1028.68 43.8539C1032.7 43.8539 1035.87 48.484 1038.08 52.0278H1039.4V41.618H1038.08V49.8762Z" fill="#7F8198"/>
<path d="M1039.56 33.2145C1039.56 29.5125 1035.73 28.1098 1031.99 28.1098C1028.2 28.1098 1024.31 29.5442 1024.31 33.3621C1024.31 37.5703 1028.68 38.4985 1031.94 38.4985C1035.18 38.4985 1039.56 37.5387 1039.56 33.2145ZM1038.19 33.2461C1038.19 36.3891 1034.77 37.0746 1031.94 37.0746C1029.1 37.0746 1025.71 36.3996 1025.71 33.3621C1025.71 30.4934 1028.86 29.5969 1031.95 29.5969C1035 29.5969 1038.19 30.4723 1038.19 33.2461Z" fill="#7F8198"/>
<path d="M1024.5 19.2949H1025.78C1026.59 19.2949 1026.9 19.7379 1026.9 20.5606V23.1024H1028.03V19.3477H1039.4V17.9239H1024.5V19.2949Z" fill="#7F8198"/>
<path d="M1039.56 6.12424C1039.56 3.60353 1038.13 1.14612 1035.22 1.14612C1033.37 1.14612 1031.92 2.2008 1031.32 3.93049C1030.76 2.73869 1029.58 1.94768 1028.14 1.94768C1025.82 1.94768 1024.34 3.82502 1024.34 6.10315C1024.34 8.19143 1025.67 10.2586 1028.06 10.2586C1029.54 10.2586 1030.73 9.53088 1031.32 8.2969C1031.89 10.0055 1033.34 11.1235 1035.23 11.1235C1038.12 11.1235 1039.56 8.65549 1039.56 6.12424ZM1030.78 6.0715C1030.78 7.73791 1029.7 8.83479 1028.08 8.83479C1026.42 8.83479 1025.55 7.49534 1025.55 6.08205C1025.55 4.48948 1026.59 3.32932 1028.19 3.32932C1029.75 3.32932 1030.78 4.48947 1030.78 6.0715ZM1038.31 6.13479C1038.31 7.99104 1037.28 9.71017 1035.16 9.71017C1033.24 9.71017 1032.03 8.23362 1032.03 6.13479C1032.03 4.07815 1033.24 2.58049 1035.17 2.58049C1037.28 2.58049 1038.31 4.25744 1038.31 6.13479Z" fill="#7F8198"/>
</g>
<g id="NOV 2018">
<path d="M1444.5 97.7496H1457.07L1444.5 105.164V106.693H1459.4V105.301H1446.79L1459.4 97.8867V96.3574H1444.5V97.7496Z" fill="#7F8198"/>
<path d="M1459.56 84.5895C1459.56 79.9172 1456 77.7445 1451.94 77.7445C1447.88 77.7445 1444.34 79.9172 1444.34 84.5895C1444.34 89.2301 1447.88 91.4133 1451.94 91.4133C1456 91.4133 1459.56 89.2301 1459.56 84.5895ZM1458.26 84.5895C1458.26 88.302 1455.36 89.8945 1451.94 89.8945C1448.54 89.8945 1445.63 88.302 1445.63 84.5895C1445.63 80.8453 1448.54 79.2633 1451.94 79.2633C1455.36 79.2633 1458.26 80.8453 1458.26 84.5895Z" fill="#7F8198"/>
<path d="M1444.5 63.6035L1457.2 68.4867L1444.5 73.391V74.9836L1459.4 69.0773V67.9066L1444.5 62.0215V63.6035Z" fill="#7F8198"/>
<path d="M1458.08 50.1082C1456.11 46.8176 1452.69 42.641 1448.72 42.641C1445.95 42.641 1444.35 44.4551 1444.35 47.1234C1444.35 50.1504 1446.53 51.8906 1449.42 51.8906L1449.51 50.4773C1447.3 50.4352 1445.65 49.4016 1445.65 47.1129C1445.65 45.1512 1446.87 44.0859 1448.68 44.0859C1452.7 44.0859 1455.87 48.716 1458.08 52.2598H1459.4V41.85H1458.08V50.1082Z" fill="#7F8198"/>
<path d="M1459.56 33.4465C1459.56 29.7445 1455.73 28.3418 1451.99 28.3418C1448.2 28.3418 1444.31 29.7762 1444.31 33.5941C1444.31 37.8023 1448.68 38.7305 1451.94 38.7305C1455.18 38.7305 1459.56 37.7707 1459.56 33.4465ZM1458.19 33.4781C1458.19 36.6211 1454.77 37.3066 1451.94 37.3066C1449.1 37.3066 1445.71 36.6316 1445.71 33.5941C1445.71 30.7254 1448.86 29.8289 1451.95 29.8289C1455 29.8289 1458.19 30.7043 1458.19 33.4781Z" fill="#7F8198"/>
<path d="M1444.5 19.5269H1445.78C1446.59 19.5269 1446.9 19.9699 1446.9 20.7926V23.3344H1448.03V19.5797H1459.4V18.1559H1444.5V19.5269Z" fill="#7F8198"/>
<path d="M1459.56 6.35624C1459.56 3.83554 1458.13 1.37812 1455.22 1.37812C1453.37 1.37812 1451.92 2.4328 1451.32 4.16249C1450.76 2.97069 1449.58 2.17968 1448.14 2.17968C1445.82 2.17968 1444.34 4.05703 1444.34 6.33515C1444.34 8.42343 1445.67 10.4906 1448.06 10.4906C1449.54 10.4906 1450.73 9.76288 1451.32 8.5289C1451.89 10.2375 1453.34 11.3555 1455.23 11.3555C1458.12 11.3555 1459.56 8.88749 1459.56 6.35624ZM1450.78 6.3035C1450.78 7.96991 1449.7 9.06679 1448.08 9.06679C1446.42 9.06679 1445.55 7.72734 1445.55 6.31406C1445.55 4.72148 1446.59 3.56132 1448.19 3.56132C1449.75 3.56132 1450.78 4.72147 1450.78 6.3035ZM1458.31 6.36679C1458.31 8.22304 1457.28 9.94218 1455.16 9.94218C1453.24 9.94218 1452.03 8.46562 1452.03 6.36679C1452.03 4.31015 1453.24 2.81249 1455.17 2.81249C1457.28 2.81249 1458.31 4.48945 1458.31 6.36679Z" fill="#7F8198"/>
</g>
<path id="Oval" fill-rule="evenodd" clip-rule="evenodd" d="M23 154C29.0751 154 34 149.075 34 143C34 136.925 29.0751 132 23 132C16.9249 132 12 136.925 12 143C12 149.075 16.9249 154 23 154Z" fill="#F9F5DE"/>
<path id="Oval Copy 3" opacity="0.207473" fill-rule="evenodd" clip-rule="evenodd" d="M23 166C35.7025 166 46 155.703 46 143C46 130.297 35.7025 120 23 120C10.2975 120 0 130.297 0 143C0 155.703 10.2975 166 23 166Z" fill="#F9F5DE"/>
<path id="Oval Copy 4" opacity="0.313198" fill-rule="evenodd" clip-rule="evenodd" d="M367 166C379.703 166 390 155.703 390 143C390 130.297 379.703 120 367 120C354.297 120 344 130.297 344 143C344 155.703 354.297 166 367 166Z" fill="#D4EFE6"/>
<path id="Oval Copy 5" opacity="0.313198" fill-rule="evenodd" clip-rule="evenodd" d="M613 166C625.703 166 636 155.703 636 143C636 130.297 625.703 120 613 120C600.297 120 590 130.297 590 143C590 155.703 600.297 166 613 166Z" fill="#D4EFE6"/>
<path id="Oval Copy 5_2" opacity="0.313198" fill-rule="evenodd" clip-rule="evenodd" d="M1033 166C1045.7 166 1056 155.703 1056 143C1056 130.297 1045.7 120 1033 120C1020.3 120 1010 130.297 1010 143C1010 155.703 1020.3 166 1033 166Z" fill="#EBE4FF"/>
<path id="Oval Copy 9" opacity="0.313198" fill-rule="evenodd" clip-rule="evenodd" d="M1453 166C1465.7 166 1476 155.703 1476 143C1476 130.297 1465.7 120 1453 120C1440.3 120 1430 130.297 1430 143C1430 155.703 1440.3 166 1453 166Z" fill="#EBE4FF"/>
<path id="Oval Copy 2" fill-rule="evenodd" clip-rule="evenodd" d="M367 154C373.075 154 378 149.075 378 143C378 136.925 373.075 132 367 132C360.925 132 356 136.925 356 143C356 149.075 360.925 154 367 154Z" fill="url(#paint1_linear)"/>
<g id="Rectangle Copy 12_2" filter="url(#filter1_d)">
<rect x="388" y="120" width="204" height="44" rx="10.9" fill="url(#paint2_linear)"/>
</g>
<path id="Oval Copy 6" fill-rule="evenodd" clip-rule="evenodd" d="M613 154C619.075 154 624 149.075 624 143C624 136.925 619.075 132 613 132C606.925 132 602 136.925 602 143C602 149.075 606.925 154 613 154Z" fill="#D4EFE6"/>
<path id="Oval Copy 7" fill-rule="evenodd" clip-rule="evenodd" d="M1033 154C1039.08 154 1044 149.075 1044 143C1044 136.925 1039.08 132 1033 132C1026.92 132 1022 136.925 1022 143C1022 149.075 1026.92 154 1033 154Z" fill="#EBE4FF"/>
<path id="Oval Copy 8" fill-rule="evenodd" clip-rule="evenodd" d="M1453 154C1459.08 154 1464 149.075 1464 143C1464 136.925 1459.08 132 1453 132C1446.92 132 1442 136.925 1442 143C1442 149.075 1446.92 154 1453 154Z" fill="#EBE4FF"/>
<g id="Rectangle Copy 13" filter="url(#filter2_d)">
<rect x="634" y="120" width="378" height="44" rx="10.9" fill="url(#paint3_linear)"/>
</g>
<g id="Rectangle Copy 14" filter="url(#filter3_d)">
<rect x="1054" y="120" width="378" height="44" rx="10.9" fill="#EBE4FF"/>
</g>
<g id="Rectangle Copy 15" filter="url(#filter4_d)">
<rect x="1474" y="120" width="436" height="44" rx="10.9" fill="#EBE4FF"/>
</g>
<path id="Aragon 0.1" fill-rule="evenodd" clip-rule="evenodd" d="M425.518 150.8L431.816 132.496H434.734L440.929 150.8H438.728L436.936 145.526H429.384L427.617 150.8H425.518ZM433.172 134.339L429.998 143.76H436.347L433.172 134.339ZM444.001 150.8V137.411H446.126V139.818C446.971 138.307 448.123 137.258 450.529 137.181V139.178C447.841 139.306 446.126 140.15 446.126 143.453V150.8H444.001ZM456.98 151.03C454.497 151.03 452.526 149.827 452.526 147.088C452.526 143.99 455.803 142.941 459.233 142.941H461.153V141.968C461.153 139.843 460.334 138.947 458.286 138.947C456.443 138.947 455.419 139.715 455.214 141.354H453.089C453.371 138.307 455.803 137.181 458.388 137.181C460.948 137.181 463.278 138.23 463.278 141.968V150.8H461.153V149.11C460.155 150.365 458.952 151.03 456.98 151.03ZM457.185 149.341C459.438 149.341 461.153 148.189 461.153 146.115V144.451H459.31C456.622 144.451 454.651 145.117 454.651 147.088C454.651 148.47 455.316 149.341 457.185 149.341ZM472.801 155.69C468.833 155.69 467.092 153.821 466.734 151.568H468.91C469.217 153.104 470.497 153.898 472.776 153.898C475.412 153.898 477.076 152.643 477.076 149.776V147.83C476.308 149.136 474.491 150.365 472.545 150.365C469.038 150.365 466.452 147.702 466.452 144.016V143.837C466.452 140.202 469.012 137.181 472.699 137.181C474.926 137.181 476.308 138.256 477.076 139.562V137.411H479.201V149.904C479.176 153.795 476.539 155.69 472.801 155.69ZM472.776 148.598C475.259 148.598 477.153 146.858 477.153 143.862V143.683C477.153 140.688 475.515 138.947 472.904 138.947C470.241 138.947 468.654 140.918 468.654 143.734V143.939C468.654 146.858 470.523 148.598 472.776 148.598ZM489.083 149.264C491.771 149.264 493.46 147.242 493.46 144.221V144.042C493.46 140.944 491.745 138.947 489.083 138.947C486.395 138.947 484.705 140.944 484.705 144.016V144.221C484.705 147.267 486.369 149.264 489.083 149.264ZM489.057 151.03C485.243 151.03 482.504 148.138 482.504 144.221V144.016C482.504 139.997 485.294 137.181 489.083 137.181C492.872 137.181 495.662 139.971 495.662 143.99V144.195C495.662 148.24 492.872 151.03 489.057 151.03ZM498.964 150.8V137.411H501.089V139.536C501.704 138.282 503.188 137.181 505.39 137.181C508.155 137.181 510.1 138.691 510.1 142.582V150.8H507.976V142.429C507.976 140.074 506.977 139.024 504.827 139.024C502.856 139.024 501.089 140.278 501.089 142.685V150.8H498.964ZM527.713 149.187C530.913 149.187 532.552 146.73 532.552 142.096V141.072C532.552 136.822 530.76 134.058 527.662 134.058C524.564 134.058 522.721 136.618 522.721 141.123V142.147C522.721 146.781 524.667 149.187 527.713 149.187ZM527.713 151.03C523.336 151.03 520.443 147.498 520.443 142.173V141.149C520.443 135.747 523.182 132.266 527.662 132.266C532.168 132.266 534.804 135.875 534.804 141.098V142.122C534.804 147.446 532.219 151.03 527.713 151.03ZM539.95 150.928C539.054 150.928 538.312 150.211 538.312 149.29C538.312 148.368 539.054 147.651 539.95 147.651C540.846 147.651 541.588 148.368 541.588 149.29C541.588 150.211 540.846 150.928 539.95 150.928ZM548.5 150.8V134.698L544.404 137.642V135.568L548.654 132.496H550.728V150.8H548.5Z" fill="#7F8198"/>
<path id="Aragon Network Token" fill-rule="evenodd" clip-rule="evenodd" d="M659.936 150.8L666.234 132.496H669.152L675.347 150.8H673.146L671.354 145.526H663.802L662.035 150.8H659.936ZM667.59 134.339L664.416 143.76H670.765L667.59 134.339ZM678.419 150.8V137.411H680.544V139.818C681.389 138.307 682.541 137.258 684.947 137.181V139.178C682.259 139.306 680.544 140.15 680.544 143.453V150.8H678.419ZM691.398 151.03C688.915 151.03 686.944 149.827 686.944 147.088C686.944 143.99 690.221 142.941 693.651 142.941H695.571V141.968C695.571 139.843 694.752 138.947 692.704 138.947C690.861 138.947 689.837 139.715 689.632 141.354H687.507C687.789 138.307 690.221 137.181 692.806 137.181C695.366 137.181 697.696 138.23 697.696 141.968V150.8H695.571V149.11C694.573 150.365 693.37 151.03 691.398 151.03ZM691.603 149.341C693.856 149.341 695.571 148.189 695.571 146.115V144.451H693.728C691.04 144.451 689.069 145.117 689.069 147.088C689.069 148.47 689.734 149.341 691.603 149.341ZM707.219 155.69C703.251 155.69 701.51 153.821 701.152 151.568H703.328C703.635 153.104 704.915 153.898 707.194 153.898C709.83 153.898 711.494 152.643 711.494 149.776V147.83C710.726 149.136 708.909 150.365 706.963 150.365C703.456 150.365 700.87 147.702 700.87 144.016V143.837C700.87 140.202 703.43 137.181 707.117 137.181C709.344 137.181 710.726 138.256 711.494 139.562V137.411H713.619V149.904C713.594 153.795 710.957 155.69 707.219 155.69ZM707.194 148.598C709.677 148.598 711.571 146.858 711.571 143.862V143.683C711.571 140.688 709.933 138.947 707.322 138.947C704.659 138.947 703.072 140.918 703.072 143.734V143.939C703.072 146.858 704.941 148.598 707.194 148.598ZM723.501 149.264C726.189 149.264 727.878 147.242 727.878 144.221V144.042C727.878 140.944 726.163 138.947 723.501 138.947C720.813 138.947 719.123 140.944 719.123 144.016V144.221C719.123 147.267 720.787 149.264 723.501 149.264ZM723.475 151.03C719.661 151.03 716.922 148.138 716.922 144.221V144.016C716.922 139.997 719.712 137.181 723.501 137.181C727.29 137.181 730.08 139.971 730.08 143.99V144.195C730.08 148.24 727.29 151.03 723.475 151.03ZM733.382 150.8V137.411H735.507V139.536C736.122 138.282 737.606 137.181 739.808 137.181C742.573 137.181 744.518 138.691 744.518 142.582V150.8H742.394V142.429C742.394 140.074 741.395 139.024 739.245 139.024C737.274 139.024 735.507 140.278 735.507 142.685V150.8H733.382ZM755.629 150.8V132.496H758.522L767.43 147.626V132.496H769.555V150.8H766.995L757.754 135.107V150.8H755.629ZM779.488 151.03C775.699 151.03 773.011 148.368 773.011 144.246V144.042C773.011 139.997 775.597 137.181 779.283 137.181C782.381 137.181 785.299 139.05 785.299 143.837V144.528H775.213C775.315 147.574 776.774 149.264 779.514 149.264C781.587 149.264 782.79 148.496 783.072 146.934H785.197C784.736 149.622 782.509 151.03 779.488 151.03ZM775.29 142.813H783.123C782.918 140.048 781.485 138.947 779.283 138.947C777.107 138.947 775.648 140.432 775.29 142.813ZM792.621 150.979C790.189 150.979 789.011 149.546 789.011 147.446V139.203H787.091V137.411H789.011V134.365H791.136V137.411H794.259V139.203H791.136V147.242C791.136 148.547 791.725 149.187 792.8 149.187C793.466 149.187 793.978 149.085 794.438 148.906V150.698C794.003 150.851 793.491 150.979 792.621 150.979ZM800.326 150.8L796.205 137.411H798.509L801.632 148.189L804.883 137.411H806.726L809.773 148.189L812.922 137.411H815.098L810.925 150.8H808.57L805.779 140.765L802.656 150.8H800.326ZM823.546 149.264C826.234 149.264 827.923 147.242 827.923 144.221V144.042C827.923 140.944 826.208 138.947 823.546 138.947C820.858 138.947 819.168 140.944 819.168 144.016V144.221C819.168 147.267 820.832 149.264 823.546 149.264ZM823.52 151.03C819.706 151.03 816.966 148.138 816.966 144.221V144.016C816.966 139.997 819.757 137.181 823.546 137.181C827.334 137.181 830.125 139.971 830.125 143.99V144.195C830.125 148.24 827.334 151.03 823.52 151.03ZM833.427 150.8V137.411H835.552V139.818C836.397 138.307 837.549 137.258 839.955 137.181V139.178C837.267 139.306 835.552 140.15 835.552 143.453V150.8H833.427ZM843.053 150.8V131.011H845.178V143.581L850.733 137.411H853.216L847.482 143.632L853.702 150.8H851.117L845.178 143.862V150.8H843.053ZM866.963 150.8V134.314H861.638V132.496H874.515V134.314H869.19V150.8H866.963ZM882.989 149.264C885.677 149.264 887.366 147.242 887.366 144.221V144.042C887.366 140.944 885.651 138.947 882.989 138.947C880.301 138.947 878.611 140.944 878.611 144.016V144.221C878.611 147.267 880.275 149.264 882.989 149.264ZM882.963 151.03C879.149 151.03 876.41 148.138 876.41 144.221V144.016C876.41 139.997 879.2 137.181 882.989 137.181C886.778 137.181 889.568 139.971 889.568 143.99V144.195C889.568 148.24 886.778 151.03 882.963 151.03ZM892.87 150.8V131.011H894.995V143.581L900.55 137.411H903.034L897.299 143.632L903.52 150.8H900.934L894.995 143.862V150.8H892.87ZM911.558 151.03C907.77 151.03 905.082 148.368 905.082 144.246V144.042C905.082 139.997 907.667 137.181 911.354 137.181C914.451 137.181 917.37 139.05 917.37 143.837V144.528H907.283C907.386 147.574 908.845 149.264 911.584 149.264C913.658 149.264 914.861 148.496 915.142 146.934H917.267C916.806 149.622 914.579 151.03 911.558 151.03ZM907.36 142.813H915.194C914.989 140.048 913.555 138.947 911.354 138.947C909.178 138.947 907.718 140.432 907.36 142.813ZM920.621 150.8V137.411H922.746V139.536C923.36 138.282 924.845 137.181 927.046 137.181C929.811 137.181 931.757 138.691 931.757 142.582V150.8H929.632V142.429C929.632 140.074 928.634 139.024 926.483 139.024C924.512 139.024 922.746 140.278 922.746 142.685V150.8H920.621ZM946.861 151.03C943.661 151.03 941.741 149.418 941.613 146.678H943.686C943.84 148.266 944.685 149.264 946.835 149.264C948.858 149.264 949.754 148.573 949.754 147.139C949.754 145.731 948.704 145.27 946.63 144.886C943.149 144.246 941.971 143.274 941.971 140.944C941.971 138.461 944.403 137.181 946.502 137.181C948.909 137.181 950.982 138.154 951.341 141.046H949.293C948.986 139.587 948.166 138.947 946.477 138.947C944.941 138.947 943.942 139.715 943.942 140.867C943.942 142.07 944.608 142.557 947.066 142.992C949.83 143.504 951.776 144.118 951.776 146.96C951.776 149.392 950.112 151.03 946.861 151.03ZM958.355 151.03C955.872 151.03 953.901 149.827 953.901 147.088C953.901 143.99 957.178 142.941 960.608 142.941H962.528V141.968C962.528 139.843 961.709 138.947 959.661 138.947C957.818 138.947 956.794 139.715 956.589 141.354H954.464C954.746 138.307 957.178 137.181 959.763 137.181C962.323 137.181 964.653 138.23 964.653 141.968V150.8H962.528V149.11C961.53 150.365 960.326 151.03 958.355 151.03ZM958.56 149.341C960.813 149.341 962.528 148.189 962.528 146.115V144.451H960.685C957.997 144.451 956.026 145.117 956.026 147.088C956.026 148.47 956.691 149.341 958.56 149.341ZM968.877 150.8V131.011H971.027V150.8H968.877ZM980.858 151.03C977.069 151.03 974.381 148.368 974.381 144.246V144.042C974.381 139.997 976.966 137.181 980.653 137.181C983.75 137.181 986.669 139.05 986.669 143.837V144.528H976.582C976.685 147.574 978.144 149.264 980.883 149.264C982.957 149.264 984.16 148.496 984.442 146.934H986.566C986.106 149.622 983.878 151.03 980.858 151.03ZM976.659 142.813H984.493C984.288 140.048 982.854 138.947 980.653 138.947C978.477 138.947 977.018 140.432 976.659 142.813Z" fill="#7F8198"/>
<path id="Aragon 0.5 &#226;&#128;&#156;The Arch" fill-rule="evenodd" clip-rule="evenodd" d="M1082.67 150.8L1088.97 132.496H1091.88L1098.08 150.8H1095.88L1094.09 145.526H1086.53L1084.77 150.8H1082.67ZM1090.32 134.339L1087.15 143.76H1093.5L1090.32 134.339ZM1101.15 150.8V137.411H1103.28V139.818C1104.12 138.307 1105.27 137.258 1107.68 137.181V139.178C1104.99 139.306 1103.28 140.15 1103.28 143.453V150.8H1101.15ZM1114.13 151.03C1111.65 151.03 1109.68 149.827 1109.68 147.088C1109.68 143.99 1112.95 142.941 1116.38 142.941H1118.3V141.968C1118.3 139.843 1117.48 138.947 1115.44 138.947C1113.59 138.947 1112.57 139.715 1112.36 141.354H1110.24C1110.52 138.307 1112.95 137.181 1115.54 137.181C1118.1 137.181 1120.43 138.23 1120.43 141.968V150.8H1118.3V149.11C1117.31 150.365 1116.1 151.03 1114.13 151.03ZM1114.34 149.341C1116.59 149.341 1118.3 148.189 1118.3 146.115V144.451H1116.46C1113.77 144.451 1111.8 145.117 1111.8 147.088C1111.8 148.47 1112.47 149.341 1114.34 149.341ZM1129.95 155.69C1125.98 155.69 1124.24 153.821 1123.88 151.568H1126.06C1126.37 153.104 1127.65 153.898 1129.93 153.898C1132.56 153.898 1134.23 152.643 1134.23 149.776V147.83C1133.46 149.136 1131.64 150.365 1129.7 150.365C1126.19 150.365 1123.6 147.702 1123.6 144.016V143.837C1123.6 140.202 1126.16 137.181 1129.85 137.181C1132.08 137.181 1133.46 138.256 1134.23 139.562V137.411H1136.35V149.904C1136.33 153.795 1133.69 155.69 1129.95 155.69ZM1129.93 148.598C1132.41 148.598 1134.3 146.858 1134.3 143.862V143.683C1134.3 140.688 1132.67 138.947 1130.05 138.947C1127.39 138.947 1125.8 140.918 1125.8 143.734V143.939C1125.8 146.858 1127.67 148.598 1129.93 148.598ZM1146.23 149.264C1148.92 149.264 1150.61 147.242 1150.61 144.221V144.042C1150.61 140.944 1148.9 138.947 1146.23 138.947C1143.55 138.947 1141.86 140.944 1141.86 144.016V144.221C1141.86 147.267 1143.52 149.264 1146.23 149.264ZM1146.21 151.03C1142.39 151.03 1139.65 148.138 1139.65 144.221V144.016C1139.65 139.997 1142.44 137.181 1146.23 137.181C1150.02 137.181 1152.81 139.971 1152.81 143.99V144.195C1152.81 148.24 1150.02 151.03 1146.21 151.03ZM1156.12 150.8V137.411H1158.24V139.536C1158.85 138.282 1160.34 137.181 1162.54 137.181C1165.31 137.181 1167.25 138.691 1167.25 142.582V150.8H1165.13V142.429C1165.13 140.074 1164.13 139.024 1161.98 139.024C1160.01 139.024 1158.24 140.278 1158.24 142.685V150.8H1156.12ZM1184.86 149.187C1188.06 149.187 1189.7 146.73 1189.7 142.096V141.072C1189.7 136.822 1187.91 134.058 1184.81 134.058C1181.72 134.058 1179.87 136.618 1179.87 141.123V142.147C1179.87 146.781 1181.82 149.187 1184.86 149.187ZM1184.86 151.03C1180.49 151.03 1177.59 147.498 1177.59 142.173V141.149C1177.59 135.747 1180.33 132.266 1184.81 132.266C1189.32 132.266 1191.96 135.875 1191.96 141.098V142.122C1191.96 147.446 1189.37 151.03 1184.86 151.03ZM1197.1 150.928C1196.2 150.928 1195.46 150.211 1195.46 149.29C1195.46 148.368 1196.2 147.651 1197.1 147.651C1198 147.651 1198.74 148.368 1198.74 149.29C1198.74 150.211 1198 150.928 1197.1 150.928ZM1207.9 151.03C1203.96 151.03 1202.07 148.854 1201.81 145.859H1203.94C1204.29 147.856 1205.09 149.238 1207.88 149.238C1210.36 149.238 1211.9 147.574 1211.9 144.81C1211.9 142.224 1210.39 140.534 1208.06 140.534C1205.93 140.534 1204.7 141.2 1203.73 142.301H1202.91V132.496H1213.2V134.416H1204.76V139.997C1205.5 139.306 1206.75 138.742 1208.49 138.742C1211.77 138.742 1214.18 141.072 1214.18 144.81C1214.18 148.675 1211.39 151.03 1207.9 151.03ZM1225.57 138.307L1223.55 137.386L1226.54 132.214L1227.85 132.88L1225.57 138.307ZM1230.1 138.307L1228.08 137.386L1231.07 132.214L1232.38 132.88L1230.1 138.307ZM1239.65 150.8V134.314H1234.32V132.496H1247.2V134.314H1241.88V150.8H1239.65ZM1250.09 150.8V131.011H1252.22V139.536C1252.83 138.282 1254.32 137.181 1256.52 137.181C1259.28 137.181 1261.23 138.691 1261.23 142.582V150.8H1259.1V142.429C1259.1 140.074 1258.11 139.024 1255.96 139.024C1253.98 139.024 1252.22 140.278 1252.22 142.685V150.8H1250.09ZM1270.88 151.03C1267.09 151.03 1264.4 148.368 1264.4 144.246V144.042C1264.4 139.997 1266.99 137.181 1270.68 137.181C1273.77 137.181 1276.69 139.05 1276.69 143.837V144.528H1266.6C1266.71 147.574 1268.17 149.264 1270.91 149.264C1272.98 149.264 1274.18 148.496 1274.46 146.934H1276.59C1276.13 149.622 1273.9 151.03 1270.88 151.03ZM1266.68 142.813H1274.52C1274.31 140.048 1272.88 138.947 1270.68 138.947C1268.5 138.947 1267.04 140.432 1266.68 142.813ZM1285.5 150.8L1291.8 132.496H1294.71L1300.91 150.8H1298.71L1296.92 145.526H1289.36L1287.6 150.8H1285.5ZM1293.15 134.339L1289.98 143.76H1296.33L1293.15 134.339ZM1303.98 150.8V137.411H1306.11V139.818C1306.95 138.307 1308.1 137.258 1310.51 137.181V139.178C1307.82 139.306 1306.11 140.15 1306.11 143.453V150.8H1303.98ZM1319.16 151.03C1315.42 151.03 1312.61 148.394 1312.61 144.246V144.042C1312.61 139.946 1315.53 137.181 1319.11 137.181C1321.9 137.181 1324.51 138.461 1324.92 141.866H1322.82C1322.49 139.741 1320.95 138.947 1319.11 138.947C1316.68 138.947 1314.81 140.893 1314.81 144.042V144.246C1314.81 147.523 1316.6 149.264 1319.19 149.264C1321.08 149.264 1322.8 148.163 1323.03 145.987H1325C1324.72 148.88 1322.39 151.03 1319.16 151.03ZM1328.2 150.8V131.011H1330.32V139.536C1330.94 138.282 1332.42 137.181 1334.62 137.181C1337.39 137.181 1339.33 138.691 1339.33 142.582V150.8H1337.21V142.429C1337.21 140.074 1336.21 139.024 1334.06 139.024C1332.09 139.024 1330.32 140.278 1330.32 142.685V150.8H1328.2ZM1343.56 150.8V137.411H1345.68V150.8H1343.56ZM1344.58 134.621C1343.81 134.621 1343.17 133.981 1343.17 133.213C1343.17 132.445 1343.81 131.805 1344.58 131.805C1345.35 131.805 1345.99 132.445 1345.99 133.213C1345.99 133.981 1345.35 134.621 1344.58 134.621ZM1354.11 150.979C1351.67 150.979 1350.5 149.546 1350.5 147.446V139.203H1348.58V137.411H1350.5V134.365H1352.62V137.411H1355.74V139.203H1352.62V147.242C1352.62 148.547 1353.21 149.187 1354.28 149.187C1354.95 149.187 1355.46 149.085 1355.92 148.906V150.698C1355.49 150.851 1354.98 150.979 1354.11 150.979ZM1364.6 151.03C1360.81 151.03 1358.12 148.368 1358.12 144.246V144.042C1358.12 139.997 1360.71 137.181 1364.4 137.181C1367.49 137.181 1370.41 139.05 1370.41 143.837V144.528H1360.33C1360.43 147.574 1361.89 149.264 1364.63 149.264C1366.7 149.264 1367.9 148.496 1368.19 146.934H1370.31C1369.85 149.622 1367.62 151.03 1364.6 151.03ZM1360.4 142.813H1368.24C1368.03 140.048 1366.6 138.947 1364.4 138.947C1362.22 138.947 1360.76 140.432 1360.4 142.813ZM1379.22 151.03C1375.48 151.03 1372.67 148.394 1372.67 144.246V144.042C1372.67 139.946 1375.58 137.181 1379.17 137.181C1381.96 137.181 1384.57 138.461 1384.98 141.866H1382.88C1382.55 139.741 1381.01 138.947 1379.17 138.947C1376.74 138.947 1374.87 140.893 1374.87 144.042V144.246C1374.87 147.523 1376.66 149.264 1379.24 149.264C1381.14 149.264 1382.85 148.163 1383.08 145.987H1385.06C1384.77 148.88 1382.44 151.03 1379.22 151.03ZM1392.33 150.979C1389.89 150.979 1388.72 149.546 1388.72 147.446V139.203H1386.8V137.411H1388.72V134.365H1390.84V137.411H1393.96V139.203H1390.84V147.242C1390.84 148.547 1391.43 149.187 1392.51 149.187C1393.17 149.187 1393.68 149.085 1394.14 148.906V150.698C1393.71 150.851 1393.2 150.979 1392.33 150.979ZM1397.7 138.307L1396.4 137.642L1398.68 132.214L1400.7 133.136L1397.7 138.307ZM1402.23 138.307L1400.93 137.642L1403.21 132.214L1405.23 133.136L1402.23 138.307Z" fill="#7F8198"/>
<path id="Aragon 0.6 and mainn" fill-rule="evenodd" clip-rule="evenodd" d="M1504.65 150.8L1510.95 132.496H1513.87L1520.06 150.8H1517.86L1516.07 145.526H1508.52L1506.75 150.8H1504.65ZM1512.31 134.339L1509.13 143.76H1515.48L1512.31 134.339ZM1523.14 150.8V137.411H1525.26V139.818C1526.11 138.307 1527.26 137.258 1529.66 137.181V139.178C1526.98 139.306 1525.26 140.15 1525.26 143.453V150.8H1523.14ZM1536.11 151.03C1533.63 151.03 1531.66 149.827 1531.66 147.088C1531.66 143.99 1534.94 142.941 1538.37 142.941H1540.29V141.968C1540.29 139.843 1539.47 138.947 1537.42 138.947C1535.58 138.947 1534.55 139.715 1534.35 141.354H1532.22C1532.51 138.307 1534.94 137.181 1537.52 137.181C1540.08 137.181 1542.41 138.23 1542.41 141.968V150.8H1540.29V149.11C1539.29 150.365 1538.09 151.03 1536.11 151.03ZM1536.32 149.341C1538.57 149.341 1540.29 148.189 1540.29 146.115V144.451H1538.44C1535.76 144.451 1533.79 145.117 1533.79 147.088C1533.79 148.47 1534.45 149.341 1536.32 149.341ZM1551.94 155.69C1547.97 155.69 1546.23 153.821 1545.87 151.568H1548.04C1548.35 153.104 1549.63 153.898 1551.91 153.898C1554.55 153.898 1556.21 152.643 1556.21 149.776V147.83C1555.44 149.136 1553.63 150.365 1551.68 150.365C1548.17 150.365 1545.59 147.702 1545.59 144.016V143.837C1545.59 140.202 1548.15 137.181 1551.83 137.181C1554.06 137.181 1555.44 138.256 1556.21 139.562V137.411H1558.34V149.904C1558.31 153.795 1555.67 155.69 1551.94 155.69ZM1551.91 148.598C1554.39 148.598 1556.29 146.858 1556.29 143.862V143.683C1556.29 140.688 1554.65 138.947 1552.04 138.947C1549.38 138.947 1547.79 140.918 1547.79 143.734V143.939C1547.79 146.858 1549.66 148.598 1551.91 148.598ZM1568.22 149.264C1570.91 149.264 1572.59 147.242 1572.59 144.221V144.042C1572.59 140.944 1570.88 138.947 1568.22 138.947C1565.53 138.947 1563.84 140.944 1563.84 144.016V144.221C1563.84 147.267 1565.5 149.264 1568.22 149.264ZM1568.19 151.03C1564.38 151.03 1561.64 148.138 1561.64 144.221V144.016C1561.64 139.997 1564.43 137.181 1568.22 137.181C1572.01 137.181 1574.8 139.971 1574.8 143.99V144.195C1574.8 148.24 1572.01 151.03 1568.19 151.03ZM1578.1 150.8V137.411H1580.22V139.536C1580.84 138.282 1582.32 137.181 1584.52 137.181C1587.29 137.181 1589.23 138.691 1589.23 142.582V150.8H1587.11V142.429C1587.11 140.074 1586.11 139.024 1583.96 139.024C1581.99 139.024 1580.22 140.278 1580.22 142.685V150.8H1578.1ZM1606.85 149.187C1610.05 149.187 1611.69 146.73 1611.69 142.096V141.072C1611.69 136.822 1609.89 134.058 1606.8 134.058C1603.7 134.058 1601.86 136.618 1601.86 141.123V142.147C1601.86 146.781 1603.8 149.187 1606.85 149.187ZM1606.85 151.03C1602.47 151.03 1599.58 147.498 1599.58 142.173V141.149C1599.58 135.747 1602.32 132.266 1606.8 132.266C1611.3 132.266 1613.94 135.875 1613.94 141.098V142.122C1613.94 147.446 1611.35 151.03 1606.85 151.03ZM1619.08 150.928C1618.19 150.928 1617.45 150.211 1617.45 149.29C1617.45 148.368 1618.19 147.651 1619.08 147.651C1619.98 147.651 1620.72 148.368 1620.72 149.29C1620.72 150.211 1619.98 150.928 1619.08 150.928ZM1630.81 151.03C1625.82 151.03 1624.23 147.293 1624.23 142.71V142.275C1624.23 135.696 1627.2 132.266 1631.4 132.266C1634.24 132.266 1636.26 133.75 1636.75 136.694H1634.62C1634.21 135.005 1633.29 134.083 1631.24 134.083C1628.48 134.083 1626.53 136.566 1626.43 141.405C1627.3 139.92 1629.02 138.922 1631.14 138.922C1634.78 138.922 1637.13 141.558 1637.13 144.912C1637.13 148.573 1634.67 151.03 1630.81 151.03ZM1630.81 149.29C1633.22 149.29 1634.85 147.6 1634.85 145.014C1634.85 142.378 1633.27 140.662 1630.78 140.662C1628.33 140.662 1626.59 142.326 1626.59 144.707C1626.59 147.702 1628.35 149.29 1630.81 149.29ZM1650.83 151.03C1648.35 151.03 1646.37 149.827 1646.37 147.088C1646.37 143.99 1649.65 142.941 1653.08 142.941H1655V141.968C1655 139.843 1654.18 138.947 1652.13 138.947C1650.29 138.947 1649.27 139.715 1649.06 141.354H1646.94C1647.22 138.307 1649.65 137.181 1652.24 137.181C1654.8 137.181 1657.13 138.23 1657.13 141.968V150.8H1655V149.11C1654 150.365 1652.8 151.03 1650.83 151.03ZM1651.03 149.341C1653.29 149.341 1655 148.189 1655 146.115V144.451H1653.16C1650.47 144.451 1648.5 145.117 1648.5 147.088C1648.5 148.47 1649.16 149.341 1651.03 149.341ZM1661.3 150.8V137.411H1663.42V139.536C1664.04 138.282 1665.52 137.181 1667.72 137.181C1670.49 137.181 1672.43 138.691 1672.43 142.582V150.8H1670.31V142.429C1670.31 140.074 1669.31 139.024 1667.16 139.024C1665.19 139.024 1663.42 140.278 1663.42 142.685V150.8H1661.3ZM1681.65 151.03C1678.14 151.03 1675.61 148.547 1675.61 144.374V144.17C1675.61 140.074 1678.17 137.181 1681.86 137.181C1684.08 137.181 1685.47 138.256 1686.23 139.562V131.011H1688.36V150.8H1686.23V148.496C1685.47 149.802 1683.6 151.03 1681.65 151.03ZM1681.88 149.264C1684.36 149.264 1686.31 147.626 1686.31 144.195V143.99C1686.31 140.56 1684.67 138.947 1682.06 138.947C1679.4 138.947 1677.81 140.816 1677.81 144.067V144.272C1677.81 147.651 1679.63 149.264 1681.88 149.264ZM1699.44 150.8V137.411H1701.57V139.459C1702.18 138.205 1703.64 137.181 1705.56 137.181C1707.28 137.181 1708.79 137.898 1709.48 139.69C1710.4 137.949 1712.4 137.181 1714.06 137.181C1716.47 137.181 1718.57 138.614 1718.57 142.506V150.8H1716.44V142.352C1716.44 139.997 1715.44 139.024 1713.6 139.024C1711.86 139.024 1710.07 140.202 1710.07 142.608V150.8H1707.94V142.352C1707.94 139.997 1706.94 139.024 1705.1 139.024C1703.36 139.024 1701.57 140.202 1701.57 142.608V150.8H1699.44ZM1726.09 151.03C1723.61 151.03 1721.64 149.827 1721.64 147.088C1721.64 143.99 1724.91 142.941 1728.35 142.941H1730.27V141.968C1730.27 139.843 1729.45 138.947 1727.4 138.947C1725.55 138.947 1724.53 139.715 1724.33 141.354H1722.2C1722.48 138.307 1724.91 137.181 1727.5 137.181C1730.06 137.181 1732.39 138.23 1732.39 141.968V150.8H1730.27V149.11C1729.27 150.365 1728.06 151.03 1726.09 151.03ZM1726.3 149.341C1728.55 149.341 1730.27 148.189 1730.27 146.115V144.451H1728.42C1725.73 144.451 1723.76 145.117 1723.76 147.088C1723.76 148.47 1724.43 149.341 1726.3 149.341ZM1736.61 150.8V137.411H1738.74V150.8H1736.61ZM1737.64 134.621C1736.87 134.621 1736.23 133.981 1736.23 133.213C1736.23 132.445 1736.87 131.805 1737.64 131.805C1738.41 131.805 1739.05 132.445 1739.05 133.213C1739.05 133.981 1738.41 134.621 1737.64 134.621ZM1743.09 150.8V137.411H1745.22V139.536C1745.83 138.282 1747.31 137.181 1749.52 137.181C1752.28 137.181 1754.23 138.691 1754.23 142.582V150.8H1752.1V142.429C1752.1 140.074 1751.1 139.024 1748.95 139.024C1746.98 139.024 1745.22 140.278 1745.22 142.685V150.8H1743.09ZM1758.4 150.8V137.411H1760.52V139.536C1761.14 138.282 1762.62 137.181 1764.83 137.181C1767.59 137.181 1769.54 138.691 1769.54 142.582V150.8H1767.41V142.429C1767.41 140.074 1766.41 139.024 1764.26 139.024C1762.29 139.024 1760.52 140.278 1760.52 142.685V150.8H1758.4ZM1779.19 151.03C1775.4 151.03 1772.71 148.368 1772.71 144.246V144.042C1772.71 139.997 1775.3 137.181 1778.98 137.181C1782.08 137.181 1785 139.05 1785 143.837V144.528H1774.91C1775.01 147.574 1776.47 149.264 1779.21 149.264C1781.29 149.264 1782.49 148.496 1782.77 146.934H1784.9C1784.43 149.622 1782.21 151.03 1779.19 151.03ZM1774.99 142.813H1782.82C1782.62 140.048 1781.18 138.947 1778.98 138.947C1776.81 138.947 1775.35 140.432 1774.99 142.813ZM1792.32 150.979C1789.89 150.979 1788.71 149.546 1788.71 147.446V139.203H1786.79V137.411H1788.71V134.365H1790.83V137.411H1793.96V139.203H1790.83V147.242C1790.83 148.547 1791.42 149.187 1792.5 149.187C1793.16 149.187 1793.68 149.085 1794.14 148.906V150.698C1793.7 150.851 1793.19 150.979 1792.32 150.979ZM1804.17 150.8V131.011H1806.32V150.8H1804.17ZM1814.03 151.03C1811.55 151.03 1809.57 149.827 1809.57 147.088C1809.57 143.99 1812.85 142.941 1816.28 142.941H1818.2V141.968C1818.2 139.843 1817.38 138.947 1815.33 138.947C1813.49 138.947 1812.47 139.715 1812.26 141.354H1810.14C1810.42 138.307 1812.85 137.181 1815.44 137.181C1818 137.181 1820.33 138.23 1820.33 141.968V150.8H1818.2V149.11C1817.2 150.365 1816 151.03 1814.03 151.03ZM1814.23 149.341C1816.49 149.341 1818.2 148.189 1818.2 146.115V144.451H1816.36C1813.67 144.451 1811.7 145.117 1811.7 147.088C1811.7 148.47 1812.36 149.341 1814.23 149.341ZM1829.03 151.03C1826.37 151.03 1824.37 149.571 1824.37 145.885V137.411H1826.5V145.782C1826.5 148.138 1827.49 149.187 1829.59 149.187C1831.49 149.187 1833.28 147.933 1833.28 145.526V137.411H1835.4V150.8H1833.28V148.675C1832.67 149.93 1831.18 151.03 1829.03 151.03ZM1839.71 150.8V137.411H1841.83V139.536C1842.44 138.282 1843.93 137.181 1846.13 137.181C1848.9 137.181 1850.84 138.691 1850.84 142.582V150.8H1848.72V142.429C1848.72 140.074 1847.72 139.024 1845.57 139.024C1843.6 139.024 1841.83 140.278 1841.83 142.685V150.8H1839.71ZM1860.57 151.03C1856.83 151.03 1854.02 148.394 1854.02 144.246V144.042C1854.02 139.946 1856.93 137.181 1860.52 137.181C1863.31 137.181 1865.92 138.461 1866.33 141.866H1864.23C1863.9 139.741 1862.36 138.947 1860.52 138.947C1858.09 138.947 1856.22 140.893 1856.22 144.042V144.246C1856.22 147.523 1858.01 149.264 1860.59 149.264C1862.49 149.264 1864.2 148.163 1864.43 145.987H1866.41C1866.12 148.88 1863.79 151.03 1860.57 151.03ZM1869.61 150.8V131.011H1871.73V139.536C1872.35 138.282 1873.83 137.181 1876.03 137.181C1878.8 137.181 1880.74 138.691 1880.74 142.582V150.8H1878.62V142.429C1878.62 140.074 1877.62 139.024 1875.47 139.024C1873.5 139.024 1871.73 140.278 1871.73 142.685V150.8H1869.61Z" fill="#7F8198"/>
</g>
</g>
</g>
</g>
</g>
</g>
<defs>
<filter id="filter0_d" x="42" y="120" width="306" height="48" filterUnits="userSpaceOnUse" color-interpolation-filters="sRGB">
<feFlood flood-opacity="0" result="BackgroundImageFix"/>
<feColorMatrix in="SourceAlpha" type="matrix" values="0 0 0 0 0 0 0 0 0 0 0 0 0 0 0 0 0 0 127 0"/>
<feOffset dy="1"/>
<feGaussianBlur stdDeviation="0.5"/>
<feColorMatrix type="matrix" values="0 0 0 0 0 0 0 0 0 0 0 0 0 0 0 0 0 0 0.0492244 0"/>
<feBlend mode="normal" in2="BackgroundImageFix" result="effect1_dropShadow"/>
<feBlend mode="normal" in="SourceGraphic" in2="effect1_dropShadow" result="shape"/>
</filter>
<filter id="filter1_d" x="386" y="120" width="208" height="48" filterUnits="userSpaceOnUse" color-interpolation-filters="sRGB">
<feFlood flood-opacity="0" result="BackgroundImageFix"/>
<feColorMatrix in="SourceAlpha" type="matrix" values="0 0 0 0 0 0 0 0 0 0 0 0 0 0 0 0 0 0 127 0"/>
<feOffset dy="1"/>
<feGaussianBlur stdDeviation="0.5"/>
<feColorMatrix type="matrix" values="0 0 0 0 0 0 0 0 0 0 0 0 0 0 0 0 0 0 0.0492244 0"/>
<feBlend mode="normal" in2="BackgroundImageFix" result="effect1_dropShadow"/>
<feBlend mode="normal" in="SourceGraphic" in2="effect1_dropShadow" result="shape"/>
</filter>
<filter id="filter2_d" x="632" y="120" width="382" height="48" filterUnits="userSpaceOnUse" color-interpolation-filters="sRGB">
<feFlood flood-opacity="0" result="BackgroundImageFix"/>
<feColorMatrix in="SourceAlpha" type="matrix" values="0 0 0 0 0 0 0 0 0 0 0 0 0 0 0 0 0 0 127 0"/>
<feOffset dy="1"/>
<feGaussianBlur stdDeviation="0.5"/>
<feColorMatrix type="matrix" values="0 0 0 0 0 0 0 0 0 0 0 0 0 0 0 0 0 0 0.04 0"/>
<feBlend mode="normal" in2="BackgroundImageFix" result="effect1_dropShadow"/>
<feBlend mode="normal" in="SourceGraphic" in2="effect1_dropShadow" result="shape"/>
</filter>
<filter id="filter3_d" x="1052" y="120" width="382" height="48" filterUnits="userSpaceOnUse" color-interpolation-filters="sRGB">
<feFlood flood-opacity="0" result="BackgroundImageFix"/>
<feColorMatrix in="SourceAlpha" type="matrix" values="0 0 0 0 0 0 0 0 0 0 0 0 0 0 0 0 0 0 127 0"/>
<feOffset dy="1"/>
<feGaussianBlur stdDeviation="0.5"/>
<feColorMatrix type="matrix" values="0 0 0 0 0 0 0 0 0 0 0 0 0 0 0 0 0 0 0.04 0"/>
<feBlend mode="normal" in2="BackgroundImageFix" result="effect1_dropShadow"/>
<feBlend mode="normal" in="SourceGraphic" in2="effect1_dropShadow" result="shape"/>
</filter>
<filter id="filter4_d" x="1472" y="120" width="440" height="48" filterUnits="userSpaceOnUse" color-interpolation-filters="sRGB">
<feFlood flood-opacity="0" result="BackgroundImageFix"/>
<feColorMatrix in="SourceAlpha" type="matrix" values="0 0 0 0 0 0 0 0 0 0 0 0 0 0 0 0 0 0 127 0"/>
<feOffset dy="1"/>
<feGaussianBlur stdDeviation="0.5"/>
<feColorMatrix type="matrix" values="0 0 0 0 0 0 0 0 0 0 0 0 0 0 0 0 0 0 0.04 0"/>
<feBlend mode="normal" in2="BackgroundImageFix" result="effect1_dropShadow"/>
<feBlend mode="normal" in="SourceGraphic" in2="effect1_dropShadow" result="shape"/>
</filter>
<linearGradient id="paint0_linear" x1="-365.023" y1="260.715" x2="-335.425" y2="410.832" gradientUnits="userSpaceOnUse">
<stop stop-color="#FAF9F4"/>
<stop offset="1" stop-color="#F9F5DE"/>
</linearGradient>
<linearGradient id="paint1_linear" x1="355.824" y1="104.711" x2="345.95" y2="149.063" gradientUnits="userSpaceOnUse">
<stop stop-color="#C4E5DF"/>
<stop offset="1" stop-color="#D4EFE6"/>
</linearGradient>
<linearGradient id="paint2_linear" x1="639.508" y1="143.497" x2="636.623" y2="278.625" gradientUnits="userSpaceOnUse">
<stop stop-color="#C4E5DF"/>
<stop offset="1" stop-color="#D4EFE6"/>
</linearGradient>
<linearGradient id="paint3_linear" x1="1015.09" y1="143.497" x2="1013.53" y2="278.669" gradientUnits="userSpaceOnUse">
<stop stop-color="#C4E5DF"/>
<stop offset="1" stop-color="#D4EFE6"/>
</linearGradient>
</defs>
</svg>
