<?xml version="1.0" encoding="UTF-8"?>
<svg width="436px" height="411px" viewBox="0 0 436 411" version="1.1" xmlns="http://www.w3.org/2000/svg" xmlns:xlink="http://www.w3.org/1999/xlink">
    <!-- Generator: Sketch 52.2 (67145) - http://www.bohemiancoding.com/sketch -->
    <title>ARAGON 3</title>
    <desc>Created with Sketch.</desc>
    <defs>
        <linearGradient x1="80.0882892%" y1="7.9987097%" x2="16.684788%" y2="95.591428%" id="linearGradient-1">
            <stop stop-color="#626684" stop-opacity="0" offset="0%"></stop>
            <stop stop-color="#BCC7FF" offset="100%"></stop>
        </linearGradient>
        <linearGradient x1="28.6926296%" y1="85.2118267%" x2="40.399072%" y2="-7.76648089%" id="linearGradient-2">
            <stop stop-color="#555864" offset="0%"></stop>
            <stop stop-color="#606688" offset="100%"></stop>
        </linearGradient>
        <linearGradient x1="100%" y1="107.901683%" x2="100%" y2="0%" id="linearGradient-3">
            <stop stop-color="#18191F" offset="0%"></stop>
            <stop stop-color="#5B6184" offset="100%"></stop>
        </linearGradient>
        <rect id="path-4" x="0.2000002" y="0.2000002" width="405.600006" height="380.000006"></rect>
        <rect id="path-6" x="0" y="0" width="436.000006" height="410.400006"></rect>
        <circle id="path-8" cx="33.2000008" cy="33.200002" r="32.8000005"></circle>
        <circle id="path-10" cx="34.000006" cy="34.000002" r="33.6000005"></circle>
        <circle id="path-12" cx="32.600003" cy="32.0000008" r="32.0000005"></circle>
        <circle id="path-14" cx="32.600003" cy="32.400005" r="32.0000005"></circle>
        <circle id="path-16" cx="83" cy="83" r="83"></circle>
        <linearGradient x1="50%" y1="0%" x2="50%" y2="98.0175217%" id="linearGradient-18">
            <stop stop-color="#46F1FF" offset="0%"></stop>
            <stop stop-color="#22E0FF" stop-opacity="0" offset="100%"></stop>
        </linearGradient>
    </defs>
    <g id="Page-1" stroke="none" stroke-width="1" fill="none" fill-rule="evenodd" opacity="0.741141183">
        <g id="ARAGON-3">
            <g id="ARAGON-2">
                <g id="ARAGON">
                    <g id="Page-1">
                        <g id="Discover@2x">
                            <g id="yeah">
                                <g id="Group">
                                    <g id="Group-55">
                                        <path d="M302.565302,128.82006 C288.94334,121.883817 273.997871,118.80805 257.706553,119.591421 C265.253541,126.128037 274.725227,130.871391 286.138255,133.818068 C289.853524,131.992368 292.638448,130.023903 294.497064,127.930881 L294.974276,127.393483 L295.683166,127.511817 C297.913013,127.884039 300.207042,128.320128 302.565302,128.82006 Z" id="Path-2" stroke="#8286A9" stroke-width="2.6"></path>
                                        <path d="M329.719059,138.51975 C330.627529,140.331218 328.976632,137.020687 329.719059,138.82804 C339.814417,163.404019 334.645733,187.639016 316.566953,212.603174 C315.978076,213.416327 315.268419,213.375615 314.437981,212.481039 C333.96301,185.977144 338.175857,161.206806 326.743269,136.487329 L329.719059,138.51975 Z M329.811496,139.054106 C339.735989,163.438135 334.638508,187.489662 316.818858,212.254216 C315.857736,213.589918 317.853638,211.487978 316.818858,212.827993 L314.437981,212.481039 C333.96301,185.977144 338.175857,161.206806 326.743269,136.487329 C328.277945,136.943479 329.300687,137.799071 329.811496,139.054106 Z" id="Path-4" fill="url(#linearGradient-1)" fill-rule="nonzero" opacity="0.552246094"></path>
                                        <path d="M351.561006,291.471191 C341.952263,291.471191 330.734057,289.803195 317.906388,286.467201 C294.039187,278.903535 282.645603,265.49389 284.091932,246.323556 C285.463256,228.147384 293.735246,216.74437 305.764875,213.05161 C315.867463,209.950397 327.00474,213.265804 330.644481,220.337798 C332.838653,225.177896 333.157616,230.557491 331.627369,236.435051 C351.990095,225.953468 362.079249,211.270191 362.079303,192.28186 C361.8534,167.745463 348.019965,148.315247 320.386779,133.886299 L319.664862,133.509343 L319.664862,123.043047 C268.966985,93.2043941 220.846647,80.0876133 175.286088,83.6554519 C181.870267,90.4407522 186.412688,95.0440498 188.90611,97.4583549 L191.164265,99.6448583 L188.023378,99.7668882 C144.053959,101.47519 110.539242,118.802798 87.3533171,151.786227 C64.3192323,184.553653 57.9510311,221.777893 68.2498972,263.563636" id="Shape" stroke="url(#linearGradient-2)" stroke-width="2.68800004" opacity="0.721656436"></path>
                                        <path d="M219.378652,391.868322 L217.695501,394.786792 C216.528314,394.192298 217.374477,394.5353 216.829153,394.365439 C117.335799,363.374653 50.2227992,274.054748 15.4657373,126.643324 L15.9756571,125.08828 C73.3730117,76.2303772 140.871094,39.6988514 218.457129,15.4950927 L219.389566,18.4898135 C142.528068,42.4675453 75.647946,78.5894577 18.7365882,126.856923 C53.5129817,273.524743 120.401891,361.781876 219.378652,391.868322 Z" id="Path-6" fill="url(#linearGradient-3)"></path>
                                        <path d="M420.789091,391.868322 L419.878482,394.869765 C319.482904,364.352035 251.823742,274.862712 216.876176,126.643324 L216.702564,125.4459 C274.099918,76.5879975 341.4812,39.6971769 419.067235,15.4934181 L420.800005,18.4898135 C343.938507,42.4675453 277.058385,78.5894577 220.147027,126.856923 C254.923421,273.524743 321.81233,361.781876 420.789091,391.868322 Z" id="Path-6-Copy" fill="url(#linearGradient-3)" transform="translate(318.751284, 205.181592) scale(-1, 1) translate(-318.751284, -205.181592) "></path>
                                        <g id="Rectangle" opacity="0.904320126" stroke-dasharray="0.800000011920929" transform="translate(15.000000, 15.000000)">
                                            <g id="path-4-Clipped">
                                                <mask id="mask-5" fill="white">
                                                    <use xlink:href="#path-4"></use>
                                                </mask>
                                                <g id="path-4"></g>
                                                <path d="M0.2000002,0.2000002 L405.800006,0.2000002 L405.800006,380.200006 L0.2000002,380.200006 L0.2000002,0.2000002 Z" id="path-4" stroke="#22E0FF" stroke-width="1.28000002" mask="url(#mask-5)"></path>
                                            </g>
                                        </g>
                                        <g id="Rectangle-Copy-8" opacity="0.341145833" stroke-dasharray="0.800000011920929">
                                            <g id="path-6-Clipped">
                                                <mask id="mask-7" fill="white">
                                                    <use xlink:href="#path-6"></use>
                                                </mask>
                                                <g id="path-6"></g>
                                                <path d="M0,0 L436.000006,0 L436.000006,410.400006 L0,410.400006 L0,0 Z" id="path-6" stroke="#22E0FF" stroke-width="1.28000002" mask="url(#mask-7)"></path>
                                            </g>
                                        </g>
                                        <g id="Oval" stroke-dasharray="0.800000011920929" transform="translate(22.000000, 106.000000)">
                                            <g id="path-8-Clipped">
                                                <mask id="mask-9" fill="white">
                                                    <use xlink:href="#path-8"></use>
                                                </mask>
                                                <g id="path-8"></g>
                                                <path d="M33.2000008,66.0000025 C51.3149409,66.0000025 66.0000013,51.3149421 66.0000013,33.200002 C66.0000013,15.0850619 51.3149409,0.4000015 33.2000008,0.4000015 C15.0850607,0.4000015 0.4000003,15.0850619 0.4000003,33.200002 C0.4000003,51.3149421 15.0850607,66.0000025 33.2000008,66.0000025 Z" id="path-8" stroke="#22E0FF" stroke-width="1.28000002" mask="url(#mask-9)"></path>
                                            </g>
                                        </g>
                                        <g id="Oval-Copy-6" stroke-dasharray="0.800000011920929" transform="translate(346.000000, 106.000000)">
                                            <g id="path-10-Clipped">
                                                <mask id="mask-11" fill="white">
                                                    <use xlink:href="#path-10"></use>
                                                </mask>
                                                <g id="path-10"></g>
                                                <path d="M34.000006,67.6000025 C52.5567739,67.6000025 67.6000065,52.5567699 67.6000065,34.000002 C67.6000065,15.4432341 52.5567739,0.4000015 34.000006,0.4000015 C15.4432381,0.4000015 0.4000055,15.4432341 0.4000055,34.000002 C0.4000055,52.5567699 15.4432381,67.6000025 34.000006,67.6000025 Z" id="path-10" stroke="#22E0FF" stroke-width="1.28000002" mask="url(#mask-11)"></path>
                                            </g>
                                        </g>
                                        <g id="Oval-Copy-7" stroke-dasharray="0.800000011920929" transform="translate(185.000000, 20.000000)">
                                            <g id="path-12-Clipped">
                                                <mask id="mask-13" fill="white">
                                                    <use xlink:href="#path-12"></use>
                                                </mask>
                                                <g id="path-12"></g>
                                                <path d="M32.600003,64.0000013 C50.2731153,64.0000013 64.6000035,49.6731131 64.6000035,32.0000008 C64.6000035,14.3268885 50.2731153,3.00000004e-07 32.600003,3.00000004e-07 C14.9268907,3.00000004e-07 0.6000025,14.3268885 0.6000025,32.0000008 C0.6000025,49.6731131 14.9268907,64.0000013 32.600003,64.0000013 Z" id="path-12" stroke="#22E0FF" stroke-width="1.28000002" mask="url(#mask-13)"></path>
                                            </g>
                                        </g>
                                        <g id="Oval-Copy-9" stroke-dasharray="0.800000011920929" transform="translate(185.000000, 326.000000)">
                                            <g id="path-14-Clipped">
                                                <mask id="mask-15" fill="white">
                                                    <use xlink:href="#path-14"></use>
                                                </mask>
                                                <g id="path-14"></g>
                                                <path d="M32.600003,64.4000055 C50.2731153,64.4000055 64.6000035,50.0731173 64.6000035,32.400005 C64.6000035,14.7268927 50.2731153,0.4000045 32.600003,0.4000045 C14.9268907,0.4000045 0.6000025,14.7268927 0.6000025,32.400005 C0.6000025,50.0731173 14.9268907,64.4000055 32.600003,64.4000055 Z" id="path-14" stroke="#22E0FF" stroke-width="1.28000002" mask="url(#mask-15)"></path>
                                            </g>
                                        </g>
                                        <g id="Group-76" transform="translate(133.000000, 99.000000)">
                                            <g id="Group-77">
                                                <g id="Oval-Copy-8" stroke-dasharray="0.800000011920929">
                                                    <g id="path-16-Clipped">
                                                        <mask id="mask-17" fill="white">
                                                            <use xlink:href="#path-16"></use>
                                                        </mask>
                                                        <g id="path-16"></g>
                                                        <path d="M83,166 C128.839634,166 166,128.839634 166,83 C166,37.1603658 128.839634,0 83,0 C37.1603658,0 0,37.1603658 0,83 C0,128.839634 37.1603658,166 83,166 Z" id="path-16" stroke="#22E0FF" stroke-width="1.28000002" mask="url(#mask-17)"></path>
                                                    </g>
                                                </g>
                                                <circle id="Oval-Copy-8" stroke="#22E0FF" stroke-width="0.64000001" opacity="0.115304129" cx="83" cy="83" r="71.68"></circle>
                                            </g>
                                        </g>
                                        <circle id="Oval-Copy-10" stroke="#22E0FF" stroke-width="0.64000001" opacity="0.215355283" cx="217.200003" cy="193.200003" r="163.280002"></circle>
                                        <circle id="Oval-Copy-11" stroke="url(#linearGradient-18)" stroke-width="0.64000001" opacity="0.215355283" cx="217.200003" cy="193.200003" r="145.680002"></circle>
                                        <path d="M0.400000006,0.400000006 L15.2000002,15.2000002" id="Line-2-Copy-3" stroke="#22E0FF" stroke-width="0.64000001" opacity="0.287853423" stroke-linecap="square" stroke-dasharray="2.400000035762787"></path>
                                        <path d="M420.400006,394.800006 L435.200006,409.600006" id="Line-2-Copy-4" stroke="#22E0FF" stroke-width="0.64000001" opacity="0.287853423" stroke-linecap="square" stroke-dasharray="2.400000035762787"></path>
                                    </g>
                                </g>
                            </g>
                        </g>
                    </g>
                </g>
            </g>
        </g>
    </g>
</svg>