<svg width="175" height="196" viewBox="0 0 175 196" fill="none" xmlns="http://www.w3.org/2000/svg">
<path fill-rule="evenodd" clip-rule="evenodd" d="M164.132 72.906C164.132 72.906 153.775 83.0891 142.894 85.2171C132.013 87.3452 130.719 79.4416 130.719 79.4416L164.132 72.906Z" fill="#6F6DA4"/>
<path fill-rule="evenodd" clip-rule="evenodd" d="M164.121 72.8497C164.121 72.8497 150.715 67.3148 139.833 69.4428C128.952 71.571 130.708 79.3847 130.708 79.3847L164.121 72.8497Z" fill="#6F6DA4"/>
<path fill-rule="evenodd" clip-rule="evenodd" d="M125.826 80.6883L165.156 72.9964L165.019 72.2912L125.689 79.9836L125.826 80.6883Z" fill="#3E3F71"/>
<path fill-rule="evenodd" clip-rule="evenodd" d="M131.269 32.2918C133.437 31.9765 135.314 30.5593 136.217 28.5598C136.868 27.1212 137.747 25.7574 138.859 24.5218C141.617 21.4601 145.305 19.7419 149.105 19.4078C151.149 19.2269 153.032 18.1767 154.145 16.4492C154.581 15.7731 155.108 15.137 155.729 14.5578C159.229 11.2931 164.676 11.0651 168.435 14.0201C172.946 17.5669 173.449 24.1297 169.668 28.3275C169.309 28.7272 168.924 29.0904 168.517 29.4165C166.915 30.7049 166.064 32.6881 166.096 34.7441C166.155 38.5622 164.829 42.4131 162.071 45.4747C160.99 46.6754 159.766 47.669 158.447 48.4547C156.504 49.613 155.234 51.67 155.131 53.9321C154.909 58.819 152.982 63.6598 149.3 67.4924C141.618 75.4867 128.868 76.0441 120.529 68.7579C111.72 61.0618 110.953 47.6584 118.76 38.9892C122.158 35.2164 126.614 32.9699 131.269 32.2918Z" fill="#FFD08D"/>
<path fill-rule="evenodd" clip-rule="evenodd" d="M102.255 87.8735L126.638 60.7962L125.713 44.2582L126.615 44.2061L127.49 59.8497L139.251 46.7899L138.637 35.7968L139.54 35.7453L140.105 45.8421L150.583 34.2065L150.13 26.1001L151.033 26.0489L151.436 33.2585L162.975 20.4446L163.648 21.0503L152.291 33.6624L159.113 33.2725L159.163 34.1766L151.43 34.6181L140.85 46.3661L150.785 45.7984L150.835 46.7033L139.989 47.3217L128.116 60.5069L143.843 59.609L143.894 60.5133L127.254 61.4636L102.928 88.4756L102.255 87.8735Z" fill="#3E3F71"/>
<g clip-path="url(#clip0)">
<mask id="mask0" mask-type="alpha" maskUnits="userSpaceOnUse" x="0" y="50" width="160" height="146">
<path d="M127.144 50.6333H32.6882L0.21875 92.9177V108.019C0.21875 109.687 1.54021 111.04 3.17064 111.04H6.12252V189.568C6.12252 192.904 8.76545 195.609 12.026 195.609H147.806C151.067 195.609 153.71 192.904 153.71 189.568V111.04H156.662C158.292 111.04 159.614 109.688 159.614 108.019V92.9177L127.144 50.6333Z" fill="white"/>
</mask>
<g mask="url(#mask0)">
<path d="M127.144 50.6333H32.6882L0.21875 92.9177V108.019C0.21875 109.687 1.54021 111.04 3.17064 111.04H6.12252V189.568C6.12252 192.904 8.76545 195.609 12.026 195.609H147.806C151.067 195.609 153.71 192.904 153.71 189.568V111.04H156.662C158.292 111.04 159.614 109.688 159.614 108.019V92.9177L127.144 50.6333Z" fill="url(#paint0_linear)"/>
</g>
<path fill-rule="evenodd" clip-rule="evenodd" d="M0.21875 92.9177H159.613V108.019C159.613 109.687 158.292 111.04 156.661 111.04H3.17064C1.54055 111.04 0.21875 109.688 0.21875 108.019V92.9177Z" fill="#2CB6D4"/>
<mask id="mask1" mask-type="alpha" maskUnits="userSpaceOnUse" x="0" y="50" width="160" height="43">
<path d="M159.613 92.9177L127.144 50.6333H115.337H44.4951H32.6882L0.21875 92.9177H159.613Z" fill="white"/>
</mask>
<g mask="url(#mask1)">
<path d="M159.613 92.9177L127.144 50.6333H115.337H44.4951H32.6882L0.21875 92.9177H159.613Z" fill="url(#paint1_linear)"/>
</g>
<path fill-rule="evenodd" clip-rule="evenodd" d="M44.4951 65.7349H38.5917L29.7363 77.816H44.4951H115.337H130.096L121.24 65.7349H115.337" fill="#4299AC"/>
<mask id="mask2" mask-type="alpha" maskUnits="userSpaceOnUse" x="44" y="20" width="72" height="58">
<path d="M50.3986 20.4299H109.434C112.694 20.4299 115.337 23.1343 115.337 26.4705V77.816H44.4951V26.4705C44.4951 23.1343 47.138 20.4299 50.3986 20.4299Z" fill="white"/>
</mask>
<g mask="url(#mask2)">
<path d="M50.3986 20.4299H109.434C112.694 20.4299 115.337 23.1343 115.337 26.4705V77.816H44.4951V26.4705C44.4951 23.1343 47.138 20.4299 50.3986 20.4299Z" fill="url(#paint2_linear)"/>
<path d="M81.7549 78.5581C91.0974 78.5581 98.671 70.8095 98.671 61.2511C98.671 51.6927 91.0974 43.9441 81.7549 43.9441C72.4124 43.9441 64.8389 51.6927 64.8389 61.2511C64.8389 70.8095 72.4124 78.5581 81.7549 78.5581Z" fill="#EEFBFD"/>
<path d="M93.6354 56.061C94.8477 57.7402 95.4818 59.7247 95.4818 61.7855C95.4818 64.2852 94.4746 66.594 92.7588 68.464L93.8032 72.4521H96.9738L100.312 68.5785L101.207 62.9113L101.394 59.5338L98.0928 55.7175L93.6354 56.061Z" fill="#A2E0EC"/>
<mask id="mask3" mask-type="alpha" maskUnits="userSpaceOnUse" x="56" y="51" width="44" height="44">
<path d="M56.8939 72.9101L57.4721 75.2571C57.4721 75.2571 64.2982 89.5874 79.6662 94.9112C79.6662 94.9112 93.6478 88.8051 99.8584 78.4438L91.2855 70.792C91.2855 70.792 87.1824 74.1313 81.0837 74.1313C74.9849 74.1313 66.7041 70.4104 66.7041 62.7396C66.7041 55.0688 75.2833 52.2638 75.2833 52.2638L71.6278 51.3479H62.2839L56.353 65.9644L56.8939 72.9101Z" fill="white"/>
</mask>
<g mask="url(#mask3)">
<path d="M56.8939 72.9101L57.4721 75.2571C57.4721 75.2571 64.2982 89.5874 79.6662 94.9112C79.6662 94.9112 93.6478 88.8051 99.8584 78.4438L91.2855 70.792C91.2855 70.792 87.1824 74.1313 81.0837 74.1313C74.9849 74.1313 66.7041 70.4104 66.7041 62.7396C66.7041 55.0688 75.2833 52.2638 75.2833 52.2638L71.6278 51.3479H62.2839L56.353 65.9644L56.8939 72.9101Z" fill="#A2E0EC"/>
</g>
<mask id="mask4" mask-type="alpha" maskUnits="userSpaceOnUse" x="51" y="40" width="58" height="40">
<path d="M108.537 56.8012C108.276 56.534 102.906 49.4848 81.8616 40.792C81.1504 40.5084 80.4621 40.4871 79.7966 40.728C60.5156 45.7583 51.0562 56.1402 51.0562 56.8012C51.0562 57.4621 53.8164 67.3955 55.6069 71.4408C55.7561 71.7843 58.1434 76.0967 59.9152 78.4437C58.8707 76.0967 57.733 74.055 57.733 70.5439C57.733 60.6406 65.2306 52.5882 74.6118 52.2447C74.8356 52.2447 75.0781 52.2447 75.3019 52.2638L73.0638 49.974C73.0638 49.974 82.072 48.4284 93.6353 55.584C93.6353 55.584 93.8032 55.9465 93.6353 57.0151C93.6353 57.0151 99.0813 59.4194 99.5476 64.0944C100.014 68.7694 97.123 71.4408 94.7917 71.8224C94.7917 71.8224 96.004 69.8952 94.1389 68.8648C93.7472 68.6358 93.281 68.5404 92.8147 68.5595C89.2525 68.5595 88.8422 72.7192 88.8422 72.7192C88.8048 72.9291 88.8048 73.139 88.8048 73.3489C88.8048 73.3489 88.208 79.436 98.8015 79.3215C98.8015 79.3215 104.173 73.1009 105.59 67.51C106.113 65.4492 106.486 63.9036 106.728 62.7587C107.325 61.1367 107.903 58.7475 108.463 57.011L108.537 56.8012Z" fill="white"/>
</mask>
<g mask="url(#mask4)">
<path d="M108.537 56.8012C108.276 56.534 102.906 49.4848 81.8616 40.792C81.1504 40.5084 80.4621 40.4871 79.7966 40.728C60.5156 45.7583 51.0562 56.1402 51.0562 56.8012C51.0562 57.4621 53.8164 67.3955 55.6069 71.4408C55.7561 71.7843 58.1434 76.0967 59.9152 78.4437C58.8707 76.0967 57.733 74.055 57.733 70.5439C57.733 60.6406 65.2306 52.5882 74.6118 52.2447C74.8356 52.2447 75.0781 52.2447 75.3019 52.2638L73.0638 49.974C73.0638 49.974 82.072 48.4284 93.6353 55.584C93.6353 55.584 93.8032 55.9465 93.6353 57.0151C93.6353 57.0151 99.0813 59.4194 99.5476 64.0944C100.014 68.7694 97.123 71.4408 94.7917 71.8224C94.7917 71.8224 96.004 69.8952 94.1389 68.8648C93.7472 68.6358 93.281 68.5404 92.8147 68.5595C89.2525 68.5595 88.8422 72.7192 88.8422 72.7192C88.8048 72.9291 88.8048 73.139 88.8048 73.3489C88.8048 73.3489 88.208 79.436 98.8015 79.3215C98.8015 79.3215 104.173 73.1009 105.59 67.51C106.113 65.4492 106.486 63.9036 106.728 62.7587C107.325 61.1367 107.903 58.7475 108.463 57.011L108.537 56.8012Z" fill="url(#paint3_linear)"/>
</g>
<path opacity="0.895424" d="M89.0289 57.4349C89.1781 57.3585 89.663 57.1105 90.2225 56.519C91.3415 56.6716 92.4419 57.0342 92.4419 57.0342C90.409 55.7748 87.6301 55.0306 84.5527 55.0497C84.5527 55.0497 85.7277 56.767 88.9916 57.473C88.9916 57.473 89.0102 57.4539 89.0289 57.4349Z" fill="#67D2E9"/>
<path d="M108.742 55.8611C97.5148 45.9373 83.3217 40.7809 80.3749 39.7885L80.0952 39.6912L79.7222 39.5745L79.0694 39.7885C76.1226 40.7809 61.9296 45.9373 50.7019 55.8611L50.4595 56.0751L50.5154 56.4059C50.5341 56.4838 51.7464 64.0141 55.8868 72.5174C58.33 77.5182 61.2954 81.8574 64.6898 85.4572C68.8489 89.8548 73.6981 93.1044 79.0881 95.128L79.4051 95.2448L79.7222 95.3615L80.0579 95.2253L80.3749 95.1086C85.765 93.0849 90.5954 89.8354 94.7732 85.4378C98.1676 81.8574 101.133 77.4988 103.576 72.498C107.717 64.0141 108.948 56.4643 108.948 56.3865L109.004 56.0557L108.742 55.8611ZM102.55 71.9726C100.163 76.8566 97.2723 81.118 93.9525 84.6205C89.8308 88.9597 85.0562 92.1509 79.7222 94.1162C74.3881 92.1509 69.6136 88.9792 65.4918 84.64C62.172 81.1375 59.2812 76.8956 56.8939 72.0115C53.2944 64.6563 51.9515 58.0599 51.6718 56.5421C63.1791 46.4822 77.7266 41.4619 79.7222 40.8003C81.6991 41.4619 96.2652 46.4822 107.773 56.5421C107.493 58.0404 106.131 64.6368 102.55 71.9726Z" fill="#9AE1F1"/>
<path opacity="0.6" d="M116.385 72.7673H41.9653V77.8777H116.385V72.7673Z" fill="url(#paint4_linear)"/>
</g>
</g>
<defs>
<linearGradient id="paint0_linear" x1="103.568" y1="80.3488" x2="83.9433" y2="182.543" gradientUnits="userSpaceOnUse">
<stop stop-color="#98DEEE"/>
<stop offset="1" stop-color="#44C9E6"/>
</linearGradient>
<linearGradient id="paint1_linear" x1="79.916" y1="79.5145" x2="79.916" y2="29.8842" gradientUnits="userSpaceOnUse">
<stop stop-color="#98DEEE"/>
<stop offset="1" stop-color="#44C9E6"/>
</linearGradient>
<linearGradient id="paint2_linear" x1="33.2096" y1="22.5295" x2="92.0301" y2="74.9102" gradientUnits="userSpaceOnUse">
<stop stop-color="#FAF9F4"/>
<stop offset="1" stop-color="#CEF1F9"/>
</linearGradient>
<linearGradient id="paint3_linear" x1="58.4523" y1="62.2766" x2="94.9691" y2="46.8916" gradientUnits="userSpaceOnUse">
<stop stop-color="#53DDFB"/>
<stop offset="1" stop-color="#44C9E6"/>
</linearGradient>
<linearGradient id="paint4_linear" x1="79.175" y1="72.7673" x2="79.175" y2="77.7711" gradientUnits="userSpaceOnUse">
<stop stop-color="#4299AC" stop-opacity="0"/>
<stop offset="1" stop-color="#4299AC" stop-opacity="0.48"/>
</linearGradient>
<clipPath id="clip0">
<rect width="159.833" height="175.455" fill="white" transform="translate(0 20.4299)"/>
</clipPath>
</defs>
</svg>
