<?xml version="1.0" encoding="UTF-8"?>
<svg width="243px" height="209px" viewBox="0 0 243 209" version="1.1" xmlns="http://www.w3.org/2000/svg" xmlns:xlink="http://www.w3.org/1999/xlink">
    <!-- Generator: Sketch 54.1 (76490) - https://sketchapp.com -->
    <title>Group 31</title>
    <desc>Created with Sketch.</desc>
    <defs>
        <polygon id="path-1" points="0 0.5003 283.5 0.5003 283.5 284 0 284"></polygon>
    </defs>
    <g id="Page-1" stroke="none" stroke-width="1" fill="none" fill-rule="evenodd">
        <g id="Group-31" transform="translate(-20.000000, -38.000000)">
            <g id="Group-30">
                <g id="Group-3" transform="translate(0.000000, 0.500000)">
                    <mask id="mask-2" fill="white">
                        <use xlink:href="#path-1"></use>
                    </mask>
                    <g id="Clip-2"></g>
                </g>
                <path d="M142.1556,173.3333 C178.4006,173.3123 207.3206,144.0753 208.0466,108.8233 C208.7956,72.4163 179.6326,41.9103 142.8396,41.5463 C106.1316,41.1843 76.2946,70.8213 76.2716,107.3913 C76.2486,144.0373 106.0546,173.3343 142.1556,173.3333 M142.2066,176.1663 C104.1546,176.1663 73.3656,145.3653 73.4276,107.2503 C73.4886,69.2603 104.6246,38.1713 143.1626,38.7053 C180.4346,39.2203 210.8886,69.5793 210.8986,107.4183 C210.9086,145.8153 179.6266,176.2263 142.2066,176.1663" id="Fill-4" fill="#FFFFFF"></path>
                <path d="M68.6395,244.7416 L68.6395,245.9166 L51.5925,245.9166 L51.5925,244.6666 C52.2255,244.6666 52.8815,244.6776 53.5355,244.6646 C56.0525,244.6166 57.0105,243.7336 57.1905,241.2536 C57.2705,240.1466 57.3255,239.0356 57.3265,237.9276 C57.3385,230.3726 57.3335,222.8166 57.3335,215.2616 L57.3335,214.3576 C57.2935,214.3426 57.2535,214.3266 57.2135,214.3106 C57.0875,214.5646 56.9515,214.8136 56.8365,215.0726 C52.3985,225.1146 47.9605,235.1566 43.5285,245.2016 C43.3335,245.6426 43.1905,246.0026 42.5565,246.0016 C41.9185,246.0016 41.7735,245.6316 41.5795,245.1946 C37.1095,235.1376 32.6365,225.0826 28.1615,215.0266 C28.0545,214.7856 27.9315,214.5516 27.6665,214.3346 C27.6665,214.5656 27.6665,214.7986 27.6665,215.0306 C27.6765,222.4466 27.6795,229.8626 27.7015,237.2776 C27.7045,238.2206 27.7645,239.1666 27.8695,240.1016 C28.1245,242.3796 29.6885,244.0126 32.0205,244.4896 C32.4545,244.5786 32.8935,244.6396 33.3725,244.7206 L33.3725,245.9146 L20.6495,245.9146 L20.6495,244.7546 C21.2635,244.6196 21.9155,244.5196 22.5395,244.3306 C24.7245,243.6666 25.9995,242.1376 26.1755,239.8736 C26.3105,238.1326 26.4035,236.3826 26.4035,234.6366 C26.4055,228.2766 26.3655,221.9176 26.3255,215.5576 C26.3215,214.8946 26.2525,214.2256 26.1445,213.5706 C25.9355,212.3106 25.2625,211.6536 23.9905,211.5146 C22.8925,211.3956 21.7855,211.3636 20.6375,211.2906 L20.6375,210.0826 L23.3345,210.0826 C25.8065,210.0826 28.2795,210.1016 30.7505,210.0676 C31.3435,210.0596 31.6175,210.2586 31.8545,210.7986 C35.9815,220.1586 40.1315,229.5096 44.2775,238.8626 C44.3675,239.0636 44.4635,239.2626 44.6105,239.5806 C44.7635,239.2936 44.8855,239.0956 44.9775,238.8856 C49.1005,229.5226 53.2225,220.1596 57.3375,210.7946 C57.5255,210.3666 57.6915,210.0606 58.2755,210.0666 C61.5245,210.0996 64.7745,210.0816 68.0245,210.0856 C68.2145,210.0856 68.4045,210.1186 68.6295,210.1386 L68.6295,211.2996 C67.5445,211.3536 66.4435,211.3686 65.3505,211.4726 C63.5065,211.6486 62.8675,212.2966 62.6905,214.1356 C62.5975,215.1006 62.5365,216.0736 62.5355,217.0436 C62.5225,224.2936 62.5165,231.5426 62.5385,238.7926 C62.5425,239.9536 62.6315,241.1226 62.7885,242.2726 C62.9685,243.5806 63.7835,244.3706 65.1045,244.5126 C66.2565,244.6376 67.4175,244.6666 68.6395,244.7416" id="Fill-6" fill="#FFFFFF"></path>
                <path d="M203.1868,227.4584 C203.1458,226.8034 203.0908,225.5564 202.9838,224.3124 C202.9208,223.5964 202.7868,222.8854 202.6618,222.1754 C201.4118,215.0224 196.9698,211.0264 190.0348,210.8094 C183.8528,210.6144 179.3288,213.6824 177.5438,219.5994 C175.7938,225.3994 175.8498,231.2764 177.7418,237.0494 C178.9698,240.7994 181.4578,243.4764 185.3478,244.5644 C186.7488,244.9564 188.2358,245.1764 189.6898,245.2164 C194.8408,245.3584 198.7738,243.2564 201.1408,238.5774 C202.8128,235.2734 203.1488,231.6874 203.1868,227.4584 M189.7848,246.6594 C184.4128,246.6054 179.5988,245.1254 175.6438,241.3514 C173.1018,238.9244 171.4628,235.9784 170.7758,232.5344 C169.9378,228.3404 169.9828,224.1634 171.7358,220.2024 C174.3158,214.3694 179.0058,211.0634 185.1458,209.8804 C190.1028,208.9244 195.0038,209.3034 199.5848,211.6444 C205.4038,214.6144 208.6598,219.3534 209.1998,225.9114 C209.5298,229.9244 209.0628,233.8034 207.0658,237.3524 C204.1098,242.6044 199.4818,245.4444 193.5928,246.3214 C192.3338,246.5094 191.0538,246.5514 189.7848,246.6594" id="Fill-8" fill="#FFFFFF"></path>
                <path d="M230.8333,213.3148 L230.8333,214.3668 C230.8333,222.5608 230.8333,230.7538 230.8343,238.9488 C230.8343,239.3918 230.8573,239.8358 230.8623,240.2808 C230.8953,242.9878 232.2633,243.9488 234.7113,244.4808 C235.4633,244.6448 236.2483,244.6548 237.0793,244.7408 L237.0793,245.9068 L223.8163,245.9068 L223.8163,244.8478 C225.0403,244.5128 226.2403,244.2758 227.3713,243.8508 C228.6273,243.3788 229.4273,242.4778 229.4023,241.0118 C229.3903,240.2098 229.4953,239.4048 229.4953,238.6008 C229.4943,231.4348 229.4943,224.2688 229.4583,217.1038 C229.4533,215.9998 229.3343,214.8838 229.1493,213.7938 C228.8783,212.1938 228.2013,211.6278 226.5803,211.4768 C225.8113,211.4058 225.0383,211.3638 224.2183,211.3048 L224.2183,210.0828 L226.2933,210.0828 C228.8203,210.0828 231.3493,210.1048 233.8763,210.0668 C234.5303,210.0568 234.9293,210.2698 235.3203,210.7888 C241.9743,219.6098 248.6473,228.4168 255.3173,237.2258 C255.4793,237.4378 255.6513,237.6408 255.9723,238.0378 L255.9723,237.0298 C255.9723,230.4468 255.9773,223.8638 255.9663,217.2818 C255.9643,216.4778 255.8873,215.6748 255.8323,214.8728 C255.7333,213.4128 254.9933,212.3958 253.5953,211.9898 C252.4073,211.6448 251.1773,211.4508 249.8863,211.1718 L249.8863,210.1328 L262.8143,210.1328 L262.8143,211.2978 C262.2253,211.4108 261.6043,211.5048 260.9973,211.6518 C260.5153,211.7688 260.0363,211.9208 259.5763,212.1078 C258.2153,212.6578 257.4443,213.6578 257.3583,215.1438 C257.3283,215.6698 257.3083,216.1988 257.3083,216.7248 C257.3053,226.3638 257.3063,236.0018 257.3063,245.6398 L257.3063,246.6248 C256.5283,246.9138 256.0443,246.7108 255.5653,246.0758 C247.5553,235.4258 239.5213,224.7938 231.4933,214.1578 C231.3273,213.9378 231.1543,213.7238 230.8333,213.3148" id="Fill-10" fill="#FFFFFF"></path>
                <path d="M82.2366,245.9203 L82.2366,244.7463 C83.1186,244.6753 84.0246,244.6493 84.9156,244.5193 C86.3896,244.3023 87.1586,243.5853 87.3416,242.0953 C87.5136,240.6953 87.5676,239.2743 87.5716,237.8623 C87.5946,231.2523 87.5956,224.6423 87.5716,218.0313 C87.5666,216.5913 87.4836,215.1463 87.3316,213.7133 C87.1816,212.3053 86.4666,211.6653 85.0636,211.4973 C84.3796,211.4153 83.6926,211.3643 82.9636,211.2953 L82.9636,210.1523 L108.5496,210.1523 C108.8266,213.0583 109.1076,215.9973 109.3866,218.9243 C108.2486,219.2503 108.1966,219.1923 107.8826,218.1813 C107.5376,217.0723 107.1946,215.9533 106.7176,214.8993 C105.7476,212.7523 103.9986,211.6283 101.6706,211.5353 C98.8146,211.4223 95.9546,211.4203 93.0956,211.3733 C93.0186,211.3723 92.9416,211.4183 92.8096,211.4583 L92.8096,226.4393 C95.0716,226.3213 97.3136,226.2873 99.5346,226.0603 C100.8136,225.9283 101.6156,225.0683 101.7316,223.7143 C101.8056,222.8363 101.8596,221.9563 101.9236,221.0403 L103.1226,221.0403 L103.1226,233.2493 L101.9416,233.2493 C101.8576,232.2913 101.8206,231.3253 101.6796,230.3763 C101.4306,228.6943 100.7426,227.9233 99.0336,227.8123 C96.9946,227.6793 94.9406,227.7803 92.8006,227.7803 C92.7886,227.9583 92.7526,228.2233 92.7536,228.4863 C92.7776,232.1243 92.7756,235.7623 92.8526,239.3983 C92.8766,240.5263 93.0986,241.6543 93.2716,242.7753 C93.3936,243.5703 93.9316,244.0423 94.6726,244.2703 C95.0936,244.3993 95.5366,244.5483 95.9686,244.5463 C98.4896,244.5383 101.0206,244.6173 103.5286,244.4153 C105.8676,244.2263 107.6306,242.8033 108.7776,240.8433 C109.7186,239.2333 110.3826,237.4513 111.0666,235.7063 C111.4826,234.6443 111.3956,234.6093 112.6386,234.8723 C112.3866,238.5323 112.1336,242.2023 111.8786,245.9203 L82.2366,245.9203 Z" id="Fill-12" fill="#FFFFFF"></path>
                <path d="M157.3274,235.4623 C157.2374,238.9433 157.1484,242.4233 157.0584,245.9363 L126.6984,245.9363 L126.6984,244.7433 C127.6654,244.6703 128.6604,244.6533 129.6364,244.5073 C131.0984,244.2873 131.8764,243.5053 131.9984,242.0303 C132.1484,240.2363 132.2294,238.4333 132.2384,236.6323 C132.2664,230.7743 132.2664,224.9153 132.2384,219.0573 C132.2294,217.3123 132.1534,215.5633 131.9974,213.8253 C131.8554,212.2523 131.1714,211.6433 129.5864,211.4853 C128.6514,211.3923 127.7094,211.3633 126.7044,211.3023 L126.7044,210.1433 L143.7814,210.1433 L143.7814,211.2973 C142.5294,211.3583 141.2874,211.3803 140.0544,211.4913 C138.4744,211.6333 137.8244,212.2493 137.6564,213.8373 C137.5104,215.2133 137.4324,216.6023 137.4284,217.9853 C137.4054,224.9273 137.4094,231.8683 137.4264,238.8103 C137.4284,240.0003 137.4984,241.1933 137.6104,242.3783 C137.7144,243.4723 138.4044,244.1123 139.4454,244.3793 C139.7934,244.4683 140.1534,244.5673 140.5074,244.5653 C143.3334,244.5413 146.1644,244.5833 148.9834,244.4273 C151.0924,244.3113 152.6074,242.9863 153.5974,241.2423 C154.4644,239.7133 155.1074,238.0433 155.7034,236.3823 C155.9984,235.5623 156.3004,235.1183 157.3274,235.4623" id="Fill-14" fill="#FFFFFF"></path>
                <path d="M142.6722,123.2567 C142.4432,122.7287 142.3062,122.4277 142.1782,122.1227 C136.8322,109.3047 131.4822,96.4887 126.1522,83.6647 C125.9082,83.0757 125.6382,82.8367 124.9572,82.8417 C119.8182,82.8777 114.6802,82.8607 109.5422,82.8607 L108.6602,82.8607 L108.6602,84.8657 C111.4742,84.8657 114.0052,85.4927 116.1552,87.3087 C116.7432,87.8047 117.0242,88.3227 117.0222,89.1427 C116.9892,100.5857 117.0002,112.0277 116.9992,123.4707 C116.9992,123.8047 116.9982,124.1377 116.9792,124.4707 C116.6832,129.7327 114.0342,133.3917 109.0282,134.0287 C108.8652,134.0497 108.6282,134.3187 108.6092,134.4917 C108.5532,135.0047 108.5892,135.5277 108.5892,136.0697 L127.6262,136.0697 L127.6262,134.0937 C127.3572,134.0147 127.1212,133.9447 126.8852,133.8767 C126.6452,133.8067 126.4042,133.7427 126.1662,133.6697 C122.8422,132.6357 120.5562,130.5257 119.7292,127.1047 C119.3422,125.5017 119.1192,123.8187 119.1102,122.1707 C119.0542,112.1717 119.0822,102.1737 119.0842,92.1747 C119.0842,91.9107 119.1102,91.6477 119.1252,91.3847 C119.3872,91.6917 119.5332,92.0117 119.6672,92.3377 C125.5702,106.6947 131.4832,121.0477 137.3502,135.4187 C137.7202,136.3267 138.3272,136.0787 138.9452,136.1467 C139.5492,136.2137 139.8712,136.0307 140.1112,135.4207 C141.8392,131.0367 143.6092,126.6697 145.3722,122.2987 C149.6322,111.7327 153.8942,101.1667 158.1572,90.6017 C158.2572,90.3537 158.3842,90.1167 158.4982,89.8757 L158.6392,89.9427 L158.6392,90.2737 C158.6392,102.4667 158.6432,114.6597 158.6322,126.8517 C158.6312,127.8777 158.5232,128.9027 158.4682,129.9277 C158.3722,131.6817 157.4412,132.8157 155.8312,133.4077 C155.2882,133.6077 154.7142,133.7487 154.1422,133.8297 C153.1632,133.9677 152.1762,134.0377 151.2032,134.1347 L151.2032,136.0847 L175.4722,136.0847 C175.4722,135.6777 175.4342,135.3197 175.4802,134.9707 C175.5732,134.2677 175.3412,133.9717 174.5892,133.9857 C173.9012,133.9987 173.2042,133.8927 172.5222,133.7767 C169.7442,133.3037 168.6172,132.3487 168.2022,130.1187 C168.1012,129.5757 168.0332,129.0167 168.0322,128.4647 C168.0142,119.5497 167.9902,110.6347 168.0082,101.7187 C168.0162,97.7227 168.0702,93.7247 168.1792,89.7297 C168.2542,86.9467 169.5172,85.5907 172.2782,85.1707 C173.3122,85.0127 174.3592,84.9457 175.4092,84.8357 L175.4092,82.8607 L174.4442,82.8607 C169.6952,82.8607 164.9462,82.8787 160.1972,82.8437 C159.4572,82.8377 159.0992,83.0257 158.8052,83.7487 C154.2812,94.8957 149.7202,106.0277 145.1672,117.1637 C144.3632,119.1297 143.5592,121.0937 142.6722,123.2567 M80.6672,107.4647 C80.6672,73.3817 108.1712,45.8747 142.2852,45.9247 C176.6592,45.9757 204.2622,74.1607 203.6742,108.5417 C203.1072,141.7137 175.9832,169.2997 141.5012,168.9537 C107.3792,168.6097 80.5752,140.7437 80.6672,107.4647" id="Fill-20" fill="#FFFFFF"></path>
                <path d="M138.326,134.0321 C137.409,131.8481 136.531,129.7601 135.654,127.6721 C130.66,115.7921 125.669,103.9121 120.67,92.0351 C120.337,91.2441 119.957,90.4711 119.573,89.7031 C118.522,87.6041 117.024,85.9551 114.795,85.0311 C117.168,84.7781 119.384,85.0571 120.837,87.1781 C121.724,88.4711 122.509,89.8701 123.11,91.3181 C128.253,103.7051 133.34,116.1151 138.453,128.5141 C139.199,130.3241 139.641,132.1131 138.326,134.0321" id="Fill-24" fill="#FFFFFF"></path>
                <path d="M162.8987,84.9808 C162.0787,87.8998 162.3177,90.8248 162.3127,93.7288 C162.2947,104.9718 162.3227,116.2138 162.2867,127.4568 C162.2817,128.9428 162.0437,130.4338 161.8427,131.9128 C161.6917,133.0268 160.9567,133.7008 159.8767,133.8978 C159.0457,134.0478 158.1907,134.0588 157.1967,134.1448 C157.3437,133.9248 157.3687,133.8428 157.4207,133.8158 C159.1727,132.8938 159.8007,131.3568 159.8067,129.4748 C159.8077,129.0308 159.8327,128.5868 159.8327,128.1428 C159.8337,115.6238 159.8297,103.1038 159.8397,90.5838 C159.8407,89.5868 159.9017,88.5858 160.0107,87.5958 C160.1977,85.8928 161.1277,85.0428 162.8987,84.9808" id="Fill-26" fill="#FFFFFF"></path>
                <path d="M120.8792,134.0301 L112.9462,134.0301 C114.9372,132.7461 116.5682,131.3811 117.3832,129.0801 C118.0272,131.1571 118.8832,132.8771 120.8792,134.0301" id="Fill-28" fill="#FFFFFF"></path>
            </g>
        </g>
    </g>
</svg>