<svg width="342" height="370" viewBox="0 0 342 370" fill="none" xmlns="http://www.w3.org/2000/svg">
<path fill-rule="evenodd" clip-rule="evenodd" d="M272.969 102.53C272.969 102.53 262.99 128.904 245.536 141.504C228.083 154.104 219.375 141.222 219.375 141.222L272.969 102.53Z" fill="#6F6DA4"/>
<path fill-rule="evenodd" clip-rule="evenodd" d="M272.904 102.439C272.904 102.439 244.767 103.582 227.313 116.182C209.86 128.782 219.309 141.131 219.309 141.131L272.904 102.439Z" fill="#6F6DA4"/>
<path fill-rule="evenodd" clip-rule="evenodd" d="M211.764 147.399L274.847 101.857L274.032 100.725L210.949 146.268L211.764 147.399Z" fill="#3E3F71"/>
<path fill-rule="evenodd" clip-rule="evenodd" d="M177.979 81.0214C180.966 79.0795 182.771 75.7102 182.742 72.1442C182.723 69.5777 183.093 66.9659 183.894 64.385C185.879 57.9886 190.154 52.9414 195.535 49.8616C198.428 48.2032 200.494 45.3706 200.961 42.0629C201.143 40.7687 201.488 39.4709 202.011 38.1931C204.954 30.9913 212.839 26.9464 220.398 28.7496C229.472 30.9134 234.682 40.258 231.959 49.028C231.701 49.8628 231.38 50.6609 231.002 51.419C229.514 54.4116 229.607 57.9184 231.055 60.9313C233.742 66.5265 234.406 73.1132 232.42 79.5097C231.641 82.0182 230.511 84.318 229.1 86.3755C227.019 89.4085 226.546 93.3089 227.934 96.718C230.932 104.083 231.384 112.54 228.559 120.703C222.661 137.733 204.222 147.236 186.953 142.158C168.711 136.795 158.453 117.534 164.075 99.4231C166.522 91.541 171.571 85.1911 177.979 81.0214Z" fill="#FFD08D"/>
<path fill-rule="evenodd" clip-rule="evenodd" d="M172.994 182.814L190.549 126.247L177.926 102.466L179.222 101.775L191.163 124.27L199.632 96.9866L191.242 81.178L192.539 80.4877L200.247 95.0063L207.792 70.6982L201.605 59.041L202.903 58.3506L208.406 68.718L216.715 41.9484L218.119 42.3849L209.942 68.7324L219.747 63.5124L220.436 64.8127L209.322 70.729L201.704 95.2722L215.981 87.6711L216.672 88.9722L201.084 97.2687L192.535 124.814L215.137 112.782L215.827 114.082L191.914 126.812L174.397 183.245L172.994 182.814Z" fill="#3E3F71"/>
<g clip-path="url(#clip0)">
<path d="M99.5693 255.804C50.269 255.804 10.3008 245.634 10.3008 235.203V259.223C10.3282 269.647 50.2828 279.837 99.5693 279.837C148.856 279.837 188.81 269.647 188.838 259.223V235.203C188.838 245.634 148.87 255.804 99.5693 255.804Z" fill="#93A6C0"/>
<path d="M89.2685 218.036C39.9683 218.036 0 207.866 0 197.436V221.456C0.0274672 231.879 39.982 242.07 89.2685 242.07C138.555 242.07 178.51 231.879 178.537 221.456V197.436C178.537 207.866 138.569 218.036 89.2685 218.036Z" fill="#A7B9D1"/>
<path d="M109.868 180.269C60.5679 180.269 20.5996 170.099 20.5996 159.668V183.688C20.6271 194.112 60.5816 204.302 109.868 204.302C159.155 204.302 199.109 194.112 199.137 183.688V159.668C199.137 170.099 159.168 180.269 109.868 180.269Z" fill="#93A6C0"/>
<path d="M178.537 118.914C178.537 129.341 138.569 139.068 89.2685 139.068C39.9683 139.068 0 129.341 0 118.914C0 108.483 39.9683 101.3 89.2685 101.3C138.569 101.3 178.537 108.483 178.537 118.914Z" fill="#D8E4F3"/>
<path d="M89.2685 139.068C39.9683 139.068 0 128.898 0 118.467V142.487C0.0274672 152.911 39.982 163.102 89.2685 163.102C138.555 163.102 178.51 152.911 178.537 142.487V118.467C178.537 128.898 138.569 139.068 89.2685 139.068Z" fill="#A7B9D1"/>
<path d="M13.7344 129.021V153.038C15.8219 153.807 18.1085 154.549 20.6012 155.256V131.236C18.1085 130.529 15.8219 129.787 13.7344 129.021Z" fill="#B5C5D9"/>
<path d="M157.936 131.236V155.256C160.428 154.549 162.715 153.807 164.802 153.038V129.021C162.715 129.791 160.428 130.529 157.936 131.236Z" fill="#B5C5D9"/>
<path d="M30.9004 133.729V157.752C33.0978 158.209 35.3879 158.642 37.7672 159.05V135.027C35.3879 134.618 33.0978 134.186 30.9004 133.729Z" fill="#B5C5D9"/>
<path d="M140.77 135.027V159.054C143.149 158.642 145.439 158.209 147.636 157.752V133.729C145.439 134.186 143.149 134.618 140.77 135.027Z" fill="#B5C5D9"/>
<path d="M48.0664 136.558V160.585C50.305 160.873 52.5882 161.141 54.9332 161.381V137.355C52.5882 137.114 50.305 136.843 48.0664 136.558Z" fill="#B5C5D9"/>
<path d="M123.602 137.358V161.385C125.947 161.141 128.23 160.873 130.468 160.588V136.558C128.23 136.85 125.947 137.118 123.602 137.358Z" fill="#B5C5D9"/>
<path d="M65.2344 138.24V162.271C67.4901 162.429 69.7768 162.57 72.1012 162.683V138.649C69.7768 138.536 67.4901 138.398 65.2344 138.24Z" fill="#B5C5D9"/>
<path d="M106.436 138.649V162.683C108.76 162.57 111.047 162.429 113.302 162.271V138.24C111.047 138.398 108.76 138.536 106.436 138.649Z" fill="#B5C5D9"/>
<path d="M89.2693 139.068C88.1192 139.068 86.9758 139.057 85.8359 139.047V163.081C86.9758 163.091 88.1192 163.101 89.2693 163.101C90.4195 163.101 91.5629 163.091 92.7027 163.081V139.047C91.5629 139.057 90.4195 139.068 89.2693 139.068Z" fill="#B5C5D9"/>
<path d="M34.334 170.222V194.239C36.4215 195.008 38.7081 195.75 41.2008 196.457V172.437C38.7081 171.73 36.4215 170.988 34.334 170.222Z" fill="#9BB0CC"/>
<path d="M178.537 172.437V196.457C181.03 195.75 183.316 195.008 185.404 194.239V170.222C183.316 170.991 181.03 171.73 178.537 172.437Z" fill="#9BB0CC"/>
<path d="M51.502 174.93V198.953C53.6993 199.41 55.9894 199.843 58.3687 200.251V176.228C55.9894 175.819 53.6993 175.386 51.502 174.93Z" fill="#9BB0CC"/>
<path d="M161.371 176.228V200.255C163.75 199.843 166.041 199.41 168.238 198.953V174.93C166.041 175.386 163.75 175.819 161.371 176.228Z" fill="#9BB0CC"/>
<path d="M68.6699 177.762V201.789C70.9085 202.078 73.1917 202.345 75.5367 202.586V178.559C73.1917 178.315 70.9085 178.047 68.6699 177.762Z" fill="#9BB0CC"/>
<path d="M144.201 178.555V202.586C146.546 202.342 148.829 202.074 151.068 201.789V177.762C148.829 178.051 146.546 178.318 144.201 178.555Z" fill="#9BB0CC"/>
<path d="M85.8359 179.441V203.472C88.0917 203.629 90.3783 203.77 92.7027 203.884V179.85C90.3783 179.736 88.0917 179.599 85.8359 179.441Z" fill="#9BB0CC"/>
<path d="M127.035 179.85V203.884C129.36 203.77 131.646 203.629 133.902 203.472V179.441C131.646 179.599 129.36 179.736 127.035 179.85Z" fill="#9BB0CC"/>
<path d="M109.869 180.268C108.719 180.268 107.575 180.258 106.436 180.248V204.282C107.575 204.292 108.719 204.302 109.869 204.302C111.019 204.302 112.162 204.292 113.302 204.282V180.248C112.162 180.258 111.019 180.268 109.869 180.268Z" fill="#9BB0CC"/>
<path d="M13.7344 207.99V232.007C15.8219 232.776 18.1085 233.514 20.6012 234.224V210.204C18.1085 209.497 15.8219 208.756 13.7344 207.99Z" fill="#B5C5D9"/>
<path d="M157.936 210.204V234.224C160.428 233.517 162.715 232.776 164.802 232.007V207.99C162.715 208.759 160.428 209.497 157.936 210.204Z" fill="#B5C5D9"/>
<path d="M30.9004 212.697V236.721C33.0978 237.177 35.3879 237.61 37.7672 238.019V213.995C35.3879 213.587 33.0978 213.154 30.9004 212.697Z" fill="#B5C5D9"/>
<path d="M140.77 213.995V238.022C143.149 237.61 145.439 237.177 147.636 236.721V212.697C145.439 213.154 143.149 213.587 140.77 213.995Z" fill="#B5C5D9"/>
<path d="M48.0664 215.53V239.557C50.305 239.845 52.5882 240.113 54.9332 240.353V216.326C52.5882 216.082 50.305 215.815 48.0664 215.53Z" fill="#B5C5D9"/>
<path d="M123.602 216.323V240.353C125.947 240.109 128.23 239.842 130.468 239.557V215.53C128.23 215.818 125.947 216.086 123.602 216.323Z" fill="#B5C5D9"/>
<path d="M65.2344 217.209V241.239C67.4901 241.397 69.7768 241.538 72.1012 241.651V217.617C69.7768 217.504 67.4901 217.367 65.2344 217.209Z" fill="#B5C5D9"/>
<path d="M106.436 217.617V241.651C108.76 241.538 111.047 241.397 113.302 241.239V217.209C111.047 217.367 108.76 217.504 106.436 217.617Z" fill="#B5C5D9"/>
<path d="M89.2693 218.036C88.1192 218.036 86.9758 218.026 85.8359 218.015V242.049C86.9758 242.059 88.1192 242.07 89.2693 242.07C90.4195 242.07 91.5629 242.059 92.7027 242.049V218.015C91.5629 218.026 90.4195 218.036 89.2693 218.036Z" fill="#B5C5D9"/>
<path d="M24.0352 245.757V269.774C26.1227 270.543 28.4093 271.281 30.902 271.992V247.972C28.4093 247.265 26.1227 246.523 24.0352 245.757Z" fill="#9BB0CC"/>
<path d="M168.236 247.972V271.992C170.729 271.285 173.016 270.543 175.103 269.774V245.757C173.016 246.527 170.729 247.265 168.236 247.972Z" fill="#9BB0CC"/>
<path d="M41.2012 250.465V274.488C43.3985 274.945 45.6886 275.377 48.068 275.786V251.762C45.6886 251.354 43.3985 250.921 41.2012 250.465Z" fill="#9BB0CC"/>
<path d="M151.07 251.762V275.789C153.45 275.377 155.74 274.945 157.937 274.488V250.465C155.74 250.921 153.45 251.354 151.07 251.762Z" fill="#9BB0CC"/>
<path d="M58.3652 253.297V277.324C60.6038 277.613 62.887 277.88 65.232 278.121V254.094C62.887 253.85 60.6038 253.582 58.3652 253.297Z" fill="#9BB0CC"/>
<path d="M133.902 254.09V278.121C136.247 277.877 138.531 277.609 140.769 277.324V253.297C138.531 253.586 136.247 253.853 133.902 254.09Z" fill="#9BB0CC"/>
<path d="M75.5352 254.976V279.007C77.7909 279.165 80.0775 279.305 82.402 279.419V255.385C80.0775 255.271 77.7909 255.134 75.5352 254.976Z" fill="#9BB0CC"/>
<path d="M116.736 255.385V279.419C119.061 279.305 121.347 279.165 123.603 279.007V254.976C121.347 255.134 119.061 255.271 116.736 255.385Z" fill="#9BB0CC"/>
<path d="M99.5682 255.803C98.418 255.803 97.2747 255.793 96.1348 255.783V279.817C97.2747 279.827 98.418 279.837 99.5682 279.837C100.718 279.837 101.862 279.827 103.002 279.817V255.783C101.862 255.793 100.718 255.803 99.5682 255.803Z" fill="#9BB0CC"/>
<path d="M175.832 226.18C166.081 234.757 131.03 242.07 89.2691 242.07C56.6174 242.07 28.0755 237.596 12.5119 231.547C11.0802 232.844 10.3008 234.218 10.3008 235.649C10.3008 246.08 50.269 255.804 99.5693 255.804C148.873 255.804 188.838 246.08 188.838 235.649C188.838 232.055 184.083 228.841 175.832 226.18Z" fill="#B1C2D8"/>
<path d="M109.869 204.303C64.5034 204.303 27.069 195.667 21.3764 186.164C8.0582 189.182 0 193.202 0 197.882C0 208.309 39.9683 218.036 89.2685 218.036C138.569 218.036 178.537 208.309 178.537 197.882C178.537 197.422 178.434 196.972 178.28 196.526C161.906 201.133 137.343 204.303 109.869 204.303Z" fill="#C8D7EA"/>
<path d="M175.079 147.82C164.397 156.128 130.036 163.102 89.2677 163.102C62.9404 163.102 39.2808 160.19 22.9412 155.892C21.4271 157.231 20.5996 158.638 20.5996 160.115C20.5996 170.545 60.5679 180.269 109.868 180.269C159.168 180.269 199.137 170.545 199.137 160.115C199.137 155.129 189.993 150.889 175.079 147.82Z" fill="#B1C2D8"/>
</g>
<path d="M228.3 287.669C264.107 281.682 288.276 247.766 282.282 211.916C276.288 176.065 242.402 151.855 206.595 157.842C170.787 163.828 146.619 197.744 152.612 233.595C158.606 269.445 192.492 293.655 228.3 287.669Z" fill="#C1D2E8"/>
<path d="M260.667 197.32C266.366 202.845 269.104 208.234 270.395 215.961C271.963 225.338 269.548 234.644 264.144 242.754L270.647 257.047L282.8 255.015L293.169 238.347L293.044 216.517L291.642 203.729L276.597 191.533C265.124 192.053 259.813 193.986 260.667 197.32Z" fill="#A7B9D1"/>
<mask id="mask0" mask-type="alpha" maskUnits="userSpaceOnUse" x="113" y="174" width="195" height="192">
<path d="M129.475 282.42L133.161 290.854C133.161 290.854 168.313 340.229 230.554 350.35C230.554 350.35 280.315 318.485 297.619 275.646L259.964 252.438C259.964 252.438 246.331 267.591 222.956 271.499C199.582 275.407 165.511 266.756 160.7 237.983C155.89 209.21 187.012 193.192 187.012 193.192L172.425 192.099L136.608 198.087L123.043 256.714L129.475 282.42Z" fill="url(#paint0_linear)"/>
</mask>
<g mask="url(#mask0)">
<circle cx="216.012" cy="242.663" r="94.1696" transform="rotate(-9.49125 216.012 242.663)" fill="#A7B9D1"/>
</g>
<mask id="mask1" mask-type="alpha" maskUnits="userSpaceOnUse" x="81" y="107" width="251" height="204">
<path d="M317.313 188.903C316.147 188.071 299.4 143.241 215.253 129.129C212.45 127.829 126.213 128.327 142.094 144.485C71.3461 175.708 96.5821 223.257 96.9967 225.737C97.4112 228.216 114.218 263.707 123.619 277.732C124.406 278.924 136.262 293.571 144.527 301.24C139.054 293.104 133.412 286.178 131.21 273.01C125 235.865 148.685 200.856 184.425 193.556C185.286 193.413 186.212 193.258 187.085 193.186L177.069 186.032C177.069 186.032 210.63 174.464 259.434 193.89C259.434 193.89 260.306 195.143 260.332 199.258C260.332 199.258 282.711 204.784 287.43 222.023C292.149 239.262 282.741 251.135 274.045 254.055C274.045 254.055 277.481 246.05 269.688 243.382C268.04 242.773 266.193 242.716 264.419 243.087C250.767 245.37 251.8 261.238 251.8 261.238C251.787 262.051 251.919 262.839 252.05 263.622C252.05 263.622 253.581 286.837 294.108 279.616C294.108 279.616 310.796 252.841 312.724 230.965C313.435 222.903 313.891 216.863 314.106 212.416C315.376 205.949 316.097 196.617 317.151 189.747L317.313 188.903Z" fill="url(#paint1_radial)"/>
</mask>
<g mask="url(#mask1)">
<ellipse cx="214.437" cy="243.14" rx="92.5757" ry="95.2985" transform="rotate(-9.49125 214.437 243.14)" fill="#E6EFF9"/>
</g>
<path d="M242.935 203.782C243.458 203.398 245.163 202.16 246.933 199.582C251.319 199.436 255.764 200.091 255.764 200.091C247.182 196.669 236.066 195.657 224.28 197.702C224.28 197.702 229.863 203.388 242.814 203.945C242.815 203.951 242.875 203.867 242.935 203.782Z" fill="#889FBD"/>
<circle cx="213.989" cy="240.454" r="93.0213" transform="rotate(-9.49125 213.989 240.454)" stroke="#DCE7F5" stroke-width="10"/>
<defs>
<linearGradient id="paint0_linear" x1="197.252" y1="187.948" x2="224.571" y2="351.351" gradientUnits="userSpaceOnUse">
<stop stop-color="#00F4E1"/>
<stop offset="1" stop-color="#02B4E4"/>
</linearGradient>
<radialGradient id="paint1_radial" cx="0" cy="0" r="1" gradientUnits="userSpaceOnUse" gradientTransform="translate(93.8172 385.759) rotate(-9.49125) scale(0.408567 0.408682)">
<stop stop-color="#00C9FF"/>
<stop offset="1" stop-color="#7DD6E7"/>
</radialGradient>
<clipPath id="clip0">
<rect width="199.137" height="199.137" fill="white" transform="translate(0 91.0001)"/>
</clipPath>
</defs>
</svg>
