<?xml version="1.0" encoding="UTF-8"?>
<svg width="259px" height="489px" viewBox="0 0 259 489" version="1.1" xmlns="http://www.w3.org/2000/svg" xmlns:xlink="http://www.w3.org/1999/xlink">
    <!-- Generator: Sketch 53 (72520) - https://sketchapp.com -->
    <title>Group 15</title>
    <desc>Created with Sketch.</desc>
    <defs>
        <path d="M37.8134921,0.31811683 C37.8134921,0.31811683 37.8134921,0.31811683 37.8134921,0.31811683 L1.01274018,0.657679739 L1.01274018,31.5579044 L37.8134921,31.5579044 C46.3321846,31.5579044 53.4878864,24.4270833 53.4878864,15.9380106 C53.4878864,11.8632557 51.7841479,8.12806373 49.0581662,5.07199755 C45.9914369,2.01593137 41.9024645,0.31811683 37.8134921,0.31811683 Z" id="path-1"></path>
        <path d="M78.7032164,0.339562908 L16.6871345,0.679125817 C8.16844194,0.679125817 1.01274018,7.8099469 1.01274018,16.2990196 C1.01274018,20.3737745 2.7164787,24.1089665 5.44246032,27.1650327 C8.50918964,30.2210989 12.2574144,31.5793505 16.3463868,31.5793505 L54.8508772,31.2397876 L78.021721,31.2397876 C86.5404135,31.2397876 93.6961153,24.1089665 93.6961153,15.6198938 C93.6961153,11.5451389 91.9923768,7.8099469 89.2663952,4.75388072 C86.8811612,1.69781454 82.7921888,0.339562908 78.7032164,0.339562908 Z" id="path-3"></path>
        <path d="M37.8134921,31.9081904 C46.3321846,31.9081904 53.4878864,24.7773693 53.4878864,16.2882966 C53.4878864,12.2135417 51.7841479,8.47834967 49.0581662,5.4222835 C45.9914369,2.36621732 42.2432122,1.00796569 38.1542398,1.00796569 L1.01274018,1.34752859 C1.35348789,2.36621732 1.69423559,3.38490605 1.69423559,4.40359477 L1.69423559,31.9081904 L37.8134921,31.9081904 Z" id="path-5"></path>
        <linearGradient x1="12.1984386%" y1="139.273886%" x2="81.8178367%" y2="0%" id="linearGradient-7">
            <stop stop-color="#1C1D23" offset="0%"></stop>
            <stop stop-color="#2D2F39" offset="100%"></stop>
        </linearGradient>
        <path d="M174.462824,152.792586 C166.284879,152.792586 158.788429,148.378268 154.358709,140.907884 C152.654971,137.851818 151.632728,134.116626 151.632728,130.381434 L151.632728,130.381434 C151.632728,122.571487 155.7217,115.440666 162.195906,111.365911 C160.832916,110.347222 159.469925,109.328533 158.447682,108.309845 C154.017962,104.23509 151.973475,98.4625204 151.973475,92.3503881 C151.973475,83.1821895 157.425439,75.3722426 165.603383,71.6370507 C161.514411,68.9205474 158.106934,65.1853554 155.7217,60.4314747 C153.336466,55.677594 152.314223,50.5841503 152.314223,45.4907067 L152.314223,35.3038194 C152.314223,33.266442 154.017962,31.9081904 155.7217,31.9081904 C155.7217,31.9081904 155.7217,31.9081904 155.7217,31.9081904 C157.766186,31.9081904 159.129177,33.6060049 159.129177,35.3038194 L159.129177,45.4907067 C159.129177,51.2632761 160.832916,56.6962827 164.58114,61.1106005 C169.01086,66.543607 175.485067,69.5996732 182.640769,69.2601103 L190.477966,69.2601103 L192.8632,69.2601103 L192.8632,3.72446895 C192.8632,3.04534314 192.522452,2.02665441 191.840957,1.34752859 C191.159461,0.668402778 190.477966,0.328839869 189.455723,0.328839869 L189.455723,0.328839869 L183.663012,0.328839869 L169.351608,0.328839869 L132.550856,0.328839869 L132.550856,0.328839869 C118.580201,0.328839869 106.313283,9.83660131 102.905806,23.4191176 L86.2091688,90.9921364 C86.2091688,91.6712623 85.8684211,92.0108252 85.1869256,92.689951 L1.02224311,178.93893 C-0.340747703,180.297181 -0.340747703,182.674122 1.02224311,184.032373 L55.8826232,238.362439 C57.245614,239.72069 59.630848,239.72069 60.9938388,238.362439 L126.758145,170.78942 C127.439641,170.110294 128.461884,169.770731 129.143379,169.770731 L187.751984,169.431168 C193.544695,169.431168 198.655911,166.375102 201.72264,161.621221 L207.856099,151.773897 L174.462824,152.792586 C174.462824,152.792586 174.462824,152.792586 174.462824,152.792586 Z" id="path-8"></path>
        <path d="M77.6714703,0.997242647 C77.6714703,0.997242647 77.6714703,0.997242647 77.6714703,0.997242647 L23.8333333,1.33680556 C23.8333333,1.33680556 23.8333333,1.33680556 23.8333333,1.33680556 L15.9961362,1.33680556 C7.47744361,1.33680556 0.321741855,8.46762663 0.321741855,16.9566993 C0.321741855,21.0314542 2.02548037,24.7666462 4.75146199,27.8227124 C7.81819131,30.8787786 11.566416,32.2370302 15.6553885,32.2370302 L77.6714703,31.8974673 C86.1901629,31.8974673 93.3458647,24.7666462 93.3458647,16.2775735 C93.3458647,12.2028186 91.6421261,8.46762663 88.9161445,5.41156046 C85.8494152,2.69505719 81.7604428,0.997242647 77.6714703,0.997242647 Z" id="path-10"></path>
        <path d="M59.9715957,87.2354984 L64.4013158,86.8959355 L64.4013158,144.961193 L78.7127193,144.961193 L78.7127193,115.079657 L84.1646825,115.41922 C103.928049,116.098346 123.350668,107.609273 135.958333,91.9893791 L143.114035,83.1607435 L131.528613,82.8211806 C111.765246,82.1420547 92.3426274,90.6311275 79.7349624,106.251021 L78.3719716,107.948836 L78.3719716,0.307393791 C81.4387009,-0.0321691176 66.7253216,-0.0321691176 64.0605681,0.307393791 L64.0605681,54.2978962 L64.0605681,77.7277369 C51.4529031,62.447406 32.030284,53.6187704 12.2669173,54.2978962 L0.681495405,54.6374592 L7.83719716,63.4660948 C20.7856099,79.4255515 39.8674812,88.2541871 59.9715957,87.2354984 Z" id="path-12"></path>
        <path d="M162.176897,47.1706831 C161.448246,46.4402174 146.463192,27.1650327 87.7358782,3.39562908 C85.751043,2.62032314 83.8301632,2.56201604 81.9732388,3.22070776 C28.1671319,16.9753964 1.76958103,45.3634823 1.76958103,47.1706831 C1.76958103,48.9778839 9.47246315,76.1395061 14.4689272,87.2008438 C14.8852992,88.140014 21.5472513,99.9318174 26.4916689,106.34948 C23.5770649,99.9318174 20.4022283,94.3489724 20.4022283,84.7485661 C20.4022283,57.6691592 41.3249216,35.650836 67.5043116,34.7116659 C68.1288696,34.7116659 68.8054741,34.7116659 69.4300321,34.763842 L63.184452,28.5027074 C63.184452,28.5027074 88.3229119,24.2764416 120.591742,43.8424871 C120.591742,43.8424871 121.060161,44.8338334 120.591742,47.7556962 C120.591742,47.7556962 135.789321,54.3298874 137.090483,67.1130371 C138.391646,79.8961868 130.324438,87.2008438 123.818625,88.2443662 C123.818625,88.2443662 127.201648,82.974578 121.996998,80.1570674 C120.904021,79.530954 119.602859,79.2700734 118.301696,79.3222495 C108.360815,79.3222495 107.215792,90.6966439 107.215792,90.6966439 C107.111699,91.2705812 107.111699,91.8445186 107.111699,92.4184559 C107.111699,92.4184559 105.446211,109.062639 135.008623,108.749582 C135.008623,108.749582 149.998015,91.7401663 153.953549,76.4525628 C155.410851,70.8175417 156.451781,66.5912759 157.128386,63.4607086 C158.793874,59.0257383 160.407316,52.4926474 161.968711,47.7446204 L162.176897,47.1706831 Z" id="path-14"></path>
        <linearGradient x1="50%" y1="100%" x2="50%" y2="0%" id="linearGradient-16">
            <stop stop-color="#2D2F39" offset="0%"></stop>
            <stop stop-color="#424552" offset="100%"></stop>
        </linearGradient>
    </defs>
    <g id="Page-1" stroke="none" stroke-width="1" fill="none" fill-rule="evenodd">
        <g id="Home@2x-Copy-2" transform="translate(-542.000000, -104.000000)">
            <g id="Screenshot-2018-10-26-at-12.30.04">
                <g id="Group-15" transform="translate(542.000000, 104.000000)">
                    <g id="noun_Peace_983933" transform="translate(0.000000, 98.165850)">
                        <g id="Group">
                            <g id="concrete-wall">
                                <g transform="translate(198.665414, 189.125817)">
                                    <mask id="mask-2" fill="white">
                                        <use xlink:href="#path-1"></use>
                                    </mask>
                                    <use id="Mask" fill="#2D2F39" fill-rule="nonzero" xlink:href="#path-1"></use>
                                </g>
                                <g transform="translate(157.775689, 265.166462)">
                                    <mask id="mask-4" fill="white">
                                        <use xlink:href="#path-3"></use>
                                    </mask>
                                    <use id="Mask" fill="#2D2F39" fill-rule="nonzero" xlink:href="#path-3"></use>
                                </g>
                                <g transform="translate(198.665414, 150.744485)">
                                    <mask id="mask-6" fill="white">
                                        <use xlink:href="#path-5"></use>
                                    </mask>
                                    <use id="Mask" fill="#2D2F39" fill-rule="nonzero" xlink:href="#path-5"></use>
                                </g>
                                <g transform="translate(0.000000, 150.744485)">
                                    <mask id="mask-9" fill="white">
                                        <use xlink:href="#path-8"></use>
                                    </mask>
                                    <use id="Mask" fill="url(#linearGradient-7)" fill-rule="nonzero" xlink:href="#path-8"></use>
                                </g>
                                <g transform="translate(158.807435, 226.477737)">
                                    <mask id="mask-11" fill="white">
                                        <use xlink:href="#path-10"></use>
                                    </mask>
                                    <use id="Mask" fill="#2D2F39" fill-rule="nonzero" xlink:href="#path-10"></use>
                                </g>
                                <g transform="translate(105.631788, 0.000000)">
                                    <mask id="mask-13" fill="white">
                                        <use xlink:href="#path-12"></use>
                                    </mask>
                                    <use id="Mask" fill="#2D2F39" fill-rule="nonzero" xlink:href="#path-12"></use>
                                </g>
                            </g>
                        </g>
                    </g>
                    <g id="Group-61" transform="translate(95.409357, 0.000000)">
                        <g id="Group-60">
                            <g id="Group-59">
                                <g id="Group-58">
                                    <g id="Group-31">
                                        <ellipse id="Oval" fill="#393C49" fill-rule="nonzero" cx="87.4381214" cy="59.3387951" rx="47.2061762" ry="47.3237419"></ellipse>
                                        <path d="M120.591742,45.1468901 C123.974765,49.7383888 125.744346,55.1647054 125.744346,60.7997265 C125.744346,67.6347983 122.933835,73.948109 118.145557,79.0613689 L121.060161,89.9661782 L129.908066,89.9661782 L139.22439,79.3744256 L141.722622,63.8781176 L142.243087,54.6429442 L133.030856,44.2077199 L120.591742,45.1468901 Z" id="Shape" fill="#2D2F39" fill-rule="nonzero"></path>
                                        <path d="M18.0601358,91.2184051 L19.6735773,97.636068 C19.6735773,97.636068 38.7225966,136.820335 81.6089133,151.377473 C81.6089133,151.377473 120.626071,134.681114 137.957556,106.34948 L114.033883,85.4268557 C114.033883,85.4268557 102.583653,94.5576769 85.5644473,94.5576769 C68.5452416,94.5576769 45.4365952,84.3833332 45.4365952,63.4085325 C45.4365952,42.4337318 69.3779856,34.763842 69.3779856,34.763842 L59.1768714,32.2593882 L33.1015745,32.2593882 L16.5507873,72.226297 L18.0601358,91.2184051 Z" id="Shape" fill="#2D2F39" fill-rule="nonzero"></path>
                                        <g id="concrete-wall">
                                            <mask id="mask-15" fill="white">
                                                <use xlink:href="#path-14"></use>
                                            </mask>
                                            <use id="Mask" fill="#1C1D23" fill-rule="nonzero" xlink:href="#path-14"></use>
                                        </g>
                                        <path d="M107.736257,48.9035708 C108.152629,48.6948663 109.505838,48.0165768 111.067233,46.399117 C114.190023,46.816526 117.260766,47.8078723 117.260766,47.8078723 C111.587698,44.3642483 103.832769,42.3293796 95.2450965,42.3815557 C95.2450965,42.3815557 98.524026,47.0774066 107.632164,49.0079231 C107.632164,49.0079231 107.68421,48.955747 107.736257,48.9035708 Z" id="Shape" fill="#1C1D23" fill-rule="nonzero" opacity="0.895424107"></path>
                                        <path d="M162.749408,44.6003846 C131.417415,17.4651776 91.8100274,3.36551125 83.5866803,0.651990553 L82.8059828,0.385959112 L81.7650528,0.0667213826 L79.9434253,0.651990553 C71.7200781,3.36551125 32.112691,17.4651776 0.780697512,44.6003846 L0.104093002,45.1856538 L0.260232504,46.0901607 C0.312279005,46.3029858 3.69530156,66.8938193 15.2496247,90.1449673 C22.0677163,103.818983 30.34311,115.683986 39.8155731,125.527149 C51.4219428,137.55177 64.954033,146.43722 79.9954718,151.970674 L80.8802623,152.289912 L81.7650528,152.60915 L82.7018898,152.236706 L83.5866803,151.917468 C98.628119,146.384014 112.108163,137.498564 123.766579,125.473943 C133.239042,115.683986 141.514436,103.765777 148.332527,90.091761 C159.886851,66.8938193 163.32192,46.2497795 163.32192,46.0369544 L163.478059,45.1324475 L162.749408,44.6003846 Z M145.46997,88.6551912 C138.808018,102.00997 130.74081,113.662147 121.476533,123.239279 C109.974256,135.104281 96.650352,143.830112 81.7650528,149.203947 C66.8797535,143.830112 53.5558493,135.157487 42.0535727,123.292485 C32.7892955,113.715353 24.7220879,102.116382 18.0601358,88.7616038 C8.01516113,68.6496268 4.26781307,50.6126952 3.48711555,46.4626047 C35.5998066,18.9549537 76.1960772,5.22773134 81.7650528,3.41871754 C87.2819819,5.22773134 127.930299,18.9549537 160.04299,46.4626047 C159.262292,50.5594889 155.462898,68.5964206 145.46997,88.6551912 Z" id="Shape" fill="url(#linearGradient-16)" fill-rule="nonzero"></path>
                                    </g>
                                </g>
                            </g>
                        </g>
                    </g>
                </g>
            </g>
        </g>
    </g>
</svg>