<svg width="445" height="357" viewBox="0 0 445 357" fill="none" xmlns="http://www.w3.org/2000/svg">
<rect width="445" height="357" rx="6" fill="white"/>
<rect x="284" y="15" width="146" height="40" rx="4" fill="url(#paint0_linear)"/>
<g filter="url(#filter0_d)">
<rect x="15" y="65" width="415" height="85" rx="4" fill="white"/>
</g>
<rect x="304" y="97" width="107" height="22" rx="10.9" fill="#EBE4FF"/>
<path d="M327.673 108.714C328.467 108.714 329.068 108.415 329.478 107.818C329.887 107.212 330.092 106.329 330.092 105.168V104.656C330.092 103.581 329.875 102.727 329.439 102.096C329.013 101.465 328.415 101.149 327.647 101.149C326.871 101.149 326.265 101.46 325.83 102.083C325.395 102.698 325.177 103.564 325.177 104.682V105.194C325.177 106.329 325.399 107.199 325.843 107.805C326.286 108.411 326.896 108.714 327.673 108.714ZM327.673 109.635C326.581 109.635 325.702 109.23 325.036 108.419C324.371 107.609 324.038 106.538 324.038 105.206V104.694C324.038 103.338 324.358 102.258 324.998 101.456C325.646 100.654 326.53 100.253 327.647 100.253C328.757 100.253 329.627 100.658 330.259 101.469C330.899 102.279 331.219 103.346 331.219 104.669V105.181C331.219 106.529 330.903 107.609 330.271 108.419C329.648 109.23 328.782 109.635 327.673 109.635ZM332.341 109.52L334.734 106.077L332.494 102.826H333.736L335.374 105.258L337 102.826H338.152L335.938 106L338.382 109.52H337.128L335.323 106.819L333.48 109.52H332.341ZM340.05 109.52V103.722H339.09V102.826H340.05V101.738C340.05 101.046 340.217 100.517 340.55 100.15C340.891 99.775 341.39 99.5872 342.047 99.5872C342.32 99.5872 342.585 99.6299 342.841 99.7152V100.611C342.602 100.517 342.35 100.47 342.086 100.47C341.437 100.47 341.113 100.854 341.113 101.622V102.826H342.751V103.722H341.113V109.52H340.05ZM346.882 109.622C346.046 109.622 345.376 109.418 344.872 109.008C344.369 108.59 344.057 108.01 343.938 107.267H345.013C345.124 107.745 345.324 108.108 345.615 108.355C345.913 108.594 346.344 108.714 346.907 108.714C347.65 108.714 348.222 108.411 348.623 107.805C349.032 107.19 349.241 106.282 349.25 105.078C349.028 105.454 348.708 105.753 348.29 105.974C347.872 106.188 347.402 106.294 346.882 106.294C345.994 106.294 345.269 106.013 344.706 105.45C344.151 104.886 343.874 104.17 343.874 103.299C343.874 102.378 344.16 101.639 344.731 101.085C345.303 100.522 346.071 100.24 347.035 100.24C348.111 100.24 348.926 100.594 349.48 101.302C350.043 102.002 350.325 103.013 350.325 104.336V104.912C350.325 106.422 350.026 107.587 349.429 108.406C348.832 109.217 347.983 109.622 346.882 109.622ZM347.048 105.424C347.663 105.424 348.166 105.241 348.559 104.874C348.951 104.507 349.147 104.029 349.147 103.44C349.147 102.706 348.951 102.134 348.559 101.725C348.175 101.315 347.667 101.11 347.035 101.11C346.43 101.11 345.939 101.307 345.563 101.699C345.196 102.092 345.013 102.608 345.013 103.248C345.013 103.905 345.196 104.434 345.563 104.835C345.93 105.228 346.425 105.424 347.048 105.424ZM352.788 109.354C352.626 109.507 352.434 109.584 352.212 109.584C351.99 109.584 351.798 109.507 351.636 109.354C351.474 109.191 351.393 108.995 351.393 108.765C351.393 108.534 351.474 108.342 351.636 108.189C351.798 108.027 351.99 107.946 352.212 107.946C352.434 107.946 352.626 108.027 352.788 108.189C352.95 108.342 353.031 108.534 353.031 108.765C353.031 108.995 352.95 109.191 352.788 109.354ZM356.142 109.354C355.98 109.507 355.788 109.584 355.566 109.584C355.344 109.584 355.152 109.507 354.99 109.354C354.828 109.191 354.747 108.995 354.747 108.765C354.747 108.534 354.828 108.342 354.99 108.189C355.152 108.027 355.344 107.946 355.566 107.946C355.788 107.946 355.98 108.027 356.142 108.189C356.304 108.342 356.385 108.534 356.385 108.765C356.385 108.995 356.304 109.191 356.142 109.354ZM359.495 109.354C359.333 109.507 359.141 109.584 358.919 109.584C358.697 109.584 358.505 109.507 358.343 109.354C358.181 109.191 358.1 108.995 358.1 108.765C358.1 108.534 358.181 108.342 358.343 108.189C358.505 108.027 358.697 107.946 358.919 107.946C359.141 107.946 359.333 108.027 359.495 108.189C359.657 108.342 359.739 108.534 359.739 108.765C359.739 108.995 359.657 109.191 359.495 109.354ZM364.129 109.635C363.182 109.635 362.452 109.401 361.94 108.931C361.437 108.462 361.151 107.835 361.083 107.05H362.145C362.248 107.604 362.44 108.027 362.721 108.317C363.003 108.598 363.468 108.739 364.116 108.739C364.739 108.739 365.23 108.543 365.588 108.15C365.947 107.758 366.126 107.216 366.126 106.525C366.126 105.876 365.951 105.36 365.601 104.976C365.251 104.583 364.786 104.387 364.206 104.387C363.284 104.387 362.563 104.682 362.043 105.27H361.633V100.368H366.779V101.328H362.555V104.118C363.007 103.7 363.63 103.491 364.424 103.491C365.26 103.491 365.942 103.769 366.472 104.323C367.001 104.869 367.265 105.603 367.265 106.525C367.265 107.463 366.966 108.219 366.369 108.79C365.772 109.354 365.025 109.635 364.129 109.635ZM371.874 109.635C371.353 109.635 370.858 109.541 370.389 109.354C369.919 109.157 369.523 108.846 369.198 108.419C368.874 107.993 368.712 107.493 368.712 106.922C368.712 106.333 368.87 105.838 369.186 105.437C369.501 105.036 369.919 104.741 370.44 104.554C370.005 104.383 369.663 104.131 369.416 103.798C369.177 103.466 369.058 103.077 369.058 102.634C369.058 101.925 369.339 101.354 369.902 100.918C370.474 100.475 371.131 100.253 371.874 100.253C372.616 100.253 373.269 100.475 373.832 100.918C374.395 101.354 374.677 101.917 374.677 102.608C374.677 103.487 374.207 104.131 373.269 104.541C374.438 104.967 375.022 105.753 375.022 106.896C375.022 107.758 374.707 108.432 374.075 108.918C373.452 109.396 372.718 109.635 371.874 109.635ZM371.874 108.726C372.462 108.726 372.944 108.564 373.32 108.24C373.695 107.907 373.883 107.446 373.883 106.858C373.883 106.277 373.695 105.829 373.32 105.514C372.944 105.198 372.471 105.04 371.899 105.04C371.319 105.04 370.832 105.202 370.44 105.526C370.047 105.851 369.851 106.303 369.851 106.883C369.851 107.455 370.047 107.907 370.44 108.24C370.832 108.564 371.31 108.726 371.874 108.726ZM371.912 104.157C372.407 104.157 372.804 104.02 373.102 103.747C373.401 103.474 373.55 103.099 373.55 102.621C373.55 102.186 373.388 101.827 373.064 101.546C372.748 101.264 372.351 101.123 371.874 101.123C371.387 101.123 370.982 101.264 370.658 101.546C370.342 101.819 370.184 102.186 370.184 102.646C370.184 103.107 370.35 103.474 370.683 103.747C371.016 104.02 371.426 104.157 371.912 104.157ZM380.036 108.714C380.829 108.714 381.431 108.415 381.84 107.818C382.25 107.212 382.455 106.329 382.455 105.168V104.656C382.455 103.581 382.237 102.727 381.802 102.096C381.375 101.465 380.778 101.149 380.01 101.149C379.233 101.149 378.628 101.46 378.192 102.083C377.757 102.698 377.54 103.564 377.54 104.682V105.194C377.54 106.329 377.761 107.199 378.205 107.805C378.649 108.411 379.259 108.714 380.036 108.714ZM380.036 109.635C378.943 109.635 378.064 109.23 377.399 108.419C376.733 107.609 376.4 106.538 376.4 105.206V104.694C376.4 103.338 376.72 102.258 377.36 101.456C378.009 100.654 378.892 100.253 380.01 100.253C381.119 100.253 381.99 100.658 382.621 101.469C383.261 102.279 383.581 103.346 383.581 104.669V105.181C383.581 106.529 383.265 107.609 382.634 108.419C382.011 109.23 381.145 109.635 380.036 109.635ZM384.588 109.52V109.264L388.223 105.437C389.102 104.507 389.542 103.623 389.542 102.787C389.542 102.275 389.397 101.874 389.106 101.584C388.825 101.294 388.424 101.149 387.903 101.149C386.785 101.149 386.141 101.827 385.97 103.184H384.934C385.002 102.279 385.296 101.567 385.817 101.046C386.346 100.517 387.041 100.253 387.903 100.253C388.748 100.253 389.418 100.487 389.913 100.957C390.416 101.418 390.668 102.041 390.668 102.826C390.668 103.841 390.054 104.95 388.825 106.154L386.303 108.611H390.719V109.52H384.588Z" fill="#A896DC"/>
<path d="M252.822 112L249.42 101.99H250.624L253.606 110.824L256.588 101.99H257.736L254.278 112H252.822ZM261.554 111.16C262.282 111.16 262.861 110.908 263.29 110.404C263.729 109.9 263.948 109.233 263.948 108.402V108.304C263.948 107.455 263.729 106.778 263.29 106.274C262.861 105.77 262.282 105.518 261.554 105.518C260.817 105.518 260.234 105.77 259.804 106.274C259.375 106.778 259.16 107.45 259.16 108.29V108.402C259.16 109.242 259.375 109.914 259.804 110.418C260.234 110.913 260.817 111.16 261.554 111.16ZM261.54 112.126C260.504 112.126 259.646 111.776 258.964 111.076C258.292 110.367 257.956 109.475 257.956 108.402V108.29C257.956 107.198 258.292 106.302 258.964 105.602C259.646 104.902 260.509 104.552 261.554 104.552C262.6 104.552 263.458 104.902 264.13 105.602C264.812 106.293 265.152 107.184 265.152 108.276V108.388C265.152 109.489 264.812 110.39 264.13 111.09C263.449 111.781 262.586 112.126 261.54 112.126ZM269.177 112.098C268.533 112.098 268.043 111.925 267.707 111.58C267.371 111.235 267.203 110.763 267.203 110.166V105.658H266.153V104.678H267.203V103.012H268.365V104.678H270.073V105.658H268.365V110.054C268.365 110.763 268.669 111.118 269.275 111.118C269.611 111.118 269.91 111.067 270.171 110.964V111.944C269.882 112.047 269.551 112.098 269.177 112.098ZM271.956 112V104.678H273.118V112H271.956ZM273.048 102.928C272.899 103.077 272.721 103.152 272.516 103.152C272.311 103.152 272.129 103.077 271.97 102.928C271.821 102.779 271.746 102.597 271.746 102.382C271.746 102.167 271.821 101.985 271.97 101.836C272.129 101.687 272.311 101.612 272.516 101.612C272.721 101.612 272.899 101.687 273.048 101.836C273.207 101.985 273.286 102.167 273.286 102.382C273.286 102.597 273.207 102.779 273.048 102.928ZM275.496 112V104.678H276.658V105.84C276.836 105.467 277.13 105.159 277.54 104.916C277.951 104.673 278.441 104.552 279.01 104.552C279.813 104.552 280.443 104.79 280.9 105.266C281.358 105.742 281.586 106.489 281.586 107.506V112H280.424V107.422C280.424 106.778 280.284 106.307 280.004 106.008C279.724 105.709 279.29 105.56 278.702 105.56C278.133 105.56 277.648 105.737 277.246 106.092C276.854 106.447 276.658 106.937 276.658 107.562V112H275.496ZM286.79 114.674C285.772 114.674 284.988 114.464 284.438 114.044C283.896 113.633 283.574 113.092 283.472 112.42H284.662C284.83 113.269 285.534 113.694 286.776 113.694C287.522 113.694 288.101 113.507 288.512 113.134C288.922 112.77 289.128 112.205 289.128 111.44V110.376C288.904 110.759 288.563 111.085 288.106 111.356C287.648 111.627 287.163 111.762 286.65 111.762C285.688 111.762 284.89 111.435 284.256 110.782C283.63 110.129 283.318 109.298 283.318 108.29V108.192C283.318 107.175 283.64 106.316 284.284 105.616C284.928 104.907 285.744 104.552 286.734 104.552C287.816 104.552 288.614 104.986 289.128 105.854V104.678H290.29V111.51C290.28 112.546 289.958 113.33 289.324 113.862C288.689 114.403 287.844 114.674 286.79 114.674ZM286.776 110.796C287.476 110.796 288.05 110.567 288.498 110.11C288.946 109.643 289.17 109.009 289.17 108.206V108.108C289.17 107.296 288.96 106.661 288.54 106.204C288.129 105.747 287.564 105.518 286.846 105.518C286.127 105.518 285.558 105.761 285.138 106.246C284.727 106.722 284.522 107.352 284.522 108.136V108.248C284.522 109.023 284.736 109.643 285.166 110.11C285.604 110.567 286.141 110.796 286.776 110.796Z" fill="black"/>
<path opacity="0.740444" d="M221.089 103.272H220.363C220.162 103.272 220 103.431 220 103.629V110.04C220 110.236 220.162 110.396 220.363 110.396L221.089 110.388C221.29 110.388 221.452 110.229 221.452 110.032V103.621C221.452 103.425 221.29 103.272 221.089 103.272Z" stroke="#797A93" stroke-width="0.9"/>
<path opacity="0.740444" d="M230.543 103.731C230.533 105.386 230.186 106.903 229.835 108.017C229.493 109.104 229.152 109.792 229.134 109.83C229.107 109.878 229.087 109.894 229.067 109.904C229.039 109.919 228.969 109.946 228.811 109.946H226.644C225.635 109.946 224.625 109.715 224.549 109.698C223.025 109.337 222.846 109.284 222.755 109.257C222.748 109.255 222.741 109.253 222.734 109.251L222.725 109.248L222.722 103.721C222.724 103.719 222.728 103.717 222.734 103.715L222.752 103.71L222.769 103.703C224.793 102.885 225.565 101.002 225.626 99.4968C225.629 99.4987 225.632 99.5007 225.635 99.5027C225.707 99.5525 225.794 99.6349 225.878 99.753C226.045 99.9879 226.182 100.339 226.182 100.779C226.182 101.261 226.172 101.509 226.129 101.755C226.085 102.006 226.004 102.268 225.837 102.777L225.644 103.367H226.265C228.399 103.367 229.739 103.587 230.297 103.678C230.387 103.693 230.457 103.704 230.506 103.711C230.522 103.719 230.534 103.725 230.543 103.731Z" stroke="#797A93" stroke-width="0.9"/>
<path opacity="0.740444" d="M241.161 106.77L241.164 106.77L242.388 106.763C242.457 106.763 242.512 106.774 242.55 106.787V112.962C242.512 112.975 242.457 112.986 242.387 112.986H241.161C241.092 112.986 241.037 112.976 240.998 112.964V106.794C241.036 106.781 241.091 106.77 241.161 106.77Z" stroke="#797A93" stroke-width="0.9"/>
<path opacity="0.740444" d="M231.457 112.263C231.467 110.609 231.814 109.091 232.165 107.977C232.507 106.891 232.848 106.202 232.866 106.164C232.893 106.116 232.913 106.1 232.933 106.09C232.961 106.075 233.031 106.048 233.189 106.048H235.356C236.365 106.048 237.375 106.279 237.451 106.297C238.975 106.657 239.154 106.71 239.245 106.737C239.252 106.739 239.259 106.741 239.266 106.743L239.275 106.746L239.278 112.274C239.276 112.275 239.272 112.277 239.266 112.279L239.248 112.284L239.231 112.291C237.207 113.109 236.435 114.992 236.374 116.497C236.371 116.495 236.368 116.493 236.365 116.491C236.293 116.442 236.206 116.359 236.122 116.241C235.955 116.006 235.818 115.655 235.818 115.215C235.818 114.733 235.828 114.485 235.871 114.239C235.915 113.989 235.996 113.726 236.163 113.218L236.356 112.627H235.735C233.601 112.627 232.261 112.407 231.703 112.316C231.613 112.301 231.543 112.29 231.494 112.283C231.478 112.276 231.466 112.269 231.457 112.263Z" stroke="#797A93" stroke-width="0.9"/>
<path d="M38.446 112.126C36.9993 112.126 35.856 111.669 35.016 110.754C34.1853 109.839 33.77 108.607 33.77 107.058V106.946C33.77 105.462 34.2133 104.239 35.1 103.278C35.9867 102.317 37.1113 101.836 38.474 101.836C39.566 101.836 40.49 102.121 41.246 102.69C42.002 103.259 42.4313 104.067 42.534 105.112H41.33C41.078 103.572 40.1307 102.802 38.488 102.802C37.452 102.802 36.6167 103.18 35.982 103.936C35.3473 104.683 35.03 105.681 35.03 106.932V107.044C35.03 108.323 35.3333 109.326 35.94 110.054C36.556 110.773 37.4007 111.132 38.474 111.132C39.3047 111.132 39.986 110.927 40.518 110.516C41.05 110.096 41.3767 109.485 41.498 108.682H42.632C42.464 109.811 42.0113 110.67 41.274 111.258C40.5367 111.837 39.594 112.126 38.446 112.126ZM44.4026 112V104.678H45.5646V105.994C45.8166 105.537 46.1246 105.187 46.4886 104.944C46.8619 104.701 47.3566 104.571 47.9726 104.552V105.644C47.1699 105.681 46.5679 105.868 46.1666 106.204C45.7652 106.54 45.5646 107.133 45.5646 107.982V112H44.4026ZM52.4572 112.126C51.4118 112.126 50.5578 111.79 49.8952 111.118C49.2418 110.437 48.9152 109.536 48.9152 108.416V108.304C48.9152 107.203 49.2325 106.302 49.8672 105.602C50.5112 104.902 51.3372 104.552 52.3452 104.552C53.2785 104.552 54.0578 104.855 54.6832 105.462C55.3178 106.059 55.6352 106.969 55.6352 108.192V108.57H50.1192C50.1472 109.41 50.3572 110.054 50.7492 110.502C51.1505 110.941 51.7245 111.16 52.4712 111.16C53.6192 111.16 54.2678 110.735 54.4172 109.886H55.5792C55.4578 110.605 55.1172 111.16 54.5572 111.552C53.9972 111.935 53.2972 112.126 52.4572 112.126ZM50.1612 107.632H54.4452C54.3425 106.223 53.6425 105.518 52.3452 105.518C51.7572 105.518 51.2718 105.709 50.8892 106.092C50.5065 106.465 50.2638 106.979 50.1612 107.632ZM59.3205 112.126C58.6019 112.126 58.0139 111.949 57.5565 111.594C57.1085 111.23 56.8845 110.689 56.8845 109.97C56.8845 109.186 57.2299 108.612 57.9205 108.248C58.6205 107.884 59.4979 107.702 60.5525 107.702H61.6025V107.17C61.6025 106.582 61.4812 106.162 61.2385 105.91C60.9959 105.649 60.5945 105.518 60.0345 105.518C59.0265 105.518 58.4665 105.957 58.3545 106.834H57.1925C57.2672 106.05 57.5752 105.476 58.1165 105.112C58.6579 104.739 59.3159 104.552 60.0905 104.552C61.8732 104.552 62.7645 105.425 62.7645 107.17V112H61.6025V111.076C61.0425 111.776 60.2819 112.126 59.3205 112.126ZM59.4325 111.202C60.0672 111.202 60.5852 111.048 60.9865 110.74C61.3972 110.423 61.6025 109.989 61.6025 109.438V108.528H60.5945C58.8959 108.528 58.0465 109.009 58.0465 109.97C58.0465 110.791 58.5085 111.202 59.4325 111.202ZM67.2731 112.098C66.6291 112.098 66.1391 111.925 65.8031 111.58C65.4671 111.235 65.2991 110.763 65.2991 110.166V105.658H64.2491V104.678H65.2991V103.012H66.4611V104.678H68.1691V105.658H66.4611V110.054C66.4611 110.763 66.7644 111.118 67.3711 111.118C67.7071 111.118 68.0058 111.067 68.2671 110.964V111.944C67.9778 112.047 67.6464 112.098 67.2731 112.098ZM73.0197 112.126C71.9743 112.126 71.1203 111.79 70.4577 111.118C69.8043 110.437 69.4777 109.536 69.4777 108.416V108.304C69.4777 107.203 69.795 106.302 70.4297 105.602C71.0737 104.902 71.8997 104.552 72.9077 104.552C73.841 104.552 74.6203 104.855 75.2457 105.462C75.8803 106.059 76.1977 106.969 76.1977 108.192V108.57H70.6817C70.7097 109.41 70.9197 110.054 71.3117 110.502C71.713 110.941 72.287 111.16 73.0337 111.16C74.1817 111.16 74.8303 110.735 74.9797 109.886H76.1417C76.0203 110.605 75.6797 111.16 75.1197 111.552C74.5597 111.935 73.8597 112.126 73.0197 112.126ZM70.7237 107.632H75.0077C74.905 106.223 74.205 105.518 72.9077 105.518C72.3197 105.518 71.8343 105.709 71.4517 106.092C71.069 106.465 70.8263 106.979 70.7237 107.632ZM81.6858 112V104.678H82.8478V105.84C83.0251 105.467 83.3191 105.159 83.7298 104.916C84.1404 104.673 84.6304 104.552 85.1998 104.552C86.0024 104.552 86.6324 104.79 87.0898 105.266C87.5471 105.742 87.7758 106.489 87.7758 107.506V112H86.6138V107.422C86.6138 106.778 86.4738 106.307 86.1938 106.008C85.9138 105.709 85.4798 105.56 84.8918 105.56C84.3224 105.56 83.8371 105.737 83.4358 106.092C83.0438 106.447 82.8478 106.937 82.8478 107.562V112H81.6858ZM93.049 112.126C92.0036 112.126 91.1496 111.79 90.487 111.118C89.8336 110.437 89.507 109.536 89.507 108.416V108.304C89.507 107.203 89.8243 106.302 90.459 105.602C91.103 104.902 91.929 104.552 92.937 104.552C93.8703 104.552 94.6496 104.855 95.275 105.462C95.9096 106.059 96.227 106.969 96.227 108.192V108.57H90.711C90.739 109.41 90.949 110.054 91.341 110.502C91.7423 110.941 92.3163 111.16 93.063 111.16C94.211 111.16 94.8596 110.735 95.009 109.886H96.171C96.0496 110.605 95.709 111.16 95.149 111.552C94.589 111.935 93.889 112.126 93.049 112.126ZM90.753 107.632H95.037C94.9343 106.223 94.2343 105.518 92.937 105.518C92.349 105.518 91.8636 105.709 91.481 106.092C91.0983 106.465 90.8556 106.979 90.753 107.632ZM99.4116 112L97.1576 104.678H98.4176L100.126 110.572L101.904 104.678H102.912L104.578 110.572L106.3 104.678H107.49L105.208 112H103.92L102.394 106.512L100.686 112H99.4116ZM112.762 114.548V104.678H113.924V105.91C114.148 105.537 114.489 105.219 114.946 104.958C115.403 104.687 115.889 104.552 116.402 104.552C117.382 104.552 118.18 104.888 118.796 105.56C119.421 106.223 119.734 107.114 119.734 108.234V108.346C119.734 109.475 119.426 110.39 118.81 111.09C118.203 111.781 117.401 112.126 116.402 112.126C115.833 112.126 115.333 112.005 114.904 111.762C114.475 111.51 114.148 111.188 113.924 110.796V114.548H112.762ZM116.29 111.16C117.018 111.16 117.573 110.922 117.956 110.446C118.339 109.97 118.53 109.289 118.53 108.402V108.29C118.53 107.403 118.315 106.722 117.886 106.246C117.466 105.761 116.929 105.518 116.276 105.518C115.567 105.518 114.988 105.756 114.54 106.232C114.101 106.699 113.882 107.385 113.882 108.29V108.402C113.882 109.307 114.097 109.993 114.526 110.46C114.965 110.927 115.553 111.16 116.29 111.16ZM123.373 112.126C122.655 112.126 122.067 111.949 121.609 111.594C121.161 111.23 120.937 110.689 120.937 109.97C120.937 109.186 121.283 108.612 121.973 108.248C122.673 107.884 123.551 107.702 124.605 107.702H125.655V107.17C125.655 106.582 125.534 106.162 125.291 105.91C125.049 105.649 124.647 105.518 124.087 105.518C123.079 105.518 122.519 105.957 122.407 106.834H121.245C121.32 106.05 121.628 105.476 122.169 105.112C122.711 104.739 123.369 104.552 124.143 104.552C125.926 104.552 126.817 105.425 126.817 107.17V112H125.655V111.076C125.095 111.776 124.335 112.126 123.373 112.126ZM123.485 111.202C124.12 111.202 124.638 111.048 125.039 110.74C125.45 110.423 125.655 109.989 125.655 109.438V108.528H124.647C122.949 108.528 122.099 109.009 122.099 109.97C122.099 110.791 122.561 111.202 123.485 111.202ZM129.553 114.548L130.939 111.244L128.069 104.678H129.315L131.555 109.928L133.585 104.678H134.775L130.729 114.548H129.553ZM136.305 112V104.678H137.467V105.798C137.644 105.434 137.924 105.135 138.307 104.902C138.699 104.669 139.147 104.552 139.651 104.552C140.724 104.552 141.438 105.009 141.793 105.924C142.026 105.476 142.376 105.135 142.843 104.902C143.319 104.669 143.804 104.552 144.299 104.552C145.018 104.552 145.606 104.79 146.063 105.266C146.53 105.733 146.763 106.465 146.763 107.464V112H145.601V107.38C145.601 106.167 145.083 105.56 144.047 105.56C143.524 105.56 143.072 105.733 142.689 106.078C142.306 106.423 142.115 106.904 142.115 107.52V112H140.953V107.38C140.953 106.167 140.435 105.56 139.399 105.56C138.876 105.56 138.424 105.733 138.041 106.078C137.658 106.423 137.467 106.904 137.467 107.52V112H136.305ZM152.043 112.126C150.998 112.126 150.144 111.79 149.481 111.118C148.828 110.437 148.501 109.536 148.501 108.416V108.304C148.501 107.203 148.818 106.302 149.453 105.602C150.097 104.902 150.923 104.552 151.931 104.552C152.864 104.552 153.644 104.855 154.269 105.462C154.904 106.059 155.221 106.969 155.221 108.192V108.57H149.705C149.733 109.41 149.943 110.054 150.335 110.502C150.736 110.941 151.31 111.16 152.057 111.16C153.205 111.16 153.854 110.735 154.003 109.886H155.165C155.044 110.605 154.703 111.16 154.143 111.552C153.583 111.935 152.883 112.126 152.043 112.126ZM149.747 107.632H154.031C153.928 106.223 153.228 105.518 151.931 105.518C151.343 105.518 150.858 105.709 150.475 106.092C150.092 106.465 149.85 106.979 149.747 107.632ZM157.004 112V104.678H158.166V105.84C158.343 105.467 158.637 105.159 159.048 104.916C159.459 104.673 159.949 104.552 160.518 104.552C161.321 104.552 161.951 104.79 162.408 105.266C162.865 105.742 163.094 106.489 163.094 107.506V112H161.932V107.422C161.932 106.778 161.792 106.307 161.512 106.008C161.232 105.709 160.798 105.56 160.21 105.56C159.641 105.56 159.155 105.737 158.754 106.092C158.362 106.447 158.166 106.937 158.166 107.562V112H157.004ZM167.597 112.098C166.953 112.098 166.463 111.925 166.127 111.58C165.791 111.235 165.623 110.763 165.623 110.166V105.658H164.573V104.678H165.623V103.012H166.785V104.678H168.493V105.658H166.785V110.054C166.785 110.763 167.089 111.118 167.695 111.118C168.031 111.118 168.33 111.067 168.591 110.964V111.944C168.302 112.047 167.971 112.098 167.597 112.098ZM172.616 112.126C171.739 112.126 171.048 111.916 170.544 111.496C170.049 111.076 169.783 110.493 169.746 109.746H170.88C170.973 110.689 171.547 111.16 172.602 111.16C173.666 111.16 174.198 110.773 174.198 109.998C174.198 109.634 174.063 109.368 173.792 109.2C173.531 109.023 173.097 108.878 172.49 108.766C171.538 108.589 170.875 108.346 170.502 108.038C170.129 107.721 169.942 107.245 169.942 106.61C169.942 105.975 170.194 105.476 170.698 105.112C171.211 104.739 171.785 104.552 172.42 104.552C174.007 104.552 174.889 105.257 175.066 106.666H173.946C173.862 106.265 173.699 105.975 173.456 105.798C173.213 105.611 172.863 105.518 172.406 105.518C171.986 105.518 171.65 105.616 171.398 105.812C171.146 105.999 171.02 106.251 171.02 106.568C171.02 106.904 171.137 107.151 171.37 107.31C171.613 107.469 172.065 107.609 172.728 107.73C173.167 107.814 173.517 107.898 173.778 107.982C174.049 108.057 174.31 108.173 174.562 108.332C174.823 108.491 175.01 108.701 175.122 108.962C175.243 109.214 175.304 109.527 175.304 109.9C175.304 110.581 175.071 111.123 174.604 111.524C174.147 111.925 173.484 112.126 172.616 112.126Z" fill="black"/>
<g filter="url(#filter1_d)">
<rect x="15" y="162" width="415" height="85" rx="4" fill="white"/>
</g>
<g filter="url(#filter2_d)">
<rect x="15" y="259" width="415" height="85" rx="4" fill="white"/>
</g>
<path d="M306.652 39L310.096 28.99H311.692L315.08 39H313.876L312.896 36.116H308.766L307.8 39H306.652ZM310.838 29.998L309.102 35.15H312.574L310.838 29.998ZM319.379 39.126C318.399 39.126 317.601 38.7993 316.985 38.146C316.379 37.4927 316.075 36.606 316.075 35.486V35.374C316.075 34.254 316.393 33.3393 317.027 32.63C317.662 31.9113 318.483 31.552 319.491 31.552C320.574 31.552 321.372 31.986 321.885 32.854V28.178H323.047V39H321.885V37.74C321.661 38.1133 321.316 38.44 320.849 38.72C320.383 38.9907 319.893 39.126 319.379 39.126ZM319.505 38.16C320.224 38.16 320.807 37.9267 321.255 37.46C321.703 36.984 321.927 36.2933 321.927 35.388V35.276C321.927 34.3613 321.722 33.6753 321.311 33.218C320.91 32.7513 320.341 32.518 319.603 32.518C318.875 32.518 318.306 32.7653 317.895 33.26C317.485 33.7453 317.279 34.4313 317.279 35.318V35.43C317.279 36.3167 317.485 36.9933 317.895 37.46C318.315 37.9267 318.852 38.16 319.505 38.16ZM328.157 39.126C327.177 39.126 326.379 38.7993 325.763 38.146C325.156 37.4927 324.853 36.606 324.853 35.486V35.374C324.853 34.254 325.17 33.3393 325.805 32.63C326.439 31.9113 327.261 31.552 328.269 31.552C329.351 31.552 330.149 31.986 330.663 32.854V28.178H331.825V39H330.663V37.74C330.439 38.1133 330.093 38.44 329.627 38.72C329.16 38.9907 328.67 39.126 328.157 39.126ZM328.283 38.16C329.001 38.16 329.585 37.9267 330.033 37.46C330.481 36.984 330.705 36.2933 330.705 35.388V35.276C330.705 34.3613 330.499 33.6753 330.089 33.218C329.687 32.7513 329.118 32.518 328.381 32.518C327.653 32.518 327.083 32.7653 326.673 33.26C326.262 33.7453 326.057 34.4313 326.057 35.318V35.43C326.057 36.3167 326.262 36.9933 326.673 37.46C327.093 37.9267 327.629 38.16 328.283 38.16ZM337.881 41.548V31.678H339.043V32.91C339.267 32.5367 339.608 32.2193 340.065 31.958C340.522 31.6873 341.008 31.552 341.521 31.552C342.501 31.552 343.299 31.888 343.915 32.56C344.54 33.2227 344.853 34.114 344.853 35.234V35.346C344.853 36.4753 344.545 37.39 343.929 38.09C343.322 38.7807 342.52 39.126 341.521 39.126C340.952 39.126 340.452 39.0047 340.023 38.762C339.594 38.51 339.267 38.188 339.043 37.796V41.548H337.881ZM341.409 38.16C342.137 38.16 342.692 37.922 343.075 37.446C343.458 36.97 343.649 36.2887 343.649 35.402V35.29C343.649 34.4033 343.434 33.722 343.005 33.246C342.585 32.7607 342.048 32.518 341.395 32.518C340.686 32.518 340.107 32.756 339.659 33.232C339.22 33.6987 339.001 34.3847 339.001 35.29V35.402C339.001 36.3073 339.216 36.9933 339.645 37.46C340.084 37.9267 340.672 38.16 341.409 38.16ZM349.654 39.126C348.609 39.126 347.755 38.79 347.092 38.118C346.439 37.4367 346.112 36.536 346.112 35.416V35.304C346.112 34.2027 346.43 33.302 347.064 32.602C347.708 31.902 348.534 31.552 349.542 31.552C350.476 31.552 351.255 31.8553 351.88 32.462C352.515 33.0593 352.832 33.9693 352.832 35.192V35.57H347.316C347.344 36.41 347.554 37.054 347.946 37.502C348.348 37.9407 348.922 38.16 349.668 38.16C350.816 38.16 351.465 37.7353 351.614 36.886H352.776C352.655 37.6047 352.314 38.16 351.754 38.552C351.194 38.9347 350.494 39.126 349.654 39.126ZM347.358 34.632H351.642C351.54 33.2227 350.84 32.518 349.542 32.518C348.954 32.518 348.469 32.7093 348.086 33.092C347.704 33.4653 347.461 33.9787 347.358 34.632ZM354.615 39V31.678H355.777V32.994C356.029 32.5367 356.337 32.1867 356.701 31.944C357.075 31.7013 357.569 31.5707 358.185 31.552V32.644C357.383 32.6813 356.781 32.868 356.379 33.204C355.978 33.54 355.777 34.1327 355.777 34.982V39H354.615ZM359.879 39V31.678H361.041V32.798C361.218 32.434 361.498 32.1353 361.881 31.902C362.273 31.6687 362.721 31.552 363.225 31.552C364.298 31.552 365.012 32.0093 365.367 32.924C365.6 32.476 365.95 32.1353 366.417 31.902C366.893 31.6687 367.378 31.552 367.873 31.552C368.592 31.552 369.18 31.79 369.637 32.266C370.104 32.7327 370.337 33.4653 370.337 34.464V39H369.175V34.38C369.175 33.1667 368.657 32.56 367.621 32.56C367.098 32.56 366.646 32.7327 366.263 33.078C365.88 33.4233 365.689 33.904 365.689 34.52V39H364.527V34.38C364.527 33.1667 364.009 32.56 362.973 32.56C362.45 32.56 361.998 32.7327 361.615 33.078C361.232 33.4233 361.041 33.904 361.041 34.52V39H359.879ZM372.649 39V31.678H373.811V39H372.649ZM373.741 29.928C373.592 30.0773 373.415 30.152 373.209 30.152C373.004 30.152 372.822 30.0773 372.663 29.928C372.514 29.7787 372.439 29.5967 372.439 29.382C372.439 29.1673 372.514 28.9853 372.663 28.836C372.822 28.6867 373.004 28.612 373.209 28.612C373.415 28.612 373.592 28.6867 373.741 28.836C373.9 28.9853 373.979 29.1673 373.979 29.382C373.979 29.5967 373.9 29.7787 373.741 29.928ZM378.458 39.126C377.58 39.126 376.89 38.916 376.386 38.496C375.891 38.076 375.625 37.4927 375.588 36.746H376.722C376.815 37.6887 377.389 38.16 378.444 38.16C379.508 38.16 380.04 37.7727 380.04 36.998C380.04 36.634 379.904 36.368 379.634 36.2C379.372 36.0227 378.938 35.878 378.332 35.766C377.38 35.5887 376.717 35.346 376.344 35.038C375.97 34.7207 375.784 34.2447 375.784 33.61C375.784 32.9753 376.036 32.476 376.54 32.112C377.053 31.7387 377.627 31.552 378.262 31.552C379.848 31.552 380.73 32.2567 380.908 33.666H379.788C379.704 33.2647 379.54 32.9753 379.298 32.798C379.055 32.6113 378.705 32.518 378.248 32.518C377.828 32.518 377.492 32.616 377.24 32.812C376.988 32.9987 376.862 33.2507 376.862 33.568C376.862 33.904 376.978 34.1513 377.212 34.31C377.454 34.4687 377.907 34.6087 378.57 34.73C379.008 34.814 379.358 34.898 379.62 34.982C379.89 35.0567 380.152 35.1733 380.404 35.332C380.665 35.4907 380.852 35.7007 380.964 35.962C381.085 36.214 381.146 36.5267 381.146 36.9C381.146 37.5813 380.912 38.1227 380.446 38.524C379.988 38.9253 379.326 39.126 378.458 39.126ZM385.184 39.126C384.307 39.126 383.616 38.916 383.112 38.496C382.618 38.076 382.352 37.4927 382.314 36.746H383.448C383.542 37.6887 384.116 38.16 385.17 38.16C386.234 38.16 386.766 37.7727 386.766 36.998C386.766 36.634 386.631 36.368 386.36 36.2C386.099 36.0227 385.665 35.878 385.058 35.766C384.106 35.5887 383.444 35.346 383.07 35.038C382.697 34.7207 382.51 34.2447 382.51 33.61C382.51 32.9753 382.762 32.476 383.266 32.112C383.78 31.7387 384.354 31.552 384.988 31.552C386.575 31.552 387.457 32.2567 387.634 33.666H386.514C386.43 33.2647 386.267 32.9753 386.024 32.798C385.782 32.6113 385.432 32.518 384.974 32.518C384.554 32.518 384.218 32.616 383.966 32.812C383.714 32.9987 383.588 33.2507 383.588 33.568C383.588 33.904 383.705 34.1513 383.938 34.31C384.181 34.4687 384.634 34.6087 385.296 34.73C385.735 34.814 386.085 34.898 386.346 34.982C386.617 35.0567 386.878 35.1733 387.13 35.332C387.392 35.4907 387.578 35.7007 387.69 35.962C387.812 36.214 387.872 36.5267 387.872 36.9C387.872 37.5813 387.639 38.1227 387.172 38.524C386.715 38.9253 386.052 39.126 385.184 39.126ZM389.671 39V31.678H390.833V39H389.671ZM390.763 29.928C390.613 30.0773 390.436 30.152 390.231 30.152C390.025 30.152 389.843 30.0773 389.685 29.928C389.535 29.7787 389.461 29.5967 389.461 29.382C389.461 29.1673 389.535 28.9853 389.685 28.836C389.843 28.6867 390.025 28.612 390.231 28.612C390.436 28.612 390.613 28.6867 390.763 28.836C390.921 28.9853 391.001 29.1673 391.001 29.382C391.001 29.5967 390.921 29.7787 390.763 29.928ZM396.263 38.16C396.991 38.16 397.57 37.908 397.999 37.404C398.438 36.9 398.657 36.2327 398.657 35.402V35.304C398.657 34.4547 398.438 33.778 397.999 33.274C397.57 32.77 396.991 32.518 396.263 32.518C395.526 32.518 394.942 32.77 394.513 33.274C394.084 33.778 393.869 34.45 393.869 35.29V35.402C393.869 36.242 394.084 36.914 394.513 37.418C394.942 37.9127 395.526 38.16 396.263 38.16ZM396.249 39.126C395.213 39.126 394.354 38.776 393.673 38.076C393.001 37.3667 392.665 36.4753 392.665 35.402V35.29C392.665 34.198 393.001 33.302 393.673 32.602C394.354 31.902 395.218 31.552 396.263 31.552C397.308 31.552 398.167 31.902 398.839 32.602C399.52 33.2927 399.861 34.184 399.861 35.276V35.388C399.861 36.4893 399.52 37.39 398.839 38.09C398.158 38.7807 397.294 39.126 396.249 39.126ZM401.66 39V31.678H402.822V32.84C403 32.4667 403.294 32.1587 403.704 31.916C404.115 31.6733 404.605 31.552 405.174 31.552C405.977 31.552 406.607 31.79 407.064 32.266C407.522 32.742 407.75 33.4887 407.75 34.506V39H406.588V34.422C406.588 33.778 406.448 33.3067 406.168 33.008C405.888 32.7093 405.454 32.56 404.866 32.56C404.297 32.56 403.812 32.7373 403.41 33.092C403.018 33.4467 402.822 33.9367 402.822 34.562V39H401.66Z" fill="white"/>
<path d="M32.716 38.8V22.96H38.502C39.5287 22.96 40.372 23.0774 41.032 23.312C41.7067 23.5467 42.2347 23.8694 42.616 24.28C43.012 24.6907 43.2833 25.1674 43.43 25.71C43.5913 26.238 43.672 26.7954 43.672 27.382C43.672 28.262 43.4887 28.988 43.122 29.56C42.77 30.132 42.308 30.5867 41.736 30.924C41.164 31.2467 40.5113 31.474 39.778 31.606C39.0593 31.738 38.3333 31.804 37.6 31.804H34.212V38.8H32.716ZM37.644 30.528C38.348 30.528 38.9787 30.484 39.536 30.396C40.0933 30.308 40.5627 30.1467 40.944 29.912C41.34 29.6627 41.6407 29.3327 41.846 28.922C42.066 28.4967 42.176 27.9467 42.176 27.272C42.176 26.2747 41.846 25.5194 41.186 25.006C40.5407 24.4927 39.5067 24.236 38.084 24.236H34.212V30.528H37.644ZM54.2832 32.31C54.2832 31.7527 54.2026 31.232 54.0412 30.748C53.8946 30.2494 53.6672 29.824 53.3592 29.472C53.0659 29.1054 52.6919 28.8194 52.2372 28.614C51.7826 28.394 51.2619 28.284 50.6752 28.284C50.0886 28.284 49.5679 28.394 49.1132 28.614C48.6732 28.834 48.2919 29.1274 47.9692 29.494C47.6612 29.8607 47.4119 30.286 47.2212 30.77C47.0306 31.254 46.9059 31.7674 46.8472 32.31H54.2832ZM46.8472 33.41C46.8472 34.026 46.9279 34.6127 47.0892 35.17C47.2506 35.7127 47.4852 36.1894 47.7932 36.6C48.1159 36.996 48.5192 37.3187 49.0032 37.568C49.4872 37.8027 50.0446 37.92 50.6752 37.92C51.5406 37.92 52.2812 37.6927 52.8972 37.238C53.5132 36.7834 53.9239 36.138 54.1292 35.302H55.6032C55.4419 35.8447 55.2292 36.3507 54.9652 36.82C54.7012 37.2747 54.3712 37.678 53.9752 38.03C53.5792 38.3674 53.1099 38.6314 52.5672 38.822C52.0246 39.0127 51.3939 39.108 50.6752 39.108C49.7659 39.108 48.9812 38.954 48.3212 38.646C47.6612 38.338 47.1186 37.92 46.6932 37.392C46.2679 36.8494 45.9526 36.2187 45.7472 35.5C45.5419 34.7667 45.4392 33.982 45.4392 33.146C45.4392 32.31 45.5566 31.5254 45.7912 30.792C46.0406 30.0587 46.3852 29.4207 46.8252 28.878C47.2799 28.3207 47.8299 27.888 48.4752 27.58C49.1206 27.2574 49.8539 27.096 50.6752 27.096C52.2446 27.096 53.4766 27.6387 54.3712 28.724C55.2659 29.7947 55.7059 31.3567 55.6912 33.41H46.8472ZM59.6438 38.8H58.3238V27.404H59.6438V29.538H59.6878C60.0545 28.6287 60.5238 27.998 61.0958 27.646C61.6825 27.2794 62.4525 27.096 63.4058 27.096V28.526C62.6578 28.5114 62.0418 28.6287 61.5578 28.878C61.0738 29.1274 60.6852 29.4647 60.3918 29.89C60.1132 30.3154 59.9152 30.8214 59.7978 31.408C59.6952 31.98 59.6438 32.5814 59.6438 33.212V38.8ZM66.728 38.8H65.408V27.404H66.728V29.12H66.772C67.1093 28.46 67.5933 27.9614 68.224 27.624C68.8547 27.272 69.544 27.096 70.292 27.096C70.82 27.096 71.2673 27.1547 71.634 27.272C72.0007 27.3894 72.3087 27.5507 72.558 27.756C72.822 27.9467 73.0347 28.174 73.196 28.438C73.372 28.702 73.5187 28.988 73.636 29.296C74.0173 28.548 74.5233 27.998 75.154 27.646C75.7993 27.2794 76.5327 27.096 77.354 27.096C78.1313 27.096 78.7473 27.228 79.202 27.492C79.6713 27.7414 80.0307 28.0787 80.28 28.504C80.5293 28.9147 80.6907 29.3914 80.764 29.934C80.852 30.4767 80.896 31.034 80.896 31.606V38.8H79.576V30.924C79.576 30.1027 79.4 29.4574 79.048 28.988C78.7107 28.5187 78.0727 28.284 77.134 28.284C76.65 28.284 76.1807 28.394 75.726 28.614C75.286 28.8194 74.8973 29.142 74.56 29.582C74.4133 29.7727 74.2887 30 74.186 30.264C74.098 30.5134 74.0247 30.7774 73.966 31.056C73.9073 31.3347 73.8633 31.6134 73.834 31.892C73.8193 32.1707 73.812 32.4274 73.812 32.662V38.8H72.492V30.924C72.492 30.1027 72.316 29.4574 71.964 28.988C71.6267 28.5187 70.9887 28.284 70.05 28.284C69.566 28.284 69.0967 28.394 68.642 28.614C68.202 28.8194 67.8133 29.142 67.476 29.582C67.3293 29.7727 67.2047 30 67.102 30.264C67.014 30.5134 66.9407 30.7774 66.882 31.056C66.8233 31.3347 66.7793 31.6134 66.75 31.892C66.7353 32.1707 66.728 32.4274 66.728 32.662V38.8ZM84.1082 38.8V27.404H85.4282V38.8H84.1082ZM84.0422 24.918V22.96H85.4942V24.918H84.0422ZM89.5571 35.236C89.7625 36.2187 90.1291 36.9154 90.6571 37.326C91.1998 37.722 91.9698 37.92 92.9671 37.92C93.4511 37.92 93.8691 37.8614 94.2211 37.744C94.5731 37.6267 94.8591 37.4727 95.0791 37.282C95.3138 37.0767 95.4898 36.8494 95.6071 36.6C95.7245 36.3507 95.7831 36.0867 95.7831 35.808C95.7831 35.2507 95.5998 34.84 95.2331 34.576C94.8811 34.2974 94.4338 34.0847 93.8911 33.938C93.3485 33.7767 92.7618 33.6447 92.1311 33.542C91.5005 33.4247 90.9138 33.256 90.3711 33.036C89.8285 32.816 89.3738 32.5007 89.0071 32.09C88.6551 31.6794 88.4791 31.1 88.4791 30.352C88.4791 29.3987 88.8238 28.6214 89.5131 28.02C90.2171 27.404 91.2071 27.096 92.4831 27.096C93.7151 27.096 94.7125 27.3747 95.4751 27.932C96.2525 28.4747 96.7218 29.3914 96.8831 30.682H95.5411C95.4238 29.802 95.0865 29.186 94.5291 28.834C93.9865 28.4674 93.2971 28.284 92.4611 28.284C91.6251 28.284 90.9871 28.4674 90.5471 28.834C90.1071 29.186 89.8871 29.6554 89.8871 30.242C89.8871 30.7554 90.0631 31.1514 90.4151 31.43C90.7818 31.694 91.2365 31.914 91.7791 32.09C92.3218 32.2514 92.9085 32.398 93.5391 32.53C94.1698 32.662 94.7565 32.8527 95.2991 33.102C95.8418 33.3367 96.2891 33.6594 96.6411 34.07C97.0078 34.4807 97.1911 35.0527 97.1911 35.786C97.1911 36.3287 97.0738 36.8127 96.8391 37.238C96.6045 37.6487 96.2818 37.9934 95.8711 38.272C95.4605 38.5507 94.9691 38.756 94.3971 38.888C93.8398 39.0347 93.2238 39.108 92.5491 39.108C91.8745 39.108 91.2731 39.0054 90.7451 38.8C90.2318 38.6094 89.7918 38.338 89.4251 37.986C89.0585 37.634 88.7725 37.2234 88.5671 36.754C88.3618 36.2847 88.2445 35.7787 88.2151 35.236H89.5571ZM100.557 35.236C100.762 36.2187 101.129 36.9154 101.657 37.326C102.2 37.722 102.97 37.92 103.967 37.92C104.451 37.92 104.869 37.8614 105.221 37.744C105.573 37.6267 105.859 37.4727 106.079 37.282C106.314 37.0767 106.49 36.8494 106.607 36.6C106.724 36.3507 106.783 36.0867 106.783 35.808C106.783 35.2507 106.6 34.84 106.233 34.576C105.881 34.2974 105.434 34.0847 104.891 33.938C104.348 33.7767 103.762 33.6447 103.131 33.542C102.5 33.4247 101.914 33.256 101.371 33.036C100.828 32.816 100.374 32.5007 100.007 32.09C99.6551 31.6794 99.4791 31.1 99.4791 30.352C99.4791 29.3987 99.8238 28.6214 100.513 28.02C101.217 27.404 102.207 27.096 103.483 27.096C104.715 27.096 105.712 27.3747 106.475 27.932C107.252 28.4747 107.722 29.3914 107.883 30.682H106.541C106.424 29.802 106.086 29.186 105.529 28.834C104.986 28.4674 104.297 28.284 103.461 28.284C102.625 28.284 101.987 28.4674 101.547 28.834C101.107 29.186 100.887 29.6554 100.887 30.242C100.887 30.7554 101.063 31.1514 101.415 31.43C101.782 31.694 102.236 31.914 102.779 32.09C103.322 32.2514 103.908 32.398 104.539 32.53C105.17 32.662 105.756 32.8527 106.299 33.102C106.842 33.3367 107.289 33.6594 107.641 34.07C108.008 34.4807 108.191 35.0527 108.191 35.786C108.191 36.3287 108.074 36.8127 107.839 37.238C107.604 37.6487 107.282 37.9934 106.871 38.272C106.46 38.5507 105.969 38.756 105.397 38.888C104.84 39.0347 104.224 39.108 103.549 39.108C102.874 39.108 102.273 39.0054 101.745 38.8C101.232 38.6094 100.792 38.338 100.425 37.986C100.058 37.634 99.7725 37.2234 99.5671 36.754C99.3618 36.2847 99.2445 35.7787 99.2151 35.236H100.557ZM110.985 38.8V27.404H112.305V38.8H110.985ZM110.919 24.918V22.96H112.371V24.918H110.919ZM120.196 39.108C119.463 39.0934 118.773 38.9614 118.128 38.712C117.497 38.4627 116.94 38.0887 116.456 37.59C115.987 37.0914 115.613 36.468 115.334 35.72C115.055 34.972 114.916 34.0994 114.916 33.102C114.916 32.266 115.026 31.4887 115.246 30.77C115.466 30.0367 115.796 29.3987 116.236 28.856C116.676 28.3134 117.226 27.888 117.886 27.58C118.546 27.2574 119.316 27.096 120.196 27.096C121.091 27.096 121.868 27.2574 122.528 27.58C123.188 27.888 123.738 28.3134 124.178 28.856C124.618 29.384 124.941 30.0147 125.146 30.748C125.366 31.4814 125.476 32.266 125.476 33.102C125.476 34.0114 125.351 34.8327 125.102 35.566C124.853 36.2994 124.493 36.93 124.024 37.458C123.569 37.986 123.012 38.3967 122.352 38.69C121.707 38.9687 120.988 39.108 120.196 39.108ZM124.068 33.102C124.068 32.4274 123.995 31.7967 123.848 31.21C123.701 30.6234 123.474 30.1174 123.166 29.692C122.858 29.252 122.462 28.9074 121.978 28.658C121.494 28.4087 120.9 28.284 120.196 28.284C119.507 28.284 118.913 28.4234 118.414 28.702C117.93 28.966 117.534 29.3254 117.226 29.78C116.918 30.22 116.691 30.7334 116.544 31.32C116.397 31.892 116.324 32.486 116.324 33.102C116.324 33.806 116.405 34.4587 116.566 35.06C116.742 35.6467 116.991 36.1527 117.314 36.578C117.637 37.0034 118.04 37.3334 118.524 37.568C119.008 37.8027 119.565 37.92 120.196 37.92C120.885 37.92 121.472 37.788 121.956 37.524C122.455 37.2454 122.858 36.8787 123.166 36.424C123.474 35.9694 123.701 35.456 123.848 34.884C123.995 34.312 124.068 33.718 124.068 33.102ZM129.209 38.8H127.889V27.404H129.209V28.988C129.737 28.4307 130.279 27.976 130.837 27.624C131.409 27.272 132.091 27.096 132.883 27.096C133.587 27.096 134.239 27.2207 134.841 27.47C135.442 27.7047 135.948 28.1227 136.359 28.724C136.637 29.1347 136.799 29.56 136.843 30C136.901 30.4254 136.931 30.8727 136.931 31.342V38.8H135.611V31.364C135.611 30.3374 135.383 29.5674 134.929 29.054C134.474 28.5407 133.719 28.284 132.663 28.284C132.252 28.284 131.878 28.35 131.541 28.482C131.203 28.5994 130.895 28.7607 130.617 28.966C130.353 29.1714 130.125 29.406 129.935 29.67C129.744 29.934 129.597 30.2127 129.495 30.506C129.363 30.8727 129.282 31.2247 129.253 31.562C129.223 31.8994 129.209 32.266 129.209 32.662V38.8ZM140.883 35.236C141.089 36.2187 141.455 36.9154 141.983 37.326C142.526 37.722 143.296 37.92 144.293 37.92C144.777 37.92 145.195 37.8614 145.547 37.744C145.899 37.6267 146.185 37.4727 146.405 37.282C146.64 37.0767 146.816 36.8494 146.933 36.6C147.051 36.3507 147.109 36.0867 147.109 35.808C147.109 35.2507 146.926 34.84 146.559 34.576C146.207 34.2974 145.76 34.0847 145.217 33.938C144.675 33.7767 144.088 33.6447 143.457 33.542C142.827 33.4247 142.24 33.256 141.697 33.036C141.155 32.816 140.7 32.5007 140.333 32.09C139.981 31.6794 139.805 31.1 139.805 30.352C139.805 29.3987 140.15 28.6214 140.839 28.02C141.543 27.404 142.533 27.096 143.809 27.096C145.041 27.096 146.039 27.3747 146.801 27.932C147.579 28.4747 148.048 29.3914 148.209 30.682H146.867C146.75 29.802 146.413 29.186 145.855 28.834C145.313 28.4674 144.623 28.284 143.787 28.284C142.951 28.284 142.313 28.4674 141.873 28.834C141.433 29.186 141.213 29.6554 141.213 30.242C141.213 30.7554 141.389 31.1514 141.741 31.43C142.108 31.694 142.563 31.914 143.105 32.09C143.648 32.2514 144.235 32.398 144.865 32.53C145.496 32.662 146.083 32.8527 146.625 33.102C147.168 33.3367 147.615 33.6594 147.967 34.07C148.334 34.4807 148.517 35.0527 148.517 35.786C148.517 36.3287 148.4 36.8127 148.165 37.238C147.931 37.6487 147.608 37.9934 147.197 38.272C146.787 38.5507 146.295 38.756 145.723 38.888C145.166 39.0347 144.55 39.108 143.875 39.108C143.201 39.108 142.599 39.0054 142.071 38.8C141.558 38.6094 141.118 38.338 140.751 37.986C140.385 37.634 140.099 37.2234 139.893 36.754C139.688 36.2847 139.571 35.7787 139.541 35.236H140.883Z" fill="#23242C"/>
<path d="M34.26 209V198.99H40.098V199.984H35.478V203.386H39.202V204.38H35.478V208.006H40.35V209H34.26ZM41.39 209L44.008 205.234L41.558 201.678H42.916L44.708 204.338L46.486 201.678H47.746L45.324 205.15L47.998 209H46.626L44.652 206.046L42.636 209H41.39ZM52.2111 209.126C51.1657 209.126 50.3117 208.79 49.6491 208.118C48.9957 207.437 48.6691 206.536 48.6691 205.416V205.304C48.6691 204.203 48.9864 203.302 49.6211 202.602C50.2651 201.902 51.0911 201.552 52.0991 201.552C53.0324 201.552 53.8117 201.855 54.4371 202.462C55.0717 203.059 55.3891 203.969 55.3891 205.192V205.57H49.8731C49.9011 206.41 50.1111 207.054 50.5031 207.502C50.9044 207.941 51.4784 208.16 52.2251 208.16C53.3731 208.16 54.0217 207.735 54.1711 206.886H55.3331C55.2117 207.605 54.8711 208.16 54.3111 208.552C53.7511 208.935 53.0511 209.126 52.2111 209.126ZM49.9151 204.632H54.1991C54.0964 203.223 53.3964 202.518 52.0991 202.518C51.5111 202.518 51.0257 202.709 50.6431 203.092C50.2604 203.465 50.0177 203.979 49.9151 204.632ZM60.2101 209.126C59.1741 209.126 58.3154 208.79 57.6341 208.118C56.9621 207.437 56.6261 206.536 56.6261 205.416V205.304C56.6261 204.203 56.9668 203.302 57.6481 202.602C58.3388 201.902 59.1834 201.552 60.1821 201.552C61.0221 201.552 61.7361 201.762 62.3241 202.182C62.9121 202.593 63.2574 203.237 63.3601 204.114H62.2121C62.0441 203.05 61.3674 202.518 60.1821 202.518C59.5008 202.518 58.9361 202.775 58.4881 203.288C58.0494 203.792 57.8301 204.464 57.8301 205.304V205.416C57.8301 206.293 58.0448 206.97 58.4741 207.446C58.9128 207.922 59.4961 208.16 60.2241 208.16C60.7748 208.16 61.2461 208.006 61.6381 207.698C62.0394 207.381 62.2681 206.937 62.3241 206.368H63.4021C63.3274 207.171 62.9914 207.833 62.3941 208.356C61.8061 208.869 61.0781 209.126 60.2101 209.126ZM67.6345 209.126C66.8598 209.126 66.2391 208.897 65.7725 208.44C65.3151 207.983 65.0865 207.273 65.0865 206.312V201.678H66.2485V206.256C66.2485 206.9 66.3838 207.371 66.6545 207.67C66.9345 207.969 67.3638 208.118 67.9425 208.118C68.4931 208.118 68.9645 207.941 69.3565 207.586C69.7578 207.231 69.9585 206.741 69.9585 206.116V201.678H71.1205V209H69.9585V207.838C69.7811 208.211 69.4871 208.519 69.0765 208.762C68.6751 209.005 68.1945 209.126 67.6345 209.126ZM75.695 209.098C75.051 209.098 74.561 208.925 74.225 208.58C73.889 208.235 73.721 207.763 73.721 207.166V202.658H72.671V201.678H73.721V200.012H74.883V201.678H76.591V202.658H74.883V207.054C74.883 207.763 75.1863 208.118 75.793 208.118C76.129 208.118 76.4276 208.067 76.689 207.964V208.944C76.3996 209.047 76.0683 209.098 75.695 209.098ZM81.4415 209.126C80.3962 209.126 79.5422 208.79 78.8795 208.118C78.2262 207.437 77.8995 206.536 77.8995 205.416V205.304C77.8995 204.203 78.2169 203.302 78.8515 202.602C79.4955 201.902 80.3215 201.552 81.3295 201.552C82.2629 201.552 83.0422 201.855 83.6675 202.462C84.3022 203.059 84.6195 203.969 84.6195 205.192V205.57H79.1035C79.1315 206.41 79.3415 207.054 79.7335 207.502C80.1349 207.941 80.7089 208.16 81.4555 208.16C82.6035 208.16 83.2522 207.735 83.4015 206.886H84.5635C84.4422 207.605 84.1015 208.16 83.5415 208.552C82.9815 208.935 82.2815 209.126 81.4415 209.126ZM79.1455 204.632H83.4295C83.3269 203.223 82.6269 202.518 81.3295 202.518C80.7415 202.518 80.2562 202.709 79.8735 203.092C79.4909 203.465 79.2482 203.979 79.1455 204.632ZM90.1076 211.548V201.678H91.2696V202.91C91.4936 202.537 91.8343 202.219 92.2916 201.958C92.749 201.687 93.2343 201.552 93.7476 201.552C94.7276 201.552 95.5256 201.888 96.1416 202.56C96.767 203.223 97.0796 204.114 97.0796 205.234V205.346C97.0796 206.475 96.7716 207.39 96.1556 208.09C95.549 208.781 94.7463 209.126 93.7476 209.126C93.1783 209.126 92.679 209.005 92.2496 208.762C91.8203 208.51 91.4936 208.188 91.2696 207.796V211.548H90.1076ZM93.6356 208.16C94.3636 208.16 94.919 207.922 95.3016 207.446C95.6843 206.97 95.8756 206.289 95.8756 205.402V205.29C95.8756 204.403 95.661 203.722 95.2316 203.246C94.8116 202.761 94.275 202.518 93.6216 202.518C92.9123 202.518 92.3336 202.756 91.8856 203.232C91.447 203.699 91.2276 204.385 91.2276 205.29V205.402C91.2276 206.307 91.4423 206.993 91.8716 207.46C92.3103 207.927 92.8983 208.16 93.6356 208.16ZM100.719 209.126C100 209.126 99.4123 208.949 98.955 208.594C98.507 208.23 98.283 207.689 98.283 206.97C98.283 206.186 98.6283 205.612 99.319 205.248C100.019 204.884 100.896 204.702 101.951 204.702H103.001V204.17C103.001 203.582 102.88 203.162 102.637 202.91C102.394 202.649 101.993 202.518 101.433 202.518C100.425 202.518 99.865 202.957 99.753 203.834H98.591C98.6657 203.05 98.9737 202.476 99.515 202.112C100.056 201.739 100.714 201.552 101.489 201.552C103.272 201.552 104.163 202.425 104.163 204.17V209H103.001V208.076C102.441 208.776 101.68 209.126 100.719 209.126ZM100.831 208.202C101.466 208.202 101.984 208.048 102.385 207.74C102.796 207.423 103.001 206.989 103.001 206.438V205.528H101.993C100.294 205.528 99.445 206.009 99.445 206.97C99.445 207.791 99.907 208.202 100.831 208.202ZM106.898 211.548L108.284 208.244L105.414 201.678H106.66L108.9 206.928L110.93 201.678H112.12L108.074 211.548H106.898ZM113.651 209V201.678H114.813V202.798C114.99 202.434 115.27 202.135 115.653 201.902C116.045 201.669 116.493 201.552 116.997 201.552C118.07 201.552 118.784 202.009 119.139 202.924C119.372 202.476 119.722 202.135 120.189 201.902C120.665 201.669 121.15 201.552 121.645 201.552C122.363 201.552 122.951 201.79 123.409 202.266C123.875 202.733 124.109 203.465 124.109 204.464V209H122.947V204.38C122.947 203.167 122.429 202.56 121.393 202.56C120.87 202.56 120.417 202.733 120.035 203.078C119.652 203.423 119.461 203.904 119.461 204.52V209H118.299V204.38C118.299 203.167 117.781 202.56 116.745 202.56C116.222 202.56 115.769 202.733 115.387 203.078C115.004 203.423 114.813 203.904 114.813 204.52V209H113.651ZM129.389 209.126C128.343 209.126 127.489 208.79 126.827 208.118C126.173 207.437 125.847 206.536 125.847 205.416V205.304C125.847 204.203 126.164 203.302 126.799 202.602C127.443 201.902 128.269 201.552 129.277 201.552C130.21 201.552 130.989 201.855 131.615 202.462C132.249 203.059 132.567 203.969 132.567 205.192V205.57H127.051C127.079 206.41 127.289 207.054 127.681 207.502C128.082 207.941 128.656 208.16 129.403 208.16C130.551 208.16 131.199 207.735 131.349 206.886H132.511C132.389 207.605 132.049 208.16 131.489 208.552C130.929 208.935 130.229 209.126 129.389 209.126ZM127.093 204.632H131.377C131.274 203.223 130.574 202.518 129.277 202.518C128.689 202.518 128.203 202.709 127.821 203.092C127.438 203.465 127.195 203.979 127.093 204.632ZM134.35 209V201.678H135.512V202.84C135.689 202.467 135.983 202.159 136.394 201.916C136.804 201.673 137.294 201.552 137.864 201.552C138.666 201.552 139.296 201.79 139.754 202.266C140.211 202.742 140.44 203.489 140.44 204.506V209H139.278V204.422C139.278 203.778 139.138 203.307 138.858 203.008C138.578 202.709 138.144 202.56 137.556 202.56C136.986 202.56 136.501 202.737 136.1 203.092C135.708 203.447 135.512 203.937 135.512 204.562V209H134.35ZM144.943 209.098C144.299 209.098 143.809 208.925 143.473 208.58C143.137 208.235 142.969 207.763 142.969 207.166V202.658H141.919V201.678H142.969V200.012H144.131V201.678H145.839V202.658H144.131V207.054C144.131 207.763 144.434 208.118 145.041 208.118C145.377 208.118 145.676 208.067 145.937 207.964V208.944C145.648 209.047 145.316 209.098 144.943 209.098ZM149.962 209.126C149.084 209.126 148.394 208.916 147.89 208.496C147.395 208.076 147.129 207.493 147.092 206.746H148.226C148.319 207.689 148.893 208.16 149.948 208.16C151.012 208.16 151.544 207.773 151.544 206.998C151.544 206.634 151.408 206.368 151.138 206.2C150.876 206.023 150.442 205.878 149.836 205.766C148.884 205.589 148.221 205.346 147.848 205.038C147.474 204.721 147.288 204.245 147.288 203.61C147.288 202.975 147.54 202.476 148.044 202.112C148.557 201.739 149.131 201.552 149.766 201.552C151.352 201.552 152.234 202.257 152.412 203.666H151.292C151.208 203.265 151.044 202.975 150.802 202.798C150.559 202.611 150.209 202.518 149.752 202.518C149.332 202.518 148.996 202.616 148.744 202.812C148.492 202.999 148.366 203.251 148.366 203.568C148.366 203.904 148.482 204.151 148.716 204.31C148.958 204.469 149.411 204.609 150.074 204.73C150.512 204.814 150.862 204.898 151.124 204.982C151.394 205.057 151.656 205.173 151.908 205.332C152.169 205.491 152.356 205.701 152.468 205.962C152.589 206.214 152.65 206.527 152.65 206.9C152.65 207.581 152.416 208.123 151.95 208.524C151.492 208.925 150.83 209.126 149.962 209.126Z" fill="black"/>
<path d="M35.478 305.006H36.85C38.11 305.006 39.0667 304.656 39.72 303.956C40.3827 303.247 40.714 302.267 40.714 301.016V300.904C40.714 299.681 40.3967 298.72 39.762 298.02C39.1367 297.32 38.1613 296.97 36.836 296.97H35.478V305.006ZM34.26 306V295.99H36.906C38.558 295.99 39.8133 296.443 40.672 297.348C41.54 298.253 41.974 299.439 41.974 300.904V301.03C41.974 302.495 41.54 303.69 40.672 304.614C39.8133 305.538 38.5487 306 36.878 306H34.26ZM43.952 306V298.678H45.114V306H43.952ZM45.044 296.928C44.8947 297.077 44.7174 297.152 44.512 297.152C44.3067 297.152 44.1247 297.077 43.966 296.928C43.8167 296.779 43.742 296.597 43.742 296.382C43.742 296.167 43.8167 295.985 43.966 295.836C44.1247 295.687 44.3067 295.612 44.512 295.612C44.7174 295.612 44.8947 295.687 45.044 295.836C45.2027 295.985 45.282 296.167 45.282 296.382C45.282 296.597 45.2027 296.779 45.044 296.928ZM49.7604 306.126C48.8831 306.126 48.1924 305.916 47.6884 305.496C47.1937 305.076 46.9277 304.493 46.8904 303.746H48.0244C48.1177 304.689 48.6917 305.16 49.7464 305.16C50.8104 305.16 51.3424 304.773 51.3424 303.998C51.3424 303.634 51.2071 303.368 50.9364 303.2C50.6751 303.023 50.2411 302.878 49.6344 302.766C48.6824 302.589 48.0197 302.346 47.6464 302.038C47.2731 301.721 47.0864 301.245 47.0864 300.61C47.0864 299.975 47.3384 299.476 47.8424 299.112C48.3557 298.739 48.9297 298.552 49.5644 298.552C51.1511 298.552 52.0331 299.257 52.2104 300.666H51.0904C51.0064 300.265 50.8431 299.975 50.6004 299.798C50.3577 299.611 50.0077 299.518 49.5504 299.518C49.1304 299.518 48.7944 299.616 48.5424 299.812C48.2904 299.999 48.1644 300.251 48.1644 300.568C48.1644 300.904 48.2811 301.151 48.5144 301.31C48.7571 301.469 49.2097 301.609 49.8724 301.73C50.3111 301.814 50.6611 301.898 50.9224 301.982C51.1931 302.057 51.4544 302.173 51.7064 302.332C51.9677 302.491 52.1544 302.701 52.2664 302.962C52.3877 303.214 52.4484 303.527 52.4484 303.9C52.4484 304.581 52.2151 305.123 51.7484 305.524C51.2911 305.925 50.6284 306.126 49.7604 306.126ZM56.053 306.126C55.3343 306.126 54.7463 305.949 54.289 305.594C53.841 305.23 53.617 304.689 53.617 303.97C53.617 303.186 53.9623 302.612 54.653 302.248C55.353 301.884 56.2303 301.702 57.285 301.702H58.335V301.17C58.335 300.582 58.2136 300.162 57.971 299.91C57.7283 299.649 57.327 299.518 56.767 299.518C55.759 299.518 55.199 299.957 55.087 300.834H53.925C53.9996 300.05 54.3076 299.476 54.849 299.112C55.3903 298.739 56.0483 298.552 56.823 298.552C58.6056 298.552 59.497 299.425 59.497 301.17V306H58.335V305.076C57.775 305.776 57.0143 306.126 56.053 306.126ZM56.165 305.202C56.7996 305.202 57.3176 305.048 57.719 304.74C58.1296 304.423 58.335 303.989 58.335 303.438V302.528H57.327C55.6283 302.528 54.779 303.009 54.779 303.97C54.779 304.791 55.241 305.202 56.165 305.202ZM65.4195 306.126C64.8502 306.126 64.3508 306.005 63.9215 305.762C63.4922 305.51 63.1655 305.188 62.9415 304.796V306H61.7795V295.178H62.9415V299.91C63.1655 299.537 63.5062 299.219 63.9635 298.958C64.4208 298.687 64.9062 298.552 65.4195 298.552C66.3995 298.552 67.1975 298.888 67.8135 299.56C68.4388 300.223 68.7515 301.114 68.7515 302.234V302.346C68.7515 303.475 68.4435 304.39 67.8275 305.09C67.2208 305.781 66.4182 306.126 65.4195 306.126ZM65.3075 305.16C66.0355 305.16 66.5908 304.922 66.9735 304.446C67.3562 303.97 67.5475 303.289 67.5475 302.402V302.29C67.5475 301.403 67.3328 300.722 66.9035 300.246C66.4835 299.761 65.9468 299.518 65.2935 299.518C64.5842 299.518 64.0055 299.756 63.5575 300.232C63.1188 300.699 62.8995 301.385 62.8995 302.29V302.402C62.8995 303.307 63.1142 303.993 63.5435 304.46C63.9822 304.927 64.5702 305.16 65.3075 305.16ZM70.5849 306V295.178H71.7609V306H70.5849ZM77.1349 306.126C76.0896 306.126 75.2356 305.79 74.5729 305.118C73.9196 304.437 73.5929 303.536 73.5929 302.416V302.304C73.5929 301.203 73.9102 300.302 74.5449 299.602C75.1889 298.902 76.0149 298.552 77.0229 298.552C77.9562 298.552 78.7356 298.855 79.3609 299.462C79.9956 300.059 80.3129 300.969 80.3129 302.192V302.57H74.7969C74.8249 303.41 75.0349 304.054 75.4269 304.502C75.8282 304.941 76.4022 305.16 77.1489 305.16C78.2969 305.16 78.9456 304.735 79.0949 303.886H80.2569C80.1356 304.605 79.7949 305.16 79.2349 305.552C78.6749 305.935 77.9749 306.126 77.1349 306.126ZM74.8389 301.632H79.1229C79.0202 300.223 78.3202 299.518 77.0229 299.518C76.4349 299.518 75.9496 299.709 75.5669 300.092C75.1842 300.465 74.9416 300.979 74.8389 301.632ZM85.801 308.548V298.678H86.963V299.91C87.187 299.537 87.5277 299.219 87.985 298.958C88.4423 298.687 88.9277 298.552 89.441 298.552C90.421 298.552 91.219 298.888 91.835 299.56C92.4603 300.223 92.773 301.114 92.773 302.234V302.346C92.773 303.475 92.465 304.39 91.849 305.09C91.2423 305.781 90.4397 306.126 89.441 306.126C88.8717 306.126 88.3723 306.005 87.943 305.762C87.5137 305.51 87.187 305.188 86.963 304.796V308.548H85.801ZM89.329 305.16C90.057 305.16 90.6123 304.922 90.995 304.446C91.3777 303.97 91.569 303.289 91.569 302.402V302.29C91.569 301.403 91.3543 300.722 90.925 300.246C90.505 299.761 89.9683 299.518 89.315 299.518C88.6057 299.518 88.027 299.756 87.579 300.232C87.1403 300.699 86.921 301.385 86.921 302.29V302.402C86.921 303.307 87.1357 303.993 87.565 304.46C88.0037 304.927 88.5917 305.16 89.329 305.16ZM96.4123 306.126C95.6937 306.126 95.1057 305.949 94.6483 305.594C94.2003 305.23 93.9763 304.689 93.9763 303.97C93.9763 303.186 94.3217 302.612 95.0123 302.248C95.7123 301.884 96.5897 301.702 97.6443 301.702H98.6943V301.17C98.6943 300.582 98.573 300.162 98.3303 299.91C98.0877 299.649 97.6863 299.518 97.1263 299.518C96.1183 299.518 95.5583 299.957 95.4463 300.834H94.2843C94.359 300.05 94.667 299.476 95.2083 299.112C95.7497 298.739 96.4077 298.552 97.1823 298.552C98.965 298.552 99.8563 299.425 99.8563 301.17V306H98.6943V305.076C98.1343 305.776 97.3737 306.126 96.4123 306.126ZM96.5243 305.202C97.159 305.202 97.677 305.048 98.0783 304.74C98.489 304.423 98.6943 303.989 98.6943 303.438V302.528H97.6863C95.9877 302.528 95.1383 303.009 95.1383 303.97C95.1383 304.791 95.6003 305.202 96.5243 305.202ZM102.592 308.548L103.978 305.244L101.108 298.678H102.354L104.594 303.928L106.624 298.678H107.814L103.768 308.548H102.592ZM109.344 306V298.678H110.506V299.798C110.683 299.434 110.963 299.135 111.346 298.902C111.738 298.669 112.186 298.552 112.69 298.552C113.763 298.552 114.477 299.009 114.832 299.924C115.065 299.476 115.415 299.135 115.882 298.902C116.358 298.669 116.843 298.552 117.338 298.552C118.057 298.552 118.645 298.79 119.102 299.266C119.569 299.733 119.802 300.465 119.802 301.464V306H118.64V301.38C118.64 300.167 118.122 299.56 117.086 299.56C116.563 299.56 116.111 299.733 115.728 300.078C115.345 300.423 115.154 300.904 115.154 301.52V306H113.992V301.38C113.992 300.167 113.474 299.56 112.438 299.56C111.915 299.56 111.463 299.733 111.08 300.078C110.697 300.423 110.506 300.904 110.506 301.52V306H109.344ZM125.082 306.126C124.037 306.126 123.183 305.79 122.52 305.118C121.867 304.437 121.54 303.536 121.54 302.416V302.304C121.54 301.203 121.857 300.302 122.492 299.602C123.136 298.902 123.962 298.552 124.97 298.552C125.903 298.552 126.683 298.855 127.308 299.462C127.943 300.059 128.26 300.969 128.26 302.192V302.57H122.744C122.772 303.41 122.982 304.054 123.374 304.502C123.775 304.941 124.349 305.16 125.096 305.16C126.244 305.16 126.893 304.735 127.042 303.886H128.204C128.083 304.605 127.742 305.16 127.182 305.552C126.622 305.935 125.922 306.126 125.082 306.126ZM122.786 301.632H127.07C126.967 300.223 126.267 299.518 124.97 299.518C124.382 299.518 123.897 299.709 123.514 300.092C123.131 300.465 122.889 300.979 122.786 301.632ZM130.043 306V298.678H131.205V299.84C131.383 299.467 131.677 299.159 132.087 298.916C132.498 298.673 132.988 298.552 133.557 298.552C134.36 298.552 134.99 298.79 135.447 299.266C135.905 299.742 136.133 300.489 136.133 301.506V306H134.971V301.422C134.971 300.778 134.831 300.307 134.551 300.008C134.271 299.709 133.837 299.56 133.249 299.56C132.68 299.56 132.195 299.737 131.793 300.092C131.401 300.447 131.205 300.937 131.205 301.562V306H130.043ZM140.636 306.098C139.992 306.098 139.502 305.925 139.166 305.58C138.83 305.235 138.662 304.763 138.662 304.166V299.658H137.612V298.678H138.662V297.012H139.824V298.678H141.532V299.658H139.824V304.054C139.824 304.763 140.128 305.118 140.734 305.118C141.07 305.118 141.369 305.067 141.63 304.964V305.944C141.341 306.047 141.01 306.098 140.636 306.098ZM145.655 306.126C144.778 306.126 144.087 305.916 143.583 305.496C143.088 305.076 142.822 304.493 142.785 303.746H143.919C144.012 304.689 144.586 305.16 145.641 305.16C146.705 305.16 147.237 304.773 147.237 303.998C147.237 303.634 147.102 303.368 146.831 303.2C146.57 303.023 146.136 302.878 145.529 302.766C144.577 302.589 143.914 302.346 143.541 302.038C143.168 301.721 142.981 301.245 142.981 300.61C142.981 299.975 143.233 299.476 143.737 299.112C144.25 298.739 144.824 298.552 145.459 298.552C147.046 298.552 147.928 299.257 148.105 300.666H146.985C146.901 300.265 146.738 299.975 146.495 299.798C146.252 299.611 145.902 299.518 145.445 299.518C145.025 299.518 144.689 299.616 144.437 299.812C144.185 299.999 144.059 300.251 144.059 300.568C144.059 300.904 144.176 301.151 144.409 301.31C144.652 301.469 145.104 301.609 145.767 301.73C146.206 301.814 146.556 301.898 146.817 301.982C147.088 302.057 147.349 302.173 147.601 302.332C147.862 302.491 148.049 302.701 148.161 302.962C148.282 303.214 148.343 303.527 148.343 303.9C148.343 304.581 148.11 305.123 147.643 305.524C147.186 305.925 146.523 306.126 145.655 306.126Z" fill="black"/>
<rect x="304" y="195" width="107" height="22" rx="10.9" fill="#EBE4FF"/>
<path d="M327.673 206.714C328.467 206.714 329.068 206.415 329.478 205.818C329.887 205.212 330.092 204.329 330.092 203.168V202.656C330.092 201.581 329.875 200.727 329.439 200.096C329.013 199.465 328.415 199.149 327.647 199.149C326.871 199.149 326.265 199.46 325.83 200.083C325.395 200.698 325.177 201.564 325.177 202.682V203.194C325.177 204.329 325.399 205.199 325.843 205.805C326.286 206.411 326.896 206.714 327.673 206.714ZM327.673 207.635C326.581 207.635 325.702 207.23 325.036 206.419C324.371 205.609 324.038 204.538 324.038 203.206V202.694C324.038 201.338 324.358 200.258 324.998 199.456C325.646 198.654 326.53 198.253 327.647 198.253C328.757 198.253 329.627 198.658 330.259 199.469C330.899 200.279 331.219 201.346 331.219 202.669V203.181C331.219 204.529 330.903 205.609 330.271 206.419C329.648 207.23 328.782 207.635 327.673 207.635ZM332.341 207.52L334.734 204.077L332.494 200.826H333.736L335.374 203.258L337 200.826H338.152L335.938 204L338.382 207.52H337.128L335.323 204.819L333.48 207.52H332.341ZM340.05 207.52V201.722H339.09V200.826H340.05V199.738C340.05 199.046 340.217 198.517 340.55 198.15C340.891 197.775 341.39 197.587 342.047 197.587C342.32 197.587 342.585 197.63 342.841 197.715V198.611C342.602 198.517 342.35 198.47 342.086 198.47C341.437 198.47 341.113 198.854 341.113 199.622V200.826H342.751V201.722H341.113V207.52H340.05ZM346.882 207.622C346.046 207.622 345.376 207.418 344.872 207.008C344.369 206.59 344.057 206.01 343.938 205.267H345.013C345.124 205.745 345.324 206.108 345.615 206.355C345.913 206.594 346.344 206.714 346.907 206.714C347.65 206.714 348.222 206.411 348.623 205.805C349.032 205.19 349.241 204.282 349.25 203.078C349.028 203.454 348.708 203.753 348.29 203.974C347.872 204.188 347.402 204.294 346.882 204.294C345.994 204.294 345.269 204.013 344.706 203.45C344.151 202.886 343.874 202.17 343.874 201.299C343.874 200.378 344.16 199.639 344.731 199.085C345.303 198.522 346.071 198.24 347.035 198.24C348.111 198.24 348.926 198.594 349.48 199.302C350.043 200.002 350.325 201.013 350.325 202.336V202.912C350.325 204.422 350.026 205.587 349.429 206.406C348.832 207.217 347.983 207.622 346.882 207.622ZM347.048 203.424C347.663 203.424 348.166 203.241 348.559 202.874C348.951 202.507 349.147 202.029 349.147 201.44C349.147 200.706 348.951 200.134 348.559 199.725C348.175 199.315 347.667 199.11 347.035 199.11C346.43 199.11 345.939 199.307 345.563 199.699C345.196 200.092 345.013 200.608 345.013 201.248C345.013 201.905 345.196 202.434 345.563 202.835C345.93 203.228 346.425 203.424 347.048 203.424ZM352.788 207.354C352.626 207.507 352.434 207.584 352.212 207.584C351.99 207.584 351.798 207.507 351.636 207.354C351.474 207.191 351.393 206.995 351.393 206.765C351.393 206.534 351.474 206.342 351.636 206.189C351.798 206.027 351.99 205.946 352.212 205.946C352.434 205.946 352.626 206.027 352.788 206.189C352.95 206.342 353.031 206.534 353.031 206.765C353.031 206.995 352.95 207.191 352.788 207.354ZM356.142 207.354C355.98 207.507 355.788 207.584 355.566 207.584C355.344 207.584 355.152 207.507 354.99 207.354C354.828 207.191 354.747 206.995 354.747 206.765C354.747 206.534 354.828 206.342 354.99 206.189C355.152 206.027 355.344 205.946 355.566 205.946C355.788 205.946 355.98 206.027 356.142 206.189C356.304 206.342 356.385 206.534 356.385 206.765C356.385 206.995 356.304 207.191 356.142 207.354ZM359.495 207.354C359.333 207.507 359.141 207.584 358.919 207.584C358.697 207.584 358.505 207.507 358.343 207.354C358.181 207.191 358.1 206.995 358.1 206.765C358.1 206.534 358.181 206.342 358.343 206.189C358.505 206.027 358.697 205.946 358.919 205.946C359.141 205.946 359.333 206.027 359.495 206.189C359.657 206.342 359.739 206.534 359.739 206.765C359.739 206.995 359.657 207.191 359.495 207.354ZM364.129 207.635C363.182 207.635 362.452 207.401 361.94 206.931C361.437 206.462 361.151 205.835 361.083 205.05H362.145C362.248 205.604 362.44 206.027 362.721 206.317C363.003 206.598 363.468 206.739 364.116 206.739C364.739 206.739 365.23 206.543 365.588 206.15C365.947 205.758 366.126 205.216 366.126 204.525C366.126 203.876 365.951 203.36 365.601 202.976C365.251 202.583 364.786 202.387 364.206 202.387C363.284 202.387 362.563 202.682 362.043 203.27H361.633V198.368H366.779V199.328H362.555V202.118C363.007 201.7 363.63 201.491 364.424 201.491C365.26 201.491 365.942 201.769 366.472 202.323C367.001 202.869 367.265 203.603 367.265 204.525C367.265 205.463 366.966 206.219 366.369 206.79C365.772 207.354 365.025 207.635 364.129 207.635ZM371.874 207.635C371.353 207.635 370.858 207.541 370.389 207.354C369.919 207.157 369.523 206.846 369.198 206.419C368.874 205.993 368.712 205.493 368.712 204.922C368.712 204.333 368.87 203.838 369.186 203.437C369.501 203.036 369.919 202.741 370.44 202.554C370.005 202.383 369.663 202.131 369.416 201.798C369.177 201.466 369.058 201.077 369.058 200.634C369.058 199.925 369.339 199.354 369.902 198.918C370.474 198.475 371.131 198.253 371.874 198.253C372.616 198.253 373.269 198.475 373.832 198.918C374.395 199.354 374.677 199.917 374.677 200.608C374.677 201.487 374.207 202.131 373.269 202.541C374.438 202.967 375.022 203.753 375.022 204.896C375.022 205.758 374.707 206.432 374.075 206.918C373.452 207.396 372.718 207.635 371.874 207.635ZM371.874 206.726C372.462 206.726 372.944 206.564 373.32 206.24C373.695 205.907 373.883 205.446 373.883 204.858C373.883 204.277 373.695 203.829 373.32 203.514C372.944 203.198 372.471 203.04 371.899 203.04C371.319 203.04 370.832 203.202 370.44 203.526C370.047 203.851 369.851 204.303 369.851 204.883C369.851 205.455 370.047 205.907 370.44 206.24C370.832 206.564 371.31 206.726 371.874 206.726ZM371.912 202.157C372.407 202.157 372.804 202.02 373.102 201.747C373.401 201.474 373.55 201.099 373.55 200.621C373.55 200.186 373.388 199.827 373.064 199.546C372.748 199.264 372.351 199.123 371.874 199.123C371.387 199.123 370.982 199.264 370.658 199.546C370.342 199.819 370.184 200.186 370.184 200.646C370.184 201.107 370.35 201.474 370.683 201.747C371.016 202.02 371.426 202.157 371.912 202.157ZM380.036 206.714C380.829 206.714 381.431 206.415 381.84 205.818C382.25 205.212 382.455 204.329 382.455 203.168V202.656C382.455 201.581 382.237 200.727 381.802 200.096C381.375 199.465 380.778 199.149 380.01 199.149C379.233 199.149 378.628 199.46 378.192 200.083C377.757 200.698 377.54 201.564 377.54 202.682V203.194C377.54 204.329 377.761 205.199 378.205 205.805C378.649 206.411 379.259 206.714 380.036 206.714ZM380.036 207.635C378.943 207.635 378.064 207.23 377.399 206.419C376.733 205.609 376.4 204.538 376.4 203.206V202.694C376.4 201.338 376.72 200.258 377.36 199.456C378.009 198.654 378.892 198.253 380.01 198.253C381.119 198.253 381.99 198.658 382.621 199.469C383.261 200.279 383.581 201.346 383.581 202.669V203.181C383.581 204.529 383.265 205.609 382.634 206.419C382.011 207.23 381.145 207.635 380.036 207.635ZM384.588 207.52V207.264L388.223 203.437C389.102 202.507 389.542 201.623 389.542 200.787C389.542 200.275 389.397 199.874 389.106 199.584C388.825 199.294 388.424 199.149 387.903 199.149C386.785 199.149 386.141 199.827 385.97 201.184H384.934C385.002 200.279 385.296 199.567 385.817 199.046C386.346 198.517 387.041 198.253 387.903 198.253C388.748 198.253 389.418 198.487 389.913 198.957C390.416 199.418 390.668 200.041 390.668 200.826C390.668 201.841 390.054 202.95 388.825 204.154L386.303 206.611H390.719V207.52H384.588Z" fill="#A896DC"/>
<path d="M252.822 210L249.42 199.99H250.624L253.606 208.824L256.588 199.99H257.736L254.278 210H252.822ZM261.554 209.16C262.282 209.16 262.861 208.908 263.29 208.404C263.729 207.9 263.948 207.233 263.948 206.402V206.304C263.948 205.455 263.729 204.778 263.29 204.274C262.861 203.77 262.282 203.518 261.554 203.518C260.817 203.518 260.234 203.77 259.804 204.274C259.375 204.778 259.16 205.45 259.16 206.29V206.402C259.16 207.242 259.375 207.914 259.804 208.418C260.234 208.913 260.817 209.16 261.554 209.16ZM261.54 210.126C260.504 210.126 259.646 209.776 258.964 209.076C258.292 208.367 257.956 207.475 257.956 206.402V206.29C257.956 205.198 258.292 204.302 258.964 203.602C259.646 202.902 260.509 202.552 261.554 202.552C262.6 202.552 263.458 202.902 264.13 203.602C264.812 204.293 265.152 205.184 265.152 206.276V206.388C265.152 207.489 264.812 208.39 264.13 209.09C263.449 209.781 262.586 210.126 261.54 210.126ZM269.177 210.098C268.533 210.098 268.043 209.925 267.707 209.58C267.371 209.235 267.203 208.763 267.203 208.166V203.658H266.153V202.678H267.203V201.012H268.365V202.678H270.073V203.658H268.365V208.054C268.365 208.763 268.669 209.118 269.275 209.118C269.611 209.118 269.91 209.067 270.171 208.964V209.944C269.882 210.047 269.551 210.098 269.177 210.098ZM271.956 210V202.678H273.118V210H271.956ZM273.048 200.928C272.899 201.077 272.721 201.152 272.516 201.152C272.311 201.152 272.129 201.077 271.97 200.928C271.821 200.779 271.746 200.597 271.746 200.382C271.746 200.167 271.821 199.985 271.97 199.836C272.129 199.687 272.311 199.612 272.516 199.612C272.721 199.612 272.899 199.687 273.048 199.836C273.207 199.985 273.286 200.167 273.286 200.382C273.286 200.597 273.207 200.779 273.048 200.928ZM275.496 210V202.678H276.658V203.84C276.836 203.467 277.13 203.159 277.54 202.916C277.951 202.673 278.441 202.552 279.01 202.552C279.813 202.552 280.443 202.79 280.9 203.266C281.358 203.742 281.586 204.489 281.586 205.506V210H280.424V205.422C280.424 204.778 280.284 204.307 280.004 204.008C279.724 203.709 279.29 203.56 278.702 203.56C278.133 203.56 277.648 203.737 277.246 204.092C276.854 204.447 276.658 204.937 276.658 205.562V210H275.496ZM286.79 212.674C285.772 212.674 284.988 212.464 284.438 212.044C283.896 211.633 283.574 211.092 283.472 210.42H284.662C284.83 211.269 285.534 211.694 286.776 211.694C287.522 211.694 288.101 211.507 288.512 211.134C288.922 210.77 289.128 210.205 289.128 209.44V208.376C288.904 208.759 288.563 209.085 288.106 209.356C287.648 209.627 287.163 209.762 286.65 209.762C285.688 209.762 284.89 209.435 284.256 208.782C283.63 208.129 283.318 207.298 283.318 206.29V206.192C283.318 205.175 283.64 204.316 284.284 203.616C284.928 202.907 285.744 202.552 286.734 202.552C287.816 202.552 288.614 202.986 289.128 203.854V202.678H290.29V209.51C290.28 210.546 289.958 211.33 289.324 211.862C288.689 212.403 287.844 212.674 286.79 212.674ZM286.776 208.796C287.476 208.796 288.05 208.567 288.498 208.11C288.946 207.643 289.17 207.009 289.17 206.206V206.108C289.17 205.296 288.96 204.661 288.54 204.204C288.129 203.747 287.564 203.518 286.846 203.518C286.127 203.518 285.558 203.761 285.138 204.246C284.727 204.722 284.522 205.352 284.522 206.136V206.248C284.522 207.023 284.736 207.643 285.166 208.11C285.604 208.567 286.141 208.796 286.776 208.796Z" fill="black"/>
<path opacity="0.740444" d="M221.089 201.272H220.363C220.162 201.272 220 201.431 220 201.629V208.04C220 208.236 220.162 208.396 220.363 208.396L221.089 208.388C221.29 208.388 221.452 208.229 221.452 208.032V201.621C221.452 201.425 221.29 201.272 221.089 201.272Z" stroke="#797A93" stroke-width="0.9"/>
<path opacity="0.740444" d="M230.543 201.731C230.533 203.386 230.186 204.903 229.835 206.017C229.493 207.104 229.152 207.792 229.134 207.83C229.107 207.878 229.087 207.894 229.067 207.904C229.039 207.919 228.969 207.946 228.811 207.946H226.644C225.635 207.946 224.625 207.715 224.549 207.698C223.025 207.337 222.846 207.284 222.755 207.257C222.748 207.255 222.741 207.253 222.734 207.251L222.725 207.248L222.722 201.721C222.724 201.719 222.728 201.717 222.734 201.715L222.752 201.71L222.769 201.703C224.793 200.885 225.565 199.002 225.626 197.497C225.629 197.499 225.632 197.501 225.635 197.503C225.707 197.553 225.794 197.635 225.878 197.753C226.045 197.988 226.182 198.339 226.182 198.779C226.182 199.261 226.172 199.509 226.129 199.755C226.085 200.006 226.004 200.268 225.837 200.777L225.644 201.367H226.265C228.399 201.367 229.739 201.587 230.297 201.678C230.387 201.693 230.457 201.704 230.506 201.711C230.522 201.719 230.534 201.725 230.543 201.731Z" stroke="#797A93" stroke-width="0.9"/>
<path opacity="0.740444" d="M241.161 204.77L241.164 204.77L242.388 204.763C242.457 204.763 242.512 204.774 242.55 204.787V210.962C242.512 210.975 242.457 210.986 242.387 210.986H241.161C241.092 210.986 241.037 210.976 240.998 210.964V204.794C241.036 204.781 241.091 204.77 241.161 204.77Z" stroke="#797A93" stroke-width="0.9"/>
<path opacity="0.740444" d="M231.457 210.263C231.467 208.609 231.814 207.091 232.165 205.977C232.507 204.891 232.848 204.202 232.866 204.164C232.893 204.116 232.913 204.1 232.933 204.09C232.961 204.075 233.031 204.048 233.189 204.048H235.356C236.365 204.048 237.375 204.279 237.451 204.297C238.975 204.657 239.154 204.71 239.245 204.737C239.252 204.739 239.259 204.741 239.266 204.743L239.275 204.746L239.278 210.274C239.276 210.275 239.272 210.277 239.266 210.279L239.248 210.284L239.231 210.291C237.207 211.109 236.435 212.992 236.374 214.497C236.371 214.495 236.368 214.493 236.365 214.491C236.293 214.442 236.206 214.359 236.122 214.241C235.955 214.006 235.818 213.655 235.818 213.215C235.818 212.733 235.828 212.485 235.871 212.239C235.915 211.989 235.996 211.726 236.163 211.218L236.356 210.627H235.735C233.601 210.627 232.261 210.407 231.703 210.316C231.613 210.301 231.543 210.29 231.494 210.283C231.478 210.276 231.466 210.269 231.457 210.263Z" stroke="#797A93" stroke-width="0.9"/>
<rect x="304" y="293" width="107" height="22" rx="10.9" fill="#EBE4FF"/>
<path d="M327.673 304.714C328.467 304.714 329.068 304.415 329.478 303.818C329.887 303.212 330.092 302.329 330.092 301.168V300.656C330.092 299.581 329.875 298.727 329.439 298.096C329.013 297.465 328.415 297.149 327.647 297.149C326.871 297.149 326.265 297.46 325.83 298.083C325.395 298.698 325.177 299.564 325.177 300.682V301.194C325.177 302.329 325.399 303.199 325.843 303.805C326.286 304.411 326.896 304.714 327.673 304.714ZM327.673 305.635C326.581 305.635 325.702 305.23 325.036 304.419C324.371 303.609 324.038 302.538 324.038 301.206V300.694C324.038 299.338 324.358 298.258 324.998 297.456C325.646 296.654 326.53 296.253 327.647 296.253C328.757 296.253 329.627 296.658 330.259 297.469C330.899 298.279 331.219 299.346 331.219 300.669V301.181C331.219 302.529 330.903 303.609 330.271 304.419C329.648 305.23 328.782 305.635 327.673 305.635ZM332.341 305.52L334.734 302.077L332.494 298.826H333.736L335.374 301.258L337 298.826H338.152L335.938 302L338.382 305.52H337.128L335.323 302.819L333.48 305.52H332.341ZM340.05 305.52V299.722H339.09V298.826H340.05V297.738C340.05 297.046 340.217 296.517 340.55 296.15C340.891 295.775 341.39 295.587 342.047 295.587C342.32 295.587 342.585 295.63 342.841 295.715V296.611C342.602 296.517 342.35 296.47 342.086 296.47C341.437 296.47 341.113 296.854 341.113 297.622V298.826H342.751V299.722H341.113V305.52H340.05ZM346.882 305.622C346.046 305.622 345.376 305.418 344.872 305.008C344.369 304.59 344.057 304.01 343.938 303.267H345.013C345.124 303.745 345.324 304.108 345.615 304.355C345.913 304.594 346.344 304.714 346.907 304.714C347.65 304.714 348.222 304.411 348.623 303.805C349.032 303.19 349.241 302.282 349.25 301.078C349.028 301.454 348.708 301.753 348.29 301.974C347.872 302.188 347.402 302.294 346.882 302.294C345.994 302.294 345.269 302.013 344.706 301.45C344.151 300.886 343.874 300.17 343.874 299.299C343.874 298.378 344.16 297.639 344.731 297.085C345.303 296.522 346.071 296.24 347.035 296.24C348.111 296.24 348.926 296.594 349.48 297.302C350.043 298.002 350.325 299.013 350.325 300.336V300.912C350.325 302.422 350.026 303.587 349.429 304.406C348.832 305.217 347.983 305.622 346.882 305.622ZM347.048 301.424C347.663 301.424 348.166 301.241 348.559 300.874C348.951 300.507 349.147 300.029 349.147 299.44C349.147 298.706 348.951 298.134 348.559 297.725C348.175 297.315 347.667 297.11 347.035 297.11C346.43 297.11 345.939 297.307 345.563 297.699C345.196 298.092 345.013 298.608 345.013 299.248C345.013 299.905 345.196 300.434 345.563 300.835C345.93 301.228 346.425 301.424 347.048 301.424ZM352.788 305.354C352.626 305.507 352.434 305.584 352.212 305.584C351.99 305.584 351.798 305.507 351.636 305.354C351.474 305.191 351.393 304.995 351.393 304.765C351.393 304.534 351.474 304.342 351.636 304.189C351.798 304.027 351.99 303.946 352.212 303.946C352.434 303.946 352.626 304.027 352.788 304.189C352.95 304.342 353.031 304.534 353.031 304.765C353.031 304.995 352.95 305.191 352.788 305.354ZM356.142 305.354C355.98 305.507 355.788 305.584 355.566 305.584C355.344 305.584 355.152 305.507 354.99 305.354C354.828 305.191 354.747 304.995 354.747 304.765C354.747 304.534 354.828 304.342 354.99 304.189C355.152 304.027 355.344 303.946 355.566 303.946C355.788 303.946 355.98 304.027 356.142 304.189C356.304 304.342 356.385 304.534 356.385 304.765C356.385 304.995 356.304 305.191 356.142 305.354ZM359.495 305.354C359.333 305.507 359.141 305.584 358.919 305.584C358.697 305.584 358.505 305.507 358.343 305.354C358.181 305.191 358.1 304.995 358.1 304.765C358.1 304.534 358.181 304.342 358.343 304.189C358.505 304.027 358.697 303.946 358.919 303.946C359.141 303.946 359.333 304.027 359.495 304.189C359.657 304.342 359.739 304.534 359.739 304.765C359.739 304.995 359.657 305.191 359.495 305.354ZM364.129 305.635C363.182 305.635 362.452 305.401 361.94 304.931C361.437 304.462 361.151 303.835 361.083 303.05H362.145C362.248 303.604 362.44 304.027 362.721 304.317C363.003 304.598 363.468 304.739 364.116 304.739C364.739 304.739 365.23 304.543 365.588 304.15C365.947 303.758 366.126 303.216 366.126 302.525C366.126 301.876 365.951 301.36 365.601 300.976C365.251 300.583 364.786 300.387 364.206 300.387C363.284 300.387 362.563 300.682 362.043 301.27H361.633V296.368H366.779V297.328H362.555V300.118C363.007 299.7 363.63 299.491 364.424 299.491C365.26 299.491 365.942 299.769 366.472 300.323C367.001 300.869 367.265 301.603 367.265 302.525C367.265 303.463 366.966 304.219 366.369 304.79C365.772 305.354 365.025 305.635 364.129 305.635ZM371.874 305.635C371.353 305.635 370.858 305.541 370.389 305.354C369.919 305.157 369.523 304.846 369.198 304.419C368.874 303.993 368.712 303.493 368.712 302.922C368.712 302.333 368.87 301.838 369.186 301.437C369.501 301.036 369.919 300.741 370.44 300.554C370.005 300.383 369.663 300.131 369.416 299.798C369.177 299.466 369.058 299.077 369.058 298.634C369.058 297.925 369.339 297.354 369.902 296.918C370.474 296.475 371.131 296.253 371.874 296.253C372.616 296.253 373.269 296.475 373.832 296.918C374.395 297.354 374.677 297.917 374.677 298.608C374.677 299.487 374.207 300.131 373.269 300.541C374.438 300.967 375.022 301.753 375.022 302.896C375.022 303.758 374.707 304.432 374.075 304.918C373.452 305.396 372.718 305.635 371.874 305.635ZM371.874 304.726C372.462 304.726 372.944 304.564 373.32 304.24C373.695 303.907 373.883 303.446 373.883 302.858C373.883 302.277 373.695 301.829 373.32 301.514C372.944 301.198 372.471 301.04 371.899 301.04C371.319 301.04 370.832 301.202 370.44 301.526C370.047 301.851 369.851 302.303 369.851 302.883C369.851 303.455 370.047 303.907 370.44 304.24C370.832 304.564 371.31 304.726 371.874 304.726ZM371.912 300.157C372.407 300.157 372.804 300.02 373.102 299.747C373.401 299.474 373.55 299.099 373.55 298.621C373.55 298.186 373.388 297.827 373.064 297.546C372.748 297.264 372.351 297.123 371.874 297.123C371.387 297.123 370.982 297.264 370.658 297.546C370.342 297.819 370.184 298.186 370.184 298.646C370.184 299.107 370.35 299.474 370.683 299.747C371.016 300.02 371.426 300.157 371.912 300.157ZM380.036 304.714C380.829 304.714 381.431 304.415 381.84 303.818C382.25 303.212 382.455 302.329 382.455 301.168V300.656C382.455 299.581 382.237 298.727 381.802 298.096C381.375 297.465 380.778 297.149 380.01 297.149C379.233 297.149 378.628 297.46 378.192 298.083C377.757 298.698 377.54 299.564 377.54 300.682V301.194C377.54 302.329 377.761 303.199 378.205 303.805C378.649 304.411 379.259 304.714 380.036 304.714ZM380.036 305.635C378.943 305.635 378.064 305.23 377.399 304.419C376.733 303.609 376.4 302.538 376.4 301.206V300.694C376.4 299.338 376.72 298.258 377.36 297.456C378.009 296.654 378.892 296.253 380.01 296.253C381.119 296.253 381.99 296.658 382.621 297.469C383.261 298.279 383.581 299.346 383.581 300.669V301.181C383.581 302.529 383.265 303.609 382.634 304.419C382.011 305.23 381.145 305.635 380.036 305.635ZM384.588 305.52V305.264L388.223 301.437C389.102 300.507 389.542 299.623 389.542 298.787C389.542 298.275 389.397 297.874 389.106 297.584C388.825 297.294 388.424 297.149 387.903 297.149C386.785 297.149 386.141 297.827 385.97 299.184H384.934C385.002 298.279 385.296 297.567 385.817 297.046C386.346 296.517 387.041 296.253 387.903 296.253C388.748 296.253 389.418 296.487 389.913 296.957C390.416 297.418 390.668 298.041 390.668 298.826C390.668 299.841 390.054 300.95 388.825 302.154L386.303 304.611H390.719V305.52H384.588Z" fill="#A896DC"/>
<path d="M252.822 308L249.42 297.99H250.624L253.606 306.824L256.588 297.99H257.736L254.278 308H252.822ZM261.554 307.16C262.282 307.16 262.861 306.908 263.29 306.404C263.729 305.9 263.948 305.233 263.948 304.402V304.304C263.948 303.455 263.729 302.778 263.29 302.274C262.861 301.77 262.282 301.518 261.554 301.518C260.817 301.518 260.234 301.77 259.804 302.274C259.375 302.778 259.16 303.45 259.16 304.29V304.402C259.16 305.242 259.375 305.914 259.804 306.418C260.234 306.913 260.817 307.16 261.554 307.16ZM261.54 308.126C260.504 308.126 259.646 307.776 258.964 307.076C258.292 306.367 257.956 305.475 257.956 304.402V304.29C257.956 303.198 258.292 302.302 258.964 301.602C259.646 300.902 260.509 300.552 261.554 300.552C262.6 300.552 263.458 300.902 264.13 301.602C264.812 302.293 265.152 303.184 265.152 304.276V304.388C265.152 305.489 264.812 306.39 264.13 307.09C263.449 307.781 262.586 308.126 261.54 308.126ZM269.177 308.098C268.533 308.098 268.043 307.925 267.707 307.58C267.371 307.235 267.203 306.763 267.203 306.166V301.658H266.153V300.678H267.203V299.012H268.365V300.678H270.073V301.658H268.365V306.054C268.365 306.763 268.669 307.118 269.275 307.118C269.611 307.118 269.91 307.067 270.171 306.964V307.944C269.882 308.047 269.551 308.098 269.177 308.098ZM271.956 308V300.678H273.118V308H271.956ZM273.048 298.928C272.899 299.077 272.721 299.152 272.516 299.152C272.311 299.152 272.129 299.077 271.97 298.928C271.821 298.779 271.746 298.597 271.746 298.382C271.746 298.167 271.821 297.985 271.97 297.836C272.129 297.687 272.311 297.612 272.516 297.612C272.721 297.612 272.899 297.687 273.048 297.836C273.207 297.985 273.286 298.167 273.286 298.382C273.286 298.597 273.207 298.779 273.048 298.928ZM275.496 308V300.678H276.658V301.84C276.836 301.467 277.13 301.159 277.54 300.916C277.951 300.673 278.441 300.552 279.01 300.552C279.813 300.552 280.443 300.79 280.9 301.266C281.358 301.742 281.586 302.489 281.586 303.506V308H280.424V303.422C280.424 302.778 280.284 302.307 280.004 302.008C279.724 301.709 279.29 301.56 278.702 301.56C278.133 301.56 277.648 301.737 277.246 302.092C276.854 302.447 276.658 302.937 276.658 303.562V308H275.496ZM286.79 310.674C285.772 310.674 284.988 310.464 284.438 310.044C283.896 309.633 283.574 309.092 283.472 308.42H284.662C284.83 309.269 285.534 309.694 286.776 309.694C287.522 309.694 288.101 309.507 288.512 309.134C288.922 308.77 289.128 308.205 289.128 307.44V306.376C288.904 306.759 288.563 307.085 288.106 307.356C287.648 307.627 287.163 307.762 286.65 307.762C285.688 307.762 284.89 307.435 284.256 306.782C283.63 306.129 283.318 305.298 283.318 304.29V304.192C283.318 303.175 283.64 302.316 284.284 301.616C284.928 300.907 285.744 300.552 286.734 300.552C287.816 300.552 288.614 300.986 289.128 301.854V300.678H290.29V307.51C290.28 308.546 289.958 309.33 289.324 309.862C288.689 310.403 287.844 310.674 286.79 310.674ZM286.776 306.796C287.476 306.796 288.05 306.567 288.498 306.11C288.946 305.643 289.17 305.009 289.17 304.206V304.108C289.17 303.296 288.96 302.661 288.54 302.204C288.129 301.747 287.564 301.518 286.846 301.518C286.127 301.518 285.558 301.761 285.138 302.246C284.727 302.722 284.522 303.352 284.522 304.136V304.248C284.522 305.023 284.736 305.643 285.166 306.11C285.604 306.567 286.141 306.796 286.776 306.796Z" fill="black"/>
<path opacity="0.740444" d="M221.089 299.272H220.363C220.162 299.272 220 299.431 220 299.629V306.04C220 306.236 220.162 306.396 220.363 306.396L221.089 306.388C221.29 306.388 221.452 306.229 221.452 306.032V299.621C221.452 299.425 221.29 299.272 221.089 299.272Z" stroke="#797A93" stroke-width="0.9"/>
<path opacity="0.740444" d="M230.543 299.731C230.533 301.386 230.186 302.903 229.835 304.017C229.493 305.104 229.152 305.792 229.134 305.83C229.107 305.878 229.087 305.894 229.067 305.904C229.039 305.919 228.969 305.946 228.811 305.946H226.644C225.635 305.946 224.625 305.715 224.549 305.698C223.025 305.337 222.846 305.284 222.755 305.257C222.748 305.255 222.741 305.253 222.734 305.251L222.725 305.248L222.722 299.721C222.724 299.719 222.728 299.717 222.734 299.715L222.752 299.71L222.769 299.703C224.793 298.885 225.565 297.002 225.626 295.497C225.629 295.499 225.632 295.501 225.635 295.503C225.707 295.553 225.794 295.635 225.878 295.753C226.045 295.988 226.182 296.339 226.182 296.779C226.182 297.261 226.172 297.509 226.129 297.755C226.085 298.006 226.004 298.268 225.837 298.777L225.644 299.367H226.265C228.399 299.367 229.739 299.587 230.297 299.678C230.387 299.693 230.457 299.704 230.506 299.711C230.522 299.719 230.534 299.725 230.543 299.731Z" stroke="#797A93" stroke-width="0.9"/>
<path opacity="0.740444" d="M241.161 302.77L241.164 302.77L242.388 302.763C242.457 302.763 242.512 302.774 242.55 302.787V308.962C242.512 308.975 242.457 308.986 242.387 308.986H241.161C241.092 308.986 241.037 308.976 240.998 308.964V302.794C241.036 302.781 241.091 302.77 241.161 302.77Z" stroke="#797A93" stroke-width="0.9"/>
<path opacity="0.740444" d="M231.457 308.263C231.467 306.609 231.814 305.091 232.165 303.977C232.507 302.891 232.848 302.202 232.866 302.164C232.893 302.116 232.913 302.1 232.933 302.09C232.961 302.075 233.031 302.048 233.189 302.048H235.356C236.365 302.048 237.375 302.279 237.451 302.297C238.975 302.657 239.154 302.71 239.245 302.737C239.252 302.739 239.259 302.741 239.266 302.743L239.275 302.746L239.278 308.274C239.276 308.275 239.272 308.277 239.266 308.279L239.248 308.284L239.231 308.291C237.207 309.109 236.435 310.992 236.374 312.497C236.371 312.495 236.368 312.493 236.365 312.491C236.293 312.442 236.206 312.359 236.122 312.241C235.955 312.006 235.818 311.655 235.818 311.215C235.818 310.733 235.828 310.485 235.871 310.239C235.915 309.989 235.996 309.726 236.163 309.218L236.356 308.627H235.735C233.601 308.627 232.261 308.407 231.703 308.316C231.613 308.301 231.543 308.29 231.494 308.283C231.478 308.276 231.466 308.269 231.457 308.263Z" stroke="#797A93" stroke-width="0.9"/>
<defs>
<filter id="filter0_d" x="11" y="63" width="423" height="93" filterUnits="userSpaceOnUse" color-interpolation-filters="sRGB">
<feFlood flood-opacity="0" result="BackgroundImageFix"/>
<feColorMatrix in="SourceAlpha" type="matrix" values="0 0 0 0 0 0 0 0 0 0 0 0 0 0 0 0 0 0 127 0"/>
<feOffset dy="2"/>
<feGaussianBlur stdDeviation="2"/>
<feColorMatrix type="matrix" values="0 0 0 0 0 0 0 0 0 0 0 0 0 0 0 0 0 0 0.220363 0"/>
<feBlend mode="normal" in2="BackgroundImageFix" result="effect1_dropShadow"/>
<feBlend mode="normal" in="SourceGraphic" in2="effect1_dropShadow" result="shape"/>
</filter>
<filter id="filter1_d" x="11" y="160" width="423" height="93" filterUnits="userSpaceOnUse" color-interpolation-filters="sRGB">
<feFlood flood-opacity="0" result="BackgroundImageFix"/>
<feColorMatrix in="SourceAlpha" type="matrix" values="0 0 0 0 0 0 0 0 0 0 0 0 0 0 0 0 0 0 127 0"/>
<feOffset dy="2"/>
<feGaussianBlur stdDeviation="2"/>
<feColorMatrix type="matrix" values="0 0 0 0 0 0 0 0 0 0 0 0 0 0 0 0 0 0 0.220363 0"/>
<feBlend mode="normal" in2="BackgroundImageFix" result="effect1_dropShadow"/>
<feBlend mode="normal" in="SourceGraphic" in2="effect1_dropShadow" result="shape"/>
</filter>
<filter id="filter2_d" x="11" y="257" width="423" height="93" filterUnits="userSpaceOnUse" color-interpolation-filters="sRGB">
<feFlood flood-opacity="0" result="BackgroundImageFix"/>
<feColorMatrix in="SourceAlpha" type="matrix" values="0 0 0 0 0 0 0 0 0 0 0 0 0 0 0 0 0 0 127 0"/>
<feOffset dy="2"/>
<feGaussianBlur stdDeviation="2"/>
<feColorMatrix type="matrix" values="0 0 0 0 0 0 0 0 0 0 0 0 0 0 0 0 0 0 0.220363 0"/>
<feBlend mode="normal" in2="BackgroundImageFix" result="effect1_dropShadow"/>
<feBlend mode="normal" in="SourceGraphic" in2="effect1_dropShadow" result="shape"/>
</filter>
<linearGradient id="paint0_linear" x1="358.862" y1="75" x2="378.817" y2="0.305825" gradientUnits="userSpaceOnUse">
<stop stop-color="#00DBE2"/>
<stop offset="1" stop-color="#01BFE3"/>
</linearGradient>
</defs>
</svg>
