<svg width="494" height="373" viewBox="0 0 494 373" fill="none" xmlns="http://www.w3.org/2000/svg">
<g filter="url(#filter0_d)">
<path fill-rule="evenodd" clip-rule="evenodd" d="M125 100.752C125 97.4387 127.686 94.7524 131 94.7524H237.67C240.984 94.7524 243.67 97.4387 243.67 100.752V177.065C243.67 180.379 240.984 183.065 237.67 183.065H131C127.686 183.065 125 180.379 125 177.065V100.752Z" fill="white"/>
</g>
<path d="M158.179 153.743H166.344V155.167H159.726V159.219H165.746V160.651H159.726V164.694H166.344V166.162H158.179V153.743Z" fill="#8BAEBC"/>
<path d="M170.905 161.75L167.75 157.382H169.569L171.89 160.73L174.201 157.382H176.038L172.874 161.75L176.038 166.162H174.21L171.89 162.778L169.569 166.162H167.75L170.905 161.75Z" fill="#8BAEBC"/>
<path d="M177.849 157.382H179.387V158.964C179.668 158.419 180.069 157.994 180.591 157.689C181.118 157.385 181.695 157.232 182.322 157.232C183.09 157.232 183.755 157.438 184.317 157.848C184.88 158.252 185.308 158.8 185.601 159.491C185.899 160.177 186.049 160.938 186.049 161.776C186.049 162.614 185.899 163.379 185.601 164.07C185.308 164.756 184.877 165.301 184.309 165.705C183.746 166.109 183.075 166.312 182.296 166.312C181.669 166.312 181.098 166.162 180.582 165.863C180.066 165.559 179.668 165.131 179.387 164.58V169.801H177.849V157.382ZM181.962 164.958C182.519 164.958 182.99 164.82 183.377 164.545C183.77 164.264 184.062 163.883 184.256 163.402C184.455 162.922 184.555 162.38 184.555 161.776C184.555 161.173 184.455 160.634 184.256 160.159C184.062 159.679 183.77 159.301 183.377 159.025C182.99 158.75 182.519 158.612 181.962 158.612C181.405 158.612 180.922 158.75 180.512 159.025C180.102 159.295 179.788 159.67 179.571 160.15C179.36 160.625 179.255 161.167 179.255 161.776C179.255 162.38 179.363 162.925 179.58 163.411C179.797 163.892 180.107 164.27 180.512 164.545C180.922 164.82 181.405 164.958 181.962 164.958Z" fill="#8BAEBC"/>
<path d="M191.841 166.312C191.003 166.312 190.256 166.109 189.6 165.705C188.943 165.295 188.431 164.744 188.062 164.053C187.698 163.355 187.517 162.588 187.517 161.75C187.517 160.918 187.698 160.159 188.062 159.474C188.431 158.782 188.943 158.237 189.6 157.839C190.256 157.435 191.003 157.232 191.841 157.232C192.679 157.232 193.426 157.435 194.082 157.839C194.744 158.237 195.26 158.782 195.629 159.474C195.998 160.165 196.183 160.924 196.183 161.75C196.183 162.588 195.998 163.355 195.629 164.053C195.26 164.744 194.744 165.295 194.082 165.705C193.426 166.109 192.679 166.312 191.841 166.312ZM191.841 165.02C192.427 165.02 192.931 164.873 193.353 164.58C193.774 164.287 194.094 163.895 194.311 163.402C194.527 162.904 194.636 162.354 194.636 161.75C194.636 161.152 194.527 160.61 194.311 160.124C194.094 159.632 193.774 159.242 193.353 158.955C192.931 158.668 192.427 158.524 191.841 158.524C191.261 158.524 190.76 158.668 190.338 158.955C189.922 159.236 189.605 159.623 189.389 160.115C189.172 160.602 189.063 161.146 189.063 161.75C189.063 162.354 189.172 162.904 189.389 163.402C189.605 163.9 189.922 164.296 190.338 164.589C190.76 164.876 191.261 165.02 191.841 165.02Z" fill="#8BAEBC"/>
<path d="M198.362 157.382H199.812V159.104C199.947 158.7 200.152 158.357 200.428 158.076C200.703 157.795 201.011 157.584 201.351 157.443C201.696 157.303 202.048 157.232 202.405 157.232C202.675 157.232 202.936 157.273 203.188 157.355C203.439 157.432 203.662 157.552 203.855 157.716L203.17 158.946C202.854 158.771 202.525 158.683 202.186 158.683C201.787 158.683 201.406 158.797 201.043 159.025C200.68 159.254 200.381 159.614 200.146 160.106C199.918 160.593 199.804 161.202 199.804 161.935V166.162H198.362V157.382Z" fill="#8BAEBC"/>
<path d="M208.628 166.312C207.825 166.312 207.207 166.086 206.773 165.635C206.34 165.178 206.123 164.536 206.123 163.71V158.639H204.673V157.382H206.141V154.956L207.608 153.884V157.382H209.981V158.639H207.608V163.464C207.608 164.003 207.714 164.393 207.925 164.633C208.142 164.873 208.461 164.993 208.883 164.993C209.07 164.993 209.261 164.97 209.454 164.923C209.653 164.87 209.826 164.812 209.973 164.747L209.981 166.101C209.829 166.159 209.63 166.209 209.384 166.25C209.138 166.291 208.886 166.312 208.628 166.312Z" fill="#8BAEBC"/>
<path d="M182.64 127.52L183.481 128.303V127.154V113.559C183.481 113.463 183.52 113.37 183.589 113.301C183.659 113.232 183.754 113.192 183.854 113.192C183.954 113.192 184.049 113.232 184.118 113.301C184.188 113.37 184.226 113.463 184.226 113.559V127.154V128.303L185.067 127.52L190.573 122.39L190.573 122.39C190.608 122.357 190.65 122.331 190.697 122.314C190.743 122.296 190.792 122.288 190.841 122.29C190.891 122.291 190.94 122.303 190.984 122.323C191.029 122.343 191.07 122.371 191.103 122.407C191.136 122.442 191.162 122.483 191.179 122.528C191.196 122.573 191.204 122.621 191.203 122.669C191.201 122.716 191.19 122.763 191.17 122.807C191.15 122.851 191.122 122.891 191.086 122.924L184.124 129.406L184.087 129.434L184.087 129.434L184.079 129.44L184.047 129.466L184.014 129.484L183.998 129.492H183.969L183.92 129.502C183.875 129.511 183.828 129.511 183.783 129.502L183.734 129.492H183.705L183.689 129.484L183.656 129.466L183.624 129.44L183.624 129.44L183.616 129.434L183.579 129.406L176.617 122.924C176.581 122.891 176.553 122.851 176.533 122.807C176.513 122.763 176.502 122.716 176.5 122.669C176.499 122.621 176.507 122.573 176.524 122.528C176.541 122.483 176.567 122.442 176.6 122.407C176.633 122.371 176.674 122.343 176.718 122.323C176.763 122.303 176.812 122.291 176.861 122.29C176.911 122.288 176.96 122.296 177.006 122.314C177.053 122.331 177.095 122.357 177.13 122.39L177.13 122.39L182.64 127.52Z" fill="#F9FAFC" stroke="#5D6F85"/>
<path d="M196.568 132.571C196.637 132.64 196.676 132.733 196.676 132.829V136.295C196.676 137.081 196.361 137.835 195.801 138.391C195.241 138.948 194.48 139.261 193.686 139.261H174.49C173.696 139.261 172.935 138.948 172.375 138.391C171.814 137.835 171.5 137.081 171.5 136.295V132.829C171.5 132.733 171.538 132.64 171.608 132.571C171.677 132.502 171.773 132.463 171.873 132.463C171.972 132.463 172.068 132.502 172.137 132.571C172.207 132.64 172.245 132.733 172.245 132.829V136.295C172.245 136.889 172.482 137.457 172.904 137.876C173.325 138.294 173.896 138.528 174.49 138.528H193.686C194.28 138.528 194.851 138.294 195.272 137.876C195.693 137.457 195.931 136.889 195.931 136.295V132.829C195.931 132.733 195.969 132.64 196.039 132.571C196.108 132.502 196.203 132.463 196.303 132.463C196.403 132.463 196.498 132.502 196.568 132.571Z" fill="#F9FAFC" stroke="#5D6F85"/>
<g filter="url(#filter1_d)">
<path fill-rule="evenodd" clip-rule="evenodd" d="M249.3 195.505C249.3 192.191 251.986 189.505 255.3 189.505H361.97C365.284 189.505 367.97 192.191 367.97 195.505V271.817C367.97 275.131 365.284 277.817 361.97 277.817H255.3C251.986 277.817 249.3 275.131 249.3 271.817V195.505Z" fill="white"/>
</g>
<g clip-path="url(#clip0)">
<path d="M313.531 231.854V224.429C313.531 222.921 312.307 221.7 310.803 221.7H287.797C286.29 221.7 285.068 222.921 285.068 224.429V231.854C285.068 233.361 286.29 234.582 287.797 234.582H310.8C312.307 234.582 313.531 233.361 313.531 231.854ZM292.809 230.367C293.397 230.367 293.855 230.269 294.231 230.121L294.525 231.954C294.083 232.15 293.251 232.314 292.3 232.314C289.715 232.314 288.062 230.744 288.062 228.224C288.062 225.885 289.664 223.97 292.642 223.97C293.296 223.97 294.016 224.084 294.541 224.283L294.149 226.129C293.855 225.997 293.412 225.883 292.758 225.883C291.45 225.883 290.599 226.815 290.615 228.124C290.615 229.597 291.598 230.367 292.809 230.367ZM298.03 232.314C296.983 232.314 296.051 232.087 295.444 231.758L295.887 229.975C296.345 230.251 297.293 230.582 298.03 230.582C298.782 230.582 299.094 230.32 299.094 229.909C299.094 229.501 298.848 229.305 297.916 228.995C296.265 228.439 295.627 227.538 295.643 226.587C295.643 225.099 296.917 223.97 298.898 223.97C299.833 223.97 300.665 224.185 301.158 224.429L300.716 226.148C300.353 225.949 299.667 225.689 298.981 225.689C298.374 225.689 298.032 225.936 298.032 226.344C298.032 226.72 298.345 226.916 299.325 227.26C300.848 227.782 301.484 228.553 301.5 229.729C301.5 231.218 300.321 232.314 298.03 232.314ZM307.558 232.15H305.07L302.157 224.148H304.856L305.937 227.862C306.133 228.532 306.281 229.173 306.395 229.809H306.445C306.578 229.154 306.707 228.548 306.888 227.862L307.918 224.148H310.535L307.558 232.15Z" fill="#5D6F84"/>
<path d="M324.786 213.422H295.087C294.461 213.422 293.95 213.931 293.95 214.559V219.989H297.362V216.27H322.341V242.995L315.565 242.99C315.229 242.99 314.911 243.125 314.673 243.363C314.437 243.596 314.305 243.917 314.305 244.253L314.328 252.732H297.362V236.243H293.95V254.605C293.95 255.23 294.459 255.739 295.087 255.739H317.237C317.563 255.739 317.867 255.599 318.085 255.36L325.634 246.907C325.819 246.701 325.92 246.431 325.92 246.152V214.559C325.923 213.931 325.411 213.422 324.786 213.422Z" fill="#C6DBE3"/>
</g>
<path opacity="0.5" fill-rule="evenodd" clip-rule="evenodd" d="M125 195.162C125 191.848 127.686 189.162 131 189.162H237.67C240.984 189.162 243.67 191.848 243.67 195.162V271.475C243.67 274.789 240.984 277.475 237.67 277.475H131C127.686 277.475 125 274.789 125 271.475V195.162Z" fill="white"/>
<path opacity="0.2" fill-rule="evenodd" clip-rule="evenodd" d="M125 290.162C125 286.848 127.686 284.162 131 284.162H237.67C240.984 284.162 243.67 286.848 243.67 290.162V366.475C243.67 369.789 240.984 372.475 237.67 372.475H131C127.686 372.475 125 369.789 125 366.475V290.162Z" fill="white"/>
<path opacity="0.25" fill-rule="evenodd" clip-rule="evenodd" d="M250 290.162C250 286.848 252.686 284.162 256 284.162H362.67C365.984 284.162 368.67 286.848 368.67 290.162V366.475C368.67 369.789 365.984 372.475 362.67 372.475H256C252.686 372.475 250 369.789 250 366.475V290.162Z" fill="white"/>
<path opacity="0.15" fill-rule="evenodd" clip-rule="evenodd" d="M125 6.16212C125 2.84841 127.686 0.162109 131 0.162109H237.67C240.984 0.162109 243.67 2.8484 243.67 6.16211V82.475C243.67 85.7887 240.984 88.475 237.67 88.475H131C127.686 88.475 125 85.7887 125 82.475V6.16212Z" fill="white"/>
<path opacity="0.4" fill-rule="evenodd" clip-rule="evenodd" d="M0 6.00001C0 2.6863 2.68629 0 6 0H112.67C115.984 0 118.67 2.68629 118.67 6V82.3128C118.67 85.6266 115.984 88.3129 112.67 88.3129H6C2.68629 88.3129 0 85.6266 0 82.3129V6.00001Z" fill="white"/>
<path opacity="0.2" fill-rule="evenodd" clip-rule="evenodd" d="M0 101.162C0 97.8484 2.68629 95.1621 6 95.1621H112.67C115.984 95.1621 118.67 97.8484 118.67 101.162V177.475C118.67 180.789 115.984 183.475 112.67 183.475H6C2.68629 183.475 0 180.789 0 177.475V101.162Z" fill="white"/>
<path opacity="0.1" fill-rule="evenodd" clip-rule="evenodd" d="M0 195.162C0 191.848 2.68629 189.162 6 189.162H112.67C115.984 189.162 118.67 191.848 118.67 195.162V271.475C118.67 274.789 115.984 277.475 112.67 277.475H6C2.68629 277.475 0 274.789 0 271.475V195.162Z" fill="white"/>
<path opacity="0.15" fill-rule="evenodd" clip-rule="evenodd" d="M0 290.162C0 286.848 2.68629 284.162 6 284.162H112.67C115.984 284.162 118.67 286.848 118.67 290.162V366.475C118.67 369.789 115.984 372.475 112.67 372.475H6C2.68629 372.475 0 369.789 0 366.475V290.162Z" fill="white"/>
<path opacity="0.2" fill-rule="evenodd" clip-rule="evenodd" d="M375 290.162C375 286.848 377.686 284.162 381 284.162H487.67C490.984 284.162 493.67 286.848 493.67 290.162V366.475C493.67 369.789 490.984 372.475 487.67 372.475H381C377.686 372.475 375 369.789 375 366.475V290.162Z" fill="white"/>
<path opacity="0.1" fill-rule="evenodd" clip-rule="evenodd" d="M375.33 195.505C375.33 192.191 378.016 189.505 381.33 189.505H488C491.314 189.505 494 192.191 494 195.505V271.818C494 275.131 491.314 277.818 488 277.818H381.33C378.016 277.818 375.33 275.131 375.33 271.818V195.505Z" fill="white"/>
<path opacity="0.2" fill-rule="evenodd" clip-rule="evenodd" d="M375.33 6.00001C375.33 2.6863 378.016 0 381.33 0H488C491.314 0 494 2.68629 494 6V82.3128C494 85.6266 491.314 88.3129 488 88.3129H381.33C378.016 88.3129 375.33 85.6266 375.33 82.3129V6.00001Z" fill="white"/>
<path opacity="0.3" fill-rule="evenodd" clip-rule="evenodd" d="M250.22 6.00001C250.22 2.6863 252.906 0 256.22 0H362.89C366.204 0 368.89 2.68629 368.89 6V82.3128C368.89 85.6266 366.204 88.3129 362.89 88.3129H256.22C252.906 88.3129 250.22 85.6266 250.22 82.3129V6.00001Z" fill="white"/>
<path opacity="0.5" fill-rule="evenodd" clip-rule="evenodd" d="M250 101.162C250 97.8484 252.686 95.1621 256 95.1621H362.67C365.984 95.1621 368.67 97.8484 368.67 101.162V177.475C368.67 180.789 365.984 183.475 362.67 183.475H256C252.686 183.475 250 180.789 250 177.475V101.162Z" fill="white"/>
<g clip-path="url(#clip1)">
<path d="M308.994 105.162L308.535 106.734V152.348L308.994 152.81L329.987 140.294L308.994 105.162Z" fill="white"/>
<path d="M308.994 105.162L288 140.294L308.994 152.81V130.67V105.162Z" fill="#FFEEDF"/>
<path d="M308.994 156.819L308.735 157.137V173.385L308.994 174.147L330 144.31L308.994 156.819Z" fill="white"/>
<path d="M308.994 174.146V156.819L288 144.309L308.994 174.146Z" fill="#FFEEDF"/>
<path d="M308.994 152.81L329.987 140.294L308.994 130.67V152.81Z" fill="#FFF3E8"/>
<path d="M288 140.294L308.994 152.81V130.67L288 140.294Z" fill="#FFE4CB"/>
</g>
<g opacity="0.6" clip-path="url(#clip2)">
<path d="M434.994 294.162L434.535 295.734V341.348L434.994 341.81L455.987 329.294L434.994 294.162Z" fill="white"/>
<path d="M434.994 294.162L414 329.294L434.994 341.81V319.67V294.162Z" fill="#FFEEDF"/>
<path d="M434.994 345.819L434.735 346.137V362.385L434.994 363.147L456 333.31L434.994 345.819Z" fill="white"/>
<path d="M434.994 363.146V345.818L414 333.309L434.994 363.146Z" fill="#FFEEDF"/>
<path d="M434.994 341.81L455.987 329.294L434.994 319.67V341.81Z" fill="#FFF3E8"/>
<path d="M414 329.294L434.994 341.81V319.67L414 329.294Z" fill="#FFE4CB"/>
</g>
<g opacity="0.8" clip-path="url(#clip3)">
<path d="M197.198 241.441C198.979 243.807 200.817 246.227 202.654 248.648C198.979 252.939 194.414 255.689 188.901 256.844C182.777 258.11 176.986 257.175 171.362 254.094C176.373 250.408 181.273 246.777 186.229 243.147C187.342 244.192 188.4 245.237 189.458 246.227C190.627 247.328 190.182 247.383 191.685 246.557C193.745 245.402 195.471 243.807 196.808 241.881C196.863 241.771 196.975 241.661 197.03 241.551C196.975 241.551 197.03 241.551 197.198 241.441V241.441ZM175.316 246.282C173.924 247.328 172.643 248.263 171.362 249.253C170.416 249.968 169.469 250.628 168.523 251.343C168.133 251.673 167.854 251.673 167.409 251.288C163.177 247.548 160.505 242.927 159.503 237.426C158.5 231.869 159.391 226.588 162.064 221.582C162.12 221.472 162.231 221.307 162.287 221.197C162.287 221.142 162.342 221.142 162.454 221.087C166.128 225.873 169.859 230.659 173.534 235.445C173.422 235.61 173.367 235.72 173.255 235.83C172.142 236.985 171.028 238.141 169.859 239.241C169.525 239.571 169.469 239.846 169.692 240.231C170.861 242.432 172.476 244.247 174.48 245.732C174.759 245.897 174.981 246.062 175.316 246.282V246.282ZM196.084 212.12C194.302 213.386 192.52 214.651 190.739 215.861C187.676 218.007 184.614 220.207 181.607 222.353C181.218 222.628 180.939 222.683 180.605 222.297C179.603 221.252 178.545 220.317 177.543 219.272C177.264 218.997 176.986 218.942 176.596 219.107C174.202 220.317 172.309 222.022 170.75 224.168C170.638 224.278 170.527 224.443 170.416 224.608C169.525 223.453 168.69 222.408 167.854 221.307C166.964 220.152 166.128 218.997 165.293 217.897C165.015 217.512 164.959 217.236 165.349 216.851C169.636 212.175 174.926 209.425 181.273 208.765C186.284 208.215 191.073 209.205 195.527 211.57C195.694 211.68 195.861 211.735 196.028 211.845C196.028 212.01 196.028 212.065 196.084 212.12V212.12ZM205.16 245.127C203.99 243.642 202.932 242.267 201.875 240.891C199.425 237.701 196.975 234.455 194.469 231.264C194.135 230.824 194.135 230.549 194.525 230.164C195.583 229.119 196.585 228.074 197.643 227.028C197.921 226.753 198.033 226.478 197.81 226.093C196.585 223.783 194.915 221.857 192.743 220.317C192.576 220.207 192.409 220.042 192.186 219.932C192.353 219.767 192.52 219.657 192.632 219.547C194.748 217.952 196.863 216.411 198.979 214.816C199.313 214.541 199.592 214.431 199.981 214.816C205.271 219.547 208.111 225.433 208.389 232.53C208.5 236.655 207.554 240.561 205.661 244.247C205.494 244.467 205.327 244.742 205.16 245.127V245.127Z" fill="#FFE4CB"/>
</g>
<g opacity="0.4" clip-path="url(#clip4)">
<path d="M444.198 241.441C445.979 243.807 447.817 246.227 449.654 248.648C445.979 252.939 441.414 255.689 435.901 256.844C429.777 258.11 423.986 257.175 418.362 254.094C423.373 250.408 428.273 246.777 433.229 243.147C434.342 244.192 435.4 245.237 436.458 246.227C437.627 247.328 437.182 247.383 438.685 246.557C440.745 245.402 442.471 243.807 443.808 241.881C443.863 241.771 443.975 241.661 444.03 241.551C443.975 241.551 444.03 241.551 444.198 241.441V241.441ZM422.316 246.282C420.924 247.328 419.643 248.263 418.362 249.253C417.416 249.968 416.469 250.628 415.523 251.343C415.133 251.673 414.854 251.673 414.409 251.288C410.177 247.548 407.505 242.927 406.503 237.426C405.5 231.869 406.391 226.588 409.064 221.582C409.12 221.472 409.231 221.307 409.287 221.197C409.287 221.142 409.342 221.142 409.454 221.087C413.128 225.873 416.859 230.659 420.534 235.445C420.422 235.61 420.367 235.72 420.255 235.83C419.142 236.985 418.028 238.141 416.859 239.241C416.525 239.571 416.469 239.846 416.692 240.231C417.861 242.432 419.476 244.247 421.48 245.732C421.759 245.897 421.981 246.062 422.316 246.282V246.282ZM443.084 212.12C441.302 213.386 439.52 214.651 437.739 215.861C434.676 218.007 431.614 220.207 428.607 222.353C428.218 222.628 427.939 222.683 427.605 222.297C426.603 221.252 425.545 220.317 424.543 219.272C424.264 218.997 423.986 218.942 423.596 219.107C421.202 220.317 419.309 222.022 417.75 224.168C417.638 224.278 417.527 224.443 417.416 224.608C416.525 223.453 415.69 222.408 414.854 221.307C413.964 220.152 413.128 218.997 412.293 217.897C412.015 217.512 411.959 217.236 412.349 216.851C416.636 212.175 421.926 209.425 428.273 208.765C433.284 208.215 438.073 209.205 442.527 211.57C442.694 211.68 442.861 211.735 443.028 211.845C443.028 212.01 443.028 212.065 443.084 212.12V212.12ZM452.16 245.127C450.99 243.642 449.932 242.267 448.875 240.891C446.425 237.701 443.975 234.455 441.469 231.264C441.135 230.824 441.135 230.549 441.525 230.164C442.583 229.119 443.585 228.074 444.643 227.028C444.921 226.753 445.033 226.478 444.81 226.093C443.585 223.783 441.915 221.857 439.743 220.317C439.576 220.207 439.409 220.042 439.186 219.932C439.353 219.767 439.52 219.657 439.632 219.547C441.748 217.952 443.863 216.411 445.979 214.816C446.313 214.541 446.592 214.431 446.981 214.816C452.271 219.547 455.111 225.433 455.389 232.53C455.5 236.655 454.554 240.561 452.661 244.247C452.494 244.467 452.327 244.742 452.16 245.127V245.127Z" fill="#FFE4CB"/>
</g>
<g opacity="0.5" clip-path="url(#clip5)">
<path d="M184 70.1621C198.359 70.1621 210 58.5215 210 44.1621C210 29.8027 198.359 18.1621 184 18.1621C169.641 18.1621 158 29.8027 158 44.1621C158 58.5215 169.641 70.1621 184 70.1621Z" fill="#FFE7D0"/>
<path d="M177.883 47.6837C174.563 47.6837 171.871 50.3833 171.871 53.7134C171.871 57.0435 174.563 59.7431 177.883 59.7431C181.204 59.7431 183.896 57.0435 183.896 53.7134C183.896 50.3833 181.204 47.6837 177.883 47.6837H177.883ZM177.883 57.9192C175.569 57.9192 173.692 56.0373 173.692 53.7155C173.692 51.3937 175.568 49.5118 177.883 49.5118C180.198 49.5118 182.075 51.3937 182.075 53.7155C182.071 56.0352 180.197 57.9163 177.883 57.9192ZM190.724 34.8218C187.403 34.8218 184.711 37.5214 184.711 40.8515C184.711 44.1815 187.403 46.8811 190.724 46.8811C194.044 46.8811 196.736 44.1815 196.736 40.8515C196.736 37.5214 194.045 34.8215 190.724 34.8215L190.724 34.8218ZM190.724 45.0572C188.41 45.0572 186.532 43.1753 186.532 40.8535C186.532 38.5317 188.408 36.6499 190.724 36.6499C193.04 36.6499 194.916 38.5317 194.916 40.8535C194.912 43.1743 193.036 45.0531 190.724 45.057L190.724 45.0572ZM177.883 34.8215C175.021 34.8197 172.553 36.8415 171.984 39.6549C171.415 42.4684 172.902 45.2941 175.538 46.4113C176.82 46.9498 178.249 47.0285 179.583 46.634C180.916 46.2396 182.072 45.3962 182.855 44.2468C183.638 43.0974 183.999 41.7127 183.878 40.3274C183.757 38.942 183.16 37.6413 182.189 36.6454H183.894V34.8215H177.883ZM182.075 40.8512C182.075 43.1727 180.199 45.0549 177.883 45.0549C175.568 45.0549 173.692 43.1727 173.692 40.8512C173.692 38.5297 175.568 36.6483 177.883 36.6483C180.198 36.6483 182.073 38.531 182.077 40.852H182.075V40.8512Z" fill="#FFF8F0"/>
</g>
<g opacity="0.5" clip-path="url(#clip6)">
<path d="M434.362 20.298C435.496 19.7322 436.879 21.0447 436.277 22.1288C435.927 23.0124 434.601 23.2474 433.924 22.5738C433.206 21.9274 433.44 20.6497 434.362 20.298ZM422.172 21.556C422.861 21.2847 423.732 21.8886 423.662 22.6069C423.735 23.3868 422.739 23.9608 422.037 23.5902C421.107 23.2454 421.214 21.8005 422.172 21.556V21.556ZM447.139 23.6121C446.063 23.4876 445.893 21.8682 446.929 21.5421C447.732 21.167 448.469 21.8704 448.587 22.5995C448.418 23.222 447.874 23.792 447.139 23.6121ZM424.946 26.5232C426.097 25.8262 427.739 26.8642 427.562 28.1441C427.502 29.4365 425.709 30.1853 424.698 29.3115C423.72 28.6253 423.868 27.0509 424.946 26.5232ZM442.517 27.2627C443.03 25.9957 445.111 25.9574 445.696 27.1908C446.273 28.1506 445.563 29.3392 444.533 29.6655C443.17 29.9092 441.875 28.4981 442.517 27.2627ZM432.894 29.5936C432.883 28.5046 433.919 27.6931 435 27.6189C435.717 27.7566 436.499 28.049 436.807 28.7418C437.38 29.6974 436.871 31.0132 435.835 31.4517C435.361 31.7059 434.801 31.6106 434.285 31.5809C433.497 31.2103 432.833 30.4835 432.894 29.5936V29.5936ZM414.766 31.1804C415.817 30.5616 417.236 31.691 416.838 32.7844C416.619 33.7303 415.29 34.1152 414.531 33.5113C413.721 32.9455 413.849 31.5852 414.766 31.1804V31.1804ZM453.694 31.1784C454.586 30.5153 456.058 31.276 455.952 32.3543C456.012 33.3375 454.739 34.0791 453.854 33.5728C452.878 33.1531 452.779 31.7166 453.694 31.1784V31.1784ZM437.992 33.1362C439.464 32.6299 441.213 33.2357 442.052 34.4923C443.159 36.0283 442.57 38.3677 440.852 39.2491C439.073 40.2916 436.474 39.4079 435.817 37.5052C435.07 35.8018 436.158 33.6701 437.992 33.1362V33.1362ZM429.355 33.3037C430.987 32.5664 433.182 33.185 433.97 34.7828C434.898 36.338 434.181 38.5036 432.523 39.3066C430.863 40.2092 428.521 39.5249 427.717 37.8552C426.816 36.2404 427.616 34.0472 429.355 33.3037V33.3037ZM420.707 36.1344C420.831 35.128 421.822 34.4731 422.823 34.4054C423.901 34.5299 424.762 35.3314 424.879 36.3758C424.809 37.4098 423.974 38.4204 422.829 38.4142C421.57 38.518 420.466 37.3187 420.707 36.1344V36.1344ZM446.251 34.6242C447.544 33.9038 449.339 34.9525 449.282 36.3743C449.37 37.8808 447.384 38.9424 446.096 38.0588C444.759 37.323 444.863 35.2507 446.251 34.6242V34.6242ZM425.84 39.9336C427.352 39.5353 429.081 40.2176 429.822 41.5481C430.635 42.8873 430.303 44.7477 429.041 45.7299C427.423 47.1707 424.439 46.5922 423.578 44.626C422.588 42.8236 423.79 40.4081 425.84 39.9336V39.9336ZM442.223 39.9262C443.692 39.5237 445.419 40.066 446.209 41.348C447.254 42.8141 446.755 45.0008 445.2 45.946C443.571 47.0435 441.047 46.4672 440.151 44.7512C439.064 42.9761 440.157 40.4675 442.223 39.9262V39.9262ZM416.116 41.5989C417.422 41.1259 418.87 42.5057 418.341 43.7453C418.017 44.8746 416.355 45.2921 415.496 44.4594C414.491 43.6776 414.863 41.9379 416.116 41.5989V41.5989ZM451.515 43.3978C451.477 42.3618 452.269 41.4443 453.379 41.387C454.273 41.5227 455.143 42.2135 455.072 43.1457C455.154 44.3768 453.604 45.2137 452.509 44.6352C451.995 44.3853 451.732 43.881 451.515 43.3978V43.3978ZM409.694 42.207C410.48 41.8787 411.452 42.5306 411.273 43.3659C411.231 44.3118 409.772 44.6755 409.236 43.8852C408.763 43.3363 409.046 42.49 409.694 42.207ZM459.236 42.1881C459.789 41.811 460.677 42.082 460.896 42.7008C461.268 43.3766 460.586 44.3026 459.791 44.1884C458.676 44.2857 458.315 42.6583 459.236 42.1881ZM430.108 46.7286C432.175 46.2138 434.398 47.8644 434.411 49.9025C434.546 51.9621 432.357 53.7884 430.24 53.3127C428.605 53.0605 427.321 51.5519 427.374 49.9692C427.37 48.4556 428.563 47.0487 430.108 46.7286ZM438.296 46.7243C440.394 46.1628 442.683 47.843 442.65 49.9282C442.761 51.9496 440.64 53.7144 438.568 53.3134C436.618 53.072 435.179 51.0209 435.723 49.2093C435.998 48.002 437.052 47.0203 438.296 46.7243V46.7243ZM422.509 47.9789C423.961 47.7417 425.322 49.2927 424.733 50.6127C424.304 52.0193 422.166 52.4009 421.22 51.2519C420.111 50.1485 420.939 48.1312 422.509 47.9789ZM446.521 48.0409C447.816 47.5216 449.405 48.594 449.306 49.9394C449.358 51.4204 447.396 52.4417 446.129 51.5772C444.695 50.8011 444.956 48.517 446.521 48.0409V48.0409ZM453.233 54.4858C452.726 53.581 453.647 52.3817 454.696 52.5493C455.218 52.5408 455.584 52.9348 455.918 53.2654C455.987 53.8016 456.102 54.4413 455.637 54.8545C455.006 55.6194 453.576 55.4011 453.233 54.4858ZM414.761 52.8012C415.742 52.1761 417.153 53.1083 416.933 54.2061C416.816 55.1768 415.538 55.7317 414.697 55.1808C413.794 54.6807 413.827 53.2569 414.761 52.8012V52.8012ZM434.137 54.8333C435.42 54.2909 437.056 55.361 436.934 56.7149C437.03 58.2109 435.007 59.2469 433.751 58.3486C432.357 57.5772 432.589 55.3078 434.137 54.8333V54.8333ZM425.163 56.8376C426.256 56.2868 427.724 57.2381 427.624 58.4098C427.657 59.3719 426.677 60.1918 425.685 60.0497C424.864 60.0327 424.328 59.3278 424.065 58.6575C424.078 57.9269 424.392 57.1132 425.163 56.8376V56.8376ZM443.34 56.8545C444.465 56.1892 446.063 57.1448 445.957 58.3978C445.986 59.7074 444.179 60.5462 443.132 59.686C442.119 59.0117 442.242 57.3907 443.34 56.8545ZM446.501 64.3363C446.001 63.6117 446.59 62.7387 447.402 62.5734C448.055 62.7006 448.746 63.1708 448.609 63.8957C448.514 64.8767 447.015 65.1776 446.501 64.3363V64.3363ZM421.409 63.707C421.608 63.1328 422.09 62.562 422.796 62.7113C423.826 62.7813 424.131 64.2666 423.23 64.7243C422.42 65.2473 421.48 64.5312 421.409 63.707V63.707ZM433.514 64.3659C433.711 63.5163 434.86 63.1031 435.617 63.5544C436.118 63.76 436.264 64.2959 436.392 64.7515C436.323 64.9887 436.262 65.2262 436.202 65.4634C435.892 65.8151 435.494 66.1668 434.978 66.1541C434.019 66.2617 433.154 65.2242 433.514 64.3659Z" fill="#FFE4CB"/>
</g>
<g opacity="0.5" clip-path="url(#clip7)">
<path d="M58.3623 210.298C59.4956 209.732 60.8791 211.045 60.2769 212.129C59.9272 213.012 58.6012 213.247 57.9239 212.574C57.2063 211.927 57.4403 210.65 58.3623 210.298ZM46.1722 211.556C46.8606 211.285 47.7322 211.889 47.662 212.607C47.735 213.387 46.739 213.961 46.0372 213.59C45.1075 213.245 45.2138 211.8 46.1722 211.556V211.556ZM71.1389 213.612C70.063 213.488 69.8927 211.868 70.9286 211.542C71.732 211.167 72.4691 211.87 72.5866 212.599C72.4181 213.222 71.8737 213.792 71.1389 213.612ZM48.9458 216.523C50.0969 215.826 51.7393 216.864 51.5622 218.144C51.5024 219.437 49.7095 220.185 48.6978 219.312C47.7197 218.625 47.8679 217.051 48.9458 216.523ZM66.5169 217.263C67.0304 215.996 69.1112 215.957 69.6957 217.191C70.2734 218.151 69.5628 219.339 68.5335 219.666C67.17 219.909 65.875 218.498 66.5169 217.263ZM56.8943 219.594C56.8831 218.505 57.9192 217.693 59.0003 217.619C59.7174 217.757 60.4989 218.049 60.8065 218.742C61.3798 219.697 60.8707 221.013 59.8349 221.452C59.3612 221.706 58.8011 221.611 58.2853 221.581C57.4967 221.21 56.8327 220.483 56.8943 219.594V219.594ZM38.7658 221.18C39.8172 220.562 41.2358 221.691 40.8377 222.784C40.6186 223.73 39.2905 224.115 38.5313 223.511C37.7209 222.945 37.8493 221.585 38.7658 221.18V221.18ZM77.6943 221.178C78.5864 220.515 80.0585 221.276 79.9521 222.354C80.0119 223.338 78.7392 224.079 77.8537 223.573C76.8784 223.153 76.7788 221.717 77.6943 221.178V221.178ZM61.9924 223.136C63.4645 222.63 65.213 223.236 66.052 224.492C67.1588 226.028 66.5699 228.368 64.8524 229.249C63.0727 230.292 60.474 229.408 59.8167 227.505C59.0705 225.802 60.1576 223.67 61.9924 223.136V223.136ZM53.3552 223.304C54.9867 222.566 57.1824 223.185 57.9704 224.783C58.8979 226.338 58.1808 228.504 56.5228 229.307C54.8627 230.209 52.5206 229.525 51.7172 227.855C50.8163 226.24 51.6163 224.047 53.3552 223.304V223.304ZM44.7068 226.134C44.8308 225.128 45.8225 224.473 46.8229 224.405C47.9009 224.53 48.762 225.331 48.8793 226.376C48.8086 227.41 47.974 228.42 46.8294 228.414C45.5703 228.518 44.4663 227.319 44.7068 226.134V226.134ZM70.2513 224.624C71.544 223.904 73.339 224.953 73.2816 226.374C73.3702 227.881 71.3836 228.942 70.0963 228.059C68.7591 227.323 68.8634 225.251 70.2513 224.624V224.624ZM49.8402 229.934C51.3521 229.535 53.0809 230.218 53.8224 231.548C54.6346 232.887 54.3026 234.748 53.0411 235.73C51.4231 237.171 48.4391 236.592 47.578 234.626C46.5884 232.824 47.7904 230.408 49.8402 229.934V229.934ZM66.2226 229.926C67.6924 229.524 69.419 230.066 70.2092 231.348C71.2538 232.814 70.7552 235.001 69.1998 235.946C67.5707 237.043 65.0471 236.467 64.1506 234.751C63.0638 232.976 64.1574 230.468 66.2226 229.926V229.926ZM40.116 231.599C41.422 231.126 42.8696 232.506 42.3405 233.745C42.0174 234.875 40.3549 235.292 39.4961 234.459C38.4912 233.678 38.8633 231.938 40.116 231.599V231.599ZM75.515 233.398C75.4773 232.362 76.269 231.444 77.3787 231.387C78.2731 231.523 79.1428 232.213 79.072 233.146C79.1539 234.377 77.6043 235.214 76.5087 234.635C75.9952 234.385 75.7318 233.881 75.515 233.398V233.398ZM33.6945 232.207C34.4802 231.879 35.4521 232.531 35.2727 233.366C35.2306 234.312 33.772 234.676 33.2361 233.885C32.7627 233.336 33.0461 232.49 33.6945 232.207ZM83.2357 232.188C83.789 231.811 84.6766 232.082 84.8958 232.701C85.2676 233.377 84.5859 234.303 83.7913 234.188C82.6759 234.286 82.315 232.658 83.2357 232.188ZM54.1079 236.729C56.1754 236.214 58.3979 237.864 58.4109 239.903C58.5458 241.962 56.3569 243.788 54.2405 243.313C52.6046 243.061 51.3209 241.552 51.374 239.969C51.3696 238.456 52.5627 237.049 54.1079 236.729ZM62.2958 236.724C64.3943 236.163 66.683 237.843 66.6498 239.928C66.7605 241.95 64.64 243.714 62.5678 243.313C60.6178 243.072 59.1789 241.021 59.7234 239.209C59.9982 238.002 61.0517 237.02 62.2958 236.724V236.724ZM46.5089 237.979C47.961 237.742 49.3223 239.293 48.7334 240.613C48.3039 242.019 46.1657 242.401 45.2203 241.252C44.1114 240.148 44.9392 238.131 46.5089 237.979ZM70.5212 238.041C71.816 237.522 73.4053 238.594 73.3058 239.939C73.3578 241.42 71.3955 242.442 70.1293 241.577C68.6952 240.801 68.9562 238.517 70.5212 238.041V238.041ZM77.2328 244.486C76.7258 243.581 77.6467 242.382 78.6961 242.549C79.2184 242.541 79.5837 242.935 79.9181 243.265C79.9867 243.802 80.1019 244.441 79.637 244.854C79.0057 245.619 77.5757 245.401 77.2328 244.486ZM38.7614 242.801C39.7421 242.176 41.1534 243.108 40.9329 244.206C40.8156 245.177 39.5383 245.732 38.6969 245.181C37.7939 244.681 37.8272 243.257 38.7614 242.801V242.801ZM58.1366 244.833C59.4205 244.291 61.0561 245.361 60.9344 246.715C61.0296 248.211 59.0065 249.247 57.7513 248.349C56.3569 247.577 56.5893 245.308 58.1366 244.833V244.833ZM49.1627 246.838C50.2562 246.287 51.7237 247.238 51.6241 248.41C51.6574 249.372 50.6767 250.192 49.685 250.05C48.8637 250.033 48.3281 249.328 48.0647 248.657C48.0782 247.927 48.3923 247.113 49.1627 246.838V246.838ZM67.3403 246.855C68.4648 246.189 70.063 247.145 69.9567 248.398C69.9856 249.707 68.1793 250.546 67.1323 249.686C66.1186 249.012 66.2423 247.391 67.3403 246.855ZM70.5014 254.336C70.0012 253.612 70.5901 252.739 71.4023 252.573C72.0554 252.701 72.746 253.171 72.6087 253.896C72.5135 254.877 71.0149 255.178 70.5014 254.336V254.336ZM45.4085 253.707C45.6077 253.133 46.0903 252.562 46.7964 252.711C47.8258 252.781 48.1313 254.267 47.2304 254.724C46.4202 255.247 45.4803 254.531 45.4085 253.707V253.707ZM57.5144 254.366C57.7115 253.516 58.8602 253.103 59.6173 253.554C60.1175 253.76 60.2636 254.296 60.3921 254.751C60.3234 254.989 60.2621 255.226 60.2018 255.463C59.8918 255.815 59.4935 256.167 58.9777 256.154C58.0191 256.262 57.1543 255.224 57.5144 254.366Z" fill="#FFE4CB"/>
</g>
<path d="M309 15.6782L336.879 43.5567L309 71.4353L281.122 43.5567L309 15.6782Z" fill="#FFFBF8"/>
<path d="M309 52.6539L281.098 43.5556L309 15.6775L336.902 43.5556L309 52.6539Z" fill="#FFEEDF"/>
<path d="M290.803 41.7358H303.541L309 35.6703L315.066 41.7358H327.803L309 21.4167L290.803 41.7358V41.7358Z" fill="white"/>
<path opacity="0.42" d="M309 71.4337V15.6775L336.878 43.5556L309 71.4337V71.4337Z" fill="#FFEFE1"/>
<g opacity="0.8" clip-path="url(#clip8)">
<path d="M184 353.162C197.807 353.162 209 341.969 209 328.162C209 314.355 197.807 303.162 184 303.162C170.193 303.162 159 314.355 159 328.162C159 341.969 170.193 353.162 184 353.162Z" fill="#FFE4CB"/>
<path d="M179.782 326.632C178.91 326.627 178.04 326.702 177.182 326.855C177.888 320.323 183.332 315.377 189.813 315.378C193.781 315.378 196.5 317.321 196.5 321.344C196.5 325.367 193.237 327.31 188.475 327.31C184.961 327.31 183.297 326.632 179.782 326.632ZM179.525 329.014C174.764 329.014 171.5 330.957 171.5 334.98C171.5 339.003 174.219 340.946 178.187 340.946C184.669 340.946 190.112 336.001 190.818 329.469C189.96 329.622 189.09 329.697 188.218 329.692C184.703 329.692 183.04 329.014 179.525 329.014Z" fill="#FFF8F0"/>
</g>
<g opacity="0.6" clip-path="url(#clip9)">
<path d="M59 353.162C72.8071 353.162 84 341.969 84 328.162C84 314.355 72.8071 303.162 59 303.162C45.1929 303.162 34 314.355 34 328.162C34 341.969 45.1929 353.162 59 353.162Z" fill="#FFE4CB"/>
<path d="M51.0098 321.302L58.9993 346.392L47.144 338.964L51.0098 321.302L58.9993 310.387V318.043L47.144 338.964H70.8665L59.0113 318.043V310.387L67.0008 321.302L70.8665 338.964L59.0113 346.392L67.0008 321.302" stroke="white" stroke-linecap="round" stroke-linejoin="round"/>
</g>
<path opacity="0.1" fill-rule="evenodd" clip-rule="evenodd" d="M375 101.162C375 97.8484 377.686 95.1621 381 95.1621H487.67C490.984 95.1621 493.67 97.8484 493.67 101.162V177.475C493.67 180.789 490.984 183.475 487.67 183.475H381C377.686 183.475 375 180.789 375 177.475V101.162Z" fill="white"/>
<g opacity="0.4" clip-path="url(#clip10)">
<path d="M434 164.162C447.807 164.162 459 152.969 459 139.162C459 125.355 447.807 114.162 434 114.162C420.193 114.162 409 125.355 409 139.162C409 152.969 420.193 164.162 434 164.162Z" fill="#FFE4CB"/>
<path d="M426.01 132.302L433.999 157.392L422.144 149.964L426.01 132.302L433.999 121.387V129.043L422.144 149.964H445.867L434.011 129.043V121.387L442.001 132.302L445.867 149.964L434.011 157.392L442.001 132.302" stroke="white" stroke-linecap="round" stroke-linejoin="round"/>
</g>
<g opacity="0.7">
<path d="M60.9786 55.6121C51.8381 55.6121 44.4282 48.1684 44.4282 38.9861C44.4282 29.8038 51.8381 22.3601 60.9786 22.3601C70.1192 22.3601 77.529 29.8038 77.529 38.9861C77.529 48.1684 70.1192 55.6121 60.9786 55.6121ZM68.0951 35.32C68.2411 35.2466 68.7155 35.0083 69.263 34.4401C70.3578 34.5867 71.4344 34.935 71.4344 34.935C69.4454 33.7252 66.7266 33.0103 63.7157 33.0286C63.7157 33.0286 64.8653 34.6784 68.0586 35.3566C68.0586 35.3566 68.0769 35.3383 68.0951 35.32Z" fill="#FDE4CC"/>
<path d="M72.6023 33.9999C73.7883 35.613 74.4088 37.5194 74.4088 39.4991C74.4088 41.9004 73.4234 44.1184 71.7446 45.9149L72.7665 49.746H75.8685L79.1348 46.0248L80.0107 40.5806L80.1932 37.3361L76.9634 33.6699L72.6023 33.9999Z" fill="#FDE3CB"/>
<path d="M71.5188 45.9628C73.067 44.1326 74.0226 41.6185 74.0226 38.8438C74.0226 37.2015 73.6878 35.6503 73.0934 34.2783" stroke="#FEF4E9"/>
<path d="M36.6547 50.1859L37.2203 52.4406C37.2203 52.4406 43.8989 66.207 58.9348 71.3213C58.9348 71.3213 72.6141 65.4555 78.6905 55.5019L70.3029 48.1512C70.3029 48.1512 66.2885 51.3591 60.3216 51.3591C54.3547 51.3591 46.2528 47.7846 46.2528 40.4156C46.2528 33.0467 54.6466 30.352 54.6466 30.352L51.0701 29.4722H41.9282L36.1255 43.5135L36.6547 50.1859Z" fill="#FDE3CB"/>
<path d="M87.1819 34.711C86.9265 34.4543 80.4158 26.5171 60.1065 19.4964C59.4645 19.0553 59.1166 18.9191 59.0626 19.0879C40.1983 23.9202 30.9434 34.076 30.9434 34.711C30.9434 35.3459 33.644 44.8884 35.3957 48.7745C35.5417 49.1045 37.8774 53.2472 39.6109 55.5019C38.589 53.2472 37.4759 51.2858 37.4759 47.913C37.4759 38.3993 44.8114 30.6638 53.9899 30.3338C54.2088 30.3338 54.446 30.3338 54.665 30.3521L52.4753 28.1524C52.4753 28.1524 61.2888 26.6677 72.6022 33.5417C72.6022 33.5417 72.7665 33.89 72.6022 34.9165C72.6022 34.9165 77.9305 37.2262 78.3867 41.7172C78.8428 46.2082 76.0145 48.7745 73.7336 49.1411C73.7336 49.1411 74.9196 47.2897 73.0949 46.2999C72.7117 46.0799 72.2555 45.9883 71.7993 46.0066C68.3141 46.0066 67.9126 50.0027 67.9126 50.0027C67.8761 50.2043 67.8761 50.406 67.8761 50.6076C67.8761 50.6076 67.2922 56.4551 77.6568 56.3451C77.6568 56.3451 82.912 50.3693 84.2988 44.9984C84.8097 43.0187 85.1747 41.5339 85.4119 40.434C85.9958 38.8759 86.5615 36.5807 87.1089 34.9126L87.1819 34.711Z" fill="#FEF4E8"/>
<path d="M87.3826 33.8079C76.3976 24.2746 62.5113 19.3211 59.6283 18.3677L59.3545 18.2743L58.9896 18.1621L58.3509 18.3677C55.4678 19.3211 41.5815 24.2746 30.5966 33.8079L30.3594 34.0135L30.4141 34.3313C30.4324 34.406 31.6184 41.6401 35.6694 49.8088C38.0598 54.6128 40.9611 58.7813 44.2822 62.2394C48.3513 66.464 53.0957 69.5857 58.3692 71.5297L58.6794 71.6419L58.9896 71.754L59.318 71.6232L59.6283 71.511C64.9018 69.567 69.6278 66.4453 73.7153 62.2207C77.0363 58.7813 79.9376 54.5941 82.3281 49.7901C86.379 41.6401 87.5833 34.3874 87.5833 34.3126L87.6381 33.9948L87.3826 33.8079ZM81.3244 49.2854C78.9888 53.9773 76.1604 58.071 72.9124 61.4357C68.8797 65.6041 64.2084 68.6697 58.9896 70.5577C53.7708 68.6697 49.0995 65.6228 45.0668 61.4543C41.8188 58.0897 38.9904 54.0147 36.6547 49.3228C33.133 42.257 31.8192 35.9202 31.5455 34.4621C42.8041 24.798 57.0371 19.9753 58.9896 19.3397C60.9238 19.9753 75.1751 24.798 86.4337 34.4621C86.16 35.9015 84.828 42.2383 81.3244 49.2854Z" fill="#FFE9D5"/>
<path d="M54.2566 30.095C49.539 32.372 45.9285 36.6146 46.2501 41.2581C46.6712 47.3397 53.4924 51.8123 61.4856 51.2478C63.8929 51.0778 66.237 50.4221 68.1793 49.4899" stroke="#FEF4E9"/>
</g>
<g clip-path="url(#clip11)">
<path d="M307.367 306.234C311.867 305.936 316.452 306.869 320.504 308.933C326.468 311.943 331.222 317.39 333.472 323.82C334.464 326.656 334.996 329.666 334.996 332.676V343.869C334.996 344.329 335.009 344.789 334.9 345.237C334.658 346.369 333.871 347.364 332.843 347.836C332.129 348.185 331.307 348.222 330.533 348.098C328.875 347.787 327.581 346.182 327.569 344.454C327.557 340.984 327.569 337.514 327.569 334.031C327.593 333.049 327.605 331.992 327.085 331.121C326.238 329.517 324.206 328.758 322.561 329.442C321.17 329.952 320.166 331.395 320.154 332.912C320.141 336.444 320.154 339.964 320.154 343.483C320.154 344.143 320.19 344.814 319.996 345.448C319.645 346.692 318.641 347.7 317.432 348.035C315.847 348.483 314.02 347.762 313.222 346.257C312.678 345.349 312.714 344.255 312.726 343.235C312.714 339.74 312.738 336.233 312.714 332.738C312.678 330.959 311.262 329.355 309.545 329.131C308.432 328.957 307.258 329.342 306.448 330.151C305.722 330.86 305.299 331.88 305.299 332.912V343.11C305.286 343.968 305.383 344.851 305.069 345.66C304.573 347.115 303.145 348.185 301.633 348.147C300.085 348.234 298.585 347.14 298.089 345.647C297.811 344.914 297.871 344.118 297.871 343.347C297.871 339.827 297.883 336.307 297.871 332.788C297.859 331.046 296.54 329.454 294.883 329.143C293.371 328.808 291.702 329.591 290.952 330.984C290.625 331.569 290.456 332.24 290.456 332.899V344.329C290.468 345.436 289.972 346.543 289.137 347.252C287.879 348.384 285.847 348.446 284.528 347.401C283.572 346.729 283.004 345.573 283.004 344.379V332.8C283.016 328.422 284.093 324.057 286.125 320.201C287.782 317.055 290.069 314.256 292.802 312.018C296.915 308.61 302.081 306.558 307.367 306.234Z" fill="#FFE7D0" fill-opacity="0.7"/>
</g>
<path d="M57.3632 118.217C61.8632 117.918 66.448 118.851 70.5004 120.915C76.4642 123.925 81.2183 129.373 83.4683 135.803C84.4603 138.638 84.9925 141.648 84.9925 144.658V155.851C84.9925 156.311 85.0046 156.771 84.8958 157.219C84.6538 158.351 83.8675 159.346 82.8393 159.819C82.1256 160.167 81.303 160.204 80.5288 160.08C78.8715 159.769 77.5771 158.164 77.565 156.436C77.5529 152.966 77.565 149.496 77.565 146.013C77.5892 145.031 77.6013 143.974 77.0812 143.103C76.2344 141.499 74.2021 140.74 72.5569 141.424C71.1658 141.934 70.1617 143.377 70.1496 144.894C70.1375 148.426 70.1496 151.946 70.1496 155.466C70.1496 156.125 70.1859 156.796 69.9924 157.431C69.6416 158.674 68.6375 159.682 67.4278 160.018C65.8431 160.465 64.0165 159.744 63.2181 158.239C62.6737 157.331 62.71 156.237 62.7221 155.217C62.71 151.722 62.7342 148.215 62.71 144.72C62.6737 142.941 61.2584 141.337 59.5406 141.113C58.4277 140.939 57.2543 141.325 56.4438 142.133C55.718 142.842 55.2946 143.862 55.2946 144.894V155.092C55.2825 155.951 55.3793 156.834 55.0648 157.642C54.5688 159.097 53.1414 160.167 51.6292 160.13C50.0808 160.217 48.5808 159.122 48.0849 157.63C47.8066 156.896 47.8671 156.1 47.8671 155.329C47.8671 151.809 47.8792 148.289 47.8671 144.77C47.855 143.029 46.5364 141.437 44.8792 141.126C43.3671 140.79 41.6977 141.573 40.9477 142.966C40.6211 143.551 40.4517 144.222 40.4517 144.882V156.311C40.4638 157.418 39.9678 158.525 39.1331 159.234C37.8751 160.366 35.8428 160.428 34.5242 159.383C33.5686 158.712 33 157.555 33 156.361V144.782C33.0121 140.404 34.0887 136.039 36.121 132.183C37.7783 129.037 40.0646 126.238 42.7985 124C46.9115 120.592 52.0768 118.54 57.3632 118.217Z" fill="#FFE7D0" fill-opacity="0.7"/>
<defs>
<filter id="filter0_d" x="121" y="92.7524" width="126.67" height="96.3129" filterUnits="userSpaceOnUse" color-interpolation-filters="sRGB">
<feFlood flood-opacity="0" result="BackgroundImageFix"/>
<feColorMatrix in="SourceAlpha" type="matrix" values="0 0 0 0 0 0 0 0 0 0 0 0 0 0 0 0 0 0 127 0"/>
<feOffset dy="2"/>
<feGaussianBlur stdDeviation="2"/>
<feColorMatrix type="matrix" values="0 0 0 0 0 0 0 0 0 0 0 0 0 0 0 0 0 0 0.1 0"/>
<feBlend mode="normal" in2="BackgroundImageFix" result="effect1_dropShadow"/>
<feBlend mode="normal" in="SourceGraphic" in2="effect1_dropShadow" result="shape"/>
</filter>
<filter id="filter1_d" x="245.3" y="187.505" width="126.67" height="96.3129" filterUnits="userSpaceOnUse" color-interpolation-filters="sRGB">
<feFlood flood-opacity="0" result="BackgroundImageFix"/>
<feColorMatrix in="SourceAlpha" type="matrix" values="0 0 0 0 0 0 0 0 0 0 0 0 0 0 0 0 0 0 127 0"/>
<feOffset dy="2"/>
<feGaussianBlur stdDeviation="2"/>
<feColorMatrix type="matrix" values="0 0 0 0 0 0 0 0 0 0 0 0 0 0 0 0 0 0 0.1 0"/>
<feBlend mode="normal" in2="BackgroundImageFix" result="effect1_dropShadow"/>
<feBlend mode="normal" in="SourceGraphic" in2="effect1_dropShadow" result="shape"/>
</filter>
<clipPath id="clip0">
<rect width="42.3166" height="42.3166" fill="white" transform="translate(284.337 213.422)"/>
</clipPath>
<clipPath id="clip1">
<rect width="42" height="69" fill="white" transform="translate(288 105.162)"/>
</clipPath>
<clipPath id="clip2">
<rect width="42" height="69" fill="white" transform="translate(414 294.162)"/>
</clipPath>
<clipPath id="clip3">
<rect width="50" height="50" fill="white" transform="matrix(-1 0 0 1 209 208.162)"/>
</clipPath>
<clipPath id="clip4">
<rect width="50" height="50" fill="white" transform="matrix(-1 0 0 1 456 208.162)"/>
</clipPath>
<clipPath id="clip5">
<rect width="52" height="52" fill="white" transform="translate(158 18.1621)"/>
</clipPath>
<clipPath id="clip6">
<rect width="52" height="46" fill="white" transform="matrix(-1 0 0 1 461 20.1621)"/>
</clipPath>
<clipPath id="clip7">
<rect width="52" height="46" fill="white" transform="matrix(-1 0 0 1 85 210.162)"/>
</clipPath>
<clipPath id="clip8">
<rect width="50" height="50" fill="white" transform="translate(159 303.162)"/>
</clipPath>
<clipPath id="clip9">
<rect width="50" height="50" fill="white" transform="translate(34 303.162)"/>
</clipPath>
<clipPath id="clip10">
<rect width="50" height="50" fill="white" transform="translate(409 114.162)"/>
</clipPath>
<clipPath id="clip11">
<rect width="52" height="42" fill="white" transform="matrix(1 0 0 -1 283 348.162)"/>
</clipPath>
</defs>
</svg>
