<svg width="918" height="499" viewBox="0 0 918 499" fill="none" xmlns="http://www.w3.org/2000/svg">
<rect x="667" y="4" width="251" height="483" rx="12" fill="url(#paint0_linear)"/>
<rect y="4" width="259" height="483" rx="12" fill="url(#paint1_linear)"/>
<g filter="url(#filter0_d)">
<rect x="290" y="4" width="346" height="483" rx="12" fill="url(#paint2_linear)"/>
</g>
<g opacity="0.2" filter="url(#filter1_d)">
<rect x="299" y="13" width="92" height="24" rx="6" fill="white"/>
</g>
<path d="M321.14 22.0639V20.4919H314.096V22.0639H316.784V28.9999H318.452V22.0639H321.14Z" fill="white"/>
<path d="M327.634 28.9999V27.4399H323.962V25.4719H327.286V23.9959H323.962V22.0519H327.634V20.4919H322.306V28.9999H327.634Z" fill="white"/>
<path d="M338.782 28.9999V20.4919H336.526L334.03 26.6359L331.474 20.4919H329.29V28.9999H330.874V23.0839L333.322 28.9999H334.702L337.15 23.0359V28.9999H338.782Z" fill="white"/>
<path d="M342.396 24.3679V21.9319H343.704C344.532 21.9319 345.036 22.3999 345.036 23.1559C345.036 23.8879 344.532 24.3679 343.704 24.3679H342.396ZM343.908 25.7959C345.588 25.7959 346.704 24.6919 346.704 23.1439C346.704 21.6079 345.588 20.4919 343.908 20.4919H340.728V28.9999H342.384V25.7959H343.908Z" fill="white"/>
<path d="M353.418 28.9999V27.4159H349.626V20.4919H347.97V28.9999H353.418Z" fill="white"/>
<path d="M360.551 28.9999H362.351L359.111 20.4919H357.191L353.927 28.9999H355.679L356.387 27.0559H359.843L360.551 28.9999ZM358.115 22.3279L359.291 25.5439H356.939L358.115 22.3279Z" fill="white"/>
<path d="M368.918 22.0639V20.4919H361.874V22.0639H364.562V28.9999H366.23V22.0639H368.918Z" fill="white"/>
<path d="M375.411 28.9999V27.4399H371.739V25.4719H375.063V23.9959H371.739V22.0519H375.411V20.4919H370.083V28.9999H375.411Z" fill="white"/>
<path d="M331.136 317H333.92V306.728H340.992V304.104H333.92V297.224H344.608V294.6H331.136V317Z" fill="white"/>
<path d="M357.42 317H360.204V300.648H357.42V310.568C357.42 313.768 355.788 314.792 353.644 314.792C351.628 314.792 350.124 313.608 350.124 310.504V300.648H347.34V310.088C347.34 315.336 349.452 317.384 353.292 317.384C355.02 317.384 356.332 316.84 357.42 315.432V317Z" fill="white"/>
<path d="M375.611 317H378.395V307.592C378.395 302.312 376.251 300.264 372.539 300.264C370.779 300.264 369.339 300.904 368.315 302.312V300.648H365.531V317H368.315V307.048C368.315 303.88 369.947 302.824 372.091 302.824C374.107 302.824 375.611 304.008 375.611 307.112V317Z" fill="white"/>
<path d="M389.354 317.384C391.306 317.384 392.554 316.68 393.482 315.72V317H396.266V293.896L393.482 295.208V301.8C392.554 300.968 391.274 300.264 389.354 300.264C385.29 300.264 382.602 303.432 382.602 308.808C382.602 314.088 385.194 317.384 389.354 317.384ZM389.738 314.792C387.05 314.792 385.418 312.2 385.418 308.808C385.418 304.968 386.986 302.824 389.738 302.824C391.626 302.824 392.874 303.944 393.482 304.904V312.584C392.65 313.992 391.274 314.792 389.738 314.792Z" fill="white"/>
<path d="M401.531 317H404.315V307.784C404.315 304.072 406.395 303.016 407.963 303.016C409.083 303.016 409.787 303.368 410.299 303.72L410.715 301.096C410.139 300.616 409.243 300.264 408.187 300.264C406.363 300.264 405.051 301.16 404.315 302.792V300.648H401.531V317Z" fill="white"/>
<path d="M422.719 317H425.343V306.152C425.343 301.128 422.079 300.264 419.519 300.264C417.055 300.264 414.911 301.128 413.599 301.992L414.399 304.328C415.615 303.464 417.343 302.696 419.167 302.696C421.279 302.696 422.719 303.496 422.719 306.376V307.528C421.375 306.76 419.935 306.472 418.495 306.472C415.327 306.472 412.383 308.104 412.383 311.88C412.383 315.528 414.751 317.384 418.079 317.384C420.031 317.384 421.631 316.52 422.719 315.496V317ZM418.495 314.92C416.255 314.92 415.007 313.704 415.007 311.88C415.007 309.8 416.767 308.872 418.879 308.872C420.223 308.872 421.727 309.352 422.719 309.96V312.776C421.791 313.864 420.319 314.92 418.495 314.92Z" fill="white"/>
<path d="M431.595 297.672C432.587 297.672 433.355 296.904 433.355 295.944C433.355 294.952 432.587 294.152 431.595 294.152C430.635 294.152 429.867 294.952 429.867 295.944C429.867 296.904 430.635 297.672 431.595 297.672ZM430.219 317H433.003V300.648H430.219V317Z" fill="white"/>
<path d="M443.144 317.384C446.696 317.384 448.968 315.688 448.968 312.744C448.968 309.64 446.632 308.36 443.656 307.304C441.832 306.568 440.2 305.96 440.2 304.584C440.2 303.432 441.256 302.76 442.92 302.76C444.68 302.76 445.832 303.592 446.536 304.328L448.456 302.728C447.272 301.32 445.448 300.264 442.952 300.264C439.816 300.264 437.448 301.896 437.448 304.584C437.448 307.272 439.496 308.584 442.504 309.704C444.424 310.44 446.248 311.176 446.248 312.808C446.248 314.248 444.936 314.888 443.208 314.888C441.448 314.888 440.04 313.832 439.208 312.936L437.224 314.632C438.504 316.264 440.744 317.384 443.144 317.384Z" fill="white"/>
<path d="M454.72 297.672C455.712 297.672 456.48 296.904 456.48 295.944C456.48 294.952 455.712 294.152 454.72 294.152C453.76 294.152 452.992 294.952 452.992 295.944C452.992 296.904 453.76 297.672 454.72 297.672ZM453.344 317H456.128V300.648H453.344V317Z" fill="white"/>
<path d="M471.517 317H474.301V307.592C474.301 302.312 472.157 300.264 468.445 300.264C466.685 300.264 465.245 300.904 464.221 302.312V300.648H461.437V317H464.221V307.048C464.221 303.88 465.853 302.824 467.997 302.824C470.013 302.824 471.517 304.008 471.517 307.112V317Z" fill="white"/>
<path d="M484.492 323.624C489.036 323.368 492.204 321.64 492.204 316.328V300.648H489.42V301.992C488.78 301.288 487.5 300.264 485.292 300.264C481.292 300.264 478.508 303.432 478.508 308.808C478.508 314.504 481.58 317.384 485.196 317.384C487.18 317.384 488.492 316.68 489.42 315.4V317.384C489.42 319.528 488.204 321.16 483.148 321.448L484.492 323.624ZM485.772 314.792C483.148 314.792 481.324 312.552 481.324 308.808C481.324 304.968 482.86 302.824 485.772 302.824C487.02 302.824 488.62 303.656 489.42 305V312.488C488.588 313.928 487.116 314.792 485.772 314.792Z" fill="white"/>
<path d="M329.7 356H331.179V344.1H329.7V356Z" fill="white"/>
<path d="M339.647 356H341.126V351.002C341.126 348.197 339.987 347.109 338.015 347.109C337.08 347.109 336.315 347.449 335.771 348.197V347.313H334.292V356H335.771V350.713C335.771 349.03 336.638 348.469 337.777 348.469C338.848 348.469 339.647 349.098 339.647 350.747V356Z" fill="white"/>
<path d="M344.619 345.732C345.146 345.732 345.554 345.324 345.554 344.814C345.554 344.287 345.146 343.862 344.619 343.862C344.109 343.862 343.701 344.287 343.701 344.814C343.701 345.324 344.109 345.732 344.619 345.732ZM343.888 356H345.367V347.313H343.888V356Z" fill="white"/>
<path d="M350.533 356.204C351.213 356.204 351.74 356.051 352.199 355.813L352.369 354.368C351.995 354.606 351.57 354.827 351.077 354.827C350.312 354.827 350.176 354.3 350.176 353.637V348.605H352.318V347.313H350.176V343.726L348.697 344.44V347.313H347.286V348.605H348.697V354.13C348.697 355.354 349.224 356.204 350.533 356.204Z" fill="white"/>
<path d="M355.294 345.732C355.821 345.732 356.229 345.324 356.229 344.814C356.229 344.287 355.821 343.862 355.294 343.862C354.784 343.862 354.376 344.287 354.376 344.814C354.376 345.324 354.784 345.732 355.294 345.732ZM354.563 356H356.042V347.313H354.563V356Z" fill="white"/>
<path d="M363.843 356H365.237V350.237C365.237 347.568 363.503 347.109 362.143 347.109C360.834 347.109 359.695 347.568 358.998 348.027L359.423 349.268C360.069 348.809 360.987 348.401 361.956 348.401C363.078 348.401 363.843 348.826 363.843 350.356V350.968C363.129 350.56 362.364 350.407 361.599 350.407C359.916 350.407 358.352 351.274 358.352 353.28C358.352 355.218 359.61 356.204 361.378 356.204C362.415 356.204 363.265 355.745 363.843 355.201V356ZM361.599 354.895C360.409 354.895 359.746 354.249 359.746 353.28C359.746 352.175 360.681 351.682 361.803 351.682C362.517 351.682 363.316 351.937 363.843 352.26V353.756C363.35 354.334 362.568 354.895 361.599 354.895Z" fill="white"/>
<path d="M367.895 356H369.374V343.726L367.895 344.423V356Z" fill="white"/>
<path d="M373.008 345.732C373.535 345.732 373.943 345.324 373.943 344.814C373.943 344.287 373.535 343.862 373.008 343.862C372.498 343.862 372.09 344.287 372.09 344.814C372.09 345.324 372.498 345.732 373.008 345.732ZM372.277 356H373.756V347.313H372.277V356Z" fill="white"/>
<path d="M376.236 356H382.594V354.674H378.072L382.611 348.367V347.313H376.576V348.622H380.758L376.236 354.912V356Z" fill="white"/>
<path d="M388.508 356.204C389.681 356.204 390.667 355.728 391.313 355.082L390.412 354.079C389.868 354.623 389.205 354.861 388.542 354.861C387.233 354.861 386.281 353.824 386.162 352.226H392.044C392.078 351.886 392.095 351.512 392.095 351.24C392.095 348.384 390.463 347.109 388.508 347.109C386.196 347.109 384.649 348.775 384.649 351.648C384.649 354.3 386.128 356.204 388.508 356.204ZM386.145 350.968C386.23 349.183 387.25 348.418 388.508 348.418C389.426 348.418 390.582 348.996 390.599 350.968H386.145Z" fill="white"/>
<path d="M403.288 356H404.682V350.237C404.682 347.568 402.948 347.109 401.588 347.109C400.279 347.109 399.14 347.568 398.443 348.027L398.868 349.268C399.514 348.809 400.432 348.401 401.401 348.401C402.523 348.401 403.288 348.826 403.288 350.356V350.968C402.574 350.56 401.809 350.407 401.044 350.407C399.361 350.407 397.797 351.274 397.797 353.28C397.797 355.218 399.055 356.204 400.823 356.204C401.86 356.204 402.71 355.745 403.288 355.201V356ZM401.044 354.895C399.854 354.895 399.191 354.249 399.191 353.28C399.191 352.175 400.126 351.682 401.248 351.682C401.962 351.682 402.761 351.937 403.288 352.26V353.756C402.795 354.334 402.013 354.895 401.044 354.895Z" fill="white"/>
<path d="M413.603 356.204C414.283 356.204 414.81 356.051 415.269 355.813L415.439 354.368C415.065 354.606 414.64 354.827 414.147 354.827C413.382 354.827 413.246 354.3 413.246 353.637V348.605H415.388V347.313H413.246V343.726L411.767 344.44V347.313H410.356V348.605H411.767V354.13C411.767 355.354 412.294 356.204 413.603 356.204Z" fill="white"/>
<path d="M417.615 356H419.094V351.104C419.094 349.132 420.199 348.571 421.032 348.571C421.627 348.571 422.001 348.758 422.273 348.945L422.494 347.551C422.188 347.296 421.712 347.109 421.151 347.109C420.182 347.109 419.485 347.585 419.094 348.452V347.313H417.615V356Z" fill="white"/>
<path d="M428.871 356H430.265V350.237C430.265 347.568 428.531 347.109 427.171 347.109C425.862 347.109 424.723 347.568 424.026 348.027L424.451 349.268C425.097 348.809 426.015 348.401 426.984 348.401C428.106 348.401 428.871 348.826 428.871 350.356V350.968C428.157 350.56 427.392 350.407 426.627 350.407C424.944 350.407 423.38 351.274 423.38 353.28C423.38 355.218 424.638 356.204 426.406 356.204C427.443 356.204 428.293 355.745 428.871 355.201V356ZM426.627 354.895C425.437 354.895 424.774 354.249 424.774 353.28C424.774 352.175 425.709 351.682 426.831 351.682C427.545 351.682 428.344 351.937 428.871 352.26V353.756C428.378 354.334 427.596 354.895 426.627 354.895Z" fill="white"/>
<path d="M438.194 356H439.673V351.002C439.673 348.197 438.534 347.109 436.562 347.109C435.627 347.109 434.862 347.449 434.318 348.197V347.313H432.839V356H434.318V350.713C434.318 349.03 435.185 348.469 436.324 348.469C437.395 348.469 438.194 349.098 438.194 350.747V356Z" fill="white"/>
<path d="M444.985 356.204C446.872 356.204 448.079 355.303 448.079 353.739C448.079 352.09 446.838 351.41 445.257 350.849C444.288 350.458 443.421 350.135 443.421 349.404C443.421 348.792 443.982 348.435 444.866 348.435C445.801 348.435 446.413 348.877 446.787 349.268L447.807 348.418C447.178 347.67 446.209 347.109 444.883 347.109C443.217 347.109 441.959 347.976 441.959 349.404C441.959 350.832 443.047 351.529 444.645 352.124C445.665 352.515 446.634 352.906 446.634 353.773C446.634 354.538 445.937 354.878 445.019 354.878C444.084 354.878 443.336 354.317 442.894 353.841L441.84 354.742C442.52 355.609 443.71 356.204 444.985 356.204Z" fill="white"/>
<path d="M454.093 356.204C456.201 356.204 457.68 354.538 457.68 351.648C457.68 348.86 456.303 347.109 454.093 347.109C453.005 347.109 452.376 347.534 451.866 348.044V347.313H450.387V359.434L451.866 358.737V355.184C452.325 355.728 452.971 356.204 454.093 356.204ZM453.906 354.827C453.022 354.827 452.359 354.3 451.866 353.654V349.642C452.291 348.894 453.022 348.469 453.906 348.469C455.334 348.469 456.167 349.761 456.167 351.648C456.167 353.705 455.351 354.827 453.906 354.827Z" fill="white"/>
<path d="M464.963 356H466.357V350.237C466.357 347.568 464.623 347.109 463.263 347.109C461.954 347.109 460.815 347.568 460.118 348.027L460.543 349.268C461.189 348.809 462.107 348.401 463.076 348.401C464.198 348.401 464.963 348.826 464.963 350.356V350.968C464.249 350.56 463.484 350.407 462.719 350.407C461.036 350.407 459.472 351.274 459.472 353.28C459.472 355.218 460.73 356.204 462.498 356.204C463.535 356.204 464.385 355.745 464.963 355.201V356ZM462.719 354.895C461.529 354.895 460.866 354.249 460.866 353.28C460.866 352.175 461.801 351.682 462.923 351.682C463.637 351.682 464.436 351.937 464.963 352.26V353.756C464.47 354.334 463.688 354.895 462.719 354.895Z" fill="white"/>
<path d="M468.931 356H470.41V351.104C470.41 349.132 471.515 348.571 472.348 348.571C472.943 348.571 473.317 348.758 473.589 348.945L473.81 347.551C473.504 347.296 473.028 347.109 472.467 347.109C471.498 347.109 470.801 347.585 470.41 348.452V347.313H468.931V356Z" fill="white"/>
<path d="M478.887 356.204C480.06 356.204 481.046 355.728 481.692 355.082L480.791 354.079C480.247 354.623 479.584 354.861 478.921 354.861C477.612 354.861 476.66 353.824 476.541 352.226H482.423C482.457 351.886 482.474 351.512 482.474 351.24C482.474 348.384 480.842 347.109 478.887 347.109C476.575 347.109 475.028 348.775 475.028 351.648C475.028 354.3 476.507 356.204 478.887 356.204ZM476.524 350.968C476.609 349.183 477.629 348.418 478.887 348.418C479.805 348.418 480.961 348.996 480.978 350.968H476.524Z" fill="white"/>
<path d="M490.04 356H491.519V351.002C491.519 348.197 490.38 347.109 488.408 347.109C487.473 347.109 486.708 347.449 486.164 348.197V347.313H484.685V356H486.164V350.713C486.164 349.03 487.031 348.469 488.17 348.469C489.241 348.469 490.04 349.098 490.04 350.747V356Z" fill="white"/>
<path d="M496.611 356.204C497.291 356.204 497.818 356.051 498.277 355.813L498.447 354.368C498.073 354.606 497.648 354.827 497.155 354.827C496.39 354.827 496.254 354.3 496.254 353.637V348.605H498.396V347.313H496.254V343.726L494.775 344.44V347.313H493.364V348.605H494.775V354.13C494.775 355.354 495.302 356.204 496.611 356.204Z" fill="white"/>
<path d="M509.605 356H510.999V350.237C510.999 347.568 509.265 347.109 507.905 347.109C506.596 347.109 505.457 347.568 504.76 348.027L505.185 349.268C505.831 348.809 506.749 348.401 507.718 348.401C508.84 348.401 509.605 348.826 509.605 350.356V350.968C508.891 350.56 508.126 350.407 507.361 350.407C505.678 350.407 504.114 351.274 504.114 353.28C504.114 355.218 505.372 356.204 507.14 356.204C508.177 356.204 509.027 355.745 509.605 355.201V356ZM507.361 354.895C506.171 354.895 505.508 354.249 505.508 353.28C505.508 352.175 506.443 351.682 507.565 351.682C508.279 351.682 509.078 351.937 509.605 352.26V353.756C509.112 354.334 508.33 354.895 507.361 354.895Z" fill="white"/>
<path d="M518.927 356H520.406V351.002C520.406 348.197 519.267 347.109 517.295 347.109C516.36 347.109 515.595 347.449 515.051 348.197V347.313H513.572V356H515.051V350.713C515.051 349.03 515.918 348.469 517.057 348.469C518.128 348.469 518.927 349.098 518.927 350.747V356Z" fill="white"/>
<path d="M526.228 356.204C527.265 356.204 527.928 355.83 528.421 355.32V356H529.9V343.726L528.421 344.423V347.925C527.928 347.483 527.248 347.109 526.228 347.109C524.069 347.109 522.641 348.792 522.641 351.648C522.641 354.453 524.018 356.204 526.228 356.204ZM526.432 354.827C525.004 354.827 524.137 353.45 524.137 351.648C524.137 349.608 524.97 348.469 526.432 348.469C527.435 348.469 528.098 349.064 528.421 349.574V353.654C527.979 354.402 527.248 354.827 526.432 354.827Z" fill="white"/>
<path d="M334.392 382H335.786V376.237C335.786 373.568 334.052 373.109 332.692 373.109C331.383 373.109 330.244 373.568 329.547 374.027L329.972 375.268C330.618 374.809 331.536 374.401 332.505 374.401C333.627 374.401 334.392 374.826 334.392 376.356V376.968C333.678 376.56 332.913 376.407 332.148 376.407C330.465 376.407 328.901 377.274 328.901 379.28C328.901 381.218 330.159 382.204 331.927 382.204C332.964 382.204 333.814 381.745 334.392 381.201V382ZM332.148 380.895C330.958 380.895 330.295 380.249 330.295 379.28C330.295 378.175 331.23 377.682 332.352 377.682C333.066 377.682 333.865 377.937 334.392 378.26V379.756C333.899 380.334 333.117 380.895 332.148 380.895Z" fill="white"/>
<path d="M341.453 382.204C343.051 382.204 344.207 381.405 344.632 379.977L343.255 379.518C343 380.334 342.354 380.81 341.487 380.81C340.093 380.81 339.362 379.637 339.362 377.665C339.362 375.71 340.059 374.486 341.538 374.486C342.388 374.486 342.915 374.979 343.17 375.642L344.564 375.132C344.071 373.772 342.966 373.109 341.521 373.109C339.243 373.109 337.849 374.809 337.849 377.665C337.849 380.538 339.243 382.204 341.453 382.204Z" fill="white"/>
<path d="M349.953 382.204C351.551 382.204 352.707 381.405 353.132 379.977L351.755 379.518C351.5 380.334 350.854 380.81 349.987 380.81C348.593 380.81 347.862 379.637 347.862 377.665C347.862 375.71 348.559 374.486 350.038 374.486C350.888 374.486 351.415 374.979 351.67 375.642L353.064 375.132C352.571 373.772 351.466 373.109 350.021 373.109C347.743 373.109 346.349 374.809 346.349 377.665C346.349 380.538 347.743 382.204 349.953 382.204Z" fill="white"/>
<path d="M358.691 382.204C361.02 382.204 362.533 380.504 362.533 377.648C362.533 374.775 361.02 373.109 358.691 373.109C356.362 373.109 354.849 374.809 354.849 377.665C354.849 380.538 356.362 382.204 358.691 382.204ZM358.691 380.827C357.212 380.827 356.345 379.637 356.345 377.665C356.345 375.642 357.212 374.469 358.691 374.469C360.17 374.469 361.037 375.676 361.037 377.648C361.037 379.637 360.153 380.827 358.691 380.827Z" fill="white"/>
<path d="M370.109 382H371.588V373.313H370.109V378.583C370.109 380.283 369.242 380.827 368.103 380.827C367.032 380.827 366.233 380.198 366.233 378.549V373.313H364.754V378.328C364.754 381.116 365.876 382.204 367.916 382.204C368.834 382.204 369.531 381.915 370.109 381.167V382Z" fill="white"/>
<path d="M379.773 382H381.252V377.002C381.252 374.197 380.113 373.109 378.141 373.109C377.206 373.109 376.441 373.449 375.897 374.197V373.313H374.418V382H375.897V376.713C375.897 375.03 376.764 374.469 377.903 374.469C378.974 374.469 379.773 375.098 379.773 376.747V382Z" fill="white"/>
<path d="M386.343 382.204C387.023 382.204 387.55 382.051 388.009 381.813L388.179 380.368C387.805 380.606 387.38 380.827 386.887 380.827C386.122 380.827 385.986 380.3 385.986 379.637V374.605H388.128V373.313H385.986V369.726L384.507 370.44V373.313H383.096V374.605H384.507V380.13C384.507 381.354 385.034 382.204 386.343 382.204Z" fill="white"/>
<path d="M395.17 382H396.564V376.237C396.564 373.568 394.83 373.109 393.47 373.109C392.161 373.109 391.022 373.568 390.325 374.027L390.75 375.268C391.396 374.809 392.314 374.401 393.283 374.401C394.405 374.401 395.17 374.826 395.17 376.356V376.968C394.456 376.56 393.691 376.407 392.926 376.407C391.243 376.407 389.679 377.274 389.679 379.28C389.679 381.218 390.937 382.204 392.705 382.204C393.742 382.204 394.592 381.745 395.17 381.201V382ZM392.926 380.895C391.736 380.895 391.073 380.249 391.073 379.28C391.073 378.175 392.008 377.682 393.13 377.682C393.844 377.682 394.643 377.937 395.17 378.26V379.756C394.677 380.334 393.895 380.895 392.926 380.895Z" fill="white"/>
<path d="M402.844 382.204C405.054 382.204 406.397 380.589 406.397 377.648C406.397 374.792 404.952 373.109 402.793 373.109C401.892 373.109 401.11 373.517 400.617 374.061V369.726L399.138 370.423V382H400.617V381.252C401.127 381.745 401.739 382.204 402.844 382.204ZM402.64 380.827C401.824 380.827 401.042 380.385 400.617 379.654V375.625C400.906 375.132 401.654 374.469 402.64 374.469C404.119 374.469 404.884 375.608 404.884 377.648C404.884 379.603 404.136 380.827 402.64 380.827Z" fill="white"/>
<path d="M408.768 382H410.247V369.726L408.768 370.423V382Z" fill="white"/>
<path d="M416.482 382.204C417.655 382.204 418.641 381.728 419.287 381.082L418.386 380.079C417.842 380.623 417.179 380.861 416.516 380.861C415.207 380.861 414.255 379.824 414.136 378.226H420.018C420.052 377.886 420.069 377.512 420.069 377.24C420.069 374.384 418.437 373.109 416.482 373.109C414.17 373.109 412.623 374.775 412.623 377.648C412.623 380.3 414.102 382.204 416.482 382.204ZM414.119 376.968C414.204 375.183 415.224 374.418 416.482 374.418C417.4 374.418 418.556 374.996 418.573 376.968H414.119Z" fill="white"/>
<path d="M429.375 382.204C430.973 382.204 432.129 381.405 432.554 379.977L431.177 379.518C430.922 380.334 430.276 380.81 429.409 380.81C428.015 380.81 427.284 379.637 427.284 377.665C427.284 375.71 427.981 374.486 429.46 374.486C430.31 374.486 430.837 374.979 431.092 375.642L432.486 375.132C431.993 373.772 430.888 373.109 429.443 373.109C427.165 373.109 425.771 374.809 425.771 377.665C425.771 380.538 427.165 382.204 429.375 382.204Z" fill="white"/>
<path d="M434.781 382H436.26V377.104C436.26 375.132 437.365 374.571 438.198 374.571C438.793 374.571 439.167 374.758 439.439 374.945L439.66 373.551C439.354 373.296 438.878 373.109 438.317 373.109C437.348 373.109 436.651 373.585 436.26 374.452V373.313H434.781V382Z" fill="white"/>
<path d="M444.721 382.204C447.05 382.204 448.563 380.504 448.563 377.648C448.563 374.775 447.05 373.109 444.721 373.109C442.392 373.109 440.879 374.809 440.879 377.665C440.879 380.538 442.392 382.204 444.721 382.204ZM444.721 380.827C443.242 380.827 442.375 379.637 442.375 377.665C442.375 375.642 443.242 374.469 444.721 374.469C446.2 374.469 447.067 375.676 447.067 377.648C447.067 379.637 446.183 380.827 444.721 380.827Z" fill="white"/>
<path d="M452.33 382H453.656L455.22 376.849C455.322 376.509 455.441 376.05 455.526 375.71C455.611 376.05 455.747 376.509 455.849 376.849L457.43 382H458.756L460.983 373.313H459.521L458.212 379.144C458.144 379.501 458.076 379.807 458.025 380.096L457.787 379.144L456.155 373.313H454.931L453.299 379.144C453.214 379.467 453.129 379.773 453.078 380.062C453.027 379.773 452.959 379.484 452.891 379.144L451.565 373.313H450.103L452.33 382Z" fill="white"/>
<path d="M465.931 382.204C466.968 382.204 467.631 381.83 468.124 381.32V382H469.603V369.726L468.124 370.423V373.925C467.631 373.483 466.951 373.109 465.931 373.109C463.772 373.109 462.344 374.792 462.344 377.648C462.344 380.453 463.721 382.204 465.931 382.204ZM466.135 380.827C464.707 380.827 463.84 379.45 463.84 377.648C463.84 375.608 464.673 374.469 466.135 374.469C467.138 374.469 467.801 375.064 468.124 375.574V379.654C467.682 380.402 466.951 380.827 466.135 380.827Z" fill="white"/>
<path d="M474.372 374.605H476.395V373.313H474.372V372.123C474.372 371.664 474.44 371.222 475.154 371.222C475.579 371.222 475.953 371.341 476.395 371.545V370.304C475.953 370.066 475.443 369.896 474.78 369.896C473.845 369.896 472.893 370.355 472.893 371.868V373.313H471.55V374.605H472.893V382H474.372V374.605Z" fill="white"/>
<path d="M482.933 382H484.412V373.313H482.933V378.583C482.933 380.283 482.066 380.827 480.927 380.827C479.856 380.827 479.057 380.198 479.057 378.549V373.313H477.578V378.328C477.578 381.116 478.7 382.204 480.74 382.204C481.658 382.204 482.355 381.915 482.933 381.167V382Z" fill="white"/>
<path d="M492.597 382H494.076V377.002C494.076 374.197 492.937 373.109 490.965 373.109C490.03 373.109 489.265 373.449 488.721 374.197V373.313H487.242V382H488.721V376.713C488.721 375.03 489.588 374.469 490.727 374.469C491.798 374.469 492.597 375.098 492.597 376.747V382Z" fill="white"/>
<path d="M499.898 382.204C500.935 382.204 501.598 381.83 502.091 381.32V382H503.57V369.726L502.091 370.423V373.925C501.598 373.483 500.918 373.109 499.898 373.109C497.739 373.109 496.311 374.792 496.311 377.648C496.311 380.453 497.688 382.204 499.898 382.204ZM500.102 380.827C498.674 380.827 497.807 379.45 497.807 377.648C497.807 375.608 498.64 374.469 500.102 374.469C501.105 374.469 501.768 375.064 502.091 375.574V379.654C501.649 380.402 500.918 380.827 500.102 380.827Z" fill="white"/>
<path d="M507.115 371.732C507.642 371.732 508.05 371.324 508.05 370.814C508.05 370.287 507.642 369.862 507.115 369.862C506.605 369.862 506.197 370.287 506.197 370.814C506.197 371.324 506.605 371.732 507.115 371.732ZM506.384 382H507.863V373.313H506.384V382Z" fill="white"/>
<path d="M516.038 382H517.517V377.002C517.517 374.197 516.378 373.109 514.406 373.109C513.471 373.109 512.706 373.449 512.162 374.197V373.313H510.683V382H512.162V376.713C512.162 375.03 513.029 374.469 514.168 374.469C515.239 374.469 516.038 375.098 516.038 376.747V382Z" fill="white"/>
<path d="M522.932 385.519C525.346 385.383 527.029 384.465 527.029 381.643V373.313H525.55V374.027C525.21 373.653 524.53 373.109 523.357 373.109C521.232 373.109 519.753 374.792 519.753 377.648C519.753 380.674 521.385 382.204 523.306 382.204C524.36 382.204 525.057 381.83 525.55 381.15V382.204C525.55 383.343 524.904 384.21 522.218 384.363L522.932 385.519ZM523.612 380.827C522.218 380.827 521.249 379.637 521.249 377.648C521.249 375.608 522.065 374.469 523.612 374.469C524.275 374.469 525.125 374.911 525.55 375.625V379.603C525.108 380.368 524.326 380.827 523.612 380.827Z" fill="white"/>
<path d="M332.505 408.204C334.103 408.204 335.259 407.405 335.684 405.977L334.307 405.518C334.052 406.334 333.406 406.81 332.539 406.81C331.145 406.81 330.414 405.637 330.414 403.665C330.414 401.71 331.111 400.486 332.59 400.486C333.44 400.486 333.967 400.979 334.222 401.642L335.616 401.132C335.123 399.772 334.018 399.109 332.573 399.109C330.295 399.109 328.901 400.809 328.901 403.665C328.901 406.538 330.295 408.204 332.505 408.204Z" fill="white"/>
<path d="M342.726 408H344.12V402.237C344.12 399.568 342.386 399.109 341.026 399.109C339.717 399.109 338.578 399.568 337.881 400.027L338.306 401.268C338.952 400.809 339.87 400.401 340.839 400.401C341.961 400.401 342.726 400.826 342.726 402.356V402.968C342.012 402.56 341.247 402.407 340.482 402.407C338.799 402.407 337.235 403.274 337.235 405.28C337.235 407.218 338.493 408.204 340.261 408.204C341.298 408.204 342.148 407.745 342.726 407.201V408ZM340.482 406.895C339.292 406.895 338.629 406.249 338.629 405.28C338.629 404.175 339.564 403.682 340.686 403.682C341.4 403.682 342.199 403.937 342.726 404.26V405.756C342.233 406.334 341.451 406.895 340.482 406.895Z" fill="white"/>
<path d="M356.876 408H358.355V402.305C358.355 400.197 357.029 399.109 355.295 399.109C354.173 399.109 353.289 399.602 352.779 400.384C352.286 399.534 351.385 399.109 350.45 399.109C349.532 399.109 348.699 399.432 348.172 400.129V399.313H346.693V408H348.172V402.713C348.172 401.336 348.886 400.469 350.042 400.469C351.385 400.469 351.776 401.54 351.776 402.73V408H353.255V402.781C353.255 401.404 354.003 400.469 355.125 400.469C356.468 400.469 356.876 401.54 356.876 402.73V408Z" fill="white"/>
<path d="M364.776 408.204C366.884 408.204 368.363 406.538 368.363 403.648C368.363 400.86 366.986 399.109 364.776 399.109C363.688 399.109 363.059 399.534 362.549 400.044V399.313H361.07V411.434L362.549 410.737V407.184C363.008 407.728 363.654 408.204 364.776 408.204ZM364.589 406.827C363.705 406.827 363.042 406.3 362.549 405.654V401.642C362.974 400.894 363.705 400.469 364.589 400.469C366.017 400.469 366.85 401.761 366.85 403.648C366.85 405.705 366.034 406.827 364.589 406.827Z" fill="white"/>
<path d="M375.647 408H377.041V402.237C377.041 399.568 375.307 399.109 373.947 399.109C372.638 399.109 371.499 399.568 370.802 400.027L371.227 401.268C371.873 400.809 372.791 400.401 373.76 400.401C374.882 400.401 375.647 400.826 375.647 402.356V402.968C374.933 402.56 374.168 402.407 373.403 402.407C371.72 402.407 370.156 403.274 370.156 405.28C370.156 407.218 371.414 408.204 373.182 408.204C374.219 408.204 375.069 407.745 375.647 407.201V408ZM373.403 406.895C372.213 406.895 371.55 406.249 371.55 405.28C371.55 404.175 372.485 403.682 373.607 403.682C374.321 403.682 375.12 403.937 375.647 404.26V405.756C375.154 406.334 374.372 406.895 373.403 406.895Z" fill="white"/>
<path d="M380.362 397.732C380.889 397.732 381.297 397.324 381.297 396.814C381.297 396.287 380.889 395.862 380.362 395.862C379.852 395.862 379.444 396.287 379.444 396.814C379.444 397.324 379.852 397.732 380.362 397.732ZM379.631 408H381.11V399.313H379.631V408Z" fill="white"/>
<path d="M386.6 411.519C389.014 411.383 390.697 410.465 390.697 407.643V399.313H389.218V400.027C388.878 399.653 388.198 399.109 387.025 399.109C384.9 399.109 383.421 400.792 383.421 403.648C383.421 406.674 385.053 408.204 386.974 408.204C388.028 408.204 388.725 407.83 389.218 407.15V408.204C389.218 409.343 388.572 410.21 385.886 410.363L386.6 411.519ZM387.28 406.827C385.886 406.827 384.917 405.637 384.917 403.648C384.917 401.608 385.733 400.469 387.28 400.469C387.943 400.469 388.793 400.911 389.218 401.625V405.603C388.776 406.368 387.994 406.827 387.28 406.827Z" fill="white"/>
<path d="M398.865 408H400.344V403.002C400.344 400.197 399.205 399.109 397.233 399.109C396.298 399.109 395.533 399.449 394.989 400.197V399.313H393.51V408H394.989V402.713C394.989 401.03 395.856 400.469 396.995 400.469C398.066 400.469 398.865 401.098 398.865 402.747V408Z" fill="white"/>
<path d="M409.062 400.605H411.085V399.313H409.062V398.123C409.062 397.664 409.13 397.222 409.844 397.222C410.269 397.222 410.643 397.341 411.085 397.545V396.304C410.643 396.066 410.133 395.896 409.47 395.896C408.535 395.896 407.583 396.355 407.583 397.868V399.313H406.24V400.605H407.583V408H409.062V400.605Z" fill="white"/>
<path d="M415.867 408.204C418.196 408.204 419.709 406.504 419.709 403.648C419.709 400.775 418.196 399.109 415.867 399.109C413.538 399.109 412.025 400.809 412.025 403.665C412.025 406.538 413.538 408.204 415.867 408.204ZM415.867 406.827C414.388 406.827 413.521 405.637 413.521 403.665C413.521 401.642 414.388 400.469 415.867 400.469C417.346 400.469 418.213 401.676 418.213 403.648C418.213 405.637 417.329 406.827 415.867 406.827Z" fill="white"/>
<path d="M422.015 408H423.494V403.104C423.494 401.132 424.599 400.571 425.432 400.571C426.027 400.571 426.401 400.758 426.673 400.945L426.894 399.551C426.588 399.296 426.112 399.109 425.551 399.109C424.582 399.109 423.885 399.585 423.494 400.452V399.313H422.015V408Z" fill="white"/>
<path d="M433.66 411.298H435.156L439.661 399.313H438.148L435.955 405.229C435.836 405.535 435.768 405.773 435.683 406.062C435.598 405.773 435.53 405.535 435.411 405.229L433.252 399.313H431.773L434.986 407.779L433.66 411.298Z" fill="white"/>
<path d="M444.97 408.204C447.299 408.204 448.812 406.504 448.812 403.648C448.812 400.775 447.299 399.109 444.97 399.109C442.641 399.109 441.128 400.809 441.128 403.665C441.128 406.538 442.641 408.204 444.97 408.204ZM444.97 406.827C443.491 406.827 442.624 405.637 442.624 403.665C442.624 401.642 443.491 400.469 444.97 400.469C446.449 400.469 447.316 401.676 447.316 403.648C447.316 405.637 446.432 406.827 444.97 406.827Z" fill="white"/>
<path d="M456.387 408H457.866V399.313H456.387V404.583C456.387 406.283 455.52 406.827 454.381 406.827C453.31 406.827 452.511 406.198 452.511 404.549V399.313H451.032V404.328C451.032 407.116 452.154 408.204 454.194 408.204C455.112 408.204 455.809 407.915 456.387 407.167V408Z" fill="white"/>
<path d="M460.696 408H462.175V403.104C462.175 401.132 463.28 400.571 464.113 400.571C464.708 400.571 465.082 400.758 465.354 400.945L465.575 399.551C465.269 399.296 464.793 399.109 464.232 399.109C463.263 399.109 462.566 399.585 462.175 400.452V399.313H460.696V408Z" fill="white"/>
<path d="M475.011 408.204C477.119 408.204 478.598 406.538 478.598 403.648C478.598 400.86 477.221 399.109 475.011 399.109C473.923 399.109 473.294 399.534 472.784 400.044V399.313H471.305V411.434L472.784 410.737V407.184C473.243 407.728 473.889 408.204 475.011 408.204ZM474.824 406.827C473.94 406.827 473.277 406.3 472.784 405.654V401.642C473.209 400.894 473.94 400.469 474.824 400.469C476.252 400.469 477.085 401.761 477.085 403.648C477.085 405.705 476.269 406.827 474.824 406.827Z" fill="white"/>
<path d="M480.9 408H482.379V403.104C482.379 401.132 483.484 400.571 484.317 400.571C484.912 400.571 485.286 400.758 485.558 400.945L485.779 399.551C485.473 399.296 484.997 399.109 484.436 399.109C483.467 399.109 482.77 399.585 482.379 400.452V399.313H480.9V408Z" fill="white"/>
<path d="M490.84 408.204C493.169 408.204 494.682 406.504 494.682 403.648C494.682 400.775 493.169 399.109 490.84 399.109C488.511 399.109 486.998 400.809 486.998 403.665C486.998 406.538 488.511 408.204 490.84 408.204ZM490.84 406.827C489.361 406.827 488.494 405.637 488.494 403.665C488.494 401.642 489.361 400.469 490.84 400.469C492.319 400.469 493.186 401.676 493.186 403.648C493.186 405.637 492.302 406.827 490.84 406.827Z" fill="white"/>
<path d="M497.752 397.732C498.279 397.732 498.67 397.324 498.67 396.814C498.67 396.287 498.279 395.862 497.752 395.862C497.225 395.862 496.817 396.287 496.817 396.814C496.817 397.324 497.225 397.732 497.752 397.732ZM495.474 411.638C496.307 411.519 497.174 411.23 497.837 410.414C498.33 409.836 498.483 409.003 498.483 408.068V399.313H497.004V408.612C497.004 409.649 496.511 410.244 494.777 410.516L495.474 411.638Z" fill="white"/>
<path d="M504.653 408.204C505.826 408.204 506.812 407.728 507.458 407.082L506.557 406.079C506.013 406.623 505.35 406.861 504.687 406.861C503.378 406.861 502.426 405.824 502.307 404.226H508.189C508.223 403.886 508.24 403.512 508.24 403.24C508.24 400.384 506.608 399.109 504.653 399.109C502.341 399.109 500.794 400.775 500.794 403.648C500.794 406.3 502.273 408.204 504.653 408.204ZM502.29 402.968C502.375 401.183 503.395 400.418 504.653 400.418C505.571 400.418 506.727 400.996 506.744 402.968H502.29Z" fill="white"/>
<path d="M513.545 408.204C515.143 408.204 516.299 407.405 516.724 405.977L515.347 405.518C515.092 406.334 514.446 406.81 513.579 406.81C512.185 406.81 511.454 405.637 511.454 403.665C511.454 401.71 512.151 400.486 513.63 400.486C514.48 400.486 515.007 400.979 515.262 401.642L516.656 401.132C516.163 399.772 515.058 399.109 513.613 399.109C511.335 399.109 509.941 400.809 509.941 403.665C509.941 406.538 511.335 408.204 513.545 408.204Z" fill="white"/>
<path d="M521.131 408.204C521.811 408.204 522.338 408.051 522.797 407.813L522.967 406.368C522.593 406.606 522.168 406.827 521.675 406.827C520.91 406.827 520.774 406.3 520.774 405.637V400.605H522.916V399.313H520.774V395.726L519.295 396.44V399.313H517.884V400.605H519.295V406.13C519.295 407.354 519.822 408.204 521.131 408.204Z" fill="white"/>
<path d="M532.476 408.204C534.805 408.204 536.318 406.504 536.318 403.648C536.318 400.775 534.805 399.109 532.476 399.109C530.147 399.109 528.634 400.809 528.634 403.665C528.634 406.538 530.147 408.204 532.476 408.204ZM532.476 406.827C530.997 406.827 530.13 405.637 530.13 403.665C530.13 401.642 530.997 400.469 532.476 400.469C533.955 400.469 534.822 401.676 534.822 403.648C534.822 405.637 533.938 406.827 532.476 406.827Z" fill="white"/>
<path d="M538.624 408H540.103V403.104C540.103 401.132 541.208 400.571 542.041 400.571C542.636 400.571 543.01 400.758 543.282 400.945L543.503 399.551C543.197 399.296 542.721 399.109 542.16 399.109C541.191 399.109 540.494 399.585 540.103 400.452V399.313H538.624V408Z" fill="white"/>
<path d="M332.505 434.204C334.103 434.204 335.259 433.405 335.684 431.977L334.307 431.518C334.052 432.334 333.406 432.81 332.539 432.81C331.145 432.81 330.414 431.637 330.414 429.665C330.414 427.71 331.111 426.486 332.59 426.486C333.44 426.486 333.967 426.979 334.222 427.642L335.616 427.132C335.123 425.772 334.018 425.109 332.573 425.109C330.295 425.109 328.901 426.809 328.901 429.665C328.901 432.538 330.295 434.204 332.505 434.204Z" fill="white"/>
<path d="M341.243 434.204C343.572 434.204 345.085 432.504 345.085 429.648C345.085 426.775 343.572 425.109 341.243 425.109C338.914 425.109 337.401 426.809 337.401 429.665C337.401 432.538 338.914 434.204 341.243 434.204ZM341.243 432.827C339.764 432.827 338.897 431.637 338.897 429.665C338.897 427.642 339.764 426.469 341.243 426.469C342.722 426.469 343.589 427.676 343.589 429.648C343.589 431.637 342.705 432.827 341.243 432.827Z" fill="white"/>
<path d="M357.573 434H359.052V428.305C359.052 426.197 357.726 425.109 355.992 425.109C354.87 425.109 353.986 425.602 353.476 426.384C352.983 425.534 352.082 425.109 351.147 425.109C350.229 425.109 349.396 425.432 348.869 426.129V425.313H347.39V434H348.869V428.713C348.869 427.336 349.583 426.469 350.739 426.469C352.082 426.469 352.473 427.54 352.473 428.73V434H353.952V428.781C353.952 427.404 354.7 426.469 355.822 426.469C357.165 426.469 357.573 427.54 357.573 428.73V434Z" fill="white"/>
<path d="M371.95 434H373.429V428.305C373.429 426.197 372.103 425.109 370.369 425.109C369.247 425.109 368.363 425.602 367.853 426.384C367.36 425.534 366.459 425.109 365.524 425.109C364.606 425.109 363.773 425.432 363.246 426.129V425.313H361.767V434H363.246V428.713C363.246 427.336 363.96 426.469 365.116 426.469C366.459 426.469 366.85 427.54 366.85 428.73V434H368.329V428.781C368.329 427.404 369.077 426.469 370.199 426.469C371.542 426.469 371.95 427.54 371.95 428.73V434Z" fill="white"/>
<path d="M381.414 434H382.893V425.313H381.414V430.583C381.414 432.283 380.547 432.827 379.408 432.827C378.337 432.827 377.538 432.198 377.538 430.549V425.313H376.059V430.328C376.059 433.116 377.181 434.204 379.221 434.204C380.139 434.204 380.836 433.915 381.414 433.167V434Z" fill="white"/>
<path d="M391.078 434H392.558V429.002C392.558 426.197 391.418 425.109 389.446 425.109C388.511 425.109 387.746 425.449 387.202 426.197V425.313H385.723V434H387.202V428.713C387.202 427.03 388.069 426.469 389.208 426.469C390.279 426.469 391.078 427.098 391.078 428.747V434Z" fill="white"/>
<path d="M396.051 423.732C396.578 423.732 396.986 423.324 396.986 422.814C396.986 422.287 396.578 421.862 396.051 421.862C395.541 421.862 395.133 422.287 395.133 422.814C395.133 423.324 395.541 423.732 396.051 423.732ZM395.32 434H396.799V425.313H395.32V434Z" fill="white"/>
<path d="M401.965 434.204C402.645 434.204 403.172 434.051 403.631 433.813L403.801 432.368C403.427 432.606 403.002 432.827 402.509 432.827C401.744 432.827 401.608 432.3 401.608 431.637V426.605H403.75V425.313H401.608V421.726L400.129 422.44V425.313H398.718V426.605H400.129V432.13C400.129 433.354 400.656 434.204 401.965 434.204Z" fill="white"/>
<path d="M407.014 437.298H408.51L413.015 425.313H411.502L409.309 431.229C409.19 431.535 409.122 431.773 409.037 432.062C408.952 431.773 408.884 431.535 408.765 431.229L406.606 425.313H405.127L408.34 433.779L407.014 437.298Z" fill="white"/>
<path d="M422.325 434.204C424.654 434.204 426.167 432.504 426.167 429.648C426.167 426.775 424.654 425.109 422.325 425.109C419.996 425.109 418.483 426.809 418.483 429.665C418.483 432.538 419.996 434.204 422.325 434.204ZM422.325 432.827C420.846 432.827 419.979 431.637 419.979 429.665C419.979 427.642 420.846 426.469 422.325 426.469C423.804 426.469 424.671 427.676 424.671 429.648C424.671 431.637 423.787 432.827 422.325 432.827Z" fill="white"/>
<path d="M428.473 434H429.952V429.104C429.952 427.132 431.057 426.571 431.89 426.571C432.485 426.571 432.859 426.758 433.131 426.945L433.352 425.551C433.046 425.296 432.57 425.109 432.009 425.109C431.04 425.109 430.343 425.585 429.952 426.452V425.313H428.473V434Z" fill="white"/>
<path d="M437.749 437.519C440.163 437.383 441.846 436.465 441.846 433.643V425.313H440.367V426.027C440.027 425.653 439.347 425.109 438.174 425.109C436.049 425.109 434.57 426.792 434.57 429.648C434.57 432.674 436.202 434.204 438.123 434.204C439.177 434.204 439.874 433.83 440.367 433.15V434.204C440.367 435.343 439.721 436.21 437.035 436.363L437.749 437.519ZM438.429 432.827C437.035 432.827 436.066 431.637 436.066 429.648C436.066 427.608 436.882 426.469 438.429 426.469C439.092 426.469 439.942 426.911 440.367 427.625V431.603C439.925 432.368 439.143 432.827 438.429 432.827Z" fill="white"/>
<path d="M449.64 434H451.034V428.237C451.034 425.568 449.3 425.109 447.94 425.109C446.631 425.109 445.492 425.568 444.795 426.027L445.22 427.268C445.866 426.809 446.784 426.401 447.753 426.401C448.875 426.401 449.64 426.826 449.64 428.356V428.968C448.926 428.56 448.161 428.407 447.396 428.407C445.713 428.407 444.149 429.274 444.149 431.28C444.149 433.218 445.407 434.204 447.175 434.204C448.212 434.204 449.062 433.745 449.64 433.201V434ZM447.396 432.895C446.206 432.895 445.543 432.249 445.543 431.28C445.543 430.175 446.478 429.682 447.6 429.682C448.314 429.682 449.113 429.937 449.64 430.26V431.756C449.147 432.334 448.365 432.895 447.396 432.895Z" fill="white"/>
<path d="M458.962 434H460.441V429.002C460.441 426.197 459.302 425.109 457.33 425.109C456.395 425.109 455.63 425.449 455.086 426.197V425.313H453.607V434H455.086V428.713C455.086 427.03 455.953 426.469 457.092 426.469C458.163 426.469 458.962 427.098 458.962 428.747V434Z" fill="white"/>
<path d="M463.934 423.732C464.461 423.732 464.869 423.324 464.869 422.814C464.869 422.287 464.461 421.862 463.934 421.862C463.424 421.862 463.016 422.287 463.016 422.814C463.016 423.324 463.424 423.732 463.934 423.732ZM463.203 434H464.682V425.313H463.203V434Z" fill="white"/>
<path d="M467.163 434H473.521V432.674H468.999L473.538 426.367V425.313H467.503V426.622H471.685L467.163 432.912V434Z" fill="white"/>
<path d="M481.067 434H482.461V428.237C482.461 425.568 480.727 425.109 479.367 425.109C478.058 425.109 476.919 425.568 476.222 426.027L476.647 427.268C477.293 426.809 478.211 426.401 479.18 426.401C480.302 426.401 481.067 426.826 481.067 428.356V428.968C480.353 428.56 479.588 428.407 478.823 428.407C477.14 428.407 475.576 429.274 475.576 431.28C475.576 433.218 476.834 434.204 478.602 434.204C479.639 434.204 480.489 433.745 481.067 433.201V434ZM478.823 432.895C477.633 432.895 476.97 432.249 476.97 431.28C476.97 430.175 477.905 429.682 479.027 429.682C479.741 429.682 480.54 429.937 481.067 430.26V431.756C480.574 432.334 479.792 432.895 478.823 432.895Z" fill="white"/>
<path d="M487.38 434.204C488.06 434.204 488.587 434.051 489.046 433.813L489.216 432.368C488.842 432.606 488.417 432.827 487.924 432.827C487.159 432.827 487.023 432.3 487.023 431.637V426.605H489.165V425.313H487.023V421.726L485.544 422.44V425.313H484.133V426.605H485.544V432.13C485.544 433.354 486.071 434.204 487.38 434.204Z" fill="white"/>
<path d="M492.14 423.732C492.667 423.732 493.075 423.324 493.075 422.814C493.075 422.287 492.667 421.862 492.14 421.862C491.63 421.862 491.222 422.287 491.222 422.814C491.222 423.324 491.63 423.732 492.14 423.732ZM491.409 434H492.888V425.313H491.409V434Z" fill="white"/>
<path d="M499.041 434.204C501.37 434.204 502.883 432.504 502.883 429.648C502.883 426.775 501.37 425.109 499.041 425.109C496.712 425.109 495.199 426.809 495.199 429.665C495.199 432.538 496.712 434.204 499.041 434.204ZM499.041 432.827C497.562 432.827 496.695 431.637 496.695 429.665C496.695 427.642 497.562 426.469 499.041 426.469C500.52 426.469 501.387 427.676 501.387 429.648C501.387 431.637 500.503 432.827 499.041 432.827Z" fill="white"/>
<path d="M510.543 434H512.022V429.002C512.022 426.197 510.883 425.109 508.911 425.109C507.976 425.109 507.211 425.449 506.667 426.197V425.313H505.188V434H506.667V428.713C506.667 427.03 507.534 426.469 508.673 426.469C509.744 426.469 510.543 427.098 510.543 428.747V434Z" fill="white"/>
<path d="M515.26 434.221C515.923 434.221 516.45 433.677 516.45 433.065C516.45 432.453 515.923 431.892 515.26 431.892C514.597 431.892 514.087 432.453 514.087 433.065C514.087 433.677 514.597 434.221 515.26 434.221Z" fill="white"/>
<path d="M475.232 167.232H535.398V227.398H475.232V167.232Z" fill="white"/>
<g opacity="0.4" filter="url(#filter2_f)">
<path d="M475.232 167.232H535.398V227.398H475.232V167.232Z" fill="white"/>
</g>
<path d="M463.199 215.364C429.969 215.364 403.034 188.426 403.034 155.199C403.034 121.966 429.972 95.0344 463.199 95.0344C496.426 95.0344 523.364 121.967 523.364 155.199H535.398C535.398 115.327 503.071 83 463.199 83C423.326 83 391 115.327 391 155.199C391 195.071 423.326 227.398 463.199 227.398V215.364Z" fill="url(#paint3_linear)" fill-opacity="0.6"/>
<path d="M463.199 191.298C443.262 191.298 427.099 175.135 427.099 155.199C427.099 135.258 443.262 119.099 463.199 119.099C483.135 119.099 499.298 135.258 499.298 155.199H511.332C511.332 128.617 489.781 107.066 463.199 107.066C436.616 107.066 415.066 128.617 415.066 155.199C415.066 181.781 436.616 203.332 463.199 203.332V191.298Z" fill="url(#paint4_linear)" fill-opacity="0.8"/>
<path d="M463.199 167.232C456.553 167.232 451.165 161.845 451.165 155.199C451.165 148.553 456.553 143.165 463.199 143.165C469.845 143.165 475.232 148.553 475.232 155.199H487.265C487.265 141.909 476.49 131.133 463.199 131.133C449.905 131.133 439.133 141.909 439.133 155.199C439.133 168.49 449.905 179.265 463.199 179.265V167.232Z" fill="url(#paint5_linear)"/>
<defs>
<filter id="filter0_d" x="282" y="0" width="362" height="499" filterUnits="userSpaceOnUse" color-interpolation-filters="sRGB">
<feFlood flood-opacity="0" result="BackgroundImageFix"/>
<feColorMatrix in="SourceAlpha" type="matrix" values="0 0 0 0 0 0 0 0 0 0 0 0 0 0 0 0 0 0 127 0"/>
<feOffset dy="4"/>
<feGaussianBlur stdDeviation="4"/>
<feColorMatrix type="matrix" values="0 0 0 0 0 0 0 0 0 0 0 0 0 0 0 0 0 0 0.15 0"/>
<feBlend mode="normal" in2="BackgroundImageFix" result="effect1_dropShadow"/>
<feBlend mode="normal" in="SourceGraphic" in2="effect1_dropShadow" result="shape"/>
</filter>
<filter id="filter1_d" x="295" y="13" width="100" height="32" filterUnits="userSpaceOnUse" color-interpolation-filters="sRGB">
<feFlood flood-opacity="0" result="BackgroundImageFix"/>
<feColorMatrix in="SourceAlpha" type="matrix" values="0 0 0 0 0 0 0 0 0 0 0 0 0 0 0 0 0 0 127 0"/>
<feOffset dy="4"/>
<feGaussianBlur stdDeviation="2"/>
<feColorMatrix type="matrix" values="0 0 0 0 0 0 0 0 0 0 0 0 0 0 0 0 0 0 0.25 0"/>
<feBlend mode="normal" in2="BackgroundImageFix" result="effect1_dropShadow"/>
<feBlend mode="normal" in="SourceGraphic" in2="effect1_dropShadow" result="shape"/>
</filter>
<filter id="filter2_f" x="461.232" y="153.232" width="88.1662" height="88.1662" filterUnits="userSpaceOnUse" color-interpolation-filters="sRGB">
<feFlood flood-opacity="0" result="BackgroundImageFix"/>
<feBlend mode="normal" in="SourceGraphic" in2="BackgroundImageFix" result="shape"/>
<feGaussianBlur stdDeviation="7" result="effect1_foregroundBlur"/>
</filter>
<linearGradient id="paint0_linear" x1="667" y1="237" x2="772.257" y2="214.039" gradientUnits="userSpaceOnUse">
<stop stop-color="#F6F9FC"/>
<stop offset="1" stop-color="#F6F9FC" stop-opacity="0"/>
</linearGradient>
<linearGradient id="paint1_linear" x1="259" y1="234" x2="121.426" y2="267.968" gradientUnits="userSpaceOnUse">
<stop stop-color="#F6F9FC"/>
<stop offset="1" stop-color="#F6F9FC" stop-opacity="0"/>
</linearGradient>
<linearGradient id="paint2_linear" x1="311" y1="493" x2="213.86" y2="-279.278" gradientUnits="userSpaceOnUse">
<stop stop-color="#FF9372"/>
<stop offset="1" stop-color="#FFD770"/>
</linearGradient>
<linearGradient id="paint3_linear" x1="-99.6049" y1="-398.728" x2="526.374" y2="245.448" gradientUnits="userSpaceOnUse">
<stop stop-color="#FF9372"/>
<stop offset="1" stop-color="#FFD770"/>
</linearGradient>
<linearGradient id="paint4_linear" x1="87.9929" y1="-214.089" x2="505.316" y2="215.366" gradientUnits="userSpaceOnUse">
<stop stop-color="#FF9372"/>
<stop offset="1" stop-color="#FFD770"/>
</linearGradient>
<linearGradient id="paint5_linear" x1="275.601" y1="-29.4396" x2="484.257" y2="185.282" gradientUnits="userSpaceOnUse">
<stop stop-color="#FF9372"/>
<stop offset="1" stop-color="#FFDF8E"/>
</linearGradient>
</defs>
</svg>
