<?xml version="1.0" encoding="UTF-8"?>
<svg width="227px" height="272px" viewBox="0 0 227 272" version="1.1" xmlns="http://www.w3.org/2000/svg" xmlns:xlink="http://www.w3.org/1999/xlink">
    <!-- Generator: Sketch 52.4 (67378) - http://www.bohemiancoding.com/sketch -->
    <title>Group 15</title>
    <desc>Created with Sketch.</desc>
    <defs>
        <linearGradient x1="-87.4172185%" y1="-37.6242898%" x2="81.9898702%" y2="87.5567036%" id="linearGradient-1">
            <stop stop-color="#FAF9F4" offset="0%"></stop>
            <stop stop-color="#F9F5DE" offset="100%"></stop>
        </linearGradient>
        <rect id="path-2" x="0" y="0" width="145" height="22" rx="10.9000002"></rect>
        <filter x="-1.4%" y="-4.5%" width="102.8%" height="118.2%" filterUnits="objectBoundingBox" id="filter-3">
            <feOffset dx="0" dy="1" in="SourceAlpha" result="shadowOffsetOuter1"></feOffset>
            <feGaussianBlur stdDeviation="0.5" in="shadowOffsetOuter1" result="shadowBlurOuter1"></feGaussianBlur>
            <feColorMatrix values="0 0 0 0 0   0 0 0 0 0   0 0 0 0 0  0 0 0 0.0492244112 0" type="matrix" in="shadowBlurOuter1"></feColorMatrix>
        </filter>
        <rect id="path-4" x="0" y="0" width="113" height="22" rx="10.9000002"></rect>
        <filter x="-1.8%" y="-4.5%" width="103.5%" height="118.2%" filterUnits="objectBoundingBox" id="filter-5">
            <feOffset dx="0" dy="1" in="SourceAlpha" result="shadowOffsetOuter1"></feOffset>
            <feGaussianBlur stdDeviation="0.5" in="shadowOffsetOuter1" result="shadowBlurOuter1"></feGaussianBlur>
            <feColorMatrix values="0 0 0 0 0   0 0 0 0 0   0 0 0 0 0  0 0 0 0.0492244112 0" type="matrix" in="shadowBlurOuter1"></feColorMatrix>
        </filter>
        <rect id="path-6" x="0" y="0" width="208" height="22" rx="10.9000002"></rect>
        <filter x="-1.0%" y="-4.5%" width="101.9%" height="118.2%" filterUnits="objectBoundingBox" id="filter-7">
            <feOffset dx="0" dy="1" in="SourceAlpha" result="shadowOffsetOuter1"></feOffset>
            <feGaussianBlur stdDeviation="0.5" in="shadowOffsetOuter1" result="shadowBlurOuter1"></feGaussianBlur>
            <feColorMatrix values="0 0 0 0 0   0 0 0 0 0   0 0 0 0 0  0 0 0 0.0492244112 0" type="matrix" in="shadowBlurOuter1"></feColorMatrix>
        </filter>
        <rect id="path-8" x="0" y="0" width="208" height="22" rx="10.9000002"></rect>
        <filter x="-1.0%" y="-4.5%" width="101.9%" height="118.2%" filterUnits="objectBoundingBox" id="filter-9">
            <feOffset dx="0" dy="1" in="SourceAlpha" result="shadowOffsetOuter1"></feOffset>
            <feGaussianBlur stdDeviation="0.5" in="shadowOffsetOuter1" result="shadowBlurOuter1"></feGaussianBlur>
            <feColorMatrix values="0 0 0 0 0   0 0 0 0 0   0 0 0 0 0  0 0 0 0.0492244112 0" type="matrix" in="shadowBlurOuter1"></feColorMatrix>
        </filter>
        <rect id="path-10" x="0" y="0" width="225" height="22" rx="10.9000002"></rect>
        <filter x="-0.9%" y="-4.5%" width="101.8%" height="118.2%" filterUnits="objectBoundingBox" id="filter-11">
            <feOffset dx="0" dy="1" in="SourceAlpha" result="shadowOffsetOuter1"></feOffset>
            <feGaussianBlur stdDeviation="0.5" in="shadowOffsetOuter1" result="shadowBlurOuter1"></feGaussianBlur>
            <feColorMatrix values="0 0 0 0 0   0 0 0 0 0   0 0 0 0 0  0 0 0 0.0492244112 0" type="matrix" in="shadowBlurOuter1"></feColorMatrix>
        </filter>
    </defs>
    <g id="Page-1" stroke="none" stroke-width="1" fill="none" fill-rule="evenodd">
        <g id="Mobile" transform="translate(-46.000000, -50.000000)">
            <g id="Group-15" transform="translate(47.000000, 50.000000)">
                <g id="Group-56">
                    <g id="Group-57">
                        <g id="Group-55">
                            <g id="Group-47">
                                <g id="Group-46">
                                    <g id="Group-48">
                                        <g id="Group-51">
                                            <g id="Group-53">
                                                <g id="Group-3" transform="translate(0.000000, 28.000000)">
                                                    <g id="Group-4">
                                                        <g id="Rectangle-Copy-12">
                                                            <use fill="black" fill-opacity="1" filter="url(#filter-3)" xlink:href="#path-2"></use>
                                                            <use fill="url(#linearGradient-1)" fill-rule="evenodd" xlink:href="#path-2"></use>
                                                        </g>
                                                        <path d="M24.6843743,15.4000002 L27.9656243,6.56875005 L28.6843744,6.56875005 L31.9593744,15.4000002 L31.0281244,15.4000002 L30.2781244,13.2687502 L26.3843743,13.2687502 L25.6218743,15.4000002 L24.6843743,15.4000002 Z M26.6531243,12.5250001 L30.0093744,12.5250001 L28.3281243,7.76875007 L26.6531243,12.5250001 Z M33.5093744,15.4000002 L33.5093744,9.15625009 L34.3156244,9.15625009 L34.3156244,10.4625001 C34.6281244,9.5000001 35.4968745,9.05625009 36.2406245,9.05625009 C36.5906245,9.05625009 36.9468745,9.15625009 37.2156245,9.35625009 L36.8406245,10.0437501 C36.6218745,9.9250001 36.3781245,9.8625001 36.1281245,9.8625001 C35.2968745,9.8625001 34.3093744,10.5187501 34.3093744,12.2125001 L34.3093744,15.4000002 L33.5093744,15.4000002 Z M40.5718745,9.05625009 C42.1718746,9.05625009 43.0593746,10.0187501 43.0593746,11.5875001 L43.0593746,15.4000002 L42.3718746,15.4000002 L42.3156246,14.1312502 C41.8468746,15.0375002 40.9781245,15.4937502 40.0468745,15.4937502 C38.7781245,15.4937502 37.8906245,14.7875002 37.8906245,13.5875002 C37.8906245,12.3187501 38.8968745,11.8062501 40.5093745,11.8062501 L42.3093746,11.8062501 L42.3093746,11.7312501 C42.3093746,10.4125001 41.8281246,9.7875001 40.5781245,9.7875001 C39.7468745,9.7875001 39.1968745,10.1625001 38.7656245,10.8062501 L38.1343745,10.3437501 C38.7406245,9.5062501 39.4656245,9.05625009 40.5718745,9.05625009 Z M40.2031245,14.7875002 C41.2906245,14.7875002 42.0218746,14.0812502 42.3093746,13.0562501 L42.3093746,12.4187501 L40.5531245,12.4187501 C39.3218745,12.4187501 38.7343745,12.8625001 38.7343745,13.6125002 C38.7343745,14.3250002 39.2656245,14.7875002 40.2031245,14.7875002 Z M47.5406246,14.6250002 C48.7718747,14.8000002 50.1031247,15.0125002 50.1031247,16.3250002 C50.1031247,17.6000002 49.0218747,18.3000002 47.5093746,18.3000002 C45.8031246,18.3000002 44.7531246,17.4062502 44.7531246,16.1375002 C44.7531246,16.0312502 44.7593746,15.9562502 44.7718746,15.8750002 L45.6468746,15.0062502 C45.1781246,14.7937502 44.8468746,14.4500002 44.8281246,13.8375002 C44.8281246,13.3875002 45.0218746,13.0250001 45.3656246,12.7312501 C45.0156246,12.3500001 44.8156246,11.8500001 44.8156246,11.2812501 C44.8156246,9.9750001 45.8781246,9.05625009 47.2281246,9.05625009 C47.8593746,9.05625009 48.4218746,9.25625009 48.8468747,9.6062501 L49.7843747,8.77500009 L50.2156247,9.31250009 L49.2968747,10.1125001 C49.5093747,10.4562501 49.6343747,10.8625001 49.6343747,11.3250001 C49.6343747,12.6375001 48.5906247,13.5062502 47.2468746,13.5062502 C46.7281246,13.5062502 46.2593746,13.3750002 45.8781246,13.1500002 C45.6531246,13.3000002 45.5468746,13.4812502 45.5468746,13.7000002 C45.5718746,14.3625002 46.4468746,14.4750002 47.5406246,14.6250002 Z M47.2531246,9.7125001 C46.2968746,9.7125001 45.6656246,10.3625001 45.6656246,11.2875001 C45.6656246,12.1875001 46.2843746,12.8187501 47.2468746,12.8187501 C48.2156246,12.8187501 48.8156247,12.1937501 48.8156247,11.2937501 C48.8156247,10.3625001 48.2093746,9.7125001 47.2531246,9.7125001 Z M47.5031246,17.6437502 C48.5218747,17.6437502 49.3156247,17.2625002 49.3156247,16.4250002 C49.3156247,15.6437502 48.3968746,15.5375002 47.2531246,15.3750002 C46.8906246,15.3250002 46.5031246,15.2750002 46.1531246,15.1812502 L45.4343746,16.0500002 C45.4343746,16.1250002 45.4406246,16.1812502 45.4468746,16.2375002 C45.5406246,17.1437502 46.3718746,17.6437502 47.5031246,17.6437502 Z M54.1531247,15.4937502 C52.3781247,15.4937502 51.1406247,14.0625002 51.1406247,12.2625001 C51.1406247,10.4812501 52.3781247,9.05625009 54.1531247,9.05625009 C55.9343748,9.05625009 57.1906248,10.4812501 57.1906248,12.2625001 C57.1906248,14.0562502 55.9343748,15.4937502 54.1531247,15.4937502 Z M54.1531247,14.7750002 C55.5156248,14.7750002 56.3343748,13.6437502 56.3343748,12.2625001 C56.3343748,10.8875001 55.5156248,9.7812501 54.1531247,9.7812501 C52.8031247,9.7812501 51.9968747,10.8812501 51.9968747,12.2625001 C51.9968747,13.6500002 52.8031247,14.7750002 54.1531247,14.7750002 Z M58.8843748,15.4000002 L58.8843748,9.15625009 L59.7093748,9.15625009 L59.7093748,10.2187501 C60.1031248,9.4562501 60.8406248,9.05625009 61.6656248,9.05625009 C63.1218749,9.05625009 63.8093749,10.0937501 63.8343749,11.4437501 L63.8343749,15.4000002 L63.0093749,15.4000002 L63.0093749,11.6375001 C63.0093749,10.5000001 62.4718749,9.8250001 61.4468748,9.8250001 C60.3906248,9.8250001 59.7093748,10.4937501 59.7093748,11.7062501 L59.7093748,15.4000002 L58.8843748,15.4000002 Z M70.215625,15.4125002 L68.3968749,9.15625009 L69.284375,9.15625009 L70.653125,14.1562502 L72.328125,9.15625009 L73.084375,9.15625009 L74.753125,14.1500002 L76.1281251,9.15625009 L77.0156251,9.15625009 L75.190625,15.4000002 L74.409375,15.4000002 L72.703125,10.2937501 L70.996875,15.4125002 L70.215625,15.4125002 Z M80.5718751,9.05625009 C82.1718752,9.05625009 83.0593752,10.0187501 83.0593752,11.5875001 L83.0593752,15.4000002 L82.3718752,15.4000002 L82.3156252,14.1312502 C81.8468751,15.0375002 80.9781251,15.4937502 80.0468751,15.4937502 C78.7781251,15.4937502 77.8906251,14.7875002 77.8906251,13.5875002 C77.8906251,12.3187501 78.8968751,11.8062501 80.5093751,11.8062501 L82.3093752,11.8062501 L82.3093752,11.7312501 C82.3093752,10.4125001 81.8281251,9.7875001 80.5781251,9.7875001 C79.7468751,9.7875001 79.1968751,10.1625001 78.7656251,10.8062501 L78.1343751,10.3437501 C78.7406251,9.5062501 79.4656251,9.05625009 80.5718751,9.05625009 Z M80.2031251,14.7875002 C81.2906251,14.7875002 82.0218751,14.0812502 82.3093752,13.0562501 L82.3093752,12.4187501 L80.5531251,12.4187501 C79.3218751,12.4187501 78.7343751,12.8625001 78.7343751,13.6125002 C78.7343751,14.3250002 79.2656251,14.7875002 80.2031251,14.7875002 Z M86.9843752,15.4937502 C85.7531252,15.4937502 84.7718752,14.8000002 84.4531252,13.8500002 L85.1218752,13.5562502 C85.3593752,14.2250002 85.9781252,14.8000002 86.9468752,14.8000002 C87.8906252,14.8000002 88.3906252,14.3062502 88.3906252,13.6500002 C88.3906252,11.9562501 84.7656252,13.0312501 84.7656252,10.7750001 C84.7656252,9.6625001 85.7093752,9.05625009 86.9031252,9.05625009 C87.8906252,9.05625009 88.6593752,9.5375001 89.0968753,10.3625001 L88.4593752,10.7062501 C88.1593752,10.1437501 87.6406252,9.7250001 86.8781252,9.7250001 C86.0718752,9.7250001 85.5593752,10.1125001 85.5593752,10.6687501 C85.5593752,12.2187501 89.2031253,11.2187501 89.2031253,13.6125002 C89.2031253,14.8625002 88.2031252,15.4937502 86.9843752,15.4937502 Z M97.3031254,15.4937502 C96.3156254,15.4937502 95.4531253,14.9375002 95.0593753,14.0187502 L95.0593753,15.4000002 L94.2093753,15.4000002 L94.2093753,6.56875005 L95.0593753,6.56875005 L95.0593753,10.5312501 C95.4531253,9.6125001 96.2968754,9.05625009 97.2906254,9.05625009 C98.9781254,9.05625009 99.9468754,10.5000001 99.9468754,12.2687501 C99.9468754,14.0437502 98.9781254,15.4937502 97.3031254,15.4937502 Z M97.1093754,14.7250002 C98.4156254,14.7250002 99.1156254,13.6562502 99.1156254,12.2687501 C99.1156254,10.8875001 98.4156254,9.8125001 97.1093754,9.8125001 C95.8093754,9.8125001 94.9906253,10.8750001 94.9906253,12.2687501 C94.9906253,13.6750002 95.8093754,14.7250002 97.1093754,14.7250002 Z M104.153125,15.4937502 C102.378125,15.4937502 101.140625,14.0625002 101.140625,12.2625001 C101.140625,10.4812501 102.378125,9.05625009 104.153125,9.05625009 C105.934376,9.05625009 107.190626,10.4812501 107.190626,12.2625001 C107.190626,14.0562502 105.934376,15.4937502 104.153125,15.4937502 Z M104.153125,14.7750002 C105.515625,14.7750002 106.334376,13.6437502 106.334376,12.2625001 C106.334376,10.8875001 105.515625,9.7812501 104.153125,9.7812501 C102.803125,9.7812501 101.996875,10.8812501 101.996875,12.2625001 C101.996875,13.6500002 102.803125,14.7750002 104.153125,14.7750002 Z M108.884376,15.4000002 L108.884376,9.15625009 L109.690626,9.15625009 L109.690626,10.4625001 C110.003126,9.5000001 110.871876,9.05625009 111.615626,9.05625009 C111.965626,9.05625009 112.321876,9.15625009 112.590626,9.35625009 L112.215626,10.0437501 C111.996876,9.9250001 111.753126,9.8625001 111.503126,9.8625001 C110.671876,9.8625001 109.684376,10.5187501 109.684376,12.2125001 L109.684376,15.4000002 L108.884376,15.4000002 Z M113.840626,15.4000002 L113.840626,9.15625009 L114.665626,9.15625009 L114.665626,10.2187501 C115.059376,9.4562501 115.796876,9.05625009 116.621876,9.05625009 C118.078126,9.05625009 118.765626,10.0937501 118.790626,11.4437501 L118.790626,15.4000002 L117.965626,15.4000002 L117.965626,11.6375001 C117.965626,10.5000001 117.428126,9.8250001 116.403126,9.8250001 C115.346876,9.8250001 114.665626,10.4937501 114.665626,11.7062501 L114.665626,15.4000002 L113.840626,15.4000002 Z" id="Aragon-was-born" fill="#7F8198"></path>
                                                    </g>
                                                </g>
                                                <g id="Group-3-Copy" transform="translate(0.000000, 83.000000)">
                                                    <g id="Group-5">
                                                        <g id="Rectangle-Copy-12">
                                                            <use fill="black" fill-opacity="1" filter="url(#filter-5)" xlink:href="#path-4"></use>
                                                            <use fill="#CEEBE3" fill-rule="evenodd" xlink:href="#path-4"></use>
                                                        </g>
                                                        <path d="M21.43125,15.4000002 L24.7125001,6.56875005 L25.4312501,6.56875005 L28.7062501,15.4000002 L27.7750001,15.4000002 L27.0250001,13.2687502 L23.13125,13.2687502 L22.36875,15.4000002 L21.43125,15.4000002 Z M23.4,12.5250001 L26.7562501,12.5250001 L25.0750001,7.76875007 L23.4,12.5250001 Z M30.2562501,15.4000002 L30.2562501,9.15625009 L31.0625001,9.15625009 L31.0625001,10.4625001 C31.3750002,9.5000001 32.2437502,9.05625009 32.9875002,9.05625009 C33.3375002,9.05625009 33.6937502,9.15625009 33.9625002,9.35625009 L33.5875002,10.0437501 C33.3687502,9.9250001 33.1250002,9.8625001 32.8750002,9.8625001 C32.0437502,9.8625001 31.0562501,10.5187501 31.0562501,12.2125001 L31.0562501,15.4000002 L30.2562501,15.4000002 Z M37.3187502,9.05625009 C38.9187503,9.05625009 39.8062503,10.0187501 39.8062503,11.5875001 L39.8062503,15.4000002 L39.1187503,15.4000002 L39.0625003,14.1312502 C38.5937503,15.0375002 37.7250002,15.4937502 36.7937502,15.4937502 C35.5250002,15.4937502 34.6375002,14.7875002 34.6375002,13.5875002 C34.6375002,12.3187501 35.6437502,11.8062501 37.2562502,11.8062501 L39.0562503,11.8062501 L39.0562503,11.7312501 C39.0562503,10.4125001 38.5750003,9.7875001 37.3250002,9.7875001 C36.4937502,9.7875001 35.9437502,10.1625001 35.5125002,10.8062501 L34.8812502,10.3437501 C35.4875002,9.5062501 36.2125002,9.05625009 37.3187502,9.05625009 Z M36.9500002,14.7875002 C38.0375003,14.7875002 38.7687503,14.0812502 39.0562503,13.0562501 L39.0562503,12.4187501 L37.3000002,12.4187501 C36.0687502,12.4187501 35.4812502,12.8625001 35.4812502,13.6125002 C35.4812502,14.3250002 36.0125002,14.7875002 36.9500002,14.7875002 Z M44.2875003,14.6250002 C45.5187504,14.8000002 46.8500004,15.0125002 46.8500004,16.3250002 C46.8500004,17.6000002 45.7687504,18.3000002 44.2562503,18.3000002 C42.5500003,18.3000002 41.5000003,17.4062502 41.5000003,16.1375002 C41.5000003,16.0312502 41.5062503,15.9562502 41.5187503,15.8750002 L42.3937503,15.0062502 C41.9250003,14.7937502 41.5937503,14.4500002 41.5750003,13.8375002 C41.5750003,13.3875002 41.7687503,13.0250001 42.1125003,12.7312501 C41.7625003,12.3500001 41.5625003,11.8500001 41.5625003,11.2812501 C41.5625003,9.9750001 42.6250003,9.05625009 43.9750003,9.05625009 C44.6062504,9.05625009 45.1687504,9.25625009 45.5937504,9.6062501 L46.5312504,8.77500009 L46.9625004,9.31250009 L46.0437504,10.1125001 C46.2562504,10.4562501 46.3812504,10.8625001 46.3812504,11.3250001 C46.3812504,12.6375001 45.3375004,13.5062502 43.9937503,13.5062502 C43.4750003,13.5062502 43.0062503,13.3750002 42.6250003,13.1500002 C42.4000003,13.3000002 42.2937503,13.4812502 42.2937503,13.7000002 C42.3187503,14.3625002 43.1937503,14.4750002 44.2875003,14.6250002 Z M44.0000003,9.7125001 C43.0437503,9.7125001 42.4125003,10.3625001 42.4125003,11.2875001 C42.4125003,12.1875001 43.0312503,12.8187501 43.9937503,12.8187501 C44.9625004,12.8187501 45.5625004,12.1937501 45.5625004,11.2937501 C45.5625004,10.3625001 44.9562504,9.7125001 44.0000003,9.7125001 Z M44.2500003,17.6437502 C45.2687504,17.6437502 46.0625004,17.2625002 46.0625004,16.4250002 C46.0625004,15.6437502 45.1437504,15.5375002 44.0000003,15.3750002 C43.6375003,15.3250002 43.2500003,15.2750002 42.9000003,15.1812502 L42.1812503,16.0500002 C42.1812503,16.1250002 42.1875003,16.1812502 42.1937503,16.2375002 C42.2875003,17.1437502 43.1187503,17.6437502 44.2500003,17.6437502 Z M50.9000004,15.4937502 C49.1250004,15.4937502 47.8875004,14.0625002 47.8875004,12.2625001 C47.8875004,10.4812501 49.1250004,9.05625009 50.9000004,9.05625009 C52.6812505,9.05625009 53.9375005,10.4812501 53.9375005,12.2625001 C53.9375005,14.0562502 52.6812505,15.4937502 50.9000004,15.4937502 Z M50.9000004,14.7750002 C52.2625005,14.7750002 53.0812505,13.6437502 53.0812505,12.2625001 C53.0812505,10.8875001 52.2625005,9.7812501 50.9000004,9.7812501 C49.5500004,9.7812501 48.7437504,10.8812501 48.7437504,12.2625001 C48.7437504,13.6500002 49.5500004,14.7750002 50.9000004,14.7750002 Z M55.6312505,15.4000002 L55.6312505,9.15625009 L56.4562505,9.15625009 L56.4562505,10.2187501 C56.8500005,9.4562501 57.5875005,9.05625009 58.4125006,9.05625009 C59.8687506,9.05625009 60.5562506,10.0937501 60.5812506,11.4437501 L60.5812506,15.4000002 L59.7562506,15.4000002 L59.7562506,11.6375001 C59.7562506,10.5000001 59.2187506,9.8250001 58.1937506,9.8250001 C57.1375005,9.8250001 56.4562505,10.4937501 56.4562505,11.7062501 L56.4562505,15.4000002 L55.6312505,15.4000002 Z M68.5437507,15.4937502 C65.9812507,15.4937502 65.4125007,12.9000001 65.4125007,10.9812501 C65.4125007,9.05000009 65.9625007,6.45625005 68.4562507,6.45625005 C70.7187507,6.45625005 71.5687508,8.76250009 71.5687508,11.0062501 C71.5687508,13.2250002 70.7375007,15.4937502 68.5437507,15.4937502 Z M68.5250007,14.6812502 C70.1687507,14.6812502 70.6875007,12.7937501 70.6875007,10.9875001 C70.6875007,9.15625009 70.1562507,7.28750006 68.4562507,7.28750006 C66.6562507,7.28750006 66.2562507,9.29375009 66.2562507,10.9812501 C66.2562507,12.6562501 66.6625007,14.6812502 68.5250007,14.6812502 Z M73.7125008,15.4000002 L73.7125008,14.0250002 L74.5437508,14.0250002 L74.5437508,15.4000002 L73.7125008,15.4000002 Z M80.0375009,6.56875005 L80.8500009,6.56875005 L80.8500009,15.4000002 L80.0062509,15.4000002 L80.0062509,8.66250008 L77.7812508,8.66250008 L77.7812508,7.99375007 L79.2875009,7.99375007 C79.7750009,7.99375007 80.0375009,7.80625007 80.0375009,7.33125006 L80.0375009,6.56875005 Z" id="Aragon-0.1" fill="#7F8198"></path>
                                                    </g>
                                                </g>
                                                <g id="Group-3-Copy-2" transform="translate(0.000000, 138.000002)">
                                                    <g id="Group-6" transform="translate(0.000000, -0.000002)">
                                                        <g id="Group-12">
                                                            <g id="Rectangle-Copy-12">
                                                                <use fill="black" fill-opacity="1" filter="url(#filter-7)" xlink:href="#path-6"></use>
                                                                <use fill="#CEEBE3" fill-rule="evenodd" xlink:href="#path-6"></use>
                                                            </g>
                                                            <path d="M23.43125,15.4000002 L26.7125001,6.56875005 L27.4312501,6.56875005 L30.7062501,15.4000002 L29.7750001,15.4000002 L29.0250001,13.2687502 L25.13125,13.2687502 L24.36875,15.4000002 L23.43125,15.4000002 Z M25.4,12.5250001 L28.7562501,12.5250001 L27.0750001,7.76875007 L25.4,12.5250001 Z M32.2562501,15.4000002 L32.2562501,9.15625009 L33.0625001,9.15625009 L33.0625001,10.4625001 C33.3750002,9.5000001 34.2437502,9.05625009 34.9875002,9.05625009 C35.3375002,9.05625009 35.6937502,9.15625009 35.9625002,9.35625009 L35.5875002,10.0437501 C35.3687502,9.9250001 35.1250002,9.8625001 34.8750002,9.8625001 C34.0437502,9.8625001 33.0562501,10.5187501 33.0562501,12.2125001 L33.0562501,15.4000002 L32.2562501,15.4000002 Z M39.3187502,9.05625009 C40.9187503,9.05625009 41.8062503,10.0187501 41.8062503,11.5875001 L41.8062503,15.4000002 L41.1187503,15.4000002 L41.0625003,14.1312502 C40.5937503,15.0375002 39.7250002,15.4937502 38.7937502,15.4937502 C37.5250002,15.4937502 36.6375002,14.7875002 36.6375002,13.5875002 C36.6375002,12.3187501 37.6437502,11.8062501 39.2562502,11.8062501 L41.0562503,11.8062501 L41.0562503,11.7312501 C41.0562503,10.4125001 40.5750003,9.7875001 39.3250002,9.7875001 C38.4937502,9.7875001 37.9437502,10.1625001 37.5125002,10.8062501 L36.8812502,10.3437501 C37.4875002,9.5062501 38.2125002,9.05625009 39.3187502,9.05625009 Z M38.9500002,14.7875002 C40.0375003,14.7875002 40.7687503,14.0812502 41.0562503,13.0562501 L41.0562503,12.4187501 L39.3000002,12.4187501 C38.0687502,12.4187501 37.4812502,12.8625001 37.4812502,13.6125002 C37.4812502,14.3250002 38.0125002,14.7875002 38.9500002,14.7875002 Z M46.2875003,14.6250002 C47.5187504,14.8000002 48.8500004,15.0125002 48.8500004,16.3250002 C48.8500004,17.6000002 47.7687504,18.3000002 46.2562503,18.3000002 C44.5500003,18.3000002 43.5000003,17.4062502 43.5000003,16.1375002 C43.5000003,16.0312502 43.5062503,15.9562502 43.5187503,15.8750002 L44.3937503,15.0062502 C43.9250003,14.7937502 43.5937503,14.4500002 43.5750003,13.8375002 C43.5750003,13.3875002 43.7687503,13.0250001 44.1125003,12.7312501 C43.7625003,12.3500001 43.5625003,11.8500001 43.5625003,11.2812501 C43.5625003,9.9750001 44.6250003,9.05625009 45.9750003,9.05625009 C46.6062504,9.05625009 47.1687504,9.25625009 47.5937504,9.6062501 L48.5312504,8.77500009 L48.9625004,9.31250009 L48.0437504,10.1125001 C48.2562504,10.4562501 48.3812504,10.8625001 48.3812504,11.3250001 C48.3812504,12.6375001 47.3375004,13.5062502 45.9937503,13.5062502 C45.4750003,13.5062502 45.0062503,13.3750002 44.6250003,13.1500002 C44.4000003,13.3000002 44.2937503,13.4812502 44.2937503,13.7000002 C44.3187503,14.3625002 45.1937503,14.4750002 46.2875003,14.6250002 Z M46.0000003,9.7125001 C45.0437503,9.7125001 44.4125003,10.3625001 44.4125003,11.2875001 C44.4125003,12.1875001 45.0312503,12.8187501 45.9937503,12.8187501 C46.9625004,12.8187501 47.5625004,12.1937501 47.5625004,11.2937501 C47.5625004,10.3625001 46.9562504,9.7125001 46.0000003,9.7125001 Z M46.2500003,17.6437502 C47.2687504,17.6437502 48.0625004,17.2625002 48.0625004,16.4250002 C48.0625004,15.6437502 47.1437504,15.5375002 46.0000003,15.3750002 C45.6375003,15.3250002 45.2500003,15.2750002 44.9000003,15.1812502 L44.1812503,16.0500002 C44.1812503,16.1250002 44.1875003,16.1812502 44.1937503,16.2375002 C44.2875003,17.1437502 45.1187503,17.6437502 46.2500003,17.6437502 Z M52.9000004,15.4937502 C51.1250004,15.4937502 49.8875004,14.0625002 49.8875004,12.2625001 C49.8875004,10.4812501 51.1250004,9.05625009 52.9000004,9.05625009 C54.6812505,9.05625009 55.9375005,10.4812501 55.9375005,12.2625001 C55.9375005,14.0562502 54.6812505,15.4937502 52.9000004,15.4937502 Z M52.9000004,14.7750002 C54.2625005,14.7750002 55.0812505,13.6437502 55.0812505,12.2625001 C55.0812505,10.8875001 54.2625005,9.7812501 52.9000004,9.7812501 C51.5500004,9.7812501 50.7437504,10.8812501 50.7437504,12.2625001 C50.7437504,13.6500002 51.5500004,14.7750002 52.9000004,14.7750002 Z M57.6312505,15.4000002 L57.6312505,9.15625009 L58.4562505,9.15625009 L58.4562505,10.2187501 C58.8500005,9.4562501 59.5875005,9.05625009 60.4125006,9.05625009 C61.8687506,9.05625009 62.5562506,10.0937501 62.5812506,11.4437501 L62.5812506,15.4000002 L61.7562506,15.4000002 L61.7562506,11.6375001 C61.7562506,10.5000001 61.2187506,9.8250001 60.1937506,9.8250001 C59.1375005,9.8250001 58.4562505,10.4937501 58.4562505,11.7062501 L58.4562505,15.4000002 L57.6312505,15.4000002 Z M73.5062508,6.56875005 L74.3312508,6.56875005 L74.3312508,15.4000002 L73.4250008,15.4000002 L69.0312507,7.92500007 L69.0312507,15.4000002 L68.2062507,15.4000002 L68.2062507,6.56875005 L69.1125007,6.56875005 L73.5062508,14.0187502 L73.5062508,6.56875005 Z M79.2562508,15.4937502 C77.3750008,15.4937502 76.3437508,14.1000002 76.3437508,12.3062501 C76.3437508,10.5437501 77.3375008,9.05625009 79.1562508,9.05625009 C81.1937509,9.05625009 81.8625009,10.7062501 81.8625009,11.9437501 C81.8625009,12.1562501 81.8437509,12.4062501 81.8187509,12.5000001 L77.2187508,12.5000001 C77.2812508,13.8937502 78.0062508,14.7437502 79.2625008,14.7437502 C80.0125008,14.7437502 80.5312509,14.5375002 81.0937509,13.9500002 L81.6687509,14.4562502 C80.9687509,15.1875002 80.2625009,15.4937502 79.2562508,15.4937502 Z M77.2187508,11.8875001 L81.0375009,11.8875001 C81.0437509,11.7562501 81.0437509,11.6187501 81.0250009,11.4937501 C80.9500009,10.6500001 80.3875009,9.7625001 79.1500008,9.7625001 C78.0125008,9.7625001 77.3250008,10.6375001 77.2187508,11.8875001 Z M85.4625009,15.4937502 C84.3562509,15.4937502 83.7625009,14.8437502 83.7625009,13.6500002 L83.7625009,9.8562501 L82.7250009,9.8562501 L82.7250009,9.15625009 L83.7750009,9.15625009 L83.7750009,7.35000006 L84.5875009,6.74375006 L84.5875009,9.15625009 L86.3375009,9.15625009 L86.3375009,9.8562501 L84.5875009,9.8562501 L84.5875009,13.5187502 C84.5875009,14.4000002 84.9375009,14.7625002 85.6000009,14.7625002 C85.8750009,14.7625002 86.1562509,14.6812502 86.3312509,14.6125002 L86.3437509,15.3687502 C86.1500009,15.4312502 85.8125009,15.4937502 85.4625009,15.4937502 Z M88.987501,15.4125002 L87.168751,9.15625009 L88.056251,9.15625009 L89.425001,14.1562502 L91.100001,9.15625009 L91.856251,9.15625009 L93.5250011,14.1500002 L94.9000011,9.15625009 L95.7875011,9.15625009 L93.9625011,15.4000002 L93.181251,15.4000002 L91.475001,10.2937501 L89.768751,15.4125002 L88.987501,15.4125002 Z M99.7000011,15.4937502 C97.9250011,15.4937502 96.6875011,14.0625002 96.6875011,12.2625001 C96.6875011,10.4812501 97.9250011,9.05625009 99.7000011,9.05625009 C101.481251,9.05625009 102.737501,10.4812501 102.737501,12.2625001 C102.737501,14.0562502 101.481251,15.4937502 99.7000011,15.4937502 Z M99.7000011,14.7750002 C101.062501,14.7750002 101.881251,13.6437502 101.881251,12.2625001 C101.881251,10.8875001 101.062501,9.7812501 99.7000011,9.7812501 C98.3500011,9.7812501 97.5437511,10.8812501 97.5437511,12.2625001 C97.5437511,13.6500002 98.3500011,14.7750002 99.7000011,14.7750002 Z M104.431251,15.4000002 L104.431251,9.15625009 L105.237501,9.15625009 L105.237501,10.4625001 C105.550001,9.5000001 106.418751,9.05625009 107.162501,9.05625009 C107.512501,9.05625009 107.868751,9.15625009 108.137501,9.35625009 L107.762501,10.0437501 C107.543751,9.9250001 107.300001,9.8625001 107.050001,9.8625001 C106.218751,9.8625001 105.231251,10.5187501 105.231251,12.2125001 L105.231251,15.4000002 L104.431251,15.4000002 Z M109.400001,15.4000002 L109.400001,6.56875005 L110.225001,6.56875005 L110.225001,12.5500001 L113.437501,9.15625009 L114.518751,9.15625009 L112.256251,11.4875001 L114.887501,15.4000002 L113.906251,15.4000002 L111.693751,12.0062501 L110.225001,13.5500002 L110.225001,15.4000002 L109.400001,15.4000002 Z M121.850001,15.4000002 L121.850001,7.34375006 L118.768751,7.34375006 L118.768751,6.56875005 L125.787502,6.56875005 L125.787502,7.34375006 L122.706251,7.34375006 L122.706251,15.4000002 L121.850001,15.4000002 Z M129.768752,15.4937502 C127.993752,15.4937502 126.756252,14.0625002 126.756252,12.2625001 C126.756252,10.4812501 127.993752,9.05625009 129.768752,9.05625009 C131.550002,9.05625009 132.806252,10.4812501 132.806252,12.2625001 C132.806252,14.0562502 131.550002,15.4937502 129.768752,15.4937502 Z M129.768752,14.7750002 C131.131252,14.7750002 131.950002,13.6437502 131.950002,12.2625001 C131.950002,10.8875001 131.131252,9.7812501 129.768752,9.7812501 C128.418752,9.7812501 127.612502,10.8812501 127.612502,12.2625001 C127.612502,13.6500002 128.418752,14.7750002 129.768752,14.7750002 Z M134.512502,15.4000002 L134.512502,6.56875005 L135.337502,6.56875005 L135.337502,12.5500001 L138.550002,9.15625009 L139.631252,9.15625009 L137.368752,11.4875001 L140.000002,15.4000002 L139.018752,15.4000002 L136.806252,12.0062501 L135.337502,13.5500002 L135.337502,15.4000002 L134.512502,15.4000002 Z M143.731252,15.4937502 C141.850002,15.4937502 140.818752,14.1000002 140.818752,12.3062501 C140.818752,10.5437501 141.812502,9.05625009 143.631252,9.05625009 C145.668752,9.05625009 146.337502,10.7062501 146.337502,11.9437501 C146.337502,12.1562501 146.318752,12.4062501 146.293752,12.5000001 L141.693752,12.5000001 C141.756252,13.8937502 142.481252,14.7437502 143.737502,14.7437502 C144.487502,14.7437502 145.006252,14.5375002 145.568752,13.9500002 L146.143752,14.4562502 C145.443752,15.1875002 144.737502,15.4937502 143.731252,15.4937502 Z M141.693752,11.8875001 L145.512502,11.8875001 C145.518752,11.7562501 145.518752,11.6187501 145.500002,11.4937501 C145.425002,10.6500001 144.862502,9.7625001 143.625002,9.7625001 C142.487502,9.7625001 141.800002,10.6375001 141.693752,11.8875001 Z M148.037502,15.4000002 L148.037502,9.15625009 L148.862502,9.15625009 L148.862502,10.2187501 C149.256252,9.4562501 149.993752,9.05625009 150.818752,9.05625009 C152.275002,9.05625009 152.962502,10.0937501 152.987502,11.4437501 L152.987502,15.4000002 L152.162502,15.4000002 L152.162502,11.6375001 C152.162502,10.5000001 151.625002,9.8250001 150.600002,9.8250001 C149.543752,9.8250001 148.862502,10.4937501 148.862502,11.7062501 L148.862502,15.4000002 L148.037502,15.4000002 Z M160.187502,15.4937502 C158.956252,15.4937502 157.975002,14.8000002 157.656252,13.8500002 L158.325002,13.5562502 C158.562502,14.2250002 159.181252,14.8000002 160.150002,14.8000002 C161.093752,14.8000002 161.593752,14.3062502 161.593752,13.6500002 C161.593752,11.9562501 157.968752,13.0312501 157.968752,10.7750001 C157.968752,9.6625001 158.912502,9.05625009 160.106252,9.05625009 C161.093752,9.05625009 161.862502,9.5375001 162.300002,10.3625001 L161.662502,10.7062501 C161.362502,10.1437501 160.843752,9.7250001 160.081252,9.7250001 C159.275002,9.7250001 158.762502,10.1125001 158.762502,10.6687501 C158.762502,12.2187501 162.406252,11.2187501 162.406252,13.6125002 C162.406252,14.8625002 161.406252,15.4937502 160.187502,15.4937502 Z M166.237502,9.05625009 C167.837502,9.05625009 168.725002,10.0187501 168.725002,11.5875001 L168.725002,15.4000002 L168.037502,15.4000002 L167.981252,14.1312502 C167.512502,15.0375002 166.643752,15.4937502 165.712502,15.4937502 C164.443752,15.4937502 163.556252,14.7875002 163.556252,13.5875002 C163.556252,12.3187501 164.562502,11.8062501 166.175002,11.8062501 L167.975002,11.8062501 L167.975002,11.7312501 C167.975002,10.4125001 167.493752,9.7875001 166.243752,9.7875001 C165.412502,9.7875001 164.862502,10.1625001 164.431252,10.8062501 L163.800002,10.3437501 C164.406252,9.5062501 165.131252,9.05625009 166.237502,9.05625009 Z M165.868752,14.7875002 C166.956252,14.7875002 167.687502,14.0812502 167.975002,13.0562501 L167.975002,12.4187501 L166.218752,12.4187501 C164.987502,12.4187501 164.400002,12.8625001 164.400002,13.6125002 C164.400002,14.3250002 164.931252,14.7875002 165.868752,14.7875002 Z M171.912502,15.4937502 C171.025002,15.4937502 170.762502,14.9625002 170.762502,14.0812502 L170.762502,6.56875005 L171.587502,6.56875005 L171.587502,13.8687502 C171.587502,14.3500002 171.650002,14.7500002 172.275002,14.7500002 C172.406252,14.7500002 172.593752,14.7250002 172.781252,14.6875002 L172.793752,15.3937502 C172.518752,15.4500002 172.181252,15.4937502 171.912502,15.4937502 Z M176.637502,15.4937502 C174.756252,15.4937502 173.725002,14.1000002 173.725002,12.3062501 C173.725002,10.5437501 174.718752,9.05625009 176.537502,9.05625009 C178.575002,9.05625009 179.243752,10.7062501 179.243752,11.9437501 C179.243752,12.1562501 179.225002,12.4062501 179.200002,12.5000001 L174.600002,12.5000001 C174.662502,13.8937502 175.387502,14.7437502 176.643752,14.7437502 C177.393752,14.7437502 177.912502,14.5375002 178.475002,13.9500002 L179.050002,14.4562502 C178.350002,15.1875002 177.643752,15.4937502 176.637502,15.4937502 Z M174.600002,11.8875001 L178.418752,11.8875001 C178.425002,11.7562501 178.425002,11.6187501 178.406252,11.4937501 C178.331252,10.6500001 177.768752,9.7625001 176.531252,9.7625001 C175.393752,9.7625001 174.706252,10.6375001 174.600002,11.8875001 Z" id="Aragon-Network-Token" fill="#7F8198"></path>
                                                        </g>
                                                    </g>
                                                    <g id="Group-7" transform="translate(0.000000, 54.999998)">
                                                        <g id="Rectangle-Copy-16">
                                                            <use fill="black" fill-opacity="1" filter="url(#filter-9)" xlink:href="#path-8"></use>
                                                            <use fill="#EBE4FF" fill-rule="evenodd" xlink:href="#path-8"></use>
                                                        </g>
                                                        <path d="M23.43125,15.4000002 L26.7125001,6.56875005 L27.4312501,6.56875005 L30.7062501,15.4000002 L29.7750001,15.4000002 L29.0250001,13.2687502 L25.13125,13.2687502 L24.36875,15.4000002 L23.43125,15.4000002 Z M25.4,12.5250001 L28.7562501,12.5250001 L27.0750001,7.76875007 L25.4,12.5250001 Z M32.2562501,15.4000002 L32.2562501,9.15625009 L33.0625001,9.15625009 L33.0625001,10.4625001 C33.3750002,9.5000001 34.2437502,9.05625009 34.9875002,9.05625009 C35.3375002,9.05625009 35.6937502,9.15625009 35.9625002,9.35625009 L35.5875002,10.0437501 C35.3687502,9.9250001 35.1250002,9.8625001 34.8750002,9.8625001 C34.0437502,9.8625001 33.0562501,10.5187501 33.0562501,12.2125001 L33.0562501,15.4000002 L32.2562501,15.4000002 Z M39.3187502,9.05625009 C40.9187503,9.05625009 41.8062503,10.0187501 41.8062503,11.5875001 L41.8062503,15.4000002 L41.1187503,15.4000002 L41.0625003,14.1312502 C40.5937503,15.0375002 39.7250002,15.4937502 38.7937502,15.4937502 C37.5250002,15.4937502 36.6375002,14.7875002 36.6375002,13.5875002 C36.6375002,12.3187501 37.6437502,11.8062501 39.2562502,11.8062501 L41.0562503,11.8062501 L41.0562503,11.7312501 C41.0562503,10.4125001 40.5750003,9.7875001 39.3250002,9.7875001 C38.4937502,9.7875001 37.9437502,10.1625001 37.5125002,10.8062501 L36.8812502,10.3437501 C37.4875002,9.5062501 38.2125002,9.05625009 39.3187502,9.05625009 Z M38.9500002,14.7875002 C40.0375003,14.7875002 40.7687503,14.0812502 41.0562503,13.0562501 L41.0562503,12.4187501 L39.3000002,12.4187501 C38.0687502,12.4187501 37.4812502,12.8625001 37.4812502,13.6125002 C37.4812502,14.3250002 38.0125002,14.7875002 38.9500002,14.7875002 Z M46.2875003,14.6250002 C47.5187504,14.8000002 48.8500004,15.0125002 48.8500004,16.3250002 C48.8500004,17.6000002 47.7687504,18.3000002 46.2562503,18.3000002 C44.5500003,18.3000002 43.5000003,17.4062502 43.5000003,16.1375002 C43.5000003,16.0312502 43.5062503,15.9562502 43.5187503,15.8750002 L44.3937503,15.0062502 C43.9250003,14.7937502 43.5937503,14.4500002 43.5750003,13.8375002 C43.5750003,13.3875002 43.7687503,13.0250001 44.1125003,12.7312501 C43.7625003,12.3500001 43.5625003,11.8500001 43.5625003,11.2812501 C43.5625003,9.9750001 44.6250003,9.05625009 45.9750003,9.05625009 C46.6062504,9.05625009 47.1687504,9.25625009 47.5937504,9.6062501 L48.5312504,8.77500009 L48.9625004,9.31250009 L48.0437504,10.1125001 C48.2562504,10.4562501 48.3812504,10.8625001 48.3812504,11.3250001 C48.3812504,12.6375001 47.3375004,13.5062502 45.9937503,13.5062502 C45.4750003,13.5062502 45.0062503,13.3750002 44.6250003,13.1500002 C44.4000003,13.3000002 44.2937503,13.4812502 44.2937503,13.7000002 C44.3187503,14.3625002 45.1937503,14.4750002 46.2875003,14.6250002 Z M46.0000003,9.7125001 C45.0437503,9.7125001 44.4125003,10.3625001 44.4125003,11.2875001 C44.4125003,12.1875001 45.0312503,12.8187501 45.9937503,12.8187501 C46.9625004,12.8187501 47.5625004,12.1937501 47.5625004,11.2937501 C47.5625004,10.3625001 46.9562504,9.7125001 46.0000003,9.7125001 Z M46.2500003,17.6437502 C47.2687504,17.6437502 48.0625004,17.2625002 48.0625004,16.4250002 C48.0625004,15.6437502 47.1437504,15.5375002 46.0000003,15.3750002 C45.6375003,15.3250002 45.2500003,15.2750002 44.9000003,15.1812502 L44.1812503,16.0500002 C44.1812503,16.1250002 44.1875003,16.1812502 44.1937503,16.2375002 C44.2875003,17.1437502 45.1187503,17.6437502 46.2500003,17.6437502 Z M52.9000004,15.4937502 C51.1250004,15.4937502 49.8875004,14.0625002 49.8875004,12.2625001 C49.8875004,10.4812501 51.1250004,9.05625009 52.9000004,9.05625009 C54.6812505,9.05625009 55.9375005,10.4812501 55.9375005,12.2625001 C55.9375005,14.0562502 54.6812505,15.4937502 52.9000004,15.4937502 Z M52.9000004,14.7750002 C54.2625005,14.7750002 55.0812505,13.6437502 55.0812505,12.2625001 C55.0812505,10.8875001 54.2625005,9.7812501 52.9000004,9.7812501 C51.5500004,9.7812501 50.7437504,10.8812501 50.7437504,12.2625001 C50.7437504,13.6500002 51.5500004,14.7750002 52.9000004,14.7750002 Z M57.6312505,15.4000002 L57.6312505,9.15625009 L58.4562505,9.15625009 L58.4562505,10.2187501 C58.8500005,9.4562501 59.5875005,9.05625009 60.4125006,9.05625009 C61.8687506,9.05625009 62.5562506,10.0937501 62.5812506,11.4437501 L62.5812506,15.4000002 L61.7562506,15.4000002 L61.7562506,11.6375001 C61.7562506,10.5000001 61.2187506,9.8250001 60.1937506,9.8250001 C59.1375005,9.8250001 58.4562505,10.4937501 58.4562505,11.7062501 L58.4562505,15.4000002 L57.6312505,15.4000002 Z M70.5437507,15.4937502 C67.9812507,15.4937502 67.4125007,12.9000001 67.4125007,10.9812501 C67.4125007,9.05000009 67.9625007,6.45625005 70.4562507,6.45625005 C72.7187507,6.45625005 73.5687508,8.76250009 73.5687508,11.0062501 C73.5687508,13.2250002 72.7375007,15.4937502 70.5437507,15.4937502 Z M70.5250007,14.6812502 C72.1687507,14.6812502 72.6875007,12.7937501 72.6875007,10.9875001 C72.6875007,9.15625009 72.1562507,7.28750006 70.4562507,7.28750006 C68.6562507,7.28750006 68.2562507,9.29375009 68.2562507,10.9812501 C68.2562507,12.6562501 68.6625007,14.6812502 70.5250007,14.6812502 Z M75.7125008,15.4000002 L75.7125008,14.0250002 L76.5437508,14.0250002 L76.5437508,15.4000002 L75.7125008,15.4000002 Z M81.9187509,9.5062501 C83.5187509,9.5062501 84.7687509,10.8000001 84.7687509,12.4500001 C84.7687509,14.1187502 83.4125009,15.4937502 81.7187509,15.4937502 C80.2312509,15.4937502 79.0562508,14.4312502 78.7250008,12.9625001 L79.5250008,12.7437501 C79.7625008,13.8437502 80.5187509,14.7125002 81.7187509,14.7125002 C82.9687509,14.7125002 83.9000009,13.6750002 83.9000009,12.4437501 C83.9000009,11.2250001 83.0625009,10.2812501 81.8062509,10.2812501 C81.0500009,10.2812501 80.3187509,10.6625001 79.8562508,11.3500001 L79.0000008,11.1125001 L79.8062508,6.56875005 L84.3437509,6.56875005 L84.3437509,7.36250007 L80.4875009,7.36250007 L79.9750008,10.2750001 C80.5812509,9.7500001 81.2312509,9.5062501 81.9187509,9.5062501 Z M91.581251,10.1750001 L91.006251,10.1750001 L89.331251,6.56875005 L90.275001,6.56875005 L91.581251,10.1750001 Z M93.6937511,10.1750001 L93.118751,10.1750001 L91.443751,6.56875005 L92.387501,6.56875005 L93.6937511,10.1750001 Z M97.9500011,15.4000002 L97.9500011,7.34375006 L94.8687511,7.34375006 L94.8687511,6.56875005 L101.887501,6.56875005 L101.887501,7.34375006 L98.8062511,7.34375006 L98.8062511,15.4000002 L97.9500011,15.4000002 Z M103.418751,15.4000002 L103.418751,6.56875005 L104.256251,6.56875005 L104.256251,10.2187501 C104.650001,9.4562501 105.375001,9.05625009 106.200001,9.05625009 C107.656251,9.05625009 108.356251,10.0937501 108.381251,11.4437501 L108.381251,15.4000002 L107.543751,15.4000002 L107.543751,11.6375001 C107.543751,10.5250001 107.106251,9.8125001 106.012501,9.8125001 C104.900001,9.8125001 104.256251,10.6437501 104.256251,11.8375001 L104.256251,15.4000002 L103.418751,15.4000002 Z M112.862501,15.4937502 C110.981251,15.4937502 109.950001,14.1000002 109.950001,12.3062501 C109.950001,10.5437501 110.943751,9.05625009 112.762501,9.05625009 C114.800001,9.05625009 115.468751,10.7062501 115.468751,11.9437501 C115.468751,12.1562501 115.450001,12.4062501 115.425001,12.5000001 L110.825001,12.5000001 C110.887501,13.8937502 111.612501,14.7437502 112.868751,14.7437502 C113.618751,14.7437502 114.137501,14.5375002 114.700001,13.9500002 L115.275001,14.4562502 C114.575001,15.1875002 113.868751,15.4937502 112.862501,15.4937502 Z M110.825001,11.8875001 L114.643751,11.8875001 C114.650001,11.7562501 114.650001,11.6187501 114.631251,11.4937501 C114.556251,10.6500001 113.993751,9.7625001 112.756251,9.7625001 C111.618751,9.7625001 110.931251,10.6375001 110.825001,11.8875001 Z M119.750001,15.4000002 L123.031251,6.56875005 L123.750002,6.56875005 L127.025002,15.4000002 L126.093752,15.4000002 L125.343752,13.2687502 L121.450001,13.2687502 L120.687501,15.4000002 L119.750001,15.4000002 Z M121.718751,12.5250001 L125.075002,12.5250001 L123.393751,7.76875007 L121.718751,12.5250001 Z M128.575002,15.4000002 L128.575002,9.15625009 L129.381252,9.15625009 L129.381252,10.4625001 C129.693752,9.5000001 130.562502,9.05625009 131.306252,9.05625009 C131.656252,9.05625009 132.012502,9.15625009 132.281252,9.35625009 L131.906252,10.0437501 C131.687502,9.9250001 131.443752,9.8625001 131.193752,9.8625001 C130.362502,9.8625001 129.375002,10.5187501 129.375002,12.2125001 L129.375002,15.4000002 L128.575002,15.4000002 Z M135.831252,15.4937502 C134.037502,15.4937502 133.018752,14.0562502 133.018752,12.2875001 C133.018752,10.6500001 133.943752,9.05625009 135.818752,9.05625009 C136.956252,9.05625009 137.868752,9.6500001 138.331252,10.7750001 L137.543752,11.0812501 C137.250002,10.3000001 136.618752,9.8125001 135.818752,9.8125001 C134.475002,9.8125001 133.856252,11.0187501 133.856252,12.2875001 C133.856252,13.5750002 134.475002,14.7437502 135.825002,14.7437502 C136.637502,14.7437502 137.262502,14.2625002 137.512502,13.4875002 L138.268752,13.7750002 C137.887502,14.8625002 136.981252,15.4937502 135.831252,15.4937502 Z M139.893752,15.4000002 L139.893752,6.56875005 L140.731252,6.56875005 L140.731252,10.2187501 C141.125002,9.4562501 141.850002,9.05625009 142.675002,9.05625009 C144.131252,9.05625009 144.831252,10.0937501 144.856252,11.4437501 L144.856252,15.4000002 L144.018752,15.4000002 L144.018752,11.6375001 C144.018752,10.5250001 143.581252,9.8125001 142.487502,9.8125001 C141.375002,9.8125001 140.731252,10.6437501 140.731252,11.8375001 L140.731252,15.4000002 L139.893752,15.4000002 Z M146.912502,7.85000007 L146.912502,6.56875005 L147.775002,6.56875005 L147.775002,7.85000007 L146.912502,7.85000007 Z M146.931252,15.4000002 L146.931252,9.15625009 L147.750002,9.15625009 L147.750002,15.4000002 L146.931252,15.4000002 Z M151.887502,15.4937502 C150.781252,15.4937502 150.187502,14.8437502 150.187502,13.6500002 L150.187502,9.8562501 L149.150002,9.8562501 L149.150002,9.15625009 L150.200002,9.15625009 L150.200002,7.35000006 L151.012502,6.74375006 L151.012502,9.15625009 L152.762502,9.15625009 L152.762502,9.8562501 L151.012502,9.8562501 L151.012502,13.5187502 C151.012502,14.4000002 151.362502,14.7625002 152.025002,14.7625002 C152.300002,14.7625002 152.581252,14.6812502 152.756252,14.6125002 L152.768752,15.3687502 C152.575002,15.4312502 152.237502,15.4937502 151.887502,15.4937502 Z M156.781252,15.4937502 C154.900002,15.4937502 153.868752,14.1000002 153.868752,12.3062501 C153.868752,10.5437501 154.862502,9.05625009 156.681252,9.05625009 C158.718752,9.05625009 159.387502,10.7062501 159.387502,11.9437501 C159.387502,12.1562501 159.368752,12.4062501 159.343752,12.5000001 L154.743752,12.5000001 C154.806252,13.8937502 155.531252,14.7437502 156.787502,14.7437502 C157.537502,14.7437502 158.056252,14.5375002 158.618752,13.9500002 L159.193752,14.4562502 C158.493752,15.1875002 157.787502,15.4937502 156.781252,15.4937502 Z M154.743752,11.8875001 L158.562502,11.8875001 C158.568752,11.7562501 158.568752,11.6187501 158.550002,11.4937501 C158.475002,10.6500001 157.912502,9.7625001 156.675002,9.7625001 C155.537502,9.7625001 154.850002,10.6375001 154.743752,11.8875001 Z M163.387502,15.4937502 C161.593752,15.4937502 160.575002,14.0562502 160.575002,12.2875001 C160.575002,10.6500001 161.500002,9.05625009 163.375002,9.05625009 C164.512502,9.05625009 165.425002,9.6500001 165.887502,10.7750001 L165.100002,11.0812501 C164.806252,10.3000001 164.175002,9.8125001 163.375002,9.8125001 C162.031252,9.8125001 161.412502,11.0187501 161.412502,12.2875001 C161.412502,13.5750002 162.031252,14.7437502 163.381252,14.7437502 C164.193752,14.7437502 164.818752,14.2625002 165.068752,13.4875002 L165.825002,13.7750002 C165.443752,14.8625002 164.537502,15.4937502 163.387502,15.4937502 Z M169.337502,15.4937502 C168.231252,15.4937502 167.637502,14.8437502 167.637502,13.6500002 L167.637502,9.8562501 L166.600002,9.8562501 L166.600002,9.15625009 L167.650002,9.15625009 L167.650002,7.35000006 L168.462502,6.74375006 L168.462502,9.15625009 L170.212502,9.15625009 L170.212502,9.8562501 L168.462502,9.8562501 L168.462502,13.5187502 C168.462502,14.4000002 168.812502,14.7625002 169.475002,14.7625002 C169.750002,14.7625002 170.031252,14.6812502 170.206252,14.6125002 L170.218752,15.3687502 C170.025002,15.4312502 169.687502,15.4937502 169.337502,15.4937502 Z M171.475002,10.1750001 L172.781252,6.56875005 L173.725002,6.56875005 L172.050002,10.1750001 L171.475002,10.1750001 Z M173.587502,10.1750001 L174.893752,6.56875005 L175.837502,6.56875005 L174.162502,10.1750001 L173.587502,10.1750001 Z" id="Aragon-0.5-“The-Arch" fill="#7F8198"></path>
                                                    </g>
                                                    <g id="Group-8" transform="translate(0.000000, 109.999998)">
                                                        <g id="Rectangle-Copy-17">
                                                            <use fill="black" fill-opacity="1" filter="url(#filter-11)" xlink:href="#path-10"></use>
                                                            <use fill="#EBE4FF" fill-rule="evenodd" xlink:href="#path-10"></use>
                                                        </g>
                                                        <path d="M23.43125,15.4000002 L26.7125001,6.56875005 L27.4312501,6.56875005 L30.7062501,15.4000002 L29.7750001,15.4000002 L29.0250001,13.2687502 L25.13125,13.2687502 L24.36875,15.4000002 L23.43125,15.4000002 Z M25.4,12.5250001 L28.7562501,12.5250001 L27.0750001,7.76875007 L25.4,12.5250001 Z M32.2562501,15.4000002 L32.2562501,9.15625009 L33.0625001,9.15625009 L33.0625001,10.4625001 C33.3750002,9.5000001 34.2437502,9.05625009 34.9875002,9.05625009 C35.3375002,9.05625009 35.6937502,9.15625009 35.9625002,9.35625009 L35.5875002,10.0437501 C35.3687502,9.9250001 35.1250002,9.8625001 34.8750002,9.8625001 C34.0437502,9.8625001 33.0562501,10.5187501 33.0562501,12.2125001 L33.0562501,15.4000002 L32.2562501,15.4000002 Z M39.3187502,9.05625009 C40.9187503,9.05625009 41.8062503,10.0187501 41.8062503,11.5875001 L41.8062503,15.4000002 L41.1187503,15.4000002 L41.0625003,14.1312502 C40.5937503,15.0375002 39.7250002,15.4937502 38.7937502,15.4937502 C37.5250002,15.4937502 36.6375002,14.7875002 36.6375002,13.5875002 C36.6375002,12.3187501 37.6437502,11.8062501 39.2562502,11.8062501 L41.0562503,11.8062501 L41.0562503,11.7312501 C41.0562503,10.4125001 40.5750003,9.7875001 39.3250002,9.7875001 C38.4937502,9.7875001 37.9437502,10.1625001 37.5125002,10.8062501 L36.8812502,10.3437501 C37.4875002,9.5062501 38.2125002,9.05625009 39.3187502,9.05625009 Z M38.9500002,14.7875002 C40.0375003,14.7875002 40.7687503,14.0812502 41.0562503,13.0562501 L41.0562503,12.4187501 L39.3000002,12.4187501 C38.0687502,12.4187501 37.4812502,12.8625001 37.4812502,13.6125002 C37.4812502,14.3250002 38.0125002,14.7875002 38.9500002,14.7875002 Z M46.2875003,14.6250002 C47.5187504,14.8000002 48.8500004,15.0125002 48.8500004,16.3250002 C48.8500004,17.6000002 47.7687504,18.3000002 46.2562503,18.3000002 C44.5500003,18.3000002 43.5000003,17.4062502 43.5000003,16.1375002 C43.5000003,16.0312502 43.5062503,15.9562502 43.5187503,15.8750002 L44.3937503,15.0062502 C43.9250003,14.7937502 43.5937503,14.4500002 43.5750003,13.8375002 C43.5750003,13.3875002 43.7687503,13.0250001 44.1125003,12.7312501 C43.7625003,12.3500001 43.5625003,11.8500001 43.5625003,11.2812501 C43.5625003,9.9750001 44.6250003,9.05625009 45.9750003,9.05625009 C46.6062504,9.05625009 47.1687504,9.25625009 47.5937504,9.6062501 L48.5312504,8.77500009 L48.9625004,9.31250009 L48.0437504,10.1125001 C48.2562504,10.4562501 48.3812504,10.8625001 48.3812504,11.3250001 C48.3812504,12.6375001 47.3375004,13.5062502 45.9937503,13.5062502 C45.4750003,13.5062502 45.0062503,13.3750002 44.6250003,13.1500002 C44.4000003,13.3000002 44.2937503,13.4812502 44.2937503,13.7000002 C44.3187503,14.3625002 45.1937503,14.4750002 46.2875003,14.6250002 Z M46.0000003,9.7125001 C45.0437503,9.7125001 44.4125003,10.3625001 44.4125003,11.2875001 C44.4125003,12.1875001 45.0312503,12.8187501 45.9937503,12.8187501 C46.9625004,12.8187501 47.5625004,12.1937501 47.5625004,11.2937501 C47.5625004,10.3625001 46.9562504,9.7125001 46.0000003,9.7125001 Z M46.2500003,17.6437502 C47.2687504,17.6437502 48.0625004,17.2625002 48.0625004,16.4250002 C48.0625004,15.6437502 47.1437504,15.5375002 46.0000003,15.3750002 C45.6375003,15.3250002 45.2500003,15.2750002 44.9000003,15.1812502 L44.1812503,16.0500002 C44.1812503,16.1250002 44.1875003,16.1812502 44.1937503,16.2375002 C44.2875003,17.1437502 45.1187503,17.6437502 46.2500003,17.6437502 Z M52.9000004,15.4937502 C51.1250004,15.4937502 49.8875004,14.0625002 49.8875004,12.2625001 C49.8875004,10.4812501 51.1250004,9.05625009 52.9000004,9.05625009 C54.6812505,9.05625009 55.9375005,10.4812501 55.9375005,12.2625001 C55.9375005,14.0562502 54.6812505,15.4937502 52.9000004,15.4937502 Z M52.9000004,14.7750002 C54.2625005,14.7750002 55.0812505,13.6437502 55.0812505,12.2625001 C55.0812505,10.8875001 54.2625005,9.7812501 52.9000004,9.7812501 C51.5500004,9.7812501 50.7437504,10.8812501 50.7437504,12.2625001 C50.7437504,13.6500002 51.5500004,14.7750002 52.9000004,14.7750002 Z M57.6312505,15.4000002 L57.6312505,9.15625009 L58.4562505,9.15625009 L58.4562505,10.2187501 C58.8500005,9.4562501 59.5875005,9.05625009 60.4125006,9.05625009 C61.8687506,9.05625009 62.5562506,10.0937501 62.5812506,11.4437501 L62.5812506,15.4000002 L61.7562506,15.4000002 L61.7562506,11.6375001 C61.7562506,10.5000001 61.2187506,9.8250001 60.1937506,9.8250001 C59.1375005,9.8250001 58.4562505,10.4937501 58.4562505,11.7062501 L58.4562505,15.4000002 L57.6312505,15.4000002 Z M70.5437507,15.4937502 C67.9812507,15.4937502 67.4125007,12.9000001 67.4125007,10.9812501 C67.4125007,9.05000009 67.9625007,6.45625005 70.4562507,6.45625005 C72.7187507,6.45625005 73.5687508,8.76250009 73.5687508,11.0062501 C73.5687508,13.2250002 72.7375007,15.4937502 70.5437507,15.4937502 Z M70.5250007,14.6812502 C72.1687507,14.6812502 72.6875007,12.7937501 72.6875007,10.9875001 C72.6875007,9.15625009 72.1562507,7.28750006 70.4562507,7.28750006 C68.6562507,7.28750006 68.2562507,9.29375009 68.2562507,10.9812501 C68.2562507,12.6562501 68.6625007,14.6812502 70.5250007,14.6812502 Z M75.7125008,15.4000002 L75.7125008,14.0250002 L76.5437508,14.0250002 L76.5437508,15.4000002 L75.7125008,15.4000002 Z M81.7750009,9.6375001 C83.4125009,9.6375001 84.7625009,10.9562501 84.7625009,12.5625001 C84.7625009,14.1812502 83.4187509,15.4937502 81.7750009,15.4937502 C80.1250009,15.4937502 78.7812508,14.1812502 78.7812508,12.5625001 C78.7812508,11.9937501 78.9500008,11.4562501 79.2437508,11.0062501 L81.8937509,6.56875005 L82.8687509,6.56875005 L80.9750009,9.7437501 C81.2312509,9.6750001 81.5000009,9.6375001 81.7750009,9.6375001 Z M81.7750009,14.6937502 C82.9562509,14.6937502 83.9250009,13.7375002 83.9250009,12.5625001 C83.9250009,11.4000001 82.9562509,10.4375001 81.7750009,10.4375001 C80.5812509,10.4375001 79.6187508,11.4000001 79.6187508,12.5625001 C79.6187508,13.7437502 80.5750009,14.6937502 81.7750009,14.6937502 Z M91.943751,9.05625009 C93.5437511,9.05625009 94.4312511,10.0187501 94.4312511,11.5875001 L94.4312511,15.4000002 L93.7437511,15.4000002 L93.6875011,14.1312502 C93.218751,15.0375002 92.350001,15.4937502 91.418751,15.4937502 C90.150001,15.4937502 89.262501,14.7875002 89.262501,13.5875002 C89.262501,12.3187501 90.268751,11.8062501 91.881251,11.8062501 L93.6812511,11.8062501 L93.6812511,11.7312501 C93.6812511,10.4125001 93.200001,9.7875001 91.950001,9.7875001 C91.118751,9.7875001 90.568751,10.1625001 90.137501,10.8062501 L89.506251,10.3437501 C90.112501,9.5062501 90.837501,9.05625009 91.943751,9.05625009 Z M91.575001,14.7875002 C92.662501,14.7875002 93.393751,14.0812502 93.6812511,13.0562501 L93.6812511,12.4187501 L91.925001,12.4187501 C90.693751,12.4187501 90.106251,12.8625001 90.106251,13.6125002 C90.106251,14.3250002 90.637501,14.7875002 91.575001,14.7875002 Z M96.5000011,15.4000002 L96.5000011,9.15625009 L97.3250011,9.15625009 L97.3250011,10.2187501 C97.7187511,9.4562501 98.4562511,9.05625009 99.2812511,9.05625009 C100.737501,9.05625009 101.425001,10.0937501 101.450001,11.4437501 L101.450001,15.4000002 L100.625001,15.4000002 L100.625001,11.6375001 C100.625001,10.5000001 100.087501,9.8250001 99.0625011,9.8250001 C98.0062511,9.8250001 97.3250011,10.4937501 97.3250011,11.7062501 L97.3250011,15.4000002 L96.5000011,15.4000002 Z M105.800001,15.4937502 C104.106251,15.4937502 103.012501,14.0500002 103.012501,12.2687501 C103.012501,10.5062501 104.106251,9.05625009 105.787501,9.05625009 C106.768751,9.05625009 107.637501,9.6125001 108.025001,10.5312501 L108.025001,6.56875005 L108.862501,6.56875005 L108.862501,15.4000002 L108.087501,15.4000002 L108.056251,13.9812502 C107.668751,14.9250002 106.800001,15.4937502 105.800001,15.4937502 Z M105.981251,14.7437502 C107.281251,14.7437502 108.087501,13.6812502 108.087501,12.2687501 C108.087501,10.8750001 107.281251,9.8125001 105.981251,9.8125001 C104.681251,9.8125001 103.850001,10.8875001 103.850001,12.2687501 C103.850001,13.6625002 104.681251,14.7437502 105.981251,14.7437502 Z M114.387501,15.4000002 L114.381251,9.15625009 L115.181251,9.15625009 L115.181251,10.2437501 C115.525001,9.4437501 116.225001,9.05625009 117.062501,9.05625009 C117.981251,9.05625009 118.706251,9.4812501 118.987501,10.4375001 C119.356251,9.5250001 120.125001,9.05625009 121.050001,9.05625009 C122.550001,9.05625009 123.200001,10.1500001 123.200001,11.7500001 L123.200001,15.4000002 L122.375001,15.4000002 L122.375001,11.8500001 C122.375001,10.5562501 121.962501,9.8312501 120.900001,9.8312501 C119.862501,9.8312501 119.206251,10.6125001 119.206251,11.7000001 L119.206251,15.4000002 L118.381251,15.4000002 L118.381251,11.6250001 C118.381251,10.5187501 117.937501,9.8312501 116.912501,9.8312501 C115.868751,9.8312501 115.212501,10.6125001 115.212501,11.7000001 L115.212501,15.4000002 L114.387501,15.4000002 Z M127.381252,9.05625009 C128.981252,9.05625009 129.868752,10.0187501 129.868752,11.5875001 L129.868752,15.4000002 L129.181252,15.4000002 L129.125002,14.1312502 C128.656252,15.0375002 127.787502,15.4937502 126.856252,15.4937502 C125.587502,15.4937502 124.700002,14.7875002 124.700002,13.5875002 C124.700002,12.3187501 125.706252,11.8062501 127.318752,11.8062501 L129.118752,11.8062501 L129.118752,11.7312501 C129.118752,10.4125001 128.637502,9.7875001 127.387502,9.7875001 C126.556252,9.7875001 126.006252,10.1625001 125.575002,10.8062501 L124.943752,10.3437501 C125.550002,9.5062501 126.275002,9.05625009 127.381252,9.05625009 Z M127.012502,14.7875002 C128.100002,14.7875002 128.831252,14.0812502 129.118752,13.0562501 L129.118752,12.4187501 L127.362502,12.4187501 C126.131252,12.4187501 125.543752,12.8625001 125.543752,13.6125002 C125.543752,14.3250002 126.075002,14.7875002 127.012502,14.7875002 Z M131.918752,7.85000007 L131.918752,6.56875005 L132.781252,6.56875005 L132.781252,7.85000007 L131.918752,7.85000007 Z M131.937502,15.4000002 L131.937502,9.15625009 L132.756252,9.15625009 L132.756252,15.4000002 L131.937502,15.4000002 Z M134.993752,15.4000002 L134.993752,9.15625009 L135.818752,9.15625009 L135.818752,10.2187501 C136.212502,9.4562501 136.950002,9.05625009 137.775002,9.05625009 C139.231252,9.05625009 139.918752,10.0937501 139.943752,11.4437501 L139.943752,15.4000002 L139.118752,15.4000002 L139.118752,11.6375001 C139.118752,10.5000001 138.581252,9.8250001 137.556252,9.8250001 C136.500002,9.8250001 135.818752,10.4937501 135.818752,11.7062501 L135.818752,15.4000002 L134.993752,15.4000002 Z M142.018752,15.4000002 L142.018752,9.15625009 L142.843752,9.15625009 L142.843752,10.2187501 C143.237502,9.4562501 143.975002,9.05625009 144.800002,9.05625009 C146.256252,9.05625009 146.943752,10.0937501 146.968752,11.4437501 L146.968752,15.4000002 L146.143752,15.4000002 L146.143752,11.6375001 C146.143752,10.5000001 145.606252,9.8250001 144.581252,9.8250001 C143.525002,9.8250001 142.843752,10.4937501 142.843752,11.7062501 L142.843752,15.4000002 L142.018752,15.4000002 Z M151.450002,15.4937502 C149.568752,15.4937502 148.537502,14.1000002 148.537502,12.3062501 C148.537502,10.5437501 149.531252,9.05625009 151.350002,9.05625009 C153.387502,9.05625009 154.056252,10.7062501 154.056252,11.9437501 C154.056252,12.1562501 154.037502,12.4062501 154.012502,12.5000001 L149.412502,12.5000001 C149.475002,13.8937502 150.200002,14.7437502 151.456252,14.7437502 C152.206252,14.7437502 152.725002,14.5375002 153.287502,13.9500002 L153.862502,14.4562502 C153.162502,15.1875002 152.456252,15.4937502 151.450002,15.4937502 Z M149.412502,11.8875001 L153.231252,11.8875001 C153.237502,11.7562501 153.237502,11.6187501 153.218752,11.4937501 C153.143752,10.6500001 152.581252,9.7625001 151.343752,9.7625001 C150.206252,9.7625001 149.518752,10.6375001 149.412502,11.8875001 Z M157.656252,15.4937502 C156.550002,15.4937502 155.956252,14.8437502 155.956252,13.6500002 L155.956252,9.8562501 L154.918752,9.8562501 L154.918752,9.15625009 L155.968752,9.15625009 L155.968752,7.35000006 L156.781252,6.74375006 L156.781252,9.15625009 L158.531252,9.15625009 L158.531252,9.8562501 L156.781252,9.8562501 L156.781252,13.5187502 C156.781252,14.4000002 157.131252,14.7625002 157.793752,14.7625002 C158.068752,14.7625002 158.350002,14.6812502 158.525002,14.6125002 L158.537502,15.3687502 C158.343752,15.4312502 158.006252,15.4937502 157.656252,15.4937502 Z M164.531252,15.4937502 C163.643752,15.4937502 163.381252,14.9625002 163.381252,14.0812502 L163.381252,6.56875005 L164.206252,6.56875005 L164.206252,13.8687502 C164.206252,14.3500002 164.268752,14.7500002 164.893752,14.7500002 C165.025002,14.7500002 165.212502,14.7250002 165.400002,14.6875002 L165.412502,15.3937502 C165.137502,15.4500002 164.800002,15.4937502 164.531252,15.4937502 Z M168.956252,9.05625009 C170.556252,9.05625009 171.443752,10.0187501 171.443752,11.5875001 L171.443752,15.4000002 L170.756252,15.4000002 L170.700002,14.1312502 C170.231252,15.0375002 169.362502,15.4937502 168.431252,15.4937502 C167.162502,15.4937502 166.275002,14.7875002 166.275002,13.5875002 C166.275002,12.3187501 167.281252,11.8062501 168.893752,11.8062501 L170.693752,11.8062501 L170.693752,11.7312501 C170.693752,10.4125001 170.212502,9.7875001 168.962502,9.7875001 C168.131252,9.7875001 167.581252,10.1625001 167.150002,10.8062501 L166.518752,10.3437501 C167.125002,9.5062501 167.850002,9.05625009 168.956252,9.05625009 Z M168.587502,14.7875002 C169.675002,14.7875002 170.406252,14.0812502 170.693752,13.0562501 L170.693752,12.4187501 L168.937502,12.4187501 C167.706252,12.4187501 167.118752,12.8625001 167.118752,13.6125002 C167.118752,14.3250002 167.650002,14.7875002 168.587502,14.7875002 Z M175.518752,15.4937502 C174.056252,15.4937502 173.381252,14.4562502 173.356252,13.1062502 L173.356252,9.15625009 L174.175002,9.15625009 L174.175002,12.9187501 C174.175002,14.0562502 174.712502,14.7250002 175.737502,14.7250002 C176.787502,14.7250002 177.475002,14.0625002 177.475002,12.8437501 L177.475002,9.15625009 L178.293752,9.15625009 L178.293752,15.4000002 L177.475002,15.4000002 L177.475002,14.3375002 C177.087502,15.1000002 176.343752,15.4937502 175.518752,15.4937502 Z M180.531252,15.4000002 L180.531252,9.15625009 L181.356252,9.15625009 L181.356252,10.2187501 C181.750002,9.4562501 182.487502,9.05625009 183.312502,9.05625009 C184.768752,9.05625009 185.456252,10.0937501 185.481252,11.4437501 L185.481252,15.4000002 L184.656252,15.4000002 L184.656252,11.6375001 C184.656252,10.5000001 184.118752,9.8250001 183.093752,9.8250001 C182.037502,9.8250001 181.356252,10.4937501 181.356252,11.7062501 L181.356252,15.4000002 L180.531252,15.4000002 Z M189.856252,15.4937502 C188.062502,15.4937502 187.043752,14.0562502 187.043752,12.2875001 C187.043752,10.6500001 187.968752,9.05625009 189.843752,9.05625009 C190.981253,9.05625009 191.893753,9.6500001 192.356253,10.7750001 L191.568753,11.0812501 C191.275003,10.3000001 190.643752,9.8125001 189.843752,9.8125001 C188.500002,9.8125001 187.881252,11.0187501 187.881252,12.2875001 C187.881252,13.5750002 188.500002,14.7437502 189.850002,14.7437502 C190.662502,14.7437502 191.287503,14.2625002 191.537503,13.4875002 L192.293753,13.7750002 C191.912503,14.8625002 191.006253,15.4937502 189.856252,15.4937502 Z M193.918753,15.4000002 L193.918753,6.56875005 L194.756253,6.56875005 L194.756253,10.2187501 C195.150003,9.4562501 195.875003,9.05625009 196.700003,9.05625009 C198.156253,9.05625009 198.856253,10.0937501 198.881253,11.4437501 L198.881253,15.4000002 L198.043753,15.4000002 L198.043753,11.6375001 C198.043753,10.5250001 197.606253,9.8125001 196.512503,9.8125001 C195.400003,9.8125001 194.756253,10.6437501 194.756253,11.8375001 L194.756253,15.4000002 L193.918753,15.4000002 Z" id="Aragon-0.6-and-mainn" fill="#7F8198"></path>
                                                    </g>
                                                </g>
                                                <g id="Group-9">
                                                    <path d="M34.1146483,6.94863243 L34.8107421,6.94863243 L34.8107421,14.3999996 L34.0460937,14.3999996 L30.3388671,8.09296837 L30.3388671,14.3999996 L29.6427733,14.3999996 L29.6427733,6.94863243 L30.4074218,6.94863243 L34.1146483,13.2345699 L34.1146483,6.94863243 Z M40.6947265,14.4791012 C38.374414,14.4791012 37.2828124,12.7019527 37.2828124,10.6716793 C37.2828124,8.64140587 38.374414,6.86953087 40.6947265,6.86953087 C43.0308593,6.86953087 44.1171874,8.64140587 44.1171874,10.6716793 C44.1171874,12.7019527 43.0308593,14.4791012 40.6947265,14.4791012 Z M40.6947265,13.8304684 C42.5667968,13.8304684 43.3578124,12.3802731 43.3578124,10.6716793 C43.3578124,8.96835899 42.5667968,7.51289024 40.6947265,7.51289024 C38.8384765,7.51289024 38.0421874,8.96835899 38.0421874,10.6716793 C38.0421874,12.3802731 38.8384765,13.8304684 40.6947265,13.8304684 Z M51.1876953,6.94863243 L51.9787109,6.94863243 L49.0361328,14.3999996 L48.4507812,14.3999996 L45.4976562,6.94863243 L46.2939453,6.94863243 L48.7460937,13.2978512 L51.1876953,6.94863243 Z M57.9248047,13.7408199 L62.0539062,13.7408199 L62.0539062,14.3999996 L56.8490234,14.3999996 L56.8490234,13.7408199 C58.6208984,12.6333981 60.9359375,11.0513668 60.9359375,9.04218712 C60.9359375,8.13515587 60.4033203,7.52343712 59.4224609,7.52343712 C58.278125,7.52343712 57.7613281,8.35136681 57.7402344,9.45351524 L57.0335938,9.41132774 C57.0335938,7.96640587 57.9037109,6.87480431 59.4171875,6.87480431 C60.7513672,6.87480431 61.6583984,7.67636681 61.6583984,9.05800743 C61.6583984,11.0460934 59.5701172,12.7546871 57.9248047,13.7408199 Z M66.2556641,14.4791012 C64.0935547,14.4791012 63.6136719,12.2906246 63.6136719,10.6716793 C63.6136719,9.04218712 64.0777344,6.85371056 66.181836,6.85371056 C68.0908203,6.85371056 68.8080078,8.79960899 68.8080078,10.6927731 C68.8080078,12.5648434 68.1066406,14.4791012 66.2556641,14.4791012 Z M66.2398438,13.7935543 C67.6267578,13.7935543 68.0644531,12.2009762 68.0644531,10.6769527 C68.0644531,9.13183556 67.616211,7.55507774 66.181836,7.55507774 C64.663086,7.55507774 64.325586,9.24785118 64.325586,10.6716793 C64.325586,12.0849606 64.6683594,13.7935543 66.2398438,13.7935543 Z M73.2154297,6.94863243 L73.9009766,6.94863243 L73.9009766,14.3999996 L73.1890625,14.3999996 L73.1890625,8.71523399 L71.3117188,8.71523399 L71.3117188,8.15097618 L72.5826172,8.15097618 C72.9939454,8.15097618 73.2154297,7.99277306 73.2154297,7.59199181 L73.2154297,6.94863243 Z M79.8376954,9.53789024 C81.219336,9.53789024 82.3583985,10.6505856 82.3583985,12.005859 C82.3583985,13.3716793 81.2246094,14.4791012 79.8376954,14.4791012 C78.4455079,14.4791012 77.3117188,13.3716793 77.3117188,12.005859 C77.3117188,11.5259762 77.4541016,11.0724606 77.7019532,10.6927731 L79.9378907,6.94863243 L80.7605469,6.94863243 L79.1626954,9.62753868 C79.3789063,9.56953087 79.6056641,9.53789024 79.8376954,9.53789024 Z M79.8376954,13.8041012 C80.8343751,13.8041012 81.6517579,12.9972652 81.6517579,12.005859 C81.6517579,11.0249996 80.8343751,10.2128902 79.8376954,10.2128902 C78.8304688,10.2128902 78.0183594,11.0249996 78.0183594,12.005859 C78.0183594,13.0025387 78.8251954,13.8041012 79.8376954,13.8041012 Z" id="NOV-2016" fill="#7F8198"></path>
                                                    <circle id="Oval" fill="#F9F5DE" cx="11.5" cy="11.5" r="5.5"></circle>
                                                    <circle id="Oval-Copy-3" fill="#F9F5DE" opacity="0.207473028" cx="11.5" cy="11.5" r="11.5"></circle>
                                                </g>
                                                <g id="Group-10" transform="translate(0.000000, 55.000000)">
                                                    <path d="M27.18125,16.3999996 L27.18125,8.94863243 L32.2173828,8.94863243 L32.2173828,9.61835899 L27.9037109,9.61835899 L27.9037109,12.3236324 L31.6900391,12.3236324 L31.6900391,12.993359 L27.9037109,12.993359 L27.9037109,16.3999996 L27.18125,16.3999996 Z M34.4257813,16.3999996 L34.4257813,8.94863243 L39.2984375,8.94863243 L39.2984375,9.61835899 L35.1482422,9.61835899 L35.1482422,12.3236324 L38.881836,12.3236324 L38.881836,12.993359 L35.1482422,12.993359 L35.1482422,15.7144527 L39.2984375,15.7144527 L39.2984375,16.3999996 L34.4257813,16.3999996 Z M41.7441407,16.3999996 L41.7441407,8.94863243 L44.0011719,8.94863243 C45.2509766,8.94863243 46.231836,9.51816368 46.231836,10.8628902 C46.231836,11.6222652 45.7835938,12.2287106 45.2246094,12.4554684 C46.0472657,12.655859 46.5957032,13.4099606 46.5957032,14.3380856 C46.5957032,15.6775387 45.6095704,16.3999996 44.2173829,16.3999996 L41.7441407,16.3999996 Z M42.4666016,12.2128902 L44.2279297,12.2128902 C44.9609375,12.2128902 45.5621094,11.7593746 45.5621094,10.9050777 C45.5621094,10.0455074 44.9925782,9.60781212 44.0117188,9.60781212 L42.4666016,9.60781212 L42.4666016,12.2128902 Z M42.4666016,15.7091793 L44.2279297,15.7091793 C45.3089844,15.7091793 45.8837891,15.2240231 45.8837891,14.258984 C45.8837891,13.415234 45.3353516,12.8457027 44.4177735,12.8457027 L42.4666016,12.8457027 L42.4666016,15.7091793 Z M52.8634767,15.7408199 L56.9925782,15.7408199 L56.9925782,16.3999996 L51.7876954,16.3999996 L51.7876954,15.7408199 C53.5595704,14.6333981 55.8746095,13.0513668 55.8746095,11.0421871 C55.8746095,10.1351559 55.3419923,9.52343712 54.3611329,9.52343712 C53.216797,9.52343712 52.7000001,10.3513668 52.6789063,11.4535152 L51.9722657,11.4113277 C51.9722657,9.96640587 52.8423829,8.87480431 54.3558595,8.87480431 C55.6900392,8.87480431 56.5970704,9.67636681 56.5970704,11.0580074 C56.5970704,13.0460934 54.5087892,14.7546871 52.8634767,15.7408199 Z M61.1943361,16.4791012 C59.0322267,16.4791012 58.5523439,14.2906246 58.5523439,12.6716793 C58.5523439,11.0421871 59.0164064,8.85371056 61.1205079,8.85371056 C63.0294923,8.85371056 63.7466798,10.799609 63.7466798,12.6927731 C63.7466798,14.5648434 63.0453126,16.4791012 61.1943361,16.4791012 Z M61.1785157,15.7935543 C62.5654298,15.7935543 63.0031251,14.2009762 63.0031251,12.6769527 C63.0031251,11.1318356 62.5548829,9.55507774 61.1205079,9.55507774 C59.6017579,9.55507774 59.2642579,11.2478512 59.2642579,12.6716793 C59.2642579,14.0849606 59.6070314,15.7935543 61.1785157,15.7935543 Z M68.1541017,8.94863243 L68.8396486,8.94863243 L68.8396486,16.3999996 L68.1277345,16.3999996 L68.1277345,10.715234 L66.2503908,10.715234 L66.2503908,10.1509762 L67.5212892,10.1509762 C67.9326173,10.1509762 68.1541017,9.99277306 68.1541017,9.59199181 L68.1541017,8.94863243 Z M72.144922,8.94863243 L77.4763674,8.94863243 L77.4763674,9.38632774 L73.8271486,16.3999996 L73.0255861,16.3999996 L76.6220705,9.61308556 L72.144922,9.61308556 L72.144922,8.94863243 Z" id="FEB-2017" fill="#7F8198"></path>
                                                    <circle id="Oval" fill="#CFECE4" cx="11.5" cy="11.5" r="5.5"></circle>
                                                    <circle id="Oval-Copy-3" fill="#CFEBE3" opacity="0.207473028" cx="11.5" cy="11.5" r="11.5"></circle>
                                                </g>
                                                <g id="Group-11" transform="translate(0.000000, 110.000000)">
                                                    <path d="M33.1876953,8.74863358 L34.184375,8.74863358 L34.184375,16.2000008 L33.4882812,16.2000008 L33.4882812,9.69785233 L31.0361328,15.588282 L30.3294922,15.588282 L27.8773438,9.68730545 L27.8773438,16.2000008 L27.18125,16.2000008 L27.18125,8.74863358 L28.1832031,8.74863358 L30.6880859,14.7814461 L33.1876953,8.74863358 Z M36.3347656,16.2000008 L39.1033203,8.74863358 L39.7097656,8.74863358 L42.4730469,16.2000008 L41.6873047,16.2000008 L41.0544922,14.4017586 L37.7691406,14.4017586 L37.1257813,16.2000008 L36.3347656,16.2000008 Z M37.9958985,13.7742195 L40.8277344,13.7742195 L39.4091797,9.76113358 L37.9958985,13.7742195 Z M45.7730469,16.2000008 L45.7730469,13.3523445 L42.9359375,8.74863358 L43.8113282,8.74863358 L46.1421875,12.6457039 L48.4783204,8.74863358 L49.3589844,8.74863358 L46.521875,13.3523445 L46.521875,16.2000008 L45.7730469,16.2000008 Z M55.241797,15.5408211 L59.3708985,15.5408211 L59.3708985,16.2000008 L54.1660157,16.2000008 L54.1660157,15.5408211 C55.9378907,14.4333992 58.2529298,12.851368 58.2529298,10.8421883 C58.2529298,9.93515701 57.7203126,9.32343826 56.7394532,9.32343826 C55.5951173,9.32343826 55.0783204,10.151368 55.0572267,11.2535164 L54.350586,11.2113289 C54.350586,9.76640701 55.2207032,8.67480545 56.7341798,8.67480545 C58.0683595,8.67480545 58.9753907,9.47636795 58.9753907,10.8580086 C58.9753907,12.8460945 56.8871095,14.5546883 55.241797,15.5408211 Z M63.5726564,16.2791023 C61.410547,16.2791023 60.9306642,14.0906258 60.9306642,12.4716805 C60.9306642,10.8421883 61.3947267,8.6537117 63.4988282,8.6537117 C65.4078126,8.6537117 66.1250001,10.5996101 66.1250001,12.4927742 C66.1250001,14.3648445 65.4236329,16.2791023 63.5726564,16.2791023 Z M63.5568361,15.5935555 C64.9437501,15.5935555 65.3814454,14.0009773 65.3814454,12.4769539 C65.3814454,10.9318367 64.9332032,9.35507889 63.4988282,9.35507889 C61.9800782,9.35507889 61.6425782,11.0478523 61.6425782,12.4716805 C61.6425782,13.8849617 61.9853517,15.5935555 63.5568361,15.5935555 Z M70.532422,8.74863358 L71.2179689,8.74863358 L71.2179689,16.2000008 L70.5060548,16.2000008 L70.5060548,10.5152351 L68.6287111,10.5152351 L68.6287111,9.95097733 L69.8996095,9.95097733 C70.3109376,9.95097733 70.532422,9.7927742 70.532422,9.39199295 L70.532422,8.74863358 Z M74.5232424,8.74863358 L79.8546877,8.74863358 L79.8546877,9.18632889 L76.2054689,16.2000008 L75.4039064,16.2000008 L79.0003908,9.4130867 L74.5232424,9.4130867 L74.5232424,8.74863358 Z" id="MAY-2017" fill="#7F8198"></path>
                                                    <circle id="Oval" fill="#CFECE4" cx="11.5" cy="11.5" r="5.5"></circle>
                                                    <circle id="Oval-Copy-3" fill="#CFEBE3" opacity="0.207473028" cx="11.5" cy="11.5" r="11.5"></circle>
                                                </g>
                                                <g id="Group-13" transform="translate(0.000000, 165.000000)">
                                                    <path d="M33.1876953,8.94863243 L34.184375,8.94863243 L34.184375,16.3999996 L33.4882812,16.3999996 L33.4882812,9.89785118 L31.0361328,15.7882809 L30.3294922,15.7882809 L27.8773438,9.88730431 L27.8773438,16.3999996 L27.18125,16.3999996 L27.18125,8.94863243 L28.1832031,8.94863243 L30.6880859,14.9814449 L33.1876953,8.94863243 Z M36.3347656,16.3999996 L39.1033203,8.94863243 L39.7097656,8.94863243 L42.4730469,16.3999996 L41.6873047,16.3999996 L41.0544922,14.6017574 L37.7691406,14.6017574 L37.1257813,16.3999996 L36.3347656,16.3999996 Z M37.9958985,13.9742184 L40.8277344,13.9742184 L39.4091797,9.96113243 L37.9958985,13.9742184 Z M44.6181641,16.3999996 L44.6181641,8.94863243 L46.7064454,8.94863243 C48.1408204,8.94863243 49.184961,9.69746056 49.184961,11.0263668 C49.184961,12.0335934 48.5732422,12.7138668 47.6082032,12.9458981 L49.6701172,16.3999996 L48.847461,16.3999996 L46.9015625,13.0197262 C46.7486329,13.0302731 46.5746094,13.0355465 46.400586,13.0355465 L45.340625,13.0355465 L45.340625,16.3999996 L44.6181641,16.3999996 Z M45.3458985,12.4343746 L46.7644532,12.4343746 C47.8507813,12.4185543 48.4625,11.9228512 48.4625,11.0369137 C48.4625,10.1298824 47.8033204,9.60253868 46.7117188,9.60253868 L45.3458985,9.60253868 L45.3458985,12.4343746 Z M55.6953126,15.7408199 L59.8244142,15.7408199 L59.8244142,16.3999996 L54.6195313,16.3999996 L54.6195313,15.7408199 C56.3914063,14.6333981 58.7064454,13.0513668 58.7064454,11.0421871 C58.7064454,10.1351559 58.1738282,9.52343712 57.1929688,9.52343712 C56.0486329,9.52343712 55.531836,10.3513668 55.5107423,11.4535152 L54.8041017,11.4113277 C54.8041017,9.96640587 55.6742188,8.87480431 57.1876954,8.87480431 C58.5218751,8.87480431 59.4289063,9.67636681 59.4289063,11.0580074 C59.4289063,13.0460934 57.3406251,14.7546871 55.6953126,15.7408199 Z M64.026172,16.4791012 C61.8640626,16.4791012 61.3841798,14.2906246 61.3841798,12.6716793 C61.3841798,11.0421871 61.8482423,8.85371056 63.9523439,8.85371056 C65.8613282,8.85371056 66.5785157,10.799609 66.5785157,12.6927731 C66.5785157,14.5648434 65.8771486,16.4791012 64.026172,16.4791012 Z M64.0103517,15.7935543 C65.3972657,15.7935543 65.8349611,14.2009762 65.8349611,12.6769527 C65.8349611,11.1318356 65.3867189,9.55507774 63.9523439,9.55507774 C62.4335939,9.55507774 62.0960939,11.2478512 62.0960939,12.6716793 C62.0960939,14.0849606 62.4388673,15.7935543 64.0103517,15.7935543 Z M70.9859376,8.94863243 L71.6714845,8.94863243 L71.6714845,16.3999996 L70.9595705,16.3999996 L70.9595705,10.715234 L69.0822267,10.715234 L69.0822267,10.1509762 L70.3531251,10.1509762 C70.7644533,10.1509762 70.9859376,9.99277306 70.9859376,9.59199181 L70.9859376,8.94863243 Z M77.5712892,16.4791012 C76.3056642,16.4791012 75.0716799,15.7619137 75.0716799,14.3169918 C75.0716799,13.3677731 75.6306642,12.6453121 76.4849611,12.3605465 C75.8679689,12.065234 75.5041017,11.4693356 75.5041017,10.7310543 C75.5041017,9.53398399 76.5376955,8.86953087 77.5818361,8.86953087 C78.7208986,8.86953087 79.6595705,9.60781212 79.6595705,10.7679684 C79.6595705,11.4904293 79.2640627,12.0810543 78.6681642,12.3605465 C79.533008,12.6611324 80.0603517,13.3835934 80.0603517,14.3117184 C80.0603517,15.7671871 78.8316408,16.4791012 77.5712892,16.4791012 Z M77.5976564,12.0916012 C78.388672,12.0916012 78.9687502,11.5748043 78.9687502,10.7943356 C78.9687502,9.99277306 78.388672,9.47597618 77.592383,9.47597618 C76.8857424,9.47597618 76.2160158,9.90839806 76.2160158,10.7416012 C76.2160158,11.5484371 76.7644533,12.0916012 77.5976564,12.0916012 Z M77.5660158,15.8568356 C78.5046877,15.8568356 79.3431642,15.3400387 79.3431642,14.2853512 C79.3431642,13.3203121 78.5943361,12.7138668 77.5660158,12.7138668 C76.5166017,12.7138668 75.7783205,13.3203121 75.7783205,14.2800777 C75.7783205,15.3400387 76.6378908,15.8568356 77.5660158,15.8568356 Z" id="MAR-2018" fill="#7F8198"></path>
                                                    <circle id="Oval-Copy" fill="#EBE4FF" cx="11.5" cy="11.5" r="5.5"></circle>
                                                    <circle id="Oval-Copy-10" fill="#EBE4FF" opacity="0.207473028" cx="11.5" cy="11.5" r="11.5"></circle>
                                                </g>
                                                <g id="Group-14" transform="translate(0.000000, 220.000000)">
                                                    <path d="M31.653125,7.54863472 L32.3492187,7.54863472 L32.3492187,15.0000019 L31.5845703,15.0000019 L27.8773438,8.69297066 L27.8773438,15.0000019 L27.18125,15.0000019 L27.18125,7.54863472 L27.9458984,7.54863472 L31.653125,13.8345722 L31.653125,7.54863472 Z M38.2332031,15.0791035 C35.9128906,15.0791035 34.8212891,13.301955 34.8212891,11.2716816 C34.8212891,9.24140816 35.9128906,7.46953316 38.2332031,7.46953316 C40.569336,7.46953316 41.6556641,9.24140816 41.6556641,11.2716816 C41.6556641,13.301955 40.569336,15.0791035 38.2332031,15.0791035 Z M38.2332031,14.4304707 C40.1052735,14.4304707 40.8962891,12.9802753 40.8962891,11.2716816 C40.8962891,9.56836128 40.1052735,8.11289253 38.2332031,8.11289253 C36.3769531,8.11289253 35.5806641,9.56836128 35.5806641,11.2716816 C35.5806641,12.9802753 36.3769531,14.4304707 38.2332031,14.4304707 Z M48.7261719,7.54863472 L49.5171875,7.54863472 L46.5746094,15.0000019 L45.9892579,15.0000019 L43.0361329,7.54863472 L43.8324219,7.54863472 L46.2845704,13.8978535 L48.7261719,7.54863472 Z M55.4632813,14.3408222 L59.5923829,14.3408222 L59.5923829,15.0000019 L54.3875001,15.0000019 L54.3875001,14.3408222 C56.1593751,13.2334003 58.4744142,11.6513691 58.4744142,9.64218941 C58.4744142,8.73515816 57.941797,8.12343941 56.9609376,8.12343941 C55.8166017,8.12343941 55.2998048,8.95136909 55.278711,10.0535175 L54.5720704,10.01133 C54.5720704,8.56640816 55.4421876,7.47480659 56.9556642,7.47480659 C58.2898438,7.47480659 59.1968751,8.27636909 59.1968751,9.65800972 C59.1968751,11.6460957 57.1085938,13.3546894 55.4632813,14.3408222 Z M63.7941407,15.0791035 C61.6320314,15.0791035 61.1521486,12.8906269 61.1521486,11.2716816 C61.1521486,9.64218941 61.6162111,7.45371284 63.7203126,7.45371284 C65.629297,7.45371284 66.3464845,9.39961128 66.3464845,11.2927753 C66.3464845,13.1648457 65.6451173,15.0791035 63.7941407,15.0791035 Z M63.7783204,14.3935566 C65.1652345,14.3935566 65.6029298,12.8009785 65.6029298,11.276955 C65.6029298,9.73183784 65.1546876,8.15508003 63.7203126,8.15508003 C62.2015626,8.15508003 61.8640626,9.84785347 61.8640626,11.2716816 C61.8640626,12.6849628 62.2068361,14.3935566 63.7783204,14.3935566 Z M70.7539064,7.54863472 L71.4394533,7.54863472 L71.4394533,15.0000019 L70.7275392,15.0000019 L70.7275392,9.31523628 L68.8501955,9.31523628 L68.8501955,8.75097847 L70.1210939,8.75097847 C70.532422,8.75097847 70.7539064,8.59277534 70.7539064,8.19199409 L70.7539064,7.54863472 Z M77.339258,15.0791035 C76.073633,15.0791035 74.8396486,14.361916 74.8396486,12.9169941 C74.8396486,11.9677753 75.398633,11.2453144 76.2529299,10.9605488 C75.6359377,10.6652363 75.2720705,10.0693378 75.2720705,9.33105659 C75.2720705,8.13398628 76.3056642,7.46953316 77.3498049,7.46953316 C78.4888674,7.46953316 79.4275392,8.20781441 79.4275392,9.36797066 C79.4275392,10.0904316 79.0320314,10.6810566 78.436133,10.9605488 C79.3009767,11.2611347 79.8283205,11.9835957 79.8283205,12.9117207 C79.8283205,14.3671894 78.5996095,15.0791035 77.339258,15.0791035 Z M77.3656252,10.6916035 C78.1566408,10.6916035 78.7367189,10.1748066 78.7367189,9.39433784 C78.7367189,8.59277534 78.1566408,8.07597847 77.3603517,8.07597847 C76.6537111,8.07597847 75.9839845,8.50840034 75.9839845,9.34160347 C75.9839845,10.1484394 76.532422,10.6916035 77.3656252,10.6916035 Z M77.3339845,14.4568378 C78.2726564,14.4568378 79.111133,13.940041 79.111133,12.8853535 C79.111133,11.9203144 78.3623049,11.3138691 77.3339845,11.3138691 C76.2845705,11.3138691 75.5462892,11.9203144 75.5462892,12.88008 C75.5462892,13.940041 76.4058595,14.4568378 77.3339845,14.4568378 Z" id="NOV-2018" fill="#7F8198"></path>
                                                    <circle id="Oval-Copy-12" fill="#EBE4FF" cx="11.5" cy="11.5" r="5.5"></circle>
                                                    <circle id="Oval-Copy-11" fill="#EBE4FF" opacity="0.207473028" cx="11.5" cy="11.5" r="11.5"></circle>
                                                </g>
                                                <g id="Group" transform="translate(0.000000, 2.000000)">
                                                    <g id="Group-2"></g>
                                                    <g id="Group-2-Copy" transform="translate(0.000000, 52.000000)"></g>
                                                    <g id="Group-2-Copy-2" transform="translate(0.000000, 206.000000)"></g>
                                                </g>
                                            </g>
                                        </g>
                                    </g>
                                </g>
                            </g>
                        </g>
                    </g>
                </g>
            </g>
        </g>
    </g>
</svg>