<svg width="303" height="476" viewBox="0 0 303 476" fill="none" xmlns="http://www.w3.org/2000/svg">
<path fill-rule="evenodd" clip-rule="evenodd" d="M156.724 169.833C155.796 169.833 155.044 170.585 155.044 171.522V361.623H158.404V171.522C158.404 170.585 157.652 169.833 156.724 169.833Z" fill="url(#paint0_linear)"/>
<path fill-rule="evenodd" clip-rule="evenodd" d="M77.6177 263.526L42.7076 312.779L51.7142 319.594L86.6262 270.34L77.6177 263.526Z" fill="#038CAB"/>
<path d="M66.9998 255.879C66.9998 270.17 78.5224 281.756 92.7392 281.756C106.956 281.756 118.484 270.17 118.484 255.879C118.484 241.586 106.956 230 92.7392 230C78.5224 230 66.9998 241.586 66.9998 255.879Z" fill="#0191B1"/>
<g opacity="0.67" filter="url(#filter0_f)">
<ellipse cx="157.5" cy="426.5" rx="46.5" ry="13.5" fill="#173E69"/>
</g>
<path fill-rule="evenodd" clip-rule="evenodd" d="M157.221 432.029C179.916 432.029 200.367 416.765 219.248 378.286C243.922 328.002 243.029 291.589 232.744 264.092C222.462 236.595 194.282 221.606 157.038 221.606C119.795 221.606 91.6084 236.595 81.3249 264.092C71.0435 291.589 75.8374 350.247 105.018 396.24C115.414 412.624 134.527 432.029 157.221 432.029Z" fill="url(#paint1_linear)"/>
<path opacity="0.460403" fill-rule="evenodd" clip-rule="evenodd" d="M157.221 432.029C179.916 432.029 200.367 416.765 219.248 378.286C243.922 328.002 243.029 291.589 232.744 264.092C222.462 236.595 194.282 221.606 157.038 221.606C119.795 221.606 91.6084 236.595 81.3249 264.092C71.0435 291.589 75.8374 350.247 105.018 396.24C115.414 412.624 134.527 432.029 157.221 432.029Z" fill="url(#paint2_linear)"/>
<g opacity="0.502069" filter="url(#filter1_f)">
<path fill-rule="evenodd" clip-rule="evenodd" d="M160.415 239.958C113.734 239.958 75.8887 201.91 75.8887 154.98C75.8887 108.045 113.734 70 160.415 70C207.098 70 244.945 108.045 244.945 154.98C244.945 201.91 207.098 239.958 160.415 239.958Z" fill="url(#paint3_linear)"/>
</g>
<g filter="url(#filter2_f)">
<path fill-rule="evenodd" clip-rule="evenodd" d="M180.266 195.987C151.877 197.969 121.708 194.344 99.8055 185.112C93.1151 182.294 84.5857 175.777 80.3805 172.43C75.5137 164.639 75.8724 159.362 75.8724 150.241C75.8724 143.285 77.4735 136.604 80.3805 130.367C84.8676 134.732 91.3395 138.826 99.8055 142.394C121.708 151.627 151.877 155.253 180.266 153.271C192.662 151.627 203.54 155.518 203.54 173.65C203.54 190.817 192.323 194.344 180.266 195.987Z" fill="white"/>
</g>
<path opacity="0.873628" fill-rule="evenodd" clip-rule="evenodd" d="M221.462 245.486C207.42 229.914 184.744 221.604 157.038 221.604C131.786 221.604 110.723 228.515 96.5615 241.523C112.542 258.901 135.47 269.799 160.958 269.799C184.443 269.799 205.748 260.534 221.462 245.486Z" fill="#00A5CA"/>
<g opacity="0.2" filter="url(#filter3_f)">
<path d="M249 135C249 179.735 209.377 216 160.5 216C111.623 216 72 179.735 72 135C72 90.2649 111.623 54 160.5 54C209.377 54 249 90.2649 249 135Z" fill="url(#paint4_linear)"/>
</g>
<path fill-rule="evenodd" clip-rule="evenodd" d="M244.952 154.983C244.952 201.914 207.105 239.961 160.422 239.961C113.74 239.961 75.8953 201.914 75.8953 154.983C75.8953 108.049 113.74 70.0037 160.422 70.0037C207.105 70.0037 244.952 108.049 244.952 154.983Z" fill="url(#paint5_linear)"/>
<path fill-rule="evenodd" clip-rule="evenodd" d="M180.274 195.991C151.884 197.973 121.715 194.347 99.8129 185.116C93.1226 182.298 84.5933 175.781 80.3881 172.433C75.5213 164.643 75.8798 159.365 75.8798 150.245C75.8798 143.289 77.481 136.608 80.3881 130.371C84.8752 134.736 91.3469 138.83 99.8129 142.398C121.715 151.631 151.884 155.257 180.274 153.274C192.669 151.631 203.547 155.522 203.547 173.653C203.547 190.821 192.33 194.347 180.274 195.991Z" fill="white"/>
<g filter="url(#filter4_f)">
<path fill-rule="evenodd" clip-rule="evenodd" d="M180.274 195.991C151.884 197.973 121.715 194.347 99.8129 185.116C93.1226 182.298 84.5933 175.781 80.3881 172.433C75.5213 164.643 75.8798 159.365 75.8798 150.245C75.8798 143.289 77.481 136.608 80.3881 130.371C84.8752 134.736 91.3469 138.83 99.8129 142.398C121.715 151.631 151.884 155.257 180.274 153.274C192.669 151.631 203.547 155.522 203.547 173.653C203.547 190.821 192.33 194.347 180.274 195.991Z" fill="white"/>
</g>
<g opacity="0.6" filter="url(#filter5_f)">
<path fill-rule="evenodd" clip-rule="evenodd" d="M180.274 195.991C151.884 197.973 121.715 194.347 99.8129 185.116C93.1226 182.298 84.5933 175.781 80.3881 172.433C75.5213 164.643 75.8798 159.365 75.8798 150.245C75.8798 143.289 77.481 136.608 80.3881 130.371C84.8752 134.736 91.3469 138.83 99.8129 142.398C121.715 151.631 151.884 155.257 180.274 153.274C192.669 151.631 203.547 155.522 203.547 173.653C203.547 190.821 192.33 194.347 180.274 195.991Z" fill="white"/>
</g>
<path opacity="0.739258" fill-rule="evenodd" clip-rule="evenodd" d="M231.441 276.456C231.44 288.707 221.631 303.601 209.532 309.728C197.435 315.854 187.626 310.89 187.627 298.639C187.628 286.39 197.439 271.494 209.536 265.366C221.634 259.243 231.442 264.205 231.441 276.456Z" fill="#00A5CA"/>
<path fill-rule="evenodd" clip-rule="evenodd" d="M241.032 313.607L268.562 379.836L255.926 385.152L228.394 318.921L241.032 313.607Z" fill="#038CAB"/>
<path fill-rule="evenodd" clip-rule="evenodd" d="M254.752 300.679C254.752 314.972 243.228 326.558 229.016 326.558C214.796 326.558 203.273 314.972 203.273 300.679C203.273 286.384 214.796 274.802 229.016 274.802C243.228 274.802 254.752 286.384 254.752 300.679Z" fill="url(#paint6_linear)"/>
<path d="M258.806 368.021C245.195 375.625 234.16 394.119 234.163 409.323C234.16 423.246 243.405 458.437 255.407 458.471H255.453C256.55 458.467 257.669 458.168 258.808 457.532C272.419 449.93 283.45 396.998 283.45 381.79C283.45 371.001 277.899 364.766 269.812 364.766C266.498 364.768 262.76 365.813 258.806 368.021Z" fill="url(#paint7_linear)"/>
<path d="M52.148 304.747C59.6966 314.226 62.2116 330.606 57.7644 341.328C53.6948 351.148 36.7678 373.171 28.1412 369.566L28.108 369.552C27.3218 369.217 26.6051 368.668 25.9736 367.875C18.4244 358.397 25.9821 317.731 30.4289 307.005C33.5833 299.396 39.392 296.677 45.1982 299.123C47.5765 300.126 49.9546 301.994 52.148 304.747Z" fill="url(#paint8_linear)"/>
<defs>
<filter id="filter0_f" x="75" y="377" width="165" height="99" filterUnits="userSpaceOnUse" color-interpolation-filters="sRGB">
<feFlood flood-opacity="0" result="BackgroundImageFix"/>
<feBlend mode="normal" in="SourceGraphic" in2="BackgroundImageFix" result="shape"/>
<feGaussianBlur stdDeviation="18" result="effect1_foregroundBlur"/>
</filter>
<filter id="filter1_f" x="71.3887" y="65.5" width="178.056" height="178.958" filterUnits="userSpaceOnUse" color-interpolation-filters="sRGB">
<feFlood flood-opacity="0" result="BackgroundImageFix"/>
<feBlend mode="normal" in="SourceGraphic" in2="BackgroundImageFix" result="shape"/>
<feGaussianBlur stdDeviation="2.25" result="effect1_foregroundBlur"/>
</filter>
<filter id="filter2_f" x="73.1665" y="127.667" width="133.074" height="71.5452" filterUnits="userSpaceOnUse" color-interpolation-filters="sRGB">
<feFlood flood-opacity="0" result="BackgroundImageFix"/>
<feBlend mode="normal" in="SourceGraphic" in2="BackgroundImageFix" result="shape"/>
<feGaussianBlur stdDeviation="1.35" result="effect1_foregroundBlur"/>
</filter>
<filter id="filter3_f" x="18" y="0" width="285" height="270" filterUnits="userSpaceOnUse" color-interpolation-filters="sRGB">
<feFlood flood-opacity="0" result="BackgroundImageFix"/>
<feBlend mode="normal" in="SourceGraphic" in2="BackgroundImageFix" result="shape"/>
<feGaussianBlur stdDeviation="27" result="effect1_foregroundBlur"/>
</filter>
<filter id="filter4_f" x="55.8739" y="110.371" width="167.674" height="106.145" filterUnits="userSpaceOnUse" color-interpolation-filters="sRGB">
<feFlood flood-opacity="0" result="BackgroundImageFix"/>
<feBlend mode="normal" in="SourceGraphic" in2="BackgroundImageFix" result="shape"/>
<feGaussianBlur stdDeviation="10" result="effect1_foregroundBlur"/>
</filter>
<filter id="filter5_f" x="15.8739" y="70.3712" width="247.674" height="186.145" filterUnits="userSpaceOnUse" color-interpolation-filters="sRGB">
<feFlood flood-opacity="0" result="BackgroundImageFix"/>
<feBlend mode="normal" in="SourceGraphic" in2="BackgroundImageFix" result="shape"/>
<feGaussianBlur stdDeviation="30" result="effect1_foregroundBlur"/>
</filter>
<linearGradient id="paint0_linear" x1="156.723" y1="361.062" x2="156.723" y2="157.495" gradientUnits="userSpaceOnUse">
<stop/>
<stop offset="1" stop-color="#48D8F4"/>
</linearGradient>
<linearGradient id="paint1_linear" x1="169.333" y1="300.326" x2="169.333" y2="432.029" gradientUnits="userSpaceOnUse">
<stop stop-color="#06BCE5"/>
<stop offset="1" stop-color="#35F7EE"/>
</linearGradient>
<linearGradient id="paint2_linear" x1="169.333" y1="300.326" x2="169.333" y2="432.029" gradientUnits="userSpaceOnUse">
<stop stop-color="#06BCE5"/>
<stop offset="1" stop-color="#35F7EE"/>
</linearGradient>
<linearGradient id="paint3_linear" x1="149.286" y1="239.802" x2="214.882" y2="-34.0278" gradientUnits="userSpaceOnUse">
<stop stop-color="#06BCE5"/>
<stop offset="1" stop-color="#35F7EE"/>
</linearGradient>
<linearGradient id="paint4_linear" x1="148.847" y1="215.852" x2="173.153" y2="64.434" gradientUnits="userSpaceOnUse">
<stop stop-color="#06BCE5"/>
<stop offset="1" stop-color="#35F7EE"/>
</linearGradient>
<linearGradient id="paint5_linear" x1="149.293" y1="239.806" x2="177.159" y2="81.7702" gradientUnits="userSpaceOnUse">
<stop stop-color="#06BCE5"/>
<stop offset="1" stop-color="#35F7EE"/>
</linearGradient>
<linearGradient id="paint6_linear" x1="215.223" y1="311.451" x2="275.814" y2="261.578" gradientUnits="userSpaceOnUse">
<stop stop-color="#06BCE5"/>
<stop offset="1" stop-color="#A9FFFB"/>
</linearGradient>
<linearGradient id="paint7_linear" x1="257.034" y1="458.471" x2="281.376" y2="369.484" gradientUnits="userSpaceOnUse">
<stop stop-color="#06BCE5"/>
<stop offset="1" stop-color="#A9FFFB"/>
</linearGradient>
<linearGradient id="paint8_linear" x1="36.4333" y1="350.428" x2="36.2193" y2="291.521" gradientUnits="userSpaceOnUse">
<stop stop-color="#039CBE"/>
<stop offset="1" stop-color="#A9FFFB"/>
</linearGradient>
</defs>
</svg>
