<svg width="956" height="90" viewBox="0 0 956 90" fill="none" xmlns="http://www.w3.org/2000/svg">
<g filter="url(#filter0_d)">
<rect x="22" y="66" width="151" height="22" rx="10.9" fill="url(#paint0_linear)"/>
</g>
<path d="M47.5733 78.52L50.7221 69.368H52.1813L55.2789 78.52H54.1781L53.2821 75.8832H49.5061L48.6229 78.52H47.5733ZM51.4005 70.2896L49.8133 75H52.9877L51.4005 70.2896ZM56.8127 78.52V71.8256H57.8751V73.0288C58.1055 72.6107 58.3871 72.2907 58.7199 72.0688C59.0612 71.847 59.5135 71.7275 60.0767 71.7104V72.7088C59.3428 72.743 58.7924 72.9136 58.4255 73.2208C58.0586 73.528 57.8751 74.0699 57.8751 74.8464V78.52H56.8127ZM63.2395 78.6352C62.5824 78.6352 62.0448 78.4731 61.6267 78.1488C61.2171 77.816 61.0123 77.3211 61.0123 76.664C61.0123 75.9472 61.328 75.4224 61.9595 75.0896C62.5995 74.7568 63.4016 74.5904 64.3659 74.5904H65.3259V74.104C65.3259 73.5664 65.215 73.1824 64.9931 72.952C64.7712 72.7131 64.4043 72.5936 63.8923 72.5936C62.9707 72.5936 62.4587 72.9947 62.3563 73.7968H61.2939C61.3622 73.08 61.6438 72.5552 62.1387 72.2224C62.6336 71.8811 63.2352 71.7104 63.9435 71.7104C65.5734 71.7104 66.3883 72.5083 66.3883 74.104V78.52H65.3259V77.6752C64.8139 78.3152 64.1184 78.6352 63.2395 78.6352ZM63.3419 77.7904C63.9222 77.7904 64.3958 77.6496 64.7627 77.368C65.1382 77.0779 65.3259 76.6811 65.3259 76.1776V75.3456H64.4043C62.8512 75.3456 62.0747 75.7851 62.0747 76.664C62.0747 77.415 62.4971 77.7904 63.3419 77.7904ZM71.1504 80.9648C70.2203 80.9648 69.5035 80.7728 69 80.3888C68.5051 80.0134 68.2107 79.5184 68.1168 78.904H69.2048C69.3584 79.6806 70.0027 80.0688 71.1376 80.0688C71.8203 80.0688 72.3493 79.8982 72.7248 79.5568C73.1003 79.224 73.288 78.7078 73.288 78.008V77.0352C73.0832 77.3851 72.7717 77.6838 72.3536 77.9312C71.9355 78.1787 71.4917 78.3024 71.0224 78.3024C70.1435 78.3024 69.4139 78.0038 68.8336 77.4064C68.2619 76.8091 67.976 76.0496 67.976 75.128V75.0384C67.976 74.1083 68.2704 73.3232 68.8592 72.6832C69.448 72.0347 70.1947 71.7104 71.0992 71.7104C72.0891 71.7104 72.8187 72.1072 73.288 72.9008V71.8256H74.3504V78.072C74.3419 79.0192 74.0475 79.736 73.4672 80.2224C72.8869 80.7174 72.1147 80.9648 71.1504 80.9648ZM71.1376 77.4192C71.7776 77.4192 72.3024 77.2102 72.712 76.792C73.1216 76.3654 73.3264 75.7851 73.3264 75.0512V74.9616C73.3264 74.2192 73.1344 73.639 72.7504 73.2208C72.3749 72.8027 71.8587 72.5936 71.2016 72.5936C70.5445 72.5936 70.024 72.8155 69.64 73.2592C69.2645 73.6944 69.0768 74.2704 69.0768 74.9872V75.0896C69.0768 75.7979 69.2731 76.3654 69.6656 76.792C70.0667 77.2102 70.5573 77.4192 71.1376 77.4192ZM79.2906 77.752C79.9562 77.752 80.4853 77.5216 80.8778 77.0608C81.2789 76.6 81.4794 75.9899 81.4794 75.2304V75.1408C81.4794 74.3643 81.2789 73.7456 80.8778 73.2848C80.4853 72.824 79.9562 72.5936 79.2906 72.5936C78.6165 72.5936 78.0831 72.824 77.6906 73.2848C77.2981 73.7456 77.1018 74.36 77.1018 75.128V75.2304C77.1018 75.9984 77.2981 76.6128 77.6906 77.0736C78.0831 77.5259 78.6165 77.752 79.2906 77.752ZM79.2778 78.6352C78.3306 78.6352 77.5455 78.3152 76.9226 77.6752C76.3082 77.0267 76.001 76.2118 76.001 75.2304V75.128C76.001 74.1296 76.3082 73.3104 76.9226 72.6704C77.5455 72.0304 78.3349 71.7104 79.2906 71.7104C80.2463 71.7104 81.0314 72.0304 81.6458 72.6704C82.2687 73.3019 82.5802 74.1168 82.5802 75.1152V75.2176C82.5802 76.2246 82.2687 77.048 81.6458 77.688C81.0229 78.3195 80.2335 78.6352 79.2778 78.6352ZM84.2252 78.52V71.8256H85.2876V72.888C85.4497 72.5467 85.7185 72.2651 86.094 72.0432C86.4695 71.8214 86.9175 71.7104 87.438 71.7104C88.1719 71.7104 88.7479 71.928 89.166 72.3632C89.5841 72.7984 89.7932 73.4811 89.7932 74.4112V78.52H88.7308V74.3344C88.7308 73.7456 88.6028 73.3147 88.3468 73.0416C88.0908 72.7686 87.694 72.632 87.1564 72.632C86.6359 72.632 86.1921 72.7942 85.8252 73.1184C85.4668 73.4427 85.2876 73.8907 85.2876 74.4624V78.52H84.2252ZM96.6067 78.52L94.5459 71.8256H95.6979L97.2595 77.2144L98.8851 71.8256H99.8067L101.33 77.2144L102.904 71.8256H103.992L101.906 78.52H100.728L99.3331 73.5024L97.7715 78.52H96.6067ZM106.977 78.6352C106.32 78.6352 105.782 78.4731 105.364 78.1488C104.955 77.816 104.75 77.3211 104.75 76.664C104.75 75.9472 105.066 75.4224 105.697 75.0896C106.337 74.7568 107.139 74.5904 108.103 74.5904H109.063V74.104C109.063 73.5664 108.952 73.1824 108.731 72.952C108.509 72.7131 108.142 72.5936 107.63 72.5936C106.708 72.5936 106.196 72.9947 106.094 73.7968H105.031C105.1 73.08 105.381 72.5552 105.876 72.2224C106.371 71.8811 106.973 71.7104 107.681 71.7104C109.311 71.7104 110.126 72.5083 110.126 74.104V78.52H109.063V77.6752C108.551 78.3152 107.856 78.6352 106.977 78.6352ZM107.079 77.7904C107.66 77.7904 108.133 77.6496 108.5 77.368C108.876 77.0779 109.063 76.6811 109.063 76.1776V75.3456H108.142C106.589 75.3456 105.812 75.7851 105.812 76.664C105.812 77.415 106.235 77.7904 107.079 77.7904ZM114.286 78.6352C113.484 78.6352 112.853 78.4432 112.392 78.0592C111.94 77.6752 111.696 77.1419 111.662 76.4592H112.699C112.784 77.3211 113.309 77.752 114.273 77.752C115.246 77.752 115.733 77.3979 115.733 76.6896C115.733 76.3568 115.609 76.1136 115.361 75.96C115.123 75.7979 114.726 75.6656 114.171 75.5632C113.301 75.4011 112.695 75.1792 112.353 74.8976C112.012 74.6075 111.841 74.1723 111.841 73.592C111.841 73.0118 112.072 72.5552 112.533 72.2224C113.002 71.8811 113.527 71.7104 114.107 71.7104C115.558 71.7104 116.364 72.3547 116.526 73.6432H115.502C115.425 73.2763 115.276 73.0118 115.054 72.8496C114.832 72.679 114.512 72.5936 114.094 72.5936C113.71 72.5936 113.403 72.6832 113.173 72.8624C112.942 73.0331 112.827 73.2635 112.827 73.5536C112.827 73.8608 112.934 74.087 113.147 74.232C113.369 74.3771 113.783 74.5051 114.389 74.616C114.79 74.6928 115.11 74.7696 115.349 74.8464C115.596 74.9147 115.835 75.0214 116.065 75.1664C116.304 75.3115 116.475 75.5035 116.577 75.7424C116.688 75.9728 116.744 76.2587 116.744 76.6C116.744 77.223 116.531 77.7179 116.104 78.0848C115.686 78.4518 115.08 78.6352 114.286 78.6352ZM125.078 78.6352C124.558 78.6352 124.101 78.5243 123.709 78.3024C123.316 78.072 123.017 77.7776 122.813 77.4192V78.52H121.75V68.6256H122.813V72.952C123.017 72.6107 123.329 72.3206 123.747 72.0816C124.165 71.8342 124.609 71.7104 125.078 71.7104C125.974 71.7104 126.704 72.0176 127.267 72.632C127.839 73.2379 128.125 74.0528 128.125 75.0768V75.1792C128.125 76.2118 127.843 77.048 127.28 77.688C126.725 78.3195 125.991 78.6352 125.078 78.6352ZM124.976 77.752C125.641 77.752 126.149 77.5344 126.499 77.0992C126.849 76.664 127.024 76.0411 127.024 75.2304V75.128C127.024 74.3174 126.828 73.6944 126.435 73.2592C126.051 72.8155 125.56 72.5936 124.963 72.5936C124.314 72.5936 123.785 72.8112 123.376 73.2464C122.975 73.6731 122.774 74.3003 122.774 75.128V75.2304C122.774 76.0582 122.97 76.6854 123.363 77.112C123.764 77.5387 124.302 77.752 124.976 77.752ZM132.566 77.752C133.231 77.752 133.76 77.5216 134.153 77.0608C134.554 76.6 134.754 75.9899 134.754 75.2304V75.1408C134.754 74.3643 134.554 73.7456 134.153 73.2848C133.76 72.824 133.231 72.5936 132.566 72.5936C131.891 72.5936 131.358 72.824 130.966 73.2848C130.573 73.7456 130.377 74.36 130.377 75.128V75.2304C130.377 75.9984 130.573 76.6128 130.966 77.0736C131.358 77.5259 131.891 77.752 132.566 77.752ZM132.553 78.6352C131.606 78.6352 130.821 78.3152 130.198 77.6752C129.583 77.0267 129.276 76.2118 129.276 75.2304V75.128C129.276 74.1296 129.583 73.3104 130.198 72.6704C130.821 72.0304 131.61 71.7104 132.566 71.7104C133.521 71.7104 134.306 72.0304 134.921 72.6704C135.544 73.3019 135.855 74.1168 135.855 75.1152V75.2176C135.855 76.2246 135.544 77.048 134.921 77.688C134.298 78.3195 133.509 78.6352 132.553 78.6352ZM137.5 78.52V71.8256H138.563V73.0288C138.793 72.6107 139.075 72.2907 139.407 72.0688C139.749 71.847 140.201 71.7275 140.764 71.7104V72.7088C140.03 72.743 139.48 72.9136 139.113 73.2208C138.746 73.528 138.563 74.0699 138.563 74.8464V78.52H137.5ZM142.313 78.52V71.8256H143.375V72.888C143.537 72.5467 143.806 72.2651 144.182 72.0432C144.557 71.8214 145.005 71.7104 145.526 71.7104C146.259 71.7104 146.835 71.928 147.254 72.3632C147.672 72.7984 147.881 73.4811 147.881 74.4112V78.52H146.818V74.3344C146.818 73.7456 146.69 73.3147 146.434 73.0416C146.178 72.7686 145.782 72.632 145.244 72.632C144.723 72.632 144.28 72.7942 143.913 73.1184C143.554 73.4427 143.375 73.8907 143.375 74.4624V78.52H142.313Z" fill="#7F8198"/>
<path d="M15 59.3509H7.278V58.1305L13.6608 54.3721H7.278V53.4757H15V54.5557L8.3796 58.4545H15V59.3509ZM14.3196 47.4904C14.3196 46.6408 14.028 45.9676 13.4448 45.4708C12.8616 44.9668 12.0984 44.7148 11.1552 44.7148H11.0688C10.1688 44.7148 9.4236 44.9668 8.8332 45.4708C8.2356 45.9676 7.9368 46.648 7.9368 47.512C7.9368 48.3904 8.2284 49.0816 8.8116 49.5856C9.3948 50.0896 10.1544 50.3416 11.0904 50.3416H11.1768C12.0984 50.3416 12.8544 50.0716 13.4448 49.5316C14.028 48.9844 14.3196 48.304 14.3196 47.4904ZM15.0972 47.4904C15.0972 48.6136 14.7228 49.5316 13.974 50.2444C13.218 50.9572 12.2892 51.3136 11.1876 51.3136H11.1012C9.9852 51.3136 9.0528 50.9608 8.304 50.2552C7.5552 49.5424 7.1808 48.628 7.1808 47.512C7.1808 46.396 7.5552 45.4888 8.304 44.7904C9.0456 44.092 9.9708 43.7428 11.0796 43.7428H11.166C12.2748 43.7428 13.2072 44.092 13.9632 44.7904C14.7192 45.4888 15.0972 46.3888 15.0972 47.4904ZM15 39.9323L7.278 42.5567V41.6279L14.0928 39.3275L7.278 37.0271V36.1415L15 38.8091V39.9323ZM15 31.5509H14.784L11.5548 28.4837C10.77 27.7421 10.0248 27.3713 9.3192 27.3713C8.8872 27.3713 8.5488 27.4937 8.304 27.7385C8.0592 27.9761 7.9368 28.3145 7.9368 28.7537C7.9368 29.6969 8.5092 30.2405 9.654 30.3845V31.2593C8.8908 31.2017 8.2896 30.9533 7.8504 30.5141C7.404 30.0677 7.1808 29.4809 7.1808 28.7537C7.1808 28.0409 7.3788 27.4757 7.7748 27.0581C8.1636 26.6333 8.6892 26.4209 9.3516 26.4209C10.2084 26.4209 11.1444 26.9393 12.1596 27.9761L14.2332 30.1037V26.3777H15V31.5509ZM14.3196 21.5135C14.3196 20.8439 14.0676 20.3363 13.5636 19.9907C13.0524 19.6451 12.3072 19.4723 11.328 19.4723H10.896C9.9888 19.4723 9.2688 19.6559 8.736 20.0231C8.2032 20.3831 7.9368 20.8871 7.9368 21.5351C7.9368 22.1903 8.1996 22.7015 8.7252 23.0687C9.2436 23.4359 9.9744 23.6195 10.9176 23.6195H11.3496C12.3072 23.6195 13.0416 23.4323 13.5528 23.0579C14.064 22.6835 14.3196 22.1687 14.3196 21.5135ZM15.0972 21.5135C15.0972 22.4351 14.7552 23.1767 14.0712 23.7383C13.3872 24.2999 12.4836 24.5807 11.3604 24.5807H10.9284C9.7836 24.5807 8.8728 24.3107 8.196 23.7707C7.5192 23.2235 7.1808 22.4783 7.1808 21.5351C7.1808 20.5991 7.5228 19.8647 8.2068 19.3319C8.8908 18.7919 9.7908 18.5219 10.9068 18.5219H11.3388C12.4764 18.5219 13.3872 18.7883 14.0712 19.3211C14.7552 19.8467 15.0972 20.5775 15.0972 21.5135ZM15 15.1931H8.2068L9.4488 16.9211H8.574L7.278 15.1283V14.2535H15V15.1931ZM15.0972 8.94027C15.0972 9.45147 15.0072 9.89067 14.8272 10.2579C14.6472 10.6251 14.3916 10.9131 14.0604 11.1219C13.7292 11.3307 13.362 11.4819 12.9588 11.5755C12.5484 11.6691 12.0912 11.7159 11.5872 11.7159H11.4036C10.05 11.7159 9.0096 11.4423 8.2824 10.8951C7.548 10.3407 7.1808 9.60627 7.1808 8.69187C7.1808 8.07987 7.3392 7.57587 7.656 7.17987C7.9728 6.78387 8.4372 6.53547 9.0492 6.43467V7.33107C8.6748 7.41747 8.3976 7.57227 8.2176 7.79547C8.0376 8.01867 7.9476 8.33907 7.9476 8.75667C7.9476 9.35427 8.214 9.83667 8.7468 10.2039C9.2796 10.5711 10.0428 10.7655 11.0364 10.7871C10.7196 10.5999 10.4676 10.3335 10.2804 9.98787C10.086 9.63507 9.9888 9.23907 9.9888 8.79987C9.9888 8.04387 10.23 7.43547 10.7124 6.97467C11.1948 6.50667 11.796 6.27267 12.516 6.27267C13.2936 6.27267 13.92 6.51387 14.3952 6.99627C14.8632 7.47867 15.0972 8.12667 15.0972 8.94027ZM14.3628 8.94027C14.3628 8.42907 14.1972 8.01867 13.866 7.70907C13.5348 7.39227 13.0992 7.23387 12.5592 7.23387C12.0048 7.23387 11.562 7.38867 11.2308 7.69827C10.8924 8.00787 10.7232 8.42547 10.7232 8.95107C10.7232 9.46947 10.8816 9.89427 11.1984 10.2255C11.5152 10.5567 11.9256 10.7223 12.4296 10.7223C13.0416 10.7223 13.5168 10.5603 13.8552 10.2363C14.1936 9.90507 14.3628 9.47307 14.3628 8.94027Z" fill="#7F8198"/>
<path d="M187 56.5559H179.278V52.0415H180.045V55.6163H182.777V52.8299H183.544V55.6163H187V56.5559ZM187 50.0602H179.278V45.5566H180.045V49.1206H182.669V46.2478H183.436V49.1206H186.233V45.3622H187V50.0602ZM187 43.343H179.278V41.021C179.278 39.365 179.944 38.537 181.276 38.537H181.319C182.14 38.537 182.684 38.9258 182.95 39.7034C183.08 39.149 183.292 38.753 183.587 38.5154C183.882 38.2778 184.286 38.159 184.797 38.159H184.84C185.553 38.159 186.093 38.3858 186.46 38.8394C186.82 39.2858 187 39.905 187 40.697V43.343ZM186.266 42.425V40.7186C186.266 39.6242 185.787 39.077 184.829 39.077H184.786C184.304 39.077 183.951 39.221 183.728 39.509C183.497 39.7898 183.382 40.2362 183.382 40.8482V42.425H186.266ZM182.648 42.425V41.021C182.648 40.4594 182.543 40.0598 182.334 39.8222C182.118 39.5774 181.769 39.455 181.287 39.455H181.244C180.812 39.455 180.498 39.5846 180.304 39.8438C180.11 40.0958 180.012 40.4954 180.012 41.0426V42.425H182.648ZM187 33.3333H186.784L183.555 30.2661C182.77 29.5245 182.025 29.1537 181.319 29.1537C180.887 29.1537 180.549 29.2761 180.304 29.5209C180.059 29.7585 179.937 30.0969 179.937 30.5361C179.937 31.4793 180.509 32.0229 181.654 32.1669V33.0417C180.891 32.9841 180.29 32.7357 179.85 32.2965C179.404 31.8501 179.181 31.2633 179.181 30.5361C179.181 29.8233 179.379 29.2581 179.775 28.8405C180.164 28.4157 180.689 28.2033 181.352 28.2033C182.208 28.2033 183.144 28.7217 184.16 29.7585L186.233 31.8861V28.1601H187V33.3333ZM186.32 23.2959C186.32 22.6263 186.068 22.1187 185.564 21.7731C185.052 21.4275 184.307 21.2547 183.328 21.2547H182.896C181.989 21.2547 181.269 21.4383 180.736 21.8055C180.203 22.1655 179.937 22.6695 179.937 23.3175C179.937 23.9727 180.2 24.4839 180.725 24.8511C181.244 25.2183 181.974 25.4019 182.918 25.4019H183.35C184.307 25.4019 185.042 25.2147 185.553 24.8403C186.064 24.4659 186.32 23.9511 186.32 23.2959ZM187.097 23.2959C187.097 24.2175 186.755 24.9591 186.071 25.5207C185.387 26.0823 184.484 26.3631 183.36 26.3631H182.928C181.784 26.3631 180.873 26.0931 180.196 25.5531C179.519 25.0059 179.181 24.2607 179.181 23.3175C179.181 22.3815 179.523 21.6471 180.207 21.1143C180.891 20.5743 181.791 20.3043 182.907 20.3043H183.339C184.476 20.3043 185.387 20.5707 186.071 21.1035C186.755 21.6291 187.097 22.3599 187.097 23.2959ZM187 16.9756H180.207L181.449 18.7036H180.574L179.278 16.9108V16.036H187V16.9756ZM187 12.5695L180.034 9.88029V13.8007H179.278V8.71389H179.408L187 11.6083V12.5695Z" fill="#7F8198"/>
<path d="M310 58.3014H302.278V56.9946L308.294 54.6078L302.278 52.2966V51.0006H310V51.9402H303.498L310 54.4998V54.7914L303.498 57.4374H310V58.3014ZM310 49.035L302.278 46.3782V45.147L310 42.5334V43.4622L307.775 44.2182V47.4042L310 48.1494V49.035ZM303.056 45.8058L307.03 47.145V44.4666L303.056 45.8058ZM310 39.4763H306.63L302.278 42.0575V40.9991L305.864 38.9795L302.278 37.0355V36.0959L306.641 38.5367H310V39.4763ZM310 31.5878H309.784L306.555 28.5206C305.77 27.779 305.025 27.4082 304.319 27.4082C303.887 27.4082 303.549 27.5306 303.304 27.7754C303.059 28.013 302.937 28.3514 302.937 28.7906C302.937 29.7338 303.509 30.2774 304.654 30.4214V31.2962C303.891 31.2386 303.29 30.9902 302.85 30.551C302.404 30.1046 302.181 29.5178 302.181 28.7906C302.181 28.0778 302.379 27.5126 302.775 27.095C303.164 26.6702 303.689 26.4578 304.352 26.4578C305.208 26.4578 306.144 26.9762 307.16 28.013L309.233 30.1406V26.4146H310V31.5878ZM309.32 21.5504C309.32 20.8808 309.068 20.3732 308.564 20.0276C308.052 19.682 307.307 19.5092 306.328 19.5092H305.896C304.989 19.5092 304.269 19.6928 303.736 20.06C303.203 20.42 302.937 20.924 302.937 21.572C302.937 22.2272 303.2 22.7384 303.725 23.1056C304.244 23.4728 304.974 23.6564 305.918 23.6564H306.35C307.307 23.6564 308.042 23.4692 308.553 23.0948C309.064 22.7204 309.32 22.2056 309.32 21.5504ZM310.097 21.5504C310.097 22.472 309.755 23.2136 309.071 23.7752C308.387 24.3368 307.484 24.6176 306.36 24.6176H305.928C304.784 24.6176 303.873 24.3476 303.196 23.8076C302.519 23.2604 302.181 22.5152 302.181 21.572C302.181 20.636 302.523 19.9016 303.207 19.3688C303.891 18.8288 304.791 18.5588 305.907 18.5588H306.339C307.476 18.5588 308.387 18.8252 309.071 19.358C309.755 19.8836 310.097 20.6144 310.097 21.5504ZM310 15.2301H303.207L304.449 16.9581H303.574L302.278 15.1653V14.2905H310V15.2301ZM310 10.824L303.034 8.13478V12.0552H302.278V6.96838H302.408L310 9.86278V10.824Z" fill="#7F8198"/>
<path d="M520 59.2876H512.278V57.9808L518.294 55.594L512.278 53.2828V51.9868H520V52.9264H513.498L520 55.486V55.7776L513.498 58.4236H520V59.2876ZM520 50.0212L512.278 47.3644V46.1332L520 43.5196V44.4484L517.775 45.2044V48.3904L520 49.1356V50.0212ZM513.056 46.792L517.03 48.1312V45.4528L513.056 46.792ZM520 41.5606H512.278V39.2386C512.278 38.4394 512.454 37.7914 512.807 37.2946C513.16 36.7906 513.7 36.5386 514.427 36.5386H514.47C515.068 36.5386 515.543 36.715 515.896 37.0678C516.242 37.4134 516.468 37.8742 516.576 38.4502L520 36.085V37.1326L516.641 39.433V40.621H520V41.5606ZM515.896 40.621V39.1738C515.896 38.0434 515.421 37.4782 514.47 37.4782H514.427C513.923 37.4782 513.567 37.6222 513.358 37.9102C513.142 38.1982 513.034 38.6194 513.034 39.1738V40.621H515.896ZM520 31.4876H519.784L516.555 28.4204C515.77 27.6788 515.025 27.308 514.319 27.308C513.887 27.308 513.549 27.4304 513.304 27.6752C513.059 27.9128 512.937 28.2512 512.937 28.6904C512.937 29.6336 513.509 30.1772 514.654 30.3212V31.196C513.891 31.1384 513.29 30.89 512.85 30.4508C512.404 30.0044 512.181 29.4176 512.181 28.6904C512.181 27.9776 512.379 27.4124 512.775 26.9948C513.164 26.57 513.689 26.3576 514.352 26.3576C515.208 26.3576 516.144 26.876 517.16 27.9128L519.233 30.0404V26.3144H520V31.4876ZM519.32 21.4502C519.32 20.7806 519.068 20.273 518.564 19.9274C518.052 19.5818 517.307 19.409 516.328 19.409H515.896C514.989 19.409 514.269 19.5926 513.736 19.9598C513.203 20.3198 512.937 20.8238 512.937 21.4718C512.937 22.127 513.2 22.6382 513.725 23.0054C514.244 23.3726 514.974 23.5562 515.918 23.5562H516.35C517.307 23.5562 518.042 23.369 518.553 22.9946C519.064 22.6202 519.32 22.1054 519.32 21.4502ZM520.097 21.4502C520.097 22.3718 519.755 23.1134 519.071 23.675C518.387 24.2366 517.484 24.5174 516.36 24.5174H515.928C514.784 24.5174 513.873 24.2474 513.196 23.7074C512.519 23.1602 512.181 22.415 512.181 21.4718C512.181 20.5358 512.523 19.8014 513.207 19.2686C513.891 18.7286 514.791 18.4586 515.907 18.4586H516.339C517.476 18.4586 518.387 18.725 519.071 19.2578C519.755 19.7834 520.097 20.5142 520.097 21.4502ZM520 15.1299H513.207L514.449 16.8579H513.574L512.278 15.0651V14.1903H520V15.1299ZM520.097 9.01739C520.097 9.45659 520.018 9.87419 519.86 10.2702C519.694 10.6662 519.431 11.001 519.071 11.2746C518.711 11.5482 518.29 11.685 517.808 11.685C517.311 11.685 516.893 11.5518 516.555 11.2854C516.216 11.019 515.968 10.6662 515.81 10.227C515.666 10.5942 515.453 10.8822 515.172 11.091C514.892 11.2926 514.564 11.3934 514.19 11.3934C513.592 11.3934 513.11 11.1558 512.742 10.6806C512.368 10.1982 512.181 9.64379 512.181 9.01739C512.181 8.39099 512.368 7.84019 512.742 7.36499C513.11 6.88979 513.585 6.65219 514.168 6.65219C514.91 6.65219 515.453 7.04819 515.799 7.84019C516.159 6.85379 516.821 6.36059 517.786 6.36059C518.513 6.36059 519.082 6.62699 519.492 7.15979C519.896 7.68539 520.097 8.30459 520.097 9.01739ZM519.33 9.01739C519.33 8.52059 519.194 8.11379 518.92 7.79699C518.639 7.48019 518.25 7.32179 517.754 7.32179C517.264 7.32179 516.886 7.48019 516.62 7.79699C516.353 8.11379 516.22 8.51339 516.22 8.99579C516.22 9.48539 516.357 9.89579 516.63 10.227C516.904 10.5582 517.286 10.7238 517.775 10.7238C518.258 10.7238 518.639 10.5582 518.92 10.227C519.194 9.89579 519.33 9.49259 519.33 9.01739ZM515.475 8.98499C515.475 8.56739 515.36 8.23259 515.129 7.98059C514.899 7.72859 514.582 7.60259 514.179 7.60259C513.812 7.60259 513.509 7.73939 513.272 8.01299C513.034 8.27939 512.915 8.61419 512.915 9.01739C512.915 9.42779 513.034 9.76979 513.272 10.0434C513.502 10.3098 513.812 10.443 514.2 10.443C514.589 10.443 514.899 10.3026 515.129 10.0218C515.36 9.74099 515.475 9.39539 515.475 8.98499Z" fill="#7F8198"/>
<path d="M730 59.2876H722.278V58.0672L728.661 54.3088H722.278V53.4124H730V54.4924L723.38 58.3912H730V59.2876ZM729.32 47.4271C729.32 46.5775 729.028 45.9043 728.445 45.4075C727.862 44.9035 727.098 44.6515 726.155 44.6515H726.069C725.169 44.6515 724.424 44.9035 723.833 45.4075C723.236 45.9043 722.937 46.5847 722.937 47.4487C722.937 48.3271 723.228 49.0183 723.812 49.5223C724.395 50.0263 725.154 50.2783 726.09 50.2783H726.177C727.098 50.2783 727.854 50.0083 728.445 49.4683C729.028 48.9211 729.32 48.2407 729.32 47.4271ZM730.097 47.4271C730.097 48.5503 729.723 49.4683 728.974 50.1811C728.218 50.8939 727.289 51.2503 726.188 51.2503H726.101C724.985 51.2503 724.053 50.8975 723.304 50.1919C722.555 49.4791 722.181 48.5647 722.181 47.4487C722.181 46.3327 722.555 45.4255 723.304 44.7271C724.046 44.0287 724.971 43.6795 726.08 43.6795H726.166C727.275 43.6795 728.207 44.0287 728.963 44.7271C729.719 45.4255 730.097 46.3255 730.097 47.4271ZM730 39.869L722.278 42.4934V41.5646L729.093 39.2642L722.278 36.9638V36.0782L730 38.7458V39.869ZM730 31.4876H729.784L726.555 28.4204C725.77 27.6788 725.025 27.308 724.319 27.308C723.887 27.308 723.549 27.4304 723.304 27.6752C723.059 27.9128 722.937 28.2512 722.937 28.6904C722.937 29.6336 723.509 30.1772 724.654 30.3212V31.196C723.891 31.1384 723.29 30.89 722.85 30.4508C722.404 30.0044 722.181 29.4176 722.181 28.6904C722.181 27.9776 722.379 27.4124 722.775 26.9948C723.164 26.57 723.689 26.3576 724.352 26.3576C725.208 26.3576 726.144 26.876 727.16 27.9128L729.233 30.0404V26.3144H730V31.4876ZM729.32 21.4502C729.32 20.7806 729.068 20.273 728.564 19.9274C728.052 19.5818 727.307 19.409 726.328 19.409H725.896C724.989 19.409 724.269 19.5926 723.736 19.9598C723.203 20.3198 722.937 20.8238 722.937 21.4718C722.937 22.127 723.2 22.6382 723.725 23.0054C724.244 23.3726 724.974 23.5562 725.918 23.5562H726.35C727.307 23.5562 728.042 23.369 728.553 22.9946C729.064 22.6202 729.32 22.1054 729.32 21.4502ZM730.097 21.4502C730.097 22.3718 729.755 23.1134 729.071 23.675C728.387 24.2366 727.484 24.5174 726.36 24.5174H725.928C724.784 24.5174 723.873 24.2474 723.196 23.7074C722.519 23.1602 722.181 22.415 722.181 21.4718C722.181 20.5358 722.523 19.8014 723.207 19.2686C723.891 18.7286 724.791 18.4586 725.907 18.4586H726.339C727.476 18.4586 728.387 18.725 729.071 19.2578C729.755 19.7834 730.097 20.5142 730.097 21.4502ZM730 15.1299H723.207L724.449 16.8579H723.574L722.278 15.0651V14.1903H730V15.1299ZM730.097 9.01739C730.097 9.45659 730.018 9.87419 729.86 10.2702C729.694 10.6662 729.431 11.001 729.071 11.2746C728.711 11.5482 728.29 11.685 727.808 11.685C727.311 11.685 726.893 11.5518 726.555 11.2854C726.216 11.019 725.968 10.6662 725.81 10.227C725.666 10.5942 725.453 10.8822 725.172 11.091C724.892 11.2926 724.564 11.3934 724.19 11.3934C723.592 11.3934 723.11 11.1558 722.742 10.6806C722.368 10.1982 722.181 9.64379 722.181 9.01739C722.181 8.39099 722.368 7.84019 722.742 7.36499C723.11 6.88979 723.585 6.65219 724.168 6.65219C724.91 6.65219 725.453 7.04819 725.799 7.84019C726.159 6.85379 726.821 6.36059 727.786 6.36059C728.513 6.36059 729.082 6.62699 729.492 7.15979C729.896 7.68539 730.097 8.30459 730.097 9.01739ZM729.33 9.01739C729.33 8.52059 729.194 8.11379 728.92 7.79699C728.639 7.48019 728.25 7.32179 727.754 7.32179C727.264 7.32179 726.886 7.48019 726.62 7.79699C726.353 8.11379 726.22 8.51339 726.22 8.99579C726.22 9.48539 726.357 9.89579 726.63 10.227C726.904 10.5582 727.286 10.7238 727.775 10.7238C728.258 10.7238 728.639 10.5582 728.92 10.227C729.194 9.89579 729.33 9.49259 729.33 9.01739ZM725.475 8.98499C725.475 8.56739 725.36 8.23259 725.129 7.98059C724.899 7.72859 724.582 7.60259 724.179 7.60259C723.812 7.60259 723.509 7.73939 723.272 8.01299C723.034 8.27939 722.915 8.61419 722.915 9.01739C722.915 9.42779 723.034 9.76979 723.272 10.0434C723.502 10.3098 723.812 10.443 724.2 10.443C724.589 10.443 724.899 10.3026 725.129 10.0218C725.36 9.74099 725.475 9.39539 725.475 8.98499Z" fill="#7F8198"/>
<path fill-rule="evenodd" clip-rule="evenodd" d="M11.5 83C14.5376 83 17 80.5376 17 77.5C17 74.4624 14.5376 72 11.5 72C8.46243 72 6 74.4624 6 77.5C6 80.5376 8.46243 83 11.5 83Z" fill="#F9F5DE"/>
<path opacity="0.207473" fill-rule="evenodd" clip-rule="evenodd" d="M11.5 89C17.8513 89 23 83.8513 23 77.5C23 71.1487 17.8513 66 11.5 66C5.14873 66 0 71.1487 0 77.5C0 83.8513 5.14873 89 11.5 89Z" fill="#F9F5DE"/>
<path opacity="0.313198" fill-rule="evenodd" clip-rule="evenodd" d="M183.5 89C189.851 89 195 83.8513 195 77.5C195 71.1487 189.851 66 183.5 66C177.149 66 172 71.1487 172 77.5C172 83.8513 177.149 89 183.5 89Z" fill="#D4EFE6"/>
<path opacity="0.313198" fill-rule="evenodd" clip-rule="evenodd" d="M306.5 89C312.851 89 318 83.8513 318 77.5C318 71.1487 312.851 66 306.5 66C300.149 66 295 71.1487 295 77.5C295 83.8513 300.149 89 306.5 89Z" fill="#D4EFE6"/>
<path opacity="0.313198" fill-rule="evenodd" clip-rule="evenodd" d="M516.5 89C522.851 89 528 83.8513 528 77.5C528 71.1487 522.851 66 516.5 66C510.149 66 505 71.1487 505 77.5C505 83.8513 510.149 89 516.5 89Z" fill="#EBE4FF"/>
<path opacity="0.313198" fill-rule="evenodd" clip-rule="evenodd" d="M726.5 89C732.851 89 738 83.8513 738 77.5C738 71.1487 732.851 66 726.5 66C720.149 66 715 71.1487 715 77.5C715 83.8513 720.149 89 726.5 89Z" fill="#EBE4FF"/>
<path fill-rule="evenodd" clip-rule="evenodd" d="M183.5 83C186.538 83 189 80.5376 189 77.5C189 74.4624 186.538 72 183.5 72C180.462 72 178 74.4624 178 77.5C178 80.5376 180.462 83 183.5 83Z" fill="url(#paint1_linear)"/>
<g filter="url(#filter1_d)">
<rect x="194" y="66" width="102" height="22" rx="10.9" fill="url(#paint2_linear)"/>
</g>
<path fill-rule="evenodd" clip-rule="evenodd" d="M306.5 83C309.538 83 312 80.5376 312 77.5C312 74.4624 309.538 72 306.5 72C303.462 72 301 74.4624 301 77.5C301 80.5376 303.462 83 306.5 83Z" fill="#D4EFE6"/>
<path fill-rule="evenodd" clip-rule="evenodd" d="M516.5 83C519.538 83 522 80.5376 522 77.5C522 74.4624 519.538 72 516.5 72C513.462 72 511 74.4624 511 77.5C511 80.5376 513.462 83 516.5 83Z" fill="#EBE4FF"/>
<path fill-rule="evenodd" clip-rule="evenodd" d="M726.5 83C729.538 83 732 80.5376 732 77.5C732 74.4624 729.538 72 726.5 72C723.462 72 721 74.4624 721 77.5C721 80.5376 723.462 83 726.5 83Z" fill="#EBE4FF"/>
<g filter="url(#filter2_d)">
<rect x="317" y="66" width="189" height="22" rx="10.9" fill="url(#paint3_linear)"/>
</g>
<g filter="url(#filter3_d)">
<rect x="527" y="66" width="189" height="22" rx="10.9" fill="#EBE4FF"/>
</g>
<g filter="url(#filter4_d)">
<rect x="737" y="66" width="218" height="22" rx="10.9" fill="#EBE4FF"/>
</g>
<path d="M213.535 78.52L216.684 69.368H218.143L221.24 78.52H220.14L219.244 75.8832H215.468L214.584 78.52H213.535ZM217.362 70.2896L215.775 75H218.949L217.362 70.2896ZM222.774 78.52V71.8256H223.837V73.0288C224.067 72.6107 224.349 72.2907 224.681 72.0688C225.023 71.847 225.475 71.7275 226.038 71.7104V72.7088C225.304 72.743 224.754 72.9136 224.387 73.2208C224.02 73.528 223.837 74.0699 223.837 74.8464V78.52H222.774ZM229.201 78.6352C228.544 78.6352 228.006 78.4731 227.588 78.1488C227.179 77.816 226.974 77.3211 226.974 76.664C226.974 75.9472 227.289 75.4224 227.921 75.0896C228.561 74.7568 229.363 74.5904 230.327 74.5904H231.287V74.104C231.287 73.5664 231.176 73.1824 230.955 72.952C230.733 72.7131 230.366 72.5936 229.854 72.5936C228.932 72.5936 228.42 72.9947 228.318 73.7968H227.255C227.324 73.08 227.605 72.5552 228.1 72.2224C228.595 71.8811 229.197 71.7104 229.905 71.7104C231.535 71.7104 232.35 72.5083 232.35 74.104V78.52H231.287V77.6752C230.775 78.3152 230.08 78.6352 229.201 78.6352ZM229.303 77.7904C229.884 77.7904 230.357 77.6496 230.724 77.368C231.1 77.0779 231.287 76.6811 231.287 76.1776V75.3456H230.366C228.813 75.3456 228.036 75.7851 228.036 76.664C228.036 77.415 228.459 77.7904 229.303 77.7904ZM237.112 80.9648C236.182 80.9648 235.465 80.7728 234.961 80.3888C234.466 80.0134 234.172 79.5184 234.078 78.904H235.166C235.32 79.6806 235.964 80.0688 237.099 80.0688C237.782 80.0688 238.311 79.8982 238.686 79.5568C239.062 79.224 239.249 78.7078 239.249 78.008V77.0352C239.045 77.3851 238.733 77.6838 238.315 77.9312C237.897 78.1787 237.453 78.3024 236.984 78.3024C236.105 78.3024 235.375 78.0038 234.795 77.4064C234.223 76.8091 233.937 76.0496 233.937 75.128V75.0384C233.937 74.1083 234.232 73.3232 234.821 72.6832C235.409 72.0347 236.156 71.7104 237.061 71.7104C238.05 71.7104 238.78 72.1072 239.249 72.9008V71.8256H240.312V78.072C240.303 79.0192 240.009 79.736 239.429 80.2224C238.848 80.7174 238.076 80.9648 237.112 80.9648ZM237.099 77.4192C237.739 77.4192 238.264 77.2102 238.673 76.792C239.083 76.3654 239.288 75.7851 239.288 75.0512V74.9616C239.288 74.2192 239.096 73.639 238.712 73.2208C238.336 72.8027 237.82 72.5936 237.163 72.5936C236.506 72.5936 235.985 72.8155 235.601 73.2592C235.226 73.6944 235.038 74.2704 235.038 74.9872V75.0896C235.038 75.7979 235.234 76.3654 235.627 76.792C236.028 77.2102 236.519 77.4192 237.099 77.4192ZM245.252 77.752C245.918 77.752 246.447 77.5216 246.839 77.0608C247.24 76.6 247.441 75.9899 247.441 75.2304V75.1408C247.441 74.3643 247.24 73.7456 246.839 73.2848C246.447 72.824 245.918 72.5936 245.252 72.5936C244.578 72.5936 244.045 72.824 243.652 73.2848C243.259 73.7456 243.063 74.36 243.063 75.128V75.2304C243.063 75.9984 243.259 76.6128 243.652 77.0736C244.045 77.5259 244.578 77.752 245.252 77.752ZM245.239 78.6352C244.292 78.6352 243.507 78.3152 242.884 77.6752C242.27 77.0267 241.962 76.2118 241.962 75.2304V75.128C241.962 74.1296 242.27 73.3104 242.884 72.6704C243.507 72.0304 244.296 71.7104 245.252 71.7104C246.208 71.7104 246.993 72.0304 247.607 72.6704C248.23 73.3019 248.542 74.1168 248.542 75.1152V75.2176C248.542 76.2246 248.23 77.048 247.607 77.688C246.984 78.3195 246.195 78.6352 245.239 78.6352ZM250.187 78.52V71.8256H251.249V72.888C251.411 72.5467 251.68 72.2651 252.055 72.0432C252.431 71.8214 252.879 71.7104 253.399 71.7104C254.133 71.7104 254.709 71.928 255.127 72.3632C255.546 72.7984 255.755 73.4811 255.755 74.4112V78.52H254.692V74.3344C254.692 73.7456 254.564 73.3147 254.308 73.0416C254.052 72.7686 253.655 72.632 253.118 72.632C252.597 72.632 252.154 72.7942 251.787 73.1184C251.428 73.4427 251.249 73.8907 251.249 74.4624V78.52H250.187ZM264.552 77.7136C265.346 77.7136 265.947 77.415 266.357 76.8176C266.767 76.2118 266.971 75.3286 266.971 74.168V73.656C266.971 72.5808 266.754 71.7275 266.319 71.096C265.892 70.4646 265.295 70.1488 264.527 70.1488C263.75 70.1488 263.144 70.4603 262.709 71.0832C262.274 71.6976 262.056 72.5638 262.056 73.6816V74.1936C262.056 75.3286 262.278 76.199 262.722 76.8048C263.165 77.4107 263.776 77.7136 264.552 77.7136ZM264.552 78.6352C263.46 78.6352 262.581 78.2299 261.915 77.4192C261.25 76.6086 260.917 75.5376 260.917 74.2064V73.6944C260.917 72.3376 261.237 71.2582 261.877 70.456C262.525 69.6539 263.409 69.2528 264.527 69.2528C265.636 69.2528 266.506 69.6582 267.138 70.4688C267.778 71.2795 268.098 72.3462 268.098 73.6688V74.1808C268.098 75.5291 267.782 76.6086 267.151 77.4192C266.528 78.2299 265.661 78.6352 264.552 78.6352ZM270.605 78.3536C270.443 78.5072 270.251 78.584 270.029 78.584C269.807 78.584 269.615 78.5072 269.453 78.3536C269.291 78.1915 269.21 77.9952 269.21 77.7648C269.21 77.5344 269.291 77.3424 269.453 77.1888C269.615 77.0267 269.807 76.9456 270.029 76.9456C270.251 76.9456 270.443 77.0267 270.605 77.1888C270.767 77.3424 270.848 77.5344 270.848 77.7648C270.848 77.9952 270.767 78.1915 270.605 78.3536ZM273.469 78.52V70.4688L271.421 71.9408V70.904L273.546 69.368H274.583V78.52H273.469Z" fill="#7F8198"/>
<path d="M331.517 78.52L334.666 69.368H336.125L339.223 78.52H338.122L337.226 75.8832H333.45L332.567 78.52H331.517ZM335.344 70.2896L333.757 75H336.931L335.344 70.2896ZM340.756 78.52V71.8256H341.819V73.0288C342.049 72.6107 342.331 72.2907 342.664 72.0688C343.005 71.847 343.457 71.7275 344.02 71.7104V72.7088C343.287 72.743 342.736 72.9136 342.369 73.2208C342.002 73.528 341.819 74.0699 341.819 74.8464V78.52H340.756ZM347.183 78.6352C346.526 78.6352 345.989 78.4731 345.57 78.1488C345.161 77.816 344.956 77.3211 344.956 76.664C344.956 75.9472 345.272 75.4224 345.903 75.0896C346.543 74.7568 347.345 74.5904 348.31 74.5904H349.27V74.104C349.27 73.5664 349.159 73.1824 348.937 72.952C348.715 72.7131 348.348 72.5936 347.836 72.5936C346.914 72.5936 346.402 72.9947 346.3 73.7968H345.238C345.306 73.08 345.588 72.5552 346.082 72.2224C346.577 71.8811 347.179 71.7104 347.887 71.7104C349.517 71.7104 350.332 72.5083 350.332 74.104V78.52H349.27V77.6752C348.758 78.3152 348.062 78.6352 347.183 78.6352ZM347.286 77.7904C347.866 77.7904 348.34 77.6496 348.706 77.368C349.082 77.0779 349.27 76.6811 349.27 76.1776V75.3456H348.348C346.795 75.3456 346.018 75.7851 346.018 76.664C346.018 77.415 346.441 77.7904 347.286 77.7904ZM355.094 80.9648C354.164 80.9648 353.447 80.7728 352.944 80.3888C352.449 80.0134 352.154 79.5184 352.061 78.904H353.149C353.302 79.6806 353.946 80.0688 355.081 80.0688C355.764 80.0688 356.293 79.8982 356.669 79.5568C357.044 79.224 357.232 78.7078 357.232 78.008V77.0352C357.027 77.3851 356.715 77.6838 356.297 77.9312C355.879 78.1787 355.435 78.3024 354.966 78.3024C354.087 78.3024 353.358 78.0038 352.777 77.4064C352.206 76.8091 351.92 76.0496 351.92 75.128V75.0384C351.92 74.1083 352.214 73.3232 352.803 72.6832C353.392 72.0347 354.138 71.7104 355.043 71.7104C356.033 71.7104 356.762 72.1072 357.232 72.9008V71.8256H358.294V78.072C358.286 79.0192 357.991 79.736 357.411 80.2224C356.831 80.7174 356.058 80.9648 355.094 80.9648ZM355.081 77.4192C355.721 77.4192 356.246 77.2102 356.656 76.792C357.065 76.3654 357.27 75.7851 357.27 75.0512V74.9616C357.27 74.2192 357.078 73.639 356.694 73.2208C356.319 72.8027 355.802 72.5936 355.145 72.5936C354.488 72.5936 353.968 72.8155 353.584 73.2592C353.208 73.6944 353.021 74.2704 353.021 74.9872V75.0896C353.021 75.7979 353.217 76.3654 353.609 76.792C354.01 77.2102 354.501 77.4192 355.081 77.4192ZM363.234 77.752C363.9 77.752 364.429 77.5216 364.822 77.0608C365.223 76.6 365.423 75.9899 365.423 75.2304V75.1408C365.423 74.3643 365.223 73.7456 364.822 73.2848C364.429 72.824 363.9 72.5936 363.234 72.5936C362.56 72.5936 362.027 72.824 361.634 73.2848C361.242 73.7456 361.046 74.36 361.046 75.128V75.2304C361.046 75.9984 361.242 76.6128 361.634 77.0736C362.027 77.5259 362.56 77.752 363.234 77.752ZM363.222 78.6352C362.274 78.6352 361.489 78.3152 360.866 77.6752C360.252 77.0267 359.945 76.2118 359.945 75.2304V75.128C359.945 74.1296 360.252 73.3104 360.866 72.6704C361.489 72.0304 362.279 71.7104 363.234 71.7104C364.19 71.7104 364.975 72.0304 365.59 72.6704C366.212 73.3019 366.524 74.1168 366.524 75.1152V75.2176C366.524 76.2246 366.212 77.048 365.59 77.688C364.967 78.3195 364.177 78.6352 363.222 78.6352ZM368.169 78.52V71.8256H369.231V72.888C369.393 72.5467 369.662 72.2651 370.038 72.0432C370.413 71.8214 370.861 71.7104 371.382 71.7104C372.116 71.7104 372.692 71.928 373.11 72.3632C373.528 72.7984 373.737 73.4811 373.737 74.4112V78.52H372.675V74.3344C372.675 73.7456 372.547 73.3147 372.291 73.0416C372.035 72.7686 371.638 72.632 371.1 72.632C370.58 72.632 370.136 72.7942 369.769 73.1184C369.411 73.4427 369.231 73.8907 369.231 74.4624V78.52H368.169ZM379.283 78.52V69.368H380.73L385.184 76.9328V69.368H386.246V78.52H384.966L380.346 70.6736V78.52H379.283ZM391.208 78.6352C390.252 78.6352 389.472 78.328 388.866 77.7136C388.268 77.0907 387.97 76.2672 387.97 75.2432V75.1408C387.97 74.1339 388.26 73.3104 388.84 72.6704C389.429 72.0304 390.184 71.7104 391.106 71.7104C391.959 71.7104 392.672 71.9878 393.243 72.5424C393.824 73.0886 394.114 73.9206 394.114 75.0384V75.384H389.071C389.096 76.152 389.288 76.7408 389.647 77.1504C390.013 77.5515 390.538 77.752 391.221 77.752C392.271 77.752 392.864 77.3638 393 76.5872H394.063C393.952 77.2443 393.64 77.752 393.128 78.1104C392.616 78.4603 391.976 78.6352 391.208 78.6352ZM389.109 74.5264H393.026C392.932 73.2379 392.292 72.5936 391.106 72.5936C390.568 72.5936 390.124 72.7686 389.775 73.1184C389.425 73.4598 389.203 73.9291 389.109 74.5264ZM397.779 78.6096C397.19 78.6096 396.742 78.4518 396.435 78.136C396.128 77.8203 395.974 77.3894 395.974 76.8432V72.7216H395.014V71.8256H395.974V70.3024H397.037V71.8256H398.598V72.7216H397.037V76.7408C397.037 77.3894 397.314 77.7136 397.869 77.7136C398.176 77.7136 398.449 77.6667 398.688 77.5728V78.4688C398.423 78.5627 398.12 78.6096 397.779 78.6096ZM401.638 78.52L399.577 71.8256H400.729L402.291 77.2144L403.916 71.8256H404.838L406.361 77.2144L407.936 71.8256H409.024L406.937 78.52H405.76L404.364 73.5024L402.803 78.52H401.638ZM413.122 77.752C413.787 77.752 414.317 77.5216 414.709 77.0608C415.11 76.6 415.311 75.9899 415.311 75.2304V75.1408C415.311 74.3643 415.11 73.7456 414.709 73.2848C414.317 72.824 413.787 72.5936 413.122 72.5936C412.448 72.5936 411.914 72.824 411.522 73.2848C411.129 73.7456 410.933 74.36 410.933 75.128V75.2304C410.933 75.9984 411.129 76.6128 411.522 77.0736C411.914 77.5259 412.448 77.752 413.122 77.752ZM413.109 78.6352C412.162 78.6352 411.377 78.3152 410.754 77.6752C410.139 77.0267 409.832 76.2118 409.832 75.2304V75.128C409.832 74.1296 410.139 73.3104 410.754 72.6704C411.377 72.0304 412.166 71.7104 413.122 71.7104C414.078 71.7104 414.863 72.0304 415.477 72.6704C416.1 73.3019 416.411 74.1168 416.411 75.1152V75.2176C416.411 76.2246 416.1 77.048 415.477 77.688C414.854 78.3195 414.065 78.6352 413.109 78.6352ZM418.056 78.52V71.8256H419.119V73.0288C419.349 72.6107 419.631 72.2907 419.964 72.0688C420.305 71.847 420.757 71.7275 421.32 71.7104V72.7088C420.587 72.743 420.036 72.9136 419.669 73.2208C419.302 73.528 419.119 74.0699 419.119 74.8464V78.52H418.056ZM422.869 78.52V68.6256H423.931V74.9104L426.709 71.8256H427.951L425.083 74.936L428.194 78.52H426.901L423.931 75.0512V78.52H422.869ZM434.892 78.6096C434.303 78.6096 433.855 78.4518 433.548 78.136C433.24 77.8203 433.087 77.3894 433.087 76.8432V72.7216H432.127V71.8256H433.087V70.3024H434.149V71.8256H435.711V72.7216H434.149V76.7408C434.149 77.3894 434.427 77.7136 434.981 77.7136C435.288 77.7136 435.562 77.6667 435.8 77.5728V78.4688C435.536 78.5627 435.233 78.6096 434.892 78.6096ZM440.197 77.752C440.862 77.752 441.392 77.5216 441.784 77.0608C442.185 76.6 442.386 75.9899 442.386 75.2304V75.1408C442.386 74.3643 442.185 73.7456 441.784 73.2848C441.392 72.824 440.862 72.5936 440.197 72.5936C439.523 72.5936 438.989 72.824 438.597 73.2848C438.204 73.7456 438.008 74.36 438.008 75.128V75.2304C438.008 75.9984 438.204 76.6128 438.597 77.0736C438.989 77.5259 439.523 77.752 440.197 77.752ZM440.184 78.6352C439.237 78.6352 438.452 78.3152 437.829 77.6752C437.214 77.0267 436.907 76.2118 436.907 75.2304V75.128C436.907 74.1296 437.214 73.3104 437.829 72.6704C438.452 72.0304 439.241 71.7104 440.197 71.7104C441.153 71.7104 441.938 72.0304 442.552 72.6704C443.175 73.3019 443.486 74.1168 443.486 75.1152V75.2176C443.486 76.2246 443.175 77.048 442.552 77.688C441.929 78.3195 441.14 78.6352 440.184 78.6352ZM445.131 78.52V68.6256H446.194V74.9104L448.971 71.8256H450.213L447.346 74.936L450.456 78.52H449.163L446.194 75.0512V78.52H445.131ZM454.221 78.6352C453.265 78.6352 452.484 78.328 451.878 77.7136C451.281 77.0907 450.982 76.2672 450.982 75.2432V75.1408C450.982 74.1339 451.272 73.3104 451.853 72.6704C452.441 72.0304 453.197 71.7104 454.118 71.7104C454.972 71.7104 455.684 71.9878 456.256 72.5424C456.836 73.0886 457.126 73.9206 457.126 75.0384V75.384H452.083C452.109 76.152 452.301 76.7408 452.659 77.1504C453.026 77.5515 453.551 77.752 454.233 77.752C455.283 77.752 455.876 77.3638 456.013 76.5872H457.075C456.964 77.2443 456.653 77.752 456.141 78.1104C455.629 78.4603 454.989 78.6352 454.221 78.6352ZM452.121 74.5264H456.038C455.944 73.2379 455.304 72.5936 454.118 72.5936C453.581 72.5936 453.137 72.7686 452.787 73.1184C452.437 73.4598 452.215 73.9291 452.121 74.5264ZM458.756 78.52V71.8256H459.819V72.888C459.981 72.5467 460.25 72.2651 460.625 72.0432C461.001 71.8214 461.449 71.7104 461.969 71.7104C462.703 71.7104 463.279 71.928 463.697 72.3632C464.115 72.7984 464.324 73.4811 464.324 74.4112V78.52H463.262V74.3344C463.262 73.7456 463.134 73.3147 462.878 73.0416C462.622 72.7686 462.225 72.632 461.688 72.632C461.167 72.632 460.723 72.7942 460.356 73.1184C459.998 73.4427 459.819 73.8907 459.819 74.4624V78.52H458.756ZM471.868 78.6352C471.065 78.6352 470.434 78.4432 469.973 78.0592C469.521 77.6752 469.278 77.1419 469.244 76.4592H470.28C470.366 77.3211 470.89 77.752 471.855 77.752C472.828 77.752 473.314 77.3979 473.314 76.6896C473.314 76.3568 473.19 76.1136 472.943 75.96C472.704 75.7979 472.307 75.6656 471.752 75.5632C470.882 75.4011 470.276 75.1792 469.935 74.8976C469.593 74.6075 469.423 74.1723 469.423 73.592C469.423 73.0118 469.653 72.5552 470.114 72.2224C470.583 71.8811 471.108 71.7104 471.688 71.7104C473.139 71.7104 473.945 72.3547 474.108 73.6432H473.084C473.007 73.2763 472.857 73.0118 472.636 72.8496C472.414 72.679 472.094 72.5936 471.676 72.5936C471.292 72.5936 470.984 72.6832 470.754 72.8624C470.524 73.0331 470.408 73.2635 470.408 73.5536C470.408 73.8608 470.515 74.087 470.728 74.232C470.95 74.3771 471.364 74.5051 471.97 74.616C472.371 74.6928 472.691 74.7696 472.93 74.8464C473.177 74.9147 473.416 75.0214 473.647 75.1664C473.886 75.3115 474.056 75.5035 474.159 75.7424C474.27 75.9728 474.325 76.2587 474.325 76.6C474.325 77.223 474.112 77.7179 473.685 78.0848C473.267 78.4518 472.661 78.6352 471.868 78.6352ZM477.621 78.6352C476.964 78.6352 476.426 78.4731 476.008 78.1488C475.598 77.816 475.394 77.3211 475.394 76.664C475.394 75.9472 475.709 75.4224 476.341 75.0896C476.981 74.7568 477.783 74.5904 478.747 74.5904H479.707V74.104C479.707 73.5664 479.596 73.1824 479.374 72.952C479.152 72.7131 478.786 72.5936 478.274 72.5936C477.352 72.5936 476.84 72.9947 476.738 73.7968H475.675C475.743 73.08 476.025 72.5552 476.52 72.2224C477.015 71.8811 477.616 71.7104 478.325 71.7104C479.955 71.7104 480.77 72.5083 480.77 74.104V78.52H479.707V77.6752C479.195 78.3152 478.5 78.6352 477.621 78.6352ZM477.723 77.7904C478.303 77.7904 478.777 77.6496 479.144 77.368C479.519 77.0779 479.707 76.6811 479.707 76.1776V75.3456H478.786C477.232 75.3456 476.456 75.7851 476.456 76.664C476.456 77.415 476.878 77.7904 477.723 77.7904ZM482.882 78.52V68.6256H483.957V78.52H482.882ZM488.871 78.6352C487.915 78.6352 487.134 78.328 486.528 77.7136C485.931 77.0907 485.632 76.2672 485.632 75.2432V75.1408C485.632 74.1339 485.922 73.3104 486.503 72.6704C487.091 72.0304 487.847 71.7104 488.768 71.7104C489.622 71.7104 490.334 71.9878 490.906 72.5424C491.486 73.0886 491.776 73.9206 491.776 75.0384V75.384H486.733C486.759 76.152 486.951 76.7408 487.309 77.1504C487.676 77.5515 488.201 77.752 488.883 77.752C489.933 77.752 490.526 77.3638 490.663 76.5872H491.725C491.614 77.2443 491.303 77.752 490.791 78.1104C490.279 78.4603 489.639 78.6352 488.871 78.6352ZM486.771 74.5264H490.688C490.594 73.2379 489.954 72.5936 488.768 72.5936C488.231 72.5936 487.787 72.7686 487.437 73.1184C487.087 73.4598 486.865 73.9291 486.771 74.5264Z" fill="#7F8198"/>
<path d="M541.886 78.52L545.035 69.368H546.494L549.591 78.52H548.491L547.595 75.8832H543.819L542.935 78.52H541.886ZM545.713 70.2896L544.126 75H547.3L545.713 70.2896ZM551.125 78.52V71.8256H552.188V73.0288C552.418 72.6107 552.7 72.2907 553.032 72.0688C553.374 71.847 553.826 71.7275 554.389 71.7104V72.7088C553.655 72.743 553.105 72.9136 552.738 73.2208C552.371 73.528 552.188 74.0699 552.188 74.8464V78.52H551.125ZM557.552 78.6352C556.895 78.6352 556.357 78.4731 555.939 78.1488C555.53 77.816 555.325 77.3211 555.325 76.664C555.325 75.9472 555.641 75.4224 556.272 75.0896C556.912 74.7568 557.714 74.5904 558.678 74.5904H559.638V74.104C559.638 73.5664 559.527 73.1824 559.306 72.952C559.084 72.7131 558.717 72.5936 558.205 72.5936C557.283 72.5936 556.771 72.9947 556.669 73.7968H555.606C555.675 73.08 555.956 72.5552 556.451 72.2224C556.946 71.8811 557.548 71.7104 558.256 71.7104C559.886 71.7104 560.701 72.5083 560.701 74.104V78.52H559.638V77.6752C559.126 78.3152 558.431 78.6352 557.552 78.6352ZM557.654 77.7904C558.235 77.7904 558.708 77.6496 559.075 77.368C559.451 77.0779 559.638 76.6811 559.638 76.1776V75.3456H558.717C557.164 75.3456 556.387 75.7851 556.387 76.664C556.387 77.415 556.81 77.7904 557.654 77.7904ZM565.463 80.9648C564.533 80.9648 563.816 80.7728 563.312 80.3888C562.818 80.0134 562.523 79.5184 562.429 78.904H563.517C563.671 79.6806 564.315 80.0688 565.45 80.0688C566.133 80.0688 566.662 79.8982 567.037 79.5568C567.413 79.224 567.6 78.7078 567.6 78.008V77.0352C567.396 77.3851 567.084 77.6838 566.666 77.9312C566.248 78.1787 565.804 78.3024 565.335 78.3024C564.456 78.3024 563.726 78.0038 563.146 77.4064C562.574 76.8091 562.288 76.0496 562.288 75.128V75.0384C562.288 74.1083 562.583 73.3232 563.172 72.6832C563.76 72.0347 564.507 71.7104 565.412 71.7104C566.402 71.7104 567.131 72.1072 567.6 72.9008V71.8256H568.663V78.072C568.654 79.0192 568.36 79.736 567.78 80.2224C567.199 80.7174 566.427 80.9648 565.463 80.9648ZM565.45 77.4192C566.09 77.4192 566.615 77.2102 567.024 76.792C567.434 76.3654 567.639 75.7851 567.639 75.0512V74.9616C567.639 74.2192 567.447 73.639 567.063 73.2208C566.687 72.8027 566.171 72.5936 565.514 72.5936C564.857 72.5936 564.336 72.8155 563.952 73.2592C563.577 73.6944 563.389 74.2704 563.389 74.9872V75.0896C563.389 75.7979 563.586 76.3654 563.978 76.792C564.379 77.2102 564.87 77.4192 565.45 77.4192ZM573.603 77.752C574.269 77.752 574.798 77.5216 575.19 77.0608C575.591 76.6 575.792 75.9899 575.792 75.2304V75.1408C575.792 74.3643 575.591 73.7456 575.19 73.2848C574.798 72.824 574.269 72.5936 573.603 72.5936C572.929 72.5936 572.396 72.824 572.003 73.2848C571.611 73.7456 571.414 74.36 571.414 75.128V75.2304C571.414 75.9984 571.611 76.6128 572.003 77.0736C572.396 77.5259 572.929 77.752 573.603 77.752ZM573.59 78.6352C572.643 78.6352 571.858 78.3152 571.235 77.6752C570.621 77.0267 570.313 76.2118 570.313 75.2304V75.128C570.313 74.1296 570.621 73.3104 571.235 72.6704C571.858 72.0304 572.647 71.7104 573.603 71.7104C574.559 71.7104 575.344 72.0304 575.958 72.6704C576.581 73.3019 576.893 74.1168 576.893 75.1152V75.2176C576.893 76.2246 576.581 77.048 575.958 77.688C575.335 78.3195 574.546 78.6352 573.59 78.6352ZM578.538 78.52V71.8256H579.6V72.888C579.762 72.5467 580.031 72.2651 580.406 72.0432C580.782 71.8214 581.23 71.7104 581.75 71.7104C582.484 71.7104 583.06 71.928 583.478 72.3632C583.897 72.7984 584.106 73.4811 584.106 74.4112V78.52H583.043V74.3344C583.043 73.7456 582.915 73.3147 582.659 73.0416C582.403 72.7686 582.006 72.632 581.469 72.632C580.948 72.632 580.505 72.7942 580.138 73.1184C579.779 73.4427 579.6 73.8907 579.6 74.4624V78.52H578.538ZM592.903 77.7136C593.697 77.7136 594.298 77.415 594.708 76.8176C595.118 76.2118 595.322 75.3286 595.322 74.168V73.656C595.322 72.5808 595.105 71.7275 594.67 71.096C594.243 70.4646 593.646 70.1488 592.878 70.1488C592.101 70.1488 591.495 70.4603 591.06 71.0832C590.625 71.6976 590.407 72.5638 590.407 73.6816V74.1936C590.407 75.3286 590.629 76.199 591.073 76.8048C591.517 77.4107 592.127 77.7136 592.903 77.7136ZM592.903 78.6352C591.811 78.6352 590.932 78.2299 590.266 77.4192C589.601 76.6086 589.268 75.5376 589.268 74.2064V73.6944C589.268 72.3376 589.588 71.2582 590.228 70.456C590.877 69.6539 591.76 69.2528 592.878 69.2528C593.987 69.2528 594.857 69.6582 595.489 70.4688C596.129 71.2795 596.449 72.3462 596.449 73.6688V74.1808C596.449 75.5291 596.133 76.6086 595.502 77.4192C594.879 78.2299 594.013 78.6352 592.903 78.6352ZM598.956 78.3536C598.794 78.5072 598.602 78.584 598.38 78.584C598.158 78.584 597.966 78.5072 597.804 78.3536C597.642 78.1915 597.561 77.9952 597.561 77.7648C597.561 77.5344 597.642 77.3424 597.804 77.1888C597.966 77.0267 598.158 76.9456 598.38 76.9456C598.602 76.9456 598.794 77.0267 598.956 77.1888C599.118 77.3424 599.199 77.5344 599.199 77.7648C599.199 77.9952 599.118 78.1915 598.956 78.3536ZM603.597 78.6352C602.65 78.6352 601.92 78.4006 601.408 77.9312C600.905 77.4619 600.619 76.8347 600.55 76.0496H601.613C601.715 76.6043 601.907 77.0267 602.189 77.3168C602.47 77.5984 602.935 77.7392 603.584 77.7392C604.207 77.7392 604.698 77.543 605.056 77.1504C605.414 76.7579 605.594 76.216 605.594 75.5248C605.594 74.8763 605.419 74.36 605.069 73.976C604.719 73.5835 604.254 73.3872 603.674 73.3872C602.752 73.3872 602.031 73.6816 601.51 74.2704H601.101V69.368H606.246V70.328H602.022V73.1184C602.475 72.7003 603.098 72.4912 603.891 72.4912C604.727 72.4912 605.41 72.7686 605.939 73.3232C606.468 73.8694 606.733 74.6032 606.733 75.5248C606.733 76.4635 606.434 77.2187 605.837 77.7904C605.239 78.3536 604.493 78.6352 603.597 78.6352ZM612.423 72.2736L611.412 71.8128L612.91 69.2272L613.562 69.56L612.423 72.2736ZM614.689 72.2736L613.678 71.8128L615.175 69.2272L615.828 69.56L614.689 72.2736ZM619.459 78.52V70.2768H616.796V69.368H623.235V70.2768H620.572V78.52H619.459ZM624.675 78.52V68.6256H625.738V72.888C625.9 72.5467 626.169 72.2651 626.544 72.0432C626.919 71.8214 627.367 71.7104 627.888 71.7104C628.622 71.7104 629.198 71.928 629.616 72.3632C630.034 72.7984 630.243 73.4811 630.243 74.4112V78.52H629.181V74.3344C629.181 73.7456 629.053 73.3147 628.797 73.0416C628.541 72.7686 628.144 72.632 627.606 72.632C627.086 72.632 626.642 72.7942 626.275 73.1184C625.917 73.4427 625.738 73.8907 625.738 74.4624V78.52H624.675ZM635.064 78.6352C634.109 78.6352 633.328 78.328 632.722 77.7136C632.125 77.0907 631.826 76.2672 631.826 75.2432V75.1408C631.826 74.1339 632.116 73.3104 632.696 72.6704C633.285 72.0304 634.04 71.7104 634.962 71.7104C635.815 71.7104 636.528 71.9878 637.1 72.5424C637.68 73.0886 637.97 73.9206 637.97 75.0384V75.384H632.927C632.952 76.152 633.144 76.7408 633.503 77.1504C633.87 77.5515 634.395 77.752 635.077 77.752C636.127 77.752 636.72 77.3638 636.856 76.5872H637.919C637.808 77.2443 637.496 77.752 636.984 78.1104C636.472 78.4603 635.832 78.6352 635.064 78.6352ZM632.965 74.5264H636.882C636.788 73.2379 636.148 72.5936 634.962 72.5936C634.424 72.5936 633.981 72.7686 633.631 73.1184C633.281 73.4598 633.059 73.9291 632.965 74.5264ZM642.373 78.52L645.522 69.368H646.981L650.079 78.52H648.978L648.082 75.8832H644.306L643.423 78.52H642.373ZM646.2 70.2896L644.613 75H647.788L646.2 70.2896ZM651.613 78.52V71.8256H652.675V73.0288C652.905 72.6107 653.187 72.2907 653.52 72.0688C653.861 71.847 654.313 71.7275 654.877 71.7104V72.7088C654.143 72.743 653.592 72.9136 653.225 73.2208C652.859 73.528 652.675 74.0699 652.675 74.8464V78.52H651.613ZM659.015 78.6352C658.068 78.6352 657.283 78.328 656.66 77.7136C656.046 77.0907 655.738 76.2672 655.738 75.2432V75.1408C655.738 74.1339 656.05 73.3104 656.673 72.6704C657.304 72.0304 658.077 71.7104 658.99 71.7104C659.758 71.7104 660.41 71.9024 660.948 72.2864C661.486 72.6619 661.801 73.2507 661.895 74.0528H660.846C660.692 73.08 660.073 72.5936 658.99 72.5936C658.367 72.5936 657.85 72.8283 657.441 73.2976C657.04 73.7584 656.839 74.3728 656.839 75.1408V75.2432C656.839 76.0454 657.036 76.664 657.428 77.0992C657.829 77.5344 658.362 77.752 659.028 77.752C659.532 77.752 659.962 77.6112 660.321 77.3296C660.688 77.0395 660.897 76.6342 660.948 76.1136H661.934C661.865 76.8475 661.558 77.4534 661.012 77.9312C660.474 78.4006 659.809 78.6352 659.015 78.6352ZM663.538 78.52V68.6256H664.6V72.888C664.762 72.5467 665.031 72.2651 665.406 72.0432C665.782 71.8214 666.23 71.7104 666.75 71.7104C667.484 71.7104 668.06 71.928 668.478 72.3632C668.897 72.7984 669.106 73.4811 669.106 74.4112V78.52H668.043V74.3344C668.043 73.7456 667.915 73.3147 667.659 73.0416C667.403 72.7686 667.006 72.632 666.469 72.632C665.948 72.632 665.505 72.7942 665.138 73.1184C664.779 73.4427 664.6 73.8907 664.6 74.4624V78.52H663.538ZM671.213 78.52V71.8256H672.276V78.52H671.213ZM672.212 70.2256C672.075 70.3622 671.913 70.4304 671.725 70.4304C671.538 70.4304 671.371 70.3622 671.226 70.2256C671.09 70.0891 671.021 69.9227 671.021 69.7264C671.021 69.5302 671.09 69.3638 671.226 69.2272C671.371 69.0907 671.538 69.0224 671.725 69.0224C671.913 69.0224 672.075 69.0907 672.212 69.2272C672.357 69.3638 672.429 69.5302 672.429 69.7264C672.429 69.9227 672.357 70.0891 672.212 70.2256ZM676.485 78.6096C675.897 78.6096 675.449 78.4518 675.141 78.136C674.834 77.8203 674.681 77.3894 674.681 76.8432V72.7216H673.721V71.8256H674.681V70.3024H675.743V71.8256H677.305V72.7216H675.743V76.7408C675.743 77.3894 676.02 77.7136 676.575 77.7136C676.882 77.7136 677.155 77.6667 677.394 77.5728V78.4688C677.13 78.5627 676.827 78.6096 676.485 78.6096ZM681.739 78.6352C680.784 78.6352 680.003 78.328 679.397 77.7136C678.8 77.0907 678.501 76.2672 678.501 75.2432V75.1408C678.501 74.1339 678.791 73.3104 679.371 72.6704C679.96 72.0304 680.715 71.7104 681.637 71.7104C682.49 71.7104 683.203 71.9878 683.775 72.5424C684.355 73.0886 684.645 73.9206 684.645 75.0384V75.384H679.602C679.627 76.152 679.819 76.7408 680.178 77.1504C680.545 77.5515 681.07 77.752 681.752 77.752C682.802 77.752 683.395 77.3638 683.531 76.5872H684.594C684.483 77.2443 684.171 77.752 683.659 78.1104C683.147 78.4603 682.507 78.6352 681.739 78.6352ZM679.64 74.5264H683.557C683.463 73.2379 682.823 72.5936 681.637 72.5936C681.099 72.5936 680.656 72.7686 680.306 73.1184C679.956 73.4598 679.734 73.9291 679.64 74.5264ZM689.053 78.6352C688.106 78.6352 687.321 78.328 686.698 77.7136C686.083 77.0907 685.776 76.2672 685.776 75.2432V75.1408C685.776 74.1339 686.087 73.3104 686.71 72.6704C687.342 72.0304 688.114 71.7104 689.027 71.7104C689.795 71.7104 690.448 71.9024 690.986 72.2864C691.523 72.6619 691.839 73.2507 691.933 74.0528H690.883C690.73 73.08 690.111 72.5936 689.027 72.5936C688.404 72.5936 687.888 72.8283 687.478 73.2976C687.077 73.7584 686.877 74.3728 686.877 75.1408V75.2432C686.877 76.0454 687.073 76.664 687.466 77.0992C687.867 77.5344 688.4 77.752 689.066 77.752C689.569 77.752 690 77.6112 690.358 77.3296C690.725 77.0395 690.934 76.6342 690.986 76.1136H691.971C691.903 76.8475 691.596 77.4534 691.05 77.9312C690.512 78.4006 689.846 78.6352 689.053 78.6352ZM695.61 78.6096C695.022 78.6096 694.574 78.4518 694.266 78.136C693.959 77.8203 693.806 77.3894 693.806 76.8432V72.7216H692.846V71.8256H693.806V70.3024H694.868V71.8256H696.43V72.7216H694.868V76.7408C694.868 77.3894 695.145 77.7136 695.7 77.7136C696.007 77.7136 696.28 77.6667 696.519 77.5728V78.4688C696.255 78.5627 695.952 78.6096 695.61 78.6096ZM698.304 72.2736L697.652 71.9408L698.791 69.2272L699.802 69.688L698.304 72.2736ZM700.57 72.2736L699.917 71.9408L701.056 69.2272L702.068 69.688L700.57 72.2736Z" fill="#7F8198"/>
<path d="M753.016 78.52L756.165 69.368H757.624L760.721 78.52H759.621L758.725 75.8832H754.949L754.065 78.52H753.016ZM756.843 70.2896L755.256 75H758.43L756.843 70.2896ZM762.255 78.52V71.8256H763.318V73.0288C763.548 72.6107 763.83 72.2907 764.162 72.0688C764.504 71.847 764.956 71.7275 765.519 71.7104V72.7088C764.785 72.743 764.235 72.9136 763.868 73.2208C763.501 73.528 763.318 74.0699 763.318 74.8464V78.52H762.255ZM768.682 78.6352C768.025 78.6352 767.487 78.4731 767.069 78.1488C766.66 77.816 766.455 77.3211 766.455 76.664C766.455 75.9472 766.771 75.4224 767.402 75.0896C768.042 74.7568 768.844 74.5904 769.808 74.5904H770.768V74.104C770.768 73.5664 770.658 73.1824 770.436 72.952C770.214 72.7131 769.847 72.5936 769.335 72.5936C768.413 72.5936 767.901 72.9947 767.799 73.7968H766.736C766.805 73.08 767.086 72.5552 767.581 72.2224C768.076 71.8811 768.678 71.7104 769.386 71.7104C771.016 71.7104 771.831 72.5083 771.831 74.104V78.52H770.768V77.6752C770.256 78.3152 769.561 78.6352 768.682 78.6352ZM768.784 77.7904C769.365 77.7904 769.838 77.6496 770.205 77.368C770.581 77.0779 770.768 76.6811 770.768 76.1776V75.3456H769.847C768.294 75.3456 767.517 75.7851 767.517 76.664C767.517 77.415 767.94 77.7904 768.784 77.7904ZM776.593 80.9648C775.663 80.9648 774.946 80.7728 774.443 80.3888C773.948 80.0134 773.653 79.5184 773.559 78.904H774.647C774.801 79.6806 775.445 80.0688 776.58 80.0688C777.263 80.0688 777.792 79.8982 778.167 79.5568C778.543 79.224 778.731 78.7078 778.731 78.008V77.0352C778.526 77.3851 778.214 77.6838 777.796 77.9312C777.378 78.1787 776.934 78.3024 776.465 78.3024C775.586 78.3024 774.856 78.0038 774.276 77.4064C773.704 76.8091 773.419 76.0496 773.419 75.128V75.0384C773.419 74.1083 773.713 73.3232 774.302 72.6832C774.891 72.0347 775.637 71.7104 776.542 71.7104C777.532 71.7104 778.261 72.1072 778.731 72.9008V71.8256H779.793V78.072C779.784 79.0192 779.49 79.736 778.91 80.2224C778.33 80.7174 777.557 80.9648 776.593 80.9648ZM776.58 77.4192C777.22 77.4192 777.745 77.2102 778.155 76.792C778.564 76.3654 778.769 75.7851 778.769 75.0512V74.9616C778.769 74.2192 778.577 73.639 778.193 73.2208C777.818 72.8027 777.301 72.5936 776.644 72.5936C775.987 72.5936 775.467 72.8155 775.083 73.2592C774.707 73.6944 774.519 74.2704 774.519 74.9872V75.0896C774.519 75.7979 774.716 76.3654 775.108 76.792C775.509 77.2102 776 77.4192 776.58 77.4192ZM784.733 77.752C785.399 77.752 785.928 77.5216 786.32 77.0608C786.721 76.6 786.922 75.9899 786.922 75.2304V75.1408C786.922 74.3643 786.721 73.7456 786.32 73.2848C785.928 72.824 785.399 72.5936 784.733 72.5936C784.059 72.5936 783.526 72.824 783.133 73.2848C782.741 73.7456 782.544 74.36 782.544 75.128V75.2304C782.544 75.9984 782.741 76.6128 783.133 77.0736C783.526 77.5259 784.059 77.752 784.733 77.752ZM784.72 78.6352C783.773 78.6352 782.988 78.3152 782.365 77.6752C781.751 77.0267 781.444 76.2118 781.444 75.2304V75.128C781.444 74.1296 781.751 73.3104 782.365 72.6704C782.988 72.0304 783.777 71.7104 784.733 71.7104C785.689 71.7104 786.474 72.0304 787.088 72.6704C787.711 73.3019 788.023 74.1168 788.023 75.1152V75.2176C788.023 76.2246 787.711 77.048 787.088 77.688C786.465 78.3195 785.676 78.6352 784.72 78.6352ZM789.668 78.52V71.8256H790.73V72.888C790.892 72.5467 791.161 72.2651 791.537 72.0432C791.912 71.8214 792.36 71.7104 792.881 71.7104C793.614 71.7104 794.19 71.928 794.609 72.3632C795.027 72.7984 795.236 73.4811 795.236 74.4112V78.52H794.173V74.3344C794.173 73.7456 794.045 73.3147 793.789 73.0416C793.533 72.7686 793.137 72.632 792.599 72.632C792.078 72.632 791.635 72.7942 791.268 73.1184C790.909 73.4427 790.73 73.8907 790.73 74.4624V78.52H789.668ZM804.033 77.7136C804.827 77.7136 805.428 77.415 805.838 76.8176C806.248 76.2118 806.452 75.3286 806.452 74.168V73.656C806.452 72.5808 806.235 71.7275 805.8 71.096C805.373 70.4646 804.776 70.1488 804.008 70.1488C803.231 70.1488 802.625 70.4603 802.19 71.0832C801.755 71.6976 801.537 72.5638 801.537 73.6816V74.1936C801.537 75.3286 801.759 76.199 802.203 76.8048C802.647 77.4107 803.257 77.7136 804.033 77.7136ZM804.033 78.6352C802.941 78.6352 802.062 78.2299 801.396 77.4192C800.731 76.6086 800.398 75.5376 800.398 74.2064V73.6944C800.398 72.3376 800.718 71.2582 801.358 70.456C802.007 69.6539 802.89 69.2528 804.008 69.2528C805.117 69.2528 805.987 69.6582 806.619 70.4688C807.259 71.2795 807.579 72.3462 807.579 73.6688V74.1808C807.579 75.5291 807.263 76.6086 806.632 77.4192C806.009 78.2299 805.143 78.6352 804.033 78.6352ZM810.086 78.3536C809.924 78.5072 809.732 78.584 809.51 78.584C809.288 78.584 809.096 78.5072 808.934 78.3536C808.772 78.1915 808.691 77.9952 808.691 77.7648C808.691 77.5344 808.772 77.3424 808.934 77.1888C809.096 77.0267 809.288 76.9456 809.51 76.9456C809.732 76.9456 809.924 77.0267 810.086 77.1888C810.248 77.3424 810.329 77.5344 810.329 77.7648C810.329 77.9952 810.248 78.1915 810.086 78.3536ZM814.738 78.6352C814.132 78.6352 813.611 78.5286 813.176 78.3152C812.741 78.1019 812.4 77.799 812.152 77.4064C811.905 77.0139 811.725 76.5787 811.614 76.1008C811.504 75.6144 811.448 75.0726 811.448 74.4752V74.2576C811.448 72.6534 811.772 71.4203 812.421 70.5584C813.078 69.688 813.948 69.2528 815.032 69.2528C815.757 69.2528 816.355 69.4406 816.824 69.816C817.293 70.1915 817.588 70.7419 817.707 71.4672H816.645C816.542 71.0235 816.359 70.695 816.094 70.4816C815.83 70.2683 815.45 70.1616 814.955 70.1616C814.247 70.1616 813.675 70.4774 813.24 71.1088C812.805 71.7403 812.574 72.6448 812.549 73.8224C812.771 73.447 813.086 73.1483 813.496 72.9264C813.914 72.696 814.384 72.5808 814.904 72.5808C815.8 72.5808 816.521 72.8667 817.067 73.4384C817.622 74.0102 817.899 74.7227 817.899 75.576C817.899 76.4976 817.613 77.24 817.042 77.8032C816.47 78.3579 815.702 78.6352 814.738 78.6352ZM814.738 77.7648C815.344 77.7648 815.83 77.5686 816.197 77.176C816.572 76.7835 816.76 76.2672 816.76 75.6272C816.76 74.9702 816.577 74.4454 816.21 74.0528C815.843 73.6518 815.348 73.4512 814.725 73.4512C814.11 73.4512 813.607 73.639 813.214 74.0144C812.822 74.3899 812.626 74.8763 812.626 75.4736C812.626 76.199 812.818 76.7622 813.202 77.1632C813.594 77.5643 814.106 77.7648 814.738 77.7648ZM824.745 78.6352C824.088 78.6352 823.55 78.4731 823.132 78.1488C822.722 77.816 822.517 77.3211 822.517 76.664C822.517 75.9472 822.833 75.4224 823.465 75.0896C824.105 74.7568 824.907 74.5904 825.871 74.5904H826.831V74.104C826.831 73.5664 826.72 73.1824 826.498 72.952C826.276 72.7131 825.909 72.5936 825.397 72.5936C824.476 72.5936 823.964 72.9947 823.861 73.7968H822.799C822.867 73.08 823.149 72.5552 823.644 72.2224C824.139 71.8811 824.74 71.7104 825.449 71.7104C827.078 71.7104 827.893 72.5083 827.893 74.104V78.52H826.831V77.6752C826.319 78.3152 825.624 78.6352 824.745 78.6352ZM824.847 77.7904C825.427 77.7904 825.901 77.6496 826.268 77.368C826.643 77.0779 826.831 76.6811 826.831 76.1776V75.3456H825.909C824.356 75.3456 823.58 75.7851 823.58 76.664C823.58 77.415 824.002 77.7904 824.847 77.7904ZM829.98 78.52V71.8256H831.043V72.888C831.205 72.5467 831.474 72.2651 831.849 72.0432C832.225 71.8214 832.673 71.7104 833.193 71.7104C833.927 71.7104 834.503 71.928 834.921 72.3632C835.339 72.7984 835.548 73.4811 835.548 74.4112V78.52H834.486V74.3344C834.486 73.7456 834.358 73.3147 834.102 73.0416C833.846 72.7686 833.449 72.632 832.911 72.632C832.391 72.632 831.947 72.7942 831.58 73.1184C831.222 73.4427 831.043 73.8907 831.043 74.4624V78.52H829.98ZM840.152 78.6352C839.256 78.6352 838.526 78.3366 837.963 77.7392C837.408 77.1419 837.131 76.3312 837.131 75.3072V75.2048C837.131 74.1808 837.421 73.3446 838.001 72.696C838.582 72.039 839.333 71.7104 840.254 71.7104C841.244 71.7104 841.974 72.1072 842.443 72.9008V68.6256H843.505V78.52H842.443V77.368C842.238 77.7094 841.923 78.008 841.496 78.264C841.069 78.5115 840.621 78.6352 840.152 78.6352ZM840.267 77.752C840.924 77.752 841.457 77.5387 841.867 77.112C842.277 76.6768 842.481 76.0454 842.481 75.2176V75.1152C842.481 74.279 842.294 73.6518 841.918 73.2336C841.551 72.807 841.031 72.5936 840.357 72.5936C839.691 72.5936 839.171 72.8198 838.795 73.272C838.42 73.7158 838.232 74.343 838.232 75.1536V75.256C838.232 76.0667 838.42 76.6854 838.795 77.112C839.179 77.5387 839.67 77.752 840.267 77.752ZM849.043 78.52V71.8256H850.105V72.8496C850.267 72.5168 850.523 72.2438 850.873 72.0304C851.232 71.8171 851.641 71.7104 852.102 71.7104C853.083 71.7104 853.736 72.1286 854.06 72.9648C854.274 72.5552 854.594 72.2438 855.02 72.0304C855.456 71.8171 855.899 71.7104 856.352 71.7104C857.009 71.7104 857.546 71.928 857.964 72.3632C858.391 72.7899 858.604 73.4598 858.604 74.3728V78.52H857.542V74.296C857.542 73.1867 857.068 72.632 856.121 72.632C855.643 72.632 855.229 72.7899 854.88 73.1056C854.53 73.4214 854.355 73.8608 854.355 74.424V78.52H853.292V74.296C853.292 73.1867 852.819 72.632 851.872 72.632C851.394 72.632 850.98 72.7899 850.63 73.1056C850.28 73.4214 850.105 73.8608 850.105 74.424V78.52H849.043ZM862.37 78.6352C861.713 78.6352 861.175 78.4731 860.757 78.1488C860.347 77.816 860.142 77.3211 860.142 76.664C860.142 75.9472 860.458 75.4224 861.09 75.0896C861.73 74.7568 862.532 74.5904 863.496 74.5904H864.456V74.104C864.456 73.5664 864.345 73.1824 864.123 72.952C863.901 72.7131 863.534 72.5936 863.022 72.5936C862.101 72.5936 861.589 72.9947 861.486 73.7968H860.424C860.492 73.08 860.774 72.5552 861.269 72.2224C861.764 71.8811 862.365 71.7104 863.074 71.7104C864.703 71.7104 865.518 72.5083 865.518 74.104V78.52H864.456V77.6752C863.944 78.3152 863.249 78.6352 862.37 78.6352ZM862.472 77.7904C863.052 77.7904 863.526 77.6496 863.893 77.368C864.268 77.0779 864.456 76.6811 864.456 76.1776V75.3456H863.534C861.981 75.3456 861.205 75.7851 861.205 76.664C861.205 77.415 861.627 77.7904 862.472 77.7904ZM867.631 78.52V71.8256H868.693V78.52H867.631ZM868.629 70.2256C868.493 70.3622 868.331 70.4304 868.143 70.4304C867.955 70.4304 867.789 70.3622 867.644 70.2256C867.507 70.0891 867.439 69.9227 867.439 69.7264C867.439 69.5302 867.507 69.3638 867.644 69.2272C867.789 69.0907 867.955 69.0224 868.143 69.0224C868.331 69.0224 868.493 69.0907 868.629 69.2272C868.774 69.3638 868.847 69.5302 868.847 69.7264C868.847 69.9227 868.774 70.0891 868.629 70.2256ZM870.868 78.52V71.8256H871.93V72.888C872.092 72.5467 872.361 72.2651 872.737 72.0432C873.112 71.8214 873.56 71.7104 874.081 71.7104C874.814 71.7104 875.39 71.928 875.809 72.3632C876.227 72.7984 876.436 73.4811 876.436 74.4112V78.52H875.373V74.3344C875.373 73.7456 875.245 73.3147 874.989 73.0416C874.733 72.7686 874.337 72.632 873.799 72.632C873.278 72.632 872.835 72.7942 872.468 73.1184C872.109 73.4427 871.93 73.8907 871.93 74.4624V78.52H870.868ZM878.518 78.52V71.8256H879.58V72.888C879.742 72.5467 880.011 72.2651 880.387 72.0432C880.762 71.8214 881.21 71.7104 881.731 71.7104C882.464 71.7104 883.04 71.928 883.459 72.3632C883.877 72.7984 884.086 73.4811 884.086 74.4112V78.52H883.023V74.3344C883.023 73.7456 882.895 73.3147 882.639 73.0416C882.383 72.7686 881.987 72.632 881.449 72.632C880.928 72.632 880.485 72.7942 880.118 73.1184C879.759 73.4427 879.58 73.8907 879.58 74.4624V78.52H878.518ZM888.907 78.6352C887.951 78.6352 887.17 78.328 886.565 77.7136C885.967 77.0907 885.669 76.2672 885.669 75.2432V75.1408C885.669 74.1339 885.959 73.3104 886.539 72.6704C887.128 72.0304 887.883 71.7104 888.805 71.7104C889.658 71.7104 890.37 71.9878 890.942 72.5424C891.522 73.0886 891.813 73.9206 891.813 75.0384V75.384H886.769C886.795 76.152 886.987 76.7408 887.345 77.1504C887.712 77.5515 888.237 77.752 888.92 77.752C889.969 77.752 890.562 77.3638 890.699 76.5872H891.761C891.65 77.2443 891.339 77.752 890.827 78.1104C890.315 78.4603 889.675 78.6352 888.907 78.6352ZM886.808 74.5264H890.725C890.631 73.2379 889.991 72.5936 888.805 72.5936C888.267 72.5936 887.823 72.7686 887.473 73.1184C887.124 73.4598 886.902 73.9291 886.808 74.5264ZM895.478 78.6096C894.889 78.6096 894.441 78.4518 894.134 78.136C893.827 77.8203 893.673 77.3894 893.673 76.8432V72.7216H892.713V71.8256H893.673V70.3024H894.736V71.8256H896.297V72.7216H894.736V76.7408C894.736 77.3894 895.013 77.7136 895.568 77.7136C895.875 77.7136 896.148 77.6667 896.387 77.5728V78.4688C896.122 78.5627 895.819 78.6096 895.478 78.6096ZM901.406 78.52V68.6256H902.481V78.52H901.406ZM906.332 78.6352C905.675 78.6352 905.137 78.4731 904.719 78.1488C904.31 77.816 904.105 77.3211 904.105 76.664C904.105 75.9472 904.421 75.4224 905.052 75.0896C905.692 74.7568 906.494 74.5904 907.458 74.5904H908.418V74.104C908.418 73.5664 908.308 73.1824 908.086 72.952C907.864 72.7131 907.497 72.5936 906.985 72.5936C906.063 72.5936 905.551 72.9947 905.449 73.7968H904.386C904.455 73.08 904.736 72.5552 905.231 72.2224C905.726 71.8811 906.328 71.7104 907.036 71.7104C908.666 71.7104 909.481 72.5083 909.481 74.104V78.52H908.418V77.6752C907.906 78.3152 907.211 78.6352 906.332 78.6352ZM906.434 77.7904C907.015 77.7904 907.488 77.6496 907.855 77.368C908.231 77.0779 908.418 76.6811 908.418 76.1776V75.3456H907.497C905.944 75.3456 905.167 75.7851 905.167 76.664C905.167 77.415 905.59 77.7904 906.434 77.7904ZM913.833 78.6352C913.125 78.6352 912.558 78.4262 912.131 78.008C911.713 77.5899 911.504 76.9414 911.504 76.0624V71.8256H912.566V76.0112C912.566 76.6 912.69 77.031 912.937 77.304C913.193 77.5771 913.586 77.7136 914.115 77.7136C914.618 77.7136 915.049 77.5515 915.408 77.2272C915.775 76.903 915.958 76.455 915.958 75.8832V71.8256H917.021V78.52H915.958V77.4576C915.796 77.799 915.527 78.0806 915.152 78.3024C914.785 78.5243 914.345 78.6352 913.833 78.6352ZM919.168 78.52V71.8256H920.23V72.888C920.392 72.5467 920.661 72.2651 921.037 72.0432C921.412 71.8214 921.86 71.7104 922.381 71.7104C923.114 71.7104 923.69 71.928 924.109 72.3632C924.527 72.7984 924.736 73.4811 924.736 74.4112V78.52H923.673V74.3344C923.673 73.7456 923.545 73.3147 923.289 73.0416C923.033 72.7686 922.637 72.632 922.099 72.632C921.578 72.632 921.135 72.7942 920.768 73.1184C920.409 73.4427 920.23 73.8907 920.23 74.4624V78.52H919.168ZM929.595 78.6352C928.648 78.6352 927.863 78.328 927.24 77.7136C926.626 77.0907 926.319 76.2672 926.319 75.2432V75.1408C926.319 74.1339 926.63 73.3104 927.253 72.6704C927.884 72.0304 928.657 71.7104 929.57 71.7104C930.338 71.7104 930.991 71.9024 931.528 72.2864C932.066 72.6619 932.382 73.2507 932.475 74.0528H931.426C931.272 73.08 930.654 72.5936 929.57 72.5936C928.947 72.5936 928.431 72.8283 928.021 73.2976C927.62 73.7584 927.419 74.3728 927.419 75.1408V75.2432C927.419 76.0454 927.616 76.664 928.008 77.0992C928.409 77.5344 928.943 77.752 929.608 77.752C930.112 77.752 930.543 77.6112 930.901 77.3296C931.268 77.0395 931.477 76.6342 931.528 76.1136H932.514C932.446 76.8475 932.138 77.4534 931.592 77.9312C931.055 78.4006 930.389 78.6352 929.595 78.6352ZM934.118 78.52V68.6256H935.18V72.888C935.342 72.5467 935.611 72.2651 935.987 72.0432C936.362 71.8214 936.81 71.7104 937.331 71.7104C938.064 71.7104 938.64 71.928 939.059 72.3632C939.477 72.7984 939.686 73.4811 939.686 74.4112V78.52H938.623V74.3344C938.623 73.7456 938.495 73.3147 938.239 73.0416C937.983 72.7686 937.587 72.632 937.049 72.632C936.528 72.632 936.085 72.7942 935.718 73.1184C935.359 73.4427 935.18 73.8907 935.18 74.4624V78.52H934.118Z" fill="#7F8198"/>
<defs>
<filter id="filter0_d" x="21" y="66" width="153" height="24" filterUnits="userSpaceOnUse" color-interpolation-filters="sRGB">
<feFlood flood-opacity="0" result="BackgroundImageFix"/>
<feColorMatrix in="SourceAlpha" type="matrix" values="0 0 0 0 0 0 0 0 0 0 0 0 0 0 0 0 0 0 127 0"/>
<feOffset dy="1"/>
<feGaussianBlur stdDeviation="0.5"/>
<feColorMatrix type="matrix" values="0 0 0 0 0 0 0 0 0 0 0 0 0 0 0 0 0 0 0.0492244 0"/>
<feBlend mode="normal" in2="BackgroundImageFix" result="effect1_dropShadow"/>
<feBlend mode="normal" in="SourceGraphic" in2="effect1_dropShadow" result="shape"/>
</filter>
<filter id="filter1_d" x="193" y="66" width="104" height="24" filterUnits="userSpaceOnUse" color-interpolation-filters="sRGB">
<feFlood flood-opacity="0" result="BackgroundImageFix"/>
<feColorMatrix in="SourceAlpha" type="matrix" values="0 0 0 0 0 0 0 0 0 0 0 0 0 0 0 0 0 0 127 0"/>
<feOffset dy="1"/>
<feGaussianBlur stdDeviation="0.5"/>
<feColorMatrix type="matrix" values="0 0 0 0 0 0 0 0 0 0 0 0 0 0 0 0 0 0 0.0492244 0"/>
<feBlend mode="normal" in2="BackgroundImageFix" result="effect1_dropShadow"/>
<feBlend mode="normal" in="SourceGraphic" in2="effect1_dropShadow" result="shape"/>
</filter>
<filter id="filter2_d" x="316" y="66" width="191" height="24" filterUnits="userSpaceOnUse" color-interpolation-filters="sRGB">
<feFlood flood-opacity="0" result="BackgroundImageFix"/>
<feColorMatrix in="SourceAlpha" type="matrix" values="0 0 0 0 0 0 0 0 0 0 0 0 0 0 0 0 0 0 127 0"/>
<feOffset dy="1"/>
<feGaussianBlur stdDeviation="0.5"/>
<feColorMatrix type="matrix" values="0 0 0 0 0 0 0 0 0 0 0 0 0 0 0 0 0 0 0.04 0"/>
<feBlend mode="normal" in2="BackgroundImageFix" result="effect1_dropShadow"/>
<feBlend mode="normal" in="SourceGraphic" in2="effect1_dropShadow" result="shape"/>
</filter>
<filter id="filter3_d" x="526" y="66" width="191" height="24" filterUnits="userSpaceOnUse" color-interpolation-filters="sRGB">
<feFlood flood-opacity="0" result="BackgroundImageFix"/>
<feColorMatrix in="SourceAlpha" type="matrix" values="0 0 0 0 0 0 0 0 0 0 0 0 0 0 0 0 0 0 127 0"/>
<feOffset dy="1"/>
<feGaussianBlur stdDeviation="0.5"/>
<feColorMatrix type="matrix" values="0 0 0 0 0 0 0 0 0 0 0 0 0 0 0 0 0 0 0.04 0"/>
<feBlend mode="normal" in2="BackgroundImageFix" result="effect1_dropShadow"/>
<feBlend mode="normal" in="SourceGraphic" in2="effect1_dropShadow" result="shape"/>
</filter>
<filter id="filter4_d" x="736" y="66" width="220" height="24" filterUnits="userSpaceOnUse" color-interpolation-filters="sRGB">
<feFlood flood-opacity="0" result="BackgroundImageFix"/>
<feColorMatrix in="SourceAlpha" type="matrix" values="0 0 0 0 0 0 0 0 0 0 0 0 0 0 0 0 0 0 127 0"/>
<feOffset dy="1"/>
<feGaussianBlur stdDeviation="0.5"/>
<feColorMatrix type="matrix" values="0 0 0 0 0 0 0 0 0 0 0 0 0 0 0 0 0 0 0.04 0"/>
<feBlend mode="normal" in2="BackgroundImageFix" result="effect1_dropShadow"/>
<feBlend mode="normal" in="SourceGraphic" in2="effect1_dropShadow" result="shape"/>
</filter>
<linearGradient id="paint0_linear" x1="-204.512" y1="76.3574" x2="-189.712" y2="151.416" gradientUnits="userSpaceOnUse">
<stop stop-color="#FAF9F4"/>
<stop offset="1" stop-color="#F9F5DE"/>
</linearGradient>
<linearGradient id="paint1_linear" x1="177.912" y1="58.3556" x2="172.975" y2="80.5314" gradientUnits="userSpaceOnUse">
<stop stop-color="#C4E5DF"/>
<stop offset="1" stop-color="#D4EFE6"/>
</linearGradient>
<linearGradient id="paint2_linear" x1="125.754" y1="17.7483" x2="124.312" y2="85.3126" gradientUnits="userSpaceOnUse">
<stop stop-color="#C4E5DF"/>
<stop offset="1" stop-color="#D4EFE6"/>
</linearGradient>
<linearGradient id="paint3_linear" x1="190.544" y1="17.7483" x2="189.765" y2="85.3344" gradientUnits="userSpaceOnUse">
<stop stop-color="#C4E5DF"/>
<stop offset="1" stop-color="#D4EFE6"/>
</linearGradient>
</defs>
</svg>
