<svg width="350" height="350" viewBox="0 0 350 350" fill="none" xmlns="http://www.w3.org/2000/svg">
<rect width="350" height="350" rx="13" fill="white"/>
<rect opacity="0.303595" x="32.5" y="198.5" width="285" height="39" rx="3.5" fill="white" stroke="#979797"/>
<path d="M52.558 222V219.9H47.546V219.508L52.124 211.99H53.748V218.906H55.134V219.9H53.748V222H52.558ZM49.086 218.906H52.558V212.914L49.086 218.906Z" fill="black"/>
<path d="M34.086 177.208H34.058V186H33.106V175.92H34.184L40.008 184.726H40.036V175.92H40.988V186H39.882L34.086 177.208ZM48.0255 178.748H48.8655V186H48.0255V184.992C47.9135 185.123 47.7875 185.258 47.6475 185.398C47.5075 185.538 47.3442 185.669 47.1575 185.79C46.9802 185.902 46.7702 185.995 46.5275 186.07C46.2848 186.154 46.0048 186.196 45.6875 186.196C45.2022 186.196 44.7962 186.131 44.4695 186C44.1428 185.86 43.8768 185.669 43.6715 185.426C43.4755 185.183 43.3308 184.903 43.2375 184.586C43.1535 184.259 43.1115 183.905 43.1115 183.522V178.748H43.9515V183.508C43.9515 184.133 44.0962 184.614 44.3855 184.95C44.6748 185.277 45.1508 185.44 45.8135 185.44C46.1588 185.44 46.4668 185.375 46.7375 185.244C47.0175 185.104 47.2508 184.913 47.4375 184.67C47.6242 184.427 47.7688 184.138 47.8715 183.802C47.9742 183.466 48.0255 183.097 48.0255 182.696V178.748ZM51.6188 186H50.7788V178.748H51.6188V179.84H51.6468C51.8615 179.42 52.1695 179.103 52.5708 178.888C52.9721 178.664 53.4108 178.552 53.8868 178.552C54.2228 178.552 54.5075 178.589 54.7408 178.664C54.9741 178.739 55.1701 178.841 55.3288 178.972C55.4968 179.093 55.6321 179.238 55.7348 179.406C55.8468 179.574 55.9401 179.756 56.0148 179.952C56.2575 179.476 56.5795 179.126 56.9808 178.902C57.3915 178.669 57.8581 178.552 58.3808 178.552C58.8755 178.552 59.2675 178.636 59.5568 178.804C59.8555 178.963 60.0841 179.177 60.2428 179.448C60.4015 179.709 60.5041 180.013 60.5508 180.358C60.6068 180.703 60.6348 181.058 60.6348 181.422V186H59.7948V180.988C59.7948 180.465 59.6828 180.055 59.4588 179.756C59.2441 179.457 58.8381 179.308 58.2408 179.308C57.9328 179.308 57.6341 179.378 57.3448 179.518C57.0648 179.649 56.8175 179.854 56.6028 180.134C56.5095 180.255 56.4301 180.4 56.3648 180.568C56.3088 180.727 56.2621 180.895 56.2248 181.072C56.1875 181.249 56.1595 181.427 56.1408 181.604C56.1315 181.781 56.1268 181.945 56.1268 182.094V186H55.2868V180.988C55.2868 180.465 55.1748 180.055 54.9508 179.756C54.7361 179.457 54.3301 179.308 53.7328 179.308C53.4248 179.308 53.1261 179.378 52.8368 179.518C52.5568 179.649 52.3095 179.854 52.0948 180.134C52.0015 180.255 51.9221 180.4 51.8568 180.568C51.8008 180.727 51.7541 180.895 51.7168 181.072C51.6795 181.249 51.6515 181.427 51.6328 181.604C51.6235 181.781 51.6188 181.945 51.6188 182.094V186ZM63.4909 182.346C63.4909 182.785 63.5423 183.195 63.6449 183.578C63.7569 183.951 63.9156 184.278 64.1209 184.558C64.3263 184.829 64.5829 185.043 64.8909 185.202C65.1989 185.361 65.5489 185.44 65.9409 185.44C66.2956 185.44 66.6223 185.379 66.9209 185.258C67.2196 185.127 67.4809 184.941 67.7049 184.698C67.9289 184.455 68.1016 184.161 68.2229 183.816C68.3536 183.461 68.4189 183.055 68.4189 182.598C68.4376 182.141 68.4003 181.716 68.3069 181.324C68.2136 180.923 68.0643 180.573 67.8589 180.274C67.6536 179.975 67.3876 179.742 67.0609 179.574C66.7436 179.397 66.3703 179.308 65.9409 179.308C65.5583 179.308 65.2129 179.392 64.9049 179.56C64.6063 179.719 64.3496 179.938 64.1349 180.218C63.9296 180.489 63.7709 180.811 63.6589 181.184C63.5469 181.548 63.4909 181.935 63.4909 182.346ZM63.4909 186H62.6509V175.92H63.4909V179.91C63.7616 179.462 64.1303 179.126 64.5969 178.902C65.0729 178.669 65.5676 178.552 66.0809 178.552C66.6316 178.552 67.1076 178.659 67.5089 178.874C67.9196 179.079 68.2556 179.359 68.5169 179.714C68.7876 180.059 68.9883 180.465 69.1189 180.932C69.2496 181.399 69.3149 181.884 69.3149 182.388C69.3149 182.92 69.2543 183.419 69.1329 183.886C69.0116 184.353 68.8156 184.759 68.5449 185.104C68.2836 185.44 67.9476 185.706 67.5369 185.902C67.1263 186.098 66.6269 186.196 66.0389 186.196C65.8056 186.196 65.5676 186.163 65.3249 186.098C65.0823 186.033 64.8443 185.939 64.6109 185.818C64.3869 185.697 64.1769 185.547 63.9809 185.37C63.7943 185.183 63.6403 184.969 63.5189 184.726H63.4909V186ZM76.3615 181.87C76.3615 181.515 76.3102 181.184 76.2075 180.876C76.1142 180.559 75.9695 180.288 75.7735 180.064C75.5868 179.831 75.3488 179.649 75.0595 179.518C74.7702 179.378 74.4388 179.308 74.0655 179.308C73.6922 179.308 73.3608 179.378 73.0715 179.518C72.7915 179.658 72.5488 179.845 72.3435 180.078C72.1475 180.311 71.9888 180.582 71.8675 180.89C71.7462 181.198 71.6668 181.525 71.6295 181.87H76.3615ZM71.6295 182.57C71.6295 182.962 71.6808 183.335 71.7835 183.69C71.8862 184.035 72.0355 184.339 72.2315 184.6C72.4368 184.852 72.6935 185.057 73.0015 185.216C73.3095 185.365 73.6642 185.44 74.0655 185.44C74.6162 185.44 75.0875 185.295 75.4795 185.006C75.8715 184.717 76.1328 184.306 76.2635 183.774H77.2015C77.0988 184.119 76.9635 184.441 76.7955 184.74C76.6275 185.029 76.4175 185.286 76.1655 185.51C75.9135 185.725 75.6148 185.893 75.2695 186.014C74.9242 186.135 74.5228 186.196 74.0655 186.196C73.4868 186.196 72.9875 186.098 72.5675 185.902C72.1475 185.706 71.8022 185.44 71.5315 185.104C71.2608 184.759 71.0602 184.357 70.9295 183.9C70.7988 183.433 70.7335 182.934 70.7335 182.402C70.7335 181.87 70.8082 181.371 70.9575 180.904C71.1162 180.437 71.3355 180.031 71.6155 179.686C71.9048 179.331 72.2548 179.056 72.6655 178.86C73.0762 178.655 73.5428 178.552 74.0655 178.552C75.0642 178.552 75.8482 178.897 76.4175 179.588C76.9868 180.269 77.2668 181.263 77.2575 182.57H71.6295ZM79.7728 186H78.9328V178.748H79.7728V180.106H79.8008C80.0341 179.527 80.3328 179.126 80.6968 178.902C81.0701 178.669 81.5601 178.552 82.1668 178.552V179.462C81.6908 179.453 81.2988 179.527 80.9908 179.686C80.6828 179.845 80.4355 180.059 80.2488 180.33C80.0715 180.601 79.9455 180.923 79.8708 181.296C79.8055 181.66 79.7728 182.043 79.7728 182.444V186ZM90.3334 186.196C89.8667 186.187 89.4281 186.103 89.0174 185.944C88.6161 185.785 88.2614 185.547 87.9534 185.23C87.6547 184.913 87.4167 184.516 87.2394 184.04C87.0621 183.564 86.9734 183.009 86.9734 182.374C86.9734 181.842 87.0434 181.347 87.1834 180.89C87.3234 180.423 87.5334 180.017 87.8134 179.672C88.0934 179.327 88.4434 179.056 88.8634 178.86C89.2834 178.655 89.7734 178.552 90.3334 178.552C90.9027 178.552 91.3974 178.655 91.8174 178.86C92.2374 179.056 92.5874 179.327 92.8674 179.672C93.1474 180.008 93.3527 180.409 93.4834 180.876C93.6234 181.343 93.6934 181.842 93.6934 182.374C93.6934 182.953 93.6141 183.475 93.4554 183.942C93.2967 184.409 93.0681 184.81 92.7694 185.146C92.4801 185.482 92.1254 185.743 91.7054 185.93C91.2947 186.107 90.8374 186.196 90.3334 186.196ZM92.7974 182.374C92.7974 181.945 92.7507 181.543 92.6574 181.17C92.5641 180.797 92.4194 180.475 92.2234 180.204C92.0274 179.924 91.7754 179.705 91.4674 179.546C91.1594 179.387 90.7814 179.308 90.3334 179.308C89.8947 179.308 89.5167 179.397 89.1994 179.574C88.8914 179.742 88.6394 179.971 88.4434 180.26C88.2474 180.54 88.1027 180.867 88.0094 181.24C87.9161 181.604 87.8694 181.982 87.8694 182.374C87.8694 182.822 87.9207 183.237 88.0234 183.62C88.1354 183.993 88.2941 184.315 88.4994 184.586C88.7047 184.857 88.9614 185.067 89.2694 185.216C89.5774 185.365 89.9321 185.44 90.3334 185.44C90.7721 185.44 91.1454 185.356 91.4534 185.188C91.7707 185.011 92.0274 184.777 92.2234 184.488C92.4194 184.199 92.5641 183.872 92.6574 183.508C92.7507 183.144 92.7974 182.766 92.7974 182.374ZM94.5007 179.448V178.748H95.5787V177.6C95.5787 177.021 95.6954 176.564 95.9287 176.228C96.162 175.892 96.5587 175.724 97.1187 175.724C97.2494 175.724 97.3707 175.729 97.4827 175.738C97.5947 175.747 97.7067 175.761 97.8187 175.78V176.55C97.632 176.503 97.464 176.48 97.3147 176.48C97.1 176.48 96.932 176.522 96.8107 176.606C96.6894 176.681 96.6007 176.783 96.5447 176.914C96.4887 177.045 96.4514 177.194 96.4327 177.362C96.4234 177.521 96.4187 177.684 96.4187 177.852V178.748H97.8187V179.448H96.4187V186H95.5787V179.448H94.5007ZM105.57 186.028C105.467 186.047 105.332 186.079 105.164 186.126C104.996 186.173 104.809 186.196 104.604 186.196C104.184 186.196 103.862 186.093 103.638 185.888C103.423 185.673 103.316 185.295 103.316 184.754V179.448H102.294V178.748H103.316V176.732H104.156V178.748H105.514V179.448H104.156V184.418C104.156 184.595 104.16 184.749 104.17 184.88C104.179 185.011 104.207 185.118 104.254 185.202C104.3 185.286 104.37 185.347 104.464 185.384C104.566 185.421 104.706 185.44 104.884 185.44C104.996 185.44 105.108 185.431 105.22 185.412C105.341 185.393 105.458 185.37 105.57 185.342V186.028ZM109.802 186.196C109.335 186.187 108.897 186.103 108.486 185.944C108.085 185.785 107.73 185.547 107.422 185.23C107.123 184.913 106.885 184.516 106.708 184.04C106.531 183.564 106.442 183.009 106.442 182.374C106.442 181.842 106.512 181.347 106.652 180.89C106.792 180.423 107.002 180.017 107.282 179.672C107.562 179.327 107.912 179.056 108.332 178.86C108.752 178.655 109.242 178.552 109.802 178.552C110.371 178.552 110.866 178.655 111.286 178.86C111.706 179.056 112.056 179.327 112.336 179.672C112.616 180.008 112.821 180.409 112.952 180.876C113.092 181.343 113.162 181.842 113.162 182.374C113.162 182.953 113.083 183.475 112.924 183.942C112.765 184.409 112.537 184.81 112.238 185.146C111.949 185.482 111.594 185.743 111.174 185.93C110.763 186.107 110.306 186.196 109.802 186.196ZM112.266 182.374C112.266 181.945 112.219 181.543 112.126 181.17C112.033 180.797 111.888 180.475 111.692 180.204C111.496 179.924 111.244 179.705 110.936 179.546C110.628 179.387 110.25 179.308 109.802 179.308C109.363 179.308 108.985 179.397 108.668 179.574C108.36 179.742 108.108 179.971 107.912 180.26C107.716 180.54 107.571 180.867 107.478 181.24C107.385 181.604 107.338 181.982 107.338 182.374C107.338 182.822 107.389 183.237 107.492 183.62C107.604 183.993 107.763 184.315 107.968 184.586C108.173 184.857 108.43 185.067 108.738 185.216C109.046 185.365 109.401 185.44 109.802 185.44C110.241 185.44 110.614 185.356 110.922 185.188C111.239 185.011 111.496 184.777 111.692 184.488C111.888 184.199 112.033 183.872 112.126 183.508C112.219 183.144 112.266 182.766 112.266 182.374ZM114.641 186V175.92H115.481V182.192L119.037 178.748H120.185L117.469 181.366L120.507 186H119.569L116.853 181.954L115.481 183.256V186H114.641ZM126.947 181.87C126.947 181.515 126.896 181.184 126.793 180.876C126.7 180.559 126.555 180.288 126.359 180.064C126.173 179.831 125.935 179.649 125.645 179.518C125.356 179.378 125.025 179.308 124.651 179.308C124.278 179.308 123.947 179.378 123.657 179.518C123.377 179.658 123.135 179.845 122.929 180.078C122.733 180.311 122.575 180.582 122.453 180.89C122.332 181.198 122.253 181.525 122.215 181.87H126.947ZM122.215 182.57C122.215 182.962 122.267 183.335 122.369 183.69C122.472 184.035 122.621 184.339 122.817 184.6C123.023 184.852 123.279 185.057 123.587 185.216C123.895 185.365 124.25 185.44 124.651 185.44C125.202 185.44 125.673 185.295 126.065 185.006C126.457 184.717 126.719 184.306 126.849 183.774H127.787C127.685 184.119 127.549 184.441 127.381 184.74C127.213 185.029 127.003 185.286 126.751 185.51C126.499 185.725 126.201 185.893 125.855 186.014C125.51 186.135 125.109 186.196 124.651 186.196C124.073 186.196 123.573 186.098 123.153 185.902C122.733 185.706 122.388 185.44 122.117 185.104C121.847 184.759 121.646 184.357 121.515 183.9C121.385 183.433 121.319 182.934 121.319 182.402C121.319 181.87 121.394 181.371 121.543 180.904C121.702 180.437 121.921 180.031 122.201 179.686C122.491 179.331 122.841 179.056 123.251 178.86C123.662 178.655 124.129 178.552 124.651 178.552C125.65 178.552 126.434 178.897 127.003 179.588C127.573 180.269 127.853 181.263 127.843 182.57H122.215ZM130.317 186H129.477V178.748H130.317V179.756C130.653 179.401 130.998 179.112 131.353 178.888C131.717 178.664 132.151 178.552 132.655 178.552C133.103 178.552 133.518 178.631 133.901 178.79C134.283 178.939 134.605 179.205 134.867 179.588C135.044 179.849 135.147 180.12 135.175 180.4C135.212 180.671 135.231 180.955 135.231 181.254V186H134.391V181.268C134.391 180.615 134.246 180.125 133.957 179.798C133.667 179.471 133.187 179.308 132.515 179.308C132.253 179.308 132.015 179.35 131.801 179.434C131.586 179.509 131.39 179.611 131.213 179.742C131.045 179.873 130.9 180.022 130.779 180.19C130.657 180.358 130.564 180.535 130.499 180.722C130.415 180.955 130.363 181.179 130.345 181.394C130.326 181.609 130.317 181.842 130.317 182.094V186ZM137.746 183.732C137.877 184.357 138.11 184.801 138.446 185.062C138.791 185.314 139.281 185.44 139.916 185.44C140.224 185.44 140.49 185.403 140.714 185.328C140.938 185.253 141.12 185.155 141.26 185.034C141.409 184.903 141.521 184.759 141.596 184.6C141.671 184.441 141.708 184.273 141.708 184.096C141.708 183.741 141.591 183.48 141.358 183.312C141.134 183.135 140.849 182.999 140.504 182.906C140.159 182.803 139.785 182.719 139.384 182.654C138.983 182.579 138.609 182.472 138.264 182.332C137.919 182.192 137.629 181.991 137.396 181.73C137.172 181.469 137.06 181.1 137.06 180.624C137.06 180.017 137.279 179.523 137.718 179.14C138.166 178.748 138.796 178.552 139.608 178.552C140.392 178.552 141.027 178.729 141.512 179.084C142.007 179.429 142.305 180.013 142.408 180.834H141.554C141.479 180.274 141.265 179.882 140.91 179.658C140.565 179.425 140.126 179.308 139.594 179.308C139.062 179.308 138.656 179.425 138.376 179.658C138.096 179.882 137.956 180.181 137.956 180.554C137.956 180.881 138.068 181.133 138.292 181.31C138.525 181.478 138.815 181.618 139.16 181.73C139.505 181.833 139.879 181.926 140.28 182.01C140.681 182.094 141.055 182.215 141.4 182.374C141.745 182.523 142.03 182.729 142.254 182.99C142.487 183.251 142.604 183.615 142.604 184.082C142.604 184.427 142.529 184.735 142.38 185.006C142.231 185.267 142.025 185.487 141.764 185.664C141.503 185.841 141.19 185.972 140.826 186.056C140.471 186.149 140.079 186.196 139.65 186.196C139.221 186.196 138.838 186.131 138.502 186C138.175 185.879 137.895 185.706 137.662 185.482C137.429 185.258 137.247 184.997 137.116 184.698C136.985 184.399 136.911 184.077 136.892 183.732H137.746Z" fill="#8394A3"/>
<path d="M149.567 177.558V175.92H150.155V177.558L151.751 176.97L151.961 177.586L150.365 178.104L151.415 179.588L150.869 179.924L149.833 178.412L148.741 179.896L148.251 179.518L149.329 178.104L147.761 177.544L148.013 176.956L149.567 177.558Z" fill="#00D5E4"/>
<rect opacity="0.303595" x="32.5" y="118.5" width="285" height="39" rx="3.5" fill="white" stroke="#979797"/>
<path d="M37.04 99.61C37.3947 99.61 37.7213 99.5727 38.02 99.498C38.328 99.4233 38.594 99.3067 38.818 99.148C39.042 98.98 39.2193 98.77 39.35 98.518C39.4807 98.266 39.546 97.9627 39.546 97.608C39.546 97.2347 39.476 96.9267 39.336 96.684C39.2053 96.4413 39.0233 96.25 38.79 96.11C38.566 95.97 38.3047 95.872 38.006 95.816C37.7167 95.76 37.4133 95.732 37.096 95.732H34.072V99.61H37.04ZM34.072 100.422V105H33.12V94.92H37.068C38.1787 94.92 39.028 95.13 39.616 95.55C40.204 95.9607 40.498 96.6327 40.498 97.566C40.498 98.2007 40.3673 98.7047 40.106 99.078C39.854 99.4513 39.4387 99.7687 38.86 100.03C39.1587 100.133 39.392 100.282 39.56 100.478C39.728 100.674 39.854 100.898 39.938 101.15C40.022 101.402 40.0733 101.668 40.092 101.948C40.12 102.228 40.1387 102.499 40.148 102.76C40.1573 103.143 40.1713 103.46 40.19 103.712C40.218 103.964 40.246 104.169 40.274 104.328C40.3113 104.487 40.3533 104.613 40.4 104.706C40.4467 104.79 40.5027 104.855 40.568 104.902V105H39.518C39.4153 104.832 39.3407 104.599 39.294 104.3C39.2567 104.001 39.224 103.689 39.196 103.362C39.1773 103.035 39.1587 102.718 39.14 102.41C39.1307 102.102 39.1073 101.85 39.07 101.654C39.014 101.383 38.9207 101.169 38.79 101.01C38.6687 100.842 38.5193 100.716 38.342 100.632C38.1647 100.548 37.964 100.492 37.74 100.464C37.5253 100.436 37.3013 100.422 37.068 100.422H34.072ZM47.5959 100.87C47.5959 100.515 47.5446 100.184 47.4419 99.876C47.3486 99.5587 47.2039 99.288 47.0079 99.064C46.8212 98.8307 46.5832 98.6487 46.2939 98.518C46.0046 98.378 45.6732 98.308 45.2999 98.308C44.9266 98.308 44.5952 98.378 44.3059 98.518C44.0259 98.658 43.7832 98.8447 43.5779 99.078C43.3819 99.3113 43.2232 99.582 43.1019 99.89C42.9806 100.198 42.9012 100.525 42.8639 100.87H47.5959ZM42.8639 101.57C42.8639 101.962 42.9152 102.335 43.0179 102.69C43.1206 103.035 43.2699 103.339 43.4659 103.6C43.6712 103.852 43.9279 104.057 44.2359 104.216C44.5439 104.365 44.8986 104.44 45.2999 104.44C45.8506 104.44 46.3219 104.295 46.7139 104.006C47.1059 103.717 47.3672 103.306 47.4979 102.774H48.4359C48.3332 103.119 48.1979 103.441 48.0299 103.74C47.8619 104.029 47.6519 104.286 47.3999 104.51C47.1479 104.725 46.8492 104.893 46.5039 105.014C46.1586 105.135 45.7572 105.196 45.2999 105.196C44.7212 105.196 44.2219 105.098 43.8019 104.902C43.3819 104.706 43.0366 104.44 42.7659 104.104C42.4952 103.759 42.2946 103.357 42.1639 102.9C42.0332 102.433 41.9679 101.934 41.9679 101.402C41.9679 100.87 42.0426 100.371 42.1919 99.904C42.3506 99.4373 42.5699 99.0313 42.8499 98.686C43.1392 98.3313 43.4892 98.056 43.8999 97.86C44.3106 97.6547 44.7772 97.552 45.2999 97.552C46.2986 97.552 47.0826 97.8973 47.6519 98.588C48.2212 99.2693 48.5012 100.263 48.4919 101.57H42.8639ZM55.2632 100.03C55.1139 99.4887 54.8572 99.0687 54.4932 98.77C54.1292 98.462 53.6672 98.308 53.1072 98.308C52.6779 98.308 52.3092 98.3967 52.0012 98.574C51.6932 98.7513 51.4412 98.9893 51.2452 99.288C51.0492 99.5773 50.9045 99.9087 50.8112 100.282C50.7179 100.646 50.6712 101.015 50.6712 101.388C50.6712 101.771 50.7132 102.144 50.7972 102.508C50.8905 102.872 51.0352 103.199 51.2312 103.488C51.4272 103.777 51.6792 104.011 51.9872 104.188C52.2952 104.356 52.6685 104.44 53.1072 104.44C53.7325 104.44 54.2319 104.267 54.6052 103.922C54.9879 103.577 55.2305 103.101 55.3332 102.494H56.2292C56.1545 102.895 56.0332 103.264 55.8652 103.6C55.7065 103.927 55.4965 104.211 55.2352 104.454C54.9832 104.687 54.6799 104.869 54.3252 105C53.9705 105.131 53.5645 105.196 53.1072 105.196C52.5285 105.196 52.0292 105.098 51.6092 104.902C51.1892 104.706 50.8439 104.44 50.5732 104.104C50.3025 103.759 50.1019 103.353 49.9712 102.886C49.8405 102.419 49.7752 101.92 49.7752 101.388C49.7752 100.884 49.8452 100.403 49.9852 99.946C50.1345 99.4793 50.3492 99.0687 50.6292 98.714C50.9092 98.3593 51.2545 98.0793 51.6652 97.874C52.0852 97.6593 52.5659 97.552 53.1072 97.552C53.9472 97.552 54.6239 97.7527 55.1372 98.154C55.6599 98.5553 55.9865 99.1807 56.1172 100.03H55.2632ZM58.0305 105V97.748H58.8705V105H58.0305ZM57.9885 96.166V94.92H58.9125V96.166H57.9885ZM61.946 101.402C61.946 101.813 62.002 102.205 62.114 102.578C62.226 102.942 62.3847 103.264 62.59 103.544C62.8047 103.815 63.0613 104.034 63.36 104.202C63.668 104.361 64.0133 104.44 64.396 104.44C64.8253 104.44 65.1987 104.356 65.516 104.188C65.8427 104.011 66.1087 103.773 66.314 103.474C66.5193 103.175 66.6687 102.83 66.762 102.438C66.8553 102.037 66.8927 101.607 66.874 101.15C66.874 100.693 66.8087 100.291 66.678 99.946C66.5567 99.5913 66.384 99.2927 66.16 99.05C65.936 98.8073 65.6747 98.6253 65.376 98.504C65.0773 98.3733 64.7507 98.308 64.396 98.308C64.004 98.308 63.654 98.3873 63.346 98.546C63.038 98.7047 62.7813 98.924 62.576 99.204C62.3707 99.4747 62.212 99.8013 62.1 100.184C61.9973 100.557 61.946 100.963 61.946 101.402ZM61.946 107.856H61.106V97.748H61.946V99.022H61.974C62.0953 98.7887 62.2493 98.5787 62.436 98.392C62.632 98.2053 62.842 98.0513 63.066 97.93C63.2993 97.8087 63.5373 97.7153 63.78 97.65C64.0227 97.5847 64.2607 97.552 64.494 97.552C65.082 97.552 65.5813 97.65 65.992 97.846C66.4027 98.042 66.7387 98.3127 67 98.658C67.2707 98.994 67.4667 99.3953 67.588 99.862C67.7093 100.329 67.77 100.828 67.77 101.36C67.77 101.864 67.7047 102.349 67.574 102.816C67.4433 103.283 67.2427 103.693 66.972 104.048C66.7107 104.393 66.3747 104.673 65.964 104.888C65.5627 105.093 65.0867 105.196 64.536 105.196C64.0227 105.196 63.528 105.084 63.052 104.86C62.5853 104.627 62.2167 104.286 61.946 103.838V107.856ZM74.8166 100.87C74.8166 100.515 74.7653 100.184 74.6626 99.876C74.5693 99.5587 74.4246 99.288 74.2286 99.064C74.0419 98.8307 73.8039 98.6487 73.5146 98.518C73.2253 98.378 72.8939 98.308 72.5206 98.308C72.1473 98.308 71.8159 98.378 71.5266 98.518C71.2466 98.658 71.0039 98.8447 70.7986 99.078C70.6026 99.3113 70.4439 99.582 70.3226 99.89C70.2013 100.198 70.1219 100.525 70.0846 100.87H74.8166ZM70.0846 101.57C70.0846 101.962 70.1359 102.335 70.2386 102.69C70.3413 103.035 70.4906 103.339 70.6866 103.6C70.8919 103.852 71.1486 104.057 71.4566 104.216C71.7646 104.365 72.1193 104.44 72.5206 104.44C73.0713 104.44 73.5426 104.295 73.9346 104.006C74.3266 103.717 74.5879 103.306 74.7186 102.774H75.6566C75.5539 103.119 75.4186 103.441 75.2506 103.74C75.0826 104.029 74.8726 104.286 74.6206 104.51C74.3686 104.725 74.0699 104.893 73.7246 105.014C73.3793 105.135 72.9779 105.196 72.5206 105.196C71.9419 105.196 71.4426 105.098 71.0226 104.902C70.6026 104.706 70.2573 104.44 69.9866 104.104C69.7159 103.759 69.5153 103.357 69.3846 102.9C69.2539 102.433 69.1886 101.934 69.1886 101.402C69.1886 100.87 69.2633 100.371 69.4126 99.904C69.5713 99.4373 69.7906 99.0313 70.0706 98.686C70.3599 98.3313 70.7099 98.056 71.1206 97.86C71.5313 97.6547 71.9979 97.552 72.5206 97.552C73.5193 97.552 74.3033 97.8973 74.8726 98.588C75.4419 99.2693 75.7219 100.263 75.7126 101.57H70.0846ZM78.1859 105H77.3459V97.748H78.1859V98.756C78.5219 98.4013 78.8672 98.112 79.2219 97.888C79.5859 97.664 80.0199 97.552 80.5239 97.552C80.9719 97.552 81.3872 97.6313 81.7699 97.79C82.1526 97.9393 82.4746 98.2053 82.7359 98.588C82.9132 98.8493 83.0159 99.12 83.0439 99.4C83.0812 99.6707 83.0999 99.9553 83.0999 100.254V105H82.2599V100.268C82.2599 99.6147 82.1152 99.1247 81.8259 98.798C81.5366 98.4713 81.0559 98.308 80.3839 98.308C80.1226 98.308 79.8846 98.35 79.6699 98.434C79.4552 98.5087 79.2592 98.6113 79.0819 98.742C78.9139 98.8727 78.7692 99.022 78.6479 99.19C78.5266 99.358 78.4332 99.5353 78.3679 99.722C78.2839 99.9553 78.2326 100.179 78.2139 100.394C78.1952 100.609 78.1859 100.842 78.1859 101.094V105ZM87.6732 105.028C87.5705 105.047 87.4352 105.079 87.2672 105.126C87.0992 105.173 86.9125 105.196 86.7072 105.196C86.2872 105.196 85.9652 105.093 85.7412 104.888C85.5265 104.673 85.4192 104.295 85.4192 103.754V98.448H84.3972V97.748H85.4192V95.732H86.2592V97.748H87.6172V98.448H86.2592V103.418C86.2592 103.595 86.2639 103.749 86.2732 103.88C86.2825 104.011 86.3105 104.118 86.3572 104.202C86.4039 104.286 86.4739 104.347 86.5672 104.384C86.6699 104.421 86.8099 104.44 86.9872 104.44C87.0992 104.44 87.2112 104.431 87.3232 104.412C87.4445 104.393 87.5612 104.37 87.6732 104.342V105.028Z" fill="#8394A3"/>
<path d="M94.3322 96.558V94.92H94.9202V96.558L96.5162 95.97L96.7262 96.586L95.1302 97.104L96.1802 98.588L95.6342 98.924L94.5982 97.412L93.5062 98.896L93.0162 98.518L94.0942 97.104L92.5262 96.544L92.7782 95.956L94.3322 96.558Z" fill="#00D4E2"/>
<path d="M48.26 142V131.99H49.954L53.048 139.788L56.044 131.99H57.724V142H56.506V133.572L53.188 142H52.81L49.38 133.572V142H48.26ZM60.1942 142V134.678H61.3562V142H60.1942ZM61.2862 132.928C61.1369 133.077 60.9596 133.152 60.7542 133.152C60.5489 133.152 60.3669 133.077 60.2082 132.928C60.0589 132.779 59.9842 132.597 59.9842 132.382C59.9842 132.167 60.0589 131.985 60.2082 131.836C60.3669 131.687 60.5489 131.612 60.7542 131.612C60.9596 131.612 61.1369 131.687 61.2862 131.836C61.4449 131.985 61.5242 132.167 61.5242 132.382C61.5242 132.597 61.4449 132.779 61.2862 132.928ZM63.7346 142V131.178H64.8966V138.052L67.9346 134.678H69.2926L66.1566 138.08L69.5586 142H68.1446L64.8966 138.206V142H63.7346ZM73.6759 142.126C72.6306 142.126 71.7766 141.79 71.1139 141.118C70.4606 140.437 70.1339 139.536 70.1339 138.416V138.304C70.1339 137.203 70.4512 136.302 71.0859 135.602C71.7299 134.902 72.5559 134.552 73.5639 134.552C74.4972 134.552 75.2766 134.855 75.9019 135.462C76.5366 136.059 76.8539 136.969 76.8539 138.192V138.57H71.3379C71.3659 139.41 71.5759 140.054 71.9679 140.502C72.3692 140.941 72.9432 141.16 73.6899 141.16C74.8379 141.16 75.4866 140.735 75.6359 139.886H76.7979C76.6766 140.605 76.3359 141.16 75.7759 141.552C75.2159 141.935 74.5159 142.126 73.6759 142.126ZM71.3799 137.632H75.6639C75.5612 136.223 74.8612 135.518 73.5639 135.518C72.9759 135.518 72.4906 135.709 72.1079 136.092C71.7252 136.465 71.4826 136.979 71.3799 137.632ZM85.66 142.126C84.4187 142.126 83.4947 141.837 82.888 141.258C82.2907 140.67 81.9407 139.9 81.838 138.948H83.014C83.0607 139.275 83.126 139.559 83.21 139.802C83.3033 140.045 83.4433 140.273 83.63 140.488C83.8167 140.703 84.078 140.866 84.414 140.978C84.7593 141.09 85.1747 141.146 85.66 141.146C86.3133 141.146 86.8547 140.973 87.284 140.628C87.7227 140.273 87.942 139.816 87.942 139.256C87.942 138.677 87.774 138.253 87.438 137.982C87.102 137.702 86.4627 137.487 85.52 137.338C84.3907 137.17 83.5507 136.881 83 136.47C82.4493 136.05 82.174 135.42 82.174 134.58C82.174 133.805 82.4773 133.161 83.084 132.648C83.6907 132.125 84.4607 131.864 85.394 131.864C86.402 131.864 87.2047 132.102 87.802 132.578C88.3993 133.054 88.7447 133.735 88.838 134.622H87.746C87.6247 133.997 87.3773 133.544 87.004 133.264C86.6307 132.984 86.094 132.844 85.394 132.844C84.7313 132.844 84.218 132.993 83.854 133.292C83.49 133.591 83.308 133.983 83.308 134.468C83.308 134.991 83.4667 135.383 83.784 135.644C84.1013 135.905 84.7453 136.111 85.716 136.26C86.892 136.447 87.7507 136.755 88.292 137.184C88.8427 137.604 89.118 138.267 89.118 139.172C89.118 140.012 88.7867 140.717 88.124 141.286C87.4707 141.846 86.6493 142.126 85.66 142.126ZM91.1194 142V134.678H92.2814V135.798C92.4587 135.434 92.7387 135.135 93.1214 134.902C93.5134 134.669 93.9614 134.552 94.4654 134.552C95.5387 134.552 96.2527 135.009 96.6074 135.924C96.8407 135.476 97.1907 135.135 97.6574 134.902C98.1334 134.669 98.6187 134.552 99.1134 134.552C99.832 134.552 100.42 134.79 100.877 135.266C101.344 135.733 101.577 136.465 101.577 137.464V142H100.415V137.38C100.415 136.167 99.8974 135.56 98.8614 135.56C98.3387 135.56 97.886 135.733 97.5034 136.078C97.1207 136.423 96.9294 136.904 96.9294 137.52V142H95.7674V137.38C95.7674 136.167 95.2494 135.56 94.2134 135.56C93.6907 135.56 93.238 135.733 92.8554 136.078C92.4727 136.423 92.2814 136.904 92.2814 137.52V142H91.1194ZM103.89 142V134.678H105.052V142H103.89ZM104.982 132.928C104.832 133.077 104.655 133.152 104.45 133.152C104.244 133.152 104.062 133.077 103.904 132.928C103.754 132.779 103.68 132.597 103.68 132.382C103.68 132.167 103.754 131.985 103.904 131.836C104.062 131.687 104.244 131.612 104.45 131.612C104.655 131.612 104.832 131.687 104.982 131.836C105.14 131.985 105.22 132.167 105.22 132.382C105.22 132.597 105.14 132.779 104.982 132.928ZM109.656 142.098C109.012 142.098 108.522 141.925 108.186 141.58C107.85 141.235 107.682 140.763 107.682 140.166V135.658H106.632V134.678H107.682V133.012H108.844V134.678H110.552V135.658H108.844V140.054C108.844 140.763 109.147 141.118 109.754 141.118C110.09 141.118 110.389 141.067 110.65 140.964V141.944C110.361 142.047 110.029 142.098 109.656 142.098ZM112.406 142V131.178H113.568V135.84C113.746 135.467 114.04 135.159 114.45 134.916C114.861 134.673 115.351 134.552 115.92 134.552C116.723 134.552 117.353 134.79 117.81 135.266C118.268 135.742 118.496 136.489 118.496 137.506V142H117.334V137.422C117.334 136.778 117.194 136.307 116.914 136.008C116.634 135.709 116.2 135.56 115.612 135.56C115.043 135.56 114.558 135.737 114.156 136.092C113.764 136.447 113.568 136.937 113.568 137.562V142H112.406Z" fill="black"/>
<path d="M32.33 51.8L38.556 35.96H40.25L46.322 51.8H44.782L42.956 46.828H35.74L33.87 51.8H32.33ZM36.246 45.552H42.45L39.348 37.236L36.246 45.552ZM49.0278 48.236C49.2332 49.2187 49.5998 49.9154 50.1278 50.326C50.6705 50.722 51.4405 50.92 52.4378 50.92C52.9218 50.92 53.3398 50.8614 53.6918 50.744C54.0438 50.6267 54.3298 50.4727 54.5498 50.282C54.7845 50.0767 54.9605 49.8494 55.0778 49.6C55.1952 49.3507 55.2538 49.0867 55.2538 48.808C55.2538 48.2507 55.0705 47.84 54.7038 47.576C54.3518 47.2974 53.9045 47.0847 53.3618 46.938C52.8192 46.7767 52.2325 46.6447 51.6018 46.542C50.9712 46.4247 50.3845 46.256 49.8418 46.036C49.2992 45.816 48.8445 45.5007 48.4778 45.09C48.1258 44.6794 47.9498 44.1 47.9498 43.352C47.9498 42.3987 48.2945 41.6214 48.9838 41.02C49.6878 40.404 50.6778 40.096 51.9538 40.096C53.1858 40.096 54.1832 40.3747 54.9458 40.932C55.7232 41.4747 56.1925 42.3914 56.3538 43.682H55.0118C54.8945 42.802 54.5572 42.186 53.9998 41.834C53.4572 41.4674 52.7678 41.284 51.9318 41.284C51.0958 41.284 50.4578 41.4674 50.0178 41.834C49.5778 42.186 49.3578 42.6554 49.3578 43.242C49.3578 43.7554 49.5338 44.1514 49.8858 44.43C50.2525 44.694 50.7072 44.914 51.2498 45.09C51.7925 45.2514 52.3792 45.398 53.0098 45.53C53.6405 45.662 54.2272 45.8527 54.7698 46.102C55.3125 46.3367 55.7598 46.6594 56.1118 47.07C56.4785 47.4807 56.6618 48.0527 56.6618 48.786C56.6618 49.3287 56.5445 49.8127 56.3098 50.238C56.0752 50.6487 55.7525 50.9934 55.3418 51.272C54.9312 51.5507 54.4398 51.756 53.8678 51.888C53.3105 52.0347 52.6945 52.108 52.0198 52.108C51.3452 52.108 50.7438 52.0054 50.2158 51.8C49.7025 51.6094 49.2625 51.338 48.8958 50.986C48.5292 50.634 48.2432 50.2234 48.0378 49.754C47.8325 49.2847 47.7152 48.7787 47.6858 48.236H49.0278ZM60.0278 48.236C60.2332 49.2187 60.5998 49.9154 61.1278 50.326C61.6705 50.722 62.4405 50.92 63.4378 50.92C63.9218 50.92 64.3398 50.8614 64.6918 50.744C65.0438 50.6267 65.3298 50.4727 65.5498 50.282C65.7845 50.0767 65.9605 49.8494 66.0778 49.6C66.1952 49.3507 66.2538 49.0867 66.2538 48.808C66.2538 48.2507 66.0705 47.84 65.7038 47.576C65.3518 47.2974 64.9045 47.0847 64.3618 46.938C63.8192 46.7767 63.2325 46.6447 62.6018 46.542C61.9712 46.4247 61.3845 46.256 60.8418 46.036C60.2992 45.816 59.8445 45.5007 59.4778 45.09C59.1258 44.6794 58.9498 44.1 58.9498 43.352C58.9498 42.3987 59.2945 41.6214 59.9838 41.02C60.6878 40.404 61.6778 40.096 62.9538 40.096C64.1858 40.096 65.1832 40.3747 65.9458 40.932C66.7232 41.4747 67.1925 42.3914 67.3538 43.682H66.0118C65.8945 42.802 65.5572 42.186 64.9998 41.834C64.4572 41.4674 63.7678 41.284 62.9318 41.284C62.0958 41.284 61.4578 41.4674 61.0178 41.834C60.5778 42.186 60.3578 42.6554 60.3578 43.242C60.3578 43.7554 60.5338 44.1514 60.8858 44.43C61.2525 44.694 61.7072 44.914 62.2498 45.09C62.7925 45.2514 63.3792 45.398 64.0098 45.53C64.6405 45.662 65.2272 45.8527 65.7698 46.102C66.3125 46.3367 66.7598 46.6594 67.1118 47.07C67.4785 47.4807 67.6618 48.0527 67.6618 48.786C67.6618 49.3287 67.5445 49.8127 67.3098 50.238C67.0752 50.6487 66.7525 50.9934 66.3418 51.272C65.9312 51.5507 65.4398 51.756 64.8678 51.888C64.3105 52.0347 63.6945 52.108 63.0198 52.108C62.3452 52.108 61.7438 52.0054 61.2158 51.8C60.7025 51.6094 60.2625 51.338 59.8958 50.986C59.5292 50.634 59.2432 50.2234 59.0378 49.754C58.8325 49.2847 58.7152 48.7787 58.6858 48.236H60.0278ZM70.4558 51.8V40.404H71.7758V51.8H70.4558ZM70.3898 37.918V35.96H71.8418V37.918H70.3898ZM83.9348 46.146C83.9348 45.4567 83.8468 44.8187 83.6708 44.232C83.5094 43.6307 83.2674 43.1174 82.9448 42.692C82.6221 42.252 82.2188 41.9074 81.7348 41.658C81.2508 41.4087 80.7008 41.284 80.0848 41.284C79.5274 41.284 79.0141 41.3867 78.5448 41.592C78.0754 41.7827 77.6648 42.0687 77.3128 42.45C76.9608 42.8314 76.6821 43.3007 76.4768 43.858C76.2861 44.4007 76.1908 45.0314 76.1908 45.75C76.1614 46.4687 76.2201 47.1434 76.3668 47.774C76.5134 48.39 76.7481 48.9327 77.0708 49.402C77.3934 49.8714 77.8041 50.2454 78.3028 50.524C78.8014 50.788 79.3954 50.92 80.0848 50.92C80.6861 50.92 81.2214 50.7954 81.6908 50.546C82.1748 50.282 82.5781 49.9374 82.9008 49.512C83.2381 49.072 83.4948 48.566 83.6708 47.994C83.8468 47.4074 83.9348 46.7914 83.9348 46.146ZM83.9348 40.404H85.2548V50.7C85.2548 51.4627 85.1741 52.1887 85.0128 52.878C84.8661 53.582 84.5948 54.198 84.1988 54.726C83.8028 55.254 83.2601 55.672 82.5708 55.98C81.8814 56.3027 80.9941 56.464 79.9088 56.464C79.0728 56.464 78.3541 56.354 77.7528 56.134C77.1514 55.9287 76.6601 55.6647 76.2788 55.342C75.8974 55.0194 75.6041 54.66 75.3988 54.264C75.2081 53.8827 75.1054 53.5234 75.0908 53.186H76.4988C76.6014 53.6114 76.7628 53.956 76.9828 54.22C77.2028 54.4987 77.4594 54.7114 77.7528 54.858C78.0608 55.0194 78.3981 55.1294 78.7648 55.188C79.1314 55.2467 79.5128 55.276 79.9088 55.276C80.8034 55.276 81.5221 55.122 82.0648 54.814C82.6074 54.506 83.0181 54.1027 83.2968 53.604C83.5754 53.1054 83.7514 52.5407 83.8248 51.91C83.9128 51.2794 83.9494 50.634 83.9348 49.974C83.5094 50.678 82.9228 51.2134 82.1748 51.58C81.4414 51.932 80.6714 52.108 79.8648 52.108C78.9994 52.108 78.2441 51.9467 77.5988 51.624C76.9681 51.2867 76.4401 50.8467 76.0148 50.304C75.6041 49.7467 75.2961 49.1014 75.0908 48.368C74.8854 47.6347 74.7828 46.872 74.7828 46.08C74.7828 45.244 74.8781 44.4594 75.0688 43.726C75.2594 42.9927 75.5601 42.362 75.9708 41.834C76.3961 41.2914 76.9314 40.866 77.5768 40.558C78.2221 40.25 79.0068 40.096 79.9308 40.096C80.2974 40.096 80.6714 40.1474 81.0528 40.25C81.4341 40.3527 81.8008 40.4994 82.1528 40.69C82.5194 40.8807 82.8494 41.1227 83.1428 41.416C83.4508 41.7094 83.7001 42.0394 83.8908 42.406H83.9348V40.404ZM89.904 51.8H88.584V40.404H89.904V41.988C90.432 41.4307 90.9747 40.976 91.532 40.624C92.104 40.272 92.786 40.096 93.578 40.096C94.282 40.096 94.9347 40.2207 95.536 40.47C96.1373 40.7047 96.6433 41.1227 97.054 41.724C97.3327 42.1347 97.494 42.56 97.538 43C97.5967 43.4254 97.626 43.8727 97.626 44.342V51.8H96.306V44.364C96.306 43.3374 96.0787 42.5674 95.624 42.054C95.1693 41.5407 94.414 41.284 93.358 41.284C92.9473 41.284 92.5733 41.35 92.236 41.482C91.8987 41.5994 91.5907 41.7607 91.312 41.966C91.048 42.1714 90.8207 42.406 90.63 42.67C90.4393 42.934 90.2927 43.2127 90.19 43.506C90.058 43.8727 89.9773 44.2247 89.948 44.562C89.9187 44.8994 89.904 45.266 89.904 45.662V51.8ZM105.7 35.96H117.228V37.236H112.212V51.8H110.716V37.236H105.7V35.96ZM123.688 52.108C122.955 52.0934 122.266 51.9614 121.62 51.712C120.99 51.4627 120.432 51.0887 119.948 50.59C119.479 50.0914 119.105 49.468 118.826 48.72C118.548 47.972 118.408 47.0994 118.408 46.102C118.408 45.266 118.518 44.4887 118.738 43.77C118.958 43.0367 119.288 42.3987 119.728 41.856C120.168 41.3134 120.718 40.888 121.378 40.58C122.038 40.2574 122.808 40.096 123.688 40.096C124.583 40.096 125.36 40.2574 126.02 40.58C126.68 40.888 127.23 41.3134 127.67 41.856C128.11 42.384 128.433 43.0147 128.638 43.748C128.858 44.4814 128.968 45.266 128.968 46.102C128.968 47.0114 128.844 47.8327 128.594 48.566C128.345 49.2994 127.986 49.93 127.516 50.458C127.062 50.986 126.504 51.3967 125.844 51.69C125.199 51.9687 124.48 52.108 123.688 52.108ZM127.56 46.102C127.56 45.4274 127.487 44.7967 127.34 44.21C127.194 43.6234 126.966 43.1174 126.658 42.692C126.35 42.252 125.954 41.9074 125.47 41.658C124.986 41.4087 124.392 41.284 123.688 41.284C122.999 41.284 122.405 41.4234 121.906 41.702C121.422 41.966 121.026 42.3254 120.718 42.78C120.41 43.22 120.183 43.7334 120.036 44.32C119.89 44.892 119.816 45.486 119.816 46.102C119.816 46.806 119.897 47.4587 120.058 48.06C120.234 48.6467 120.484 49.1527 120.806 49.578C121.129 50.0034 121.532 50.3334 122.016 50.568C122.5 50.8027 123.058 50.92 123.688 50.92C124.378 50.92 124.964 50.788 125.448 50.524C125.947 50.2454 126.35 49.8787 126.658 49.424C126.966 48.9694 127.194 48.456 127.34 47.884C127.487 47.312 127.56 46.718 127.56 46.102ZM131.293 51.8V35.96H132.613V45.816L138.201 40.404H140.005L135.737 44.518L140.511 51.8H139.037L134.769 45.442L132.613 47.488V51.8H131.293ZM150.631 45.31C150.631 44.7527 150.55 44.232 150.389 43.748C150.242 43.2494 150.015 42.824 149.707 42.472C149.414 42.1054 149.04 41.8194 148.585 41.614C148.13 41.394 147.61 41.284 147.023 41.284C146.436 41.284 145.916 41.394 145.461 41.614C145.021 41.834 144.64 42.1274 144.317 42.494C144.009 42.8607 143.76 43.286 143.569 43.77C143.378 44.254 143.254 44.7674 143.195 45.31H150.631ZM143.195 46.41C143.195 47.026 143.276 47.6127 143.437 48.17C143.598 48.7127 143.833 49.1894 144.141 49.6C144.464 49.996 144.867 50.3187 145.351 50.568C145.835 50.8027 146.392 50.92 147.023 50.92C147.888 50.92 148.629 50.6927 149.245 50.238C149.861 49.7834 150.272 49.138 150.477 48.302H151.951C151.79 48.8447 151.577 49.3507 151.313 49.82C151.049 50.2747 150.719 50.678 150.323 51.03C149.927 51.3674 149.458 51.6314 148.915 51.822C148.372 52.0127 147.742 52.108 147.023 52.108C146.114 52.108 145.329 51.954 144.669 51.646C144.009 51.338 143.466 50.92 143.041 50.392C142.616 49.8494 142.3 49.2187 142.095 48.5C141.89 47.7667 141.787 46.982 141.787 46.146C141.787 45.31 141.904 44.5254 142.139 43.792C142.388 43.0587 142.733 42.4207 143.173 41.878C143.628 41.3207 144.178 40.888 144.823 40.58C145.468 40.2574 146.202 40.096 147.023 40.096C148.592 40.096 149.824 40.6387 150.719 41.724C151.614 42.7947 152.054 44.3567 152.039 46.41H143.195ZM155.925 51.8H154.605V40.404H155.925V41.988C156.453 41.4307 156.996 40.976 157.553 40.624C158.125 40.272 158.807 40.096 159.599 40.096C160.303 40.096 160.956 40.2207 161.557 40.47C162.159 40.7047 162.665 41.1227 163.075 41.724C163.354 42.1347 163.515 42.56 163.559 43C163.618 43.4254 163.647 43.8727 163.647 44.342V51.8H162.327V44.364C162.327 43.3374 162.1 42.5674 161.645 42.054C161.191 41.5407 160.435 41.284 159.379 41.284C158.969 41.284 158.595 41.35 158.257 41.482C157.92 41.5994 157.612 41.7607 157.333 41.966C157.069 42.1714 156.842 42.406 156.651 42.67C156.461 42.934 156.314 43.2127 156.211 43.506C156.079 43.8727 155.999 44.2247 155.969 44.562C155.94 44.8994 155.925 45.266 155.925 45.662V51.8ZM167.6 48.236C167.805 49.2187 168.172 49.9154 168.7 50.326C169.243 50.722 170.013 50.92 171.01 50.92C171.494 50.92 171.912 50.8614 172.264 50.744C172.616 50.6267 172.902 50.4727 173.122 50.282C173.357 50.0767 173.533 49.8494 173.65 49.6C173.767 49.3507 173.826 49.0867 173.826 48.808C173.826 48.2507 173.643 47.84 173.276 47.576C172.924 47.2974 172.477 47.0847 171.934 46.938C171.391 46.7767 170.805 46.6447 170.174 46.542C169.543 46.4247 168.957 46.256 168.414 46.036C167.871 45.816 167.417 45.5007 167.05 45.09C166.698 44.6794 166.522 44.1 166.522 43.352C166.522 42.3987 166.867 41.6214 167.556 41.02C168.26 40.404 169.25 40.096 170.526 40.096C171.758 40.096 172.755 40.3747 173.518 40.932C174.295 41.4747 174.765 42.3914 174.926 43.682H173.584C173.467 42.802 173.129 42.186 172.572 41.834C172.029 41.4674 171.34 41.284 170.504 41.284C169.668 41.284 169.03 41.4674 168.59 41.834C168.15 42.186 167.93 42.6554 167.93 43.242C167.93 43.7554 168.106 44.1514 168.458 44.43C168.825 44.694 169.279 44.914 169.822 45.09C170.365 45.2514 170.951 45.398 171.582 45.53C172.213 45.662 172.799 45.8527 173.342 46.102C173.885 46.3367 174.332 46.6594 174.684 47.07C175.051 47.4807 175.234 48.0527 175.234 48.786C175.234 49.3287 175.117 49.8127 174.882 50.238C174.647 50.6487 174.325 50.9934 173.914 51.272C173.503 51.5507 173.012 51.756 172.44 51.888C171.883 52.0347 171.267 52.108 170.592 52.108C169.917 52.108 169.316 52.0054 168.788 51.8C168.275 51.6094 167.835 51.338 167.468 50.986C167.101 50.634 166.815 50.2234 166.61 49.754C166.405 49.2847 166.287 48.7787 166.258 48.236H167.6Z" fill="#2D4051"/>
<rect x="32" y="278" width="286" height="40" rx="4" fill="url(#paint0_linear)"/>
<path d="M129.232 302L132.676 291.99H134.272L137.66 302H136.456L135.476 299.116H131.346L130.38 302H129.232ZM133.418 292.998L131.682 298.15H135.154L133.418 292.998ZM141.605 302.126C140.728 302.126 140.037 301.916 139.533 301.496C139.038 301.076 138.772 300.493 138.735 299.746H139.869C139.962 300.689 140.536 301.16 141.591 301.16C142.655 301.16 143.187 300.773 143.187 299.998C143.187 299.634 143.052 299.368 142.781 299.2C142.52 299.023 142.086 298.878 141.479 298.766C140.527 298.589 139.864 298.346 139.491 298.038C139.118 297.721 138.931 297.245 138.931 296.61C138.931 295.975 139.183 295.476 139.687 295.112C140.2 294.739 140.774 294.552 141.409 294.552C142.996 294.552 143.878 295.257 144.055 296.666H142.935C142.851 296.265 142.688 295.975 142.445 295.798C142.202 295.611 141.852 295.518 141.395 295.518C140.975 295.518 140.639 295.616 140.387 295.812C140.135 295.999 140.009 296.251 140.009 296.568C140.009 296.904 140.126 297.151 140.359 297.31C140.602 297.469 141.054 297.609 141.717 297.73C142.156 297.814 142.506 297.898 142.767 297.982C143.038 298.057 143.299 298.173 143.551 298.332C143.812 298.491 143.999 298.701 144.111 298.962C144.232 299.214 144.293 299.527 144.293 299.9C144.293 300.581 144.06 301.123 143.593 301.524C143.136 301.925 142.473 302.126 141.605 302.126ZM148.332 302.126C147.454 302.126 146.764 301.916 146.26 301.496C145.765 301.076 145.499 300.493 145.462 299.746H146.596C146.689 300.689 147.263 301.16 148.318 301.16C149.382 301.16 149.914 300.773 149.914 299.998C149.914 299.634 149.778 299.368 149.508 299.2C149.246 299.023 148.812 298.878 148.206 298.766C147.254 298.589 146.591 298.346 146.218 298.038C145.844 297.721 145.658 297.245 145.658 296.61C145.658 295.975 145.91 295.476 146.414 295.112C146.927 294.739 147.501 294.552 148.136 294.552C149.722 294.552 150.604 295.257 150.782 296.666H149.662C149.578 296.265 149.414 295.975 149.172 295.798C148.929 295.611 148.579 295.518 148.122 295.518C147.702 295.518 147.366 295.616 147.114 295.812C146.862 295.999 146.736 296.251 146.736 296.568C146.736 296.904 146.852 297.151 147.086 297.31C147.328 297.469 147.781 297.609 148.444 297.73C148.882 297.814 149.232 297.898 149.494 297.982C149.764 298.057 150.026 298.173 150.278 298.332C150.539 298.491 150.726 298.701 150.838 298.962C150.959 299.214 151.02 299.527 151.02 299.9C151.02 300.581 150.786 301.123 150.32 301.524C149.862 301.925 149.2 302.126 148.332 302.126ZM152.818 302V294.678H153.98V302H152.818ZM153.91 292.928C153.761 293.077 153.584 293.152 153.378 293.152C153.173 293.152 152.991 293.077 152.832 292.928C152.683 292.779 152.608 292.597 152.608 292.382C152.608 292.167 152.683 291.985 152.832 291.836C152.991 291.687 153.173 291.612 153.378 291.612C153.584 291.612 153.761 291.687 153.91 291.836C154.069 291.985 154.148 292.167 154.148 292.382C154.148 292.597 154.069 292.779 153.91 292.928ZM159.285 304.674C158.267 304.674 157.483 304.464 156.933 304.044C156.391 303.633 156.069 303.092 155.967 302.42H157.157C157.325 303.269 158.029 303.694 159.271 303.694C160.017 303.694 160.596 303.507 161.007 303.134C161.417 302.77 161.623 302.205 161.623 301.44V300.376C161.399 300.759 161.058 301.085 160.601 301.356C160.143 301.627 159.658 301.762 159.145 301.762C158.183 301.762 157.385 301.435 156.751 300.782C156.125 300.129 155.813 299.298 155.813 298.29V298.192C155.813 297.175 156.135 296.316 156.779 295.616C157.423 294.907 158.239 294.552 159.229 294.552C160.311 294.552 161.109 294.986 161.623 295.854V294.678H162.785V301.51C162.775 302.546 162.453 303.33 161.819 303.862C161.184 304.403 160.339 304.674 159.285 304.674ZM159.271 300.796C159.971 300.796 160.545 300.567 160.993 300.11C161.441 299.643 161.665 299.009 161.665 298.206V298.108C161.665 297.296 161.455 296.661 161.035 296.204C160.624 295.747 160.059 295.518 159.341 295.518C158.622 295.518 158.053 295.761 157.633 296.246C157.222 296.722 157.017 297.352 157.017 298.136V298.248C157.017 299.023 157.231 299.643 157.661 300.11C158.099 300.567 158.636 300.796 159.271 300.796ZM165.136 302V294.678H166.298V295.84C166.475 295.467 166.769 295.159 167.18 294.916C167.591 294.673 168.081 294.552 168.65 294.552C169.453 294.552 170.083 294.79 170.54 295.266C170.997 295.742 171.226 296.489 171.226 297.506V302H170.064V297.422C170.064 296.778 169.924 296.307 169.644 296.008C169.364 295.709 168.93 295.56 168.342 295.56C167.773 295.56 167.287 295.737 166.886 296.092C166.494 296.447 166.298 296.937 166.298 297.562V302H165.136ZM179.35 302V292.984H176.438V291.99H183.48V292.984H180.568V302H179.35ZM187.055 301.16C187.783 301.16 188.362 300.908 188.791 300.404C189.23 299.9 189.449 299.233 189.449 298.402V298.304C189.449 297.455 189.23 296.778 188.791 296.274C188.362 295.77 187.783 295.518 187.055 295.518C186.318 295.518 185.734 295.77 185.305 296.274C184.876 296.778 184.661 297.45 184.661 298.29V298.402C184.661 299.242 184.876 299.914 185.305 300.418C185.734 300.913 186.318 301.16 187.055 301.16ZM187.041 302.126C186.005 302.126 185.146 301.776 184.465 301.076C183.793 300.367 183.457 299.475 183.457 298.402V298.29C183.457 297.198 183.793 296.302 184.465 295.602C185.146 294.902 186.01 294.552 187.055 294.552C188.1 294.552 188.959 294.902 189.631 295.602C190.312 296.293 190.653 297.184 190.653 298.276V298.388C190.653 299.489 190.312 300.39 189.631 301.09C188.95 301.781 188.086 302.126 187.041 302.126ZM192.452 302V291.178H193.614V298.052L196.652 294.678H198.01L194.874 298.08L198.276 302H196.862L193.614 298.206V302H192.452ZM202.394 302.126C201.348 302.126 200.494 301.79 199.832 301.118C199.178 300.437 198.852 299.536 198.852 298.416V298.304C198.852 297.203 199.169 296.302 199.804 295.602C200.448 294.902 201.274 294.552 202.282 294.552C203.215 294.552 203.994 294.855 204.62 295.462C205.254 296.059 205.572 296.969 205.572 298.192V298.57H200.056C200.084 299.41 200.294 300.054 200.686 300.502C201.087 300.941 201.661 301.16 202.408 301.16C203.556 301.16 204.204 300.735 204.354 299.886H205.516C205.394 300.605 205.054 301.16 204.494 301.552C203.934 301.935 203.234 302.126 202.394 302.126ZM200.098 297.632H204.382C204.279 296.223 203.579 295.518 202.282 295.518C201.694 295.518 201.208 295.709 200.826 296.092C200.443 296.465 200.2 296.979 200.098 297.632ZM207.355 302V294.678H208.517V295.84C208.694 295.467 208.988 295.159 209.399 294.916C209.809 294.673 210.299 294.552 210.869 294.552C211.671 294.552 212.301 294.79 212.759 295.266C213.216 295.742 213.445 296.489 213.445 297.506V302H212.283V297.422C212.283 296.778 212.143 296.307 211.863 296.008C211.583 295.709 211.149 295.56 210.561 295.56C209.991 295.56 209.506 295.737 209.105 296.092C208.713 296.447 208.517 296.937 208.517 297.562V302H207.355ZM217.99 302.126C217.113 302.126 216.422 301.916 215.918 301.496C215.423 301.076 215.157 300.493 215.12 299.746H216.254C216.347 300.689 216.921 301.16 217.976 301.16C219.04 301.16 219.572 300.773 219.572 299.998C219.572 299.634 219.437 299.368 219.166 299.2C218.905 299.023 218.471 298.878 217.864 298.766C216.912 298.589 216.249 298.346 215.876 298.038C215.503 297.721 215.316 297.245 215.316 296.61C215.316 295.975 215.568 295.476 216.072 295.112C216.585 294.739 217.159 294.552 217.794 294.552C219.381 294.552 220.263 295.257 220.44 296.666H219.32C219.236 296.265 219.073 295.975 218.83 295.798C218.587 295.611 218.237 295.518 217.78 295.518C217.36 295.518 217.024 295.616 216.772 295.812C216.52 295.999 216.394 296.251 216.394 296.568C216.394 296.904 216.511 297.151 216.744 297.31C216.987 297.469 217.439 297.609 218.102 297.73C218.541 297.814 218.891 297.898 219.152 297.982C219.423 298.057 219.684 298.173 219.936 298.332C220.197 298.491 220.384 298.701 220.496 298.962C220.617 299.214 220.678 299.527 220.678 299.9C220.678 300.581 220.445 301.123 219.978 301.524C219.521 301.925 218.858 302.126 217.99 302.126Z" fill="white"/>
<defs>
<linearGradient id="paint0_linear" x1="178.647" y1="338" x2="189.362" y2="259.436" gradientUnits="userSpaceOnUse">
<stop stop-color="#00DBE2"/>
<stop offset="1" stop-color="#01BFE3"/>
</linearGradient>
</defs>
</svg>
