<svg width="69" height="69" viewBox="0 0 69 69" fill="none" xmlns="http://www.w3.org/2000/svg">
<g clip-path="url(#clip0)">
<path d="M31.9745 41.3716C32.0219 41.3654 32.0676 41.3565 32.113 41.3472C31.5901 43.0206 31.3082 44.7995 31.3082 46.6429C31.3082 56.4529 39.2892 64.4339 49.0992 64.4339C50.7626 64.4339 52.4091 64.2048 53.9928 63.7527C54.5295 63.599 55.089 63.9105 55.2422 64.4471C55.3954 64.9839 55.0845 65.5433 54.5477 65.6965C52.7835 66.2 50.9504 66.4554 49.0993 66.4554C38.1746 66.4554 29.2868 57.5676 29.2868 46.6429C29.2868 44.8411 29.53 43.0954 29.9828 41.4351C30.6433 41.4756 31.2998 41.4592 31.9745 41.3716Z" fill="#C8D6F0" stroke="#C8D6F0" stroke-width="0.5"/>
<path d="M15.3129 27.338C14.895 25.7363 14.6718 24.0567 14.6718 22.326C14.6718 11.3733 23.5825 2.46271 34.5352 2.46271C37.5855 2.46271 40.5122 3.136 43.234 4.46411C43.737 4.70952 43.9459 5.31624 43.7004 5.81918C43.455 6.32213 42.8483 6.53088 42.3454 6.28547C39.9026 5.09374 37.275 4.48945 34.5352 4.48945C24.7 4.48945 16.6985 12.4909 16.6985 22.3261C16.6985 23.9334 16.9135 25.4912 17.314 26.9736C18.1566 26.8658 19.0107 26.811 19.8634 26.811C20.1611 26.811 20.4578 26.8181 20.7534 26.831C20.771 26.8301 20.7883 26.8283 20.8062 26.8283C20.8583 26.8283 20.9093 26.8335 20.9594 26.8411C24.8458 27.0507 28.5292 28.3737 31.6719 30.7006C32.7078 31.4675 33.6565 32.3225 34.512 33.2532C35.3676 32.3225 36.3162 31.4675 37.352 30.7006C40.5132 28.3601 44.2215 27.0353 48.133 26.8378C48.176 26.8322 48.2195 26.8283 48.2642 26.8283C48.2743 26.8283 48.284 26.8296 48.2939 26.8298C48.5818 26.8176 48.8706 26.8108 49.1605 26.8108C50.0284 26.8108 50.8976 26.8673 51.7549 26.9789C52.1563 25.4948 52.3718 23.9352 52.3718 22.326C52.3718 17.9449 50.7684 13.7325 47.8569 10.465C47.4845 10.047 47.5215 9.40664 47.9394 9.03429C48.3571 8.66206 48.9978 8.69885 49.37 9.11676C52.6126 12.7561 54.3984 17.4473 54.3984 22.3261C54.3984 24.0628 54.1736 25.7478 53.753 27.3545C62.4865 29.441 69 37.3104 69 46.6741C69 52.801 66.2362 58.4917 61.4174 62.2869C60.9777 62.6333 60.3406 62.5577 59.9943 62.1179C59.6479 61.6783 59.7237 61.0412 60.1634 60.6949C64.4911 57.2865 66.9734 52.1759 66.9734 46.6741C66.9734 38.2139 61.0523 31.1121 53.1369 29.2913C50.8296 35.433 45.5643 40.1386 39.0847 41.6628C39.5029 43.2642 39.7266 44.9434 39.7266 46.6741C39.7266 57.6267 30.8159 66.5373 19.8632 66.5373C8.91057 66.5373 0 57.6266 0 46.6741C0 37.2868 6.5461 29.4009 15.3129 27.338ZM35.9241 54.429H33.0759C33.4832 55.2741 33.958 56.0877 34.496 56.8614C35.0329 56.0923 35.5116 55.2797 35.9241 54.429ZM37.7 46.6741C37.7 46.4242 37.6933 46.1761 37.683 45.9287C37.6639 45.9298 37.6449 45.9316 37.6255 45.9316H31.316C31.3056 46.1787 31.3001 46.4262 31.3001 46.6741C31.3001 47.1591 31.3207 47.6426 31.3602 48.1237H37.6408C37.6794 47.6455 37.7 47.162 37.7 46.6741ZM32.5933 40.0565C33.2313 40.1259 33.879 40.1626 34.535 40.1626C35.1758 40.1626 35.8087 40.1278 36.4323 40.0617C35.9276 38.7935 35.2833 37.5977 34.5117 36.4897C33.7414 37.5962 33.0978 38.7901 32.5933 40.0565ZM34.5352 42.1892C33.6491 42.1892 32.7768 42.13 31.9211 42.017C31.7532 42.6377 31.6183 43.2679 31.518 43.9049H37.4824C37.3824 43.2669 37.2485 42.6403 37.0826 42.0264C36.2483 42.1337 35.3981 42.1892 34.5352 42.1892ZM32.2481 52.4023H36.7564C37.0048 51.6717 37.2061 50.9197 37.3588 50.1503H31.6445C31.7966 50.9141 31.9986 51.6663 32.2481 52.4023ZM28.2901 39.0334V30.9511C27.5615 30.5588 26.81 30.2178 26.0382 29.9329V38.0055C26.7603 38.3984 27.5127 38.7418 28.2901 39.0334ZM24.0116 29.3211C23.2926 29.1505 22.5608 29.0257 21.8195 28.9454V34.8208C22.4972 35.5103 23.2304 36.1451 24.0116 36.718V29.3211ZM19.7928 28.8382C19.1833 28.8407 18.5738 28.8738 17.9694 28.9374C18.454 30.1473 19.0675 31.2922 19.7928 32.3551V28.8382ZM30.4658 32.3292C30.4167 32.2928 30.3662 32.2593 30.3169 32.2234V39.6574C30.3902 39.6751 30.4632 39.6936 30.5369 39.7106C31.1875 37.9717 32.0807 36.3238 33.1965 34.823C32.3816 33.9092 31.4701 33.0727 30.4658 32.3292ZM35.8175 34.8341C36.924 36.3223 37.8186 37.9627 38.4746 39.7233C38.5679 39.7021 38.6608 39.6799 38.7535 39.6572V32.1904C38.6885 32.2372 38.6225 32.2815 38.5581 32.3292C37.5497 33.0757 36.6348 33.9161 35.8175 34.8341ZM40.7801 39.0334C41.5577 38.7418 42.3101 38.3984 43.032 38.0057V29.9166C42.2605 30.1988 41.5089 30.5363 40.7801 30.9258V39.0334ZM49.2775 28.8388V32.3551C50.002 31.2935 50.6146 30.1502 51.0989 28.9417C50.4955 28.8766 49.8863 28.8427 49.2775 28.8388ZM47.2509 34.8206V28.9407C46.5095 29.019 45.7777 29.142 45.0588 29.3107V36.7178C45.84 36.145 46.5731 35.5102 47.2509 34.8206ZM19.8634 64.5106C25.1575 64.5106 29.9194 62.1913 33.1889 58.5165C30.6584 55.1089 29.2734 50.9363 29.2734 46.6741C29.2734 44.9685 29.4951 43.279 29.9223 41.6473C23.467 40.1063 18.225 35.4058 15.9281 29.2773C7.98028 31.0741 2.02674 38.1908 2.02674 46.6741C2.02674 56.5093 10.0282 64.5106 19.8634 64.5106Z" fill="#C8D6F0" stroke="#C8D6F0" stroke-width="0.5"/>
<circle cx="34.5" cy="66.8438" r="2.15625" fill="url(#paint0_linear)"/>
<circle cx="8.625" cy="22.6406" r="2.15625" fill="url(#paint1_linear)"/>
<circle cx="60.375" cy="22.6406" r="2.15625" fill="url(#paint2_linear)"/>
</g>
<defs>
<linearGradient id="paint0_linear" x1="29.5517" y1="62.0092" x2="37.5744" y2="68.7203" gradientUnits="userSpaceOnUse">
<stop stop-color="#FF9372"/>
<stop offset="1" stop-color="#FFD770"/>
</linearGradient>
<linearGradient id="paint1_linear" x1="3.6767" y1="17.8061" x2="11.6994" y2="24.5172" gradientUnits="userSpaceOnUse">
<stop stop-color="#FF9372"/>
<stop offset="1" stop-color="#FFD770"/>
</linearGradient>
<linearGradient id="paint2_linear" x1="55.4267" y1="17.8061" x2="63.4494" y2="24.5172" gradientUnits="userSpaceOnUse">
<stop stop-color="#FF9372"/>
<stop offset="1" stop-color="#FFD770"/>
</linearGradient>
<clipPath id="clip0">
<rect width="69" height="69" fill="white" transform="matrix(-1 0 0 1 69 0)"/>
</clipPath>
</defs>
</svg>
