<svg width="64" height="64" viewBox="0 0 64 64" fill="none" xmlns="http://www.w3.org/2000/svg">
<g clip-path="url(#clip0)">
<path d="M25.8847 53.8457C25.9915 53.8704 26.2742 53.7727 26.3542 53.7479C26.1638 53.5946 25.7404 53.5737 25.4969 53.4227C25.5148 53.4346 24.71 52.9444 24.8797 53.3504C24.9232 53.447 25.078 53.3584 25.1453 53.4086C25.0477 53.5545 25.006 53.5079 25.112 53.5696C25.112 53.5686 24.2164 53.0867 25.1153 53.0529C24.4968 52.4976 25.1553 52.6701 24.9582 52.3169C24.826 52.0769 25.4872 51.8432 25.1313 51.635C24.9592 51.539 24.7729 51.5572 24.5998 51.4389C24.3524 51.2584 24.5857 50.9412 24.8213 50.9755C24.8395 50.9755 24.9583 50.4104 25.0043 50.323C24.9364 50.2945 24.4734 49.7217 24.5858 49.6026C24.7234 49.4576 25.3208 49.9725 25.4693 49.5927C25.5272 49.4549 25.2613 49.0842 25.2824 48.931C25.5569 48.908 27.3409 48.9751 27.0357 48.1591C26.9323 47.873 26.1803 47.4481 26.2556 47.2161C26.5205 47.2491 26.9509 47.6334 27.2271 47.4814C27.4609 47.3646 27.6472 47.6112 27.8841 47.3453C27.9196 47.2955 28.3216 46.8724 28.2079 46.7934C28.0863 46.7911 28.0176 46.8586 28.0079 47.001C27.8684 46.808 28.1094 46.6755 28.2354 46.5357C28.2748 46.5808 28.3004 46.6202 28.3269 46.6573C28.4802 46.4343 29.2997 45.3613 29.3324 45.3345C29.7558 44.8468 29.4019 44.1847 29.8217 43.7966C30.2047 43.4353 30.6201 43.203 31.0947 43.0103C31.2457 42.9508 31.7689 42.6762 31.8797 42.7038C32.7521 42.9746 32.6464 41.9326 33.2013 41.4591C33.7712 40.9861 33.3521 38.5666 33.8089 38.3887C34.0557 38.2892 34.8009 37.3702 35.1901 36.95C35.5671 36.5522 35.6106 36.0341 35.4701 35.518C35.2493 34.7374 35.0211 35.1842 34.4563 34.8414C34.0061 34.5723 33.6614 34.0334 33.0934 33.9582C32.7644 33.9114 32.4231 34.0123 32.0992 33.9147C31.9529 33.8712 31.5833 33.6443 31.4457 33.8347C31.4691 33.8043 31.1401 33.9582 31.1644 33.9672C31.1296 33.9422 31.1574 33.5384 31.0506 33.4376C30.8762 33.2753 30.2953 33.1096 30.0838 33.0574C29.5929 32.9307 29.4771 33.5051 29.3529 32.8193C28.9474 32.7098 28.5472 32.2433 28.6194 32.1252C28.6559 32.0762 27.9938 30.6811 27.9019 30.8107C27.8949 30.3409 26.4402 29.7579 26.0744 29.9787C25.7413 30.2238 25.1329 29.7649 24.9265 29.5467C24.6962 29.3003 24.705 29.0299 24.315 28.8689C24.1522 28.7998 23.8712 28.8369 23.9307 28.5508C23.9982 28.2554 23.2154 28.1949 23.1422 27.9024C23.2532 27.9217 23.3489 27.8666 23.4513 27.8409C23.1479 27.9466 22.7793 27.7271 22.4759 27.9677C22.041 28.3306 21.7805 27.7987 21.3047 27.8947C20.6979 28.0077 21.1047 27.7862 20.7225 27.5507C20.8815 27.6499 20.0153 27.1574 20.2175 27.1718C20.0374 27.1548 20.245 27.4752 20.0425 27.5427C19.7287 27.6582 19.4544 27.7337 19.6608 28.1126C20.0067 28.8044 18.9332 28.4796 19.4413 28.0076C19.5309 27.9286 19.5539 27.0229 19.6548 27.0559C19.5307 27.0118 18.5508 27.6489 18.4359 27.7846C18.1214 27.2777 17.5904 29.0293 17.4152 29.0463C17.3247 28.6153 16.9134 28.4364 16.5553 28.3116C16.2542 28.1944 15.9473 28.9183 15.5485 28.5234C14.8442 27.8044 15.153 26.6518 15.513 25.8364C15.6618 25.4629 14.2072 25.3472 14.0289 25.4992C13.6724 25.7891 14.0839 24.8982 14.081 24.9283C14.122 24.5673 14.2058 24.3264 14.362 24.3376C14.4597 24.1254 15.0004 23.1517 14.9409 23.0368C14.7243 22.5248 13.8039 23.4278 13.721 23.6567C13.6273 23.8788 13.4484 23.9997 13.3655 24.1997C13.2788 24.4026 13.1091 24.1546 12.9626 24.2364C12.5671 24.4604 11.9988 24.3456 12.0884 23.7692C12.1748 23.0757 11.913 21.708 12.6906 21.2342C12.9296 21.0863 12.9651 20.3952 13.2371 20.1513C13.2743 20.1222 14.0589 19.6652 13.983 19.5753C14.0979 19.6994 14.7149 19.4508 14.7949 19.6098C14.856 19.7433 15.2195 19.8802 15.3453 19.8079C15.3385 19.8214 15.4122 19.5014 15.4122 19.4984C15.3965 19.4949 15.1568 19.4623 15.1677 19.3864C15.1962 19.2785 15.935 19.3505 15.9564 19.3534C16.3062 19.3799 16.5663 19.6654 16.8229 19.4923C17.2284 19.2213 16.981 21.0162 17.14 21.1799C17.2284 21.2765 17.164 21.4948 17.3349 21.473C17.5618 21.4509 17.6367 19.1444 18.2305 18.6647C18.6638 18.3178 19.1364 18.0019 19.6168 17.7428C19.7692 17.6638 20.1698 17.474 20.251 17.32C20.2315 17.2445 20.163 17.1582 20.0779 17.2349C20.0539 17.0899 20.2939 17.1799 20.3349 17.031C20.381 16.8832 20.2139 16.838 20.2315 16.7869C20.2254 16.7982 20.381 16.4819 20.3269 16.5262C20.3349 16.5335 20.3349 16.5473 20.3368 16.5537C20.5752 16.594 20.2847 16.3332 20.2767 16.2929C20.5893 16.4542 20.4555 15.9524 20.7614 15.9239C20.5425 16.016 20.585 16.2624 20.6135 16.4094C20.6775 16.7409 20.9665 15.9553 20.9325 15.9844C21.2269 15.866 21.6823 15.6205 21.9962 15.3979C21.9229 15.3704 21.847 15.4274 21.758 15.3649C22.0793 15.2445 22.4415 15.2824 22.7468 15.1255C22.7324 14.801 22.9279 14.4638 23.2933 14.3994C23.8558 14.3114 24.506 13.9684 25.0635 13.7799C24.9784 13.9694 25.1087 13.8224 25.2607 13.8954C25.0785 13.4234 24.0882 14.7674 24.5589 14.4944C24.957 14.2685 26.2994 14.0577 26.4808 13.6729C26.4773 13.6473 26.3924 13.3917 26.3944 13.3917C26.0625 13.3917 26.0363 13.8 25.6268 13.7978C24.8904 13.7898 25.3378 13.3348 25.1823 13.129C25.0492 13.162 24.9398 13.1261 24.8469 13.0231C24.9228 13.01 25.8348 12.7991 25.355 12.6913C24.5739 12.5233 24.0533 13.392 23.41 13.3719C23.8875 13.0781 24.5438 12.4541 25.1278 12.3741C25.7457 12.2871 26.6117 12.5911 27.1553 12.209C27.6462 11.8743 27.9771 12.1181 28.2478 11.5713C28.3346 11.4211 27.8939 11.2308 27.7813 11.2094C27.8274 11.1534 27.9253 11.2094 27.9672 11.1153C27.2324 10.7879 27.0788 10.4654 26.9906 9.61964C26.6197 9.89064 25.3659 10.4709 26.0367 9.52364C25.7948 9.42189 25.0363 8.78801 24.7439 9.22477C24.6118 9.42189 24.3989 9.75089 24.1778 9.85327C23.6779 10.0801 24.1218 10.0376 23.9522 10.3685C23.6718 10.9144 22.9938 10.8415 22.6728 11.3209C22.4689 11.6233 22.4069 11.8351 22.0898 11.9734C21.8155 12.0975 21.7099 11.7744 21.8469 11.5164C21.9425 11.6233 22.0309 11.6403 22.1119 11.5593C22.1359 11.438 21.9675 11.4946 21.9125 11.4534C22.0104 11.2803 22.132 11.1254 22.2703 10.9846C22.221 10.9588 21.5189 10.847 21.5464 10.6636C21.5919 10.2786 21.1109 10.4876 21.0219 10.3738C21.3963 9.89989 21.3963 9.68289 22.1355 9.31264C22.388 9.18914 23.7957 8.46626 24.058 8.64476C24.026 8.80927 23.8552 8.77627 23.7579 8.85527C23.9618 8.90877 24.5509 8.97427 24.7487 8.83314C24.7087 8.79314 24.4697 8.40464 24.5928 8.31026C24.5749 8.32726 24.9989 8.31826 25.0293 8.30739C25.2549 8.25426 25.5035 8.22451 25.6338 7.99639C25.7448 7.79026 26.4902 7.52664 26.6674 7.62839C27.6463 8.18226 25.3468 8.76827 25.3222 8.70839C25.3695 8.86839 25.9884 8.59189 26.1449 9.01627C26.1845 9.12027 26.8867 9.35102 26.9552 9.25114C26.9993 9.20214 26.7527 8.94364 26.7453 8.88127C27.4826 9.24164 27.4468 9.05339 27.3232 8.55939C27.2061 8.08739 27.7581 8.58889 27.7856 8.60552C27.9072 8.66852 28.4096 8.38051 28.4851 8.27714C28.3011 8.14014 27.9913 8.14364 27.8303 7.97476C27.6834 7.82914 28.2191 7.79076 28.0303 7.63776C27.8073 7.45564 27.4568 7.50176 27.5798 7.14139C27.4524 7.10389 27.3289 7.11926 27.2143 7.18876C27.2488 7.25376 27.3234 7.20376 27.3503 7.24089C27.2248 7.31414 27.0863 7.32539 26.9487 7.32089C26.9912 7.26076 27.1202 7.26076 27.1231 7.13939C26.7387 7.09201 26.5346 7.32089 26.2024 7.42289C26.2984 7.28689 26.4562 7.24501 26.5733 7.14164C26.2094 7.19001 25.8629 7.32114 25.5755 7.56401C25.6155 7.60501 25.661 7.64301 25.6834 7.69714C25.4063 7.94326 25.035 8.02126 24.7087 8.16814C24.764 7.95026 25.0024 8.00201 25.0777 7.83914C24.9567 7.83914 24.8409 7.87014 24.7343 7.92014C24.8744 7.89939 25.2847 7.49139 25.3755 7.38739C24.7842 7.31639 24.5349 8.08814 23.9717 7.97814C24.0898 7.83926 24.3262 7.90964 24.4055 7.69714C24.1994 7.72114 23.4139 8.25676 23.2839 7.97814C23.2778 7.95864 24.7233 7.38739 24.874 7.17939C24.7764 7.16589 24.666 7.26451 24.5803 7.14926C24.6498 7.07339 24.7662 7.06251 24.8459 6.98026C24.3758 6.97514 22.9647 7.55014 23.0693 7.88014C22.8885 8.02926 22.6933 8.06514 22.4687 7.97514C22.5542 7.83726 22.8639 7.83501 22.6143 7.63726C22.1602 7.80339 21.717 7.98926 21.2754 8.18414C20.2539 8.63664 19.2562 9.16427 18.3125 9.75177C16.7513 10.7204 15.454 11.8619 14.1653 13.1581C13.4814 13.8532 10.8715 16.9005 10.8818 17.5383C10.8869 18.0058 10.6108 18.423 10.435 18.8462C10.2943 19.1902 10.2725 19.6705 10.1051 19.9889C9.72502 20.6683 9.89714 21.45 9.72589 22.2289C9.94289 22.0625 10.3835 18.506 10.7714 18.6424C10.845 18.6664 10.5314 20.1212 10.4536 20.299C10.1301 21.0455 10.5566 21.9567 10.3433 22.7352C10.3193 22.8135 10.2128 23.2075 10.2101 23.289C9.85077 23.5633 10.3051 23.9754 10.3023 24.2772C10.3023 24.4587 11.2161 25.2599 11.397 25.3658C11.7788 25.5953 11.854 25.1879 12.2056 25.2599C12.5195 25.3258 12.612 25.8989 12.7826 26.1444C13.005 26.4808 13.8616 26.4408 14.0146 26.5988C14.1096 26.7227 14.0265 27.3767 14.4165 27.4696C14.4149 27.4232 14.4067 27.1947 14.462 27.1592C14.5817 27.0891 14.8319 27.5247 14.7465 27.6027C14.624 27.6318 14.5135 27.5867 14.4182 27.4696C14.4182 27.5288 14.3558 28.3834 14.6038 28.2174C14.6077 28.1659 14.6243 28.1099 14.6297 28.0584C14.9602 28.2018 14.9337 28.6812 15.1632 28.7483C15.4825 28.8357 15.7264 29.2373 15.9632 29.3496C16.1779 29.4609 16.118 28.5982 16.5287 28.5557C16.8592 28.5272 17.0452 29.3852 17.1572 29.5941C17.3332 29.8974 16.9252 30.6261 17.1517 30.8577C17.3769 31.1006 16.5853 31.6696 16.5449 31.9114C16.5199 32.0964 16.1154 32.2727 16.1299 32.3428C16.1609 32.5424 16.0435 32.8183 15.9687 33.0109C15.7668 33.5463 15.8663 33.5946 16.2154 33.8423C16.2267 33.8522 15.5699 35.1482 15.9469 35.483C16.5393 35.971 17.3268 37.1777 17.5188 37.9351C17.9057 38.9773 18.4989 39.6173 19.49 40.1332C20.2993 40.5591 20.8712 41.2762 20.8712 42.2522C20.9022 42.8231 20.8142 43.5363 21.0587 44.0752C21.2277 44.4471 20.906 45.0617 21.146 45.4028C21.3042 45.6115 21.0999 45.7347 21.1915 45.9283C21.284 46.1396 21.5064 46.4906 21.5013 46.7376C21.4945 47.1446 21.5013 47.6332 21.5282 48.0381C21.5355 48.1751 21.4069 48.41 21.475 48.4996C21.5694 48.6126 22.1205 49.9694 22.1205 50.3626C22.1187 50.4586 22.5445 50.3405 22.1609 49.9546C22.615 49.6986 22.5234 50.7687 22.5548 50.7754C22.1464 50.6412 22.4073 50.7514 22.4418 51.2771C22.4635 51.5875 22.3612 51.44 22.6149 51.4989C23.0223 51.5872 22.6149 51.8589 22.7682 52.0767C23.0699 52.5142 23.5417 52.9192 23.859 53.256C24.3768 53.8086 25.2664 53.7177 25.8847 53.8457C25.9755 53.8665 25.7727 53.8246 25.8847 53.8457ZM27.5871 11.2596C27.4476 11.3886 27.2892 11.4116 27.1292 11.4615C27.2434 11.2836 27.4092 11.3128 27.5871 11.2596ZM26.2293 11.1448C26.3333 11.1255 26.4203 11.1569 26.4773 11.2276C26.4792 11.2715 25.9214 11.2996 25.8318 11.4381C25.9056 11.1985 26.1091 11.2385 26.2293 11.1448C26.2869 11.2151 26.1091 11.2385 26.2293 11.1448ZM24.8623 12.1096C24.9788 12.1413 24.6898 12.0846 24.8623 12.1096C24.8668 12.1115 24.8287 12.1054 24.8623 12.1096ZM24.1099 10.6763C24.1598 10.6213 24.2008 10.6295 24.2283 10.7038C24.1778 10.7646 24.133 10.7538 24.1099 10.6763C24.1109 10.6434 24.1029 10.7148 24.1099 10.6763ZM23.3599 12.9076C23.1515 12.8961 23.581 12.9183 23.3599 12.9076C23.3359 12.9076 23.3909 12.9103 23.3599 12.9076ZM23.581 12.0446C22.8592 12.7275 23.4227 12.0526 23.2112 12.2645C23.2144 12.2731 23.2112 12.2846 23.2019 12.2846C23.141 12.2203 23.5675 12.0514 23.581 12.0446C23.493 12.1314 23.4568 12.0645 23.581 12.0446ZM23.317 11.2411C23.1839 11.3915 23.1839 11.3915 23.0032 11.3586C23.1 11.2936 23.2309 11.3156 23.317 11.2411ZM26.5653 8.67314C26.5192 8.67602 26.4664 8.67601 26.396 8.67601C26.6278 8.47914 26.5874 8.67314 26.5653 8.67314C26.5196 8.67602 26.5996 8.67314 26.5653 8.67314ZM27.0882 8.32426C27.0101 8.41639 26.8937 8.36239 26.7957 8.40814C26.9004 8.20426 26.9212 8.20214 27.0882 8.32426ZM24.1429 8.56527C24.2059 8.51114 24.283 8.47914 24.3599 8.48714C24.4297 8.58864 23.9189 8.64652 24.1429 8.56527C24.1778 8.51114 24.1189 8.57552 24.1429 8.56527ZM24.0159 8.41614C24.0955 8.45614 24.0885 8.49101 23.9909 8.53289C23.9215 8.49101 23.9295 8.45614 24.0159 8.41614C24.0459 8.41614 23.973 8.42001 24.0159 8.41614ZM20.2028 14.917C20.2095 14.9119 19.0633 15.3749 19.149 15.0875C19.125 15.18 19.5435 14.764 19.4549 14.804C19.5499 14.7622 20.3177 14.7167 20.5425 14.7189C20.4255 14.8399 20.3115 14.8748 20.2028 14.917C19.9515 15.011 20.3115 14.8748 20.2028 14.917ZM21.1199 14.348C22.0684 14.4412 20.557 14.7304 20.3954 14.5579C20.6085 14.3745 20.8598 14.3205 21.1199 14.348C21.196 14.3599 20.8598 14.3205 21.1199 14.348ZM20.9644 8.46701C21.2185 8.30514 21.4873 8.18801 21.8175 8.10889C21.5734 8.30989 21.2514 8.39439 20.9568 8.47401L20.9644 8.46701ZM21.0165 13.58C20.9727 13.6242 20.9327 13.621 20.894 13.579C20.9538 13.5542 21.0095 13.5378 21.0165 13.58C21.037 13.621 21.0095 13.5378 21.0165 13.58ZM20.7372 14.149C20.7179 14.149 20.6434 14.125 20.7372 14.149C20.7445 14.149 20.707 14.1365 20.7372 14.149ZM20.4598 13.6623C20.8048 13.8233 20.6067 14.3602 20.3088 13.9442C20.2989 14.187 19.8707 14.6072 19.6419 14.6572C19.728 14.5579 19.7578 14.4502 19.7283 14.3343C19.654 14.2773 19.5123 14.4412 19.4329 14.4373C19.4627 14.5893 20.0502 13.4367 19.5568 13.7685C19.3798 13.9074 18.1955 15.1657 18.128 15.0924C18.017 14.9814 18.6499 14.0588 18.6979 14.0237C19.1048 13.6902 19.9515 13.4241 20.4598 13.6623ZM19.8005 9.26702C19.8495 9.24139 20.2293 9.00627 20.2773 9.06089C20.3992 9.21289 19.6654 9.40364 19.6318 9.40589C19.6728 9.31252 19.7452 9.30289 19.8005 9.26702C19.9355 9.19314 19.7452 9.30289 19.8005 9.26702ZM19.8818 12.3538C19.8783 12.3714 19.7282 12.6553 19.6418 12.5433C19.5628 12.4661 19.8562 12.2203 19.8818 12.3538C19.8707 12.4283 19.8728 12.3179 19.8818 12.3538ZM19.0514 9.97389C19.0933 9.97389 19.7084 9.58514 19.7282 9.74289C19.7382 9.78989 18.98 9.98389 19.0514 9.97389ZM18.8808 10.6036C18.8427 10.6738 18.8094 10.7101 18.7198 10.7066C18.7548 10.6331 18.8095 10.6276 18.8808 10.6036ZM18.4539 12.0846C18.54 12.0171 18.739 11.6945 18.6414 11.5716C18.6978 11.6404 18.273 11.5246 18.4679 11.4535C18.5469 11.4266 19.0247 11.1636 19.1047 11.2455C19.2417 11.3885 18.5022 12.1608 18.3559 12.2244C18.3727 12.1483 18.4114 12.1138 18.4539 12.0846C18.5768 11.9925 18.4114 12.1138 18.4539 12.0846ZM18.8738 13.0594C19.4028 12.8904 19.5944 12.5886 19.9115 12.9964C20.0354 13.1459 20.0104 13.5353 19.7279 13.4415C19.8044 13.47 18.8678 13.3804 19.0403 13.2774C18.8518 13.3923 18.4918 13.4764 18.271 13.3804C18.476 13.2652 18.6504 13.1291 18.8738 13.0594C19.0059 13.0151 18.6504 13.1291 18.8738 13.0594ZM18.1359 12.0734C18.1849 12.2014 18.1519 12.2644 18.005 12.2843C18.061 12.2014 18.101 12.1384 18.1359 12.0734ZM10.6364 23.4773C10.3954 23.4683 10.8235 23.4683 10.6364 23.4773C10.6079 23.4763 10.6604 23.4763 10.6364 23.4773ZM13.6645 25.6523C13.5938 25.6779 13.8498 25.6108 13.6645 25.6523C13.6479 25.6601 13.6953 25.6459 13.6645 25.6523ZM21.0485 28.0959C20.9234 28.0728 21.1979 28.1074 21.0485 28.0959C21.0379 28.0959 21.069 28.0994 21.0485 28.0959ZM22.2613 49.7506C22.0502 49.7126 22.3724 49.5875 22.2613 49.7506C22.2088 49.7442 22.2642 49.7442 22.2613 49.7506ZM22.7993 38.9196C22.7228 38.84 22.844 38.9586 22.7993 38.9196C22.789 38.9065 22.8133 38.9295 22.7993 38.9196ZM22.8812 45.6636C22.747 45.7097 23.0274 45.6111 22.8812 45.6636C22.8469 45.678 22.9042 45.6562 22.8812 45.6636ZM23.5948 52.9369C23.4988 52.8819 23.4988 52.847 23.5874 52.8319C23.6933 52.8732 23.6968 52.9129 23.5948 52.9369C23.555 52.9337 23.628 52.9442 23.5948 52.9369ZM24.5359 53.3506C24.4399 53.3299 24.4469 53.2936 24.566 53.237C24.6488 53.2669 24.6373 53.3087 24.5359 53.3506C24.4962 53.3506 24.5599 53.3417 24.5359 53.3506ZM22.5407 50.6632C22.5272 50.6684 22.516 50.6706 22.5077 50.6731C22.5382 50.6534 22.5452 50.6492 22.5407 50.6632ZM24.8793 7.17839C24.8793 7.17839 24.8768 7.17839 24.8752 7.17839C24.8768 7.17839 24.8768 7.17326 24.8768 7.17326L24.8793 7.17839ZM16.0057 11.3835C16.0057 11.3886 16.0022 11.3886 16.0022 11.3886L16.0057 11.3835ZM57.7011 27.3214L57.7034 27.3233C57.1924 25.4388 56.817 23.5789 56.032 21.7578C55.1097 19.5908 53.8912 17.5482 52.4192 15.7085C51.0327 13.97 49.4291 12.415 47.6477 11.0855C46.7808 10.4318 45.8746 9.84302 44.9318 9.30702C44.488 9.04814 44.0346 8.80114 43.5638 8.57326C43.3603 8.47626 42.656 8.29201 42.5475 8.11339C42.5536 8.19689 42.9638 8.40489 43.0137 8.45926C42.7417 8.38626 42.0105 8.07714 41.9973 8.03139C42.0175 7.99651 42.0693 8.03139 42.0632 7.97439C41.6497 7.71039 40.1135 7.14114 39.8033 7.56351C39.8654 7.47676 40.8686 8.63039 40.8901 8.83777C40.9582 9.28677 41.6556 9.76414 42.1102 9.90502C42.724 10.1155 42.2618 9.83652 42.5176 9.69189C42.6911 9.60902 42.8536 9.97889 43.0072 9.89089C43.0027 9.88802 43.0072 9.88389 43.013 9.88102C42.974 9.79302 42.918 9.71114 42.8715 9.62402C42.8216 9.62402 43.9982 10.8349 44.1463 10.5709C44.0116 10.2435 43.8017 9.87202 43.4583 9.56352C43.1722 9.28677 42.7012 9.26114 42.3851 8.98402C42.2276 8.84389 41.629 8.40801 41.5598 8.20676C42.3528 8.23426 43.2648 9.89802 44.0507 9.25314C43.9413 9.18014 43.8347 9.09827 43.734 9.00839C43.8755 9.05227 44.5423 9.26314 44.3198 9.53927C43.6872 9.42914 44.8427 10.0701 44.8696 10.1431C44.7543 10.1341 44.6743 10.043 44.5675 10.033C44.6097 10.2535 45.2296 10.4769 45.2811 10.8509C44.9045 10.9091 45.068 10.6259 44.8167 10.929C44.7451 11.0228 44.4052 10.9959 44.2282 11.0094C43.7956 11.0443 43.3121 10.3115 42.9958 10.0871C43.1271 10.4926 43.3501 10.6904 43.8115 10.9809C44.0336 11.105 43.5027 11.1604 43.5097 11.3479C43.5218 11.3479 43.6502 11.4096 43.6463 11.4429C43.6463 11.4688 43.527 11.3619 43.5097 11.3479C43.5507 11.3159 43.4297 12.0638 43.4195 12.0529C43.7737 12.4664 42.9538 12.3448 42.928 12.3608C42.9961 12.4545 43.1261 12.4996 43.1513 12.6375C42.9136 12.6496 42.7152 12.6183 42.4841 12.7009C42.8213 12.802 44.6968 13.6693 44.2847 14.3208C44.16 14.5333 42.8905 14.2693 42.6591 14.2584C42.1631 14.2252 42.6185 14.7285 42.6355 14.7868C42.7078 15.1599 43 15.3222 42.9798 15.7593C42.9562 16.0672 43.273 16.076 43.3597 16.334C43.4483 16.559 43.4026 16.583 43.6356 16.6124C44.0528 16.6659 44.0628 16.6019 44.4126 16.8748C44.667 17.0723 44.7671 16.6978 45.0631 16.6844C45.81 16.654 45.1767 16.5014 45.53 16.4009C45.9655 16.278 45.4081 15.5882 45.4305 15.4537C45.4596 15.2742 45.4061 15.0713 45.6436 15.0032C46.0257 14.9053 45.5447 14.5155 45.5188 14.4102C45.4413 14.1014 46.5613 14.669 46.4181 13.8908C47.0673 14.0933 47.7237 14.6662 48.3086 15.0012C48.6647 15.2102 49.0065 15.4067 49.26 15.74C49.5643 16.133 48.8257 15.9692 48.7835 16.083C48.732 16.21 49.4327 16.5249 49.5425 16.514C49.5595 16.4482 49.4557 16.0472 49.4477 15.9762C49.4161 15.7003 49.0125 15.4283 49.0385 15.2053C49.1642 15.2174 49.276 15.2683 49.3876 15.3442C49.0106 14.8872 48.4001 14.8424 47.9748 14.4984C47.724 14.2885 47.3988 14.1195 47.1412 13.9035C47.1412 13.9017 46.6922 13.3246 47.0077 13.4367C47.5078 13.6059 48.051 14.1128 48.5626 14.3784C48.9651 14.5915 49.0557 14.7192 49.3562 15.0683C49.4727 15.2053 50.097 15.9247 50.242 15.9512C50.2333 15.9442 50.7402 16.401 50.9464 16.473C50.8549 16.2632 50.7825 16 50.674 15.8292C50.5277 15.6035 49.9533 15.4778 49.9533 15.1354C50.0803 15.1495 50.097 15.0099 50.3812 15.0195C50.2331 15.0134 50.5662 14.7994 50.5406 14.8304C49.9978 14.5217 49.2676 13.6185 49.0795 13.0048C49.226 13.0109 49.3076 13.2099 49.466 13.1078C49.4163 13.0048 49.4055 12.8969 49.4163 12.7816C49.456 12.8315 49.9718 13.2687 49.8662 13.3577C49.7255 13.3558 49.6083 13.2898 49.5027 13.1788C49.5702 13.4377 49.8342 13.4418 49.9382 13.6217C49.9481 13.5478 49.8941 13.4885 49.9606 13.4127C50.4051 13.5985 51.3231 14.3125 51.4402 14.8104C51.2457 14.8322 50.8741 14.4165 50.7337 14.5192C50.696 14.6213 50.6988 14.7167 50.752 14.8142C50.697 14.816 50.6396 14.832 50.5945 14.8597C50.671 14.9173 50.7048 14.9938 50.7148 15.0812C50.639 15.1068 50.5753 15.1263 50.4931 15.149C50.5606 15.3983 51.8812 16.6627 51.9735 16.5343C52.0014 16.4892 51.9255 16.3589 51.945 16.3417C52.0077 16.2627 52.2154 16.6297 52.3257 16.5542C52.415 16.5004 52.2447 16.3837 52.3446 16.3347C52.537 16.2317 53.335 17.7913 53.4322 17.9724C53.8092 18.6943 53.559 18.2524 53.2655 18.3523C53.228 18.4313 53.198 18.5033 53.1916 18.5933C52.7257 18.4864 52.2152 18.2173 51.8451 17.9494C51.2419 17.5135 52.0381 19.126 51.6867 18.9232C51.4842 18.8067 51.3626 18.638 51.1168 18.6144C50.7443 18.5763 50.6403 18.1888 50.3082 18.0765C50.041 17.9847 48.9537 17.8835 49.099 17.3908C49.2116 16.9658 48.6727 16.616 48.4862 16.4548C48.3918 16.3735 47.1966 16.528 46.9992 16.5869C46.6712 16.6928 46.149 16.8007 45.9615 17.1092C45.6425 17.6855 44.9106 16.9252 44.6136 17.0427C44.4641 17.1092 44.6103 17.5815 44.5361 17.729C44.41 17.9585 44.1236 17.9725 44.0477 18.2385C43.9213 18.7253 44.2858 19.1333 44.1236 19.5832C43.9802 19.939 43.2948 20.0935 43.2848 20.3893C43.2787 20.5474 43.243 20.7202 43.1005 20.8063C42.7866 20.9864 43.1081 21.4002 42.9123 21.6063C41.8471 22.684 43.2506 23.7448 43.0138 24.9347C42.8772 25.6086 42.7995 25.7431 43.0893 26.3234C43.1521 26.4691 43.1053 27.5164 43.633 27.0924C43.704 27.7023 44.4838 27.8294 44.6182 28.4077C44.7907 29.0932 45.4601 29.3921 45.985 29.8052C46.1946 29.9671 46.3782 30.1799 46.6153 30.3016C47.0457 30.5268 47.3366 30.1828 47.7472 30.0699C48.1236 29.9641 48.5068 30.0031 48.8547 30.1678C49.056 30.2628 50.561 29.2039 50.9594 29.4021C51.2595 29.5522 51.2724 29.9124 51.416 30.1729C51.6147 30.5409 52.0205 30.0599 52.2982 30.1809C52.7949 30.4021 52.9341 32.1986 52.5197 32.5339C52.2077 32.7621 52.922 33.7442 53.0192 33.9416C53.3037 34.4983 53.5527 35.4655 53.4654 36.0831C53.3915 36.5791 53.5349 37.3711 53.2469 37.8127C52.9589 38.2527 52.8001 38.7206 52.5726 39.2185C51.9742 40.5023 52.5412 41.95 52.0385 43.2815C51.7297 43.9621 51.7815 44.6891 51.6184 45.3982C51.5109 45.861 50.947 46.5252 51.1658 47.0017C51.5041 46.7 51.9968 46.74 52.3755 46.5499C53.1474 46.1687 53.5199 45.2768 54.0789 44.6823C54.3806 44.3681 54.5691 43.9703 54.741 43.5828C54.9116 43.2136 55.253 42.9752 55.4177 42.6181C55.8036 41.7032 56.1679 40.7925 56.555 39.8808C57.3841 37.9128 57.5252 36.0226 57.8085 33.9122C58.1159 31.6697 58.1222 29.5512 57.7011 27.3214ZM55.7382 22.1327C55.631 21.8687 54.2332 19.8262 54.3967 19.7157C54.5871 19.5982 57.5602 24.8687 57.2409 25.6831C56.7849 24.4796 56.2361 23.3132 55.7382 22.1327C55.7321 22.1205 55.8402 22.3714 55.7382 22.1327ZM57.0105 31.4502C56.9512 31.3078 57.0306 31.1798 57.07 31.0089C57.1319 31.1887 57.0339 31.3148 57.0105 31.4502ZM56.8499 32.2796C56.8447 32.1922 56.8437 32.1206 56.9014 32.0572C56.9424 32.1417 56.9056 32.2031 56.8499 32.2796ZM56.3606 39.0435C56.3062 39.0601 56.2454 39.0831 56.1981 39.0998C56.1027 39.0998 56.3766 38.9718 56.3907 38.9591C56.3756 39.0041 56.3756 39.0248 56.3606 39.0435C56.318 39.1003 56.3756 39.0248 56.3606 39.0435ZM56.4307 36.2972C56.4266 36.0453 56.4391 36.0342 56.6966 35.8742C56.6387 36.0486 56.4597 36.1321 56.4307 36.2972ZM56.7145 35.0184C56.7112 34.5589 56.7004 34.0217 56.799 33.5721C56.8172 34.3528 56.8499 35.1385 56.8291 35.919C56.7056 35.7561 56.7145 35.2172 56.7145 35.0184C56.7145 34.8523 56.7145 35.1795 56.7145 35.0184ZM57.1267 36.4773C57.1191 36.8968 57.0557 38.0402 56.785 38.3637C56.8096 37.6587 57.0669 37.0156 57.0769 36.3125C57.1395 36.3823 57.1267 36.4348 57.1267 36.4773C57.1267 36.527 57.1267 36.4348 57.1267 36.4773ZM57.4515 32.2137C57.3319 32.7103 57.4492 32.8672 57.1494 33.1452C57.1494 32.7702 57.015 32.0627 57.3919 31.8428C57.4467 31.9614 57.4854 32.0626 57.4515 32.2137C57.3949 32.4123 57.4854 32.0626 57.4515 32.2137ZM41.0531 56.4786C41.0906 56.5547 37.7612 57.4879 37.4201 57.565C36.0402 57.8526 34.6393 58.037 33.2227 58.1051C30.5402 58.2337 27.7302 57.9912 25.1535 57.2081C25.4867 57.2459 25.8844 57.4157 26.2223 57.3611C25.9004 57.1621 25.5045 57.2302 25.2184 56.981C26.2984 57.1545 27.3241 57.0712 28.3083 57.2017C28.2066 57.0632 27.3026 56.8469 27.3089 56.7515C27.4427 56.7419 28.1284 56.7224 28.1637 56.6974C28.4876 56.4494 27.6456 56.4789 27.7106 56.2957C27.7451 56.2484 27.9739 56.3255 28.0549 56.218C28.1836 56.0484 28.0549 55.9581 28.0994 55.8736C28.1359 55.7955 29.4438 55.5712 29.5788 55.6304C29.4229 55.7235 29.2483 55.6154 29.3101 55.8697C29.1804 55.8521 28.7757 55.8624 28.7517 56.0394C28.7616 55.9955 29.1921 56.5971 29.2067 56.6262C29.3622 56.8599 29.8886 57.0041 29.9242 57.2851C30.0141 57.7571 32.4932 57.7153 32.8569 57.6716C33.7843 57.566 34.6467 57.2332 35.5626 57.08C36.1014 56.9815 36.6413 56.8314 37.1882 56.7756C37.4391 56.7481 38.2887 56.4531 38.4871 56.5212C38.6188 56.96 40.5871 56.3846 41.0531 56.4786C41.0562 56.4854 40.9756 56.4652 41.0531 56.4786ZM56.0979 42.054C56.2037 41.7871 56.2911 41.5112 56.4226 41.2488C56.3347 41.5298 56.2191 41.7891 56.0979 42.054ZM56.5311 40.974C56.541 40.9413 56.5547 40.903 56.574 40.878C56.5762 40.9122 56.544 40.9426 56.5311 40.974ZM27.9599 6.76564C27.8112 6.74264 27.6672 6.76051 27.5142 6.73551C27.5946 6.66864 28.0309 6.65451 27.8467 6.52914C28.4422 6.15863 29.7039 6.08663 30.4003 6.17163C31.1744 6.26288 31.9488 6.02476 32.7228 6.14413C33.0332 6.19463 33.2992 6.20176 33.6063 6.22288C33.8799 6.25301 33.5731 6.52939 33.8799 6.57589C34.0543 6.60151 34.4207 7.00689 34.5814 6.92276C34.5751 7.20376 34.4477 7.00564 34.5392 7.27151C34.5593 7.33651 34.8774 7.51439 34.8672 7.53651C34.8371 7.57839 33.9744 7.51826 34.0093 7.52664C33.9367 7.51864 34.0221 7.66364 34.0838 7.64051C34.2496 7.68564 34.6288 7.62839 34.8198 7.64239C34.3743 8.04051 33.7219 7.99089 33.2393 8.31026C32.9414 8.50839 32.4941 8.48727 32.1616 8.60877C32.1616 8.94189 31.9132 9.34827 31.6912 9.69202C31.5302 9.92914 30.4278 9.37777 30.3177 9.23927C30.0777 8.94714 29.5224 8.19164 30.1206 7.95164C30.8469 7.66714 30.1273 7.89851 29.9113 7.74489C30.0877 7.50301 30.2806 7.58389 30.5507 7.62451C30.4122 7.42739 30.2326 7.37901 30.0243 7.47989C29.9609 7.27189 30.3287 7.08689 30.0032 6.86514C29.8659 6.76814 29.0944 6.88214 29.0736 6.74414C29.0317 6.41326 30.0048 6.59314 30.1808 6.31626C29.4504 6.16051 28.6639 6.87539 27.9599 6.76564C27.8111 6.74251 28.0851 6.78414 27.9599 6.76564ZM41.7107 11.7486C41.8295 11.7351 41.5548 11.3618 41.4947 11.2836C41.5772 11.2958 41.641 11.3015 41.7245 11.2535C41.6592 11.0855 40.8957 10.6408 40.8508 10.6736C40.5616 10.8538 40.1948 10.0496 40.1612 9.94089C40.655 9.87527 40.9608 10.4024 41.4045 10.6186C41.7878 10.7988 43.1466 11.4525 43.1875 11.8609C43.2172 12.0644 42.1551 11.9834 41.9977 12.2234C41.8742 11.9216 42.2627 11.9284 42.2556 11.8346C42.2425 11.7579 41.7625 11.7425 41.7107 11.7486C41.6841 11.7515 41.871 11.7265 41.7107 11.7486ZM27.7878 12.1314C27.7113 12.1829 26.7894 13.0613 26.8151 13.1458C26.8336 13.2223 27.7744 13.1653 27.9303 13.2607C27.9204 13.3682 27.7966 13.3132 27.7773 13.4063C27.8992 13.4063 28.2832 13.1653 28.3383 13.235C28.3453 13.2933 28.3383 13.3569 28.3088 13.412C28.7273 13.8188 28.6793 12.932 28.7117 12.8859C28.4163 12.842 28.7671 12.4311 28.2803 12.604C28.3088 12.5909 27.7488 12.436 27.7744 12.4709C27.7239 12.428 28.1744 12.0399 28.2093 11.989C27.9411 11.9214 27.9091 12.0405 27.7878 12.1314C27.6336 12.2494 27.8198 12.1054 27.7878 12.1314ZM28.7019 13.1017C28.7368 13.1314 28.6351 13.1314 28.7019 13.1017C28.7116 13.107 28.6914 13.1054 28.7019 13.1017ZM28.4931 13.0783C28.5206 13.0481 28.6701 12.9858 28.5721 13.0713C28.5427 13.1291 28.4102 13.1733 28.4931 13.0783C28.5019 13.0641 28.4779 13.1016 28.4931 13.0783ZM27.8313 12.0133L27.8467 12.0098C27.8467 12.0133 27.8467 12.0143 27.8512 12.0188C27.8467 12.0145 27.8467 12.0145 27.8313 12.0133ZM27.0044 12.8498C27.0309 12.8498 27.0461 12.8498 27.0666 12.8686C27.0438 12.8686 26.9423 12.8645 27.0044 12.8498C27.0309 12.8498 26.9871 12.8533 27.0044 12.8498ZM17.9349 23.748C17.6824 23.7759 18.1023 23.5532 18.067 23.467C17.8927 23.0722 16.7083 22.9842 16.5992 22.6667C16.6504 22.6482 16.6888 22.6113 16.7032 22.5598C16.2942 22.3963 16.0862 22.8882 15.7253 22.8605C16.4837 21.5664 18.3743 23.0435 19.1327 23.639C18.7349 23.6892 18.3355 23.6923 17.9349 23.748C17.9052 23.7503 18.1577 23.7189 17.9349 23.748ZM18.924 24.4361C18.7349 24.3536 19.5499 24.3622 19.6607 24.3179C19.4945 24.0674 19.6469 23.9339 19.3308 23.835C19.6163 23.491 20.566 23.8952 20.8655 24.0289C20.8397 24.0699 20.7859 24.0334 20.7545 24.0868C20.7804 24.1051 21.4064 24.6238 20.9855 24.4509C20.5205 24.2538 20.269 24.5277 19.9388 24.7117C19.6838 24.3462 19.2648 24.5971 18.924 24.4361C18.8828 24.4191 19.0018 24.4742 18.924 24.4361ZM41.048 11.2196C41.4905 11.6814 40.8018 12.0375 40.4861 11.7396C40.3386 11.5815 40.4311 11.2098 40.0711 11.1019C40.1658 11.0709 40.2612 11.0434 40.3578 11.0094C40.1177 10.4399 40.9296 11.1016 41.048 11.2196C41.1391 11.3246 41.0096 11.1823 41.048 11.2196ZM35.2627 8.42639C35.2377 8.33839 35.9011 8.37514 36.0124 8.35726C36.1923 8.32426 37.5119 8.45939 37.0489 8.67214C36.6838 8.83314 36.1548 9.01614 35.8157 8.70802C35.7253 8.63027 35.2658 8.44851 35.2627 8.42639C35.2476 8.36426 35.2847 8.51852 35.2627 8.42639ZM47.3548 14.996C47.5142 14.996 47.8845 15.588 47.8268 15.6859C47.6486 15.9649 47.3501 15.2574 47.1635 15.147C47.2326 15.1029 47.3017 15.0523 47.3548 14.996ZM26.6834 6.94539C27.1366 6.60751 27.2383 6.79851 27.7993 6.86026C27.6166 7.02126 27.1878 7.05426 26.6834 6.94539C26.8067 6.85139 27.1878 7.05426 26.6834 6.94539ZM36.6566 6.55951C36.3257 6.46639 35.9663 6.45101 35.6441 6.32051C36.0367 6.28301 36.5109 6.42638 36.7749 6.50551C36.8664 6.53301 36.6364 6.55251 36.6566 6.55951C36.3257 6.46639 36.6859 6.56651 36.6566 6.55951ZM35.6441 6.32051C35.6121 6.33138 35.5788 6.33363 35.5368 6.33688C35.5788 6.29876 35.6121 6.29651 35.6441 6.32051C35.6121 6.33163 35.6307 6.31663 35.6441 6.32051ZM18.0379 24.4601C18.114 24.4652 18.1518 24.5062 18.1678 24.5727C18.1204 24.7637 17.5335 24.4902 17.4699 24.4114C17.6728 24.2945 17.861 24.3622 18.0379 24.4601ZM22.2482 24.4479C21.9394 25.2069 21.1507 23.9167 22.2482 24.4479C22.1999 24.5561 22.0668 24.3534 22.2482 24.4479ZM23.46 28.1429C23.4705 28.1173 23.4902 28.1091 23.5185 28.1074C23.499 28.1173 23.4879 28.1243 23.46 28.1429ZM23.5675 28.1173C23.555 28.1132 23.653 27.8053 23.8559 27.7922C24.0863 27.9391 23.6834 28.1298 23.5675 28.1173C23.5544 28.1132 23.8248 28.1526 23.5675 28.1173ZM26.0424 6.78414C25.8319 6.92564 25.5839 6.83251 25.3657 6.91564C25.6697 6.70739 25.8024 6.72239 26.0424 6.78414C25.8322 6.92564 26.0044 6.77389 26.0424 6.78414ZM18.187 22.1035C18.1083 21.7905 17.988 21.7868 18.1969 21.5138C18.2789 21.8094 18.2789 21.9817 18.187 22.1035C18.1577 21.9797 18.2789 21.9817 18.187 22.1035ZM12.5246 32.9097C12.5201 33.0236 12.4693 33.0697 12.3601 33.0268C12.3226 32.9987 12.3016 32.6149 12.3685 32.5378C12.4226 32.6611 12.477 32.7801 12.5246 32.9097C12.547 32.9631 12.477 32.7801 12.5246 32.9097ZM25.6188 12.4744C25.8662 12.4693 26.0617 12.5413 26.2742 12.7009C25.9893 12.7556 25.8024 12.6465 25.6188 12.4744ZM47.255 14.8888L47.2601 14.8917C47.1955 14.867 46.7702 14.6078 46.9366 14.4718C47.0681 14.381 47.2393 14.8469 47.255 14.8888ZM51.6457 17.0683C51.5616 16.9819 51.3891 17.0388 51.344 16.8679C51.4909 16.9504 51.6563 16.9085 51.7926 17.0205C51.7497 17.0619 51.6889 17.1144 51.6457 17.0683C51.5616 16.9819 51.6889 17.1144 51.6457 17.0683ZM26.4114 6.92939C26.3686 6.86926 26.2984 6.91176 26.2518 6.85126C26.3722 6.72139 26.5357 6.76514 26.6832 6.72514C26.6764 6.74251 26.5048 7.06189 26.4114 6.92939C26.3686 6.86964 26.4326 6.97326 26.4114 6.92939ZM25.6779 7.09039C25.4865 7.23826 25.2855 7.37839 25.0197 7.35626C25.1983 7.16501 25.4447 7.14101 25.6779 7.09039ZM25.6118 13.5577C25.6649 13.5727 25.7197 13.5542 25.8028 13.5472C25.5493 13.861 25.2479 13.4243 25.3123 13.407C25.2652 13.4182 25.5915 13.5542 25.6118 13.5577C25.6645 13.5727 25.5097 13.5423 25.6118 13.5577ZM25.7195 7.21551C25.899 7.07401 26.109 7.04651 26.3294 7.06189C26.1411 7.17839 25.9455 7.23851 25.7195 7.21551ZM46.1625 15.6188C45.959 15.5913 46.5522 15.4009 46.3407 15.6795C46.2748 15.6697 46.2182 15.653 46.1625 15.6188C46.1356 15.6149 46.2322 15.6287 46.1625 15.6188ZM52.6927 17.1125C52.5711 17.052 52.5186 16.9685 52.5561 16.8227C52.6511 16.8997 52.7027 16.9797 52.6927 17.1125ZM26.1673 8.16364C26.2409 8.03401 26.3222 7.99951 26.5794 8.00114C26.4524 8.14764 26.3138 8.16914 26.1673 8.16364ZM24.2828 9.04114C24.1327 9.12014 24.0198 9.18289 23.8627 9.16952C23.973 9.04114 24.1029 9.04652 24.2828 9.04114ZM39.9602 10.1189C39.9317 10.1759 39.9573 10.2136 40.0053 10.2568C39.9545 10.2328 39.7711 10.0046 39.9161 9.97389C39.9753 9.99889 39.9993 10.0488 39.9602 10.1189C39.9318 10.1759 39.9801 10.0869 39.9602 10.1189ZM16.3333 22.9179C16.324 23.0053 16.2795 23.0494 16.1995 23.0475C16.156 22.973 16.2895 22.7573 16.3333 22.9179C16.3458 22.9704 16.3224 22.8828 16.3333 22.9179ZM25.1308 50.0492C25.1983 50.0774 25.2358 50.1292 25.2457 50.2025C25.2457 50.4332 24.8338 50.0809 25.1308 50.0492C25.1698 50.0444 25.0635 50.0585 25.1308 50.0492ZM24.5359 9.17452C24.4873 9.25102 24.4178 9.29102 24.3084 9.32489C24.365 9.20402 24.4428 9.18452 24.5359 9.17452ZM12.7183 32.8683C12.6965 33.1304 12.6411 32.6149 12.7183 32.8683C12.7166 32.9042 12.707 32.8428 12.7183 32.8683ZM26.2789 9.61389C26.2894 9.60877 26.3036 9.61739 26.3122 9.62002C26.2789 9.63702 26.2223 9.63702 26.2789 9.61389ZM25.1115 7.11889C25.0837 7.12851 25.0492 7.12939 25.0252 7.13239C25.0473 7.11051 25.0799 7.10826 25.1115 7.11889ZM25.0098 7.13901C24.9874 7.13901 25.0197 7.13264 25.0252 7.13264C25.0198 7.13426 25.011 7.13426 25.0098 7.13901ZM24.8853 7.17326L24.8792 7.17839C24.8767 7.17326 24.8793 7.17326 24.8853 7.17326ZM24.8853 7.17326C24.9157 7.13226 24.9579 7.14064 25.0037 7.13876C24.9708 7.18351 24.9308 7.18926 24.8853 7.17326ZM25.715 7.21551H25.7195C25.717 7.21651 25.715 7.22001 25.715 7.21551ZM25.715 7.21651C25.7077 7.26551 25.6695 7.26064 25.6347 7.26064C25.6518 7.21651 25.6779 7.21426 25.715 7.21651ZM16.0994 33.9858C16.043 33.9423 16.1375 34.0213 16.0994 33.9858C16.076 33.9704 16.1295 34.0123 16.0994 33.9858ZM44.0473 9.26702C44.2022 9.31252 44.0533 9.30414 44.0473 9.26702C44.0473 9.26702 44.0515 9.29839 44.0473 9.26702ZM40.0063 10.26C40.0053 10.26 40.0053 10.2571 40.0053 10.2571C40.0195 10.26 40.0246 10.269 40.0195 10.292C40.0185 10.2789 40.0143 10.2686 40.0063 10.26C40.0053 10.26 40.0143 10.2686 40.0063 10.26ZM25.6264 7.26026C25.6325 7.26026 25.6325 7.26026 25.6344 7.26026C25.6344 7.26314 25.6325 7.26314 25.6264 7.26214C25.6264 7.26226 25.6264 7.26226 25.6264 7.26026ZM25.5798 7.26901C25.5919 7.26351 25.6118 7.26351 25.6268 7.26226C25.6075 7.29651 25.5855 7.30026 25.5798 7.26901C25.5915 7.26351 25.5827 7.27339 25.5798 7.26901ZM49.3881 15.3439L49.392 15.3472L49.3881 15.3439ZM28.6441 32.1942C28.5606 32.1276 28.7048 32.1442 28.6441 32.1942C28.6351 32.1887 28.6639 32.1756 28.6441 32.1942ZM41.0691 56.4704C41.0623 56.4771 41.0601 56.4771 41.0531 56.4771C41.0563 56.4652 41.0598 56.4556 41.0691 56.4611C41.0691 56.4611 41.0691 56.4691 41.0691 56.4704ZM41.0531 56.4786C41.0531 56.477 41.048 56.477 41.0531 56.477V56.4786ZM20.1765 13.6962C20.1878 13.691 20.4309 13.6623 20.3455 13.7592C20.2508 13.8072 20.197 13.7858 20.1765 13.6962C20.2028 13.691 20.1782 13.747 20.1765 13.6962ZM18.6498 11.5716C18.5829 11.5246 18.5967 11.4766 18.6978 11.4266C18.7775 11.4596 18.764 11.5086 18.6498 11.5716C18.6155 11.5675 18.7039 11.5544 18.6498 11.5716Z" fill="url(#paint0_linear)"/>
<path d="M32.0008 59.4121C16.8888 59.4121 4.5946 47.118 4.5946 32.0057C4.5946 16.8918 16.8888 4.59601 32.0008 4.59601C47.1134 4.59601 59.4078 16.8917 59.4078 32.0057C59.408 47.118 47.1132 59.4121 32.0008 59.4121ZM32.0008 7.15539C18.3 7.15539 7.15398 18.3033 7.15398 32.0057C7.15398 45.7062 18.2999 56.8525 32.0008 56.8525C45.7017 56.8525 56.8482 45.7062 56.8482 32.0057C56.8482 18.3032 45.7017 7.15539 32.0008 7.15539Z" fill="#C8D6F0"/>
<path opacity="0.3" d="M5.95674 18.2578C5.3482 18.6181 4.56151 18.4172 4.21343 17.8016C4.19236 17.7644 4.17137 17.7271 4.15044 17.69C3.80386 17.0741 4.0404 16.2984 4.66383 15.9656C5.2875 15.6326 6.05459 15.8555 6.40182 16.4714C6.74889 17.0869 6.56481 17.8979 5.95674 18.2578ZM3.49378 13.6087C2.85237 13.906 2.08296 13.6305 1.80682 12.9797C1.78448 12.9271 1.76234 12.8746 1.7404 12.8222C1.46734 12.1702 1.8116 11.4299 2.47396 11.183C3.12954 10.9386 3.84889 11.2337 4.12014 11.8787C4.39135 12.5235 4.12844 13.3145 3.49378 13.6087ZM1.6813 8.67471C0.994957 8.84277 0.295287 8.42342 0.180192 7.72624C0.161535 7.61322 0.144404 7.5013 0.128807 7.39052C0.0302839 6.69074 0.588204 6.09843 1.29453 6.076L1.39155 6.07292C2.04443 6.05218 2.58121 6.49311 2.67818 7.13907C2.77514 7.78493 2.4099 8.49629 1.77554 8.65163L1.6813 8.67471Z" fill="#C8D6F0"/>
<path d="M57.9287 62.718C57.9064 63.4241 57.3145 63.9821 56.6148 63.8838C56.5036 63.8682 56.3911 63.851 56.2776 63.8322C55.5804 63.7172 55.1613 63.0173 55.3296 62.331L55.3528 62.2365C55.5084 61.6022 56.2202 61.2373 56.8661 61.3343C57.5119 61.4313 57.9525 61.9677 57.9318 62.6204L57.9287 62.718ZM52.8212 61.5367C52.5742 62.1991 51.8335 62.5435 51.1815 62.2702C51.1286 62.248 51.0756 62.2256 51.0224 62.203C50.3721 61.9266 50.0979 61.1572 50.3954 60.5163C50.69 59.8818 51.4819 59.6193 52.1266 59.8908C52.7713 60.1622 53.0657 60.8813 52.8212 61.5367ZM48.0387 59.3438C47.7058 59.9674 46.9296 60.2039 46.3137 59.8569C46.276 59.8357 46.2383 59.8144 46.2006 59.7931C45.5855 59.4448 45.3855 58.6585 45.7458 58.0505C46.1061 57.4424 46.9201 57.2603 47.5357 57.6074C48.1515 57.9547 48.3716 58.7201 48.0387 59.3438Z" fill="#C8D6F0"/>
<path d="M61.038 63.4509L59.9791 61.1206C60.2441 61.0003 60.4649 60.8503 60.6534 60.6611L62.463 62.4708C62.0599 62.8749 61.5801 63.2051 61.038 63.4509Z" fill="#C8D6F0"/>
<path d="M43.1479 9.11213L41.73 6.98088C47.6004 3.07649 58.099 -2.82264 62.4634 1.54149L60.6538 3.35112C59.0236 1.72137 53.4611 2.25224 43.1479 9.11213Z" fill="#C8D6F0"/>
<path d="M1.53939 62.471C-2.82287 58.1087 3.07501 47.6053 6.97902 41.7331L9.11053 43.1497C2.25126 53.4678 1.71976 59.0316 3.34926 60.6613L1.53939 62.471Z" fill="#C8D6F0"/>
<path d="M61.1145 4.027C60.9941 3.762 60.8441 3.54088 60.6556 3.35275L62.4649 1.54312C62.8696 1.94762 63.199 2.427 63.445 2.96937L61.1145 4.027Z" fill="#C8D6F0"/>
<path d="M7.25678 63.9003C6.55619 63.992 5.97153 63.4262 5.95827 62.7198L5.95541 62.5674C5.94373 61.9448 6.37093 61.4387 6.98783 61.3543C7.60509 61.2699 8.27892 61.6268 8.41938 62.2338L8.45367 62.382C8.61295 63.0703 8.18496 63.7649 7.4861 63.8684C7.40912 63.8798 7.33268 63.8904 7.25678 63.9003ZM12.4976 62.4022C11.8431 62.6686 11.1093 62.3218 10.8701 61.6569L10.8473 61.5937C10.6206 60.9636 10.913 60.2839 11.5332 60.0312C12.153 59.7786 12.9041 60.0329 13.1791 60.643L13.2069 60.7046C13.4975 61.3494 13.2112 62.1103 12.5566 62.3781C12.5369 62.3862 12.5173 62.3942 12.4976 62.4022ZM17.1827 60.1378C16.5634 60.4785 15.8018 60.2275 15.4755 59.6005L15.4544 59.56C15.1398 58.9554 15.3541 58.2226 15.9512 57.8939C16.5479 57.5654 17.3227 57.7536 17.6638 58.3433L17.687 58.3834C18.041 58.9953 17.802 59.797 17.1827 60.1378ZM21.597 57.4786C21.0047 57.8641 20.2245 57.677 19.8483 57.0788L19.8283 57.047C19.4629 56.4661 19.6269 55.707 20.2019 55.3326C20.7769 54.9581 21.5596 55.1008 21.9425 55.6702L21.9634 55.7013C22.358 56.288 22.1896 57.0929 21.597 57.4786ZM25.8075 54.5641C25.2377 54.9811 24.4484 54.8397 24.0385 54.2648L24.0191 54.2375C23.6191 53.6765 23.7405 52.905 24.2964 52.498C24.8521 52.0912 25.6426 52.1952 26.0558 52.7461L26.0767 52.774C26.5002 53.3386 26.377 54.1473 25.8075 54.5641ZM29.8599 51.4531C29.3106 51.8941 28.5155 51.7919 28.0802 51.2381L28.0585 51.2105C27.6323 50.6683 27.7199 49.8891 28.2575 49.4571C28.7951 49.0252 29.5881 49.0968 30.0254 49.6299L30.0485 49.658C30.4951 50.2024 30.409 51.0122 29.8599 51.4531ZM33.7722 48.1807C33.2414 48.6423 32.4425 48.5736 31.9857 48.0385L31.9629 48.0119C31.5145 47.4866 31.5716 46.7024 32.0927 46.2491C32.6137 45.7958 33.4091 45.8385 33.8669 46.3555L33.8904 46.382C34.3569 46.9087 34.3031 47.719 33.7722 48.1807ZM37.5559 44.7683C37.0418 45.2484 36.24 45.2095 35.7644 44.6913L35.7406 44.6654C35.2736 44.1565 35.3036 43.3697 35.8084 42.8982C36.3134 42.4264 37.1092 42.442 37.5853 42.9428L37.6096 42.9684C38.094 43.478 38.0698 44.2883 37.5559 44.7683ZM41.2195 41.2261C40.7233 41.7222 39.9187 41.7156 39.4264 41.2156L39.4004 41.1892C38.9153 40.6964 38.9219 39.9045 39.4108 39.4156C39.8994 38.927 40.6919 38.9198 41.1846 39.4043L41.2081 39.4275C41.71 39.9211 41.7177 40.7287 41.2195 41.2261ZM44.7636 37.5608C44.2835 38.0746 43.4733 38.0986 42.9637 37.6139L42.9382 37.5896C42.4375 37.1134 42.4221 36.3177 42.8937 35.8127C43.3653 35.3079 44.1522 35.2779 44.661 35.7451L44.6873 35.7692C45.2054 36.245 45.2438 37.0469 44.7636 37.5608ZM48.1768 33.7766C47.715 34.3074 46.9048 34.3613 46.378 33.895L46.3516 33.8717C45.8345 33.4139 45.7915 32.6186 46.2446 32.0974C46.6977 31.5762 47.4818 31.5187 48.0073 31.9669L48.0346 31.9902C48.5699 32.4468 48.6386 33.2458 48.1768 33.7766ZM51.4491 29.8641C51.008 30.4135 50.1978 30.4994 49.6531 30.0525L49.6257 30.03C49.0925 29.5926 49.0211 28.7992 49.4529 28.2615C49.8849 27.7237 50.664 27.6364 51.2064 28.0626L51.234 28.0844C51.7879 28.5197 51.8903 29.3148 51.4491 29.8641ZM54.5606 25.8115C54.1437 26.3812 53.3345 26.5049 52.77 26.0811L52.7423 26.0603C52.1919 25.647 52.0885 24.8566 52.4948 24.301C52.901 23.7456 53.6714 23.624 54.2318 24.0233L54.2609 24.044C54.8357 24.4535 54.9774 25.242 54.5606 25.8115ZM57.4769 21.596C57.0915 22.1882 56.2835 22.3622 55.6969 21.9684L55.6663 21.9478C55.0964 21.5652 54.957 20.7761 55.3314 20.2007C55.7058 19.6254 56.4612 19.4676 57.0422 19.833L57.0734 19.8526C57.6717 20.2288 57.8625 21.0036 57.4769 21.596ZM60.13 17.1923C59.789 17.8116 58.9897 18.0457 58.378 17.6914L58.338 17.6682C57.7487 17.3268 57.5583 16.5567 57.8868 15.96C58.2154 15.3632 58.9505 15.1443 59.5549 15.459L59.5957 15.4803C60.2227 15.8067 60.4711 16.5731 60.13 17.1923ZM62.3729 12.5615C62.1053 13.2155 61.345 13.5014 60.7006 13.2112L60.6388 13.1834C60.0283 12.9085 59.7737 12.1571 60.0265 11.5371C60.2793 10.9169 60.9591 10.6244 61.5892 10.8513L61.6522 10.874C62.317 11.1134 62.6637 11.8472 62.3973 12.5016C62.3892 12.5215 62.3811 12.5415 62.3729 12.5615ZM63.8629 7.48997C63.7594 8.18924 63.0643 8.6176 62.3757 8.45801L62.2271 8.42356C61.6207 8.28304 61.2642 7.60971 61.3485 6.99306C61.4327 6.37623 61.9386 5.9489 62.561 5.96033L62.714 5.96314C63.4207 5.97612 63.9866 6.56102 63.8948 7.26185C63.8849 7.33735 63.8743 7.41339 63.8629 7.48997Z" fill="#C8D6F0"/>
<path d="M2.96342 63.4509C2.42105 63.2048 1.94167 62.8749 1.53717 62.4708L3.3468 60.6611C3.53555 60.8496 3.75605 61.0004 4.02105 61.1204L2.96342 63.4509Z" fill="#C8D6F0"/>
<path d="M62.4653 62.4706L60.656 60.661C64.1597 57.1566 56.2964 41.4839 39.4105 24.5975C31.5949 16.7825 23.406 10.2994 16.3526 6.34249C10.0316 2.79623 5.04855 1.65161 3.3468 3.35211L1.53717 1.54248C4.23868 -1.1599 9.79481 -0.270896 17.6051 4.10986C24.8566 8.17799 33.2435 14.8116 41.2199 22.7876C55.9881 37.5557 68.4528 56.4828 62.4653 62.4706Z" fill="url(#paint1_linear)"/>
</g>
<defs>
<linearGradient id="paint0_linear" x1="-21.5473" y1="-26.2018" x2="73.7275" y2="47.7917" gradientUnits="userSpaceOnUse">
<stop stop-color="#FF9372"/>
<stop offset="1" stop-color="#FFD770"/>
</linearGradient>
<linearGradient id="paint1_linear" x1="51.5" y1="37.5" x2="14.0221" y2="-10.4053" gradientUnits="userSpaceOnUse">
<stop stop-color="#C8D6F0"/>
<stop offset="1" stop-color="#C8D6F0" stop-opacity="0"/>
</linearGradient>
<clipPath id="clip0">
<rect width="64" height="64" fill="white"/>
</clipPath>
</defs>
</svg>
