<svg width="62" height="62" viewBox="0 0 62 62" fill="none" xmlns="http://www.w3.org/2000/svg">
<g clip-path="url(#clip0)">
<path d="M16.7798 58.7123C16.5547 58.4859 16.2423 58.3575 15.9238 58.3575C15.6054 58.3575 15.2929 58.4859 15.0677 58.7123C14.8423 58.9376 14.7129 59.2488 14.7129 59.5685C14.7129 59.8869 14.8425 60.1994 15.0677 60.4246C15.2929 60.6498 15.6054 60.7794 15.9238 60.7794C16.2423 60.7794 16.5547 60.6498 16.7798 60.4246C17.0052 60.1981 17.1348 59.8869 17.1348 59.5685C17.1348 59.2488 17.0051 58.9376 16.7798 58.7123Z" fill="#C8D6F0"/>
<path d="M57.8085 42.4929C56.384 40.2568 53.5226 39.4663 51.1522 40.654L38.8878 46.7998C38.2898 47.0995 38.048 47.8271 38.3477 48.4249C38.6474 49.0227 39.3745 49.2646 39.9729 48.965L52.2373 42.8191C53.4935 42.1893 55.0105 42.6085 55.7657 43.7939C56.1766 44.4391 56.2979 45.2022 56.1071 45.943C55.9164 46.6837 55.4416 47.2934 54.7702 47.6598L38.2829 56.6587C36.2474 57.7697 33.9458 58.3569 31.6268 58.3569H20.8842C20.2155 58.3569 19.6732 58.899 19.6732 59.5678C19.6732 60.2366 20.2155 60.7788 20.8842 60.7788H31.6268C34.3499 60.7788 37.0529 60.0891 39.4433 58.7846L55.9305 49.7858C57.1787 49.1045 58.0978 47.9239 58.4524 46.547C58.807 45.1699 58.5722 43.6923 57.8085 42.4929Z" fill="#C9D7F1"/>
<path d="M34.1911 46.9493L29.1303 42.94C26.5082 40.8627 23.2218 39.7188 19.8766 39.7188H11.2012C11.2012 39.0499 10.6589 38.5078 9.99024 38.5078H1.21094C0.542258 38.5078 0 39.0499 0 39.7188C0 40.3876 0.542258 40.9297 1.21094 40.9297H8.7793V59.5781H1.21094C0.542258 59.5781 0 60.1203 0 60.7891C0 61.4579 0.542258 62 1.21094 62H9.99024C10.6589 62 11.2012 61.4579 11.2012 60.7891V42.1406H19.8766C22.6782 42.1406 25.4304 43.0987 27.6263 44.8385L32.6871 48.8478C33.283 49.3198 33.5747 50.051 33.4676 50.8036C33.3605 51.5561 32.8764 52.1768 32.1726 52.4639C31.5237 52.7286 30.7875 52.6552 30.2036 52.2673L23.7383 47.9736C23.1813 47.6035 22.4295 47.7554 22.0597 48.3124C21.6896 48.8696 21.8413 49.6211 22.3985 49.991L28.8638 54.2848C29.6192 54.7864 30.493 55.0428 31.3733 55.0428C31.9526 55.0428 32.5349 54.9316 33.0874 54.7063C34.5972 54.0904 35.6357 52.759 35.8654 51.1446C36.095 49.5301 35.4692 47.9618 34.1911 46.9493Z" fill="#C9D7F1"/>
<path d="M60.7891 21.0703H53.2207V2.42188H60.7891C61.4578 2.42188 62 1.87974 62 1.21094C62 0.542137 61.4578 0 60.7891 0H52.0098C51.3411 0 50.7988 0.542137 50.7988 1.21094V19.8594H42.1234C39.3218 19.8594 36.5696 18.9013 34.3737 17.1615L29.3129 13.1522C28.717 12.6802 28.4253 11.949 28.5324 11.1964C28.6395 10.4439 29.1237 9.82325 29.8275 9.53613C30.4763 9.27142 31.2125 9.34493 31.7964 9.73267L38.2618 14.0264C38.8187 14.3965 39.5707 14.2446 39.9404 13.6876C40.3104 13.1304 40.1587 12.3789 39.6015 12.009L33.1362 7.71525C31.8836 6.88345 30.3049 6.72579 28.9126 7.29372C27.4028 7.9096 26.3643 9.24103 26.1346 10.8554C25.905 12.4699 26.5308 14.0382 27.8089 15.0507L32.8697 19.06C35.4919 21.1373 38.7782 22.2812 42.1234 22.2812H50.7988C50.7988 22.9501 51.3411 23.4922 52.0098 23.4922H60.7891C61.4578 23.4922 62 22.9501 62 22.2812C62 21.6124 61.4578 21.0703 60.7891 21.0703Z" fill="#C9D7F1"/>
<path d="M47.356 1.57542C47.1309 1.35018 46.8185 1.22061 46.5 1.22061C46.1815 1.22061 45.8691 1.35018 45.6439 1.57542C45.4186 1.80065 45.2891 2.11307 45.2891 2.43155C45.2891 2.75124 45.4185 3.06245 45.6439 3.28889C45.8691 3.51413 46.1815 3.64249 46.5 3.64249C46.8185 3.64249 47.1309 3.51413 47.356 3.28889C47.5812 3.06245 47.7109 2.75003 47.7109 2.43155C47.7109 2.11307 47.5814 1.80065 47.356 1.57542Z" fill="#C8D6F0"/>
<path d="M41.293 1.22122H30.3732C27.6501 1.22122 24.947 1.91085 22.5568 3.21539L6.06947 12.2141C4.82136 12.8954 3.90226 14.0759 3.54757 15.4529C3.19301 16.83 3.42781 18.3075 4.19155 19.507C5.1695 21.0423 6.82498 21.8962 8.53373 21.8962C9.31369 21.8962 10.105 21.7183 10.8478 21.346L23.1122 15.2002C23.7102 14.9005 23.952 14.1729 23.6523 13.5751C23.3526 12.9771 22.6252 12.7353 22.0271 13.035L9.76271 19.1809C8.50624 19.8104 6.98942 19.3915 6.23428 18.2061C5.82329 17.5609 5.70207 16.7977 5.89292 16.057C6.08364 15.3163 6.55845 14.7066 7.22979 14.3402L23.7171 5.34131C25.7527 4.23028 28.0542 3.6431 30.3732 3.6431H41.293C41.9617 3.6431 42.5039 3.10096 42.5039 2.43216C42.5039 1.76336 41.9617 1.22122 41.293 1.22122Z" fill="#C9D7F1"/>
<path d="M34.3531 23.9717C33.1491 23.9717 31.9749 24.3581 31.0001 25.0563C30.0252 24.3581 28.8512 23.9717 27.6472 23.9717C24.4343 23.9717 21.8205 26.6388 21.8205 29.917C21.8203 31.8305 23.2609 34.0037 26.2244 36.5609C28.261 38.318 30.2679 39.5938 30.3523 39.6472C30.55 39.7724 30.775 39.835 31 39.835C31.225 39.835 31.45 39.7724 31.6477 39.6472C31.7321 39.5938 33.739 38.3179 35.7756 36.5609C38.7392 34.0037 40.1798 31.8306 40.1798 29.917C40.1798 26.6388 37.566 23.9717 34.3531 23.9717ZM30.9998 37.1775C27.9997 35.1587 24.2422 31.8418 24.2422 29.917C24.2421 27.9742 25.7696 26.3936 27.647 26.3936C28.5861 26.3936 29.4609 26.7811 30.1101 27.4849C30.3394 27.7334 30.662 27.8747 31.0001 27.8747C31.3382 27.8747 31.6608 27.7334 31.8902 27.4849C32.5394 26.7811 33.4141 26.3936 34.3532 26.3936C36.2307 26.3936 37.758 27.9742 37.758 29.917C37.758 31.8381 33.9999 35.1567 30.9998 37.1775Z" fill="url(#paint0_linear)"/>
</g>
<defs>
<linearGradient id="paint0_linear" x1="9.93412" y1="14.1199" x2="39.9008" y2="43.1317" gradientUnits="userSpaceOnUse">
<stop stop-color="#FF9372"/>
<stop offset="1" stop-color="#FFD770"/>
</linearGradient>
<clipPath id="clip0">
<rect width="62" height="62" fill="white"/>
</clipPath>
</defs>
</svg>
