<svg width="108" height="108" viewBox="0 0 108 108" fill="none" xmlns="http://www.w3.org/2000/svg">
<g filter="url(#filter0_d)">
<rect x="8" y="4" width="92" height="92" rx="12" fill="url(#paint0_linear)"/>
</g>
<path d="M69.3811 65.3068C60.939 65.3068 54.0954 58.4637 54.0954 50.0223C54.0954 41.5809 60.939 34.7378 69.3811 34.7378C77.8231 34.7378 84.6667 41.5809 84.6667 50.0223C84.6667 58.4637 77.8231 65.3068 69.3811 65.3068Z" fill="white" fill-opacity="0.2" stroke="white"/>
<path d="M38.6189 65.3068C30.1769 65.3068 23.3333 58.4637 23.3333 50.0223C23.3333 41.5809 30.1769 34.7378 38.6189 34.7378C47.0609 34.7378 53.9045 41.5809 53.9045 50.0223C53.9045 58.4637 47.0609 65.3068 38.6189 65.3068Z" fill="white" fill-opacity="0.2" stroke="white"/>
<path d="M53.9752 49.9023C45.5332 49.9023 38.6896 43.0592 38.6896 34.6178C38.6896 26.1764 45.5332 19.3333 53.9752 19.3333C62.4172 19.3333 69.2608 26.1764 69.2608 34.6178C69.2608 43.0592 62.4172 49.9023 53.9752 49.9023Z" fill="white" fill-opacity="0.2" stroke="white"/>
<path d="M53.9752 80.6672C45.5332 80.6672 38.6896 73.8241 38.6896 65.3827C38.6896 56.9413 45.5332 50.0981 53.9752 50.0981C62.4172 50.0981 69.2608 56.9413 69.2608 65.3827C69.2608 73.8241 62.4172 80.6672 53.9752 80.6672Z" fill="white" fill-opacity="0.2" stroke="white"/>
<defs>
<filter id="filter0_d" x="0" y="0" width="108" height="108" filterUnits="userSpaceOnUse" color-interpolation-filters="sRGB">
<feFlood flood-opacity="0" result="BackgroundImageFix"/>
<feColorMatrix in="SourceAlpha" type="matrix" values="0 0 0 0 0 0 0 0 0 0 0 0 0 0 0 0 0 0 127 0"/>
<feOffset dy="4"/>
<feGaussianBlur stdDeviation="4"/>
<feColorMatrix type="matrix" values="0 0 0 0 0.791732 0 0 0 0 0.591522 0 0 0 0 0.333187 0 0 0 0.5 0"/>
<feBlend mode="normal" in2="BackgroundImageFix" result="effect1_dropShadow"/>
<feBlend mode="normal" in="SourceGraphic" in2="effect1_dropShadow" result="shape"/>
</filter>
<linearGradient id="paint0_linear" x1="-51.5638" y1="-44.0268" x2="94.5963" y2="101.428" gradientUnits="userSpaceOnUse">
<stop stop-color="#FF9372"/>
<stop offset="1" stop-color="#FFD770"/>
</linearGradient>
</defs>
</svg>
