<svg width="67" height="74" viewBox="0 0 67 74" fill="none" xmlns="http://www.w3.org/2000/svg">
<path opacity="0.5" d="M25.8051 52.1035C25.8051 53.9116 27.293 55.3909 29.1114 55.3909L46.2546 55.3909L44.0558 65.8283C44.0062 66.0748 43.9732 66.3379 43.9732 66.6008C43.9732 67.6198 44.3866 68.5404 45.0643 69.2143L47.6928 71.8279L64.0257 55.5881C64.9184 54.7005 65.4805 53.4678 65.4805 52.1035L65.4805 30.7355C65.4805 28.0069 63.2654 25.8044 60.5211 25.8044L38.2037 25.8044C36.1538 25.8044 34.3849 27.0372 33.641 28.8123L26.1523 46.2026C25.9373 46.7615 25.8051 47.3532 25.8051 47.9943L25.8051 52.1035Z" stroke="white" stroke-width="2.8"/>
<path d="M41.6754 21.7243C41.6754 19.9163 40.1876 18.437 38.3692 18.437H21.226L23.4247 7.99959C23.4743 7.75303 23.5073 7.48999 23.5073 7.2271C23.5073 6.20806 23.094 5.28749 22.4163 4.61363L19.7878 2L3.45482 18.2398C2.56212 19.1273 2 20.3601 2 21.7243V43.0924C2 45.821 4.21516 48.0235 6.95943 48.0235H29.2769C31.3268 48.0235 33.0956 46.7907 33.8395 45.0155L41.3283 27.6253C41.5432 27.0664 41.6754 26.4747 41.6754 25.8336V21.7243Z" stroke="white" stroke-width="2.8"/>
</svg>
