<svg width="72" height="72" viewBox="0 0 72 72" fill="none" xmlns="http://www.w3.org/2000/svg">
<path d="M70.5823 21.5665C70.5784 21.5401 70.5733 21.5138 70.5673 21.4877C70.1754 19.401 69.5249 17.4047 68.6505 15.5329C68.6264 15.4616 68.5943 15.3927 68.5542 15.327C67.7408 13.6264 66.7418 12.0307 65.5833 10.5668C65.5404 10.4947 65.4894 10.4263 65.4273 10.3643C65.419 10.3559 65.4098 10.3488 65.4012 10.3408C64.2633 8.93598 62.9772 7.65602 61.567 6.52453C61.559 6.51605 61.5519 6.50717 61.5437 6.49883C61.48 6.43525 61.4096 6.38275 61.3354 6.33941C59.8655 5.18824 58.2641 4.19771 56.5587 3.39258C56.4937 3.35279 56.4254 3.32121 56.3548 3.29729C54.4722 2.42912 52.4652 1.78613 50.3678 1.40523C50.3417 1.39936 50.3154 1.39443 50.289 1.39061C48.8518 1.13398 47.3728 1 45.863 1C44.7019 1 43.5596 1.08094 42.44 1.23393C42.4364 1.2342 42.4329 1.23502 42.4292 1.23543C31.8124 2.6923 23.2879 10.8029 21.2117 21.2124C18.4866 21.7553 15.8623 22.7461 13.4562 24.1546C12.9664 24.4412 12.802 25.0706 13.0885 25.5603C13.3752 26.05 14.0047 26.2145 14.4941 25.9279C16.4849 24.7625 18.639 23.9089 20.8771 23.3869C20.7784 24.2903 20.7261 25.2076 20.7261 26.137C20.7261 27.6454 20.8599 29.1232 21.1158 30.559C21.1199 30.5872 21.125 30.6152 21.1314 30.643C21.5123 32.7397 22.1552 34.746 23.0231 36.6279C23.047 36.6988 23.0788 36.7673 23.1186 36.8325C23.9239 38.5378 24.9142 40.139 26.0653 41.6089C26.1088 41.6831 26.1612 41.7535 26.2249 41.8172C26.2329 41.8255 26.2418 41.8323 26.2502 41.8401C27.3818 43.2505 28.6618 44.5367 30.0668 45.6749C30.0749 45.6835 30.082 45.6925 30.0903 45.7009C30.1523 45.7628 30.2206 45.8139 30.2925 45.8567C31.7567 47.0153 33.3523 48.0143 35.0529 48.8278C35.1186 48.868 35.1876 48.9 35.2588 48.924C37.1309 49.7987 39.1274 50.4493 41.2146 50.8411C41.2402 50.847 41.2659 50.8519 41.2917 50.8559C42.7745 51.1294 44.3022 51.2737 45.863 51.2737C46.7927 51.2737 47.7102 51.2213 48.6139 51.1225C46.2272 61.3241 37.0555 68.9448 26.1368 68.9448C13.4093 68.9448 3.05461 58.5902 3.05461 45.8626C3.05461 39.4448 5.62574 33.483 10.2943 29.0753C10.7069 28.6858 10.7255 28.0356 10.3361 27.623C9.94647 27.2104 9.29623 27.1918 8.88375 27.5811C6.42049 29.9067 4.48182 32.6513 3.12188 35.7389C1.71408 38.9363 1 42.3424 1 45.863C1 59.7237 12.2766 71 26.1371 71C38.3125 71 48.4924 62.2987 50.7883 50.7882C61.2587 48.6997 69.4041 40.0878 70.7907 29.3843C70.7914 29.378 70.7927 29.3719 70.7933 29.3657C70.9295 28.3083 71 27.2307 71 26.137C71 24.5765 70.8558 23.049 70.5823 21.5665ZM64.588 12.6564C65.2738 13.6064 65.8901 14.6098 66.4273 15.6601L48.2216 33.8658C47.6596 32.8356 47.0273 31.8494 46.332 30.9124L64.588 12.6564ZM63.3045 11.0337L45.0333 29.3049C44.2797 28.4459 43.4694 27.6379 42.6067 26.8884L60.8761 8.61906C61.7435 9.36336 62.5557 10.1703 63.3045 11.0337ZM59.2472 7.3417L40.9912 25.5979C40.0502 24.9062 39.0598 24.2779 38.0258 23.7203L56.2286 5.51732C57.2836 6.04971 58.2925 6.65988 59.2472 7.3417ZM50.4782 3.51863C51.7672 3.78141 53.0174 4.15232 54.2191 4.62072L36.0673 22.7725C34.9082 22.2721 33.7048 21.8558 32.4639 21.5328L50.4782 3.51863ZM43.0176 3.23029C43.9503 3.11504 44.8998 3.05475 45.8632 3.05475C46.5637 3.05475 47.2566 3.08783 47.9416 3.14922L30.0583 21.0324C28.7803 20.8315 27.4708 20.7261 26.1371 20.7261C25.9283 20.7261 25.7198 20.7313 25.5115 20.7364L43.0176 3.23029ZM39.3496 3.99209L23.7181 19.6237C25.9277 12.1244 31.8504 6.20146 39.3496 3.99209ZM22.8755 28.2155C22.814 27.5304 22.7809 26.8375 22.7809 26.137C22.7809 25.1737 22.8412 24.2241 22.9565 23.2914L23.2888 22.9591C24.2307 22.8423 25.1817 22.7808 26.1372 22.7808C26.8378 22.7808 27.5307 22.8139 28.2156 22.8753L22.8755 28.2155ZM23.2447 30.7521L30.7521 23.2447C32.0412 23.5073 33.2912 23.8782 34.493 24.3468L24.3466 34.4932C23.8784 33.2913 23.5073 32.0412 23.2447 30.7521ZM27.0679 39.5212C26.3859 38.5663 25.7758 37.5574 25.2434 36.5026L36.5027 25.2432C37.5575 25.7758 38.5665 26.3858 39.5213 27.0678L27.0679 39.5212ZM28.3451 41.1501L41.1501 28.3451C42.0174 29.0896 42.8296 29.8963 43.5785 30.7597L30.7598 43.5783C29.8963 42.8296 29.0896 42.0174 28.3451 41.1501ZM32.3824 44.8618L44.862 32.3824C45.5479 33.3325 46.1641 34.3357 46.7013 35.386L35.3859 46.7014C34.3357 46.1639 33.3323 45.5476 32.3824 44.8618ZM41.1103 48.7261C39.8269 48.4564 38.5822 48.0806 37.3865 47.6067L47.6069 37.3865C48.0806 38.5822 48.4564 39.8269 48.7262 41.1103L41.1103 48.7261ZM49.0654 48.52L48.5202 49.0653C47.648 49.1657 46.7617 49.2192 45.863 49.2192C45.1103 49.2192 44.3661 49.1817 43.6315 49.1109L49.1109 43.6315C49.1817 44.366 49.2192 45.1101 49.2192 45.863C49.2192 46.7617 49.1659 47.6479 49.0654 48.52ZM50.4316 39.4048C50.1027 38.1689 49.6817 36.9704 49.1767 35.8168L67.3329 17.6607C67.8067 18.8564 68.1825 20.1011 68.4521 21.3844L50.4316 39.4048ZM52.1402 48.3514L68.0776 32.4139C65.9016 40.1044 59.8305 46.1754 52.1402 48.3514ZM68.7914 28.794L51.2683 46.3171C51.2711 46.1659 51.2741 46.0148 51.2741 45.8629C51.2741 44.4793 51.1599 43.1221 50.9438 41.7987L68.8371 23.9054C68.9079 24.6399 68.9454 25.3841 68.9454 26.137C68.9453 27.0356 68.8918 27.922 68.7914 28.794Z" fill="url(#paint0_linear)" stroke="url(#paint1_linear)" stroke-width="0.5"/>
<defs>
<linearGradient id="paint0_linear" x1="67" y1="5" x2="-0.5" y2="71" gradientUnits="userSpaceOnUse">
<stop stop-color="white"/>
<stop offset="1" stop-color="white" stop-opacity="0.3"/>
</linearGradient>
<linearGradient id="paint1_linear" x1="75.5" y1="-1.5" x2="1" y2="69.5" gradientUnits="userSpaceOnUse">
<stop stop-color="white"/>
<stop offset="1" stop-color="white" stop-opacity="0"/>
</linearGradient>
</defs>
</svg>
