<svg width="66" height="58" viewBox="0 0 66 58" fill="none" xmlns="http://www.w3.org/2000/svg">
<path d="M10.2759 46.8448C25.389 45.8936 57.0992 35.5929 63.0345 2" stroke="white" stroke-width="2.8" stroke-linecap="round" stroke-linejoin="round"/>
<path opacity="0.5" fill-rule="evenodd" clip-rule="evenodd" d="M5 0.25C5.9665 0.25 6.75 1.0335 6.75 2V51.25H63.9138C64.8803 51.25 65.6638 52.0335 65.6638 53C65.6638 53.9665 64.8803 54.75 63.9138 54.75H63.5V56.25C63.5 57.2165 62.7165 58 61.75 58C60.7835 58 60 57.2165 60 56.25V54.75H37.5V56.25C37.5 57.2165 36.7165 58 35.75 58C34.7835 58 34 57.2165 34 56.25V54.75H11.5V56.25C11.5 57.2165 10.7165 58 9.75 58C8.7835 58 8 57.2165 8 56.25V54.75H5C4.0335 54.75 3.25 53.9665 3.25 53V49.5H1.75C0.783502 49.5 0 48.7165 0 47.75C0 46.7835 0.783502 46 1.75 46H3.25V29.5H1.75C0.783502 29.5 0 28.7165 0 27.75C0 26.7835 0.783502 26 1.75 26H3.25V6.5H1.75C0.783502 6.5 0 5.7165 0 4.75C0 3.7835 0.783502 3 1.75 3H3.25V2C3.25 1.0335 4.0335 0.25 5 0.25Z" fill="white"/>
</svg>
