<svg width="280" height="891" viewBox="0 0 280 891" fill="none" xmlns="http://www.w3.org/2000/svg">
<circle cx="140" cy="34" r="34" fill="url(#paint0_linear)"/>
<path d="M142.344 24.4414V41H139.871V28.9766H135.91V27.0547H138.312C138.859 27.0547 139.27 26.9375 139.543 26.7031C139.824 26.4688 139.965 26.0977 139.965 25.5898V24.4414H142.344Z" fill="white"/>
<path d="M108.695 84.5112H112.673C113.651 84.5112 114.505 84.6753 115.237 85.0034C115.968 85.3247 116.536 85.793 116.939 86.4082C117.342 87.0234 117.544 87.7583 117.544 88.6128C117.544 89.4673 117.342 90.1987 116.939 90.8071C116.542 91.4087 115.979 91.8701 115.247 92.1914C114.516 92.5059 113.658 92.6631 112.673 92.6631H110.089V99H108.695V84.5112ZM112.673 91.3301C113.822 91.3301 114.687 91.0977 115.268 90.6328C115.855 90.168 116.149 89.4946 116.149 88.6128C116.149 87.731 115.852 87.0474 115.257 86.562C114.663 86.0767 113.801 85.834 112.673 85.834H110.089V91.3301H112.673ZM120.046 88.7563H121.369V90.8994C121.533 90.3936 121.782 89.9697 122.117 89.6279C122.459 89.2793 122.838 89.0195 123.255 88.8486C123.679 88.6777 124.103 88.5923 124.527 88.5923C124.821 88.5923 125.104 88.6333 125.378 88.7153C125.658 88.7974 125.908 88.9204 126.126 89.0845L125.511 90.2124C125.149 90.0142 124.759 89.915 124.342 89.915C123.85 89.915 123.375 90.0518 122.917 90.3252C122.466 90.5918 122.093 91.0156 121.799 91.5967C121.505 92.1709 121.358 92.8955 121.358 93.7705V99H120.046V88.7563ZM131.417 99.1538C130.419 99.1538 129.558 98.9282 128.833 98.4771C128.116 98.019 127.569 97.3936 127.193 96.6006C126.824 95.8076 126.639 94.9155 126.639 93.9243C126.639 92.9468 126.82 92.0547 127.183 91.248C127.545 90.4346 128.071 89.7886 128.762 89.3101C129.459 88.8315 130.29 88.5923 131.253 88.5923C132.292 88.5923 133.144 88.835 133.807 89.3203C134.477 89.7988 134.958 90.4004 135.252 91.125C135.546 91.8428 135.693 92.5776 135.693 93.3296C135.693 93.5073 135.687 93.6851 135.673 93.8628C135.659 94.0405 135.642 94.167 135.622 94.2422H128.075C128.129 95.3975 128.447 96.2998 129.028 96.9492C129.609 97.5986 130.409 97.9233 131.428 97.9233C132.05 97.9233 132.59 97.8276 133.048 97.6362C133.513 97.438 133.974 97.0996 134.432 96.6211L135.375 97.4517C134.801 98.0532 134.203 98.4873 133.581 98.7539C132.966 99.0205 132.245 99.1538 131.417 99.1538ZM134.34 93.2373C134.354 92.9775 134.347 92.7622 134.319 92.5913C134.278 92.0991 134.138 91.6377 133.899 91.207C133.667 90.7764 133.325 90.4277 132.874 90.1611C132.429 89.8877 131.886 89.751 131.243 89.751C130.635 89.751 130.102 89.8979 129.644 90.1919C129.186 90.4858 128.823 90.896 128.557 91.4224C128.297 91.9419 128.136 92.5469 128.075 93.2373H134.34ZM141.528 99.1538C140.865 99.1538 140.25 99.041 139.682 98.8154C139.115 98.583 138.633 98.2617 138.236 97.8516C137.84 97.4414 137.553 96.9766 137.375 96.457L138.472 95.9751C138.684 96.563 139.046 97.0518 139.559 97.4414C140.079 97.8242 140.714 98.0156 141.466 98.0156C141.972 98.0156 142.403 97.937 142.758 97.7798C143.114 97.6157 143.38 97.3901 143.558 97.103C143.743 96.8159 143.835 96.4912 143.835 96.1289C143.835 95.7256 143.715 95.4043 143.476 95.165C143.244 94.9189 142.953 94.7344 142.604 94.6113C142.263 94.4814 141.788 94.3413 141.179 94.1909C140.468 94.02 139.894 93.8491 139.457 93.6782C139.019 93.5073 138.646 93.2407 138.339 92.8784C138.038 92.5161 137.888 92.0273 137.888 91.4121C137.888 90.8242 138.042 90.3184 138.349 89.8945C138.657 89.4639 139.074 89.1392 139.6 88.9204C140.133 88.7017 140.731 88.5923 141.395 88.5923C142.194 88.5923 142.902 88.7803 143.517 89.1562C144.139 89.5254 144.631 90.0518 144.994 90.7354L143.948 91.2993C143.688 90.8071 143.339 90.4175 142.902 90.1304C142.464 89.8364 141.948 89.6895 141.354 89.6895C140.916 89.6895 140.533 89.7544 140.205 89.8843C139.884 90.0142 139.634 90.1987 139.457 90.438C139.279 90.6704 139.19 90.937 139.19 91.2378C139.19 91.5933 139.299 91.8804 139.518 92.0991C139.737 92.3179 140.007 92.4888 140.328 92.6118C140.656 92.728 141.111 92.8613 141.692 93.0117C142.43 93.1963 143.028 93.3843 143.486 93.5757C143.951 93.7671 144.348 94.061 144.676 94.4575C145.004 94.854 145.168 95.3906 145.168 96.0674C145.168 96.7305 145.007 97.2944 144.686 97.7593C144.365 98.2173 143.927 98.5659 143.374 98.8052C142.827 99.0376 142.211 99.1538 141.528 99.1538ZM151.31 88.5923C152.178 88.5923 152.917 88.7598 153.525 89.0947C154.133 89.4229 154.595 89.8979 154.909 90.52C155.23 91.1421 155.391 91.8838 155.391 92.7451V99H154.263L154.171 96.9185C153.795 97.6431 153.275 98.1968 152.612 98.5796C151.956 98.9624 151.235 99.1538 150.449 99.1538C149.751 99.1538 149.136 99.0308 148.603 98.7847C148.07 98.5317 147.653 98.1694 147.352 97.6978C147.058 97.2261 146.911 96.6689 146.911 96.0264C146.911 94.0781 148.343 93.104 151.208 93.104H154.161V92.981C154.161 91.8804 153.938 91.0737 153.494 90.561C153.057 90.0483 152.332 89.792 151.32 89.792C150.664 89.792 150.097 89.9321 149.618 90.2124C149.14 90.4927 148.716 90.9097 148.347 91.4634L147.311 90.7046C147.824 89.9937 148.398 89.4639 149.034 89.1152C149.669 88.7666 150.428 88.5923 151.31 88.5923ZM150.705 97.9951C151.573 97.9951 152.305 97.7388 152.899 97.2261C153.494 96.7134 153.915 96.0229 154.161 95.1548V94.1089H151.279C150.288 94.1089 149.543 94.2798 149.044 94.6216C148.545 94.9565 148.295 95.4385 148.295 96.0674C148.295 96.6621 148.507 97.1338 148.931 97.4824C149.355 97.8242 149.946 97.9951 150.705 97.9951ZM160.621 99.1538C159.923 99.1538 159.435 98.9624 159.154 98.5796C158.874 98.1899 158.734 97.6089 158.734 96.8364V84.5112H160.087V96.4878C160.087 96.7954 160.111 97.0518 160.159 97.2568C160.214 97.4619 160.323 97.626 160.487 97.749C160.651 97.8721 160.894 97.9336 161.215 97.9336C161.427 97.9336 161.704 97.8994 162.046 97.8311L162.066 98.9897C161.533 99.0991 161.051 99.1538 160.621 99.1538ZM168.373 99.1538C167.375 99.1538 166.513 98.9282 165.789 98.4771C165.071 98.019 164.524 97.3936 164.148 96.6006C163.779 95.8076 163.594 94.9155 163.594 93.9243C163.594 92.9468 163.775 92.0547 164.138 91.248C164.5 90.4346 165.026 89.7886 165.717 89.3101C166.414 88.8315 167.245 88.5923 168.208 88.5923C169.248 88.5923 170.099 88.835 170.762 89.3203C171.432 89.7988 171.914 90.4004 172.208 91.125C172.501 91.8428 172.648 92.5776 172.648 93.3296C172.648 93.5073 172.642 93.6851 172.628 93.8628C172.614 94.0405 172.597 94.167 172.577 94.2422H165.03C165.084 95.3975 165.402 96.2998 165.983 96.9492C166.564 97.5986 167.364 97.9233 168.383 97.9233C169.005 97.9233 169.545 97.8276 170.003 97.6362C170.468 97.438 170.929 97.0996 171.387 96.6211L172.331 97.4517C171.756 98.0532 171.158 98.4873 170.536 98.7539C169.921 99.0205 169.2 99.1538 168.373 99.1538ZM171.295 93.2373C171.309 92.9775 171.302 92.7622 171.274 92.5913C171.233 92.0991 171.093 91.6377 170.854 91.207C170.622 90.7764 170.28 90.4277 169.829 90.1611C169.384 89.8877 168.841 89.751 168.198 89.751C167.59 89.751 167.057 89.8979 166.599 90.1919C166.141 90.4858 165.778 90.896 165.512 91.4224C165.252 91.9419 165.091 92.5469 165.03 93.2373H171.295Z" fill="#6D7693"/>
<circle cx="140" cy="228" r="34" fill="url(#paint1_linear)"/>
<path d="M145.918 232.715V235H134.176V232.949C136.457 231.559 138.422 230.047 140.07 228.414C141.727 226.781 142.555 225.051 142.555 223.223C142.555 222.41 142.328 221.754 141.875 221.254C141.422 220.754 140.758 220.504 139.883 220.504C138.82 220.504 138.035 220.863 137.527 221.582C137.02 222.301 136.75 223.211 136.719 224.312L134.258 224.148C134.258 223.094 134.48 222.117 134.926 221.219C135.379 220.312 136.027 219.59 136.871 219.051C137.723 218.512 138.719 218.242 139.859 218.242C140.875 218.242 141.773 218.441 142.555 218.84C143.344 219.23 143.961 219.805 144.406 220.562C144.852 221.32 145.074 222.227 145.074 223.281C145.074 224.492 144.719 225.715 144.008 226.949C143.305 228.184 142.422 229.301 141.359 230.301C140.305 231.301 139.258 232.105 138.219 232.715H145.918Z" fill="white"/>
<path d="M30.0679 278.511H39.8604V279.813H31.4727V285.074H38.835V286.376H31.4727V293H30.0679V278.511ZM44.936 293.154C44.1636 293.154 43.5142 292.986 42.9878 292.651C42.4614 292.31 42.0649 291.845 41.7983 291.257C41.5386 290.669 41.4019 289.996 41.3882 289.237V282.756H42.7314V288.929C42.7314 289.873 42.9502 290.604 43.3877 291.124C43.8252 291.636 44.4609 291.893 45.2949 291.893C46.1699 291.893 46.8638 291.626 47.3765 291.093C47.8892 290.553 48.1455 289.791 48.1455 288.806V282.756H49.4888V293H48.1455V291.257C47.8311 291.872 47.3901 292.344 46.8228 292.672C46.2554 292.993 45.6265 293.154 44.936 293.154ZM53.1699 282.756H54.5234V284.5C54.8379 283.884 55.2788 283.413 55.8462 283.084C56.4136 282.756 57.0425 282.592 57.7329 282.592C58.5054 282.592 59.1548 282.763 59.6812 283.105C60.2075 283.44 60.604 283.901 60.8706 284.489C61.1372 285.077 61.2773 285.75 61.291 286.509V293H59.9375V286.827C59.9375 285.884 59.7188 285.152 59.2812 284.633C58.8438 284.113 58.208 283.854 57.374 283.854C56.4922 283.854 55.7949 284.124 55.2822 284.664C54.7764 285.197 54.5234 285.956 54.5234 286.94V293H53.1699V282.756ZM68.4277 293.154C67.5254 293.154 66.7256 292.918 66.0283 292.446C65.3379 291.975 64.8013 291.339 64.4185 290.539C64.0425 289.732 63.8545 288.84 63.8545 287.863C63.8545 286.899 64.0425 286.017 64.4185 285.217C64.8013 284.411 65.3379 283.771 66.0283 283.3C66.7188 282.828 67.5117 282.592 68.4072 282.592C69.2139 282.592 69.9487 282.808 70.6118 283.238C71.2749 283.669 71.7637 284.26 72.0781 285.012V278.511H73.4521V293H72.1807L72.1294 290.672C71.8149 291.445 71.3262 292.053 70.6631 292.498C70 292.935 69.2549 293.154 68.4277 293.154ZM68.7251 291.923C69.4224 291.923 70.0308 291.749 70.5503 291.4C71.0767 291.045 71.48 290.56 71.7603 289.944C72.0405 289.329 72.1807 288.635 72.1807 287.863C72.1807 287.097 72.0405 286.41 71.7603 285.802C71.48 285.187 71.0767 284.705 70.5503 284.356C70.0308 284.007 69.4224 283.833 68.7251 283.833C68.0278 283.833 67.4126 284.011 66.8794 284.366C66.353 284.715 65.9463 285.197 65.6592 285.812C65.3721 286.427 65.2285 287.111 65.2285 287.863C65.2285 288.622 65.3721 289.312 65.6592 289.934C65.9463 290.549 66.353 291.035 66.8794 291.39C67.4126 291.746 68.0278 291.923 68.7251 291.923ZM77.1436 282.756H78.4663V284.899C78.6304 284.394 78.8799 283.97 79.2148 283.628C79.5566 283.279 79.936 283.02 80.353 282.849C80.7769 282.678 81.2007 282.592 81.6245 282.592C81.9185 282.592 82.2021 282.633 82.4756 282.715C82.7559 282.797 83.0054 282.92 83.2241 283.084L82.6089 284.212C82.2466 284.014 81.8569 283.915 81.4399 283.915C80.9478 283.915 80.4727 284.052 80.0146 284.325C79.5635 284.592 79.1909 285.016 78.897 285.597C78.603 286.171 78.4561 286.896 78.4561 287.771V293H77.1436V282.756ZM88.8022 282.592C89.6704 282.592 90.4087 282.76 91.0171 283.095C91.6255 283.423 92.0869 283.898 92.4014 284.52C92.7227 285.142 92.8833 285.884 92.8833 286.745V293H91.7554L91.6631 290.918C91.2871 291.643 90.7676 292.197 90.1045 292.58C89.4482 292.962 88.7271 293.154 87.9409 293.154C87.2437 293.154 86.6284 293.031 86.0952 292.785C85.562 292.532 85.145 292.169 84.8442 291.698C84.5503 291.226 84.4033 290.669 84.4033 290.026C84.4033 288.078 85.8354 287.104 88.6997 287.104H91.6528V286.981C91.6528 285.88 91.4307 285.074 90.9863 284.561C90.5488 284.048 89.8242 283.792 88.8125 283.792C88.1562 283.792 87.5889 283.932 87.1104 284.212C86.6318 284.493 86.208 284.91 85.8389 285.463L84.8032 284.705C85.3159 283.994 85.8901 283.464 86.5259 283.115C87.1616 282.767 87.9204 282.592 88.8022 282.592ZM88.1973 291.995C89.0654 291.995 89.7969 291.739 90.3916 291.226C90.9863 290.713 91.4067 290.023 91.6528 289.155V288.109H88.7715C87.7803 288.109 87.0352 288.28 86.5361 288.622C86.0371 288.957 85.7876 289.438 85.7876 290.067C85.7876 290.662 85.9995 291.134 86.4233 291.482C86.8472 291.824 87.4385 291.995 88.1973 291.995ZM96.2466 278.511H97.6616V280.613H96.2466V278.511ZM96.2773 282.756H97.6206V293H96.2773V282.756ZM104.347 293.154C103.684 293.154 103.069 293.041 102.501 292.815C101.934 292.583 101.452 292.262 101.056 291.852C100.659 291.441 100.372 290.977 100.194 290.457L101.292 289.975C101.503 290.563 101.866 291.052 102.378 291.441C102.898 291.824 103.534 292.016 104.286 292.016C104.792 292.016 105.222 291.937 105.578 291.78C105.933 291.616 106.2 291.39 106.377 291.103C106.562 290.816 106.654 290.491 106.654 290.129C106.654 289.726 106.535 289.404 106.295 289.165C106.063 288.919 105.772 288.734 105.424 288.611C105.082 288.481 104.607 288.341 103.999 288.191C103.288 288.02 102.713 287.849 102.276 287.678C101.838 287.507 101.466 287.241 101.158 286.878C100.857 286.516 100.707 286.027 100.707 285.412C100.707 284.824 100.861 284.318 101.168 283.895C101.476 283.464 101.893 283.139 102.419 282.92C102.953 282.702 103.551 282.592 104.214 282.592C105.014 282.592 105.721 282.78 106.336 283.156C106.958 283.525 107.451 284.052 107.813 284.735L106.767 285.299C106.507 284.807 106.159 284.417 105.721 284.13C105.284 283.836 104.768 283.689 104.173 283.689C103.735 283.689 103.353 283.754 103.024 283.884C102.703 284.014 102.454 284.199 102.276 284.438C102.098 284.67 102.009 284.937 102.009 285.238C102.009 285.593 102.119 285.88 102.337 286.099C102.556 286.318 102.826 286.489 103.147 286.612C103.476 286.728 103.93 286.861 104.511 287.012C105.25 287.196 105.848 287.384 106.306 287.576C106.771 287.767 107.167 288.061 107.495 288.458C107.823 288.854 107.987 289.391 107.987 290.067C107.987 290.73 107.827 291.294 107.505 291.759C107.184 292.217 106.747 292.566 106.193 292.805C105.646 293.038 105.031 293.154 104.347 293.154ZM110.787 278.511H112.202V280.613H110.787V278.511ZM110.817 282.756H112.161V293H110.817V282.756ZM115.842 282.756H117.195V284.5C117.51 283.884 117.951 283.413 118.518 283.084C119.085 282.756 119.714 282.592 120.405 282.592C121.177 282.592 121.827 282.763 122.353 283.105C122.879 283.44 123.276 283.901 123.542 284.489C123.809 285.077 123.949 285.75 123.963 286.509V293H122.609V286.827C122.609 285.884 122.391 285.152 121.953 284.633C121.516 284.113 120.88 283.854 120.046 283.854C119.164 283.854 118.467 284.124 117.954 284.664C117.448 285.197 117.195 285.956 117.195 286.94V293H115.842V282.756ZM131.171 291.77C132.108 291.913 132.853 292.063 133.407 292.221C133.967 292.371 134.442 292.634 134.832 293.01C135.222 293.386 135.417 293.916 135.417 294.6C135.417 295.249 135.235 295.806 134.873 296.271C134.511 296.743 134.005 297.098 133.355 297.337C132.713 297.583 131.975 297.707 131.141 297.707C130.19 297.707 129.367 297.56 128.669 297.266C127.972 296.972 127.439 296.565 127.07 296.045C126.708 295.526 126.526 294.928 126.526 294.251C126.526 294.087 126.537 293.937 126.557 293.8L128.105 292.385C127.682 292.193 127.35 291.94 127.111 291.626C126.878 291.312 126.762 290.912 126.762 290.426C126.762 290.002 126.854 289.63 127.039 289.309C127.224 288.987 127.5 288.7 127.87 288.447C127.583 288.14 127.36 287.788 127.203 287.391C127.053 286.995 126.978 286.571 126.978 286.12C126.978 285.443 127.148 284.838 127.49 284.305C127.832 283.765 128.297 283.344 128.885 283.043C129.479 282.743 130.139 282.592 130.864 282.592C131.363 282.592 131.831 282.667 132.269 282.818C132.713 282.961 133.106 283.17 133.448 283.443L134.842 282.213L135.56 283.095L134.186 284.253C134.555 284.828 134.74 285.474 134.74 286.191C134.74 286.875 134.569 287.48 134.227 288.006C133.892 288.533 133.431 288.943 132.843 289.237C132.262 289.524 131.612 289.667 130.895 289.667C130.095 289.667 129.377 289.49 128.741 289.134C128.201 289.374 127.931 289.732 127.931 290.211C127.931 290.566 128.064 290.843 128.331 291.042C128.598 291.233 128.933 291.373 129.336 291.462C129.739 291.544 130.351 291.646 131.171 291.77ZM130.905 283.669C130.406 283.669 129.965 283.775 129.582 283.987C129.199 284.192 128.902 284.482 128.69 284.858C128.485 285.228 128.382 285.651 128.382 286.13C128.382 286.602 128.485 287.022 128.69 287.391C128.895 287.753 129.186 288.037 129.562 288.242C129.944 288.447 130.389 288.55 130.895 288.55C131.4 288.55 131.841 288.451 132.217 288.252C132.6 288.047 132.891 287.764 133.089 287.401C133.294 287.032 133.396 286.612 133.396 286.14C133.396 285.655 133.294 285.228 133.089 284.858C132.884 284.482 132.593 284.192 132.217 283.987C131.841 283.775 131.404 283.669 130.905 283.669ZM131.13 296.63C132.046 296.63 132.774 296.462 133.314 296.127C133.854 295.792 134.125 295.328 134.125 294.733C134.125 294.323 133.984 294.005 133.704 293.779C133.424 293.554 133.065 293.39 132.627 293.287C132.19 293.185 131.551 293.075 130.71 292.959C130.416 292.918 130.112 292.874 129.797 292.826C129.483 292.771 129.199 292.716 128.946 292.662L127.757 294.087C127.757 294.169 127.764 294.278 127.777 294.415C127.846 295.119 128.184 295.663 128.792 296.045C129.401 296.435 130.18 296.63 131.13 296.63ZM143.425 282.756H144.819V285.022C145.141 284.271 145.629 283.679 146.286 283.249C146.949 282.811 147.687 282.592 148.5 282.592C149.389 282.592 150.162 282.828 150.818 283.3C151.474 283.771 151.973 284.411 152.315 285.217C152.664 286.017 152.838 286.906 152.838 287.883C152.838 288.868 152.664 289.76 152.315 290.56C151.973 291.359 151.471 291.992 150.808 292.457C150.151 292.921 149.375 293.154 148.48 293.154C147.667 293.154 146.932 292.942 146.275 292.518C145.626 292.087 145.141 291.496 144.819 290.744V297.245H143.425V282.756ZM148.183 291.923C148.88 291.923 149.475 291.749 149.967 291.4C150.459 291.045 150.832 290.563 151.084 289.955C151.344 289.339 151.474 288.649 151.474 287.883C151.474 287.111 151.348 286.42 151.095 285.812C150.842 285.204 150.466 284.725 149.967 284.376C149.475 284.028 148.88 283.854 148.183 283.854C147.485 283.854 146.874 284.028 146.347 284.376C145.821 284.725 145.414 285.207 145.127 285.822C144.847 286.431 144.707 287.118 144.707 287.883C144.707 288.649 144.847 289.339 145.127 289.955C145.414 290.563 145.821 291.045 146.347 291.4C146.874 291.749 147.485 291.923 148.183 291.923ZM159.657 293.154C158.659 293.154 157.797 292.928 157.073 292.477C156.355 292.019 155.808 291.394 155.432 290.601C155.063 289.808 154.878 288.916 154.878 287.924C154.878 286.947 155.06 286.055 155.422 285.248C155.784 284.435 156.311 283.789 157.001 283.31C157.698 282.832 158.529 282.592 159.493 282.592C160.532 282.592 161.383 282.835 162.046 283.32C162.716 283.799 163.198 284.4 163.492 285.125C163.786 285.843 163.933 286.578 163.933 287.33C163.933 287.507 163.926 287.685 163.912 287.863C163.898 288.041 163.881 288.167 163.861 288.242H156.314C156.369 289.397 156.687 290.3 157.268 290.949C157.849 291.599 158.648 291.923 159.667 291.923C160.289 291.923 160.829 291.828 161.287 291.636C161.752 291.438 162.213 291.1 162.671 290.621L163.615 291.452C163.041 292.053 162.442 292.487 161.82 292.754C161.205 293.021 160.484 293.154 159.657 293.154ZM162.579 287.237C162.593 286.978 162.586 286.762 162.559 286.591C162.518 286.099 162.377 285.638 162.138 285.207C161.906 284.776 161.564 284.428 161.113 284.161C160.668 283.888 160.125 283.751 159.482 283.751C158.874 283.751 158.341 283.898 157.883 284.192C157.425 284.486 157.062 284.896 156.796 285.422C156.536 285.942 156.375 286.547 156.314 287.237H162.579ZM166.722 282.756H168.044V284.899C168.208 284.394 168.458 283.97 168.793 283.628C169.135 283.279 169.514 283.02 169.931 282.849C170.355 282.678 170.779 282.592 171.203 282.592C171.497 282.592 171.78 282.633 172.054 282.715C172.334 282.797 172.583 282.92 172.802 283.084L172.187 284.212C171.825 284.014 171.435 283.915 171.018 283.915C170.526 283.915 170.051 284.052 169.593 284.325C169.142 284.592 168.769 285.016 168.475 285.597C168.181 286.171 168.034 286.896 168.034 287.771V293H166.722V282.756ZM174.874 278.511H176.289V280.613H174.874V278.511ZM174.904 282.756H176.248V293H174.904V282.756ZM183.969 293.154C183.019 293.154 182.167 292.921 181.416 292.457C180.664 291.985 180.076 291.346 179.652 290.539C179.235 289.726 179.026 288.83 179.026 287.853C179.026 286.882 179.235 285.997 179.652 285.197C180.076 284.397 180.664 283.765 181.416 283.3C182.167 282.828 183.019 282.592 183.969 282.592C184.926 282.592 185.78 282.828 186.532 283.3C187.291 283.765 187.882 284.397 188.306 285.197C188.737 285.997 188.952 286.882 188.952 287.853C188.952 288.83 188.737 289.722 188.306 290.529C187.882 291.335 187.291 291.975 186.532 292.446C185.78 292.918 184.926 293.154 183.969 293.154ZM183.969 291.975C184.693 291.975 185.326 291.793 185.866 291.431C186.406 291.062 186.819 290.563 187.106 289.934C187.4 289.305 187.547 288.611 187.547 287.853C187.547 287.094 187.4 286.407 187.106 285.792C186.819 285.169 186.406 284.681 185.866 284.325C185.326 283.963 184.693 283.782 183.969 283.782C183.251 283.782 182.622 283.963 182.082 284.325C181.549 284.681 181.139 285.169 180.852 285.792C180.571 286.407 180.431 287.094 180.431 287.853C180.431 288.618 180.571 289.315 180.852 289.944C181.139 290.566 181.549 291.062 182.082 291.431C182.622 291.793 183.251 291.975 183.969 291.975ZM195.474 293.154C194.571 293.154 193.771 292.918 193.074 292.446C192.384 291.975 191.847 291.339 191.464 290.539C191.088 289.732 190.9 288.84 190.9 287.863C190.9 286.899 191.088 286.017 191.464 285.217C191.847 284.411 192.384 283.771 193.074 283.3C193.765 282.828 194.558 282.592 195.453 282.592C196.26 282.592 196.995 282.808 197.658 283.238C198.321 283.669 198.81 284.26 199.124 285.012V278.511H200.498V293H199.227L199.175 290.672C198.861 291.445 198.372 292.053 197.709 292.498C197.046 292.935 196.301 293.154 195.474 293.154ZM195.771 291.923C196.468 291.923 197.077 291.749 197.596 291.4C198.123 291.045 198.526 290.56 198.806 289.944C199.086 289.329 199.227 288.635 199.227 287.863C199.227 287.097 199.086 286.41 198.806 285.802C198.526 285.187 198.123 284.705 197.596 284.356C197.077 284.007 196.468 283.833 195.771 283.833C195.074 283.833 194.458 284.011 193.925 284.366C193.399 284.715 192.992 285.197 192.705 285.812C192.418 286.427 192.274 287.111 192.274 287.863C192.274 288.622 192.418 289.312 192.705 289.934C192.992 290.549 193.399 291.035 193.925 291.39C194.458 291.746 195.074 291.923 195.771 291.923ZM213.51 293.154C212.512 293.154 211.651 292.928 210.926 292.477C210.208 292.019 209.662 291.394 209.286 290.601C208.917 289.808 208.732 288.916 208.732 287.924C208.732 286.947 208.913 286.055 209.275 285.248C209.638 284.435 210.164 283.789 210.854 283.31C211.552 282.832 212.382 282.592 213.346 282.592C214.385 282.592 215.236 282.835 215.899 283.32C216.569 283.799 217.051 284.4 217.345 285.125C217.639 285.843 217.786 286.578 217.786 287.33C217.786 287.507 217.779 287.685 217.766 287.863C217.752 288.041 217.735 288.167 217.714 288.242H210.167C210.222 289.397 210.54 290.3 211.121 290.949C211.702 291.599 212.502 291.923 213.521 291.923C214.143 291.923 214.683 291.828 215.141 291.636C215.605 291.438 216.067 291.1 216.525 290.621L217.468 291.452C216.894 292.053 216.296 292.487 215.674 292.754C215.059 293.021 214.337 293.154 213.51 293.154ZM216.433 287.237C216.446 286.978 216.439 286.762 216.412 286.591C216.371 286.099 216.231 285.638 215.992 285.207C215.759 284.776 215.417 284.428 214.966 284.161C214.522 283.888 213.979 283.751 213.336 283.751C212.728 283.751 212.194 283.898 211.736 284.192C211.278 284.486 210.916 284.896 210.649 285.422C210.39 285.942 210.229 286.547 210.167 287.237H216.433ZM220.575 282.756H221.929V284.5C222.243 283.884 222.684 283.413 223.251 283.084C223.819 282.756 224.448 282.592 225.138 282.592C225.911 282.592 226.56 282.763 227.086 283.105C227.613 283.44 228.009 283.901 228.276 284.489C228.542 285.077 228.683 285.75 228.696 286.509V293H227.343V286.827C227.343 285.884 227.124 285.152 226.687 284.633C226.249 284.113 225.613 283.854 224.779 283.854C223.897 283.854 223.2 284.124 222.688 284.664C222.182 285.197 221.929 285.956 221.929 286.94V293H220.575V282.756ZM235.833 293.154C234.931 293.154 234.131 292.918 233.434 292.446C232.743 291.975 232.207 291.339 231.824 290.539C231.448 289.732 231.26 288.84 231.26 287.863C231.26 286.899 231.448 286.017 231.824 285.217C232.207 284.411 232.743 283.771 233.434 283.3C234.124 282.828 234.917 282.592 235.812 282.592C236.619 282.592 237.354 282.808 238.017 283.238C238.68 283.669 239.169 284.26 239.483 285.012V278.511H240.857V293H239.586L239.535 290.672C239.22 291.445 238.731 292.053 238.068 292.498C237.405 292.935 236.66 293.154 235.833 293.154ZM236.13 291.923C236.828 291.923 237.436 291.749 237.956 291.4C238.482 291.045 238.885 290.56 239.166 289.944C239.446 289.329 239.586 288.635 239.586 287.863C239.586 287.097 239.446 286.41 239.166 285.802C238.885 285.187 238.482 284.705 237.956 284.356C237.436 284.007 236.828 283.833 236.13 283.833C235.433 283.833 234.818 284.011 234.285 284.366C233.758 284.715 233.352 285.197 233.064 285.812C232.777 286.427 232.634 287.111 232.634 287.863C232.634 288.622 232.777 289.312 233.064 289.934C233.352 290.549 233.758 291.035 234.285 291.39C234.818 291.746 235.433 291.923 236.13 291.923ZM247.594 293.154C246.931 293.154 246.316 293.041 245.749 292.815C245.181 292.583 244.699 292.262 244.303 291.852C243.906 291.441 243.619 290.977 243.441 290.457L244.539 289.975C244.75 290.563 245.113 291.052 245.625 291.441C246.145 291.824 246.781 292.016 247.533 292.016C248.039 292.016 248.469 291.937 248.825 291.78C249.18 291.616 249.447 291.39 249.625 291.103C249.809 290.816 249.901 290.491 249.901 290.129C249.901 289.726 249.782 289.404 249.542 289.165C249.31 288.919 249.02 288.734 248.671 288.611C248.329 288.481 247.854 288.341 247.246 288.191C246.535 288.02 245.96 287.849 245.523 287.678C245.085 287.507 244.713 287.241 244.405 286.878C244.104 286.516 243.954 286.027 243.954 285.412C243.954 284.824 244.108 284.318 244.416 283.895C244.723 283.464 245.14 283.139 245.667 282.92C246.2 282.702 246.798 282.592 247.461 282.592C248.261 282.592 248.968 282.78 249.583 283.156C250.206 283.525 250.698 284.052 251.06 284.735L250.014 285.299C249.754 284.807 249.406 284.417 248.968 284.13C248.531 283.836 248.015 283.689 247.42 283.689C246.982 283.689 246.6 283.754 246.271 283.884C245.95 284.014 245.701 284.199 245.523 284.438C245.345 284.67 245.256 284.937 245.256 285.238C245.256 285.593 245.366 285.88 245.584 286.099C245.803 286.318 246.073 286.489 246.395 286.612C246.723 286.728 247.177 286.861 247.758 287.012C248.497 287.196 249.095 287.384 249.553 287.576C250.018 287.767 250.414 288.061 250.742 288.458C251.07 288.854 251.234 289.391 251.234 290.067C251.234 290.73 251.074 291.294 250.752 291.759C250.431 292.217 249.994 292.566 249.44 292.805C248.893 293.038 248.278 293.154 247.594 293.154Z" fill="#6D7693"/>
<circle cx="140" cy="422" r="34" fill="url(#paint2_linear)"/>
<path d="M139.859 429.223C138.734 429.223 137.715 429.02 136.801 428.613C135.895 428.199 135.172 427.59 134.633 426.785C134.102 425.98 133.836 425.008 133.836 423.867L136.238 423.727C136.238 424.383 136.395 424.949 136.707 425.426C137.02 425.902 137.453 426.27 138.008 426.527C138.562 426.777 139.195 426.902 139.906 426.902C140.562 426.902 141.16 426.793 141.699 426.574C142.246 426.348 142.68 426.016 143 425.578C143.32 425.133 143.48 424.602 143.48 423.984C143.48 423.203 143.266 422.617 142.836 422.227C142.414 421.828 141.895 421.574 141.277 421.465C140.668 421.348 139.941 421.289 139.098 421.289V419.344C139.973 419.344 140.664 419.258 141.172 419.086C141.68 418.906 142.039 418.645 142.25 418.301C142.469 417.957 142.578 417.512 142.578 416.965C142.578 416.457 142.461 416.023 142.227 415.664C141.992 415.305 141.668 415.031 141.254 414.844C140.84 414.656 140.371 414.562 139.848 414.562C138.996 414.562 138.309 414.797 137.785 415.266C137.27 415.734 137.008 416.371 137 417.176L134.621 417.023C134.621 416.047 134.852 415.195 135.312 414.469C135.781 413.742 136.41 413.188 137.199 412.805C137.988 412.414 138.859 412.219 139.812 412.219C140.734 412.219 141.59 412.402 142.379 412.77C143.176 413.129 143.809 413.645 144.277 414.316C144.754 414.988 144.992 415.77 144.992 416.66C144.992 417.457 144.777 418.156 144.348 418.758C143.926 419.359 143.297 419.824 142.461 420.152C143.57 420.418 144.418 420.902 145.004 421.605C145.59 422.309 145.883 423.168 145.883 424.184C145.883 425.238 145.609 426.145 145.062 426.902C144.523 427.66 143.797 428.238 142.883 428.637C141.969 429.027 140.961 429.223 139.859 429.223Z" fill="white"/>
<path d="M86.9565 487.154C85.5073 487.154 84.2837 486.822 83.2856 486.159C82.2944 485.489 81.5527 484.594 81.0605 483.473C80.5684 482.352 80.3223 481.111 80.3223 479.75C80.3223 478.39 80.5684 477.153 81.0605 476.039C81.5527 474.917 82.2944 474.025 83.2856 473.362C84.2837 472.692 85.5073 472.357 86.9565 472.357C88.4126 472.357 89.6396 472.692 90.6377 473.362C91.6357 474.025 92.3809 474.917 92.873 476.039C93.3652 477.153 93.6113 478.39 93.6113 479.75C93.6113 481.111 93.3652 482.352 92.873 483.473C92.3809 484.594 91.6357 485.489 90.6377 486.159C89.6396 486.822 88.4126 487.154 86.9565 487.154ZM86.9565 485.893C88.1255 485.893 89.0962 485.619 89.8687 485.072C90.6411 484.525 91.2119 483.791 91.5811 482.868C91.9502 481.945 92.1348 480.906 92.1348 479.75C92.1348 478.602 91.9502 477.566 91.5811 476.644C91.2119 475.714 90.6377 474.976 89.8584 474.429C89.0859 473.882 88.1187 473.608 86.9565 473.608C85.8013 473.608 84.8374 473.882 84.0649 474.429C83.2925 474.976 82.7217 475.714 82.3525 476.644C81.9834 477.566 81.7988 478.602 81.7988 479.75C81.7988 480.906 81.9834 481.945 82.3525 482.868C82.7217 483.791 83.2925 484.525 84.0649 485.072C84.8374 485.619 85.8013 485.893 86.9565 485.893ZM96.8311 476.756H98.2256V479.022C98.5469 478.271 99.0356 477.679 99.6919 477.249C100.355 476.811 101.093 476.592 101.907 476.592C102.795 476.592 103.568 476.828 104.224 477.3C104.88 477.771 105.379 478.411 105.721 479.217C106.07 480.017 106.244 480.906 106.244 481.883C106.244 482.868 106.07 483.76 105.721 484.56C105.379 485.359 104.877 485.992 104.214 486.457C103.558 486.921 102.782 487.154 101.886 487.154C101.073 487.154 100.338 486.942 99.6816 486.518C99.0322 486.087 98.5469 485.496 98.2256 484.744V491.245H96.8311V476.756ZM101.589 485.923C102.286 485.923 102.881 485.749 103.373 485.4C103.865 485.045 104.238 484.563 104.491 483.955C104.75 483.339 104.88 482.649 104.88 481.883C104.88 481.111 104.754 480.42 104.501 479.812C104.248 479.204 103.872 478.725 103.373 478.376C102.881 478.028 102.286 477.854 101.589 477.854C100.892 477.854 100.28 478.028 99.7534 478.376C99.2271 478.725 98.8203 479.207 98.5332 479.822C98.2529 480.431 98.1128 481.118 98.1128 481.883C98.1128 482.649 98.2529 483.339 98.5332 483.955C98.8203 484.563 99.2271 485.045 99.7534 485.4C100.28 485.749 100.892 485.923 101.589 485.923ZM113.063 487.154C112.065 487.154 111.204 486.928 110.479 486.477C109.761 486.019 109.214 485.394 108.838 484.601C108.469 483.808 108.285 482.916 108.285 481.924C108.285 480.947 108.466 480.055 108.828 479.248C109.19 478.435 109.717 477.789 110.407 477.31C111.104 476.832 111.935 476.592 112.899 476.592C113.938 476.592 114.789 476.835 115.452 477.32C116.122 477.799 116.604 478.4 116.898 479.125C117.192 479.843 117.339 480.578 117.339 481.33C117.339 481.507 117.332 481.685 117.318 481.863C117.305 482.041 117.288 482.167 117.267 482.242H109.72C109.775 483.397 110.093 484.3 110.674 484.949C111.255 485.599 112.055 485.923 113.073 485.923C113.695 485.923 114.235 485.828 114.693 485.636C115.158 485.438 115.62 485.1 116.078 484.621L117.021 485.452C116.447 486.053 115.849 486.487 115.227 486.754C114.611 487.021 113.89 487.154 113.063 487.154ZM115.985 481.237C115.999 480.978 115.992 480.762 115.965 480.591C115.924 480.099 115.784 479.638 115.544 479.207C115.312 478.776 114.97 478.428 114.519 478.161C114.075 477.888 113.531 477.751 112.889 477.751C112.28 477.751 111.747 477.898 111.289 478.192C110.831 478.486 110.469 478.896 110.202 479.422C109.942 479.942 109.782 480.547 109.72 481.237H115.985ZM120.128 476.756H121.481V478.5C121.796 477.884 122.237 477.413 122.804 477.084C123.372 476.756 124 476.592 124.691 476.592C125.463 476.592 126.113 476.763 126.639 477.105C127.166 477.44 127.562 477.901 127.829 478.489C128.095 479.077 128.235 479.75 128.249 480.509V487H126.896V480.827C126.896 479.884 126.677 479.152 126.239 478.633C125.802 478.113 125.166 477.854 124.332 477.854C123.45 477.854 122.753 478.124 122.24 478.664C121.734 479.197 121.481 479.956 121.481 480.94V487H120.128V476.756ZM140.144 487.154C139.234 487.154 138.541 486.894 138.062 486.375C137.59 485.855 137.354 485.106 137.354 484.129V477.905H135.652V476.756H137.375V473.793L138.708 472.798V476.756H141.579V477.905H138.708V483.914C138.708 484.625 138.845 485.144 139.118 485.472C139.398 485.793 139.815 485.954 140.369 485.954C140.752 485.954 141.152 485.872 141.569 485.708L141.589 486.949C141.412 487.003 141.193 487.051 140.933 487.092C140.673 487.133 140.41 487.154 140.144 487.154ZM144.081 476.756H145.404V478.899C145.568 478.394 145.817 477.97 146.152 477.628C146.494 477.279 146.874 477.02 147.291 476.849C147.714 476.678 148.138 476.592 148.562 476.592C148.856 476.592 149.14 476.633 149.413 476.715C149.693 476.797 149.943 476.92 150.162 477.084L149.546 478.212C149.184 478.014 148.794 477.915 148.377 477.915C147.885 477.915 147.41 478.052 146.952 478.325C146.501 478.592 146.128 479.016 145.834 479.597C145.541 480.171 145.394 480.896 145.394 481.771V487H144.081V476.756ZM155.74 476.592C156.608 476.592 157.346 476.76 157.955 477.095C158.563 477.423 159.024 477.898 159.339 478.52C159.66 479.142 159.821 479.884 159.821 480.745V487H158.693L158.601 484.918C158.225 485.643 157.705 486.197 157.042 486.58C156.386 486.962 155.665 487.154 154.878 487.154C154.181 487.154 153.566 487.031 153.033 486.785C152.5 486.532 152.083 486.169 151.782 485.698C151.488 485.226 151.341 484.669 151.341 484.026C151.341 482.078 152.773 481.104 155.637 481.104H158.59V480.981C158.59 479.88 158.368 479.074 157.924 478.561C157.486 478.048 156.762 477.792 155.75 477.792C155.094 477.792 154.526 477.932 154.048 478.212C153.569 478.493 153.146 478.91 152.776 479.463L151.741 478.705C152.253 477.994 152.828 477.464 153.463 477.115C154.099 476.767 154.858 476.592 155.74 476.592ZM155.135 485.995C156.003 485.995 156.734 485.739 157.329 485.226C157.924 484.713 158.344 484.023 158.59 483.155V482.109H155.709C154.718 482.109 153.973 482.28 153.474 482.622C152.975 482.957 152.725 483.438 152.725 484.067C152.725 484.662 152.937 485.134 153.361 485.482C153.785 485.824 154.376 485.995 155.135 485.995ZM166.927 487.154C166.024 487.154 165.225 486.918 164.527 486.446C163.837 485.975 163.3 485.339 162.917 484.539C162.542 483.732 162.354 482.84 162.354 481.863C162.354 480.899 162.542 480.017 162.917 479.217C163.3 478.411 163.837 477.771 164.527 477.3C165.218 476.828 166.011 476.592 166.906 476.592C167.713 476.592 168.448 476.808 169.111 477.238C169.774 477.669 170.263 478.26 170.577 479.012V472.511H171.951V487H170.68L170.628 484.672C170.314 485.445 169.825 486.053 169.162 486.498C168.499 486.935 167.754 487.154 166.927 487.154ZM167.224 485.923C167.921 485.923 168.53 485.749 169.049 485.4C169.576 485.045 169.979 484.56 170.259 483.944C170.54 483.329 170.68 482.635 170.68 481.863C170.68 481.097 170.54 480.41 170.259 479.802C169.979 479.187 169.576 478.705 169.049 478.356C168.53 478.007 167.921 477.833 167.224 477.833C166.527 477.833 165.912 478.011 165.378 478.366C164.852 478.715 164.445 479.197 164.158 479.812C163.871 480.427 163.728 481.111 163.728 481.863C163.728 482.622 163.871 483.312 164.158 483.934C164.445 484.549 164.852 485.035 165.378 485.39C165.912 485.746 166.527 485.923 167.224 485.923ZM175.612 472.511H177.027V474.613H175.612V472.511ZM175.643 476.756H176.986V487H175.643V476.756ZM180.667 476.756H182.021V478.5C182.335 477.884 182.776 477.413 183.343 477.084C183.911 476.756 184.54 476.592 185.23 476.592C186.002 476.592 186.652 476.763 187.178 477.105C187.705 477.44 188.101 477.901 188.368 478.489C188.634 479.077 188.774 479.75 188.788 480.509V487H187.435V480.827C187.435 479.884 187.216 479.152 186.778 478.633C186.341 478.113 185.705 477.854 184.871 477.854C183.989 477.854 183.292 478.124 182.779 478.664C182.273 479.197 182.021 479.956 182.021 480.94V487H180.667V476.756ZM195.997 485.77C196.933 485.913 197.678 486.063 198.232 486.221C198.792 486.371 199.268 486.634 199.657 487.01C200.047 487.386 200.242 487.916 200.242 488.6C200.242 489.249 200.061 489.806 199.698 490.271C199.336 490.743 198.83 491.098 198.181 491.337C197.538 491.583 196.8 491.707 195.966 491.707C195.016 491.707 194.192 491.56 193.495 491.266C192.797 490.972 192.264 490.565 191.895 490.045C191.533 489.526 191.352 488.928 191.352 488.251C191.352 488.087 191.362 487.937 191.382 487.8L192.931 486.385C192.507 486.193 192.175 485.94 191.936 485.626C191.704 485.312 191.587 484.912 191.587 484.426C191.587 484.002 191.68 483.63 191.864 483.309C192.049 482.987 192.326 482.7 192.695 482.447C192.408 482.14 192.186 481.788 192.028 481.391C191.878 480.995 191.803 480.571 191.803 480.12C191.803 479.443 191.974 478.838 192.315 478.305C192.657 477.765 193.122 477.344 193.71 477.043C194.305 476.743 194.964 476.592 195.689 476.592C196.188 476.592 196.656 476.667 197.094 476.818C197.538 476.961 197.931 477.17 198.273 477.443L199.667 476.213L200.385 477.095L199.011 478.253C199.38 478.828 199.565 479.474 199.565 480.191C199.565 480.875 199.394 481.48 199.052 482.006C198.717 482.533 198.256 482.943 197.668 483.237C197.087 483.524 196.438 483.667 195.72 483.667C194.92 483.667 194.202 483.49 193.566 483.134C193.026 483.374 192.756 483.732 192.756 484.211C192.756 484.566 192.89 484.843 193.156 485.042C193.423 485.233 193.758 485.373 194.161 485.462C194.564 485.544 195.176 485.646 195.997 485.77ZM195.73 477.669C195.231 477.669 194.79 477.775 194.407 477.987C194.024 478.192 193.727 478.482 193.515 478.858C193.31 479.228 193.208 479.651 193.208 480.13C193.208 480.602 193.31 481.022 193.515 481.391C193.72 481.753 194.011 482.037 194.387 482.242C194.77 482.447 195.214 482.55 195.72 482.55C196.226 482.55 196.667 482.451 197.042 482.252C197.425 482.047 197.716 481.764 197.914 481.401C198.119 481.032 198.222 480.612 198.222 480.14C198.222 479.655 198.119 479.228 197.914 478.858C197.709 478.482 197.418 478.192 197.042 477.987C196.667 477.775 196.229 477.669 195.73 477.669ZM195.956 490.63C196.872 490.63 197.6 490.462 198.14 490.127C198.68 489.792 198.95 489.328 198.95 488.733C198.95 488.323 198.81 488.005 198.529 487.779C198.249 487.554 197.89 487.39 197.453 487.287C197.015 487.185 196.376 487.075 195.535 486.959C195.241 486.918 194.937 486.874 194.623 486.826C194.308 486.771 194.024 486.716 193.771 486.662L192.582 488.087C192.582 488.169 192.589 488.278 192.603 488.415C192.671 489.119 193.009 489.663 193.618 490.045C194.226 490.435 195.005 490.63 195.956 490.63Z" fill="#6D7693"/>
<circle cx="140" cy="616" r="34" fill="url(#paint3_linear)"/>
<path d="M146.457 616.789V619.098H143.797V623H141.324V619.098H133.449V617.598L141.652 606.441H143.797V616.789H146.457ZM141.324 616.789V610.25L136.672 616.789H141.324Z" fill="white"/>
<path d="M70.9502 681.154C69.542 681.154 68.3457 680.839 67.3613 680.21C66.377 679.582 65.6353 678.707 65.1362 677.585C64.6372 676.464 64.3877 675.179 64.3877 673.73C64.3877 672.274 64.6372 670.992 65.1362 669.885C65.6421 668.771 66.3906 667.902 67.3818 667.28C68.3799 666.651 69.5967 666.337 71.0322 666.337C72.4609 666.337 73.6675 666.665 74.6519 667.321C75.6431 667.978 76.4053 668.955 76.9385 670.254L75.6157 670.787C75.2603 669.721 74.6997 668.938 73.9341 668.439C73.1753 667.94 72.2046 667.69 71.022 667.69C69.8804 667.69 68.9165 667.937 68.1304 668.429C67.3511 668.914 66.7632 669.608 66.3667 670.51C65.9771 671.406 65.7822 672.462 65.7822 673.679C65.7822 674.868 65.9634 675.924 66.3257 676.847C66.6948 677.763 67.2656 678.488 68.0381 679.021C68.8105 679.547 69.7812 679.811 70.9502 679.811C72.0918 679.811 73.0454 679.558 73.811 679.052C74.5835 678.539 75.1953 677.746 75.6465 676.673L76.959 677.206C76.3848 678.505 75.5918 679.489 74.5801 680.159C73.5684 680.822 72.3584 681.154 70.9502 681.154ZM81.4194 681.154C80.7222 681.154 80.2334 680.962 79.9531 680.58C79.6729 680.19 79.5327 679.609 79.5327 678.836V666.511H80.8862V678.488C80.8862 678.795 80.9102 679.052 80.958 679.257C81.0127 679.462 81.1221 679.626 81.2861 679.749C81.4502 679.872 81.6929 679.934 82.0142 679.934C82.2261 679.934 82.5029 679.899 82.8447 679.831L82.8652 680.99C82.332 681.099 81.8501 681.154 81.4194 681.154ZM85.1929 666.511H86.6079V668.613H85.1929V666.511ZM85.2236 670.756H86.5669V681H85.2236V670.756ZM90.6069 671.905H88.8228V670.756H90.6069V669.792C90.6069 669.102 90.7744 668.497 91.1094 667.978C91.4512 667.458 91.916 667.058 92.5039 666.778C93.0918 666.498 93.748 666.357 94.4727 666.357C95.4092 666.357 96.2363 666.58 96.9541 667.024C97.4941 666.58 98.2017 666.357 99.0767 666.357C99.603 666.357 100.129 666.484 100.656 666.737L100.205 667.854C99.8218 667.663 99.4868 667.567 99.1997 667.567C98.0239 667.567 97.436 668.142 97.436 669.29V670.756H100.625V671.905H97.436V681H96.0312V671.905H91.9502V681H90.6069V671.905ZM96.0415 670.756V669.167C96.0415 668.675 96.1475 668.258 96.3594 667.916C95.833 667.615 95.2246 667.465 94.5342 667.465C93.7275 667.465 93.0952 667.68 92.6372 668.111C92.1792 668.535 91.9502 669.102 91.9502 669.813V670.756H96.0415ZM108.172 670.756H109.566V673.022C109.888 672.271 110.376 671.679 111.033 671.249C111.696 670.811 112.434 670.592 113.248 670.592C114.136 670.592 114.909 670.828 115.565 671.3C116.221 671.771 116.72 672.411 117.062 673.217C117.411 674.017 117.585 674.906 117.585 675.883C117.585 676.868 117.411 677.76 117.062 678.56C116.72 679.359 116.218 679.992 115.555 680.457C114.898 680.921 114.123 681.154 113.227 681.154C112.414 681.154 111.679 680.942 111.022 680.518C110.373 680.087 109.888 679.496 109.566 678.744V685.245H108.172V670.756ZM112.93 679.923C113.627 679.923 114.222 679.749 114.714 679.4C115.206 679.045 115.579 678.563 115.832 677.955C116.091 677.339 116.221 676.649 116.221 675.883C116.221 675.111 116.095 674.42 115.842 673.812C115.589 673.204 115.213 672.725 114.714 672.376C114.222 672.028 113.627 671.854 112.93 671.854C112.232 671.854 111.621 672.028 111.094 672.376C110.568 672.725 110.161 673.207 109.874 673.822C109.594 674.431 109.454 675.118 109.454 675.883C109.454 676.649 109.594 677.339 109.874 677.955C110.161 678.563 110.568 679.045 111.094 679.4C111.621 679.749 112.232 679.923 112.93 679.923ZM124.404 681.154C123.406 681.154 122.544 680.928 121.82 680.477C121.102 680.019 120.555 679.394 120.179 678.601C119.81 677.808 119.625 676.916 119.625 675.924C119.625 674.947 119.807 674.055 120.169 673.248C120.531 672.435 121.058 671.789 121.748 671.31C122.445 670.832 123.276 670.592 124.24 670.592C125.279 670.592 126.13 670.835 126.793 671.32C127.463 671.799 127.945 672.4 128.239 673.125C128.533 673.843 128.68 674.578 128.68 675.33C128.68 675.507 128.673 675.685 128.659 675.863C128.646 676.041 128.628 676.167 128.608 676.242H121.061C121.116 677.397 121.434 678.3 122.015 678.949C122.596 679.599 123.396 679.923 124.414 679.923C125.036 679.923 125.576 679.828 126.034 679.636C126.499 679.438 126.96 679.1 127.418 678.621L128.362 679.452C127.788 680.053 127.189 680.487 126.567 680.754C125.952 681.021 125.231 681.154 124.404 681.154ZM127.326 675.237C127.34 674.978 127.333 674.762 127.306 674.591C127.265 674.099 127.125 673.638 126.885 673.207C126.653 672.776 126.311 672.428 125.86 672.161C125.416 671.888 124.872 671.751 124.229 671.751C123.621 671.751 123.088 671.898 122.63 672.192C122.172 672.486 121.81 672.896 121.543 673.422C121.283 673.942 121.123 674.547 121.061 675.237H127.326ZM131.469 670.756H132.792V672.899C132.956 672.394 133.205 671.97 133.54 671.628C133.882 671.279 134.261 671.02 134.678 670.849C135.102 670.678 135.526 670.592 135.95 670.592C136.244 670.592 136.527 670.633 136.801 670.715C137.081 670.797 137.331 670.92 137.549 671.084L136.934 672.212C136.572 672.014 136.182 671.915 135.765 671.915C135.273 671.915 134.798 672.052 134.34 672.325C133.889 672.592 133.516 673.016 133.222 673.597C132.928 674.171 132.781 674.896 132.781 675.771V681H131.469V670.756ZM139.621 666.511H141.036V668.613H139.621V666.511ZM139.651 670.756H140.995V681H139.651V670.756ZM148.716 681.154C147.766 681.154 146.915 680.921 146.163 680.457C145.411 679.985 144.823 679.346 144.399 678.539C143.982 677.726 143.773 676.83 143.773 675.853C143.773 674.882 143.982 673.997 144.399 673.197C144.823 672.397 145.411 671.765 146.163 671.3C146.915 670.828 147.766 670.592 148.716 670.592C149.673 670.592 150.527 670.828 151.279 671.3C152.038 671.765 152.629 672.397 153.053 673.197C153.484 673.997 153.699 674.882 153.699 675.853C153.699 676.83 153.484 677.722 153.053 678.529C152.629 679.335 152.038 679.975 151.279 680.446C150.527 680.918 149.673 681.154 148.716 681.154ZM148.716 679.975C149.44 679.975 150.073 679.793 150.613 679.431C151.153 679.062 151.566 678.563 151.854 677.934C152.147 677.305 152.294 676.611 152.294 675.853C152.294 675.094 152.147 674.407 151.854 673.792C151.566 673.169 151.153 672.681 150.613 672.325C150.073 671.963 149.44 671.782 148.716 671.782C147.998 671.782 147.369 671.963 146.829 672.325C146.296 672.681 145.886 673.169 145.599 673.792C145.318 674.407 145.178 675.094 145.178 675.853C145.178 676.618 145.318 677.315 145.599 677.944C145.886 678.566 146.296 679.062 146.829 679.431C147.369 679.793 147.998 679.975 148.716 679.975ZM160.221 681.154C159.318 681.154 158.519 680.918 157.821 680.446C157.131 679.975 156.594 679.339 156.211 678.539C155.835 677.732 155.647 676.84 155.647 675.863C155.647 674.899 155.835 674.017 156.211 673.217C156.594 672.411 157.131 671.771 157.821 671.3C158.512 670.828 159.305 670.592 160.2 670.592C161.007 670.592 161.742 670.808 162.405 671.238C163.068 671.669 163.557 672.26 163.871 673.012V666.511H165.245V681H163.974L163.922 678.672C163.608 679.445 163.119 680.053 162.456 680.498C161.793 680.935 161.048 681.154 160.221 681.154ZM160.518 679.923C161.215 679.923 161.824 679.749 162.343 679.4C162.87 679.045 163.273 678.56 163.553 677.944C163.833 677.329 163.974 676.635 163.974 675.863C163.974 675.097 163.833 674.41 163.553 673.802C163.273 673.187 162.87 672.705 162.343 672.356C161.824 672.007 161.215 671.833 160.518 671.833C159.821 671.833 159.206 672.011 158.672 672.366C158.146 672.715 157.739 673.197 157.452 673.812C157.165 674.427 157.021 675.111 157.021 675.863C157.021 676.622 157.165 677.312 157.452 677.934C157.739 678.549 158.146 679.035 158.672 679.39C159.206 679.746 159.821 679.923 160.518 679.923ZM178.257 681.154C177.259 681.154 176.398 680.928 175.673 680.477C174.956 680.019 174.409 679.394 174.033 678.601C173.664 677.808 173.479 676.916 173.479 675.924C173.479 674.947 173.66 674.055 174.022 673.248C174.385 672.435 174.911 671.789 175.602 671.31C176.299 670.832 177.129 670.592 178.093 670.592C179.132 670.592 179.983 670.835 180.646 671.32C181.316 671.799 181.798 672.4 182.092 673.125C182.386 673.843 182.533 674.578 182.533 675.33C182.533 675.507 182.526 675.685 182.513 675.863C182.499 676.041 182.482 676.167 182.461 676.242H174.915C174.969 677.397 175.287 678.3 175.868 678.949C176.449 679.599 177.249 679.923 178.268 679.923C178.89 679.923 179.43 679.828 179.888 679.636C180.353 679.438 180.814 679.1 181.272 678.621L182.215 679.452C181.641 680.053 181.043 680.487 180.421 680.754C179.806 681.021 179.084 681.154 178.257 681.154ZM181.18 675.237C181.193 674.978 181.187 674.762 181.159 674.591C181.118 674.099 180.978 673.638 180.739 673.207C180.506 672.776 180.165 672.428 179.713 672.161C179.269 671.888 178.726 671.751 178.083 671.751C177.475 671.751 176.941 671.898 176.483 672.192C176.025 672.486 175.663 672.896 175.396 673.422C175.137 673.942 174.976 674.547 174.915 675.237H181.18ZM185.322 670.756H186.676V672.5C186.99 671.884 187.431 671.413 187.999 671.084C188.566 670.756 189.195 670.592 189.885 670.592C190.658 670.592 191.307 670.763 191.833 671.105C192.36 671.44 192.756 671.901 193.023 672.489C193.29 673.077 193.43 673.75 193.443 674.509V681H192.09V674.827C192.09 673.884 191.871 673.152 191.434 672.633C190.996 672.113 190.36 671.854 189.526 671.854C188.645 671.854 187.947 672.124 187.435 672.664C186.929 673.197 186.676 673.956 186.676 674.94V681H185.322V670.756ZM200.58 681.154C199.678 681.154 198.878 680.918 198.181 680.446C197.49 679.975 196.954 679.339 196.571 678.539C196.195 677.732 196.007 676.84 196.007 675.863C196.007 674.899 196.195 674.017 196.571 673.217C196.954 672.411 197.49 671.771 198.181 671.3C198.871 670.828 199.664 670.592 200.56 670.592C201.366 670.592 202.101 670.808 202.764 671.238C203.427 671.669 203.916 672.26 204.23 673.012V666.511H205.604V681H204.333L204.282 678.672C203.967 679.445 203.479 680.053 202.815 680.498C202.152 680.935 201.407 681.154 200.58 681.154ZM200.877 679.923C201.575 679.923 202.183 679.749 202.703 679.4C203.229 679.045 203.632 678.56 203.913 677.944C204.193 677.329 204.333 676.635 204.333 675.863C204.333 675.097 204.193 674.41 203.913 673.802C203.632 673.187 203.229 672.705 202.703 672.356C202.183 672.007 201.575 671.833 200.877 671.833C200.18 671.833 199.565 672.011 199.032 672.366C198.505 672.715 198.099 673.197 197.812 673.812C197.524 674.427 197.381 675.111 197.381 675.863C197.381 676.622 197.524 677.312 197.812 677.934C198.099 678.549 198.505 679.035 199.032 679.39C199.565 679.746 200.18 679.923 200.877 679.923ZM212.341 681.154C211.678 681.154 211.063 681.041 210.496 680.815C209.928 680.583 209.446 680.262 209.05 679.852C208.653 679.441 208.366 678.977 208.188 678.457L209.286 677.975C209.498 678.563 209.86 679.052 210.373 679.441C210.892 679.824 211.528 680.016 212.28 680.016C212.786 680.016 213.216 679.937 213.572 679.78C213.927 679.616 214.194 679.39 214.372 679.103C214.556 678.816 214.648 678.491 214.648 678.129C214.648 677.726 214.529 677.404 214.29 677.165C214.057 676.919 213.767 676.734 213.418 676.611C213.076 676.481 212.601 676.341 211.993 676.191C211.282 676.02 210.708 675.849 210.27 675.678C209.833 675.507 209.46 675.241 209.152 674.878C208.852 674.516 208.701 674.027 208.701 673.412C208.701 672.824 208.855 672.318 209.163 671.895C209.47 671.464 209.887 671.139 210.414 670.92C210.947 670.702 211.545 670.592 212.208 670.592C213.008 670.592 213.715 670.78 214.331 671.156C214.953 671.525 215.445 672.052 215.807 672.735L214.761 673.299C214.501 672.807 214.153 672.417 213.715 672.13C213.278 671.836 212.762 671.689 212.167 671.689C211.729 671.689 211.347 671.754 211.019 671.884C210.697 672.014 210.448 672.199 210.27 672.438C210.092 672.67 210.003 672.937 210.003 673.238C210.003 673.593 210.113 673.88 210.332 674.099C210.55 674.318 210.82 674.489 211.142 674.612C211.47 674.728 211.924 674.861 212.505 675.012C213.244 675.196 213.842 675.384 214.3 675.576C214.765 675.767 215.161 676.061 215.489 676.458C215.817 676.854 215.981 677.391 215.981 678.067C215.981 678.73 215.821 679.294 215.5 679.759C215.178 680.217 214.741 680.566 214.187 680.805C213.64 681.038 213.025 681.154 212.341 681.154Z" fill="#6D7693"/>
<circle cx="140" cy="810" r="34" fill="url(#paint4_linear)"/>
<path d="M140.316 805.727C141.324 805.727 142.25 805.98 143.094 806.488C143.945 806.996 144.617 807.688 145.109 808.562C145.609 809.43 145.859 810.375 145.859 811.398C145.859 812.43 145.59 813.395 145.051 814.293C144.512 815.184 143.785 815.895 142.871 816.426C141.957 816.957 140.969 817.223 139.906 817.223C138.953 817.223 138.066 817.008 137.246 816.578C136.434 816.141 135.746 815.547 135.184 814.797C134.629 814.047 134.25 813.207 134.047 812.277L136.391 811.633C136.586 812.578 136.977 813.367 137.562 814C138.148 814.625 138.93 814.938 139.906 814.938C140.547 814.938 141.125 814.773 141.641 814.445C142.156 814.109 142.559 813.668 142.848 813.121C143.145 812.574 143.293 811.992 143.293 811.375C143.293 810.75 143.156 810.18 142.883 809.664C142.617 809.148 142.23 808.742 141.723 808.445C141.215 808.141 140.625 807.988 139.953 807.988C139.352 807.988 138.773 808.141 138.219 808.445C137.664 808.742 137.211 809.156 136.859 809.688L134.539 809.09L136.121 800.441H145.098V802.762H138.113L137.398 806.594C138.328 806.016 139.301 805.727 140.316 805.727Z" fill="white"/>
<path d="M61.4243 860.511L55.7026 875H54.5645L48.8223 860.511H50.3706L55.1387 872.857L59.8862 860.511H61.4243ZM66.6333 875.154C65.6353 875.154 64.7739 874.928 64.0493 874.477C63.3315 874.019 62.7847 873.394 62.4087 872.601C62.0396 871.808 61.855 870.916 61.855 869.924C61.855 868.947 62.0361 868.055 62.3984 867.248C62.7607 866.435 63.2871 865.789 63.9775 865.31C64.6748 864.832 65.5054 864.592 66.4692 864.592C67.5083 864.592 68.3594 864.835 69.0225 865.32C69.6924 865.799 70.1743 866.4 70.4683 867.125C70.7622 867.843 70.9092 868.578 70.9092 869.33C70.9092 869.507 70.9023 869.685 70.8887 869.863C70.875 870.041 70.8579 870.167 70.8374 870.242H63.2905C63.3452 871.397 63.6631 872.3 64.2441 872.949C64.8252 873.599 65.625 873.923 66.6436 873.923C67.2656 873.923 67.8057 873.828 68.2637 873.636C68.7285 873.438 69.1899 873.1 69.6479 872.621L70.5913 873.452C70.0171 874.053 69.4189 874.487 68.7969 874.754C68.1816 875.021 67.4604 875.154 66.6333 875.154ZM69.5557 869.237C69.5693 868.978 69.5625 868.762 69.5352 868.591C69.4941 868.099 69.354 867.638 69.1147 867.207C68.8823 866.776 68.5405 866.428 68.0894 866.161C67.645 865.888 67.1016 865.751 66.459 865.751C65.8506 865.751 65.3174 865.898 64.8594 866.192C64.4014 866.486 64.0391 866.896 63.7725 867.422C63.5127 867.942 63.3521 868.547 63.2905 869.237H69.5557ZM76.7437 875.154C76.0806 875.154 75.4653 875.041 74.8979 874.815C74.3306 874.583 73.8486 874.262 73.4521 873.852C73.0557 873.441 72.7686 872.977 72.5908 872.457L73.688 871.975C73.8999 872.563 74.2622 873.052 74.7749 873.441C75.2944 873.824 75.9302 874.016 76.6821 874.016C77.188 874.016 77.6187 873.937 77.9741 873.78C78.3296 873.616 78.5962 873.39 78.7739 873.103C78.9585 872.816 79.0508 872.491 79.0508 872.129C79.0508 871.726 78.9312 871.404 78.6919 871.165C78.4595 870.919 78.1689 870.734 77.8203 870.611C77.4785 870.481 77.0034 870.341 76.395 870.191C75.6841 870.02 75.1099 869.849 74.6724 869.678C74.2349 869.507 73.8623 869.241 73.5547 868.878C73.2539 868.516 73.1035 868.027 73.1035 867.412C73.1035 866.824 73.2573 866.318 73.5649 865.895C73.8726 865.464 74.2896 865.139 74.8159 864.92C75.3491 864.702 75.9473 864.592 76.6104 864.592C77.4102 864.592 78.1177 864.78 78.7329 865.156C79.355 865.525 79.8472 866.052 80.2095 866.735L79.1636 867.299C78.9038 866.807 78.5552 866.417 78.1177 866.13C77.6802 865.836 77.1641 865.689 76.5693 865.689C76.1318 865.689 75.749 865.754 75.4209 865.884C75.0996 866.014 74.8501 866.199 74.6724 866.438C74.4946 866.67 74.4058 866.937 74.4058 867.238C74.4058 867.593 74.5151 867.88 74.7339 868.099C74.9526 868.318 75.2227 868.489 75.5439 868.612C75.8721 868.728 76.3267 868.861 76.9077 869.012C77.646 869.196 78.2441 869.384 78.7021 869.576C79.167 869.767 79.5635 870.061 79.8916 870.458C80.2197 870.854 80.3838 871.391 80.3838 872.067C80.3838 872.73 80.2231 873.294 79.9019 873.759C79.5806 874.217 79.1431 874.566 78.5894 874.805C78.0425 875.038 77.4272 875.154 76.7437 875.154ZM86.3311 875.154C85.4219 875.154 84.728 874.894 84.2495 874.375C83.7778 873.855 83.542 873.106 83.542 872.129V865.905H81.8398V864.756H83.5625V861.793L84.8955 860.798V864.756H87.7666V865.905H84.8955V871.914C84.8955 872.625 85.0322 873.144 85.3057 873.472C85.5859 873.793 86.0029 873.954 86.5566 873.954C86.9395 873.954 87.3394 873.872 87.7563 873.708L87.7769 874.949C87.5991 875.003 87.3804 875.051 87.1206 875.092C86.8608 875.133 86.5977 875.154 86.3311 875.154ZM90.4224 860.511H91.8374V862.613H90.4224V860.511ZM90.4531 864.756H91.7964V875H90.4531V864.756ZM95.4775 864.756H96.8311V866.5C97.1455 865.884 97.5864 865.413 98.1538 865.084C98.7212 864.756 99.3501 864.592 100.041 864.592C100.813 864.592 101.462 864.763 101.989 865.105C102.515 865.44 102.912 865.901 103.178 866.489C103.445 867.077 103.585 867.75 103.599 868.509V875H102.245V868.827C102.245 867.884 102.026 867.152 101.589 866.633C101.151 866.113 100.516 865.854 99.6816 865.854C98.7998 865.854 98.1025 866.124 97.5898 866.664C97.084 867.197 96.8311 867.956 96.8311 868.94V875H95.4775V864.756ZM110.807 873.77C111.744 873.913 112.489 874.063 113.042 874.221C113.603 874.371 114.078 874.634 114.468 875.01C114.857 875.386 115.052 875.916 115.052 876.6C115.052 877.249 114.871 877.806 114.509 878.271C114.146 878.743 113.641 879.098 112.991 879.337C112.349 879.583 111.61 879.707 110.776 879.707C109.826 879.707 109.002 879.56 108.305 879.266C107.608 878.972 107.075 878.565 106.706 878.045C106.343 877.526 106.162 876.928 106.162 876.251C106.162 876.087 106.172 875.937 106.193 875.8L107.741 874.385C107.317 874.193 106.986 873.94 106.747 873.626C106.514 873.312 106.398 872.912 106.398 872.426C106.398 872.002 106.49 871.63 106.675 871.309C106.859 870.987 107.136 870.7 107.505 870.447C107.218 870.14 106.996 869.788 106.839 869.391C106.688 868.995 106.613 868.571 106.613 868.12C106.613 867.443 106.784 866.838 107.126 866.305C107.468 865.765 107.933 865.344 108.521 865.043C109.115 864.743 109.775 864.592 110.5 864.592C110.999 864.592 111.467 864.667 111.904 864.818C112.349 864.961 112.742 865.17 113.083 865.443L114.478 864.213L115.196 865.095L113.822 866.253C114.191 866.828 114.375 867.474 114.375 868.191C114.375 868.875 114.205 869.48 113.863 870.006C113.528 870.533 113.066 870.943 112.479 871.237C111.897 871.524 111.248 871.667 110.53 871.667C109.73 871.667 109.013 871.49 108.377 871.134C107.837 871.374 107.567 871.732 107.567 872.211C107.567 872.566 107.7 872.843 107.967 873.042C108.233 873.233 108.568 873.373 108.972 873.462C109.375 873.544 109.987 873.646 110.807 873.77ZM110.541 865.669C110.042 865.669 109.601 865.775 109.218 865.987C108.835 866.192 108.538 866.482 108.326 866.858C108.121 867.228 108.018 867.651 108.018 868.13C108.018 868.602 108.121 869.022 108.326 869.391C108.531 869.753 108.821 870.037 109.197 870.242C109.58 870.447 110.024 870.55 110.53 870.55C111.036 870.55 111.477 870.451 111.853 870.252C112.236 870.047 112.526 869.764 112.725 869.401C112.93 869.032 113.032 868.612 113.032 868.14C113.032 867.655 112.93 867.228 112.725 866.858C112.52 866.482 112.229 866.192 111.853 865.987C111.477 865.775 111.04 865.669 110.541 865.669ZM110.766 878.63C111.682 878.63 112.41 878.462 112.95 878.127C113.49 877.792 113.76 877.328 113.76 876.733C113.76 876.323 113.62 876.005 113.34 875.779C113.06 875.554 112.701 875.39 112.263 875.287C111.826 875.185 111.187 875.075 110.346 874.959C110.052 874.918 109.748 874.874 109.433 874.826C109.119 874.771 108.835 874.716 108.582 874.662L107.393 876.087C107.393 876.169 107.399 876.278 107.413 876.415C107.481 877.119 107.82 877.663 108.428 878.045C109.037 878.435 109.816 878.63 110.766 878.63ZM123.061 864.756H124.455V867.022C124.776 866.271 125.265 865.679 125.921 865.249C126.584 864.811 127.323 864.592 128.136 864.592C129.025 864.592 129.797 864.828 130.454 865.3C131.11 865.771 131.609 866.411 131.951 867.217C132.299 868.017 132.474 868.906 132.474 869.883C132.474 870.868 132.299 871.76 131.951 872.56C131.609 873.359 131.106 873.992 130.443 874.457C129.787 874.921 129.011 875.154 128.116 875.154C127.302 875.154 126.567 874.942 125.911 874.518C125.262 874.087 124.776 873.496 124.455 872.744V879.245H123.061V864.756ZM127.818 873.923C128.516 873.923 129.11 873.749 129.603 873.4C130.095 873.045 130.467 872.563 130.72 871.955C130.98 871.339 131.11 870.649 131.11 869.883C131.11 869.111 130.983 868.42 130.73 867.812C130.478 867.204 130.102 866.725 129.603 866.376C129.11 866.028 128.516 865.854 127.818 865.854C127.121 865.854 126.509 866.028 125.983 866.376C125.457 866.725 125.05 867.207 124.763 867.822C124.482 868.431 124.342 869.118 124.342 869.883C124.342 870.649 124.482 871.339 124.763 871.955C125.05 872.563 125.457 873.045 125.983 873.4C126.509 873.749 127.121 873.923 127.818 873.923ZM139.292 875.154C138.294 875.154 137.433 874.928 136.708 874.477C135.991 874.019 135.444 873.394 135.068 872.601C134.699 871.808 134.514 870.916 134.514 869.924C134.514 868.947 134.695 868.055 135.058 867.248C135.42 866.435 135.946 865.789 136.637 865.31C137.334 864.832 138.165 864.592 139.128 864.592C140.167 864.592 141.019 864.835 141.682 865.32C142.352 865.799 142.833 866.4 143.127 867.125C143.421 867.843 143.568 868.578 143.568 869.33C143.568 869.507 143.562 869.685 143.548 869.863C143.534 870.041 143.517 870.167 143.497 870.242H135.95C136.004 871.397 136.322 872.3 136.903 872.949C137.484 873.599 138.284 873.923 139.303 873.923C139.925 873.923 140.465 873.828 140.923 873.636C141.388 873.438 141.849 873.1 142.307 872.621L143.25 873.452C142.676 874.053 142.078 874.487 141.456 874.754C140.841 875.021 140.12 875.154 139.292 875.154ZM142.215 869.237C142.229 868.978 142.222 868.762 142.194 868.591C142.153 868.099 142.013 867.638 141.774 867.207C141.542 866.776 141.2 866.428 140.749 866.161C140.304 865.888 139.761 865.751 139.118 865.751C138.51 865.751 137.977 865.898 137.519 866.192C137.061 866.486 136.698 866.896 136.432 867.422C136.172 867.942 136.011 868.547 135.95 869.237H142.215ZM146.357 864.756H147.68V866.899C147.844 866.394 148.094 865.97 148.429 865.628C148.771 865.279 149.15 865.02 149.567 864.849C149.991 864.678 150.415 864.592 150.838 864.592C151.132 864.592 151.416 864.633 151.689 864.715C151.97 864.797 152.219 864.92 152.438 865.084L151.823 866.212C151.46 866.014 151.071 865.915 150.654 865.915C150.162 865.915 149.687 866.052 149.229 866.325C148.777 866.592 148.405 867.016 148.111 867.597C147.817 868.171 147.67 868.896 147.67 869.771V875H146.357V864.756ZM154.509 860.511H155.924V862.613H154.509V860.511ZM154.54 864.756H155.883V875H154.54V864.756ZM163.604 875.154C162.654 875.154 161.803 874.921 161.051 874.457C160.299 873.985 159.711 873.346 159.288 872.539C158.871 871.726 158.662 870.83 158.662 869.853C158.662 868.882 158.871 867.997 159.288 867.197C159.711 866.397 160.299 865.765 161.051 865.3C161.803 864.828 162.654 864.592 163.604 864.592C164.562 864.592 165.416 864.828 166.168 865.3C166.927 865.765 167.518 866.397 167.942 867.197C168.373 867.997 168.588 868.882 168.588 869.853C168.588 870.83 168.373 871.722 167.942 872.529C167.518 873.335 166.927 873.975 166.168 874.446C165.416 874.918 164.562 875.154 163.604 875.154ZM163.604 873.975C164.329 873.975 164.961 873.793 165.501 873.431C166.042 873.062 166.455 872.563 166.742 871.934C167.036 871.305 167.183 870.611 167.183 869.853C167.183 869.094 167.036 868.407 166.742 867.792C166.455 867.169 166.042 866.681 165.501 866.325C164.961 865.963 164.329 865.782 163.604 865.782C162.887 865.782 162.258 865.963 161.718 866.325C161.185 866.681 160.774 867.169 160.487 867.792C160.207 868.407 160.067 869.094 160.067 869.853C160.067 870.618 160.207 871.315 160.487 871.944C160.774 872.566 161.185 873.062 161.718 873.431C162.258 873.793 162.887 873.975 163.604 873.975ZM175.109 875.154C174.207 875.154 173.407 874.918 172.71 874.446C172.02 873.975 171.483 873.339 171.1 872.539C170.724 871.732 170.536 870.84 170.536 869.863C170.536 868.899 170.724 868.017 171.1 867.217C171.483 866.411 172.02 865.771 172.71 865.3C173.4 864.828 174.193 864.592 175.089 864.592C175.896 864.592 176.63 864.808 177.293 865.238C177.957 865.669 178.445 866.26 178.76 867.012V860.511H180.134V875H178.862L178.811 872.672C178.497 873.445 178.008 874.053 177.345 874.498C176.682 874.935 175.937 875.154 175.109 875.154ZM175.407 873.923C176.104 873.923 176.712 873.749 177.232 873.4C177.758 873.045 178.162 872.56 178.442 871.944C178.722 871.329 178.862 870.635 178.862 869.863C178.862 869.097 178.722 868.41 178.442 867.802C178.162 867.187 177.758 866.705 177.232 866.356C176.712 866.007 176.104 865.833 175.407 865.833C174.709 865.833 174.094 866.011 173.561 866.366C173.035 866.715 172.628 867.197 172.341 867.812C172.054 868.427 171.91 869.111 171.91 869.863C171.91 870.622 172.054 871.312 172.341 871.934C172.628 872.549 173.035 873.035 173.561 873.39C174.094 873.746 174.709 873.923 175.407 873.923ZM193.146 875.154C192.148 875.154 191.287 874.928 190.562 874.477C189.844 874.019 189.297 873.394 188.921 872.601C188.552 871.808 188.368 870.916 188.368 869.924C188.368 868.947 188.549 868.055 188.911 867.248C189.273 866.435 189.8 865.789 190.49 865.31C191.188 864.832 192.018 864.592 192.982 864.592C194.021 864.592 194.872 864.835 195.535 865.32C196.205 865.799 196.687 866.4 196.981 867.125C197.275 867.843 197.422 868.578 197.422 869.33C197.422 869.507 197.415 869.685 197.401 869.863C197.388 870.041 197.371 870.167 197.35 870.242H189.803C189.858 871.397 190.176 872.3 190.757 872.949C191.338 873.599 192.138 873.923 193.156 873.923C193.778 873.923 194.318 873.828 194.776 873.636C195.241 873.438 195.703 873.1 196.161 872.621L197.104 873.452C196.53 874.053 195.932 874.487 195.31 874.754C194.694 875.021 193.973 875.154 193.146 875.154ZM196.068 869.237C196.082 868.978 196.075 868.762 196.048 868.591C196.007 868.099 195.867 867.638 195.627 867.207C195.395 866.776 195.053 866.428 194.602 866.161C194.158 865.888 193.614 865.751 192.972 865.751C192.363 865.751 191.83 865.898 191.372 866.192C190.914 866.486 190.552 866.896 190.285 867.422C190.025 867.942 189.865 868.547 189.803 869.237H196.068ZM200.211 864.756H201.564V866.5C201.879 865.884 202.32 865.413 202.887 865.084C203.455 864.756 204.083 864.592 204.774 864.592C205.546 864.592 206.196 864.763 206.722 865.105C207.249 865.44 207.645 865.901 207.912 866.489C208.178 867.077 208.318 867.75 208.332 868.509V875H206.979V868.827C206.979 867.884 206.76 867.152 206.322 866.633C205.885 866.113 205.249 865.854 204.415 865.854C203.533 865.854 202.836 866.124 202.323 866.664C201.817 867.197 201.564 867.956 201.564 868.94V875H200.211V864.756ZM215.469 875.154C214.566 875.154 213.767 874.918 213.069 874.446C212.379 873.975 211.842 873.339 211.459 872.539C211.083 871.732 210.896 870.84 210.896 869.863C210.896 868.899 211.083 868.017 211.459 867.217C211.842 866.411 212.379 865.771 213.069 865.3C213.76 864.828 214.553 864.592 215.448 864.592C216.255 864.592 216.99 864.808 217.653 865.238C218.316 865.669 218.805 866.26 219.119 867.012V860.511H220.493V875H219.222L219.17 872.672C218.856 873.445 218.367 874.053 217.704 874.498C217.041 874.935 216.296 875.154 215.469 875.154ZM215.766 873.923C216.463 873.923 217.072 873.749 217.591 873.4C218.118 873.045 218.521 872.56 218.801 871.944C219.082 871.329 219.222 870.635 219.222 869.863C219.222 869.097 219.082 868.41 218.801 867.802C218.521 867.187 218.118 866.705 217.591 866.356C217.072 866.007 216.463 865.833 215.766 865.833C215.069 865.833 214.454 866.011 213.92 866.366C213.394 866.715 212.987 867.197 212.7 867.812C212.413 868.427 212.27 869.111 212.27 869.863C212.27 870.622 212.413 871.312 212.7 871.934C212.987 872.549 213.394 873.035 213.92 873.39C214.454 873.746 215.069 873.923 215.766 873.923ZM227.23 875.154C226.567 875.154 225.952 875.041 225.384 874.815C224.817 874.583 224.335 874.262 223.938 873.852C223.542 873.441 223.255 872.977 223.077 872.457L224.174 871.975C224.386 872.563 224.749 873.052 225.261 873.441C225.781 873.824 226.417 874.016 227.168 874.016C227.674 874.016 228.105 873.937 228.46 873.78C228.816 873.616 229.083 873.39 229.26 873.103C229.445 872.816 229.537 872.491 229.537 872.129C229.537 871.726 229.417 871.404 229.178 871.165C228.946 870.919 228.655 870.734 228.307 870.611C227.965 870.481 227.49 870.341 226.881 870.191C226.17 870.02 225.596 869.849 225.159 869.678C224.721 869.507 224.349 869.241 224.041 868.878C223.74 868.516 223.59 868.027 223.59 867.412C223.59 866.824 223.744 866.318 224.051 865.895C224.359 865.464 224.776 865.139 225.302 864.92C225.835 864.702 226.434 864.592 227.097 864.592C227.896 864.592 228.604 864.78 229.219 865.156C229.841 865.525 230.333 866.052 230.696 866.735L229.65 867.299C229.39 866.807 229.042 866.417 228.604 866.13C228.167 865.836 227.65 865.689 227.056 865.689C226.618 865.689 226.235 865.754 225.907 865.884C225.586 866.014 225.336 866.199 225.159 866.438C224.981 866.67 224.892 866.937 224.892 867.238C224.892 867.593 225.001 867.88 225.22 868.099C225.439 868.318 225.709 868.489 226.03 868.612C226.358 868.728 226.813 868.861 227.394 869.012C228.132 869.196 228.73 869.384 229.188 869.576C229.653 869.767 230.05 870.061 230.378 870.458C230.706 870.854 230.87 871.391 230.87 872.067C230.87 872.73 230.709 873.294 230.388 873.759C230.067 874.217 229.629 874.566 229.076 874.805C228.529 875.038 227.914 875.154 227.23 875.154Z" fill="#6D7693"/>
<circle cx="139.5" cy="122.5" r="1.5" transform="rotate(90 139.5 122.5)" fill="#C4C4C4"/>
<circle cx="139.5" cy="138.5" r="1.5" transform="rotate(90 139.5 138.5)" fill="#C4C4C4"/>
<circle cx="139.5" cy="166.5" r="1.5" transform="rotate(90 139.5 166.5)" fill="#C4C4C4"/>
<circle cx="139.5" cy="182.5" r="1.5" transform="rotate(90 139.5 182.5)" fill="#C4C4C4"/>
<path d="M145.913 150.204L145.913 150.204L140.069 155.921L145.913 150.204ZM145.913 150.204C146.229 149.894 146.229 149.391 145.913 149.081L145.913 149.081L145.913 150.204ZM133.087 149.082L133.087 149.082C133.402 148.774 133.911 148.774 134.225 149.082L139.5 154.242L144.776 149.081C144.776 149.081 144.776 149.081 144.776 149.081L144.776 149.081L144.881 149.188L133.087 149.082ZM133.087 149.082C132.771 149.391 132.771 149.895 133.087 150.205L133.087 150.205M133.087 149.082L133.087 150.205M133.087 150.205L138.931 155.922L138.931 155.922M133.087 150.205L138.931 155.922M138.931 155.922C139.243 156.226 139.758 156.226 140.069 155.921L138.931 155.922ZM134.12 149.189C133.864 148.938 133.448 148.938 133.192 149.189C132.936 149.44 132.936 149.847 133.192 150.098L139.036 155.815L134.12 149.189Z" fill="url(#paint5_linear)" stroke="url(#paint6_linear)" stroke-width="0.3"/>
<circle cx="139.5" cy="316.5" r="1.5" transform="rotate(90 139.5 316.5)" fill="#C4C4C4"/>
<circle cx="139.5" cy="332.5" r="1.5" transform="rotate(90 139.5 332.5)" fill="#C4C4C4"/>
<circle cx="139.5" cy="360.5" r="1.5" transform="rotate(90 139.5 360.5)" fill="#C4C4C4"/>
<circle cx="139.5" cy="376.5" r="1.5" transform="rotate(90 139.5 376.5)" fill="#C4C4C4"/>
<path d="M145.913 344.204L145.913 344.204L140.069 349.921L145.913 344.204ZM145.913 344.204C146.229 343.894 146.229 343.391 145.913 343.081L145.913 343.081L145.913 344.204ZM133.087 343.082L133.087 343.082C133.402 342.774 133.911 342.774 134.225 343.082L139.5 348.242L144.776 343.081C144.776 343.081 144.776 343.081 144.776 343.081L144.776 343.081L144.881 343.188L133.087 343.082ZM133.087 343.082C132.771 343.391 132.771 343.895 133.087 344.205L133.087 344.205M133.087 343.082L133.087 344.205M133.087 344.205L138.931 349.922L138.931 349.922M133.087 344.205L138.931 349.922M138.931 349.922C139.243 350.226 139.758 350.226 140.069 349.921L138.931 349.922ZM134.12 343.189C133.864 342.938 133.448 342.938 133.192 343.189C132.936 343.44 132.936 343.847 133.192 344.098L139.036 349.815L134.12 343.189Z" fill="url(#paint7_linear)" stroke="url(#paint8_linear)" stroke-width="0.3"/>
<circle cx="139.5" cy="510.5" r="1.5" transform="rotate(90 139.5 510.5)" fill="#C4C4C4"/>
<circle cx="139.5" cy="526.5" r="1.5" transform="rotate(90 139.5 526.5)" fill="#C4C4C4"/>
<circle cx="139.5" cy="554.5" r="1.5" transform="rotate(90 139.5 554.5)" fill="#C4C4C4"/>
<circle cx="139.5" cy="570.5" r="1.5" transform="rotate(90 139.5 570.5)" fill="#C4C4C4"/>
<path d="M145.913 538.204L145.913 538.204L140.069 543.921L145.913 538.204ZM145.913 538.204C146.229 537.894 146.229 537.391 145.913 537.081L145.913 537.081L145.913 538.204ZM133.087 537.082L133.087 537.082C133.402 536.774 133.911 536.774 134.225 537.082L139.5 542.242L144.776 537.081C144.776 537.081 144.776 537.081 144.776 537.081L144.776 537.081L144.881 537.188L133.087 537.082ZM133.087 537.082C132.771 537.391 132.771 537.895 133.087 538.205L133.087 538.205M133.087 537.082L133.087 538.205M133.087 538.205L138.931 543.922L138.931 543.922M133.087 538.205L138.931 543.922M138.931 543.922C139.243 544.226 139.758 544.226 140.069 543.921L138.931 543.922ZM134.12 537.189C133.864 536.938 133.448 536.938 133.192 537.189C132.936 537.44 132.936 537.847 133.192 538.098L139.036 543.815L134.12 537.189Z" fill="url(#paint9_linear)" stroke="url(#paint10_linear)" stroke-width="0.3"/>
<circle cx="139.5" cy="704.5" r="1.5" transform="rotate(90 139.5 704.5)" fill="#C4C4C4"/>
<circle cx="139.5" cy="720.5" r="1.5" transform="rotate(90 139.5 720.5)" fill="#C4C4C4"/>
<circle cx="139.5" cy="748.5" r="1.5" transform="rotate(90 139.5 748.5)" fill="#C4C4C4"/>
<circle cx="139.5" cy="764.5" r="1.5" transform="rotate(90 139.5 764.5)" fill="#C4C4C4"/>
<path d="M145.913 732.204L145.913 732.204L140.069 737.921L145.913 732.204ZM145.913 732.204C146.229 731.894 146.229 731.391 145.913 731.081L145.913 731.081L145.913 732.204ZM133.087 731.082L133.087 731.082C133.402 730.774 133.911 730.774 134.225 731.082L139.5 736.242L144.776 731.081C144.776 731.081 144.776 731.081 144.776 731.081L144.776 731.081L144.881 731.188L133.087 731.082ZM133.087 731.082C132.771 731.391 132.771 731.895 133.087 732.205L133.087 732.205M133.087 731.082L133.087 732.205M133.087 732.205L138.931 737.922L138.931 737.922M133.087 732.205L138.931 737.922M138.931 737.922C139.243 738.226 139.758 738.226 140.069 737.921L138.931 737.922ZM134.12 731.189C133.864 730.938 133.448 730.938 133.192 731.189C132.936 731.44 132.936 731.847 133.192 732.098L139.036 737.815L134.12 731.189Z" fill="url(#paint11_linear)" stroke="url(#paint12_linear)" stroke-width="0.3"/>
<defs>
<linearGradient id="paint0_linear" x1="110.127" y1="68.8447" x2="100.255" y2="-40.7126" gradientUnits="userSpaceOnUse">
<stop stop-color="#FF9372"/>
<stop offset="1" stop-color="#FFD770"/>
</linearGradient>
<linearGradient id="paint1_linear" x1="110.127" y1="262.845" x2="100.255" y2="153.287" gradientUnits="userSpaceOnUse">
<stop stop-color="#FF9372"/>
<stop offset="1" stop-color="#FFD770"/>
</linearGradient>
<linearGradient id="paint2_linear" x1="110.127" y1="456.845" x2="100.255" y2="347.287" gradientUnits="userSpaceOnUse">
<stop stop-color="#FF9372"/>
<stop offset="1" stop-color="#FFD770"/>
</linearGradient>
<linearGradient id="paint3_linear" x1="110.127" y1="650.845" x2="100.255" y2="541.287" gradientUnits="userSpaceOnUse">
<stop stop-color="#FF9372"/>
<stop offset="1" stop-color="#FFD770"/>
</linearGradient>
<linearGradient id="paint4_linear" x1="110.127" y1="844.845" x2="100.255" y2="735.287" gradientUnits="userSpaceOnUse">
<stop stop-color="#FF9372"/>
<stop offset="1" stop-color="#FFD770"/>
</linearGradient>
<linearGradient id="paint5_linear" x1="146" y1="159" x2="131.435" y2="157.276" gradientUnits="userSpaceOnUse">
<stop stop-color="#FF9372"/>
<stop offset="1" stop-color="#FFD770"/>
</linearGradient>
<linearGradient id="paint6_linear" x1="146" y1="152.5" x2="133" y2="152.5" gradientUnits="userSpaceOnUse">
<stop stop-color="#FF9372"/>
<stop offset="1" stop-color="#FFD770"/>
</linearGradient>
<linearGradient id="paint7_linear" x1="146" y1="353" x2="131.435" y2="351.276" gradientUnits="userSpaceOnUse">
<stop stop-color="#FF9372"/>
<stop offset="1" stop-color="#FFD770"/>
</linearGradient>
<linearGradient id="paint8_linear" x1="146" y1="346.5" x2="133" y2="346.5" gradientUnits="userSpaceOnUse">
<stop stop-color="#FF9372"/>
<stop offset="1" stop-color="#FFD770"/>
</linearGradient>
<linearGradient id="paint9_linear" x1="146" y1="547" x2="131.435" y2="545.276" gradientUnits="userSpaceOnUse">
<stop stop-color="#FF9372"/>
<stop offset="1" stop-color="#FFD770"/>
</linearGradient>
<linearGradient id="paint10_linear" x1="146" y1="540.5" x2="133" y2="540.5" gradientUnits="userSpaceOnUse">
<stop stop-color="#FF9372"/>
<stop offset="1" stop-color="#FFD770"/>
</linearGradient>
<linearGradient id="paint11_linear" x1="146" y1="741" x2="131.435" y2="739.276" gradientUnits="userSpaceOnUse">
<stop stop-color="#FF9372"/>
<stop offset="1" stop-color="#FFD770"/>
</linearGradient>
<linearGradient id="paint12_linear" x1="146" y1="734.5" x2="133" y2="734.5" gradientUnits="userSpaceOnUse">
<stop stop-color="#FF9372"/>
<stop offset="1" stop-color="#FFD770"/>
</linearGradient>
</defs>
</svg>
