<svg width="1184" height="154" viewBox="0 0 1184 154" fill="none" xmlns="http://www.w3.org/2000/svg">
<path d="M44.6948 94.5112H48.6733C49.6509 94.5112 50.5054 94.6753 51.2368 95.0034C51.9683 95.3247 52.5356 95.793 52.939 96.4082C53.3423 97.0234 53.5439 97.7583 53.5439 98.6128C53.5439 99.4673 53.3423 100.199 52.939 100.807C52.5425 101.409 51.9785 101.87 51.2471 102.191C50.5156 102.506 49.6577 102.663 48.6733 102.663H46.0894V109H44.6948V94.5112ZM48.6733 101.33C49.8218 101.33 50.6865 101.098 51.2676 100.633C51.8555 100.168 52.1494 99.4946 52.1494 98.6128C52.1494 97.731 51.8521 97.0474 51.2573 96.562C50.6626 96.0767 49.8013 95.834 48.6733 95.834H46.0894V101.33H48.6733ZM56.0459 98.7563H57.3687V100.899C57.5327 100.394 57.7822 99.9697 58.1172 99.6279C58.459 99.2793 58.8384 99.0195 59.2554 98.8486C59.6792 98.6777 60.103 98.5923 60.5269 98.5923C60.8208 98.5923 61.1045 98.6333 61.3779 98.7153C61.6582 98.7974 61.9077 98.9204 62.1265 99.0845L61.5112 100.212C61.1489 100.014 60.7593 99.915 60.3423 99.915C59.8501 99.915 59.375 100.052 58.917 100.325C58.4658 100.592 58.0933 101.016 57.7993 101.597C57.5054 102.171 57.3584 102.896 57.3584 103.771V109H56.0459V98.7563ZM67.4175 109.154C66.4194 109.154 65.5581 108.928 64.8335 108.477C64.1157 108.019 63.5688 107.394 63.1929 106.601C62.8237 105.808 62.6392 104.916 62.6392 103.924C62.6392 102.947 62.8203 102.055 63.1826 101.248C63.5449 100.435 64.0713 99.7886 64.7617 99.3101C65.459 98.8315 66.2896 98.5923 67.2534 98.5923C68.2925 98.5923 69.1436 98.835 69.8066 99.3203C70.4766 99.7988 70.9585 100.4 71.2524 101.125C71.5464 101.843 71.6934 102.578 71.6934 103.33C71.6934 103.507 71.6865 103.685 71.6729 103.863C71.6592 104.041 71.6421 104.167 71.6216 104.242H64.0747C64.1294 105.397 64.4473 106.3 65.0283 106.949C65.6094 107.599 66.4092 107.923 67.4277 107.923C68.0498 107.923 68.5898 107.828 69.0479 107.636C69.5127 107.438 69.9741 107.1 70.4321 106.621L71.3755 107.452C70.8013 108.053 70.2031 108.487 69.5811 108.754C68.9658 109.021 68.2446 109.154 67.4175 109.154ZM70.3398 103.237C70.3535 102.978 70.3467 102.762 70.3193 102.591C70.2783 102.099 70.1382 101.638 69.8989 101.207C69.6665 100.776 69.3247 100.428 68.8735 100.161C68.4292 99.8877 67.8857 99.751 67.2432 99.751C66.6348 99.751 66.1016 99.8979 65.6436 100.192C65.1855 100.486 64.8232 100.896 64.5566 101.422C64.2969 101.942 64.1362 102.547 64.0747 103.237H70.3398ZM77.5278 109.154C76.8647 109.154 76.2495 109.041 75.6821 108.815C75.1147 108.583 74.6328 108.262 74.2363 107.852C73.8398 107.441 73.5527 106.977 73.375 106.457L74.4722 105.975C74.6841 106.563 75.0464 107.052 75.5591 107.441C76.0786 107.824 76.7144 108.016 77.4663 108.016C77.9722 108.016 78.4028 107.937 78.7583 107.78C79.1138 107.616 79.3804 107.39 79.5581 107.103C79.7427 106.816 79.835 106.491 79.835 106.129C79.835 105.726 79.7153 105.404 79.4761 105.165C79.2437 104.919 78.9531 104.734 78.6045 104.611C78.2627 104.481 77.7876 104.341 77.1792 104.191C76.4683 104.02 75.894 103.849 75.4565 103.678C75.019 103.507 74.6465 103.241 74.3389 102.878C74.0381 102.516 73.8877 102.027 73.8877 101.412C73.8877 100.824 74.0415 100.318 74.3491 99.8945C74.6567 99.4639 75.0737 99.1392 75.6001 98.9204C76.1333 98.7017 76.7314 98.5923 77.3945 98.5923C78.1943 98.5923 78.9019 98.7803 79.5171 99.1562C80.1392 99.5254 80.6313 100.052 80.9937 100.735L79.9478 101.299C79.688 100.807 79.3394 100.417 78.9019 100.13C78.4644 99.8364 77.9482 99.6895 77.3535 99.6895C76.916 99.6895 76.5332 99.7544 76.2051 99.8843C75.8838 100.014 75.6343 100.199 75.4565 100.438C75.2788 100.67 75.1899 100.937 75.1899 101.238C75.1899 101.593 75.2993 101.88 75.5181 102.099C75.7368 102.318 76.0068 102.489 76.3281 102.612C76.6562 102.728 77.1108 102.861 77.6919 103.012C78.4302 103.196 79.0283 103.384 79.4863 103.576C79.9512 103.767 80.3477 104.061 80.6758 104.458C81.0039 104.854 81.168 105.391 81.168 106.067C81.168 106.73 81.0073 107.294 80.686 107.759C80.3647 108.217 79.9272 108.566 79.3735 108.805C78.8267 109.038 78.2114 109.154 77.5278 109.154ZM87.3101 98.5923C88.1782 98.5923 88.9165 98.7598 89.5249 99.0947C90.1333 99.4229 90.5947 99.8979 90.9092 100.52C91.2305 101.142 91.3911 101.884 91.3911 102.745V109H90.2632L90.1709 106.918C89.7949 107.643 89.2754 108.197 88.6123 108.58C87.9561 108.962 87.2349 109.154 86.4487 109.154C85.7515 109.154 85.1362 109.031 84.603 108.785C84.0698 108.532 83.6528 108.169 83.3521 107.698C83.0581 107.226 82.9111 106.669 82.9111 106.026C82.9111 104.078 84.3433 103.104 87.2075 103.104H90.1606V102.981C90.1606 101.88 89.9385 101.074 89.4941 100.561C89.0566 100.048 88.332 99.792 87.3203 99.792C86.6641 99.792 86.0967 99.9321 85.6182 100.212C85.1396 100.493 84.7158 100.91 84.3467 101.463L83.311 100.705C83.8237 99.9937 84.3979 99.4639 85.0337 99.1152C85.6694 98.7666 86.4282 98.5923 87.3101 98.5923ZM86.7051 107.995C87.5732 107.995 88.3047 107.739 88.8994 107.226C89.4941 106.713 89.9146 106.023 90.1606 105.155V104.109H87.2793C86.2881 104.109 85.543 104.28 85.0439 104.622C84.5449 104.957 84.2954 105.438 84.2954 106.067C84.2954 106.662 84.5073 107.134 84.9312 107.482C85.355 107.824 85.9463 107.995 86.7051 107.995ZM96.6206 109.154C95.9233 109.154 95.4346 108.962 95.1543 108.58C94.874 108.19 94.7339 107.609 94.7339 106.836V94.5112H96.0874V106.488C96.0874 106.795 96.1113 107.052 96.1592 107.257C96.2139 107.462 96.3232 107.626 96.4873 107.749C96.6514 107.872 96.894 107.934 97.2153 107.934C97.4272 107.934 97.7041 107.899 98.0459 107.831L98.0664 108.99C97.5332 109.099 97.0513 109.154 96.6206 109.154ZM104.373 109.154C103.375 109.154 102.513 108.928 101.789 108.477C101.071 108.019 100.524 107.394 100.148 106.601C99.7788 105.808 99.5942 104.916 99.5942 103.924C99.5942 102.947 99.7754 102.055 100.138 101.248C100.5 100.435 101.026 99.7886 101.717 99.3101C102.414 98.8315 103.245 98.5923 104.208 98.5923C105.248 98.5923 106.099 98.835 106.762 99.3203C107.432 99.7988 107.914 100.4 108.208 101.125C108.501 101.843 108.648 102.578 108.648 103.33C108.648 103.507 108.642 103.685 108.628 103.863C108.614 104.041 108.597 104.167 108.577 104.242H101.03C101.084 105.397 101.402 106.3 101.983 106.949C102.564 107.599 103.364 107.923 104.383 107.923C105.005 107.923 105.545 107.828 106.003 107.636C106.468 107.438 106.929 107.1 107.387 106.621L108.331 107.452C107.756 108.053 107.158 108.487 106.536 108.754C105.921 109.021 105.2 109.154 104.373 109.154ZM107.295 103.237C107.309 102.978 107.302 102.762 107.274 102.591C107.233 102.099 107.093 101.638 106.854 101.207C106.622 100.776 106.28 100.428 105.829 100.161C105.384 99.8877 104.841 99.751 104.198 99.751C103.59 99.751 103.057 99.8979 102.599 100.192C102.141 100.486 101.778 100.896 101.512 101.422C101.252 101.942 101.091 102.547 101.03 103.237H107.295Z" fill="#6D7693"/>
<path d="M213.068 94.5112H222.86V95.8135H214.473V101.074H221.835V102.376H214.473V109H213.068V94.5112ZM227.936 109.154C227.164 109.154 226.514 108.986 225.988 108.651C225.461 108.31 225.065 107.845 224.798 107.257C224.539 106.669 224.402 105.996 224.388 105.237V98.7563H225.731V104.929C225.731 105.873 225.95 106.604 226.388 107.124C226.825 107.636 227.461 107.893 228.295 107.893C229.17 107.893 229.864 107.626 230.376 107.093C230.889 106.553 231.146 105.791 231.146 104.806V98.7563H232.489V109H231.146V107.257C230.831 107.872 230.39 108.344 229.823 108.672C229.255 108.993 228.626 109.154 227.936 109.154ZM236.17 98.7563H237.523V100.5C237.838 99.8843 238.279 99.4126 238.846 99.0845C239.414 98.7563 240.042 98.5923 240.733 98.5923C241.505 98.5923 242.155 98.7632 242.681 99.105C243.208 99.4399 243.604 99.9014 243.871 100.489C244.137 101.077 244.277 101.75 244.291 102.509V109H242.938V102.827C242.938 101.884 242.719 101.152 242.281 100.633C241.844 100.113 241.208 99.8535 240.374 99.8535C239.492 99.8535 238.795 100.124 238.282 100.664C237.776 101.197 237.523 101.956 237.523 102.94V109H236.17V98.7563ZM251.428 109.154C250.525 109.154 249.726 108.918 249.028 108.446C248.338 107.975 247.801 107.339 247.418 106.539C247.042 105.732 246.854 104.84 246.854 103.863C246.854 102.899 247.042 102.017 247.418 101.217C247.801 100.411 248.338 99.7715 249.028 99.2998C249.719 98.8281 250.512 98.5923 251.407 98.5923C252.214 98.5923 252.949 98.8076 253.612 99.2383C254.275 99.6689 254.764 100.26 255.078 101.012V94.5112H256.452V109H255.181L255.129 106.672C254.815 107.445 254.326 108.053 253.663 108.498C253 108.935 252.255 109.154 251.428 109.154ZM251.725 107.923C252.422 107.923 253.031 107.749 253.55 107.4C254.077 107.045 254.48 106.56 254.76 105.944C255.041 105.329 255.181 104.635 255.181 103.863C255.181 103.097 255.041 102.41 254.76 101.802C254.48 101.187 254.077 100.705 253.55 100.356C253.031 100.007 252.422 99.833 251.725 99.833C251.028 99.833 250.413 100.011 249.879 100.366C249.353 100.715 248.946 101.197 248.659 101.812C248.372 102.427 248.229 103.111 248.229 103.863C248.229 104.622 248.372 105.312 248.659 105.934C248.946 106.549 249.353 107.035 249.879 107.39C250.413 107.746 251.028 107.923 251.725 107.923ZM260.144 98.7563H261.466V100.899C261.63 100.394 261.88 99.9697 262.215 99.6279C262.557 99.2793 262.936 99.0195 263.353 98.8486C263.777 98.6777 264.201 98.5923 264.625 98.5923C264.918 98.5923 265.202 98.6333 265.476 98.7153C265.756 98.7974 266.005 98.9204 266.224 99.0845L265.609 100.212C265.247 100.014 264.857 99.915 264.44 99.915C263.948 99.915 263.473 100.052 263.015 100.325C262.563 100.592 262.191 101.016 261.897 101.597C261.603 102.171 261.456 102.896 261.456 103.771V109H260.144V98.7563ZM271.802 98.5923C272.67 98.5923 273.409 98.7598 274.017 99.0947C274.625 99.4229 275.087 99.8979 275.401 100.52C275.723 101.142 275.883 101.884 275.883 102.745V109H274.755L274.663 106.918C274.287 107.643 273.768 108.197 273.104 108.58C272.448 108.962 271.727 109.154 270.941 109.154C270.244 109.154 269.628 109.031 269.095 108.785C268.562 108.532 268.145 108.169 267.844 107.698C267.55 107.226 267.403 106.669 267.403 106.026C267.403 104.078 268.835 103.104 271.7 103.104H274.653V102.981C274.653 101.88 274.431 101.074 273.986 100.561C273.549 100.048 272.824 99.792 271.812 99.792C271.156 99.792 270.589 99.9321 270.11 100.212C269.632 100.493 269.208 100.91 268.839 101.463L267.803 100.705C268.316 99.9937 268.89 99.4639 269.526 99.1152C270.162 98.7666 270.92 98.5923 271.802 98.5923ZM271.197 107.995C272.065 107.995 272.797 107.739 273.392 107.226C273.986 106.713 274.407 106.023 274.653 105.155V104.109H271.771C270.78 104.109 270.035 104.28 269.536 104.622C269.037 104.957 268.788 105.438 268.788 106.067C268.788 106.662 269 107.134 269.423 107.482C269.847 107.824 270.438 107.995 271.197 107.995ZM279.247 94.5112H280.662V96.6133H279.247V94.5112ZM279.277 98.7563H280.621V109H279.277V98.7563ZM287.347 109.154C286.684 109.154 286.069 109.041 285.501 108.815C284.934 108.583 284.452 108.262 284.056 107.852C283.659 107.441 283.372 106.977 283.194 106.457L284.292 105.975C284.503 106.563 284.866 107.052 285.378 107.441C285.898 107.824 286.534 108.016 287.286 108.016C287.792 108.016 288.222 107.937 288.578 107.78C288.933 107.616 289.2 107.39 289.377 107.103C289.562 106.816 289.654 106.491 289.654 106.129C289.654 105.726 289.535 105.404 289.295 105.165C289.063 104.919 288.772 104.734 288.424 104.611C288.082 104.481 287.607 104.341 286.999 104.191C286.288 104.02 285.713 103.849 285.276 103.678C284.838 103.507 284.466 103.241 284.158 102.878C283.857 102.516 283.707 102.027 283.707 101.412C283.707 100.824 283.861 100.318 284.168 99.8945C284.476 99.4639 284.893 99.1392 285.419 98.9204C285.953 98.7017 286.551 98.5923 287.214 98.5923C288.014 98.5923 288.721 98.7803 289.336 99.1562C289.958 99.5254 290.451 100.052 290.813 100.735L289.767 101.299C289.507 100.807 289.159 100.417 288.721 100.13C288.284 99.8364 287.768 99.6895 287.173 99.6895C286.735 99.6895 286.353 99.7544 286.024 99.8843C285.703 100.014 285.454 100.199 285.276 100.438C285.098 100.67 285.009 100.937 285.009 101.238C285.009 101.593 285.119 101.88 285.337 102.099C285.556 102.318 285.826 102.489 286.147 102.612C286.476 102.728 286.93 102.861 287.511 103.012C288.25 103.196 288.848 103.384 289.306 103.576C289.771 103.767 290.167 104.061 290.495 104.458C290.823 104.854 290.987 105.391 290.987 106.067C290.987 106.73 290.827 107.294 290.505 107.759C290.184 108.217 289.747 108.566 289.193 108.805C288.646 109.038 288.031 109.154 287.347 109.154ZM293.787 94.5112H295.202V96.6133H293.787V94.5112ZM293.817 98.7563H295.161V109H293.817V98.7563ZM298.842 98.7563H300.195V100.5C300.51 99.8843 300.951 99.4126 301.518 99.0845C302.085 98.7563 302.714 98.5923 303.405 98.5923C304.177 98.5923 304.827 98.7632 305.353 99.105C305.879 99.4399 306.276 99.9014 306.542 100.489C306.809 101.077 306.949 101.75 306.963 102.509V109H305.609V102.827C305.609 101.884 305.391 101.152 304.953 100.633C304.516 100.113 303.88 99.8535 303.046 99.8535C302.164 99.8535 301.467 100.124 300.954 100.664C300.448 101.197 300.195 101.956 300.195 102.94V109H298.842V98.7563ZM314.171 107.77C315.108 107.913 315.853 108.063 316.407 108.221C316.967 108.371 317.442 108.634 317.832 109.01C318.222 109.386 318.417 109.916 318.417 110.6C318.417 111.249 318.235 111.806 317.873 112.271C317.511 112.743 317.005 113.098 316.355 113.337C315.713 113.583 314.975 113.707 314.141 113.707C313.19 113.707 312.367 113.56 311.669 113.266C310.972 112.972 310.439 112.565 310.07 112.045C309.708 111.526 309.526 110.928 309.526 110.251C309.526 110.087 309.537 109.937 309.557 109.8L311.105 108.385C310.682 108.193 310.35 107.94 310.111 107.626C309.878 107.312 309.762 106.912 309.762 106.426C309.762 106.002 309.854 105.63 310.039 105.309C310.224 104.987 310.5 104.7 310.87 104.447C310.583 104.14 310.36 103.788 310.203 103.391C310.053 102.995 309.978 102.571 309.978 102.12C309.978 101.443 310.148 100.838 310.49 100.305C310.832 99.7646 311.297 99.3442 311.885 99.0435C312.479 98.7427 313.139 98.5923 313.864 98.5923C314.363 98.5923 314.831 98.6675 315.269 98.8179C315.713 98.9614 316.106 99.1699 316.448 99.4434L317.842 98.2129L318.56 99.0947L317.186 100.253C317.555 100.828 317.74 101.474 317.74 102.191C317.74 102.875 317.569 103.48 317.227 104.006C316.892 104.533 316.431 104.943 315.843 105.237C315.262 105.524 314.612 105.667 313.895 105.667C313.095 105.667 312.377 105.49 311.741 105.134C311.201 105.374 310.931 105.732 310.931 106.211C310.931 106.566 311.064 106.843 311.331 107.042C311.598 107.233 311.933 107.373 312.336 107.462C312.739 107.544 313.351 107.646 314.171 107.77ZM313.905 99.6689C313.406 99.6689 312.965 99.7749 312.582 99.9868C312.199 100.192 311.902 100.482 311.69 100.858C311.485 101.228 311.382 101.651 311.382 102.13C311.382 102.602 311.485 103.022 311.69 103.391C311.895 103.753 312.186 104.037 312.562 104.242C312.944 104.447 313.389 104.55 313.895 104.55C314.4 104.55 314.841 104.451 315.217 104.252C315.6 104.047 315.891 103.764 316.089 103.401C316.294 103.032 316.396 102.612 316.396 102.14C316.396 101.655 316.294 101.228 316.089 100.858C315.884 100.482 315.593 100.192 315.217 99.9868C314.841 99.7749 314.404 99.6689 313.905 99.6689ZM314.13 112.63C315.046 112.63 315.774 112.462 316.314 112.127C316.854 111.792 317.125 111.328 317.125 110.733C317.125 110.323 316.984 110.005 316.704 109.779C316.424 109.554 316.065 109.39 315.627 109.287C315.19 109.185 314.551 109.075 313.71 108.959C313.416 108.918 313.112 108.874 312.797 108.826C312.483 108.771 312.199 108.716 311.946 108.662L310.757 110.087C310.757 110.169 310.764 110.278 310.777 110.415C310.846 111.119 311.184 111.663 311.792 112.045C312.401 112.435 313.18 112.63 314.13 112.63ZM326.425 98.7563H327.819V101.022C328.141 100.271 328.629 99.6792 329.286 99.2485C329.949 98.811 330.687 98.5923 331.5 98.5923C332.389 98.5923 333.162 98.8281 333.818 99.2998C334.474 99.7715 334.973 100.411 335.315 101.217C335.664 102.017 335.838 102.906 335.838 103.883C335.838 104.868 335.664 105.76 335.315 106.56C334.973 107.359 334.471 107.992 333.808 108.457C333.151 108.921 332.375 109.154 331.48 109.154C330.667 109.154 329.932 108.942 329.275 108.518C328.626 108.087 328.141 107.496 327.819 106.744V113.245H326.425V98.7563ZM331.183 107.923C331.88 107.923 332.475 107.749 332.967 107.4C333.459 107.045 333.832 106.563 334.084 105.955C334.344 105.339 334.474 104.649 334.474 103.883C334.474 103.111 334.348 102.42 334.095 101.812C333.842 101.204 333.466 100.725 332.967 100.376C332.475 100.028 331.88 99.8535 331.183 99.8535C330.485 99.8535 329.874 100.028 329.347 100.376C328.821 100.725 328.414 101.207 328.127 101.822C327.847 102.431 327.707 103.118 327.707 103.883C327.707 104.649 327.847 105.339 328.127 105.955C328.414 106.563 328.821 107.045 329.347 107.4C329.874 107.749 330.485 107.923 331.183 107.923ZM342.657 109.154C341.659 109.154 340.797 108.928 340.073 108.477C339.355 108.019 338.808 107.394 338.432 106.601C338.063 105.808 337.878 104.916 337.878 103.924C337.878 102.947 338.06 102.055 338.422 101.248C338.784 100.435 339.311 99.7886 340.001 99.3101C340.698 98.8315 341.529 98.5923 342.493 98.5923C343.532 98.5923 344.383 98.835 345.046 99.3203C345.716 99.7988 346.198 100.4 346.492 101.125C346.786 101.843 346.933 102.578 346.933 103.33C346.933 103.507 346.926 103.685 346.912 103.863C346.898 104.041 346.881 104.167 346.861 104.242H339.314C339.369 105.397 339.687 106.3 340.268 106.949C340.849 107.599 341.648 107.923 342.667 107.923C343.289 107.923 343.829 107.828 344.287 107.636C344.752 107.438 345.213 107.1 345.671 106.621L346.615 107.452C346.041 108.053 345.442 108.487 344.82 108.754C344.205 109.021 343.484 109.154 342.657 109.154ZM345.579 103.237C345.593 102.978 345.586 102.762 345.559 102.591C345.518 102.099 345.377 101.638 345.138 101.207C344.906 100.776 344.564 100.428 344.113 100.161C343.668 99.8877 343.125 99.751 342.482 99.751C341.874 99.751 341.341 99.8979 340.883 100.192C340.425 100.486 340.062 100.896 339.796 101.422C339.536 101.942 339.375 102.547 339.314 103.237H345.579ZM349.722 98.7563H351.044V100.899C351.208 100.394 351.458 99.9697 351.793 99.6279C352.135 99.2793 352.514 99.0195 352.931 98.8486C353.355 98.6777 353.779 98.5923 354.203 98.5923C354.497 98.5923 354.78 98.6333 355.054 98.7153C355.334 98.7974 355.583 98.9204 355.802 99.0845L355.187 100.212C354.825 100.014 354.435 99.915 354.018 99.915C353.526 99.915 353.051 100.052 352.593 100.325C352.142 100.592 351.769 101.016 351.475 101.597C351.181 102.171 351.034 102.896 351.034 103.771V109H349.722V98.7563ZM357.874 94.5112H359.289V96.6133H357.874V94.5112ZM357.904 98.7563H359.248V109H357.904V98.7563ZM366.969 109.154C366.019 109.154 365.167 108.921 364.416 108.457C363.664 107.985 363.076 107.346 362.652 106.539C362.235 105.726 362.026 104.83 362.026 103.853C362.026 102.882 362.235 101.997 362.652 101.197C363.076 100.397 363.664 99.7646 364.416 99.2998C365.167 98.8281 366.019 98.5923 366.969 98.5923C367.926 98.5923 368.78 98.8281 369.532 99.2998C370.291 99.7646 370.882 100.397 371.306 101.197C371.737 101.997 371.952 102.882 371.952 103.853C371.952 104.83 371.737 105.722 371.306 106.529C370.882 107.335 370.291 107.975 369.532 108.446C368.78 108.918 367.926 109.154 366.969 109.154ZM366.969 107.975C367.693 107.975 368.326 107.793 368.866 107.431C369.406 107.062 369.819 106.563 370.106 105.934C370.4 105.305 370.547 104.611 370.547 103.853C370.547 103.094 370.4 102.407 370.106 101.792C369.819 101.169 369.406 100.681 368.866 100.325C368.326 99.9629 367.693 99.7817 366.969 99.7817C366.251 99.7817 365.622 99.9629 365.082 100.325C364.549 100.681 364.139 101.169 363.852 101.792C363.571 102.407 363.431 103.094 363.431 103.853C363.431 104.618 363.571 105.315 363.852 105.944C364.139 106.566 364.549 107.062 365.082 107.431C365.622 107.793 366.251 107.975 366.969 107.975ZM378.474 109.154C377.571 109.154 376.771 108.918 376.074 108.446C375.384 107.975 374.847 107.339 374.464 106.539C374.088 105.732 373.9 104.84 373.9 103.863C373.9 102.899 374.088 102.017 374.464 101.217C374.847 100.411 375.384 99.7715 376.074 99.2998C376.765 98.8281 377.558 98.5923 378.453 98.5923C379.26 98.5923 379.995 98.8076 380.658 99.2383C381.321 99.6689 381.81 100.26 382.124 101.012V94.5112H383.498V109H382.227L382.175 106.672C381.861 107.445 381.372 108.053 380.709 108.498C380.046 108.935 379.301 109.154 378.474 109.154ZM378.771 107.923C379.468 107.923 380.077 107.749 380.596 107.4C381.123 107.045 381.526 106.56 381.806 105.944C382.086 105.329 382.227 104.635 382.227 103.863C382.227 103.097 382.086 102.41 381.806 101.802C381.526 101.187 381.123 100.705 380.596 100.356C380.077 100.007 379.468 99.833 378.771 99.833C378.074 99.833 377.458 100.011 376.925 100.366C376.399 100.715 375.992 101.197 375.705 101.812C375.418 102.427 375.274 103.111 375.274 103.863C375.274 104.622 375.418 105.312 375.705 105.934C375.992 106.549 376.399 107.035 376.925 107.39C377.458 107.746 378.074 107.923 378.771 107.923ZM396.51 109.154C395.512 109.154 394.651 108.928 393.926 108.477C393.208 108.019 392.662 107.394 392.286 106.601C391.917 105.808 391.732 104.916 391.732 103.924C391.732 102.947 391.913 102.055 392.275 101.248C392.638 100.435 393.164 99.7886 393.854 99.3101C394.552 98.8315 395.382 98.5923 396.346 98.5923C397.385 98.5923 398.236 98.835 398.899 99.3203C399.569 99.7988 400.051 100.4 400.345 101.125C400.639 101.843 400.786 102.578 400.786 103.33C400.786 103.507 400.779 103.685 400.766 103.863C400.752 104.041 400.735 104.167 400.714 104.242H393.167C393.222 105.397 393.54 106.3 394.121 106.949C394.702 107.599 395.502 107.923 396.521 107.923C397.143 107.923 397.683 107.828 398.141 107.636C398.605 107.438 399.067 107.1 399.525 106.621L400.468 107.452C399.894 108.053 399.296 108.487 398.674 108.754C398.059 109.021 397.337 109.154 396.51 109.154ZM399.433 103.237C399.446 102.978 399.439 102.762 399.412 102.591C399.371 102.099 399.231 101.638 398.992 101.207C398.759 100.776 398.417 100.428 397.966 100.161C397.522 99.8877 396.979 99.751 396.336 99.751C395.728 99.751 395.194 99.8979 394.736 100.192C394.278 100.486 393.916 100.896 393.649 101.422C393.39 101.942 393.229 102.547 393.167 103.237H399.433ZM403.575 98.7563H404.929V100.5C405.243 99.8843 405.684 99.4126 406.251 99.0845C406.819 98.7563 407.448 98.5923 408.138 98.5923C408.911 98.5923 409.56 98.7632 410.086 99.105C410.613 99.4399 411.009 99.9014 411.276 100.489C411.542 101.077 411.683 101.75 411.696 102.509V109H410.343V102.827C410.343 101.884 410.124 101.152 409.687 100.633C409.249 100.113 408.613 99.8535 407.779 99.8535C406.897 99.8535 406.2 100.124 405.688 100.664C405.182 101.197 404.929 101.956 404.929 102.94V109H403.575V98.7563ZM418.833 109.154C417.931 109.154 417.131 108.918 416.434 108.446C415.743 107.975 415.207 107.339 414.824 106.539C414.448 105.732 414.26 104.84 414.26 103.863C414.26 102.899 414.448 102.017 414.824 101.217C415.207 100.411 415.743 99.7715 416.434 99.2998C417.124 98.8281 417.917 98.5923 418.812 98.5923C419.619 98.5923 420.354 98.8076 421.017 99.2383C421.68 99.6689 422.169 100.26 422.483 101.012V94.5112H423.857V109H422.586L422.535 106.672C422.22 107.445 421.731 108.053 421.068 108.498C420.405 108.935 419.66 109.154 418.833 109.154ZM419.13 107.923C419.828 107.923 420.436 107.749 420.956 107.4C421.482 107.045 421.885 106.56 422.166 105.944C422.446 105.329 422.586 104.635 422.586 103.863C422.586 103.097 422.446 102.41 422.166 101.802C421.885 101.187 421.482 100.705 420.956 100.356C420.436 100.007 419.828 99.833 419.13 99.833C418.433 99.833 417.818 100.011 417.285 100.366C416.758 100.715 416.352 101.197 416.064 101.812C415.777 102.427 415.634 103.111 415.634 103.863C415.634 104.622 415.777 105.312 416.064 105.934C416.352 106.549 416.758 107.035 417.285 107.39C417.818 107.746 418.433 107.923 419.13 107.923ZM430.594 109.154C429.931 109.154 429.316 109.041 428.749 108.815C428.181 108.583 427.699 108.262 427.303 107.852C426.906 107.441 426.619 106.977 426.441 106.457L427.539 105.975C427.75 106.563 428.113 107.052 428.625 107.441C429.145 107.824 429.781 108.016 430.533 108.016C431.039 108.016 431.469 107.937 431.825 107.78C432.18 107.616 432.447 107.39 432.625 107.103C432.809 106.816 432.901 106.491 432.901 106.129C432.901 105.726 432.782 105.404 432.542 105.165C432.31 104.919 432.02 104.734 431.671 104.611C431.329 104.481 430.854 104.341 430.246 104.191C429.535 104.02 428.96 103.849 428.523 103.678C428.085 103.507 427.713 103.241 427.405 102.878C427.104 102.516 426.954 102.027 426.954 101.412C426.954 100.824 427.108 100.318 427.416 99.8945C427.723 99.4639 428.14 99.1392 428.667 98.9204C429.2 98.7017 429.798 98.5923 430.461 98.5923C431.261 98.5923 431.968 98.7803 432.583 99.1562C433.206 99.5254 433.698 100.052 434.06 100.735L433.014 101.299C432.754 100.807 432.406 100.417 431.968 100.13C431.531 99.8364 431.015 99.6895 430.42 99.6895C429.982 99.6895 429.6 99.7544 429.271 99.8843C428.95 100.014 428.701 100.199 428.523 100.438C428.345 100.67 428.256 100.937 428.256 101.238C428.256 101.593 428.366 101.88 428.584 102.099C428.803 102.318 429.073 102.489 429.395 102.612C429.723 102.728 430.177 102.861 430.758 103.012C431.497 103.196 432.095 103.384 432.553 103.576C433.018 103.767 433.414 104.061 433.742 104.458C434.07 104.854 434.234 105.391 434.234 106.067C434.234 106.73 434.074 107.294 433.752 107.759C433.431 108.217 432.994 108.566 432.44 108.805C431.893 109.038 431.278 109.154 430.594 109.154Z" fill="#6D7693"/>
<path d="M516.957 109.154C515.507 109.154 514.284 108.822 513.286 108.159C512.294 107.489 511.553 106.594 511.061 105.473C510.568 104.352 510.322 103.111 510.322 101.75C510.322 100.39 510.568 99.1528 511.061 98.0386C511.553 96.9175 512.294 96.0254 513.286 95.3623C514.284 94.6924 515.507 94.3574 516.957 94.3574C518.413 94.3574 519.64 94.6924 520.638 95.3623C521.636 96.0254 522.381 96.9175 522.873 98.0386C523.365 99.1528 523.611 100.39 523.611 101.75C523.611 103.111 523.365 104.352 522.873 105.473C522.381 106.594 521.636 107.489 520.638 108.159C519.64 108.822 518.413 109.154 516.957 109.154ZM516.957 107.893C518.125 107.893 519.096 107.619 519.869 107.072C520.641 106.525 521.212 105.791 521.581 104.868C521.95 103.945 522.135 102.906 522.135 101.75C522.135 100.602 521.95 99.5664 521.581 98.6436C521.212 97.7139 520.638 96.9756 519.858 96.4287C519.086 95.8818 518.119 95.6084 516.957 95.6084C515.801 95.6084 514.837 95.8818 514.065 96.4287C513.292 96.9756 512.722 97.7139 512.353 98.6436C511.983 99.5664 511.799 100.602 511.799 101.75C511.799 102.906 511.983 103.945 512.353 104.868C512.722 105.791 513.292 106.525 514.065 107.072C514.837 107.619 515.801 107.893 516.957 107.893ZM526.831 98.7563H528.226V101.022C528.547 100.271 529.036 99.6792 529.692 99.2485C530.355 98.811 531.093 98.5923 531.907 98.5923C532.795 98.5923 533.568 98.8281 534.224 99.2998C534.88 99.7715 535.379 100.411 535.721 101.217C536.07 102.017 536.244 102.906 536.244 103.883C536.244 104.868 536.07 105.76 535.721 106.56C535.379 107.359 534.877 107.992 534.214 108.457C533.558 108.921 532.782 109.154 531.886 109.154C531.073 109.154 530.338 108.942 529.682 108.518C529.032 108.087 528.547 107.496 528.226 106.744V113.245H526.831V98.7563ZM531.589 107.923C532.286 107.923 532.881 107.749 533.373 107.4C533.865 107.045 534.238 106.563 534.491 105.955C534.75 105.339 534.88 104.649 534.88 103.883C534.88 103.111 534.754 102.42 534.501 101.812C534.248 101.204 533.872 100.725 533.373 100.376C532.881 100.028 532.286 99.8535 531.589 99.8535C530.892 99.8535 530.28 100.028 529.753 100.376C529.227 100.725 528.82 101.207 528.533 101.822C528.253 102.431 528.113 103.118 528.113 103.883C528.113 104.649 528.253 105.339 528.533 105.955C528.82 106.563 529.227 107.045 529.753 107.4C530.28 107.749 530.892 107.923 531.589 107.923ZM543.063 109.154C542.065 109.154 541.204 108.928 540.479 108.477C539.761 108.019 539.214 107.394 538.838 106.601C538.469 105.808 538.285 104.916 538.285 103.924C538.285 102.947 538.466 102.055 538.828 101.248C539.19 100.435 539.717 99.7886 540.407 99.3101C541.104 98.8315 541.935 98.5923 542.899 98.5923C543.938 98.5923 544.789 98.835 545.452 99.3203C546.122 99.7988 546.604 100.4 546.898 101.125C547.192 101.843 547.339 102.578 547.339 103.33C547.339 103.507 547.332 103.685 547.318 103.863C547.305 104.041 547.288 104.167 547.267 104.242H539.72C539.775 105.397 540.093 106.3 540.674 106.949C541.255 107.599 542.055 107.923 543.073 107.923C543.695 107.923 544.235 107.828 544.693 107.636C545.158 107.438 545.62 107.1 546.078 106.621L547.021 107.452C546.447 108.053 545.849 108.487 545.227 108.754C544.611 109.021 543.89 109.154 543.063 109.154ZM545.985 103.237C545.999 102.978 545.992 102.762 545.965 102.591C545.924 102.099 545.784 101.638 545.544 101.207C545.312 100.776 544.97 100.428 544.519 100.161C544.075 99.8877 543.531 99.751 542.889 99.751C542.28 99.751 541.747 99.8979 541.289 100.192C540.831 100.486 540.469 100.896 540.202 101.422C539.942 101.942 539.782 102.547 539.72 103.237H545.985ZM550.128 98.7563H551.481V100.5C551.796 99.8843 552.237 99.4126 552.804 99.0845C553.372 98.7563 554 98.5923 554.691 98.5923C555.463 98.5923 556.113 98.7632 556.639 99.105C557.166 99.4399 557.562 99.9014 557.829 100.489C558.095 101.077 558.235 101.75 558.249 102.509V109H556.896V102.827C556.896 101.884 556.677 101.152 556.239 100.633C555.802 100.113 555.166 99.8535 554.332 99.8535C553.45 99.8535 552.753 100.124 552.24 100.664C551.734 101.197 551.481 101.956 551.481 102.94V109H550.128V98.7563ZM570.144 109.154C569.234 109.154 568.541 108.894 568.062 108.375C567.59 107.855 567.354 107.106 567.354 106.129V99.9048H565.652V98.7563H567.375V95.793L568.708 94.7983V98.7563H571.579V99.9048H568.708V105.914C568.708 106.625 568.845 107.144 569.118 107.472C569.398 107.793 569.815 107.954 570.369 107.954C570.752 107.954 571.152 107.872 571.569 107.708L571.589 108.949C571.412 109.003 571.193 109.051 570.933 109.092C570.673 109.133 570.41 109.154 570.144 109.154ZM574.081 98.7563H575.404V100.899C575.568 100.394 575.817 99.9697 576.152 99.6279C576.494 99.2793 576.874 99.0195 577.291 98.8486C577.714 98.6777 578.138 98.5923 578.562 98.5923C578.856 98.5923 579.14 98.6333 579.413 98.7153C579.693 98.7974 579.943 98.9204 580.162 99.0845L579.546 100.212C579.184 100.014 578.794 99.915 578.377 99.915C577.885 99.915 577.41 100.052 576.952 100.325C576.501 100.592 576.128 101.016 575.834 101.597C575.541 102.171 575.394 102.896 575.394 103.771V109H574.081V98.7563ZM585.74 98.5923C586.608 98.5923 587.346 98.7598 587.955 99.0947C588.563 99.4229 589.024 99.8979 589.339 100.52C589.66 101.142 589.821 101.884 589.821 102.745V109H588.693L588.601 106.918C588.225 107.643 587.705 108.197 587.042 108.58C586.386 108.962 585.665 109.154 584.878 109.154C584.181 109.154 583.566 109.031 583.033 108.785C582.5 108.532 582.083 108.169 581.782 107.698C581.488 107.226 581.341 106.669 581.341 106.026C581.341 104.078 582.773 103.104 585.637 103.104H588.59V102.981C588.59 101.88 588.368 101.074 587.924 100.561C587.486 100.048 586.762 99.792 585.75 99.792C585.094 99.792 584.526 99.9321 584.048 100.212C583.569 100.493 583.146 100.91 582.776 101.463L581.741 100.705C582.253 99.9937 582.828 99.4639 583.463 99.1152C584.099 98.7666 584.858 98.5923 585.74 98.5923ZM585.135 107.995C586.003 107.995 586.734 107.739 587.329 107.226C587.924 106.713 588.344 106.023 588.59 105.155V104.109H585.709C584.718 104.109 583.973 104.28 583.474 104.622C582.975 104.957 582.725 105.438 582.725 106.067C582.725 106.662 582.937 107.134 583.361 107.482C583.785 107.824 584.376 107.995 585.135 107.995ZM596.927 109.154C596.024 109.154 595.225 108.918 594.527 108.446C593.837 107.975 593.3 107.339 592.917 106.539C592.542 105.732 592.354 104.84 592.354 103.863C592.354 102.899 592.542 102.017 592.917 101.217C593.3 100.411 593.837 99.7715 594.527 99.2998C595.218 98.8281 596.011 98.5923 596.906 98.5923C597.713 98.5923 598.448 98.8076 599.111 99.2383C599.774 99.6689 600.263 100.26 600.577 101.012V94.5112H601.951V109H600.68L600.628 106.672C600.314 107.445 599.825 108.053 599.162 108.498C598.499 108.935 597.754 109.154 596.927 109.154ZM597.224 107.923C597.921 107.923 598.53 107.749 599.049 107.4C599.576 107.045 599.979 106.56 600.259 105.944C600.54 105.329 600.68 104.635 600.68 103.863C600.68 103.097 600.54 102.41 600.259 101.802C599.979 101.187 599.576 100.705 599.049 100.356C598.53 100.007 597.921 99.833 597.224 99.833C596.527 99.833 595.912 100.011 595.378 100.366C594.852 100.715 594.445 101.197 594.158 101.812C593.871 102.427 593.728 103.111 593.728 103.863C593.728 104.622 593.871 105.312 594.158 105.934C594.445 106.549 594.852 107.035 595.378 107.39C595.912 107.746 596.527 107.923 597.224 107.923ZM605.612 94.5112H607.027V96.6133H605.612V94.5112ZM605.643 98.7563H606.986V109H605.643V98.7563ZM610.667 98.7563H612.021V100.5C612.335 99.8843 612.776 99.4126 613.343 99.0845C613.911 98.7563 614.54 98.5923 615.23 98.5923C616.002 98.5923 616.652 98.7632 617.178 99.105C617.705 99.4399 618.101 99.9014 618.368 100.489C618.634 101.077 618.774 101.75 618.788 102.509V109H617.435V102.827C617.435 101.884 617.216 101.152 616.778 100.633C616.341 100.113 615.705 99.8535 614.871 99.8535C613.989 99.8535 613.292 100.124 612.779 100.664C612.273 101.197 612.021 101.956 612.021 102.94V109H610.667V98.7563ZM625.997 107.77C626.933 107.913 627.678 108.063 628.232 108.221C628.792 108.371 629.268 108.634 629.657 109.01C630.047 109.386 630.242 109.916 630.242 110.6C630.242 111.249 630.061 111.806 629.698 112.271C629.336 112.743 628.83 113.098 628.181 113.337C627.538 113.583 626.8 113.707 625.966 113.707C625.016 113.707 624.192 113.56 623.495 113.266C622.797 112.972 622.264 112.565 621.895 112.045C621.533 111.526 621.352 110.928 621.352 110.251C621.352 110.087 621.362 109.937 621.382 109.8L622.931 108.385C622.507 108.193 622.175 107.94 621.936 107.626C621.704 107.312 621.587 106.912 621.587 106.426C621.587 106.002 621.68 105.63 621.864 105.309C622.049 104.987 622.326 104.7 622.695 104.447C622.408 104.14 622.186 103.788 622.028 103.391C621.878 102.995 621.803 102.571 621.803 102.12C621.803 101.443 621.974 100.838 622.315 100.305C622.657 99.7646 623.122 99.3442 623.71 99.0435C624.305 98.7427 624.964 98.5923 625.689 98.5923C626.188 98.5923 626.656 98.6675 627.094 98.8179C627.538 98.9614 627.931 99.1699 628.273 99.4434L629.667 98.2129L630.385 99.0947L629.011 100.253C629.38 100.828 629.565 101.474 629.565 102.191C629.565 102.875 629.394 103.48 629.052 104.006C628.717 104.533 628.256 104.943 627.668 105.237C627.087 105.524 626.438 105.667 625.72 105.667C624.92 105.667 624.202 105.49 623.566 105.134C623.026 105.374 622.756 105.732 622.756 106.211C622.756 106.566 622.89 106.843 623.156 107.042C623.423 107.233 623.758 107.373 624.161 107.462C624.564 107.544 625.176 107.646 625.997 107.77ZM625.73 99.6689C625.231 99.6689 624.79 99.7749 624.407 99.9868C624.024 100.192 623.727 100.482 623.515 100.858C623.31 101.228 623.208 101.651 623.208 102.13C623.208 102.602 623.31 103.022 623.515 103.391C623.72 103.753 624.011 104.037 624.387 104.242C624.77 104.447 625.214 104.55 625.72 104.55C626.226 104.55 626.667 104.451 627.042 104.252C627.425 104.047 627.716 103.764 627.914 103.401C628.119 103.032 628.222 102.612 628.222 102.14C628.222 101.655 628.119 101.228 627.914 100.858C627.709 100.482 627.418 100.192 627.042 99.9868C626.667 99.7749 626.229 99.6689 625.73 99.6689ZM625.956 112.63C626.872 112.63 627.6 112.462 628.14 112.127C628.68 111.792 628.95 111.328 628.95 110.733C628.95 110.323 628.81 110.005 628.529 109.779C628.249 109.554 627.89 109.39 627.453 109.287C627.015 109.185 626.376 109.075 625.535 108.959C625.241 108.918 624.937 108.874 624.623 108.826C624.308 108.771 624.024 108.716 623.771 108.662L622.582 110.087C622.582 110.169 622.589 110.278 622.603 110.415C622.671 111.119 623.009 111.663 623.618 112.045C624.226 112.435 625.005 112.63 625.956 112.63Z" fill="#6D7693"/>
<path d="M742.95 109.154C741.542 109.154 740.346 108.839 739.361 108.21C738.377 107.582 737.635 106.707 737.136 105.585C736.637 104.464 736.388 103.179 736.388 101.73C736.388 100.274 736.637 98.9922 737.136 97.8848C737.642 96.7705 738.391 95.9023 739.382 95.2803C740.38 94.6514 741.597 94.3369 743.032 94.3369C744.461 94.3369 745.667 94.665 746.652 95.3213C747.643 95.9775 748.405 96.9551 748.938 98.2539L747.616 98.7871C747.26 97.7207 746.7 96.938 745.934 96.439C745.175 95.9399 744.205 95.6904 743.022 95.6904C741.88 95.6904 740.917 95.9365 740.13 96.4287C739.351 96.9141 738.763 97.6079 738.367 98.5103C737.977 99.4058 737.782 100.462 737.782 101.679C737.782 102.868 737.963 103.924 738.326 104.847C738.695 105.763 739.266 106.488 740.038 107.021C740.811 107.547 741.781 107.811 742.95 107.811C744.092 107.811 745.045 107.558 745.811 107.052C746.583 106.539 747.195 105.746 747.646 104.673L748.959 105.206C748.385 106.505 747.592 107.489 746.58 108.159C745.568 108.822 744.358 109.154 742.95 109.154ZM753.419 109.154C752.722 109.154 752.233 108.962 751.953 108.58C751.673 108.19 751.533 107.609 751.533 106.836V94.5112H752.886V106.488C752.886 106.795 752.91 107.052 752.958 107.257C753.013 107.462 753.122 107.626 753.286 107.749C753.45 107.872 753.693 107.934 754.014 107.934C754.226 107.934 754.503 107.899 754.845 107.831L754.865 108.99C754.332 109.099 753.85 109.154 753.419 109.154ZM757.193 94.5112H758.608V96.6133H757.193V94.5112ZM757.224 98.7563H758.567V109H757.224V98.7563ZM762.607 99.9048H760.823V98.7563H762.607V97.7925C762.607 97.1021 762.774 96.4971 763.109 95.9775C763.451 95.458 763.916 95.0581 764.504 94.7778C765.092 94.4976 765.748 94.3574 766.473 94.3574C767.409 94.3574 768.236 94.5796 768.954 95.0239C769.494 94.5796 770.202 94.3574 771.077 94.3574C771.603 94.3574 772.129 94.4839 772.656 94.7368L772.205 95.8545C771.822 95.6631 771.487 95.5674 771.2 95.5674C770.024 95.5674 769.436 96.1416 769.436 97.29V98.7563H772.625V99.9048H769.436V109H768.031V99.9048H763.95V109H762.607V99.9048ZM768.042 98.7563V97.167C768.042 96.6748 768.147 96.2578 768.359 95.916C767.833 95.6152 767.225 95.4648 766.534 95.4648C765.728 95.4648 765.095 95.6802 764.637 96.1108C764.179 96.5347 763.95 97.1021 763.95 97.813V98.7563H768.042ZM780.172 98.7563H781.566V101.022C781.888 100.271 782.376 99.6792 783.033 99.2485C783.696 98.811 784.434 98.5923 785.248 98.5923C786.136 98.5923 786.909 98.8281 787.565 99.2998C788.221 99.7715 788.72 100.411 789.062 101.217C789.411 102.017 789.585 102.906 789.585 103.883C789.585 104.868 789.411 105.76 789.062 106.56C788.72 107.359 788.218 107.992 787.555 108.457C786.898 108.921 786.123 109.154 785.227 109.154C784.414 109.154 783.679 108.942 783.022 108.518C782.373 108.087 781.888 107.496 781.566 106.744V113.245H780.172V98.7563ZM784.93 107.923C785.627 107.923 786.222 107.749 786.714 107.4C787.206 107.045 787.579 106.563 787.832 105.955C788.091 105.339 788.221 104.649 788.221 103.883C788.221 103.111 788.095 102.42 787.842 101.812C787.589 101.204 787.213 100.725 786.714 100.376C786.222 100.028 785.627 99.8535 784.93 99.8535C784.232 99.8535 783.621 100.028 783.094 100.376C782.568 100.725 782.161 101.207 781.874 101.822C781.594 102.431 781.454 103.118 781.454 103.883C781.454 104.649 781.594 105.339 781.874 105.955C782.161 106.563 782.568 107.045 783.094 107.4C783.621 107.749 784.232 107.923 784.93 107.923ZM796.404 109.154C795.406 109.154 794.544 108.928 793.82 108.477C793.102 108.019 792.555 107.394 792.179 106.601C791.81 105.808 791.625 104.916 791.625 103.924C791.625 102.947 791.807 102.055 792.169 101.248C792.531 100.435 793.058 99.7886 793.748 99.3101C794.445 98.8315 795.276 98.5923 796.24 98.5923C797.279 98.5923 798.13 98.835 798.793 99.3203C799.463 99.7988 799.945 100.4 800.239 101.125C800.533 101.843 800.68 102.578 800.68 103.33C800.68 103.507 800.673 103.685 800.659 103.863C800.646 104.041 800.628 104.167 800.608 104.242H793.061C793.116 105.397 793.434 106.3 794.015 106.949C794.596 107.599 795.396 107.923 796.414 107.923C797.036 107.923 797.576 107.828 798.034 107.636C798.499 107.438 798.96 107.1 799.418 106.621L800.362 107.452C799.788 108.053 799.189 108.487 798.567 108.754C797.952 109.021 797.231 109.154 796.404 109.154ZM799.326 103.237C799.34 102.978 799.333 102.762 799.306 102.591C799.265 102.099 799.125 101.638 798.885 101.207C798.653 100.776 798.311 100.428 797.86 100.161C797.416 99.8877 796.872 99.751 796.229 99.751C795.621 99.751 795.088 99.8979 794.63 100.192C794.172 100.486 793.81 100.896 793.543 101.422C793.283 101.942 793.123 102.547 793.061 103.237H799.326ZM803.469 98.7563H804.792V100.899C804.956 100.394 805.205 99.9697 805.54 99.6279C805.882 99.2793 806.261 99.0195 806.678 98.8486C807.102 98.6777 807.526 98.5923 807.95 98.5923C808.244 98.5923 808.527 98.6333 808.801 98.7153C809.081 98.7974 809.331 98.9204 809.549 99.0845L808.934 100.212C808.572 100.014 808.182 99.915 807.765 99.915C807.273 99.915 806.798 100.052 806.34 100.325C805.889 100.592 805.516 101.016 805.222 101.597C804.928 102.171 804.781 102.896 804.781 103.771V109H803.469V98.7563ZM811.621 94.5112H813.036V96.6133H811.621V94.5112ZM811.651 98.7563H812.995V109H811.651V98.7563ZM820.716 109.154C819.766 109.154 818.915 108.921 818.163 108.457C817.411 107.985 816.823 107.346 816.399 106.539C815.982 105.726 815.773 104.83 815.773 103.853C815.773 102.882 815.982 101.997 816.399 101.197C816.823 100.397 817.411 99.7646 818.163 99.2998C818.915 98.8281 819.766 98.5923 820.716 98.5923C821.673 98.5923 822.527 98.8281 823.279 99.2998C824.038 99.7646 824.629 100.397 825.053 101.197C825.484 101.997 825.699 102.882 825.699 103.853C825.699 104.83 825.484 105.722 825.053 106.529C824.629 107.335 824.038 107.975 823.279 108.446C822.527 108.918 821.673 109.154 820.716 109.154ZM820.716 107.975C821.44 107.975 822.073 107.793 822.613 107.431C823.153 107.062 823.566 106.563 823.854 105.934C824.147 105.305 824.294 104.611 824.294 103.853C824.294 103.094 824.147 102.407 823.854 101.792C823.566 101.169 823.153 100.681 822.613 100.325C822.073 99.9629 821.44 99.7817 820.716 99.7817C819.998 99.7817 819.369 99.9629 818.829 100.325C818.296 100.681 817.886 101.169 817.599 101.792C817.318 102.407 817.178 103.094 817.178 103.853C817.178 104.618 817.318 105.315 817.599 105.944C817.886 106.566 818.296 107.062 818.829 107.431C819.369 107.793 819.998 107.975 820.716 107.975ZM832.221 109.154C831.318 109.154 830.519 108.918 829.821 108.446C829.131 107.975 828.594 107.339 828.211 106.539C827.835 105.732 827.647 104.84 827.647 103.863C827.647 102.899 827.835 102.017 828.211 101.217C828.594 100.411 829.131 99.7715 829.821 99.2998C830.512 98.8281 831.305 98.5923 832.2 98.5923C833.007 98.5923 833.742 98.8076 834.405 99.2383C835.068 99.6689 835.557 100.26 835.871 101.012V94.5112H837.245V109H835.974L835.922 106.672C835.608 107.445 835.119 108.053 834.456 108.498C833.793 108.935 833.048 109.154 832.221 109.154ZM832.518 107.923C833.215 107.923 833.824 107.749 834.343 107.4C834.87 107.045 835.273 106.56 835.553 105.944C835.833 105.329 835.974 104.635 835.974 103.863C835.974 103.097 835.833 102.41 835.553 101.802C835.273 101.187 834.87 100.705 834.343 100.356C833.824 100.007 833.215 99.833 832.518 99.833C831.821 99.833 831.206 100.011 830.672 100.366C830.146 100.715 829.739 101.197 829.452 101.812C829.165 102.427 829.021 103.111 829.021 103.863C829.021 104.622 829.165 105.312 829.452 105.934C829.739 106.549 830.146 107.035 830.672 107.39C831.206 107.746 831.821 107.923 832.518 107.923ZM850.257 109.154C849.259 109.154 848.398 108.928 847.673 108.477C846.956 108.019 846.409 107.394 846.033 106.601C845.664 105.808 845.479 104.916 845.479 103.924C845.479 102.947 845.66 102.055 846.022 101.248C846.385 100.435 846.911 99.7886 847.602 99.3101C848.299 98.8315 849.129 98.5923 850.093 98.5923C851.132 98.5923 851.983 98.835 852.646 99.3203C853.316 99.7988 853.798 100.4 854.092 101.125C854.386 101.843 854.533 102.578 854.533 103.33C854.533 103.507 854.526 103.685 854.513 103.863C854.499 104.041 854.482 104.167 854.461 104.242H846.915C846.969 105.397 847.287 106.3 847.868 106.949C848.449 107.599 849.249 107.923 850.268 107.923C850.89 107.923 851.43 107.828 851.888 107.636C852.353 107.438 852.814 107.1 853.272 106.621L854.215 107.452C853.641 108.053 853.043 108.487 852.421 108.754C851.806 109.021 851.084 109.154 850.257 109.154ZM853.18 103.237C853.193 102.978 853.187 102.762 853.159 102.591C853.118 102.099 852.978 101.638 852.739 101.207C852.506 100.776 852.165 100.428 851.713 100.161C851.269 99.8877 850.726 99.751 850.083 99.751C849.475 99.751 848.941 99.8979 848.483 100.192C848.025 100.486 847.663 100.896 847.396 101.422C847.137 101.942 846.976 102.547 846.915 103.237H853.18ZM857.322 98.7563H858.676V100.5C858.99 99.8843 859.431 99.4126 859.999 99.0845C860.566 98.7563 861.195 98.5923 861.885 98.5923C862.658 98.5923 863.307 98.7632 863.833 99.105C864.36 99.4399 864.756 99.9014 865.023 100.489C865.29 101.077 865.43 101.75 865.443 102.509V109H864.09V102.827C864.09 101.884 863.871 101.152 863.434 100.633C862.996 100.113 862.36 99.8535 861.526 99.8535C860.645 99.8535 859.947 100.124 859.435 100.664C858.929 101.197 858.676 101.956 858.676 102.94V109H857.322V98.7563ZM872.58 109.154C871.678 109.154 870.878 108.918 870.181 108.446C869.49 107.975 868.954 107.339 868.571 106.539C868.195 105.732 868.007 104.84 868.007 103.863C868.007 102.899 868.195 102.017 868.571 101.217C868.954 100.411 869.49 99.7715 870.181 99.2998C870.871 98.8281 871.664 98.5923 872.56 98.5923C873.366 98.5923 874.101 98.8076 874.764 99.2383C875.427 99.6689 875.916 100.26 876.23 101.012V94.5112H877.604V109H876.333L876.282 106.672C875.967 107.445 875.479 108.053 874.815 108.498C874.152 108.935 873.407 109.154 872.58 109.154ZM872.877 107.923C873.575 107.923 874.183 107.749 874.703 107.4C875.229 107.045 875.632 106.56 875.913 105.944C876.193 105.329 876.333 104.635 876.333 103.863C876.333 103.097 876.193 102.41 875.913 101.802C875.632 101.187 875.229 100.705 874.703 100.356C874.183 100.007 873.575 99.833 872.877 99.833C872.18 99.833 871.565 100.011 871.032 100.366C870.505 100.715 870.099 101.197 869.812 101.812C869.524 102.427 869.381 103.111 869.381 103.863C869.381 104.622 869.524 105.312 869.812 105.934C870.099 106.549 870.505 107.035 871.032 107.39C871.565 107.746 872.18 107.923 872.877 107.923ZM884.341 109.154C883.678 109.154 883.063 109.041 882.496 108.815C881.928 108.583 881.446 108.262 881.05 107.852C880.653 107.441 880.366 106.977 880.188 106.457L881.286 105.975C881.498 106.563 881.86 107.052 882.373 107.441C882.892 107.824 883.528 108.016 884.28 108.016C884.786 108.016 885.216 107.937 885.572 107.78C885.927 107.616 886.194 107.39 886.372 107.103C886.556 106.816 886.648 106.491 886.648 106.129C886.648 105.726 886.529 105.404 886.29 105.165C886.057 104.919 885.767 104.734 885.418 104.611C885.076 104.481 884.601 104.341 883.993 104.191C883.282 104.02 882.708 103.849 882.27 103.678C881.833 103.507 881.46 103.241 881.152 102.878C880.852 102.516 880.701 102.027 880.701 101.412C880.701 100.824 880.855 100.318 881.163 99.8945C881.47 99.4639 881.887 99.1392 882.414 98.9204C882.947 98.7017 883.545 98.5923 884.208 98.5923C885.008 98.5923 885.715 98.7803 886.331 99.1562C886.953 99.5254 887.445 100.052 887.807 100.735L886.761 101.299C886.501 100.807 886.153 100.417 885.715 100.13C885.278 99.8364 884.762 99.6895 884.167 99.6895C883.729 99.6895 883.347 99.7544 883.019 99.8843C882.697 100.014 882.448 100.199 882.27 100.438C882.092 100.67 882.003 100.937 882.003 101.238C882.003 101.593 882.113 101.88 882.332 102.099C882.55 102.318 882.82 102.489 883.142 102.612C883.47 102.728 883.924 102.861 884.505 103.012C885.244 103.196 885.842 103.384 886.3 103.576C886.765 103.767 887.161 104.061 887.489 104.458C887.817 104.854 887.981 105.391 887.981 106.067C887.981 106.73 887.821 107.294 887.5 107.759C887.178 108.217 886.741 108.566 886.187 108.805C885.64 109.038 885.025 109.154 884.341 109.154Z" fill="#6D7693"/>
<path d="M985.424 94.5112L979.703 109H978.564L972.822 94.5112H974.371L979.139 106.857L983.886 94.5112H985.424ZM990.633 109.154C989.635 109.154 988.774 108.928 988.049 108.477C987.332 108.019 986.785 107.394 986.409 106.601C986.04 105.808 985.855 104.916 985.855 103.924C985.855 102.947 986.036 102.055 986.398 101.248C986.761 100.435 987.287 99.7886 987.978 99.3101C988.675 98.8315 989.505 98.5923 990.469 98.5923C991.508 98.5923 992.359 98.835 993.022 99.3203C993.692 99.7988 994.174 100.4 994.468 101.125C994.762 101.843 994.909 102.578 994.909 103.33C994.909 103.507 994.902 103.685 994.889 103.863C994.875 104.041 994.858 104.167 994.837 104.242H987.291C987.345 105.397 987.663 106.3 988.244 106.949C988.825 107.599 989.625 107.923 990.644 107.923C991.266 107.923 991.806 107.828 992.264 107.636C992.729 107.438 993.19 107.1 993.648 106.621L994.591 107.452C994.017 108.053 993.419 108.487 992.797 108.754C992.182 109.021 991.46 109.154 990.633 109.154ZM993.556 103.237C993.569 102.978 993.562 102.762 993.535 102.591C993.494 102.099 993.354 101.638 993.115 101.207C992.882 100.776 992.541 100.428 992.089 100.161C991.645 99.8877 991.102 99.751 990.459 99.751C989.851 99.751 989.317 99.8979 988.859 100.192C988.401 100.486 988.039 100.896 987.772 101.422C987.513 101.942 987.352 102.547 987.291 103.237H993.556ZM1000.74 109.154C1000.08 109.154 999.465 109.041 998.898 108.815C998.331 108.583 997.849 108.262 997.452 107.852C997.056 107.441 996.769 106.977 996.591 106.457L997.688 105.975C997.9 106.563 998.262 107.052 998.775 107.441C999.294 107.824 999.93 108.016 1000.68 108.016C1001.19 108.016 1001.62 107.937 1001.97 107.78C1002.33 107.616 1002.6 107.39 1002.77 107.103C1002.96 106.816 1003.05 106.491 1003.05 106.129C1003.05 105.726 1002.93 105.404 1002.69 105.165C1002.46 104.919 1002.17 104.734 1001.82 104.611C1001.48 104.481 1001 104.341 1000.4 104.191C999.684 104.02 999.11 103.849 998.672 103.678C998.235 103.507 997.862 103.241 997.555 102.878C997.254 102.516 997.104 102.027 997.104 101.412C997.104 100.824 997.257 100.318 997.565 99.8945C997.873 99.4639 998.29 99.1392 998.816 98.9204C999.349 98.7017 999.947 98.5923 1000.61 98.5923C1001.41 98.5923 1002.12 98.7803 1002.73 99.1562C1003.35 99.5254 1003.85 100.052 1004.21 100.735L1003.16 101.299C1002.9 100.807 1002.56 100.417 1002.12 100.13C1001.68 99.8364 1001.16 99.6895 1000.57 99.6895C1000.13 99.6895 999.749 99.7544 999.421 99.8843C999.1 100.014 998.85 100.199 998.672 100.438C998.495 100.67 998.406 100.937 998.406 101.238C998.406 101.593 998.515 101.88 998.734 102.099C998.953 102.318 999.223 102.489 999.544 102.612C999.872 102.728 1000.33 102.861 1000.91 103.012C1001.65 103.196 1002.24 103.384 1002.7 103.576C1003.17 103.767 1003.56 104.061 1003.89 104.458C1004.22 104.854 1004.38 105.391 1004.38 106.067C1004.38 106.73 1004.22 107.294 1003.9 107.759C1003.58 108.217 1003.14 108.566 1002.59 108.805C1002.04 109.038 1001.43 109.154 1000.74 109.154ZM1010.33 109.154C1009.42 109.154 1008.73 108.894 1008.25 108.375C1007.78 107.855 1007.54 107.106 1007.54 106.129V99.9048H1005.84V98.7563H1007.56V95.793L1008.9 94.7983V98.7563H1011.77V99.9048H1008.9V105.914C1008.9 106.625 1009.03 107.144 1009.31 107.472C1009.59 107.793 1010 107.954 1010.56 107.954C1010.94 107.954 1011.34 107.872 1011.76 107.708L1011.78 108.949C1011.6 109.003 1011.38 109.051 1011.12 109.092C1010.86 109.133 1010.6 109.154 1010.33 109.154ZM1014.42 94.5112H1015.84V96.6133H1014.42V94.5112ZM1014.45 98.7563H1015.8V109H1014.45V98.7563ZM1019.48 98.7563H1020.83V100.5C1021.15 99.8843 1021.59 99.4126 1022.15 99.0845C1022.72 98.7563 1023.35 98.5923 1024.04 98.5923C1024.81 98.5923 1025.46 98.7632 1025.99 99.105C1026.52 99.4399 1026.91 99.9014 1027.18 100.489C1027.44 101.077 1027.58 101.75 1027.6 102.509V109H1026.25V102.827C1026.25 101.884 1026.03 101.152 1025.59 100.633C1025.15 100.113 1024.52 99.8535 1023.68 99.8535C1022.8 99.8535 1022.1 100.124 1021.59 100.664C1021.08 101.197 1020.83 101.956 1020.83 102.94V109H1019.48V98.7563ZM1034.81 107.77C1035.74 107.913 1036.49 108.063 1037.04 108.221C1037.6 108.371 1038.08 108.634 1038.47 109.01C1038.86 109.386 1039.05 109.916 1039.05 110.6C1039.05 111.249 1038.87 111.806 1038.51 112.271C1038.15 112.743 1037.64 113.098 1036.99 113.337C1036.35 113.583 1035.61 113.707 1034.78 113.707C1033.83 113.707 1033 113.56 1032.31 113.266C1031.61 112.972 1031.07 112.565 1030.71 112.045C1030.34 111.526 1030.16 110.928 1030.16 110.251C1030.16 110.087 1030.17 109.937 1030.19 109.8L1031.74 108.385C1031.32 108.193 1030.99 107.94 1030.75 107.626C1030.51 107.312 1030.4 106.912 1030.4 106.426C1030.4 106.002 1030.49 105.63 1030.67 105.309C1030.86 104.987 1031.14 104.7 1031.51 104.447C1031.22 104.14 1031 103.788 1030.84 103.391C1030.69 102.995 1030.61 102.571 1030.61 102.12C1030.61 101.443 1030.78 100.838 1031.13 100.305C1031.47 99.7646 1031.93 99.3442 1032.52 99.0435C1033.12 98.7427 1033.77 98.5923 1034.5 98.5923C1035 98.5923 1035.47 98.6675 1035.9 98.8179C1036.35 98.9614 1036.74 99.1699 1037.08 99.4434L1038.48 98.2129L1039.2 99.0947L1037.82 100.253C1038.19 100.828 1038.38 101.474 1038.38 102.191C1038.38 102.875 1038.2 103.48 1037.86 104.006C1037.53 104.533 1037.07 104.943 1036.48 105.237C1035.9 105.524 1035.25 105.667 1034.53 105.667C1033.73 105.667 1033.01 105.49 1032.38 105.134C1031.84 105.374 1031.57 105.732 1031.57 106.211C1031.57 106.566 1031.7 106.843 1031.97 107.042C1032.23 107.233 1032.57 107.373 1032.97 107.462C1033.38 107.544 1033.99 107.646 1034.81 107.77ZM1034.54 99.6689C1034.04 99.6689 1033.6 99.7749 1033.22 99.9868C1032.83 100.192 1032.54 100.482 1032.33 100.858C1032.12 101.228 1032.02 101.651 1032.02 102.13C1032.02 102.602 1032.12 103.022 1032.33 103.391C1032.53 103.753 1032.82 104.037 1033.2 104.242C1033.58 104.447 1034.02 104.55 1034.53 104.55C1035.04 104.55 1035.48 104.451 1035.85 104.252C1036.24 104.047 1036.53 103.764 1036.72 103.401C1036.93 103.032 1037.03 102.612 1037.03 102.14C1037.03 101.655 1036.93 101.228 1036.72 100.858C1036.52 100.482 1036.23 100.192 1035.85 99.9868C1035.48 99.7749 1035.04 99.6689 1034.54 99.6689ZM1034.77 112.63C1035.68 112.63 1036.41 112.462 1036.95 112.127C1037.49 111.792 1037.76 111.328 1037.76 110.733C1037.76 110.323 1037.62 110.005 1037.34 109.779C1037.06 109.554 1036.7 109.39 1036.26 109.287C1035.83 109.185 1035.19 109.075 1034.35 108.959C1034.05 108.918 1033.75 108.874 1033.43 108.826C1033.12 108.771 1032.83 108.716 1032.58 108.662L1031.39 110.087C1031.39 110.169 1031.4 110.278 1031.41 110.415C1031.48 111.119 1031.82 111.663 1032.43 112.045C1033.04 112.435 1033.82 112.63 1034.77 112.63ZM1047.06 98.7563H1048.46V101.022C1048.78 100.271 1049.27 99.6792 1049.92 99.2485C1050.58 98.811 1051.32 98.5923 1052.14 98.5923C1053.02 98.5923 1053.8 98.8281 1054.45 99.2998C1055.11 99.7715 1055.61 100.411 1055.95 101.217C1056.3 102.017 1056.47 102.906 1056.47 103.883C1056.47 104.868 1056.3 105.76 1055.95 106.56C1055.61 107.359 1055.11 107.992 1054.44 108.457C1053.79 108.921 1053.01 109.154 1052.12 109.154C1051.3 109.154 1050.57 108.942 1049.91 108.518C1049.26 108.087 1048.78 107.496 1048.46 106.744V113.245H1047.06V98.7563ZM1051.82 107.923C1052.52 107.923 1053.11 107.749 1053.6 107.4C1054.09 107.045 1054.47 106.563 1054.72 105.955C1054.98 105.339 1055.11 104.649 1055.11 103.883C1055.11 103.111 1054.98 102.42 1054.73 101.812C1054.48 101.204 1054.1 100.725 1053.6 100.376C1053.11 100.028 1052.52 99.8535 1051.82 99.8535C1051.12 99.8535 1050.51 100.028 1049.98 100.376C1049.46 100.725 1049.05 101.207 1048.76 101.822C1048.48 102.431 1048.34 103.118 1048.34 103.883C1048.34 104.649 1048.48 105.339 1048.76 105.955C1049.05 106.563 1049.46 107.045 1049.98 107.4C1050.51 107.749 1051.12 107.923 1051.82 107.923ZM1063.29 109.154C1062.29 109.154 1061.43 108.928 1060.71 108.477C1059.99 108.019 1059.44 107.394 1059.07 106.601C1058.7 105.808 1058.51 104.916 1058.51 103.924C1058.51 102.947 1058.7 102.055 1059.06 101.248C1059.42 100.435 1059.95 99.7886 1060.64 99.3101C1061.33 98.8315 1062.16 98.5923 1063.13 98.5923C1064.17 98.5923 1065.02 98.835 1065.68 99.3203C1066.35 99.7988 1066.83 100.4 1067.13 101.125C1067.42 101.843 1067.57 102.578 1067.57 103.33C1067.57 103.507 1067.56 103.685 1067.55 103.863C1067.53 104.041 1067.52 104.167 1067.5 104.242H1059.95C1060 105.397 1060.32 106.3 1060.9 106.949C1061.48 107.599 1062.28 107.923 1063.3 107.923C1063.92 107.923 1064.46 107.828 1064.92 107.636C1065.39 107.438 1065.85 107.1 1066.31 106.621L1067.25 107.452C1066.68 108.053 1066.08 108.487 1065.46 108.754C1064.84 109.021 1064.12 109.154 1063.29 109.154ZM1066.21 103.237C1066.23 102.978 1066.22 102.762 1066.19 102.591C1066.15 102.099 1066.01 101.638 1065.77 101.207C1065.54 100.776 1065.2 100.428 1064.75 100.161C1064.3 99.8877 1063.76 99.751 1063.12 99.751C1062.51 99.751 1061.98 99.8979 1061.52 100.192C1061.06 100.486 1060.7 100.896 1060.43 101.422C1060.17 101.942 1060.01 102.547 1059.95 103.237H1066.21ZM1070.36 98.7563H1071.68V100.899C1071.84 100.394 1072.09 99.9697 1072.43 99.6279C1072.77 99.2793 1073.15 99.0195 1073.57 98.8486C1073.99 98.6777 1074.41 98.5923 1074.84 98.5923C1075.13 98.5923 1075.42 98.6333 1075.69 98.7153C1075.97 98.7974 1076.22 98.9204 1076.44 99.0845L1075.82 100.212C1075.46 100.014 1075.07 99.915 1074.65 99.915C1074.16 99.915 1073.69 100.052 1073.23 100.325C1072.78 100.592 1072.4 101.016 1072.11 101.597C1071.82 102.171 1071.67 102.896 1071.67 103.771V109H1070.36V98.7563ZM1078.51 94.5112H1079.92V96.6133H1078.51V94.5112ZM1078.54 98.7563H1079.88V109H1078.54V98.7563ZM1087.6 109.154C1086.65 109.154 1085.8 108.921 1085.05 108.457C1084.3 107.985 1083.71 107.346 1083.29 106.539C1082.87 105.726 1082.66 104.83 1082.66 103.853C1082.66 102.882 1082.87 101.997 1083.29 101.197C1083.71 100.397 1084.3 99.7646 1085.05 99.2998C1085.8 98.8281 1086.65 98.5923 1087.6 98.5923C1088.56 98.5923 1089.42 98.8281 1090.17 99.2998C1090.93 99.7646 1091.52 100.397 1091.94 101.197C1092.37 101.997 1092.59 102.882 1092.59 103.853C1092.59 104.83 1092.37 105.722 1091.94 106.529C1091.52 107.335 1090.93 107.975 1090.17 108.446C1089.42 108.918 1088.56 109.154 1087.6 109.154ZM1087.6 107.975C1088.33 107.975 1088.96 107.793 1089.5 107.431C1090.04 107.062 1090.46 106.563 1090.74 105.934C1091.04 105.305 1091.18 104.611 1091.18 103.853C1091.18 103.094 1091.04 102.407 1090.74 101.792C1090.46 101.169 1090.04 100.681 1089.5 100.325C1088.96 99.9629 1088.33 99.7817 1087.6 99.7817C1086.89 99.7817 1086.26 99.9629 1085.72 100.325C1085.18 100.681 1084.77 101.169 1084.49 101.792C1084.21 102.407 1084.07 103.094 1084.07 103.853C1084.07 104.618 1084.21 105.315 1084.49 105.944C1084.77 106.566 1085.18 107.062 1085.72 107.431C1086.26 107.793 1086.89 107.975 1087.6 107.975ZM1099.11 109.154C1098.21 109.154 1097.41 108.918 1096.71 108.446C1096.02 107.975 1095.48 107.339 1095.1 106.539C1094.72 105.732 1094.54 104.84 1094.54 103.863C1094.54 102.899 1094.72 102.017 1095.1 101.217C1095.48 100.411 1096.02 99.7715 1096.71 99.2998C1097.4 98.8281 1098.19 98.5923 1099.09 98.5923C1099.9 98.5923 1100.63 98.8076 1101.29 99.2383C1101.96 99.6689 1102.45 100.26 1102.76 101.012V94.5112H1104.13V109H1102.86L1102.81 106.672C1102.5 107.445 1102.01 108.053 1101.34 108.498C1100.68 108.935 1099.94 109.154 1099.11 109.154ZM1099.41 107.923C1100.1 107.923 1100.71 107.749 1101.23 107.4C1101.76 107.045 1102.16 106.56 1102.44 105.944C1102.72 105.329 1102.86 104.635 1102.86 103.863C1102.86 103.097 1102.72 102.41 1102.44 101.802C1102.16 101.187 1101.76 100.705 1101.23 100.356C1100.71 100.007 1100.1 99.833 1099.41 99.833C1098.71 99.833 1098.09 100.011 1097.56 100.366C1097.03 100.715 1096.63 101.197 1096.34 101.812C1096.05 102.427 1095.91 103.111 1095.91 103.863C1095.91 104.622 1096.05 105.312 1096.34 105.934C1096.63 106.549 1097.03 107.035 1097.56 107.39C1098.09 107.746 1098.71 107.923 1099.41 107.923ZM1117.15 109.154C1116.15 109.154 1115.29 108.928 1114.56 108.477C1113.84 108.019 1113.3 107.394 1112.92 106.601C1112.55 105.808 1112.37 104.916 1112.37 103.924C1112.37 102.947 1112.55 102.055 1112.91 101.248C1113.27 100.435 1113.8 99.7886 1114.49 99.3101C1115.19 98.8315 1116.02 98.5923 1116.98 98.5923C1118.02 98.5923 1118.87 98.835 1119.54 99.3203C1120.21 99.7988 1120.69 100.4 1120.98 101.125C1121.27 101.843 1121.42 102.578 1121.42 103.33C1121.42 103.507 1121.42 103.685 1121.4 103.863C1121.39 104.041 1121.37 104.167 1121.35 104.242H1113.8C1113.86 105.397 1114.18 106.3 1114.76 106.949C1115.34 107.599 1116.14 107.923 1117.16 107.923C1117.78 107.923 1118.32 107.828 1118.78 107.636C1119.24 107.438 1119.7 107.1 1120.16 106.621L1121.1 107.452C1120.53 108.053 1119.93 108.487 1119.31 108.754C1118.69 109.021 1117.97 109.154 1117.15 109.154ZM1120.07 103.237C1120.08 102.978 1120.08 102.762 1120.05 102.591C1120.01 102.099 1119.87 101.638 1119.63 101.207C1119.4 100.776 1119.05 100.428 1118.6 100.161C1118.16 99.8877 1117.61 99.751 1116.97 99.751C1116.36 99.751 1115.83 99.8979 1115.37 100.192C1114.91 100.486 1114.55 100.896 1114.29 101.422C1114.03 101.942 1113.86 102.547 1113.8 103.237H1120.07ZM1124.21 98.7563H1125.56V100.5C1125.88 99.8843 1126.32 99.4126 1126.89 99.0845C1127.45 98.7563 1128.08 98.5923 1128.77 98.5923C1129.55 98.5923 1130.2 98.7632 1130.72 99.105C1131.25 99.4399 1131.65 99.9014 1131.91 100.489C1132.18 101.077 1132.32 101.75 1132.33 102.509V109H1130.98V102.827C1130.98 101.884 1130.76 101.152 1130.32 100.633C1129.88 100.113 1129.25 99.8535 1128.42 99.8535C1127.53 99.8535 1126.84 100.124 1126.32 100.664C1125.82 101.197 1125.56 101.956 1125.56 102.94V109H1124.21V98.7563ZM1139.47 109.154C1138.57 109.154 1137.77 108.918 1137.07 108.446C1136.38 107.975 1135.84 107.339 1135.46 106.539C1135.08 105.732 1134.9 104.84 1134.9 103.863C1134.9 102.899 1135.08 102.017 1135.46 101.217C1135.84 100.411 1136.38 99.7715 1137.07 99.2998C1137.76 98.8281 1138.55 98.5923 1139.45 98.5923C1140.25 98.5923 1140.99 98.8076 1141.65 99.2383C1142.32 99.6689 1142.8 100.26 1143.12 101.012V94.5112H1144.49V109H1143.22L1143.17 106.672C1142.86 107.445 1142.37 108.053 1141.7 108.498C1141.04 108.935 1140.3 109.154 1139.47 109.154ZM1139.77 107.923C1140.46 107.923 1141.07 107.749 1141.59 107.4C1142.12 107.045 1142.52 106.56 1142.8 105.944C1143.08 105.329 1143.22 104.635 1143.22 103.863C1143.22 103.097 1143.08 102.41 1142.8 101.802C1142.52 101.187 1142.12 100.705 1141.59 100.356C1141.07 100.007 1140.46 99.833 1139.77 99.833C1139.07 99.833 1138.45 100.011 1137.92 100.366C1137.39 100.715 1136.99 101.197 1136.7 101.812C1136.41 102.427 1136.27 103.111 1136.27 103.863C1136.27 104.622 1136.41 105.312 1136.7 105.934C1136.99 106.549 1137.39 107.035 1137.92 107.39C1138.45 107.746 1139.07 107.923 1139.77 107.923ZM1151.23 109.154C1150.57 109.154 1149.95 109.041 1149.38 108.815C1148.82 108.583 1148.33 108.262 1147.94 107.852C1147.54 107.441 1147.25 106.977 1147.08 106.457L1148.17 105.975C1148.39 106.563 1148.75 107.052 1149.26 107.441C1149.78 107.824 1150.42 108.016 1151.17 108.016C1151.67 108.016 1152.1 107.937 1152.46 107.78C1152.82 107.616 1153.08 107.39 1153.26 107.103C1153.44 106.816 1153.54 106.491 1153.54 106.129C1153.54 105.726 1153.42 105.404 1153.18 105.165C1152.95 104.919 1152.66 104.734 1152.31 104.611C1151.96 104.481 1151.49 104.341 1150.88 104.191C1150.17 104.02 1149.6 103.849 1149.16 103.678C1148.72 103.507 1148.35 103.241 1148.04 102.878C1147.74 102.516 1147.59 102.027 1147.59 101.412C1147.59 100.824 1147.74 100.318 1148.05 99.8945C1148.36 99.4639 1148.78 99.1392 1149.3 98.9204C1149.84 98.7017 1150.43 98.5923 1151.1 98.5923C1151.9 98.5923 1152.6 98.7803 1153.22 99.1562C1153.84 99.5254 1154.33 100.052 1154.7 100.735L1153.65 101.299C1153.39 100.807 1153.04 100.417 1152.6 100.13C1152.17 99.8364 1151.65 99.6895 1151.06 99.6895C1150.62 99.6895 1150.24 99.7544 1149.91 99.8843C1149.59 100.014 1149.34 100.199 1149.16 100.438C1148.98 100.67 1148.89 100.937 1148.89 101.238C1148.89 101.593 1149 101.88 1149.22 102.099C1149.44 102.318 1149.71 102.489 1150.03 102.612C1150.36 102.728 1150.81 102.861 1151.39 103.012C1152.13 103.196 1152.73 103.384 1153.19 103.576C1153.65 103.767 1154.05 104.061 1154.38 104.458C1154.71 104.854 1154.87 105.391 1154.87 106.067C1154.87 106.73 1154.71 107.294 1154.39 107.759C1154.07 108.217 1153.63 108.566 1153.08 108.805C1152.53 109.038 1151.91 109.154 1151.23 109.154Z" fill="#6D7693"/>
<circle cx="323" cy="34" r="34" fill="url(#paint0_linear)"/>
<circle cx="570" cy="34" r="34" fill="url(#paint1_linear)"/>
<circle cx="817" cy="34" r="34" fill="url(#paint2_linear)"/>
<circle cx="1064" cy="34" r="34" fill="url(#paint3_linear)"/>
<circle cx="76" cy="34" r="34" fill="url(#paint4_linear)"/>
<path d="M78.3438 24.4414V41H75.8711V28.9766H71.9102V27.0547H74.3125C74.8594 27.0547 75.2695 26.9375 75.543 26.7031C75.8242 26.4688 75.9648 26.0977 75.9648 25.5898V24.4414H78.3438Z" fill="white"/>
<path d="M328.918 38.7148V41H317.176V38.9492C319.457 37.5586 321.422 36.0469 323.07 34.4141C324.727 32.7812 325.555 31.0508 325.555 29.2227C325.555 28.4102 325.328 27.7539 324.875 27.2539C324.422 26.7539 323.758 26.5039 322.883 26.5039C321.82 26.5039 321.035 26.8633 320.527 27.582C320.02 28.3008 319.75 29.2109 319.719 30.3125L317.258 30.1484C317.258 29.0938 317.48 28.1172 317.926 27.2188C318.379 26.3125 319.027 25.5898 319.871 25.0508C320.723 24.5117 321.719 24.2422 322.859 24.2422C323.875 24.2422 324.773 24.4414 325.555 24.8398C326.344 25.2305 326.961 25.8047 327.406 26.5625C327.852 27.3203 328.074 28.2266 328.074 29.2812C328.074 30.4922 327.719 31.7148 327.008 32.9492C326.305 34.1836 325.422 35.3008 324.359 36.3008C323.305 37.3008 322.258 38.1055 321.219 38.7148H328.918Z" fill="white"/>
<path d="M569.859 41.2227C568.734 41.2227 567.715 41.0195 566.801 40.6133C565.895 40.1992 565.172 39.5898 564.633 38.7852C564.102 37.9805 563.836 37.0078 563.836 35.8672L566.238 35.7266C566.238 36.3828 566.395 36.9492 566.707 37.4258C567.02 37.9023 567.453 38.2695 568.008 38.5273C568.562 38.7773 569.195 38.9023 569.906 38.9023C570.562 38.9023 571.16 38.793 571.699 38.5742C572.246 38.3477 572.68 38.0156 573 37.5781C573.32 37.1328 573.48 36.6016 573.48 35.9844C573.48 35.2031 573.266 34.6172 572.836 34.2266C572.414 33.8281 571.895 33.5742 571.277 33.4648C570.668 33.3477 569.941 33.2891 569.098 33.2891V31.3438C569.973 31.3438 570.664 31.2578 571.172 31.0859C571.68 30.9062 572.039 30.6445 572.25 30.3008C572.469 29.957 572.578 29.5117 572.578 28.9648C572.578 28.457 572.461 28.0234 572.227 27.6641C571.992 27.3047 571.668 27.0312 571.254 26.8438C570.84 26.6562 570.371 26.5625 569.848 26.5625C568.996 26.5625 568.309 26.7969 567.785 27.2656C567.27 27.7344 567.008 28.3711 567 29.1758L564.621 29.0234C564.621 28.0469 564.852 27.1953 565.312 26.4688C565.781 25.7422 566.41 25.1875 567.199 24.8047C567.988 24.4141 568.859 24.2188 569.812 24.2188C570.734 24.2188 571.59 24.4023 572.379 24.7695C573.176 25.1289 573.809 25.6445 574.277 26.3164C574.754 26.9883 574.992 27.7695 574.992 28.6602C574.992 29.457 574.777 30.1562 574.348 30.7578C573.926 31.3594 573.297 31.8242 572.461 32.1523C573.57 32.418 574.418 32.9023 575.004 33.6055C575.59 34.3086 575.883 35.168 575.883 36.1836C575.883 37.2383 575.609 38.1445 575.062 38.9023C574.523 39.6602 573.797 40.2383 572.883 40.6367C571.969 41.0273 570.961 41.2227 569.859 41.2227Z" fill="white"/>
<path d="M823.457 34.7891V37.0977H820.797V41H818.324V37.0977H810.449V35.5977L818.652 24.4414H820.797V34.7891H823.457ZM818.324 34.7891V28.25L813.672 34.7891H818.324Z" fill="white"/>
<path d="M1064.32 29.7266C1065.32 29.7266 1066.25 29.9805 1067.09 30.4883C1067.95 30.9961 1068.62 31.6875 1069.11 32.5625C1069.61 33.4297 1069.86 34.375 1069.86 35.3984C1069.86 36.4297 1069.59 37.3945 1069.05 38.293C1068.51 39.1836 1067.79 39.8945 1066.87 40.4258C1065.96 40.957 1064.97 41.2227 1063.91 41.2227C1062.95 41.2227 1062.07 41.0078 1061.25 40.5781C1060.43 40.1406 1059.75 39.5469 1059.18 38.7969C1058.63 38.0469 1058.25 37.207 1058.05 36.2773L1060.39 35.6328C1060.59 36.5781 1060.98 37.3672 1061.56 38C1062.15 38.625 1062.93 38.9375 1063.91 38.9375C1064.55 38.9375 1065.12 38.7734 1065.64 38.4453C1066.16 38.1094 1066.56 37.668 1066.85 37.1211C1067.14 36.5742 1067.29 35.9922 1067.29 35.375C1067.29 34.75 1067.16 34.1797 1066.88 33.6641C1066.62 33.1484 1066.23 32.7422 1065.72 32.4453C1065.21 32.1406 1064.62 31.9883 1063.95 31.9883C1063.35 31.9883 1062.77 32.1406 1062.22 32.4453C1061.66 32.7422 1061.21 33.1562 1060.86 33.6875L1058.54 33.0898L1060.12 24.4414H1069.1V26.7617H1062.11L1061.4 30.5938C1062.33 30.0156 1063.3 29.7266 1064.32 29.7266Z" fill="white"/>
<circle cx="137.5" cy="34.5" r="1.5" fill="#C4C4C4"/>
<circle cx="153.5" cy="34.5" r="1.5" fill="#C4C4C4"/>
<circle cx="245.5" cy="34.5" r="1.5" fill="#C4C4C4"/>
<circle cx="261.5" cy="34.5" r="1.5" fill="#C4C4C4"/>
<circle cx="169.5" cy="34.5" r="1.5" fill="#C4C4C4"/>
<circle cx="185.5" cy="34.5" r="1.5" fill="#C4C4C4"/>
<circle cx="213.5" cy="34.5" r="1.5" fill="#C4C4C4"/>
<circle cx="229.5" cy="34.5" r="1.5" fill="#C4C4C4"/>
<path d="M197.204 28.0869L197.204 28.087L202.921 33.931L197.204 28.0869ZM197.204 28.0869C196.894 27.771 196.391 27.7712 196.081 28.0868L196.081 28.0869L197.204 28.0869ZM196.082 40.9131L196.082 40.913C195.774 40.5982 195.774 40.0894 196.082 39.7751L201.242 34.4997L196.081 29.2243C196.081 29.2242 196.081 29.2242 196.081 29.2242L196.081 29.2242L196.188 29.1193L196.082 40.9131ZM196.082 40.9131C196.391 41.229 196.895 41.229 197.205 40.9131L197.205 40.913M196.082 40.9131L197.205 40.913M197.205 40.913L202.922 35.0689L202.922 35.0687M197.205 40.913L202.922 35.0687M202.922 35.0687C203.226 34.7573 203.226 34.2421 202.921 33.9311L202.922 35.0687ZM196.189 39.8801C195.938 40.136 195.938 40.5516 196.189 40.8081C196.44 41.064 196.847 41.064 197.098 40.8081L202.815 34.964L196.189 39.8801Z" fill="url(#paint5_linear)" stroke="url(#paint6_linear)" stroke-width="0.3"/>
<circle cx="385.5" cy="34.5" r="1.5" fill="#C4C4C4"/>
<circle cx="401.5" cy="34.5" r="1.5" fill="#C4C4C4"/>
<circle cx="417.5" cy="34.5" r="1.5" fill="#C4C4C4"/>
<circle cx="433.5" cy="34.5" r="1.5" fill="#C4C4C4"/>
<circle cx="461.5" cy="34.5" r="1.5" fill="#C4C4C4"/>
<circle cx="477.5" cy="34.5" r="1.5" fill="#C4C4C4"/>
<circle cx="493.5" cy="34.5" r="1.5" fill="#C4C4C4"/>
<circle cx="509.5" cy="34.5" r="1.5" fill="#C4C4C4"/>
<path d="M445.204 28.0869L445.204 28.087L450.921 33.931L445.204 28.0869ZM445.204 28.0869C444.894 27.771 444.391 27.7712 444.081 28.0868L444.081 28.0869L445.204 28.0869ZM444.082 40.9131L444.082 40.913C443.774 40.5982 443.774 40.0894 444.082 39.7751L449.242 34.4997L444.081 29.2243C444.081 29.2242 444.081 29.2242 444.081 29.2242L444.081 29.2242L444.188 29.1193L444.082 40.9131ZM444.082 40.9131C444.391 41.229 444.895 41.229 445.205 40.9131L445.205 40.913M444.082 40.9131L445.205 40.913M445.205 40.913L450.922 35.0689L450.922 35.0687M445.205 40.913L450.922 35.0687M450.922 35.0687C451.226 34.7573 451.226 34.2421 450.921 33.9311L450.922 35.0687ZM444.189 39.8801C443.938 40.136 443.938 40.5516 444.189 40.8081C444.44 41.064 444.847 41.064 445.098 40.8081L450.815 34.964L444.189 39.8801Z" fill="url(#paint7_linear)" stroke="url(#paint8_linear)" stroke-width="0.3"/>
<circle cx="630.5" cy="34.5" r="1.5" fill="#C4C4C4"/>
<circle cx="646.5" cy="34.5" r="1.5" fill="#C4C4C4"/>
<circle cx="662.5" cy="34.5" r="1.5" fill="#C4C4C4"/>
<circle cx="678.5" cy="34.5" r="1.5" fill="#C4C4C4"/>
<circle cx="706.5" cy="34.5" r="1.5" fill="#C4C4C4"/>
<circle cx="722.5" cy="34.5" r="1.5" fill="#C4C4C4"/>
<circle cx="738.5" cy="34.5" r="1.5" fill="#C4C4C4"/>
<circle cx="754.5" cy="34.5" r="1.5" fill="#C4C4C4"/>
<path d="M690.204 28.0869L690.204 28.087L695.921 33.931L690.204 28.0869ZM690.204 28.0869C689.894 27.771 689.391 27.7712 689.081 28.0868L689.081 28.0869L690.204 28.0869ZM689.082 40.9131L689.082 40.913C688.774 40.5982 688.774 40.0894 689.082 39.7751L694.242 34.4997L689.081 29.2243C689.081 29.2242 689.081 29.2242 689.081 29.2242L689.081 29.2242L689.188 29.1193L689.082 40.9131ZM689.082 40.9131C689.391 41.229 689.895 41.229 690.205 40.9131L690.205 40.913M689.082 40.9131L690.205 40.913M690.205 40.913L695.922 35.0689L695.922 35.0687M690.205 40.913L695.922 35.0687M695.922 35.0687C696.226 34.7573 696.226 34.2421 695.921 33.9311L695.922 35.0687ZM689.189 39.8801C688.938 40.136 688.938 40.5516 689.189 40.8081C689.44 41.064 689.847 41.064 690.098 40.8081L695.815 34.964L689.189 39.8801Z" fill="url(#paint9_linear)" stroke="url(#paint10_linear)" stroke-width="0.3"/>
<circle cx="878.5" cy="34.5" r="1.5" fill="#C4C4C4"/>
<circle cx="894.5" cy="34.5" r="1.5" fill="#C4C4C4"/>
<circle cx="910.5" cy="34.5" r="1.5" fill="#C4C4C4"/>
<circle cx="926.5" cy="34.5" r="1.5" fill="#C4C4C4"/>
<circle cx="954.5" cy="34.5" r="1.5" fill="#C4C4C4"/>
<circle cx="970.5" cy="34.5" r="1.5" fill="#C4C4C4"/>
<circle cx="986.5" cy="34.5" r="1.5" fill="#C4C4C4"/>
<circle cx="1002.5" cy="34.5" r="1.5" fill="#C4C4C4"/>
<path d="M938.204 28.0869L938.204 28.087L943.921 33.931L938.204 28.0869ZM938.204 28.0869C937.894 27.771 937.391 27.7712 937.081 28.0868L937.081 28.0869L938.204 28.0869ZM937.082 40.9131L937.082 40.913C936.774 40.5982 936.774 40.0894 937.082 39.7751L942.242 34.4997L937.081 29.2243C937.081 29.2242 937.081 29.2242 937.081 29.2242L937.081 29.2242L937.188 29.1193L937.082 40.9131ZM937.082 40.9131C937.391 41.229 937.895 41.229 938.205 40.9131L938.205 40.913M937.082 40.9131L938.205 40.913M938.205 40.913L943.922 35.0689L943.922 35.0687M938.205 40.913L943.922 35.0687M943.922 35.0687C944.226 34.7573 944.226 34.2421 943.921 33.9311L943.922 35.0687ZM937.189 39.8801C936.938 40.136 936.938 40.5516 937.189 40.8081C937.44 41.064 937.847 41.064 938.098 40.8081L943.815 34.964L937.189 39.8801Z" fill="url(#paint11_linear)" stroke="url(#paint12_linear)" stroke-width="0.3"/>
<defs>
<linearGradient id="paint0_linear" x1="293.127" y1="68.8447" x2="283.255" y2="-40.7126" gradientUnits="userSpaceOnUse">
<stop stop-color="#FF9372"/>
<stop offset="1" stop-color="#FFD770"/>
</linearGradient>
<linearGradient id="paint1_linear" x1="540.127" y1="68.8447" x2="530.255" y2="-40.7126" gradientUnits="userSpaceOnUse">
<stop stop-color="#FF9372"/>
<stop offset="1" stop-color="#FFD770"/>
</linearGradient>
<linearGradient id="paint2_linear" x1="787.127" y1="68.8447" x2="777.255" y2="-40.7126" gradientUnits="userSpaceOnUse">
<stop stop-color="#FF9372"/>
<stop offset="1" stop-color="#FFD770"/>
</linearGradient>
<linearGradient id="paint3_linear" x1="1034.13" y1="68.8447" x2="1024.26" y2="-40.7126" gradientUnits="userSpaceOnUse">
<stop stop-color="#FF9372"/>
<stop offset="1" stop-color="#FFD770"/>
</linearGradient>
<linearGradient id="paint4_linear" x1="46.1272" y1="68.8447" x2="36.2554" y2="-40.7126" gradientUnits="userSpaceOnUse">
<stop stop-color="#FF9372"/>
<stop offset="1" stop-color="#FFD770"/>
</linearGradient>
<linearGradient id="paint5_linear" x1="206" y1="28" x2="204.276" y2="42.5653" gradientUnits="userSpaceOnUse">
<stop stop-color="#FF9372"/>
<stop offset="1" stop-color="#FFD770"/>
</linearGradient>
<linearGradient id="paint6_linear" x1="199.5" y1="28" x2="199.5" y2="41" gradientUnits="userSpaceOnUse">
<stop stop-color="#FF9372"/>
<stop offset="1" stop-color="#FFD770"/>
</linearGradient>
<linearGradient id="paint7_linear" x1="454" y1="28" x2="452.276" y2="42.5653" gradientUnits="userSpaceOnUse">
<stop stop-color="#FF9372"/>
<stop offset="1" stop-color="#FFD770"/>
</linearGradient>
<linearGradient id="paint8_linear" x1="447.5" y1="28" x2="447.5" y2="41" gradientUnits="userSpaceOnUse">
<stop stop-color="#FF9372"/>
<stop offset="1" stop-color="#FFD770"/>
</linearGradient>
<linearGradient id="paint9_linear" x1="699" y1="28" x2="697.276" y2="42.5653" gradientUnits="userSpaceOnUse">
<stop stop-color="#FF9372"/>
<stop offset="1" stop-color="#FFD770"/>
</linearGradient>
<linearGradient id="paint10_linear" x1="692.5" y1="28" x2="692.5" y2="41" gradientUnits="userSpaceOnUse">
<stop stop-color="#FF9372"/>
<stop offset="1" stop-color="#FFD770"/>
</linearGradient>
<linearGradient id="paint11_linear" x1="947" y1="28" x2="945.276" y2="42.5653" gradientUnits="userSpaceOnUse">
<stop stop-color="#FF9372"/>
<stop offset="1" stop-color="#FFD770"/>
</linearGradient>
<linearGradient id="paint12_linear" x1="940.5" y1="28" x2="940.5" y2="41" gradientUnits="userSpaceOnUse">
<stop stop-color="#FF9372"/>
<stop offset="1" stop-color="#FFD770"/>
</linearGradient>
</defs>
</svg>
