<svg width="1440" height="720" viewBox="0 0 1440 720" fill="none" xmlns="http://www.w3.org/2000/svg">
<mask id="mask0" mask-type="alpha" maskUnits="userSpaceOnUse" x="0" y="0" width="1440" height="720">
<rect width="1440" height="720" fill="#C4C4C4"/>
</mask>
<g mask="url(#mask0)">
<path d="M1.0494e-05 -1H1440V490.25L0 664L1.0494e-05 -1Z" fill="url(#paint0_linear)"/>
<path opacity="0.4" d="M1029.23 621.689C853.743 621.689 711.479 479.436 711.479 303.957C711.479 128.479 853.743 -13.7747 1029.23 -13.7747C1204.72 -13.7747 1346.99 128.479 1346.99 303.957C1346.99 479.436 1204.72 621.689 1029.23 621.689Z" fill="white" fill-opacity="0.4" stroke="url(#paint1_linear)"/>
<path opacity="0.4" d="M389.756 621.689C214.265 621.689 72.0012 479.436 72.0012 303.957C72.0012 128.479 214.265 -13.7747 389.756 -13.7747C565.247 -13.7747 707.511 128.479 707.511 303.957C707.511 479.436 565.247 621.689 389.756 621.689Z" fill="white" fill-opacity="0.2" stroke="url(#paint2_linear)"/>
<path opacity="0.6" d="M708.98 301.464C533.489 301.464 391.225 159.21 391.225 -16.2681C391.225 -191.747 533.489 -334 708.98 -334C884.471 -334 1026.73 -191.747 1026.73 -16.2681C1026.73 159.21 884.471 301.464 708.98 301.464Z" fill="white" fill-opacity="0.2" stroke="url(#paint3_linear)"/>
<path opacity="0.4" d="M708.755 941.464C533.264 941.464 391 799.21 391 623.732C391 448.253 533.264 306 708.755 306C884.246 306 1026.51 448.253 1026.51 623.732C1026.51 799.21 884.246 941.464 708.755 941.464Z" fill="white" fill-opacity="0.2" stroke="url(#paint4_linear)"/>
</g>
<defs>
<linearGradient id="paint0_linear" x1="-521" y1="-248.648" x2="156.485" y2="1309.48" gradientUnits="userSpaceOnUse">
<stop stop-color="#FF9372"/>
<stop offset="0.489583" stop-color="#FFB471"/>
<stop offset="1" stop-color="#FFD770"/>
</linearGradient>
<linearGradient id="paint1_linear" x1="1029.23" y1="-13.7747" x2="1029.23" y2="621.689" gradientUnits="userSpaceOnUse">
<stop stop-color="white"/>
<stop offset="1" stop-color="white" stop-opacity="0"/>
</linearGradient>
<linearGradient id="paint2_linear" x1="389.756" y1="-13.7747" x2="389.756" y2="621.689" gradientUnits="userSpaceOnUse">
<stop stop-color="white"/>
<stop offset="1" stop-color="white" stop-opacity="0"/>
</linearGradient>
<linearGradient id="paint3_linear" x1="708.98" y1="-334" x2="708.98" y2="301.464" gradientUnits="userSpaceOnUse">
<stop stop-color="white"/>
<stop offset="1" stop-color="white" stop-opacity="0"/>
</linearGradient>
<linearGradient id="paint4_linear" x1="708.755" y1="306" x2="708.755" y2="941.464" gradientUnits="userSpaceOnUse">
<stop stop-color="white"/>
<stop offset="1" stop-color="white" stop-opacity="0"/>
</linearGradient>
</defs>
</svg>
