<svg width="23" height="22" xmlns="http://www.w3.org/2000/svg"><path d="M4.875 13.688c.88 0 1.642.321 2.285.964.643.644.965 1.405.965 2.286 0 .88-.322 1.641-.965 2.285-.643.643-1.405.965-2.285.965-.88 0-1.642-.322-2.285-.965-.643-.644-.965-1.405-.965-2.285 0-.88.322-1.642.965-2.286.643-.643 1.405-.964 2.285-.964zm12.95-.813H4.874c-1.117 0-2.074.398-2.87 1.193-.795.796-1.192 1.752-1.192 2.87 0 1.117.397 2.073 1.193 2.869C2.8 20.602 3.758 21 4.875 21h13c1.117 0 2.074-.398 2.87-1.193.795-.796 1.192-1.752 1.192-2.87 0-1.117-.406-2.073-1.218-2.869-.813-.795-1.778-1.193-2.895-1.193zm.05-.813c1.354 0 2.505.474 3.453 1.422s1.422 2.1 1.422 3.454-.474 2.505-1.422 3.453-2.099 1.422-3.453 1.422h-13c-1.354 0-2.505-.474-3.453-1.422S0 18.29 0 16.938c0-1.355.474-2.506 1.422-3.454.948-.948 2.099-1.421 3.453-1.421h13zm0-9.75c.88 0 1.642.322 2.285.965.643.644.965 1.405.965 2.285 0 .88-.322 1.642-.965 2.286-.643.643-1.405.965-2.285.965-.88 0-1.642-.322-2.285-.965-.643-.644-.965-1.405-.965-2.285 0-.88.322-1.642.965-2.286.643-.643 1.405-.965 2.285-.965zM4.925 1.5c-1.116 0-2.081.398-2.894 1.193C1.22 3.49.812 4.445.812 5.563c0 1.117.398 2.073 1.194 2.869.795.795 1.752 1.193 2.869 1.193h13c1.117 0 2.074-.398 2.87-1.193.795-.796 1.192-1.752 1.192-2.87 0-1.117-.397-2.073-1.193-2.869-.795-.795-1.752-1.193-2.869-1.193H4.925zm-.05-.813h13c1.354 0 2.505.474 3.453 1.422s1.422 2.1 1.422 3.454-.474 2.505-1.422 3.453-2.099 1.421-3.453 1.421h-13c-1.354 0-2.505-.473-3.453-1.421C.474 8.068 0 6.916 0 5.562S.474 3.058 1.422 2.11 3.52.688 4.875.688z" fill="#A781FF" fill-rule="evenodd"/></svg>