<svg width="23" height="24" viewBox="0 0 23 24" xmlns="http://www.w3.org/2000/svg"><title>Icon_Core_customizable@1x</title><path d="M0 20.375V18.75h13.813v1.625H0zm18.688 0V18.75h4.062v1.625h-4.063zM17.875 22c0 .474-.152.863-.457 1.168-.305.305-.694.457-1.168.457s-.863-.152-1.168-.457c-.305-.305-.457-.694-.457-1.168v-4.875c0-.474.152-.863.457-1.168.305-.305.694-.457 1.168-.457s.863.152 1.168.457c.305.305.457.694.457 1.168V22zM0 13.062v-1.624h4.063v1.624H0zm8.938 0v-1.624H22.75v1.624H8.937zm-.813 1.626c0 .473-.152.863-.457 1.167-.305.305-.694.457-1.168.457s-.863-.152-1.168-.457c-.305-.304-.457-.694-.457-1.168V9.814c0-.474.152-.864.457-1.168.305-.305.694-.457 1.168-.457s.863.152 1.168.457c.305.304.457.694.457 1.168v4.874zM0 5.75V4.125h13.813V5.75H0zm18.688 0V4.125h4.062V5.75h-4.063zm-.813 1.625c0 .474-.152.863-.457 1.168-.305.305-.694.457-1.168.457s-.863-.152-1.168-.457c-.305-.305-.457-.694-.457-1.168V2.5c0-.474.152-.863.457-1.168.305-.305.694-.457 1.168-.457s.863.152 1.168.457c.305.305.457.694.457 1.168v4.875z" fill="#A781FF" fill-rule="evenodd"/></svg>