<?xml version="1.0" encoding="UTF-8"?>
<svg width="23px" height="24px" viewBox="0 0 23 24" version="1.1" xmlns="http://www.w3.org/2000/svg" xmlns:xlink="http://www.w3.org/1999/xlink">
    <!-- Generator: Sketch 47.1 (45422) - http://www.bohemiancoding.com/sketch -->
    <title>Icon_Core_customizable@1x</title>
    <desc>Created with Sketch.</desc>
    <defs></defs>
    <g id="Website" stroke="none" stroke-width="1" fill="none" fill-rule="evenodd">
        <g id="Core--Desktop-1170px" transform="translate(-249.000000, -2908.000000)" fill="#A781FF">
            <g id="//Content">
                <g id="Founding-team" transform="translate(0.000000, 2153.000000)">
                    <g id="Bg">
                        <g id="container" transform="translate(248.000000, 755.000000)">
                            <path d="M1,20.375 L1,18.75 L14.8125,18.75 L14.8125,20.375 L1,20.375 Z M19.6875,20.375 L19.6875,18.75 L23.75,18.75 L23.75,20.375 L19.6875,20.375 Z M18.875,22 C18.875,22.4739607 18.7226578,22.8632797 18.4179688,23.1679688 C18.1132797,23.4726578 17.7239607,23.625 17.25,23.625 C16.7760393,23.625 16.3867203,23.4726578 16.0820313,23.1679688 C15.7773422,22.8632797 15.625,22.4739607 15.625,22 L15.625,17.125 C15.625,16.6510393 15.7773422,16.2617203 16.0820313,15.9570312 C16.3867203,15.6523422 16.7760393,15.5 17.25,15.5 C17.7239607,15.5 18.1132797,15.6523422 18.4179688,15.9570312 C18.7226578,16.2617203 18.875,16.6510393 18.875,17.125 L18.875,22 Z M1,13.0625 L1,11.4375 L5.0625,11.4375 L5.0625,13.0625 L1,13.0625 Z M9.9375,13.0625 L9.9375,11.4375 L23.75,11.4375 L23.75,13.0625 L9.9375,13.0625 Z M9.125,14.6875 C9.125,15.1614607 8.97265777,15.5507797 8.66796875,15.8554688 C8.36327973,16.1601578 7.9739607,16.3125 7.5,16.3125 C7.0260393,16.3125 6.63672027,16.1601578 6.33203125,15.8554688 C6.02734223,15.5507797 5.875,15.1614607 5.875,14.6875 L5.875,9.8125 C5.875,9.3385393 6.02734223,8.94922027 6.33203125,8.64453125 C6.63672027,8.33984223 7.0260393,8.1875 7.5,8.1875 C7.9739607,8.1875 8.36327973,8.33984223 8.66796875,8.64453125 C8.97265777,8.94922027 9.125,9.3385393 9.125,9.8125 L9.125,14.6875 Z M1,5.75 L1,4.125 L14.8125,4.125 L14.8125,5.75 L1,5.75 Z M19.6875,5.75 L19.6875,4.125 L23.75,4.125 L23.75,5.75 L19.6875,5.75 Z M18.875,7.375 C18.875,7.8489607 18.7226578,8.23827973 18.4179688,8.54296875 C18.1132797,8.84765777 17.7239607,9 17.25,9 C16.7760393,9 16.3867203,8.84765777 16.0820313,8.54296875 C15.7773422,8.23827973 15.625,7.8489607 15.625,7.375 L15.625,2.5 C15.625,2.0260393 15.7773422,1.63672027 16.0820313,1.33203125 C16.3867203,1.02734223 16.7760393,0.875 17.25,0.875 C17.7239607,0.875 18.1132797,1.02734223 18.4179688,1.33203125 C18.7226578,1.63672027 18.875,2.0260393 18.875,2.5 L18.875,7.375 Z" id="Icon_Core_customizable"></path>
                        </g>
                    </g>
                </g>
            </g>
        </g>
    </g>
</svg>