<svg width="110" height="140" viewBox="0 0 110 140" fill="none" xmlns="http://www.w3.org/2000/svg">
<path d="M55 125.991C85.3757 125.991 110 101.367 110 70.9911C110 40.6154 85.3757 15.9911 55 15.9911C24.6243 15.9911 0 40.6154 0 70.9911C0 101.367 24.6243 125.991 55 125.991Z" fill="url(#paint0_linear)"/>
<path d="M35.7604 88.4882C35.7466 88.9711 35.4613 89.3924 35.2138 89.8C34.1104 91.5947 33.4401 93.6737 33.2922 95.7801C33.1444 97.7975 33.2338 100.284 31.4704 101.277C30.4632 101.836 29.0469 101.736 28.3766 102.678C28.1669 102.962 28.0672 103.322 27.9676 103.658C27.5344 105.23 27.0979 106.802 26.6647 108.374C26.1044 108.326 25.5338 108.264 24.9769 108.203C25.6369 108.412 26.0941 109.302 25.6988 109.912C25.0663 109.58 24.2344 109.974 23.8838 110.607C23.5504 111.237 23.5985 112.005 23.7841 112.7C24.3582 114.755 26.1216 116.413 28.1979 116.906C27.8369 117.587 26.7335 117.289 26.0597 116.834C21.2507 113.594 17.6207 108.658 15.9638 103.113C15.3794 101.157 15.0047 99.0784 13.8601 97.3967C12.9044 95.9753 11.4607 94.9341 10.505 93.5127C9.16442 91.4714 8.91349 88.8239 7.35974 86.9572C6.49005 85.892 5.14599 84.5837 5.91599 83.4431C6.22536 82.9739 6.88536 82.5286 6.62411 82.032C6.53817 81.871 6.36286 81.7717 6.22536 81.6347C5.70286 81.0764 6.0638 80.1996 6.32505 79.4803C6.75817 78.2302 6.75817 76.8944 6.57255 75.5587C5.2663 74.3941 4.23505 72.9488 3.5888 71.3253C3.2038 70.3355 2.69161 69.099 1.62599 69.0853C1.35099 68.3181 1.06567 67.5509 0.790674 66.7837C0.690986 67.0577 0.419424 67.229 0.120361 67.2666C0.945361 54.7275 6.01911 43.3495 13.915 34.5335C14.0904 34.4581 14.2622 34.3588 14.4376 34.2595C16.311 33.1703 17.8029 31.5366 19.6144 30.3481C19.9857 30.1015 20.4085 29.8652 20.8691 29.9131C21.316 29.9508 21.7388 30.4063 21.5772 30.8276C21.5154 31.0023 21.3675 31.1393 21.2163 31.2489C19.0954 33.047 16.7716 34.6191 14.3 35.9206C14.0044 36.0679 13.6916 36.2426 13.5576 36.5406C13.3066 37.0475 13.7294 37.6777 14.2657 37.8626C14.7985 38.0476 15.3966 37.938 15.9432 37.8147C15.4826 38.4689 15.345 39.3491 15.5822 40.1163C16.091 40.1643 16.2526 39.4724 16.4038 38.9895C17.0226 37.0714 20.0922 36.2905 19.8929 34.2698C20.7247 34.7013 21.5704 33.7355 22.0791 32.9443C22.5879 32.1394 23.7188 31.3482 24.341 32.0538C24.3754 32.4476 24.4235 32.8449 24.4613 33.2422C25.5544 32.9682 26.6613 32.684 27.7544 32.41C27.1322 32.8449 26.9226 33.7731 27.2801 34.441C27.641 35.1089 28.5347 35.4445 29.2429 35.1705C29.2326 35.7528 28.7101 36.1981 28.2357 36.544C27.0326 37.4482 25.74 38.3764 24.3375 38.8216L24.6607 39.4895C24.6263 39.5032 24.5885 39.5169 24.5507 39.5169C23.6569 39.6026 22.7116 38.9621 21.756 39.0854C21.1716 39.1607 20.4532 39.1607 20.1163 39.7533C20.0682 39.8286 19.8585 40.8664 20.0063 40.7808C20.5288 40.4828 21.0479 40.1848 21.5601 39.8903C21.7182 40.3115 21.756 40.7808 21.67 41.2397C22.3025 41.1781 22.9625 41.3116 23.5229 41.6473C22.9385 42.9968 21.4363 43.901 19.9582 43.788C19.9444 43.3427 19.9204 42.8974 19.9066 42.4522C18.6897 42.3529 17.6963 43.3941 17.0879 44.4353C16.4691 45.4868 15.9982 46.689 14.9772 47.3568C14.3585 47.7781 13.5988 47.9391 12.9285 48.285C12.2719 48.6447 11.6635 49.3263 11.801 50.0558C11.8629 50.4017 12.0863 50.7237 12.076 51.0833C12.0382 51.7512 11.2579 52.0629 10.7354 52.4944C9.84161 53.2377 9.61817 54.6008 8.66255 55.255C7.96817 55.7379 7.04692 55.7277 6.23911 55.9743C5.4313 56.2209 4.62349 57.0257 4.95005 57.8067C4.5513 57.9437 4.06661 57.6457 4.0288 57.2244C2.60224 60.0227 1.66036 63.0675 1.27536 66.1877C1.98349 66.6809 2.70192 65.5541 2.83942 64.7013C2.98724 63.8484 3.73317 62.7319 4.42755 63.2388C4.26599 64.4649 4.10442 65.6774 3.9463 66.9036C3.90849 67.1399 3.88442 67.3865 3.99786 67.5954C4.13536 67.8557 4.43099 67.9653 4.65786 68.1503C5.29036 68.6949 5.20442 69.6607 5.24224 70.4896C5.28005 71.5034 5.61692 72.4932 6.14974 73.3598C6.09817 73.1851 6.0638 73.0139 6.02599 72.8392C6.99536 72.9625 8.00255 72.6508 8.73474 72.0069C9.11974 71.661 9.44286 71.2157 9.92755 71.041C10.426 70.8561 10.9725 70.9897 11.4813 71.1267C13.0591 71.5582 14.7366 72.0411 15.7919 73.2776C16.3247 73.9078 16.6616 74.7024 17.2976 75.2196C18.7379 76.432 21.1751 75.8977 22.4916 77.2472C23.5469 78.3364 23.351 80.0934 23.0657 81.5902C22.3438 81.1963 21.3779 82.1861 21.8007 82.8917C22.1857 82.4704 22.6326 82.0251 23.1929 82.0251C23.7635 82.0114 24.2619 82.7924 23.8391 83.152C24.8326 81.8881 27.2663 82.4087 27.6513 83.9808C29.0435 84.0802 30.446 84.1761 31.8382 84.2891C31.57 86.3236 35.8463 86.4435 35.7604 88.4882Z" fill="#CCECF3"/>
<path fill-rule="evenodd" clip-rule="evenodd" d="M94.4971 32.7609C94.7102 32.8133 94.9199 32.8237 95.1193 32.7993C104.242 42.7462 109.828 56.0751 109.842 70.7408C109.842 70.7969 109.842 70.8534 109.842 70.9101C109.843 71.1959 109.843 71.4885 109.832 71.7738C109.433 70.1858 109.096 68.5699 108.797 66.9435C108.247 63.9175 107.601 60.4483 104.978 58.9231C104.779 58.8084 104.574 58.7073 104.37 58.6069C104.077 58.4628 103.787 58.3203 103.524 58.1413C103.251 57.958 103.004 57.7353 102.757 57.5122C102.443 57.2297 102.129 56.9465 101.761 56.7417C101.104 56.3892 100.145 56.3753 99.7496 57.007C99.3268 57.6771 99.8115 58.5985 100.482 58.9999C100.888 59.2536 101.344 59.3895 101.799 59.5247C102.094 59.6127 102.389 59.7004 102.668 59.8201C104.098 60.4378 105.078 61.963 105.091 63.5266C105.091 65.0902 104.112 66.6154 102.696 67.2471C102.48 67.3384 102.258 67.411 102.038 67.4834C101.71 67.591 101.384 67.698 101.08 67.8649C100.386 68.2313 99.839 68.8875 99.6018 69.6448C97.4533 64.7621 95.078 59.9981 92.4655 55.3701C91.558 56.5219 91.8949 58.2216 92.5412 59.5339C92.7348 59.9272 92.9551 60.3111 93.1753 60.695C93.6899 61.592 94.2045 62.4889 94.3802 63.5057C94.4237 63.7703 94.4446 64.0388 94.4654 64.3064C94.4974 64.7163 94.5292 65.124 94.6415 65.5125C94.8757 66.327 95.424 66.9802 95.9685 67.6288C96.1754 67.8751 96.3816 68.1208 96.5699 68.3744C96.8521 68.7487 97.1011 69.1511 97.3497 69.5527C97.8127 70.3008 98.2742 71.0464 98.9452 71.6028C99.9662 72.4614 101.754 72.6115 102.438 71.4632C102.173 72.1476 101.906 72.8269 101.64 73.5061C101.41 74.0947 101.179 74.6831 100.949 75.2745C100.317 76.8956 99.6869 78.5133 99.0569 80.131C98.427 81.7487 97.7971 83.3664 97.1646 84.9876C96.9979 85.4238 96.8303 85.8557 96.6628 86.2875C96.4952 86.7195 96.3276 87.1514 96.1608 87.5877L96.0887 87.7712C94.8338 90.9642 93.5663 94.1893 91.6302 97.0111L91.6094 97.0409C91.3065 97.4747 90.9958 97.9197 90.9118 98.4246C90.8827 98.6438 90.89 98.8643 90.8973 99.0853C90.9021 99.2302 90.9069 99.3754 90.9015 99.5206C90.8637 100.833 89.7705 102.02 88.4918 102.159C89.4337 102.159 89.6708 103.813 88.9387 104.518C88.4381 105.001 87.7719 105.204 87.0983 105.409C86.7496 105.515 86.399 105.622 86.0683 105.768C85.0273 106.221 84.1463 107.074 83.2834 107.91C82.0036 109.149 80.7636 110.35 79.1005 110.148L78.9746 109.747C78.02 106.705 77.0682 103.673 76.1133 100.641C75.7146 99.3949 75.3193 98.121 75.3296 96.8087C75.3527 95.3427 75.8719 93.9719 76.3936 92.5942C76.7252 91.7187 77.0579 90.8404 77.2649 89.9331C77.808 87.6017 76.9246 84.485 74.5905 84.1848C74.8002 83.6438 75.0133 83.0889 75.223 82.534C74.8277 82.6073 74.429 82.6841 74.044 82.7608C74.814 81.1065 75.0477 78.5727 73.3462 77.9549C72.9331 77.808 72.4936 77.8206 72.0529 77.8332C71.6978 77.8434 71.3419 77.8536 70.9983 77.7804C70.2249 77.6164 69.5787 76.5449 70.2008 76.0528C67.4577 75.9411 64.6733 76.4088 62.1158 77.4314C62.0068 77.4748 61.8976 77.5193 61.7882 77.5639C61 77.8851 60.198 78.212 59.359 78.1783C57.819 78.1154 56.5987 76.8799 55.5433 75.7456C53.3055 73.3025 50.8924 70.2626 51.6624 67.0342C51.7437 66.6947 51.8586 66.3573 51.9732 66.0205C52.2417 65.232 52.5092 64.4463 52.343 63.6418C52.2761 63.3154 52.1357 63.0105 51.995 62.7049C51.8468 62.3832 51.6984 62.0608 51.6349 61.7117C51.4596 60.8287 51.8446 59.9317 52.2915 59.15C53.7077 56.6126 55.8046 54.4557 58.2762 52.9654C58.1283 51.4751 59.1562 50.0616 60.4487 49.3426C61.7273 48.621 63.2246 48.4391 64.6744 48.2629L64.7215 48.2572C66.1407 48.0891 67.5609 47.9249 68.983 47.7604C70.2477 47.6142 71.5139 47.4678 72.7824 47.3183C73.1055 47.2799 73.4562 47.2555 73.7277 47.4195C74.0834 47.639 74.1799 48.084 74.2739 48.5169C74.2979 48.6279 74.3218 48.7381 74.3499 48.8435C74.7349 50.3199 76.4983 51.2378 77.9146 50.7073C78.4371 52.5256 80.5237 53.2307 82.3387 53.6704C82.1393 52.6094 82.4487 51.4751 83.143 50.6794C83.7893 52.3302 85.838 52.8223 87.5912 52.8712C87.7923 52.8752 87.9959 52.8771 88.2008 52.879C89.7807 52.8936 91.4338 52.909 92.6237 53.9008C92.4647 52.8753 92.2956 51.8499 92.125 50.8157C92.0965 50.6425 92.0679 50.4691 92.0393 50.2954C91.9774 49.8661 91.8915 49.3985 91.5546 49.1088C91.1931 48.8039 90.7012 48.8347 90.2171 48.865C90.1027 48.8721 89.9888 48.8793 89.8771 48.8819C88.5708 48.9343 87.268 48.2921 86.5083 47.2066C88.8905 46.212 91.5752 45.9293 94.1224 46.4214C92.7302 44.7182 91.6096 42.7776 90.8327 40.7045C90.7252 41.1927 90.6233 41.6764 90.5212 42.1607C90.4437 42.5281 90.3662 42.8959 90.2862 43.2663C89.9493 42.4216 89.5505 41.5002 88.7565 41.1094C87.9487 40.708 86.7077 41.3118 86.8693 42.1948C86.913 42.4511 87.0602 42.6689 87.2078 42.8873C87.3155 43.0466 87.4233 43.2063 87.4915 43.3814C87.8043 44.1632 87.2577 45.0707 86.5118 45.4371C85.7693 45.8141 84.8996 45.7896 84.078 45.7652C83.9921 46.4737 83.9062 47.1787 83.8065 47.8977C83.6933 47.6018 83.5781 47.3088 83.4629 47.016C83.3227 46.6595 83.1827 46.3035 83.0468 45.9432C82.8732 46.0636 82.6962 46.1805 82.5191 46.2975C82.3421 46.4144 82.1651 46.5313 81.9915 46.6517C81.674 46.3118 81.3587 45.9748 81.0445 45.6391C80.6716 45.2406 80.3003 44.8438 79.929 44.4459C79.6306 44.7462 79.3342 45.0563 79.0368 45.3674C78.9368 45.4721 78.8366 45.5769 78.7362 45.6815C77.478 44.6588 76.2233 43.6397 74.9687 42.6311C74.398 42.1669 73.8137 41.6992 73.1296 41.4479C71.0396 40.6661 68.8052 42.104 67.2412 43.6956C66.4368 44.5262 65.653 45.5104 65.6049 46.6727C64.8883 46.4815 64.1669 46.6692 63.4387 46.8587C62.9303 46.991 62.4185 47.1241 61.9027 47.1299C60.2252 47.1543 58.6852 45.5802 58.7333 43.877C58.7677 42.1738 60.3696 40.6731 62.0471 40.7603C62.5226 40.7919 62.9893 40.93 63.4538 41.0674C64.1176 41.2638 64.7768 41.4588 65.4502 41.3397C65.7871 39.6993 64.7524 37.8984 63.1883 37.3819C66.5915 35.752 70.0049 34.1221 73.408 32.5061C73.8308 31.836 72.9474 31.0577 72.1774 30.9809C71.9879 30.9624 71.7919 30.9573 71.5958 30.9522C70.9809 30.9362 70.3644 30.9201 69.9396 30.4888C69.2796 29.8222 69.6887 28.5972 70.4587 28.0422C70.986 27.6552 71.6221 27.4753 72.2584 27.2953C72.5345 27.2172 72.8107 27.1391 73.078 27.044C73.5139 26.8923 73.9252 26.6955 74.3362 26.4988C74.7097 26.3201 75.0829 26.1415 75.474 25.997C79.0249 24.7091 82.8405 26.6985 86.0958 28.6146L86.3812 28.5134C86.4327 29.358 86.1955 30.2166 85.7246 30.9111C87.7115 29.9025 90.2208 30.063 92.0599 31.2985C92.2807 31.4454 92.4947 31.6076 92.7085 31.7696C93.2667 32.1926 93.8235 32.6145 94.4971 32.7609ZM99.1651 50.6305C99.4538 50.8573 99.7873 51.0981 100.148 51.1226C100.519 51.147 100.942 50.8817 100.942 50.5013C100.93 50.1992 100.691 49.9791 100.468 49.773C100.43 49.7386 100.393 49.7046 100.358 49.6707C100.11 49.4333 99.9213 49.004 100.159 48.7632C100.27 48.7196 100.379 48.6786 100.487 48.6376C100.595 48.5966 100.703 48.5556 100.815 48.5119C100.925 47.7301 100.241 47.0496 99.5466 46.6831C99.3408 46.5714 99.126 46.4741 98.9116 46.377C98.4028 46.1465 97.8969 45.9174 97.522 45.4999C97.4566 45.4476 97.4085 45.3743 97.4085 45.2975C97.4085 45.1956 97.4831 45.1259 97.5571 45.0567C97.5744 45.0405 97.5916 45.0243 97.6079 45.0078C98.2645 44.4424 97.8657 43.1301 97.0098 43.0289L97.5185 42.7497C97.357 42.4111 96.9616 42.2087 96.6007 42.2715C95.841 42.3972 95.6073 43.4058 95.7688 44.1632C95.9545 45.0183 96.4529 45.814 97.137 46.369C97.1943 46.4157 97.254 46.4613 97.314 46.5071C97.5276 46.6702 97.7461 46.837 97.8829 47.074C98.1007 47.4426 98.076 47.8737 98.0509 48.3095C98.0333 48.6164 98.0155 48.9256 98.0823 49.2169C98.2198 49.8103 98.6941 50.2535 99.1651 50.6305Z" fill="#CCECF3"/>
<path d="M100.506 90.8583L99.6085 91.504C99.9213 92.6208 99.2957 93.9296 98.2335 94.3659C97.6732 94.5962 96.9272 94.6974 96.7382 95.2803C96.5801 95.7759 96.9582 96.2785 97.0097 96.795C97.0922 97.6536 96.3016 98.2958 95.731 98.9345C95.1604 99.5732 94.8579 100.774 95.6176 101.158C95.7929 101.248 95.9957 101.266 96.1916 101.283C97.0166 101.357 97.9207 101.381 98.5944 100.892C100.526 99.4929 98.6907 95.6956 100.598 94.2577C100.87 94.0553 101.21 93.9087 101.358 93.6015C101.808 92.6976 100.148 91.8006 100.506 90.8583Z" fill="#CCECF3"/>
<path fill-rule="evenodd" clip-rule="evenodd" d="M94.4971 32.7609C94.7102 32.8133 94.9199 32.8237 95.1193 32.7993C104.242 42.7462 109.828 56.0751 109.842 70.7408C109.842 70.7969 109.842 70.8534 109.842 70.9101C109.843 71.1959 109.843 71.4885 109.832 71.7738C109.433 70.1858 109.096 68.5699 108.797 66.9435C108.247 63.9175 107.601 60.4483 104.978 58.9231C104.779 58.8084 104.574 58.7073 104.37 58.6069C104.077 58.4628 103.787 58.3203 103.524 58.1413C103.251 57.958 103.004 57.7353 102.757 57.5122C102.443 57.2297 102.129 56.9465 101.761 56.7417C101.104 56.3892 100.145 56.3753 99.7496 57.007C99.3268 57.6771 99.8115 58.5985 100.482 58.9999C100.888 59.2536 101.344 59.3895 101.799 59.5247C102.094 59.6127 102.389 59.7004 102.668 59.8201C104.098 60.4378 105.078 61.963 105.091 63.5266C105.091 65.0902 104.112 66.6154 102.696 67.2471C102.48 67.3384 102.258 67.411 102.038 67.4834C101.71 67.591 101.384 67.698 101.08 67.8649C100.386 68.2313 99.839 68.8875 99.6018 69.6448C97.4533 64.7621 95.078 59.9981 92.4655 55.3701C91.558 56.5219 91.8949 58.2216 92.5412 59.5339C92.7348 59.9272 92.9551 60.3111 93.1753 60.695C93.6899 61.592 94.2045 62.4889 94.3802 63.5057C94.4237 63.7703 94.4446 64.0388 94.4654 64.3064C94.4974 64.7163 94.5292 65.124 94.6415 65.5125C94.8757 66.327 95.424 66.9802 95.9685 67.6288C96.1754 67.8751 96.3816 68.1208 96.5699 68.3744C96.8521 68.7487 97.1011 69.1511 97.3497 69.5527C97.8127 70.3008 98.2742 71.0464 98.9452 71.6028C99.9662 72.4614 101.754 72.6115 102.438 71.4632C102.173 72.1476 101.906 72.8269 101.64 73.5061C101.41 74.0947 101.179 74.6831 100.949 75.2745C100.317 76.8956 99.6869 78.5133 99.0569 80.131C98.427 81.7487 97.7971 83.3664 97.1646 84.9876C96.9979 85.4238 96.8303 85.8557 96.6628 86.2875C96.4952 86.7195 96.3276 87.1514 96.1608 87.5877L96.0887 87.7712C94.8338 90.9642 93.5663 94.1893 91.6302 97.0111L91.6094 97.0409C91.3065 97.4747 90.9958 97.9197 90.9118 98.4246C90.8827 98.6438 90.89 98.8643 90.8973 99.0853C90.9021 99.2302 90.9069 99.3754 90.9015 99.5206C90.8637 100.833 89.7705 102.02 88.4918 102.159C89.4337 102.159 89.6708 103.813 88.9387 104.518C88.4381 105.001 87.7719 105.204 87.0983 105.409C86.7496 105.515 86.399 105.622 86.0683 105.768C85.0273 106.221 84.1463 107.074 83.2834 107.91C82.0036 109.149 80.7636 110.35 79.1005 110.148L78.9746 109.747C78.02 106.705 77.0682 103.673 76.1133 100.641C75.7146 99.3949 75.3193 98.121 75.3296 96.8087C75.3527 95.3427 75.8719 93.9719 76.3936 92.5942C76.7252 91.7187 77.0579 90.8404 77.2649 89.9331C77.808 87.6017 76.9246 84.485 74.5905 84.1848C74.8002 83.6438 75.0133 83.0889 75.223 82.534C74.8277 82.6073 74.429 82.6841 74.044 82.7608C74.814 81.1065 75.0477 78.5727 73.3462 77.9549C72.9331 77.808 72.4936 77.8206 72.0529 77.8332C71.6978 77.8434 71.3419 77.8536 70.9983 77.7804C70.2249 77.6164 69.5787 76.5449 70.2008 76.0528C67.4577 75.9411 64.6733 76.4088 62.1158 77.4314C62.0068 77.4748 61.8976 77.5193 61.7882 77.5639C61 77.8851 60.198 78.212 59.359 78.1783C57.819 78.1154 56.5987 76.8799 55.5433 75.7456C53.3055 73.3025 50.8924 70.2626 51.6624 67.0342C51.7437 66.6947 51.8586 66.3573 51.9732 66.0205C52.2417 65.232 52.5092 64.4463 52.343 63.6418C52.2761 63.3154 52.1357 63.0105 51.995 62.7049C51.8468 62.3832 51.6984 62.0608 51.6349 61.7117C51.4596 60.8287 51.8446 59.9317 52.2915 59.15C53.7077 56.6126 55.8046 54.4557 58.2762 52.9654C58.1283 51.4751 59.1562 50.0616 60.4487 49.3426C61.7273 48.621 63.2246 48.4391 64.6744 48.2629L64.7215 48.2572C66.1407 48.0891 67.5609 47.9249 68.983 47.7604C70.2477 47.6142 71.5139 47.4678 72.7824 47.3183C73.1055 47.2799 73.4562 47.2555 73.7277 47.4195C74.0834 47.639 74.1799 48.084 74.2739 48.5169C74.2979 48.6279 74.3218 48.7381 74.3499 48.8435C74.7349 50.3199 76.4983 51.2378 77.9146 50.7073C78.4371 52.5256 80.5237 53.2307 82.3387 53.6704C82.1393 52.6094 82.4487 51.4751 83.143 50.6794C83.7893 52.3302 85.838 52.8223 87.5912 52.8712C87.7923 52.8752 87.9959 52.8771 88.2008 52.879C89.7807 52.8936 91.4338 52.909 92.6237 53.9008C92.4647 52.8753 92.2956 51.8499 92.125 50.8157C92.0965 50.6425 92.0679 50.4691 92.0393 50.2954C91.9774 49.8661 91.8915 49.3985 91.5546 49.1088C91.1931 48.8039 90.7012 48.8347 90.2171 48.865C90.1027 48.8721 89.9888 48.8793 89.8771 48.8819C88.5708 48.9343 87.268 48.2921 86.5083 47.2066C88.8905 46.212 91.5752 45.9293 94.1224 46.4214C92.7302 44.7182 91.6096 42.7776 90.8327 40.7045C90.7252 41.1927 90.6233 41.6764 90.5212 42.1607C90.4437 42.5281 90.3662 42.8959 90.2862 43.2663C89.9493 42.4216 89.5505 41.5002 88.7565 41.1094C87.9487 40.708 86.7077 41.3118 86.8693 42.1948C86.913 42.4511 87.0602 42.6689 87.2078 42.8873C87.3155 43.0466 87.4233 43.2063 87.4915 43.3814C87.8043 44.1632 87.2577 45.0707 86.5118 45.4371C85.7693 45.8141 84.8996 45.7896 84.078 45.7652C83.9921 46.4737 83.9062 47.1787 83.8065 47.8977C83.6933 47.6018 83.5781 47.3088 83.4629 47.016C83.3227 46.6595 83.1827 46.3035 83.0468 45.9432C82.8732 46.0636 82.6962 46.1805 82.5191 46.2975C82.3421 46.4144 82.1651 46.5313 81.9915 46.6517C81.674 46.3118 81.3587 45.9748 81.0445 45.6391C80.6716 45.2406 80.3003 44.8438 79.929 44.4459C79.6306 44.7462 79.3342 45.0563 79.0368 45.3674C78.9368 45.4721 78.8366 45.5769 78.7362 45.6815C77.478 44.6588 76.2233 43.6397 74.9687 42.6311C74.398 42.1669 73.8137 41.6992 73.1296 41.4479C71.0396 40.6661 68.8052 42.104 67.2412 43.6956C66.4368 44.5262 65.653 45.5104 65.6049 46.6727C64.8883 46.4815 64.1669 46.6692 63.4387 46.8587C62.9303 46.991 62.4185 47.1241 61.9027 47.1299C60.2252 47.1543 58.6852 45.5802 58.7333 43.877C58.7677 42.1738 60.3696 40.6731 62.0471 40.7603C62.5226 40.7919 62.9893 40.93 63.4538 41.0674C64.1176 41.2638 64.7768 41.4588 65.4502 41.3397C65.7871 39.6993 64.7524 37.8984 63.1883 37.3819C66.5915 35.752 70.0049 34.1221 73.408 32.5061C73.8308 31.836 72.9474 31.0577 72.1774 30.9809C71.9879 30.9624 71.7919 30.9573 71.5958 30.9522C70.9809 30.9362 70.3644 30.9201 69.9396 30.4888C69.2796 29.8222 69.6887 28.5972 70.4587 28.0422C70.986 27.6552 71.6221 27.4753 72.2584 27.2953C72.5345 27.2172 72.8107 27.1391 73.078 27.044C73.5139 26.8923 73.9252 26.6955 74.3362 26.4988C74.7097 26.3201 75.0829 26.1415 75.474 25.997C79.0249 24.7091 82.8405 26.6985 86.0958 28.6146L86.3812 28.5134C86.4327 29.358 86.1955 30.2166 85.7246 30.9111C87.7115 29.9025 90.2208 30.063 92.0599 31.2985C92.2807 31.4454 92.4947 31.6076 92.7085 31.7696C93.2667 32.1926 93.8235 32.6145 94.4971 32.7609ZM99.1651 50.6305C99.4538 50.8573 99.7873 51.0981 100.148 51.1226C100.519 51.147 100.942 50.8817 100.942 50.5013C100.93 50.1992 100.691 49.9791 100.468 49.773C100.43 49.7386 100.393 49.7046 100.358 49.6707C100.11 49.4333 99.9213 49.004 100.159 48.7632C100.27 48.7196 100.379 48.6786 100.487 48.6376C100.595 48.5966 100.703 48.5556 100.815 48.5119C100.925 47.7301 100.241 47.0496 99.5466 46.6831C99.3408 46.5714 99.126 46.4741 98.9116 46.377C98.4028 46.1465 97.8969 45.9174 97.522 45.4999C97.4566 45.4476 97.4085 45.3743 97.4085 45.2975C97.4085 45.1956 97.4831 45.1259 97.5571 45.0567C97.5744 45.0405 97.5916 45.0243 97.6079 45.0078C98.2645 44.4424 97.8657 43.1301 97.0098 43.0289L97.5185 42.7497C97.357 42.4111 96.9616 42.2087 96.6007 42.2715C95.841 42.3972 95.6073 43.4058 95.7688 44.1632C95.9545 45.0183 96.4529 45.814 97.137 46.369C97.1943 46.4157 97.254 46.4613 97.314 46.5071C97.5276 46.6702 97.7461 46.837 97.8829 47.074C98.1007 47.4426 98.076 47.8737 98.0509 48.3095C98.0333 48.6164 98.0155 48.9256 98.0823 49.2169C98.2198 49.8103 98.6941 50.2535 99.1651 50.6305Z" fill="#CCECF3"/>
<mask id="mask0" mask-type="alpha" maskUnits="userSpaceOnUse" x="51" y="25" width="59" height="86">
<path fill-rule="evenodd" clip-rule="evenodd" d="M94.4971 32.7609C94.7102 32.8133 94.9199 32.8237 95.1193 32.7993C104.242 42.7462 109.828 56.0751 109.842 70.7408C109.842 70.7969 109.842 70.8534 109.842 70.9101C109.843 71.1959 109.843 71.4885 109.832 71.7738C109.433 70.1858 109.096 68.5699 108.797 66.9435C108.247 63.9175 107.601 60.4483 104.978 58.9231C104.779 58.8084 104.574 58.7073 104.37 58.6069C104.077 58.4628 103.787 58.3203 103.524 58.1413C103.251 57.958 103.004 57.7353 102.757 57.5122C102.443 57.2297 102.129 56.9465 101.761 56.7417C101.104 56.3892 100.145 56.3753 99.7496 57.007C99.3268 57.6771 99.8115 58.5985 100.482 58.9999C100.888 59.2536 101.344 59.3895 101.799 59.5247C102.094 59.6127 102.389 59.7004 102.668 59.8201C104.098 60.4378 105.078 61.963 105.091 63.5266C105.091 65.0902 104.112 66.6154 102.696 67.2471C102.48 67.3384 102.258 67.411 102.038 67.4834C101.71 67.591 101.384 67.698 101.08 67.8649C100.386 68.2313 99.839 68.8875 99.6018 69.6448C97.4533 64.7621 95.078 59.9981 92.4655 55.3701C91.558 56.5219 91.8949 58.2216 92.5412 59.5339C92.7348 59.9272 92.9551 60.3111 93.1753 60.695C93.6899 61.592 94.2045 62.4889 94.3802 63.5057C94.4237 63.7703 94.4446 64.0388 94.4654 64.3064C94.4974 64.7163 94.5292 65.124 94.6415 65.5125C94.8757 66.327 95.424 66.9802 95.9685 67.6288C96.1754 67.8751 96.3816 68.1208 96.5699 68.3744C96.8521 68.7487 97.1011 69.1511 97.3497 69.5527C97.8127 70.3008 98.2742 71.0464 98.9452 71.6028C99.9662 72.4614 101.754 72.6115 102.438 71.4632C102.173 72.1476 101.906 72.8269 101.64 73.5061C101.41 74.0947 101.179 74.6831 100.949 75.2745C100.317 76.8956 99.6869 78.5133 99.0569 80.131C98.427 81.7487 97.7971 83.3664 97.1646 84.9876C96.9979 85.4238 96.8303 85.8557 96.6628 86.2875C96.4952 86.7195 96.3276 87.1514 96.1608 87.5877L96.0887 87.7712C94.8338 90.9642 93.5663 94.1893 91.6302 97.0111L91.6094 97.0409C91.3065 97.4747 90.9958 97.9197 90.9118 98.4246C90.8827 98.6438 90.89 98.8643 90.8973 99.0853C90.9021 99.2302 90.9069 99.3754 90.9015 99.5206C90.8637 100.833 89.7705 102.02 88.4918 102.159C89.4337 102.159 89.6708 103.813 88.9387 104.518C88.4381 105.001 87.7719 105.204 87.0983 105.409C86.7496 105.515 86.399 105.622 86.0683 105.768C85.0273 106.221 84.1463 107.074 83.2834 107.91C82.0036 109.149 80.7636 110.35 79.1005 110.148L78.9746 109.747C78.02 106.705 77.0682 103.673 76.1133 100.641C75.7146 99.3949 75.3193 98.121 75.3296 96.8087C75.3527 95.3427 75.8719 93.9719 76.3936 92.5942C76.7252 91.7187 77.0579 90.8404 77.2649 89.9331C77.808 87.6017 76.9246 84.485 74.5905 84.1848C74.8002 83.6438 75.0133 83.0889 75.223 82.534C74.8277 82.6073 74.429 82.6841 74.044 82.7608C74.814 81.1065 75.0477 78.5727 73.3462 77.9549C72.9331 77.808 72.4936 77.8206 72.0529 77.8332C71.6978 77.8434 71.3419 77.8536 70.9983 77.7804C70.2249 77.6164 69.5787 76.5449 70.2008 76.0528C67.4577 75.9411 64.6733 76.4088 62.1158 77.4314C62.0068 77.4748 61.8976 77.5193 61.7882 77.5639C61 77.8851 60.198 78.212 59.359 78.1783C57.819 78.1154 56.5987 76.8799 55.5433 75.7456C53.3055 73.3025 50.8924 70.2626 51.6624 67.0342C51.7437 66.6947 51.8586 66.3573 51.9732 66.0205C52.2417 65.232 52.5092 64.4463 52.343 63.6418C52.2761 63.3154 52.1357 63.0105 51.995 62.7049C51.8468 62.3832 51.6984 62.0608 51.6349 61.7117C51.4596 60.8287 51.8446 59.9317 52.2915 59.15C53.7077 56.6126 55.8046 54.4557 58.2762 52.9654C58.1283 51.4751 59.1562 50.0616 60.4487 49.3426C61.7273 48.621 63.2246 48.4391 64.6744 48.2629L64.7215 48.2572C66.1407 48.0891 67.5609 47.9249 68.983 47.7604C70.2477 47.6142 71.5139 47.4678 72.7824 47.3183C73.1055 47.2799 73.4562 47.2555 73.7277 47.4195C74.0834 47.639 74.1799 48.084 74.2739 48.5169C74.2979 48.6279 74.3218 48.7381 74.3499 48.8435C74.7349 50.3199 76.4983 51.2378 77.9146 50.7073C78.4371 52.5256 80.5237 53.2307 82.3387 53.6704C82.1393 52.6094 82.4487 51.4751 83.143 50.6794C83.7893 52.3302 85.838 52.8223 87.5912 52.8712C87.7923 52.8752 87.9959 52.8771 88.2008 52.879C89.7807 52.8936 91.4338 52.909 92.6237 53.9008C92.4647 52.8753 92.2956 51.8499 92.125 50.8157C92.0965 50.6425 92.0679 50.4691 92.0393 50.2954C91.9774 49.8661 91.8915 49.3985 91.5546 49.1088C91.1931 48.8039 90.7012 48.8347 90.2171 48.865C90.1027 48.8721 89.9888 48.8793 89.8771 48.8819C88.5708 48.9343 87.268 48.2921 86.5083 47.2066C88.8905 46.212 91.5752 45.9293 94.1224 46.4214C92.7302 44.7182 91.6096 42.7776 90.8327 40.7045C90.7252 41.1927 90.6233 41.6764 90.5212 42.1607C90.4437 42.5281 90.3662 42.8959 90.2862 43.2663C89.9493 42.4216 89.5505 41.5002 88.7565 41.1094C87.9487 40.708 86.7077 41.3118 86.8693 42.1948C86.913 42.4511 87.0602 42.6689 87.2078 42.8873C87.3155 43.0466 87.4233 43.2063 87.4915 43.3814C87.8043 44.1632 87.2577 45.0707 86.5118 45.4371C85.7693 45.8141 84.8996 45.7896 84.078 45.7652C83.9921 46.4737 83.9062 47.1787 83.8065 47.8977C83.6933 47.6018 83.5781 47.3088 83.4629 47.016C83.3227 46.6595 83.1827 46.3035 83.0468 45.9432C82.8732 46.0636 82.6962 46.1805 82.5191 46.2975C82.3421 46.4144 82.1651 46.5313 81.9915 46.6517C81.674 46.3118 81.3587 45.9748 81.0445 45.6391C80.6716 45.2406 80.3003 44.8438 79.929 44.4459C79.6306 44.7462 79.3342 45.0563 79.0368 45.3674C78.9368 45.4721 78.8366 45.5769 78.7362 45.6815C77.478 44.6588 76.2233 43.6397 74.9687 42.6311C74.398 42.1669 73.8137 41.6992 73.1296 41.4479C71.0396 40.6661 68.8052 42.104 67.2412 43.6956C66.4368 44.5262 65.653 45.5104 65.6049 46.6727C64.8883 46.4815 64.1669 46.6692 63.4387 46.8587C62.9303 46.991 62.4185 47.1241 61.9027 47.1299C60.2252 47.1543 58.6852 45.5802 58.7333 43.877C58.7677 42.1738 60.3696 40.6731 62.0471 40.7603C62.5226 40.7919 62.9893 40.93 63.4538 41.0674C64.1176 41.2638 64.7768 41.4588 65.4502 41.3397C65.7871 39.6993 64.7524 37.8984 63.1883 37.3819C66.5915 35.752 70.0049 34.1221 73.408 32.5061C73.8308 31.836 72.9474 31.0577 72.1774 30.9809C71.9879 30.9624 71.7919 30.9573 71.5958 30.9522C70.9809 30.9362 70.3644 30.9201 69.9396 30.4888C69.2796 29.8222 69.6887 28.5972 70.4587 28.0422C70.986 27.6552 71.6221 27.4753 72.2584 27.2953C72.5345 27.2172 72.8107 27.1391 73.078 27.044C73.5139 26.8923 73.9252 26.6955 74.3362 26.4988C74.7097 26.3201 75.0829 26.1415 75.474 25.997C79.0249 24.7091 82.8405 26.6985 86.0958 28.6146L86.3812 28.5134C86.4327 29.358 86.1955 30.2166 85.7246 30.9111C87.7115 29.9025 90.2208 30.063 92.0599 31.2985C92.2807 31.4454 92.4947 31.6076 92.7085 31.7696C93.2667 32.1926 93.8235 32.6145 94.4971 32.7609ZM99.1651 50.6305C99.4538 50.8573 99.7873 51.0981 100.148 51.1226C100.519 51.147 100.942 50.8817 100.942 50.5013C100.93 50.1992 100.691 49.9791 100.468 49.773C100.43 49.7386 100.393 49.7046 100.358 49.6707C100.11 49.4333 99.9213 49.004 100.159 48.7632C100.27 48.7196 100.379 48.6786 100.487 48.6376C100.595 48.5966 100.703 48.5556 100.815 48.5119C100.925 47.7301 100.241 47.0496 99.5466 46.6831C99.3408 46.5714 99.126 46.4741 98.9116 46.377C98.4028 46.1465 97.8969 45.9174 97.522 45.4999C97.4566 45.4476 97.4085 45.3743 97.4085 45.2975C97.4085 45.1956 97.4831 45.1259 97.5571 45.0567C97.5744 45.0405 97.5916 45.0243 97.6079 45.0078C98.2645 44.4424 97.8657 43.1301 97.0098 43.0289L97.5185 42.7497C97.357 42.4111 96.9616 42.2087 96.6007 42.2715C95.841 42.3972 95.6073 43.4058 95.7688 44.1632C95.9545 45.0183 96.4529 45.814 97.137 46.369C97.1943 46.4157 97.254 46.4613 97.314 46.5071C97.5276 46.6702 97.7461 46.837 97.8829 47.074C98.1007 47.4426 98.076 47.8737 98.0509 48.3095C98.0333 48.6164 98.0155 48.9256 98.0823 49.2169C98.2198 49.8103 98.6941 50.2535 99.1651 50.6305Z" fill="white"/>
</mask>
<g mask="url(#mask0)">
</g>
<path d="M54.9999 1.25891L11.7856 71.9732L54.9999 52.2449V1.25891Z" stroke="url(#paint1_linear)" stroke-dasharray="1"/>
<path d="M54.9999 1.25891L11.7856 71.9732L54.9999 52.2449V1.25891Z" stroke="url(#paint2_linear)" stroke-dasharray="1"/>
<path opacity="0.435756" d="M54.9999 105.668V139.741L11.7856 80.8125L54.9999 105.668Z" stroke="url(#paint3_linear)" stroke-width="0.8" stroke-dasharray="1"/>
<path opacity="0.8058" d="M54.9999 105.668V139.741L11.7856 80.8125L54.9999 105.668Z" stroke="url(#paint4_linear)" stroke-width="0.8" stroke-dasharray="1"/>
<path d="M11.7856 71.954L54.9999 96.5268V52.3304L11.7856 71.954Z" stroke="url(#paint5_linear)" stroke-width="0.8" stroke-dasharray="1"/>
<path opacity="0.497675" d="M54.9998 1.25891L98.2141 71.9732L54.9998 52.2449V1.25891Z" stroke="url(#paint6_linear)" stroke-width="0.8" stroke-dasharray="1"/>
<path d="M54.9998 105.668V139.741L98.2141 80.8125L54.9998 105.668Z" stroke="url(#paint7_linear)" stroke-width="0.8" stroke-dasharray="1"/>
<path d="M98.2141 71.954L54.9998 96.5268V52.3304L98.2141 71.954Z" stroke="url(#paint8_linear)" stroke-width="0.8" stroke-dasharray="1"/>
<path d="M34.4128 52.5471C35.6607 51.9398 36.716 50.9835 37.9466 50.3414C40.0641 49.2385 42.5357 49.1407 44.9144 49.064C50.3285 48.8929 55.7425 48.7219 61.1566 48.5509C59.9019 49.2489 58.6472 49.9505 57.3891 50.6485C56.3647 51.2209 55.1994 51.8072 54.0753 51.4826C54.0513 52.4005 54.8728 53.2521 55.7803 53.2452C53.5563 54.6412 50.4694 53.2137 48.1216 54.3864C47.1385 54.8786 46.3444 55.8069 45.2616 55.9814C44.636 56.0827 43.9863 55.9116 43.3641 56.0512C42.3225 56.2816 41.666 57.2833 40.896 58.0302C40.0091 58.8922 38.7063 59.4821 37.5478 59.0702C36.3894 58.6584 35.7844 56.9098 36.7125 56.0931C37.1697 55.6918 37.8228 55.6254 38.3625 55.3427C38.9022 55.0635 39.3285 54.3131 38.9228 53.8559C38.7475 53.657 38.4588 53.5802 38.2972 53.3673C38.1219 53.137 38.1391 52.8089 37.9947 52.5576C37.4447 51.5769 35.915 52.8961 34.8735 52.5018" fill="#CCECF3"/>
<defs>
<linearGradient id="paint0_linear" x1="38.2809" y1="123.837" x2="114.421" y2="75.5826" gradientUnits="userSpaceOnUse">
<stop stop-color="#B0E4EF" stop-opacity="0.790025"/>
<stop offset="1" stop-color="#44C9E6"/>
</linearGradient>
<linearGradient id="paint1_linear" x1="97.2858" y1="-50.7294" x2="-9.46982" y2="-50.7294" gradientUnits="userSpaceOnUse">
<stop stop-color="#5BCFE8" stop-opacity="0.01"/>
<stop offset="1" stop-color="#2CB2E1"/>
</linearGradient>
<linearGradient id="paint2_linear" x1="97.2858" y1="-50.7294" x2="-9.46982" y2="-50.7294" gradientUnits="userSpaceOnUse">
<stop stop-color="#5BCFE8" stop-opacity="0.01"/>
<stop offset="1" stop-color="#2CB2E1"/>
</linearGradient>
<linearGradient id="paint3_linear" x1="97.2858" y1="37.4889" x2="-9.46982" y2="37.4889" gradientUnits="userSpaceOnUse">
<stop stop-color="#5BCFE8" stop-opacity="0.01"/>
<stop offset="1" stop-color="#2CB2E1"/>
</linearGradient>
<linearGradient id="paint4_linear" x1="97.2858" y1="37.4889" x2="-9.46982" y2="37.4889" gradientUnits="userSpaceOnUse">
<stop stop-color="#5BCFE8" stop-opacity="0.01"/>
<stop offset="1" stop-color="#2CB2E1"/>
</linearGradient>
<linearGradient id="paint5_linear" x1="97.2858" y1="19.8376" x2="-9.46982" y2="19.8376" gradientUnits="userSpaceOnUse">
<stop stop-color="#5BCFE8" stop-opacity="0.01"/>
<stop offset="1" stop-color="#2CB2E1"/>
</linearGradient>
<linearGradient id="paint6_linear" x1="12.714" y1="-50.7294" x2="119.47" y2="-50.7294" gradientUnits="userSpaceOnUse">
<stop stop-color="#5BCFE8" stop-opacity="0.01"/>
<stop offset="1" stop-color="#2CB2E1"/>
</linearGradient>
<linearGradient id="paint7_linear" x1="12.714" y1="37.4889" x2="119.47" y2="37.4889" gradientUnits="userSpaceOnUse">
<stop stop-color="#5BCFE8" stop-opacity="0.01"/>
<stop offset="1" stop-color="#00BDFF"/>
</linearGradient>
<linearGradient id="paint8_linear" x1="12.714" y1="19.8376" x2="119.47" y2="19.8376" gradientUnits="userSpaceOnUse">
<stop stop-color="#5BCFE8" stop-opacity="0.01"/>
<stop offset="1" stop-color="#2CB2E1"/>
</linearGradient>
</defs>
</svg>
