<svg width="867" height="634" viewBox="0 0 867 634" fill="none" xmlns="http://www.w3.org/2000/svg">
<g opacity="0.7">
<path d="M676.154 273.5C676.154 436.287 544.434 568.25 381.952 568.25C219.47 568.25 87.75 436.287 87.75 273.5C87.75 110.713 219.47 -21.25 381.952 -21.25C544.434 -21.25 676.154 110.713 676.154 273.5Z" stroke="url(#paint0_linear)" stroke-width="1.5"/>
<path d="M866.25 -9C866.25 71.2218 801.441 136.25 721.5 136.25C641.559 136.25 576.75 71.2218 576.75 -9C576.75 -89.2218 641.559 -154.25 721.5 -154.25C801.441 -154.25 866.25 -89.2218 866.25 -9Z" stroke="url(#paint1_linear)" stroke-width="1.5"/>
<path d="M190.25 538C190.25 590.609 147.825 633.25 95.5 633.25C43.1747 633.25 0.75 590.609 0.75 538C0.75 485.391 43.1747 442.75 95.5 442.75C147.825 442.75 190.25 485.391 190.25 538Z" stroke="url(#paint2_linear)" stroke-width="1.5"/>
<path opacity="0.3" d="M179.102 247.723L212.41 336.547C221.883 338.18 227.714 340.405 227.714 342.858L227.714 342.905L227.697 342.857L227.753 343.072C227.953 344.098 227.921 345.216 227.657 346.425L227.714 346.429L227.534 346.931C227.275 347.901 226.872 348.928 226.326 350.011C217.497 370.88 197.985 385.6 173.975 385.6C150.334 385.6 130.148 371.329 121.011 350.974L121.546 351.925C120.464 350.068 119.728 348.376 119.34 346.849C119.293 346.713 119.242 346.571 119.192 346.429L119.24 346.426C119.013 345.377 118.957 344.41 119.071 343.523L119.192 342.858L119.216 342.581C119.654 340.144 125.85 337.948 135.608 336.361L168.847 247.723C170.447 243.423 177.492 243.423 179.102 247.723ZM354.806 247.712L388.108 336.516C397.128 338.055 402.891 340.129 403.535 342.427L403.444 342.24C403.971 343.253 404.124 344.422 403.903 345.745L403.764 346.418C403.573 347.168 403.279 347.952 402.878 348.781C394.278 370.303 374.154 385.589 349.678 385.589C325.46 385.589 304.868 370.614 296.065 349.463C295.543 348.434 295.13 347.449 294.919 346.525L294.898 346.427C294.897 346.424 294.896 346.421 294.895 346.418L294.896 346.416L294.83 345.993C294.743 345.246 294.789 344.343 294.968 343.285L295.102 342.572L295.09 342.633C295.095 342.592 295.103 342.551 295.112 342.511L295.125 342.464L295.132 342.465C295.735 340.091 301.804 337.953 311.291 336.394L344.55 247.712C346.15 243.412 353.195 243.412 354.806 247.712ZM173.975 265.286L147.882 334.86C155.501 334.178 164.207 333.792 173.453 333.792L175.112 333.796C184.176 333.842 192.681 334.258 200.102 334.959L173.975 265.286ZM349.678 265.286L323.577 334.877C331.24 334.185 340.013 333.792 349.334 333.792L350.993 333.796C359.984 333.841 368.425 334.252 375.802 334.942L349.678 265.286ZM262.597 144.693C262.597 144.693 275.591 185.463 275.591 192.685C275.591 197.657 272.72 201.857 268.634 204.062C271.997 205.154 274.956 207.072 277.267 209.641C282.428 205.143 290.032 200.964 300.945 200.964C313.424 200.964 324.151 206.422 333.617 211.239C336.63 212.772 339.556 214.238 342.262 215.385C344.278 213.246 347.094 211.879 350.249 211.879C356.363 211.879 361.316 216.862 361.316 223.014C361.316 229.166 356.363 234.149 350.249 234.149C345.286 234.149 341.243 230.809 339.841 226.277C336.214 224.888 332.5 223.014 328.676 221.074C320.305 216.818 310.806 211.989 300.945 211.989C291.467 211.989 285.551 216.41 282.176 220.148C282.307 221.096 282.461 222.033 282.461 223.014C282.461 234.05 273.564 243.002 262.597 243.002C251.629 243.002 242.732 234.05 242.732 223.014C242.732 222.033 242.886 221.085 243.017 220.136C239.631 216.388 233.715 211.989 224.248 211.989C214.387 211.989 204.888 216.829 196.506 221.085C192.693 223.025 188.979 224.899 185.352 226.288C183.95 230.82 179.907 234.16 174.944 234.16C168.83 234.16 163.877 229.166 163.877 223.014C163.877 216.862 168.83 211.879 174.944 211.879C178.099 211.879 180.915 213.257 182.931 215.385C185.637 214.249 188.552 212.783 191.565 211.239C201.031 206.422 211.769 200.964 224.248 200.964C235.161 200.964 242.765 205.143 247.926 209.641C250.237 207.072 253.196 205.143 256.559 204.062C252.473 201.857 249.602 197.668 249.602 192.685C249.602 185.463 262.597 144.693 262.597 144.693Z" fill="white" fill-opacity="0.9"/>
<path d="M173.975 263.15L174.677 265.022L200.804 334.696L201.225 335.818L200.031 335.706C192.636 335.008 184.154 334.592 175.11 334.546C175.109 334.546 175.109 334.546 175.108 334.546M173.975 263.15L175.112 333.796L175.108 334.546M173.975 263.15L173.272 265.022L147.179 334.596L146.761 335.713L147.949 335.607C155.543 334.928 164.226 334.542 173.451 334.542M173.975 263.15L173.451 334.542M175.108 334.546L173.453 334.542M175.108 334.546L173.453 334.542M173.453 334.542C173.452 334.542 173.452 334.542 173.451 334.542M173.453 334.542H173.451M349.678 263.15L350.38 265.022L376.505 334.678L376.925 335.8L375.733 335.689C368.38 335.001 359.962 334.591 350.991 334.546C350.991 334.546 350.99 334.546 350.99 334.546M349.678 263.15L350.993 333.796L350.99 334.546M349.678 263.15L348.976 265.022L322.875 334.613L322.456 335.731L323.645 335.624C331.283 334.934 340.032 334.542 349.333 334.542M349.678 263.15L349.333 334.542M350.99 334.546L349.334 334.542M350.99 334.546L349.334 334.542M349.334 334.542C349.334 334.542 349.333 334.542 349.333 334.542M349.334 334.542H349.333M266.735 204.235L268.278 203.402C272.148 201.314 274.841 197.353 274.841 192.685C274.841 191.862 274.652 190.498 274.297 188.694C273.945 186.906 273.441 184.735 272.833 182.323C271.619 177.498 269.997 171.736 268.374 166.192C266.751 160.649 265.128 155.331 263.91 151.398C263.387 149.706 262.938 148.27 262.597 147.184C262.255 148.27 261.807 149.706 261.283 151.398C260.065 155.331 258.442 160.649 256.819 166.192C255.196 171.736 253.575 177.498 252.36 182.323C251.752 184.735 251.248 186.906 250.896 188.694C250.541 190.498 250.352 191.862 250.352 192.685C250.352 197.364 253.045 201.314 256.916 203.402L258.465 204.238L256.789 204.776C253.552 205.816 250.707 207.672 248.483 210.143L247.989 210.691L247.433 210.206C242.382 205.804 234.948 201.714 224.248 201.714C211.976 201.714 201.394 207.078 191.907 211.907C191.906 211.907 191.906 211.908 191.905 211.908L191.565 211.239C188.552 212.783 185.637 214.249 182.931 215.385L266.735 204.235ZM266.735 204.235L268.402 204.776C271.642 205.827 274.488 207.673 276.71 210.143L277.204 210.691L277.76 210.206C282.811 205.804 290.245 201.714 300.945 201.714C313.218 201.714 323.789 207.079 333.277 211.908L333.277 211.908C336.288 213.439 339.236 214.917 341.97 216.075L342.45 216.279L342.808 215.899C344.695 213.898 347.318 212.629 350.249 212.629C355.945 212.629 360.566 217.272 360.566 223.014C360.566 228.756 355.945 233.399 350.249 233.399C345.645 233.399 341.872 230.302 340.557 226.056L340.449 225.707L340.109 225.577C336.525 224.204 332.846 222.349 329.016 220.405L266.735 204.235ZM178.4 247.986L178.4 247.986L211.708 336.811L211.859 337.213L212.283 337.286C216.999 338.099 220.765 339.053 223.334 340.09C224.622 340.611 225.566 341.135 226.175 341.643C226.788 342.154 226.962 342.561 226.964 342.854C226.964 342.855 226.964 342.857 226.964 342.858L226.964 342.893L227.454 342.901L226.971 343.046L227.021 343.238C227.194 344.141 227.169 345.147 226.924 346.265L226.842 346.637L226.828 346.677L226.817 346.707L226.809 346.738C226.566 347.649 226.184 348.627 225.657 349.673L225.645 349.696L225.636 349.719C216.911 370.339 197.654 384.85 173.975 384.85C151.009 384.85 131.339 371.203 122.124 351.6L122.2 351.557L122.194 351.547L121.756 350.77C120.939 349.263 120.38 347.896 120.067 346.664L120.059 346.634L120.049 346.604C120.046 346.597 120.044 346.591 120.041 346.584L119.973 346.267C119.762 345.294 119.714 344.42 119.812 343.638L119.929 342.993L119.935 342.959L119.939 342.925L119.96 342.686C120.029 342.363 120.315 341.927 121.029 341.412C121.747 340.894 122.798 340.37 124.179 339.855C126.936 338.828 130.87 337.892 135.728 337.101L136.158 337.032L136.31 336.624L169.549 247.986L169.55 247.985C170.211 246.208 172.026 245.248 173.971 245.248C175.915 245.248 177.734 246.209 178.4 247.986ZM354.103 247.975L354.104 247.975L387.406 336.779L387.557 337.183L387.982 337.255C392.471 338.021 396.114 338.915 398.698 339.889C399.992 340.376 400.99 340.873 401.691 341.364C402.356 341.831 402.675 342.239 402.791 342.559L402.77 342.57L402.779 342.586L402.862 342.757L402.862 342.756C403.234 343.561 403.348 344.501 403.166 345.608L403.033 346.249C402.857 346.938 402.583 347.669 402.203 348.454L402.191 348.478L402.181 348.503C393.685 369.765 373.821 384.839 349.678 384.839C325.781 384.839 305.451 370.062 296.758 349.175L296.747 349.149L296.734 349.123C296.225 348.119 295.843 347.198 295.652 346.362C295.651 346.36 295.651 346.359 295.651 346.358L295.636 346.289L295.573 345.892C295.5 345.241 295.537 344.421 295.706 343.417C295.707 343.415 295.707 343.412 295.707 343.41L295.827 342.775L295.859 342.65C295.944 342.315 296.261 341.869 297.006 341.35C297.735 340.842 298.781 340.329 300.14 339.827C302.854 338.825 306.69 337.91 311.412 337.134L311.841 337.064L311.993 336.657L345.253 247.975L345.253 247.974C345.914 246.197 347.73 245.237 349.674 245.237C351.618 245.237 353.438 246.198 354.103 247.975Z" stroke="url(#paint3_linear)" stroke-width="1.5"/>
<path d="M417.903 131.113C417.903 131.113 404.423 132.271 395.492 137.097C395.492 137.097 431.013 136.905 447.545 150.794C447.545 150.794 407.341 138.441 360.481 169.117C360.481 169.117 435.01 154.838 470.342 185.13C470.342 185.13 458.94 164.028 434.961 159.486C434.961 159.486 462.244 158.399 471.588 162.94C471.588 162.94 463.518 145.555 454.37 141.412V129.019C454.37 126.509 440.707 113.747 417.903 111.593V131.113Z" fill="url(#paint4_linear)" fill-opacity="0.9"/>
<path d="M417.968 131.86L417.968 131.86L418.653 131.801V131.113V112.422C429.548 113.585 438.271 117.184 444.301 120.815C447.393 122.677 449.766 124.541 451.357 126.079C452.154 126.85 452.742 127.527 453.125 128.07C453.316 128.342 453.447 128.567 453.528 128.744C453.568 128.832 453.592 128.9 453.606 128.95C453.619 128.999 453.62 129.02 453.62 129.019V141.412V141.895L454.06 142.095C456.217 143.072 458.357 144.854 460.368 147.032C462.373 149.203 464.214 151.728 465.78 154.139C467.346 156.547 468.629 158.83 469.521 160.511C469.711 160.869 469.884 161.199 470.037 161.498C467.796 160.72 465.009 160.155 462.026 159.742C458.12 159.2 453.806 158.909 449.798 158.761C445.788 158.612 442.073 158.606 439.361 158.637C438.005 158.653 436.898 158.678 436.131 158.698C435.747 158.709 435.447 158.718 435.244 158.725C435.142 158.729 435.064 158.732 435.011 158.734L434.952 158.736L434.936 158.736L434.932 158.737L434.931 158.737C434.931 158.737 434.931 158.737 434.961 159.486L434.931 158.737L434.821 160.223C446.619 162.457 455.335 168.768 461.113 174.542C463.783 177.209 465.82 179.757 467.237 181.724C449.381 168.728 423.752 165.217 402.169 165.014C390.606 164.905 380.154 165.746 372.593 166.614C369.025 167.023 366.1 167.439 364.003 167.764C386.116 154.091 406.533 149.909 421.621 149.201C429.52 148.83 435.96 149.412 440.419 150.084C442.649 150.421 444.383 150.779 445.556 151.053C446.142 151.19 446.588 151.305 446.886 151.386C447.035 151.426 447.146 151.458 447.22 151.479C447.257 151.49 447.284 151.498 447.301 151.503L447.321 151.509L447.325 151.51L447.325 151.51L447.325 151.511C447.325 151.511 447.325 151.511 447.326 151.509L448.028 150.219C439.593 143.134 426.4 139.687 415.433 137.996C409.93 137.147 404.948 136.735 401.342 136.535C400.336 136.48 399.438 136.44 398.664 136.413C402.435 134.815 406.647 133.737 410.193 133.031C412.417 132.588 414.364 132.295 415.755 132.113C416.45 132.022 417.005 131.958 417.386 131.918C417.576 131.897 417.723 131.883 417.821 131.873C417.87 131.869 417.908 131.865 417.932 131.863L417.959 131.861L417.966 131.86L417.967 131.86L417.968 131.86Z" stroke="url(#paint5_linear)" stroke-width="1.5"/>
<path d="M411.841 186.53C411.841 186.53 417.59 191.544 420.024 196.178C420.024 196.178 414.768 201.372 409.745 203.93C409.745 203.93 424.962 208.721 428.968 214.39C420.856 211.839 407.001 212.795 403.665 219.684C412.927 218.686 418.599 221.078 419.791 224.627C419.791 224.627 417.589 227.8 410.846 229.21C403.665 230.712 401.831 233.698 401.831 237.867C401.831 242.036 407.284 245.849 417.188 245.54C427.078 245.224 454.053 241.143 456.092 190.108C454.053 185.309 429.413 175.51 411.777 175.617L411.841 186.53Z" fill="url(#paint6_linear)" fill-opacity="0.6"/>
<path d="M412.589 186.192L412.531 176.369C421.079 176.452 431.206 178.796 439.534 181.73C443.816 183.238 447.598 184.894 450.424 186.46C451.838 187.243 452.997 187.996 453.856 188.687C454.642 189.32 455.115 189.853 455.335 190.263C454.293 215.534 447.1 229.043 439.081 236.287C431.036 243.554 422.029 244.634 417.164 244.79C412.302 244.942 408.607 244.078 406.157 242.726C403.704 241.372 402.581 239.588 402.581 237.867C402.581 235.895 403.011 234.319 404.194 233.05C405.398 231.758 407.476 230.681 410.999 229.944C414.468 229.219 416.798 228.033 418.275 227.005C419.013 226.492 419.535 226.02 419.878 225.669C420.05 225.493 420.176 225.347 420.263 225.241C420.306 225.189 420.34 225.146 420.363 225.114C420.375 225.098 420.385 225.085 420.392 225.075L420.401 225.063L420.404 225.058L420.406 225.056L420.406 225.055C420.407 225.055 420.407 225.054 419.791 224.627L420.407 225.054L420.622 224.745L420.502 224.388C419.802 222.306 417.839 220.697 414.993 219.739C412.447 218.883 409.115 218.515 405.093 218.803C406.945 216.412 410.471 214.904 414.644 214.238C419.433 213.473 424.806 213.867 428.743 215.105L430.864 215.772L429.581 213.957C428.493 212.418 426.69 210.992 424.672 209.728C422.641 208.456 420.329 207.31 418.158 206.348C415.985 205.386 413.941 204.603 412.44 204.062C412.135 203.951 411.852 203.851 411.595 203.761C413.667 202.524 415.673 200.984 417.248 199.671C418.231 198.852 419.054 198.114 419.632 197.581C419.922 197.314 420.15 197.098 420.307 196.948C420.385 196.873 420.445 196.814 420.486 196.774L420.534 196.728L420.546 196.716L420.549 196.713L420.55 196.712L420.551 196.712C420.551 196.712 420.551 196.712 420.024 196.178L420.551 196.712L420.946 196.321L420.688 195.829C419.421 193.418 417.317 190.945 415.563 189.1C414.681 188.171 413.875 187.389 413.291 186.839C412.998 186.564 412.76 186.347 412.595 186.198C412.593 186.196 412.591 186.194 412.589 186.192Z" stroke="url(#paint7_linear)" stroke-width="1.5"/>
<path d="M465.303 243.261C476.889 225.199 483.493 209.289 485.03 195.548C500.664 213.892 500.546 234.963 497.967 251.922C496.061 246.985 493.727 241.933 490.966 236.767L489.557 237.179C490.624 250.877 489.117 261.312 485.144 268.578C481.303 275.603 475.115 279.741 466.481 280.983C464.449 268.624 464.056 256.051 465.303 243.261Z" fill="url(#paint8_linear)" fill-opacity="0.6" stroke="url(#paint9_linear)" stroke-width="1.5"/>
<path d="M465.303 243.261C476.889 225.199 483.493 209.289 485.03 195.548C500.664 213.892 500.546 234.963 497.967 251.922C496.061 246.985 493.727 241.933 490.966 236.767L489.557 237.179C490.624 250.877 489.117 261.312 485.144 268.578C481.303 275.603 475.115 279.741 466.481 280.983C464.449 268.624 464.056 256.051 465.303 243.261Z" stroke="url(#paint10_linear)" stroke-width="1.5"/>
<path d="M240.819 72.0771C237.454 77.2533 232.522 91.645 226.022 115.252C211.415 131.967 197.127 154.908 183.156 184.074C176.258 186.218 168.941 189.246 161.204 193.156C181.046 156.674 200.46 129.134 219.443 110.533C223.829 95.9553 230.954 83.1366 240.819 72.0771Z" fill="white" fill-opacity="0.5"/>
<path d="M182.621 183.455C176.411 185.407 169.872 188.063 163.006 191.423C182.431 156.012 201.422 129.241 219.968 111.069L220.105 110.934L220.161 110.749C223.882 98.3825 229.586 87.2962 237.273 77.4851C236.233 79.9453 235.104 82.9567 233.887 86.5099C231.425 93.6926 228.577 103.154 225.344 114.888C210.766 131.604 196.528 154.468 182.621 183.455Z" stroke="url(#paint11_linear)" stroke-width="1.5"/>
<path d="M280.819 112.777L231.725 135.939C245.714 136.174 256.824 133.631 265.054 128.309C273.285 122.987 278.54 117.809 280.819 112.777Z" fill="white" fill-opacity="0.9"/>
<path d="M264.647 127.679C257.239 132.469 247.398 134.994 235.067 135.191L279.103 114.415C276.528 118.662 271.745 123.089 264.647 127.679Z" stroke="url(#paint12_linear)" stroke-width="1.5"/>
<path d="M262.704 104.328C262.426 94.2049 261.108 88.5152 258.75 87.2588C256.129 86.088 254.605 83.5664 256.129 78.9619C257.069 76.0352 256.786 72.7771 255.28 69.1876L268.597 60.291L283.584 69.7386C284.108 73.0721 283.02 76.1465 280.317 78.9619C283.584 82.4968 283.584 87.0591 279.799 92.3288C279.904 93.6343 279.978 94.9142 280.019 96.1686C280.081 98.0698 280.008 100.79 279.799 104.328H262.704Z" fill="white" fill-opacity="0.9"/>
<path d="M259.103 86.5969L259.08 86.5847L259.056 86.574C257.883 86.0501 257.017 85.2558 256.586 84.1297C256.149 82.9908 256.113 81.3973 256.841 79.1975L256.841 79.1975L256.843 79.1911C257.799 76.2155 257.557 72.9633 256.203 69.4724L268.609 61.1851L282.89 70.1875C283.252 73.1251 282.252 75.8633 279.776 78.4425L279.287 78.9521L279.766 79.4709C281.281 81.1103 282.011 82.9488 281.953 84.9731C281.894 87.0179 281.027 89.3333 279.19 91.8912L279.029 92.1148L279.051 92.3892C279.156 93.6833 279.229 94.9513 279.269 96.1932C279.326 97.9333 279.268 100.391 279.091 103.578H263.432C263.275 98.8411 262.881 95.0746 262.238 92.2991C261.9 90.841 261.487 89.6276 260.987 88.6815C260.488 87.7399 259.873 87.0073 259.103 86.5969Z" stroke="url(#paint13_linear)" stroke-width="1.5"/>
<path opacity="0.3" d="M447.618 260.284C445.269 303.079 454.38 327.398 474.951 333.243C505.808 342.01 547.082 344.569 558.303 409.556C561.092 418.346 559.736 426.423 562.044 434.341C552.995 443.921 543.184 452.766 532.705 460.778C522.449 435.98 509.628 420.666 491.601 409.556C420.557 365.3 405.896 315.543 447.618 260.284Z" fill="white" fill-opacity="0.9"/>
<path d="M446.745 262.714C445.827 282.987 447.557 299.059 451.987 310.883C456.606 323.212 464.181 330.963 474.746 333.964C478.247 334.959 481.865 335.871 485.545 336.799C498.207 339.991 511.614 343.372 523.589 350.95C538.96 360.678 551.983 377.364 557.564 409.684L557.573 409.734L557.588 409.783C558.953 414.085 559.308 418.222 559.606 422.33C559.622 422.557 559.639 422.785 559.655 423.012C559.922 426.73 560.189 430.446 561.206 434.135C552.489 443.331 543.066 451.845 533.022 459.589C522.778 435.198 509.956 419.987 491.994 408.917C456.54 386.831 435.296 363.455 428.042 338.834C420.973 314.845 427.135 289.492 446.745 262.714Z" stroke="url(#paint14_linear)" stroke-width="1.5"/>
<path d="M268.762 396.476C305.964 489.868 365.515 430.028 411.519 451.905C432.553 461.907 444.027 480.27 445.941 506.991C428.007 511.168 409.32 513.373 390.119 513.373C352.888 513.373 317.589 505.084 285.956 490.247C285.84 462.133 280.107 430.877 268.762 396.476Z" fill="url(#paint15_linear)" fill-opacity="0.6"/>
<path d="M286.703 489.769C286.547 465.18 282.12 438.224 273.439 408.904C281.453 425.174 290.356 435.591 299.87 442.08C311.578 450.064 324.121 452.036 336.856 451.758C343.219 451.62 349.641 450.919 356.035 450.122C357.461 449.944 358.885 449.762 360.307 449.58C365.27 448.944 370.205 448.312 375.1 447.895C387.689 446.825 399.876 447.199 411.196 452.582C431.778 462.37 443.111 480.253 445.145 506.406C427.458 510.476 409.039 512.623 390.119 512.623C353.169 512.623 318.129 504.434 286.703 489.769Z" stroke="url(#paint16_linear)" stroke-width="1.5"/>
<path d="M467.392 117.045C482.397 140.905 489.395 158.553 488.387 169.991C488.005 174.124 486.188 178.735 482.937 183.825C494.356 182.805 500.065 175.784 500.065 162.76C500.065 149.736 489.174 134.497 467.392 117.045Z" fill="white" fill-opacity="0.9"/>
<path d="M489.134 170.06L489.134 170.057C489.653 164.169 488.109 156.77 484.591 147.9C481.45 139.979 476.716 130.835 470.397 120.473C479.53 128.108 486.486 135.283 491.286 141.999C496.679 149.545 499.315 156.459 499.315 162.76C499.315 169.173 497.908 173.992 495.201 177.321C492.758 180.325 489.184 182.205 484.392 182.9C487.172 178.265 488.771 173.982 489.134 170.06Z" stroke="url(#paint17_linear)" stroke-width="1.5"/>
<path d="M337.002 143.933C346.653 141.267 354.54 135.247 360.663 125.873C360.275 131.454 358.877 136.258 356.47 140.285C384.361 135.268 406.007 118.369 421.408 89.5859C393.01 74.1451 363.738 84.6784 348.047 103.887C337.587 116.693 333.905 130.042 337.002 143.933Z" fill="white" fill-opacity="0.9"/>
<path d="M360.035 125.463C354.163 134.453 346.675 140.277 337.568 142.991C334.835 129.641 338.484 116.78 348.628 104.362C364.006 85.5356 392.566 75.1655 420.391 89.8917C405.396 117.564 384.569 133.979 357.905 139.251C359.898 135.414 361.061 130.967 361.411 125.925L361.611 123.05L360.035 125.463Z" stroke="url(#paint18_linear)" stroke-width="1.5"/>
</g>
<defs>
<linearGradient id="paint0_linear" x1="92" y1="499" x2="1103.77" y2="567.504" gradientUnits="userSpaceOnUse">
<stop offset="0.0140933" stop-color="#FFDFDA"/>
<stop offset="1" stop-color="#FF7965" stop-opacity="0"/>
</linearGradient>
<linearGradient id="paint1_linear" x1="668" y1="182" x2="795.767" y2="105.056" gradientUnits="userSpaceOnUse">
<stop offset="0.0140933" stop-color="#FFDFDA"/>
<stop offset="1" stop-color="#FF7965" stop-opacity="0"/>
</linearGradient>
<linearGradient id="paint2_linear" x1="99" y1="445" x2="64.587" y2="553.787" gradientUnits="userSpaceOnUse">
<stop offset="0.0140933" stop-color="#FFDFDA"/>
<stop offset="1" stop-color="#FF7965" stop-opacity="0"/>
</linearGradient>
<linearGradient id="paint3_linear" x1="261.507" y1="144.693" x2="175.426" y2="349.391" gradientUnits="userSpaceOnUse">
<stop stop-color="white"/>
<stop offset="1" stop-color="#FF7965" stop-opacity="0"/>
</linearGradient>
<linearGradient id="paint4_linear" x1="416.034" y1="135.5" x2="416.034" y2="185.13" gradientUnits="userSpaceOnUse">
<stop stop-color="white"/>
<stop offset="1" stop-color="white" stop-opacity="0"/>
</linearGradient>
<linearGradient id="paint5_linear" x1="416.034" y1="111.593" x2="394.191" y2="177.935" gradientUnits="userSpaceOnUse">
<stop stop-color="white"/>
<stop offset="1" stop-color="#FF7965" stop-opacity="0"/>
</linearGradient>
<linearGradient id="paint6_linear" x1="428.961" y1="175.616" x2="426.5" y2="290.5" gradientUnits="userSpaceOnUse">
<stop stop-color="white"/>
<stop offset="1" stop-color="white" stop-opacity="0"/>
</linearGradient>
<linearGradient id="paint7_linear" x1="393.5" y1="155.5" x2="458" y2="240.5" gradientUnits="userSpaceOnUse">
<stop stop-color="white"/>
<stop offset="1" stop-color="white" stop-opacity="0"/>
</linearGradient>
<linearGradient id="paint8_linear" x1="481.929" y1="193.749" x2="476.081" y2="338.247" gradientUnits="userSpaceOnUse">
<stop stop-color="white"/>
<stop offset="1" stop-color="white" stop-opacity="0"/>
</linearGradient>
<linearGradient id="paint9_linear" x1="482.592" y1="195.125" x2="456.089" y2="229.716" gradientUnits="userSpaceOnUse">
<stop offset="0.0140933" stop-color="#FFDFDA"/>
<stop offset="1" stop-color="#FF7965" stop-opacity="0"/>
</linearGradient>
<linearGradient id="paint10_linear" x1="481.929" y1="193.749" x2="438.69" y2="229.448" gradientUnits="userSpaceOnUse">
<stop stop-color="#FF7965"/>
<stop offset="1" stop-color="#FF7965" stop-opacity="0"/>
</linearGradient>
<linearGradient id="paint11_linear" x1="201.012" y1="72.0772" x2="142.756" y2="149.078" gradientUnits="userSpaceOnUse">
<stop stop-color="#FF7965"/>
<stop offset="1" stop-color="#FF7965" stop-opacity="0"/>
</linearGradient>
<linearGradient id="paint12_linear" x1="256.272" y1="112.777" x2="251.113" y2="134.741" gradientUnits="userSpaceOnUse">
<stop stop-color="#FF7965"/>
<stop offset="1" stop-color="#FF7965" stop-opacity="0"/>
</linearGradient>
<linearGradient id="paint13_linear" x1="269.496" y1="60.291" x2="248.206" y2="87.9221" gradientUnits="userSpaceOnUse">
<stop stop-color="#FF7965"/>
<stop offset="1" stop-color="#FF7965" stop-opacity="0"/>
</linearGradient>
<linearGradient id="paint14_linear" x1="493.253" y1="260.284" x2="397.981" y2="391.702" gradientUnits="userSpaceOnUse">
<stop stop-color="white"/>
<stop offset="1" stop-color="#FF7965" stop-opacity="0"/>
</linearGradient>
<linearGradient id="paint15_linear" x1="315" y1="153" x2="362.715" y2="587.016" gradientUnits="userSpaceOnUse">
<stop stop-color="white"/>
<stop offset="1" stop-color="white" stop-opacity="0"/>
</linearGradient>
<linearGradient id="paint16_linear" x1="357.352" y1="396.476" x2="322.717" y2="502.001" gradientUnits="userSpaceOnUse">
<stop stop-color="#FF7965"/>
<stop offset="1" stop-color="#FF7965" stop-opacity="0"/>
</linearGradient>
<linearGradient id="paint17_linear" x1="483.728" y1="117.045" x2="450.344" y2="149.878" gradientUnits="userSpaceOnUse">
<stop stop-color="#FF7965"/>
<stop offset="1" stop-color="#FF7965" stop-opacity="0"/>
</linearGradient>
<linearGradient id="paint18_linear" x1="378.674" y1="82.1624" x2="359.008" y2="136.86" gradientUnits="userSpaceOnUse">
<stop stop-color="#FF7965"/>
<stop offset="1" stop-color="#FF7965" stop-opacity="0"/>
</linearGradient>
</defs>
</svg>
