<svg width="143" height="133" viewBox="0 0 143 133" fill="none" xmlns="http://www.w3.org/2000/svg">
<path d="M76.4709 92.8635C99.0007 92.8635 117.265 74.6042 117.265 52.0803C117.265 29.5563 99.0007 11.297 76.4709 11.297C53.941 11.297 35.677 29.5563 35.677 52.0803C35.677 74.6042 53.941 92.8635 76.4709 92.8635Z" fill="url(#paint0_linear)"/>
<mask id="mask0" mask-type="alpha" maskUnits="userSpaceOnUse" x="35" y="11" width="83" height="82">
<path d="M76.4709 92.8635C99.0007 92.8635 117.265 74.6042 117.265 52.0803C117.265 29.5563 99.0007 11.297 76.4709 11.297C53.941 11.297 35.677 29.5563 35.677 52.0803C35.677 74.6042 53.941 92.8635 76.4709 92.8635Z" fill="white"/>
</mask>
<g mask="url(#mask0)">
</g>
<path d="M105.121 39.8497C108.044 43.8067 109.574 48.483 109.574 53.3392C109.574 59.2297 107.145 64.6704 103.007 69.077L105.526 78.4747H113.172L121.223 69.3468L123.382 55.9922L123.831 48.0334L115.87 39.0404L105.121 39.8497Z" fill="url(#paint1_linear)"/>
<path d="M16.517 79.5539L17.9112 85.0846C17.9112 85.0846 34.3727 118.853 71.4335 131.399C71.4335 131.399 105.151 117.01 120.128 92.5937L99.454 74.5628C99.454 74.5628 89.5591 82.4316 74.8518 82.4316C60.1444 82.4316 40.1747 73.6634 40.1747 55.5875C40.1747 37.5116 60.864 30.9017 60.864 30.9017L52.0486 28.7434H29.5152L15.2126 63.1866L16.517 79.5539Z" fill="url(#paint2_linear)"/>
<path d="M141.057 41.5939C140.428 40.9643 124.38 22.3724 74.3211 5.15079C71.7483 4.14857 71.7483 3.71808 71.7483 3.71808C25.251 15.5718 2.43921 40.0364 2.43921 41.5939C2.43921 43.1513 9.09576 66.559 13.4135 76.0916C13.7733 76.9009 19.5304 87.063 23.8031 92.5937C21.2844 87.063 18.5409 82.2518 18.5409 73.9782C18.5409 50.6414 36.6215 31.6661 59.2448 30.8568C59.7845 30.8568 60.3692 30.8568 60.9089 30.9017L55.5117 25.5059C55.5117 25.5059 77.2355 21.8638 105.121 38.7256C105.121 38.7256 105.526 39.58 105.121 42.098C105.121 42.098 118.254 47.7636 119.379 58.78C120.503 69.7965 113.532 76.0916 107.91 76.9909C107.91 76.9909 110.833 72.4494 106.335 70.0213C105.391 69.4817 104.266 69.2569 103.142 69.3018C94.5515 69.3018 93.562 79.1042 93.562 79.1042C93.4721 79.5988 93.4721 80.0934 93.4721 80.5881C93.4721 80.5881 92.0328 94.9319 117.58 94.6621C117.58 94.6621 130.533 80.0035 133.951 66.8288C135.21 61.9725 136.11 58.3304 136.695 55.6325C138.134 51.8105 139.528 46.1803 140.878 42.0885L141.057 41.5939Z" fill="url(#paint3_linear)"/>
<path opacity="0.895424" d="M94.0119 43.0873C94.3718 42.9074 95.5411 42.3229 96.8904 40.9289C99.589 41.2887 102.243 42.143 102.243 42.143C97.3402 39.1753 90.6387 37.4217 83.2175 37.4666C83.2175 37.4666 86.0511 41.5135 93.922 43.1772C93.922 43.1772 93.967 43.1322 94.0119 43.0873Z" fill="white"/>
<path fill-rule="evenodd" clip-rule="evenodd" d="M73.1426 1.50438C80.2489 3.84287 114.476 15.9939 141.552 39.3788L142.182 39.8373L142.047 40.6168C142.047 40.8002 139.078 58.5911 129.094 78.5829C123.202 90.3671 116.05 100.638 107.865 109.075C97.7899 119.438 86.1409 127.095 73.1426 131.864L72.378 132.139L71.5684 132.46L70.8038 132.185L70.0392 131.91C57.041 127.141 45.347 119.484 35.3172 109.121C27.1315 100.638 19.9802 90.413 14.0882 78.6288C4.5172 59.4215 1.43435 42.3209 1.15565 40.7749C1.1436 40.708 1.13679 40.6703 1.13493 40.6627L1 39.8832L1.5847 39.3788C28.6607 15.9939 62.8879 3.84287 69.9943 1.50438L71.5684 1L72.468 1.27512L73.1426 1.50438ZM105.886 107.149C113.891 98.8957 120.863 88.854 126.62 77.3449C135.255 60.0584 138.539 44.5143 139.213 40.9837C111.463 17.2778 76.3359 5.44773 71.5684 3.88873C66.7559 5.44773 31.674 17.2778 3.92342 40.9837C4.59807 44.5602 7.83639 60.1043 16.5169 77.4366C22.2739 88.9457 29.2453 98.9416 37.2512 107.195C47.191 117.42 58.705 124.894 71.5684 129.525C84.4317 124.894 95.9458 117.374 105.886 107.149Z" fill="url(#paint4_linear)"/>
<path d="M142.047 40.6168L141.653 40.5486L141.647 40.5825V40.6168H142.047ZM107.865 109.075L108.151 109.354L108.152 109.354L107.865 109.075ZM70.0392 131.91L69.9015 132.285L69.9038 132.286L70.0392 131.91ZM14.0882 78.6288L13.7302 78.8072L13.7304 78.8077L14.0882 78.6288ZM69.9943 1.50438L69.8722 1.12344L69.8692 1.12442L69.9943 1.50438ZM105.886 107.149L106.172 107.428L106.173 107.428L105.886 107.149ZM139.213 40.9837L139.606 41.0587L139.65 40.8305L139.473 40.6795L139.213 40.9837ZM71.5684 3.88873L71.6927 3.50854L71.569 3.46808L71.4451 3.5082L71.5684 3.88873ZM16.5169 77.4366L16.8746 77.2577L16.8746 77.2575L16.5169 77.4366ZM141.814 39.0761C141.688 38.9671 141.561 38.8584 141.435 38.75L140.914 39.3572C141.04 39.465 141.165 39.5732 141.291 39.6815L141.814 39.0761ZM140.674 38.1021C140.42 37.8871 140.166 37.6732 139.91 37.4601L139.398 38.0743C139.652 38.2862 139.905 38.499 140.158 38.7128L140.674 38.1021ZM139.143 36.8236C138.885 36.6116 138.628 36.4006 138.369 36.1906L137.865 36.8114C138.122 37.0203 138.378 37.2302 138.634 37.4411L139.143 36.8236ZM137.593 35.5635C137.333 35.3554 137.073 35.1484 136.813 34.9423L136.317 35.5694C136.575 35.7745 136.834 35.9805 137.092 36.1875L137.593 35.5635ZM136.028 34.3243C135.766 34.1191 135.503 33.9149 135.239 33.7116L134.75 34.3449C135.012 34.5471 135.274 34.7503 135.535 34.9545L136.028 34.3243ZM134.448 33.1048C134.184 32.9029 133.919 32.7021 133.653 32.5022L133.172 33.1413C133.436 33.3402 133.7 33.5401 133.963 33.741L134.448 33.1048ZM132.853 31.9034C132.586 31.7048 132.319 31.5072 132.051 31.3106L131.577 31.9553C131.844 32.151 132.11 32.3477 132.376 32.5454L132.853 31.9034ZM131.246 30.7232C130.976 30.5271 130.706 30.332 130.435 30.1379L129.969 30.788C130.238 30.9812 130.508 31.1754 130.777 31.3706L131.246 30.7232ZM129.623 29.5587C129.352 29.3667 129.081 29.1756 128.809 28.9855L128.35 29.6408C128.62 29.83 128.89 30.0202 129.16 30.2114L129.623 29.5587ZM127.988 28.4141C127.714 28.2244 127.44 28.0357 127.166 27.8481L126.714 28.5084C126.987 28.6952 127.26 28.883 127.533 29.0719L127.988 28.4141ZM126.343 27.2882C126.067 27.1014 125.79 26.9157 125.514 26.731L125.069 27.396C125.344 27.5799 125.62 27.7649 125.895 27.9508L126.343 27.2882ZM124.682 26.1777C124.404 25.9944 124.127 25.812 123.849 25.6307L123.412 26.3004C123.688 26.481 123.964 26.6625 124.241 26.8451L124.682 26.1777ZM123.014 25.0875C122.733 24.9062 122.452 24.726 122.172 24.5468L121.741 25.2209C122.021 25.3994 122.3 25.5789 122.579 25.7595L123.014 25.0875ZM121.331 24.0123C121.05 23.8348 120.769 23.6583 120.489 23.4829L120.065 24.1613C120.344 24.336 120.624 24.5118 120.904 24.6886L121.331 24.0123ZM119.638 22.9543C119.355 22.7792 119.072 22.6051 118.789 22.4321L118.371 23.1147C118.653 23.287 118.935 23.4603 119.218 23.6348L119.638 22.9543ZM117.94 21.9161C117.654 21.7428 117.367 21.5705 117.081 21.3994L116.671 22.0859C116.955 22.2564 117.241 22.428 117.526 22.6006L117.94 21.9161ZM116.224 20.8893C115.939 20.7204 115.654 20.5526 115.369 20.3858L114.965 21.0762C115.248 21.2423 115.532 21.4095 115.817 21.5778L116.224 20.8893ZM114.503 19.8813C114.214 19.7141 113.926 19.548 113.638 19.3831L113.24 20.0772C113.527 20.2415 113.814 20.4069 114.102 20.5735L114.503 19.8813ZM112.776 18.8917C112.485 18.7263 112.194 18.5622 111.903 18.3992L111.512 19.0968C111.801 19.2593 112.091 19.4228 112.381 19.5876L112.776 18.8917ZM111.032 17.9128C110.742 17.7518 110.452 17.592 110.164 17.4333L109.778 18.1345C110.066 18.2925 110.354 18.4518 110.643 18.6122L111.032 17.9128ZM109.284 16.9524C108.99 16.7929 108.698 16.6347 108.406 16.4777L108.027 17.1822C108.318 17.3387 108.609 17.4963 108.901 17.6552L109.284 16.9524ZM107.533 16.0103C107.236 15.8524 106.94 15.6957 106.645 15.5403L106.272 16.2481C106.566 16.4029 106.861 16.5591 107.157 16.7164L107.533 16.0103ZM105.762 15.0774C105.468 14.9241 105.175 14.772 104.882 14.6211L104.515 15.3321C104.807 15.4824 105.099 15.634 105.392 15.7868L105.762 15.0774ZM103.988 14.1624C103.691 14.0108 103.396 13.8605 103.101 13.7116L102.74 14.4256C103.034 14.5741 103.329 14.7238 103.625 14.8749L103.988 14.1624ZM102.213 13.2652C101.912 13.1149 101.613 12.966 101.315 12.8184L100.96 13.5355C101.257 13.6825 101.555 13.8309 101.855 13.9807L102.213 13.2652ZM100.424 12.38C100.123 12.2328 99.8238 12.087 99.5259 11.9427L99.1771 12.6626C99.474 12.8065 99.7723 12.9518 100.072 13.0985L100.424 12.38ZM98.6248 11.5084C98.3259 11.3651 98.0285 11.2233 97.7326 11.0829L97.3897 11.8057C97.6846 11.9456 97.981 12.0869 98.279 12.2298L98.6248 11.5084ZM96.8229 10.6536C96.5205 10.5117 96.2198 10.3714 95.9209 10.2325L95.584 10.9581C95.8819 11.0965 96.1816 11.2364 96.483 11.3778L96.8229 10.6536ZM95.0182 9.81555C94.7121 9.67492 94.4079 9.53596 94.1058 9.39867L93.7748 10.127C94.0759 10.2638 94.3791 10.4023 94.6842 10.5425L95.0182 9.81555ZM93.2057 8.99179C92.8972 8.85308 92.591 8.71615 92.287 8.581L91.962 9.31199C92.2649 9.44669 92.5702 9.58318 92.8777 9.72144L93.2057 8.99179ZM91.3781 8.17902C91.0707 8.04386 90.766 7.91058 90.4638 7.77917L90.1448 8.51279C90.4459 8.64376 90.7497 8.77661 91.056 8.91133L91.3781 8.17902ZM89.5461 7.38225C89.2395 7.25043 88.9359 7.1206 88.6352 6.99276L88.3222 7.72897C88.6218 7.85639 88.9245 7.98579 89.23 8.11718L89.5461 7.38225ZM87.7091 6.60126C87.4027 6.47247 87.0996 6.34583 86.7999 6.22134L86.493 6.96012C86.7916 7.0842 87.0937 7.21041 87.3992 7.33877L87.7091 6.60126ZM85.8665 5.83589C85.5591 5.70973 85.2557 5.58594 84.9563 5.46451L84.6556 6.20586C84.954 6.32687 85.2564 6.45024 85.5627 6.57597L85.8665 5.83589ZM84.0176 5.08619C83.7079 4.96215 83.403 4.8408 83.1029 4.72212L82.8087 5.46604C83.1077 5.58431 83.4116 5.70524 83.7202 5.82884L84.0176 5.08619ZM82.1626 4.35266C81.8488 4.23017 81.5409 4.11081 81.2391 3.99458L80.9516 4.74112C81.2523 4.85692 81.559 4.97585 81.8717 5.0979L82.1626 4.35266ZM80.3038 3.6368C79.9838 3.51526 79.6715 3.39755 79.3673 3.28367L79.0868 4.03289C79.3899 4.14634 79.7009 4.26359 80.0197 4.38467L80.3038 3.6368ZM78.4462 2.94142C78.119 2.82073 77.8024 2.70498 77.497 2.59416L77.2241 3.34619C77.5283 3.45654 77.8435 3.5718 78.1694 3.692L78.4462 2.94142ZM76.5541 2.25498C76.2252 2.13768 75.912 2.02709 75.6151 1.92319L75.3508 2.67829C75.6462 2.78167 75.958 2.89173 76.2854 3.0085L76.5541 2.25498ZM74.6734 1.59705C74.3258 1.47795 74.0087 1.37082 73.7236 1.2756L73.4701 2.0344C73.7533 2.12897 74.0684 2.23544 74.4141 2.35387L74.6734 1.59705ZM73.2713 1.12565L72.934 1.01102L72.6766 1.76848L73.0139 1.88311L73.2713 1.12565ZM72.585 0.892607L72.1352 0.755048L71.9012 1.52007L72.351 1.65763L72.585 0.892607ZM71.4464 0.619076L71.0528 0.745171L71.297 1.50702L71.6905 1.38092L71.4464 0.619076ZM70.2658 0.997361L69.8722 1.12346L70.1163 1.88531L70.5099 1.75921L70.2658 0.997361ZM69.8692 1.12442C69.7278 1.17096 69.5758 1.22134 69.4133 1.27559L69.6668 2.03439C69.8281 1.98051 69.979 1.9305 70.1193 1.88434L69.8692 1.12442ZM68.4635 1.59704C68.171 1.69727 67.8568 1.80597 67.5219 1.92318L67.7861 2.67828C68.1194 2.56165 68.4319 2.45352 68.7228 2.35386L68.4635 1.59704ZM66.5828 2.25497C66.2815 2.36239 65.9671 2.47544 65.6399 2.59415L65.9128 3.34618C66.2386 3.22798 66.5516 3.11543 66.8515 3.00849L66.5828 2.25497ZM64.6907 2.94141C64.3925 3.05139 64.0854 3.16547 63.7696 3.28366L64.0501 4.03289C64.3646 3.91515 64.6705 3.80153 64.9675 3.692L64.6907 2.94141ZM62.8331 3.63679C62.5283 3.75257 62.2165 3.87183 61.8978 3.99457L62.1853 4.74111C62.5028 4.61882 62.8135 4.50001 63.1172 4.38467L62.8331 3.63679ZM60.9743 4.35265C60.6665 4.47279 60.353 4.59594 60.034 4.72211L60.3283 5.46603C60.6461 5.34031 60.9585 5.2176 61.2652 5.09789L60.9743 4.35265ZM59.1193 5.08618C58.8111 5.20963 58.4981 5.33574 58.1806 5.4645L58.4813 6.20585C58.7977 6.07753 59.1096 5.95186 59.4167 5.82883L59.1193 5.08618ZM57.2704 5.83588C56.9632 5.96199 56.652 6.09048 56.337 6.22133L56.6439 6.96012C56.9578 6.8297 57.268 6.70165 57.5742 6.57597L57.2704 5.83588ZM55.4278 6.60125C55.1224 6.72961 54.8136 6.86011 54.5017 6.99275L54.8147 7.72897C55.1256 7.59676 55.4334 7.4667 55.7378 7.33877L55.4278 6.60125ZM53.5909 7.38225C53.2877 7.5126 52.9818 7.6449 52.6731 7.77916L52.9922 8.51278C53.2998 8.37896 53.6048 8.24709 53.9069 8.11717L53.5909 7.38225ZM51.7589 8.17901C51.4583 8.31121 51.1553 8.4452 50.8499 8.58099L51.1749 9.31198C51.4793 9.17663 51.7813 9.04308 52.0809 8.91132L51.7589 8.17901ZM49.9312 8.99178C49.6332 9.12574 49.3332 9.26137 49.0311 9.39866L49.3621 10.127C49.6632 9.99013 49.9622 9.85495 50.2592 9.72143L49.9312 8.99178ZM48.1188 9.81554C47.8197 9.95295 47.5187 10.0919 47.216 10.2325L47.5529 10.9581C47.8547 10.818 48.1547 10.6794 48.4527 10.5425L48.1188 9.81554ZM46.314 10.6536C46.0125 10.7952 45.7092 10.9382 45.4044 11.0829L45.7472 11.8057C46.0511 11.6615 46.3533 11.5189 46.6539 11.3778L46.314 10.6536ZM44.5121 11.5084C44.2132 11.6517 43.9128 11.7964 43.611 11.9427L43.9598 12.6626C44.2606 12.5169 44.56 12.3726 44.858 12.2298L44.5121 11.5084ZM42.7131 12.38C42.4175 12.5248 42.1205 12.6709 41.8224 12.8184L42.1771 13.5355C42.4743 13.3884 42.7703 13.2428 43.0649 13.0985L42.7131 12.38ZM40.9242 13.2652C40.6293 13.4126 40.3332 13.5614 40.0361 13.7116L40.3969 14.4256C40.693 14.276 40.988 14.1277 41.2819 13.9807L40.9242 13.2652ZM39.1485 14.1624C38.8516 14.314 38.5536 14.4669 38.2547 14.6211L38.6215 15.3321C38.9194 15.1784 39.2164 15.026 39.5123 14.8749L39.1485 14.1624ZM37.375 15.0774C37.0815 15.2304 36.7871 15.3847 36.4918 15.5403L36.8647 16.248C37.1589 16.093 37.4523 15.9393 37.7448 15.7868L37.375 15.0774ZM35.6044 16.0103C35.314 16.1649 35.0229 16.3207 34.731 16.4777L35.1101 17.1822C35.4009 17.0257 35.691 16.8705 35.9803 16.7164L35.6044 16.0103ZM33.8533 16.9524C33.5607 17.1115 33.2673 17.2718 32.9733 17.4333L33.3586 18.1345C33.6515 17.9735 33.9438 17.8138 34.2355 17.6552L33.8533 16.9524ZM32.1054 17.9127C31.8154 18.0737 31.5249 18.2359 31.2339 18.3992L31.6254 19.0968C31.9154 18.9341 32.2048 18.7726 32.4937 18.6122L32.1054 17.9127ZM30.3609 18.8917C30.074 19.0543 29.7867 19.2181 29.499 19.3831L29.8968 20.0772C30.1835 19.9128 30.4697 19.7496 30.7555 19.5875L30.3609 18.8917ZM28.6344 19.8813C28.346 20.0483 28.0572 20.2165 27.7681 20.3858L28.1723 21.0762C28.4604 20.9075 28.7481 20.7399 29.0354 20.5735L28.6344 19.8813ZM26.9128 20.8893C26.6274 21.0582 26.3417 21.2283 26.0557 21.3994L26.4664 22.0859C26.7513 21.9154 27.036 21.746 27.3203 21.5778L26.9128 20.8893ZM25.1967 21.9161C24.9141 22.087 24.6312 22.259 24.3481 22.4321L24.7654 23.1147C25.0474 22.9422 25.3292 22.7709 25.6107 22.6006L25.1967 21.9161ZM23.4988 22.9543C23.2155 23.1294 22.932 23.3056 22.6483 23.4829L23.0723 24.1613C23.3549 23.9847 23.6372 23.8092 23.9194 23.6348L23.4988 22.9543ZM21.8059 24.0123C21.5256 24.1894 21.2453 24.3676 20.9648 24.5468L21.3956 25.2209C21.6749 25.0424 21.9541 24.865 22.2332 24.6886L21.8059 24.0123ZM20.1233 25.0875C19.8447 25.2675 19.5661 25.4486 19.2875 25.6307L19.7251 26.3004C20.0026 26.119 20.2801 25.9387 20.5575 25.7594L20.1233 25.0875ZM18.4551 26.1777C18.1777 26.3611 17.9003 26.5455 17.6229 26.7309L18.0675 27.396C18.3437 27.2114 18.62 27.0277 18.8963 26.8451L18.4551 26.1777ZM16.7942 27.2881C16.5197 27.4738 16.2453 27.6604 15.971 27.8481L16.4227 28.5083C16.6958 28.3215 16.9691 28.1357 17.2424 27.9508L16.7942 27.2881ZM15.1485 28.4141C14.8747 28.6036 14.6011 28.794 14.3277 28.9855L14.7866 29.6408C15.0588 29.4502 15.3312 29.2605 15.6038 29.0719L15.1485 28.4141ZM13.5141 29.5587C13.243 29.7508 12.9722 29.9438 12.7016 30.1379L13.1678 30.788C13.4372 30.5948 13.7068 30.4026 13.9766 30.2114L13.5141 29.5587ZM11.8904 30.7231C11.622 30.918 11.3538 31.1138 11.0859 31.3106L11.5596 31.9553C11.8262 31.7594 12.0932 31.5645 12.3604 31.3706L11.8904 30.7231ZM10.284 31.9034C10.017 32.102 9.75023 32.3016 9.48385 32.5022L9.96506 33.1413C10.2302 32.9416 10.4956 32.743 10.7614 32.5453L10.284 31.9034ZM8.68846 33.1048C8.42445 33.3061 8.1608 33.5084 7.89753 33.7116L8.38641 34.3448C8.64839 34.1426 8.91076 33.9413 9.1735 33.741L8.68846 33.1048ZM7.10892 34.3243C6.84674 34.5293 6.58499 34.7353 6.32367 34.9422L6.82036 35.5694C7.08036 35.3635 7.34081 35.1585 7.60169 34.9545L7.10892 34.3243ZM5.5443 35.5635C5.28497 35.7716 5.02611 35.9806 4.76774 36.1906L5.27235 36.8114C5.52939 36.6025 5.78692 36.3945 6.04494 36.1875L5.5443 35.5635ZM3.99414 36.8236C3.73774 37.0348 3.48185 37.247 3.22651 37.4601L3.73918 38.0743C3.99316 37.8623 4.2477 37.6512 4.50277 37.4411L3.99414 36.8236ZM2.46261 38.1021C2.20854 38.3171 1.95504 38.533 1.70214 38.75L2.22298 39.3572C2.47451 39.1414 2.72663 38.9267 2.97934 38.7128L2.46261 38.1021ZM1.32342 39.0759L1.03107 39.3281L1.55362 39.9339L1.84597 39.6817L1.32342 39.0759ZM0.605861 39.9514L0.673326 40.3411L1.4616 40.2047L1.39414 39.8149L0.605861 39.9514ZM0.746436 40.7579C0.745191 40.7528 0.744416 40.7492 0.744277 40.7485C0.744033 40.7474 0.743936 40.7469 0.744025 40.7473C0.744208 40.7483 0.744639 40.7505 0.745398 40.7545C0.7469 40.7625 0.749034 40.7741 0.751931 40.7901L1.53909 40.6473C1.53499 40.6248 1.52847 40.588 1.52342 40.5674L0.746436 40.7579ZM0.761998 40.8458C0.780046 40.946 0.809942 41.1118 0.852594 41.3392L1.63888 41.1917C1.59676 40.9671 1.56726 40.8035 1.54931 40.7039L0.761998 40.8458ZM1.04374 42.322C1.10271 42.6157 1.17091 42.9476 1.24887 43.3158L2.03151 43.1501C1.95416 42.7847 1.88652 42.4556 1.82808 42.1645L1.04374 42.322ZM1.46042 44.2926C1.52893 44.6022 1.60282 44.93 1.6823 45.2754L2.46192 45.096C2.38295 44.7528 2.30956 44.4272 2.24153 44.1197L1.46042 44.2926ZM1.91233 46.257C1.98734 46.5715 2.06638 46.8978 2.14958 47.2353L2.92633 47.0439C2.84362 46.7083 2.76506 46.384 2.69051 46.0714L1.91233 46.257ZM2.3937 48.2105C2.474 48.5264 2.55761 48.8508 2.64463 49.1834L3.41857 48.9809C3.33204 48.6501 3.24889 48.3276 3.16905 48.0134L2.3937 48.2105ZM2.90243 50.1549C2.98778 50.4722 3.07603 50.796 3.16723 51.1262L3.93834 50.9131C3.84763 50.5847 3.75985 50.2627 3.67497 49.9471L2.90243 50.1549ZM3.43915 52.0978C3.52909 52.4152 3.62162 52.7377 3.71681 53.0654L4.48504 52.8422C4.39035 52.5163 4.2983 52.1954 4.20883 51.8797L3.43915 52.0978ZM3.99936 54.0264C4.0936 54.3431 4.19023 54.6642 4.28928 54.9895L5.05459 54.7565C4.95604 54.4328 4.8599 54.1134 4.76614 53.7982L3.99936 54.0264ZM4.58672 55.9551C4.68486 56.2701 4.7852 56.5887 4.88777 56.9108L5.65004 56.668C5.54799 56.3475 5.44816 56.0306 5.35051 55.7171L4.58672 55.9551ZM5.19566 57.867C5.29879 58.1838 5.40402 58.5037 5.5114 58.8267L6.27053 58.5742C6.1637 58.2529 6.05899 57.9346 5.95638 57.6194L5.19566 57.867ZM5.83044 59.7762C5.93721 60.0907 6.04596 60.4078 6.15674 60.7274L6.91263 60.4655C6.80241 60.1474 6.6942 59.8319 6.58797 59.519L5.83044 59.7762ZM6.4902 61.6799C6.60059 61.992 6.71288 62.3064 6.82708 62.623L7.5796 62.3515C7.46598 62.0365 7.35426 61.7237 7.24442 61.4131L6.4902 61.6799ZM7.17237 63.5706C7.28707 63.8823 7.40359 64.196 7.52197 64.5115L8.27099 64.2305C8.15321 63.9166 8.03727 63.6045 7.92316 63.2944L7.17237 63.5706ZM7.87822 65.4519C7.9974 65.7635 8.11837 66.0768 8.24115 66.3917L8.98651 66.1012C8.86436 65.7878 8.744 65.4761 8.62543 65.1661L7.87822 65.4519ZM8.60853 67.3252C8.73209 67.6363 8.85741 67.9488 8.98451 68.2628L9.72605 67.9626C9.59962 67.6502 9.47494 67.3393 9.35201 67.0299L8.60853 67.3252ZM9.36321 69.1896C9.49073 69.4989 9.61996 69.8094 9.75091 70.1211L10.4885 69.8113C10.3582 69.5012 10.2297 69.1923 10.1028 68.8847L9.36321 69.1896ZM10.1423 71.0444C10.2738 71.3517 10.4069 71.6601 10.5417 71.9695L11.2751 71.65C11.141 71.3422 11.0086 71.0354 10.8778 70.7297L10.1423 71.0444ZM10.9459 72.8888C11.0814 73.1942 11.2185 73.5005 11.3573 73.8077L12.0863 73.4783C11.9483 73.1728 11.8119 72.8681 11.6772 72.5643L10.9459 72.8888ZM11.7741 74.7222C11.9137 75.0257 12.0549 75.33 12.1977 75.635L12.9222 75.2958C12.7802 74.9924 12.6398 74.6898 12.501 74.388L11.7741 74.7222ZM12.6273 76.5442C12.771 76.8458 12.9163 77.148 13.0633 77.4509L13.783 77.1016C13.6369 76.8005 13.4924 76.4999 13.3494 76.2L12.6273 76.5442ZM13.5055 78.3542C13.58 78.5051 13.6549 78.6561 13.7302 78.8072L14.4462 78.4504C14.3714 78.3001 14.2969 78.15 14.2228 78L13.5055 78.3542ZM13.7304 78.8077C13.8059 78.9587 13.8816 79.1094 13.9575 79.2599L14.6718 78.8996C14.5963 78.7499 14.5211 78.6 14.446 78.4499L13.7304 78.8077ZM14.4159 80.1607C14.57 80.4608 14.725 80.7599 14.8807 81.058L15.5898 80.6876C15.4349 80.3912 15.2809 80.0938 15.1276 79.7953L14.4159 80.1607ZM15.3522 81.9525C15.5107 82.2506 15.67 82.5476 15.8301 82.8436L16.5337 82.4629C16.3745 82.1686 16.2161 81.8733 16.0585 81.5769L15.3522 81.9525ZM16.3146 83.731C16.4774 84.0267 16.641 84.3213 16.8055 84.6148L17.5034 84.2237C17.3399 83.9319 17.1772 83.6391 17.0154 83.3452L16.3146 83.731ZM17.3029 85.4948C17.4701 85.7879 17.638 86.08 17.8069 86.371L18.4988 85.9695C18.331 85.6803 18.164 85.3899 17.9979 85.0985L17.3029 85.4948ZM18.3177 87.2437C18.4893 87.5345 18.6618 87.8241 18.8352 88.1126L19.5209 87.7006C19.3486 87.4139 19.1772 87.126 19.0066 86.837L18.3177 87.2437ZM19.3593 88.9774C19.5353 89.2654 19.7122 89.5523 19.89 89.8381L20.5693 89.4155C20.3926 89.1315 20.2168 88.8464 20.0418 88.5601L19.3593 88.9774ZM20.4274 90.6945C20.6079 90.9797 20.7893 91.2637 20.9715 91.5466L21.644 91.1134C21.463 90.8323 21.2827 90.55 21.1033 90.2666L20.4274 90.6945ZM21.5223 92.3944C21.7074 92.6768 21.8934 92.9581 22.0802 93.2382L22.7457 92.7943C22.5601 92.516 22.3754 92.2365 22.1914 91.9559L21.5223 92.3944ZM22.6448 94.0773C22.8344 94.3567 23.0249 94.6348 23.2162 94.9118L23.8744 94.4571C23.6844 94.182 23.4951 93.9056 23.3067 93.628L22.6448 94.0773ZM23.7944 95.7416C23.9885 96.0177 24.1835 96.2927 24.3793 96.5665L25.03 96.101C24.8354 95.829 24.6417 95.5559 24.4488 95.2815L23.7944 95.7416ZM24.9711 97.3864C25.1698 97.6593 25.3694 97.931 25.5698 98.2014L26.2125 97.7251C26.0135 97.4565 25.8152 97.1866 25.6179 96.9156L24.9711 97.3864ZM26.1755 99.0115C26.3789 99.2811 26.5831 99.5495 26.7881 99.8166L27.4227 99.3293C27.219 99.0641 27.0162 98.7976 26.8142 98.5298L26.1755 99.0115ZM27.4077 100.616C27.6156 100.882 27.8244 101.147 28.0341 101.411L28.6601 100.912C28.4519 100.651 28.2445 100.388 28.038 100.124L27.4077 100.616ZM28.6674 102.199C28.8799 102.462 29.0933 102.723 29.3076 102.982L29.9247 102.473C29.712 102.215 29.5001 101.956 29.289 101.696L28.6674 102.199ZM29.9547 103.76C30.1719 104.018 30.3899 104.276 30.6088 104.531L31.2167 104.011C30.9994 103.757 30.7829 103.502 30.5673 103.245L29.9547 103.76ZM31.2697 105.297C31.4915 105.552 31.7142 105.805 31.9378 106.057L32.5362 105.526C32.3142 105.276 32.0932 105.024 31.8729 104.772L31.2697 105.297ZM32.6128 106.811C32.8392 107.061 33.0665 107.31 33.2947 107.558L33.8832 107.016C33.6567 106.77 33.4311 106.523 33.2063 106.274L32.6128 106.811ZM33.9835 108.299C34.2146 108.546 34.4465 108.791 34.6792 109.034L35.2575 108.481C35.0265 108.24 34.7963 107.997 34.567 107.752L33.9835 108.299ZM35.0298 109.399C35.1461 109.519 35.2625 109.639 35.3792 109.758L35.9513 109.199C35.8356 109.081 35.72 108.962 35.6046 108.843L35.0298 109.399ZM36.0825 110.471C36.3185 110.707 36.5553 110.943 36.7931 111.176L37.3539 110.606C37.1181 110.374 36.8831 110.141 36.649 109.906L36.0825 110.471ZM37.5108 111.875C37.7514 112.107 37.9929 112.337 38.2353 112.566L38.7846 111.985C38.5442 111.757 38.3046 111.529 38.0659 111.299L37.5108 111.875ZM38.9666 113.25C39.2119 113.477 39.4581 113.702 39.7052 113.926L40.2425 113.334C39.9975 113.112 39.7533 112.888 39.51 112.663L38.9666 113.25ZM40.4507 114.595C40.7006 114.817 40.9513 115.038 41.2029 115.256L41.7279 114.653C41.4784 114.436 41.2297 114.217 40.9819 113.997L40.4507 114.595ZM41.9618 115.91C42.2162 116.126 42.4715 116.341 42.7277 116.555L43.24 115.941C42.986 115.729 42.7328 115.515 42.4805 115.301L41.9618 115.91ZM43.5003 117.193C43.7592 117.404 44.0189 117.614 44.2795 117.822L44.7788 117.197C44.5204 116.99 44.2629 116.782 44.0062 116.573L43.5003 117.193ZM45.0651 118.443C45.3284 118.649 45.5925 118.853 45.8575 119.055L46.3435 118.42C46.0808 118.219 45.8189 118.017 45.5579 117.813L45.0651 118.443ZM46.6565 119.66C46.924 119.86 47.1925 120.058 47.4618 120.255L47.9341 119.61C47.6671 119.414 47.4009 119.218 47.1357 119.019L46.6565 119.66ZM48.2733 120.842C48.545 121.037 48.8176 121.229 49.0911 121.421L49.5494 120.765C49.2783 120.575 49.008 120.384 48.7386 120.192L48.2733 120.842ZM49.9153 121.99C50.1912 122.179 50.468 122.365 50.7456 122.551L51.1896 121.885C50.9144 121.701 50.64 121.516 50.3665 121.329L49.9153 121.99ZM51.5818 123.102C51.8617 123.284 52.1424 123.465 52.424 123.644L52.8534 122.969C52.5742 122.792 52.296 122.612 52.0185 122.432L51.5818 123.102ZM53.2722 124.177C53.556 124.353 53.8407 124.528 54.1262 124.701L54.5407 124.017C54.2577 123.845 53.9755 123.672 53.6942 123.498L53.2722 124.177ZM54.9857 125.215C55.2733 125.385 55.5617 125.553 55.8509 125.72L56.2503 125.027C55.9636 124.862 55.6777 124.695 55.3927 124.527L54.9857 125.215ZM56.7217 126.215C57.0129 126.379 57.305 126.541 57.5979 126.701L57.9819 125.999C57.6916 125.84 57.4021 125.68 57.1134 125.518L56.7217 126.215ZM58.4793 127.177C58.774 127.334 59.0696 127.49 59.366 127.643L59.7344 126.933C59.4406 126.781 59.1477 126.627 58.8555 126.471L58.4793 127.177ZM60.2577 128.1C60.5559 128.25 60.8548 128.399 61.1545 128.546L61.5071 127.828C61.21 127.682 60.9137 127.535 60.6183 127.386L60.2577 128.1ZM62.0562 128.983C62.3575 129.127 62.6596 129.269 62.9626 129.409L63.2992 128.684C62.9989 128.544 62.6995 128.403 62.4008 128.261L62.0562 128.983ZM63.8737 129.826C64.1781 129.963 64.4833 130.098 64.7893 130.232L65.1098 129.499C64.8065 129.367 64.504 129.232 64.2023 129.096L63.8737 129.826ZM65.7094 130.629C66.0167 130.759 66.3248 130.888 66.6337 131.015L66.938 130.275C66.6318 130.149 66.3264 130.021 66.0217 129.892L65.7094 130.629ZM67.5624 131.39C67.8725 131.514 68.1834 131.636 68.495 131.756L68.7829 131.01C68.474 130.891 68.1658 130.77 67.8584 130.647L67.5624 131.39ZM69.4315 132.111C69.588 132.17 69.7446 132.228 69.9015 132.285L70.177 131.534C70.0216 131.477 69.8663 131.42 69.7112 131.362L69.4315 132.111ZM69.9038 132.286L70.2861 132.424L70.557 131.671L70.1747 131.533L69.9038 132.286ZM70.6684 132.561L71.0507 132.699L71.3216 131.946L70.9393 131.808L70.6684 132.561ZM71.7159 132.832L72.1207 132.671L71.8258 131.928L71.421 132.088L71.7159 132.832ZM72.5135 132.515L72.8958 132.378L72.6249 131.625L72.2426 131.763L72.5135 132.515ZM73.2804 132.239C73.4372 132.182 73.5939 132.124 73.7503 132.066L73.4706 131.316C73.3156 131.374 73.1603 131.431 73.0049 131.488L73.2804 132.239ZM74.6868 131.71C74.9984 131.59 75.3093 131.468 75.6193 131.345L75.3231 130.601C75.0158 130.724 74.7077 130.845 74.3988 130.964L74.6868 131.71ZM76.5479 130.969C76.8567 130.841 77.1648 130.713 77.4721 130.582L77.1596 129.846C76.855 129.975 76.5496 130.103 76.2435 130.229L76.5479 130.969ZM78.392 130.186C78.6979 130.052 79.0031 129.916 79.3074 129.779L78.9786 129.05C78.6769 129.186 78.3745 129.32 78.0713 129.453L78.392 130.186ZM80.2183 129.362C80.5212 129.222 80.8233 129.079 81.1245 128.935L80.7796 128.214C80.481 128.356 80.1816 128.497 79.8814 128.637L80.2183 129.362ZM82.0259 128.498C82.3256 128.351 82.6244 128.202 82.9224 128.051L82.5615 127.338C82.2662 127.487 81.97 127.634 81.673 127.78L82.0259 128.498ZM83.8139 127.595C84.1102 127.441 84.4056 127.285 84.7003 127.128L84.3236 126.422C84.0316 126.578 83.7388 126.732 83.4451 126.885L83.8139 127.595ZM85.5814 126.651C85.8741 126.491 86.1661 126.329 86.4572 126.165L86.065 125.468C85.7765 125.63 85.4871 125.791 85.1969 125.95L85.5814 126.651ZM87.3276 125.669C87.6167 125.503 87.905 125.334 88.1924 125.164L87.785 124.476C87.5001 124.644 87.2143 124.811 86.9278 124.976L87.3276 125.669ZM89.0516 124.649C89.3369 124.476 89.6215 124.301 89.9051 124.125L89.4827 123.446C89.2015 123.62 88.9195 123.794 88.6366 123.965L89.0516 124.649ZM90.753 123.591C91.0344 123.412 91.315 123.231 91.5947 123.049L91.1576 122.379C90.8803 122.56 90.6021 122.739 90.3232 122.917L90.753 123.591ZM92.4306 122.497C92.708 122.312 92.9847 122.125 93.2604 121.936L92.8089 121.276C92.5355 121.463 92.2613 121.648 91.9862 121.832L92.4306 122.497ZM94.0843 121.366C94.3577 121.175 94.6302 120.982 94.9018 120.788L94.4362 120.137C94.1669 120.33 93.8967 120.521 93.6257 120.711L94.0843 121.366ZM95.713 120.2C95.9822 120.003 96.2505 119.805 96.518 119.605L96.0386 118.964C95.7734 119.163 95.5074 119.36 95.2405 119.555L95.713 120.2ZM97.3167 119C97.5817 118.797 97.8458 118.593 98.109 118.387L97.6162 117.757C97.3552 117.961 97.0933 118.164 96.8306 118.365L97.3167 119ZM98.8945 117.767C99.1551 117.558 99.4148 117.349 99.6736 117.137L99.1678 116.518C98.9111 116.727 98.6536 116.935 98.3952 117.142L98.8945 117.767ZM100.446 116.5C100.703 116.287 100.958 116.072 101.212 115.855L100.694 115.246C100.441 115.461 100.188 115.674 99.9341 115.886L100.446 116.5ZM101.971 115.202C102.223 114.984 102.474 114.763 102.724 114.542L102.193 113.943C101.945 114.163 101.696 114.381 101.447 114.598L101.971 115.202ZM103.47 113.873C103.717 113.65 103.963 113.424 104.209 113.198L103.666 112.61C103.423 112.835 103.178 113.058 102.933 113.28L103.47 113.873ZM104.941 112.515C105.184 112.286 105.425 112.056 105.666 111.825L105.112 111.248C104.873 111.478 104.633 111.706 104.392 111.933L104.941 112.515ZM106.385 111.127C106.623 110.894 106.86 110.659 107.097 110.423L106.531 109.857C106.297 110.092 106.061 110.325 105.825 110.556L106.385 111.127ZM107.801 109.712C107.918 109.593 108.035 109.474 108.151 109.354L107.578 108.796C107.462 108.915 107.346 109.034 107.23 109.152L107.801 109.712ZM108.152 109.354C108.269 109.233 108.386 109.111 108.503 108.99L107.926 108.436C107.81 108.556 107.694 108.677 107.578 108.797L108.152 109.354ZM109.2 108.257C109.431 108.012 109.662 107.765 109.891 107.517L109.303 106.974C109.076 107.22 108.847 107.465 108.618 107.708L109.2 108.257ZM110.574 106.77C110.8 106.521 111.026 106.27 111.25 106.017L110.653 105.486C110.43 105.736 110.206 105.985 109.982 106.233L110.574 106.77ZM111.919 105.258C112.141 105.004 112.361 104.749 112.581 104.493L111.974 103.972C111.756 104.227 111.537 104.48 111.317 104.732L111.919 105.258ZM113.236 103.722C113.453 103.464 113.668 103.205 113.883 102.944L113.267 102.435C113.053 102.694 112.839 102.951 112.624 103.207L113.236 103.722ZM114.524 102.161C114.736 101.9 114.947 101.637 115.157 101.373L114.531 100.875C114.323 101.137 114.113 101.398 113.902 101.658L114.524 102.161ZM115.784 100.578C115.991 100.313 116.198 100.046 116.403 99.7785L115.769 99.2914C115.565 99.5575 115.359 99.8222 115.154 100.086L115.784 100.578ZM117.016 98.9732C117.219 98.7043 117.42 98.4342 117.621 98.1627L116.978 97.6867C116.779 97.9563 116.578 98.2246 116.377 98.4916L117.016 98.9732ZM118.22 97.3474C118.418 97.0752 118.615 96.8018 118.811 96.5271L118.16 96.062C117.965 96.3348 117.769 96.6065 117.573 96.8769L118.22 97.3474ZM119.396 95.7018C119.589 95.4263 119.782 95.1495 119.973 94.8716L119.315 94.4174C119.124 94.6935 118.933 94.9684 118.741 95.2421L119.396 95.7018ZM120.544 94.0366C120.733 93.758 120.921 93.4781 121.108 93.197L120.442 92.7536C120.256 93.0329 120.07 93.311 119.882 93.5878L120.544 94.0366ZM121.666 92.3528C121.85 92.0712 122.033 91.7885 122.216 91.5045L121.543 91.0718C121.362 91.354 121.179 91.635 120.996 91.9148L121.666 92.3528ZM122.759 90.652C122.939 90.3675 123.118 90.0819 123.296 89.7952L122.617 89.3731C122.44 89.6581 122.262 89.9419 122.083 90.2246L122.759 90.652ZM123.826 88.9341C124.002 88.6468 124.176 88.3584 124.35 88.0689L123.664 87.6574C123.491 87.9451 123.318 88.2318 123.143 88.5173L123.826 88.9341ZM124.867 87.1997C125.038 86.9097 125.208 86.6187 125.377 86.3266L124.685 85.9255C124.517 86.2159 124.348 86.5052 124.178 86.7934L124.867 87.1997ZM125.881 85.4501C126.047 85.1578 126.213 84.8643 126.378 84.5698L125.68 84.1791C125.516 84.4719 125.351 84.7636 125.186 85.0542L125.881 85.4501ZM126.868 83.6858C127.03 83.391 127.192 83.0951 127.352 82.7982L126.649 82.4177C126.489 82.7129 126.329 83.0071 126.167 83.3002L126.868 83.6858ZM127.83 81.9069C127.988 81.6098 128.145 81.3116 128.301 81.0124L127.592 80.642C127.437 80.9395 127.281 81.2361 127.124 81.5315L127.83 81.9069ZM128.766 80.1149C128.92 79.8156 129.072 79.5153 129.224 79.214L128.51 78.8537C128.359 79.1534 128.207 79.452 128.054 79.7496L128.766 80.1149ZM129.451 78.7617C129.527 78.6101 129.602 78.4587 129.677 78.3075L128.96 77.9526C128.886 78.103 128.811 78.2535 128.736 78.4042L129.451 78.7617ZM130.122 77.4016C130.269 77.0982 130.415 76.7953 130.56 76.4932L129.838 76.1484C129.694 76.4489 129.549 76.75 129.402 77.0517L130.122 77.4016ZM130.991 75.5808C131.135 75.2754 131.276 74.9707 131.417 74.6667L130.69 74.3319C130.551 74.6342 130.41 74.9372 130.267 75.241L130.991 75.5808ZM131.836 73.7484C131.975 73.4409 132.113 73.1343 132.248 72.8287L131.517 72.5038C131.382 72.8078 131.245 73.1127 131.107 73.4185L131.836 73.7484ZM132.655 71.9048C132.79 71.5953 132.924 71.2869 133.056 70.9795L132.32 70.6644C132.189 70.9701 132.057 71.277 131.922 71.5848L132.655 71.9048ZM133.45 70.0507C133.581 69.7392 133.71 69.4288 133.838 69.1196L133.099 68.8142C132.972 69.1217 132.843 69.4305 132.713 69.7405L133.45 70.0507ZM134.22 68.1867C134.347 67.8729 134.473 67.5605 134.596 67.2496L133.853 66.9538C133.73 67.2631 133.605 67.5739 133.479 67.8861L134.22 68.1867ZM134.965 66.3133C135.089 65.9972 135.21 65.6827 135.33 65.3699L134.583 65.0838C134.464 65.395 134.343 65.7079 134.22 66.0224L134.965 66.3133ZM135.686 64.4314C135.806 64.1128 135.924 63.7961 136.04 63.4814L135.289 63.2048C135.174 63.5179 135.056 63.833 134.937 64.1501L135.686 64.4314ZM136.384 62.5372C136.5 62.2175 136.613 61.9 136.725 61.5849L135.971 61.3179C135.86 61.6315 135.747 61.9473 135.632 62.2654L136.384 62.5372ZM137.058 60.6332C137.169 60.3135 137.278 59.9963 137.385 59.6818L136.628 59.4243C136.521 59.7373 136.413 60.0529 136.303 60.3709L137.058 60.6332ZM137.708 58.722C137.815 58.4009 137.92 58.0827 138.022 57.7676L137.262 57.5198C137.159 57.8333 137.055 58.1499 136.949 58.4694L137.708 58.722ZM138.332 56.8058C138.436 56.4809 138.537 56.1596 138.636 55.8419L137.872 55.6039C137.774 55.9199 137.673 56.2396 137.57 56.5628L138.332 56.8058ZM138.932 54.8825C139.031 54.5555 139.128 54.2327 139.223 53.9143L138.456 53.6861C138.362 54.0029 138.265 54.324 138.166 54.6493L138.932 54.8825ZM139.508 52.944C139.604 52.6163 139.696 52.2937 139.786 51.9764L139.016 51.7584C138.927 52.074 138.835 52.3949 138.74 52.7209L139.508 52.944ZM140.056 51.0104C140.148 50.6777 140.237 50.3515 140.323 50.032L139.55 49.8244C139.465 50.1422 139.376 50.4666 139.285 50.7975L140.056 51.0104ZM140.582 49.0543C140.669 48.7199 140.753 48.3939 140.833 48.0765L140.058 47.8799C139.978 48.1955 139.895 48.5197 139.808 48.8522L140.582 49.0543ZM141.078 47.0975C141.161 46.7587 141.24 46.4315 141.314 46.1163L140.536 45.9317C140.462 46.2449 140.383 46.57 140.301 46.9067L141.078 47.0975ZM141.544 45.1327C141.623 44.7864 141.696 44.458 141.764 44.1485L140.982 43.9773C140.915 44.2845 140.842 44.6106 140.764 44.9545L141.544 45.1327ZM141.973 43.1686C142.051 42.7963 142.118 42.4625 142.176 42.1694L141.391 42.0157C141.334 42.3056 141.267 42.6362 141.19 43.0053L141.973 43.1686ZM142.361 41.1817C142.388 41.0256 142.409 40.9038 142.422 40.8179C142.429 40.7752 142.434 40.7402 142.438 40.7138C142.439 40.7055 142.447 40.6565 142.447 40.6168H141.647C141.647 40.5913 141.65 40.5718 141.648 40.5835C141.648 40.5861 141.647 40.592 141.646 40.6021C141.643 40.6219 141.639 40.6517 141.632 40.692C141.619 40.7723 141.6 40.8896 141.573 41.0426L142.361 41.1817ZM142.441 40.685L142.509 40.2953L141.72 40.1588L141.653 40.5486L142.441 40.685ZM142.417 39.514L142.102 39.2847L141.632 39.9314L141.946 40.1607L142.417 39.514ZM126.262 77.166C126.187 77.3167 126.111 77.4673 126.035 77.6175L126.749 77.978C126.826 77.8269 126.902 77.6755 126.978 77.5239L126.262 77.166ZM125.577 78.5171C125.423 78.8169 125.268 79.1156 125.113 79.4133L125.822 79.784C125.978 79.4846 126.134 79.1841 126.289 78.8827L125.577 78.5171ZM124.642 80.3061C124.483 80.6037 124.324 80.9002 124.164 81.1957L124.867 81.5768C125.028 81.2796 125.189 80.9813 125.348 80.6819L124.642 80.3061ZM123.68 82.0817C123.517 82.3768 123.354 82.6709 123.189 82.9639L123.887 83.3554C124.052 83.0607 124.217 82.7649 124.38 82.468L123.68 82.0817ZM122.692 83.8423C122.525 84.1349 122.357 84.4264 122.188 84.7167L122.879 85.1188C123.049 84.8267 123.218 84.5334 123.386 84.2391L122.692 83.8423ZM121.677 85.5872C121.506 85.8772 121.333 86.166 121.16 86.4537L121.845 86.8665C122.019 86.577 122.193 86.2864 122.366 85.9946L121.677 85.5872ZM120.635 87.3164C120.459 87.6037 120.282 87.8899 120.104 88.1749L120.783 88.5985C120.962 88.3117 121.14 88.0237 121.317 87.7346L120.635 87.3164ZM119.567 89.0289C119.386 89.3133 119.204 89.5965 119.022 89.8785L119.694 90.313C119.877 90.0292 120.06 89.7442 120.242 89.458L119.567 89.0289ZM118.47 90.7236C118.285 91.0049 118.099 91.285 117.912 91.564L118.576 92.0095C118.764 91.7287 118.952 91.4468 119.138 91.1636L118.47 90.7236ZM117.346 92.3996C117.156 92.6778 116.966 92.9548 116.774 93.2305L117.431 93.6871C117.624 93.4096 117.816 93.1307 118.007 92.8507L117.346 92.3996ZM116.194 94.0567C116 94.3317 115.804 94.6054 115.608 94.8778L116.257 95.3457C116.454 95.0714 116.651 94.7958 116.847 94.5189L116.194 94.0567ZM115.014 95.6938C114.815 95.9653 114.614 96.2355 114.413 96.5044L115.054 96.9836C115.257 96.7128 115.458 96.4407 115.659 96.1673L115.014 95.6938ZM113.805 97.3097C113.601 97.5776 113.396 97.8442 113.191 98.1094L113.822 98.5999C114.03 98.3328 114.236 98.0643 114.442 97.7945L113.805 97.3097ZM112.568 98.9035C112.359 99.1677 112.15 99.4305 111.939 99.6919L112.562 100.194C112.774 99.9305 112.985 99.6658 113.196 99.3998L112.568 98.9035ZM111.303 100.474C111.089 100.735 110.874 100.993 110.659 101.251L111.272 101.764C111.489 101.505 111.706 101.244 111.921 100.982L111.303 100.474ZM110.008 102.021C109.789 102.277 109.57 102.532 109.349 102.786L109.953 103.311C110.175 103.055 110.396 102.799 110.616 102.541L110.008 102.021ZM108.684 103.543C108.46 103.795 108.236 104.046 108.011 104.295L108.604 104.831C108.831 104.581 109.057 104.328 109.282 104.074L108.684 103.543ZM107.331 105.039C107.102 105.287 106.873 105.533 106.643 105.777L107.226 106.326C107.458 106.079 107.689 105.831 107.919 105.582L107.331 105.039ZM105.948 106.508C105.832 106.629 105.715 106.75 105.598 106.871L106.173 107.428C106.291 107.306 106.408 107.185 106.525 107.062L105.948 106.508ZM105.599 106.87C105.482 106.991 105.365 107.11 105.248 107.23L105.818 107.79C105.937 107.67 106.055 107.549 106.172 107.428L105.599 106.87ZM104.541 107.943C104.304 108.179 104.066 108.414 103.827 108.648L104.386 109.22C104.627 108.984 104.867 108.747 105.106 108.509L104.541 107.943ZM103.105 109.347C102.864 109.579 102.621 109.809 102.377 110.038L102.925 110.621C103.17 110.39 103.415 110.158 103.659 109.924L103.105 109.347ZM101.642 110.721C101.395 110.948 101.148 111.173 100.9 111.396L101.435 111.991C101.685 111.765 101.935 111.538 102.183 111.31L101.642 110.721ZM100.15 112.064C99.8988 112.286 99.6467 112.506 99.3937 112.724L99.9164 113.33C100.172 113.11 100.426 112.888 100.679 112.664L100.15 112.064ZM98.6305 113.376C98.3747 113.592 98.1181 113.806 97.8605 114.019L98.3702 114.636C98.6299 114.421 98.8888 114.205 99.1467 113.987L98.6305 113.376ZM97.0833 114.655C96.8229 114.865 96.5616 115.074 96.2994 115.282L96.7957 115.909C97.0601 115.7 97.3237 115.489 97.5863 115.277L97.0833 114.655ZM95.5089 115.9C95.2441 116.105 94.9784 116.308 94.7118 116.509L95.1942 117.147C95.4631 116.944 95.7311 116.739 95.9983 116.533L95.5089 115.9ZM93.9079 117.11C93.6386 117.309 93.3684 117.506 93.0974 117.702L93.5656 118.351C93.8391 118.153 94.1116 117.954 94.3833 117.754L93.9079 117.11ZM92.2804 118.285C92.0069 118.478 91.7324 118.669 91.4571 118.858L91.9108 119.517C92.1886 119.326 92.4654 119.133 92.7414 118.939L92.2804 118.285ZM90.6276 119.423C90.3498 119.61 90.0711 119.795 89.7915 119.978L90.2303 120.647C90.5123 120.462 90.7935 120.275 91.0738 120.087L90.6276 119.423ZM88.9493 120.524C88.6674 120.704 88.3847 120.883 88.101 121.06L88.5246 121.738C88.8107 121.56 89.096 121.379 89.3805 121.197L88.9493 120.524ZM87.2468 121.586C86.961 121.76 86.6743 121.932 86.3867 122.102L86.7946 122.791C87.0848 122.619 87.3742 122.445 87.6626 122.269L87.2468 121.586ZM85.5206 122.609C85.2309 122.777 84.9403 122.942 84.6488 123.106L85.0409 123.803C85.3351 123.638 85.6283 123.471 85.9207 123.302L85.5206 122.609ZM83.7715 123.593C83.478 123.753 83.1837 123.912 82.8886 124.069L83.2646 124.776C83.5625 124.617 83.8594 124.457 84.1555 124.295L83.7715 123.593ZM82.0003 124.536C81.7032 124.69 81.4054 124.842 81.1066 124.992L81.4663 125.707C81.7678 125.555 82.0684 125.402 82.3681 125.246L82.0003 124.536ZM80.2078 125.438C79.9074 125.585 79.6061 125.73 79.3039 125.874L79.647 126.596C79.952 126.452 80.256 126.305 80.5592 126.157L80.2078 125.438ZM78.3951 126.299C78.0914 126.439 77.7868 126.577 77.4814 126.713L77.8077 127.444C78.1159 127.306 78.4233 127.167 78.7298 127.025L78.3951 126.299ZM76.563 127.117C76.2562 127.25 75.9485 127.381 75.64 127.511L75.9495 128.248C76.2608 128.118 76.5713 127.986 76.8809 127.851L76.563 127.117ZM74.7125 127.894C74.4027 128.019 74.0921 128.143 73.7806 128.266L74.0731 129.01C74.3874 128.887 74.7008 128.762 75.0135 128.635L74.7125 127.894ZM72.8447 128.627C72.5321 128.746 72.2188 128.863 71.9046 128.978L72.1799 129.729C72.4969 129.613 72.8132 129.495 73.1285 129.375L72.8447 128.627ZM71.7039 129.149C71.5465 129.092 71.3893 129.035 71.2324 128.978L70.9572 129.729C71.1155 129.787 71.2741 129.845 71.4329 129.902L71.7039 129.149ZM70.2928 128.628C69.9801 128.509 69.6683 128.389 69.3572 128.267L69.0651 129.011C69.3789 129.134 69.6936 129.256 70.0091 129.376L70.2928 128.628ZM68.4257 127.895C68.1158 127.769 67.8067 127.642 67.4985 127.513L67.1895 128.251C67.5005 128.381 67.8124 128.51 68.1251 128.636L68.4257 127.895ZM66.5757 127.12C66.2688 126.988 65.9628 126.854 65.6576 126.717L65.3318 127.448C65.6398 127.585 65.9487 127.721 66.2584 127.855L66.5757 127.12ZM64.744 126.304C64.4402 126.164 64.1373 126.023 63.8352 125.88L63.4929 126.603C63.7977 126.747 64.1034 126.89 64.41 127.031L64.744 126.304ZM62.9314 125.446C62.6309 125.299 62.3313 125.151 62.0326 125.001L61.6738 125.716C61.9753 125.867 62.2776 126.017 62.5808 126.165L62.9314 125.446ZM61.1389 124.546C60.8419 124.393 60.5458 124.238 60.2505 124.081L59.8754 124.788C60.1734 124.946 60.4722 125.102 60.7719 125.257L61.1389 124.546ZM59.3675 123.606C59.0742 123.446 58.7817 123.284 58.49 123.121L58.0989 123.818C58.3932 123.983 58.6883 124.147 58.9844 124.308L59.3675 123.606ZM57.6181 122.625C57.3285 122.459 57.0397 122.29 56.7518 122.12L56.3448 122.809C56.6353 122.98 56.9267 123.15 57.219 123.319L57.6181 122.625ZM55.8914 121.605C55.6057 121.432 55.3209 121.257 55.037 121.08L54.6144 121.76C54.9009 121.938 55.1884 122.114 55.4766 122.289L55.8914 121.605ZM54.1885 120.546C53.9068 120.366 53.6259 120.185 53.346 120.002L52.9082 120.671C53.1906 120.856 53.474 121.039 53.7583 121.22L54.1885 120.546ZM52.5097 119.448C52.2322 119.262 51.9556 119.075 51.6798 118.885L51.2271 119.545C51.5053 119.736 51.7844 119.925 52.0643 120.113L52.5097 119.448ZM50.8563 118.313C50.583 118.121 50.3106 117.927 50.0391 117.732L49.5717 118.381C49.8456 118.578 50.1204 118.774 50.3961 118.968L50.8563 118.313ZM49.2282 117.141C48.9593 116.943 48.6913 116.743 48.4242 116.542L47.9425 117.181C48.212 117.384 48.4824 117.585 48.7537 117.785L49.2282 117.141ZM47.6269 115.934C47.3624 115.73 47.0988 115.524 46.8361 115.317L46.3406 115.945C46.6055 116.154 46.8714 116.361 47.1382 116.567L47.6269 115.934ZM46.0521 114.691C45.7921 114.481 45.533 114.27 45.2747 114.057L44.7656 114.674C45.0261 114.889 45.2874 115.102 45.5497 115.314L46.0521 114.691ZM44.5047 113.414C44.2494 113.199 43.995 112.982 43.7415 112.764L43.2192 113.37C43.4749 113.59 43.7315 113.809 43.989 114.026L44.5047 113.414ZM42.985 112.105C42.7343 111.884 42.4845 111.662 42.2355 111.438L41.7005 112.033C41.9515 112.258 42.2035 112.483 42.4564 112.705L42.985 112.105ZM41.4933 110.763C41.2474 110.537 41.0024 110.31 40.7583 110.081L40.2109 110.664C40.4571 110.895 40.7042 111.124 40.9521 111.352L41.4933 110.763ZM40.0302 109.391C39.7889 109.159 39.5486 108.927 39.3091 108.693L38.7498 109.265C38.9912 109.501 39.2336 109.735 39.4768 109.968L40.0302 109.391ZM38.5953 107.988C38.359 107.752 38.1236 107.514 37.889 107.276L37.3182 107.836C37.5546 108.077 37.792 108.316 38.0302 108.554L38.5953 107.988ZM37.5383 106.917C37.4215 106.796 37.305 106.676 37.1887 106.554L36.6117 107.109C36.7289 107.231 36.8464 107.352 36.964 107.474L37.5383 106.917ZM36.4945 105.824C36.2646 105.58 36.0356 105.335 35.8074 105.087L35.2196 105.63C35.4495 105.879 35.6803 106.127 35.912 106.373L36.4945 105.824ZM35.1275 104.344C34.9024 104.095 34.6782 103.845 34.4549 103.594L33.8567 104.125C34.0817 104.378 34.3077 104.63 34.5345 104.881L35.1275 104.344ZM33.7894 102.837C33.569 102.584 33.3496 102.33 33.1311 102.074L32.5229 102.594C32.7431 102.851 32.9642 103.108 33.1861 103.362L33.7894 102.837ZM32.48 101.305C32.2645 101.048 32.0499 100.789 31.8362 100.53L31.2184 101.038C31.4337 101.3 31.6499 101.56 31.867 101.819L32.48 101.305ZM31.1996 99.7486C30.9889 99.4877 30.7791 99.2254 30.5701 98.9617L29.9431 99.4586C30.1536 99.7241 30.3649 99.9883 30.5772 100.251L31.1996 99.7486ZM29.9478 98.1691C29.7419 97.9043 29.5368 97.6382 29.3326 97.3708L28.6968 97.8563C28.9024 98.1256 29.1089 98.3936 29.3163 98.6603L29.9478 98.1691ZM28.7245 96.5671C28.5233 96.2986 28.3229 96.0289 28.1235 95.7579L27.4792 96.2321C27.68 96.505 27.8818 96.7766 28.0844 97.0469L28.7245 96.5671ZM27.5295 94.9434C27.333 94.6715 27.1374 94.3983 26.9426 94.1238L26.2901 94.5868C26.4862 94.8631 26.6832 95.1382 26.8811 95.412L27.5295 94.9434ZM26.3627 93.2991C26.1709 93.0239 25.98 92.7474 25.79 92.4697L25.1298 92.9215C25.3211 93.2011 25.5133 93.4794 25.7063 93.7564L26.3627 93.2991ZM25.2243 91.6355C25.0372 91.3571 24.851 91.0774 24.6656 90.7966L23.9979 91.2372C24.1845 91.52 24.372 91.8015 24.5603 92.0817L25.2243 91.6355ZM24.1138 89.9529C23.9313 89.6714 23.7496 89.3887 23.5688 89.1047L22.894 89.5344C23.076 89.8202 23.2588 90.1047 23.4425 90.3881L24.1138 89.9529ZM23.0308 88.2521C22.8528 87.9675 22.6758 87.6818 22.4995 87.395L21.8179 87.8137C21.9952 88.1024 22.1734 88.3899 22.3525 88.6762L23.0308 88.2521ZM21.9751 86.5336C21.8018 86.2463 21.6293 85.9579 21.4576 85.6683L20.7694 86.0762C20.9421 86.3676 21.1157 86.6578 21.2901 86.9469L21.9751 86.5336ZM20.947 84.7991C20.7782 84.5092 20.6102 84.2181 20.4431 83.9259L19.7486 84.3231C19.9168 84.6171 20.0858 84.9099 20.2556 85.2017L20.947 84.7991ZM19.9458 83.0487C19.7814 82.7561 19.6179 82.4624 19.4552 82.1677L18.7548 82.5542C18.9184 82.8508 19.083 83.1462 19.2484 83.4406L19.9458 83.0487ZM18.9712 81.2828C18.8112 80.9877 18.652 80.6915 18.4937 80.3943L17.7876 80.7703C17.9468 81.0693 18.1069 81.3673 18.2679 81.6641L18.9712 81.2828ZM18.023 79.5025C17.8675 79.2052 17.7128 78.9068 17.5589 78.6074L16.8474 78.973C17.0021 79.2742 17.1577 79.5743 17.3142 79.8733L18.023 79.5025ZM17.1013 77.7088C17.0255 77.5587 16.95 77.4083 16.8746 77.2577L16.1592 77.6156C16.2349 77.7671 16.3109 77.9183 16.3871 78.0693L17.1013 77.7088ZM16.8746 77.2575C16.8003 77.1092 16.7264 76.9609 16.6529 76.8129L15.9363 77.1685C16.0102 77.3175 16.0845 77.4665 16.1592 77.6158L16.8746 77.2575ZM16.2166 75.9261C16.0714 75.6283 15.9278 75.3311 15.7858 75.0345L15.0643 75.3801C15.2071 75.6783 15.3515 75.9771 15.4975 76.2767L16.2166 75.9261ZM15.3628 74.1431C15.2215 73.8427 15.0819 73.5431 14.9439 73.2444L14.2176 73.5798C14.3564 73.8803 14.4968 74.1815 14.6388 74.4836L15.3628 74.1431ZM14.5333 72.3473C14.3961 72.045 14.2607 71.7436 14.1268 71.4431L13.396 71.7686C13.5306 72.0707 13.6668 72.3738 13.8047 72.6778L14.5333 72.3473ZM13.7278 70.5389C13.5951 70.2354 13.464 69.9329 13.3346 69.6315L12.5995 69.9471C12.7296 70.2501 12.8614 70.5542 12.9948 70.8594L13.7278 70.5389ZM12.947 68.7201C12.8187 68.4157 12.6921 68.1125 12.5672 67.8105L11.828 68.1163C11.9536 68.4199 12.0808 68.7247 12.2098 69.0308L12.947 68.7201ZM12.1908 66.8919C12.0663 66.585 11.9434 66.2794 11.8223 65.9753L11.0791 66.2713C11.2008 66.577 11.3243 66.8842 11.4496 67.1928L12.1908 66.8919ZM11.4594 65.0553C11.3384 64.7456 11.2192 64.4375 11.1018 64.1312L10.3548 64.4174C10.4728 64.7254 10.5926 65.0351 10.7143 65.3465L11.4594 65.0553ZM10.7519 63.2091C10.6348 62.8975 10.5195 62.5877 10.4061 62.2799L9.65544 62.5565C9.76943 62.8659 9.88529 63.1772 10.003 63.4905L10.7519 63.2091ZM10.0669 61.3499C9.95438 61.0383 9.8438 60.729 9.73512 60.4218L8.98095 60.6887C9.0902 60.9974 9.20135 61.3084 9.31444 61.6216L10.0669 61.3499ZM9.40707 59.4853C9.29797 59.1705 9.19089 58.8583 9.08582 58.5487L8.32827 58.8059C8.43389 59.1171 8.54153 59.4309 8.6512 59.7473L9.40707 59.4853ZM8.77178 57.6138C8.66657 57.2971 8.56349 56.9835 8.46253 56.673L7.70174 56.9204C7.80323 57.2325 7.90684 57.5478 8.0126 57.866L8.77178 57.6138ZM8.15899 55.7292C8.05789 55.4113 7.95905 55.0969 7.86244 54.7861L7.09851 55.0236C7.19563 55.336 7.29499 55.6521 7.39662 55.9716L8.15899 55.7292ZM7.57277 53.8436C7.47544 53.5232 7.38055 53.207 7.28807 52.8953L6.5211 53.1227C6.61407 53.4362 6.70946 53.7541 6.80731 54.0761L7.57277 53.8436ZM7.00925 51.9437C6.91591 51.6211 6.82524 51.3037 6.73721 50.9917L5.96726 51.2089C6.05578 51.5227 6.14694 51.8418 6.24078 52.1661L7.00925 51.9437ZM6.47188 50.0389C6.38268 49.7144 6.29648 49.3963 6.21321 49.0848L5.44036 49.2915C5.5241 49.6047 5.61078 49.9246 5.70047 50.2509L6.47188 50.0389ZM5.96121 48.1289C5.876 47.8009 5.79428 47.4814 5.71594 47.1707L4.94021 47.3662C5.01901 47.6788 5.10122 48.0002 5.18692 48.3301L5.96121 48.1289ZM5.47762 46.2102C5.3964 45.8774 5.31948 45.5566 5.24671 45.248L4.46807 45.4316C4.54131 45.7422 4.61872 46.0651 4.70044 46.3999L5.47762 46.2102ZM5.02412 44.2866C4.94692 43.9467 4.87558 43.6256 4.80988 43.324L4.02821 43.4943C4.09441 43.7981 4.16626 44.1216 4.244 44.4638L5.02412 44.2866ZM4.60371 42.3553C4.52779 41.9895 4.46288 41.666 4.40832 41.3871L3.62321 41.5408C3.67834 41.8225 3.74384 42.1491 3.82041 42.5179L4.60371 42.3553ZM4.18323 41.2878C4.30919 41.1802 4.4353 41.0728 4.56156 40.9657L4.04403 40.3557C3.91708 40.4634 3.79027 40.5713 3.66361 40.6795L4.18323 41.2878ZM5.32089 40.326C5.57457 40.1137 5.82883 39.9024 6.08362 39.6921L5.57435 39.0751C5.31819 39.2866 5.06257 39.499 4.80751 39.7124L5.32089 40.326ZM6.84983 39.0639C7.10687 38.8545 7.36443 38.6462 7.62247 38.4388L7.12132 37.8152C6.86194 38.0237 6.60303 38.2331 6.34464 38.4436L6.84983 39.0639ZM8.39803 37.8196C8.65701 37.6142 8.91646 37.4097 9.17634 37.2063L8.68318 36.5764C8.42198 36.7808 8.16121 36.9863 7.90089 37.1928L8.39803 37.8196ZM9.96014 36.5966C10.2224 36.3939 10.485 36.1923 10.748 35.9916L10.2627 35.3556C9.99838 35.5573 9.73446 35.7599 9.47094 35.9636L9.96014 36.5966ZM11.538 35.3926C11.8022 35.1935 12.0667 34.9955 12.3316 34.7984L11.854 34.1566C11.5879 34.3546 11.3221 34.5536 11.0566 34.7536L11.538 35.3926ZM13.1311 34.2072C13.398 34.0111 13.6651 33.816 13.9324 33.6219L13.4625 32.9745C13.1939 33.1695 12.9255 33.3655 12.6574 33.5625L13.1311 34.2072ZM14.7353 33.0427C15.0051 32.8492 15.2752 32.6567 15.5454 32.4653L15.083 31.8125C14.8115 32.0048 14.5402 32.1982 14.2691 32.3926L14.7353 33.0427ZM16.3576 31.8934C16.6285 31.7038 16.8995 31.5152 17.1707 31.3276L16.7156 30.6696C16.4432 30.8581 16.1709 31.0475 15.8988 31.238L16.3576 31.8934ZM17.9889 30.765C18.263 30.5776 18.5372 30.3913 18.8115 30.206L18.3636 29.5431C18.0882 29.7292 17.8128 29.9163 17.5375 30.1045L17.9889 30.765ZM19.6345 29.6532C19.9096 29.4695 20.1847 29.2869 20.4599 29.1052L20.0191 28.4376C19.7428 28.62 19.4665 28.8034 19.1903 28.9879L19.6345 29.6532ZM21.2925 28.5588C21.57 28.3777 21.8475 28.1977 22.125 28.0186L21.6913 27.3464C21.4127 27.5262 21.134 27.707 20.8553 27.8888L21.2925 28.5588ZM22.9573 27.4847C23.2379 27.3057 23.5185 27.1278 23.7989 26.9509L23.3722 26.2742C23.0906 26.4518 22.8088 26.6305 22.527 26.8103L22.9573 27.4847ZM24.6406 26.423C24.921 26.2481 25.2013 26.0743 25.4814 25.9015L25.0614 25.2206C24.7802 25.3941 24.4988 25.5686 24.2173 25.7442L24.6406 26.423ZM26.3295 25.3813C26.6133 25.2083 26.8967 25.0363 27.18 24.8654L26.7667 24.1804C26.4824 24.352 26.1978 24.5246 25.913 24.6984L26.3295 25.3813ZM28.0289 24.3561C28.3139 24.1861 28.5986 24.0171 28.883 23.8493L28.4764 23.1603C28.1909 23.3288 27.9051 23.4984 27.619 23.6691L28.0289 24.3561ZM29.7418 23.3451C30.0278 23.1782 30.3133 23.0124 30.5985 22.8477L30.1984 22.155C29.9122 22.3203 29.6255 22.4867 29.3385 22.6542L29.7418 23.3451ZM31.4583 22.3539C31.7477 22.1885 32.0366 22.0243 32.3251 21.8613L31.9315 21.1648C31.6419 21.3284 31.3519 21.4933 31.0614 21.6592L31.4583 22.3539ZM33.1889 21.3757C33.478 21.214 33.7665 21.0536 34.0544 20.8943L33.6671 20.1943C33.3782 20.3541 33.0886 20.5152 32.7985 20.6774L33.1889 21.3757ZM34.9287 20.4132C35.2196 20.254 35.5097 20.096 35.7992 19.9392L35.4182 19.2358C35.1277 19.3931 34.8365 19.5516 34.5446 19.7114L34.9287 20.4132ZM36.6706 19.4698C36.9651 19.312 37.2589 19.1554 37.5518 19.0001L37.1771 18.2933C36.8831 18.4492 36.5883 18.6063 36.2927 18.7647L36.6706 19.4698ZM38.4283 18.5379C38.7218 18.384 39.0144 18.2313 39.3061 18.0798L38.9375 17.3698C38.6448 17.5218 38.3512 17.675 38.0566 17.8295L38.4283 18.5379ZM40.1935 17.6216C40.4884 17.4702 40.7822 17.3201 41.075 17.1713L40.7126 16.4581C40.4188 16.6074 40.1239 16.7581 39.828 16.91L40.1935 17.6216ZM41.9603 16.7238C42.259 16.5736 42.5565 16.4248 42.8529 16.2773L42.4965 15.5611C42.1992 15.709 41.9006 15.8583 41.6009 16.0091L41.9603 16.7238ZM43.7383 15.8391C44.0376 15.6918 44.3357 15.5458 44.6324 15.4013L44.2821 14.6821C43.9843 14.8271 43.6853 14.9735 43.3849 15.1214L43.7383 15.8391ZM45.5288 14.967C45.8261 14.8237 46.1221 14.6818 46.4165 14.5414L46.0722 13.8193C45.7767 13.9602 45.4798 14.1025 45.1814 14.2463L45.5288 14.967ZM47.3213 14.1123C47.6224 13.9702 47.9219 13.8297 48.2196 13.6908L47.8813 12.9658C47.5826 13.1053 47.2821 13.2462 46.98 13.3887L47.3213 14.1123ZM49.1157 13.2748C49.4209 13.1339 49.7241 12.9947 50.0254 12.8571L49.693 12.1294C49.3908 12.2674 49.0866 12.4071 48.7804 12.5485L49.1157 13.2748ZM50.923 12.4494C51.2289 12.3112 51.5326 12.1748 51.834 12.0402L51.5076 11.3097C51.2052 11.4448 50.9006 11.5817 50.5937 11.7203L50.923 12.4494ZM52.7418 11.6368C53.0457 11.5025 53.3471 11.3701 53.646 11.2395L53.3257 10.5064C53.0258 10.6374 52.7234 10.7703 52.4185 10.9051L52.7418 11.6368ZM54.5642 10.8405C54.8675 10.7095 55.168 10.5804 55.4656 10.4533L55.1513 9.71761C54.8527 9.84516 54.5512 9.97466 54.2469 10.1061L54.5642 10.8405ZM56.3911 10.0602C56.6974 9.93092 57.0003 9.80376 57.2998 9.67875L56.9917 8.94047C56.6912 9.0659 56.3872 9.19348 56.0799 9.32322L56.3911 10.0602ZM58.2236 9.29553C58.5325 9.16816 58.8374 9.04317 59.1384 8.92056L58.8365 8.17969C58.5345 8.30272 58.2285 8.42814 57.9186 8.55595L58.2236 9.29553ZM60.0628 8.5462C60.3737 8.42109 60.6799 8.29867 60.9811 8.17893L60.6857 7.43549C60.3833 7.55565 60.0761 7.6785 59.7642 7.80404L60.0628 8.5462ZM61.9097 7.81226C62.2214 7.69 62.5272 7.57081 62.8272 7.45468L62.5383 6.70865C62.2373 6.82521 61.9303 6.94483 61.6176 7.06752L61.9097 7.81226ZM63.7638 7.09452C64.0763 6.97518 64.3815 6.85945 64.6793 6.74733L64.3973 5.99866C64.0984 6.11121 63.792 6.22738 63.4784 6.34716L63.7638 7.09452ZM65.6204 6.39552C65.9418 6.27628 66.2531 6.16173 66.5539 6.05186L66.2794 5.30043C65.9774 5.41075 65.6648 5.52576 65.3421 5.64548L65.6204 6.39552ZM67.4761 5.71769C67.8039 5.5999 68.1166 5.48858 68.4136 5.38372L68.1473 4.62936C67.8489 4.73471 67.5348 4.84652 67.2056 4.96483L67.4761 5.71769ZM69.3559 5.05423C69.6965 4.93631 70.0094 4.82933 70.2932 4.73324L70.0366 3.9755C69.7512 4.07215 69.4366 4.17972 69.0942 4.29825L69.3559 5.05423ZM71.2302 4.42008C71.4062 4.36208 71.5603 4.31181 71.6917 4.26926L71.4451 3.5082C71.3125 3.55115 71.1572 3.60183 70.9798 3.66027L71.2302 4.42008ZM71.4441 4.26892C71.5752 4.3118 71.7294 4.36249 71.9059 4.42101L72.1577 3.66167C71.98 3.60276 71.8248 3.55173 71.6927 3.50854L71.4441 4.26892ZM72.8418 4.73538C73.1254 4.83178 73.4382 4.93909 73.7789 5.05737L74.0413 4.30162C73.6989 4.18275 73.3845 4.07488 73.0993 3.97794L72.8418 4.73538ZM74.7209 5.38757C75.0182 5.49277 75.3312 5.60443 75.6594 5.7226L75.9304 4.96989C75.6008 4.85122 75.2864 4.73906 74.9877 4.63339L74.7209 5.38757ZM76.581 6.05707C76.8816 6.16702 77.1926 6.28165 77.5138 6.40096L77.7924 5.65103C77.4699 5.53124 77.1576 5.41616 76.8558 5.30576L76.581 6.05707ZM78.4558 6.75347C78.7533 6.86561 79.0583 6.98135 79.3706 7.1007L79.6562 6.35342C79.3428 6.23363 79.0366 6.11746 78.738 6.00489L78.4558 6.75347ZM80.3066 7.4609C80.6067 7.57718 80.9128 7.69652 81.2246 7.81893L81.5169 7.07424C81.204 6.9514 80.8968 6.83164 80.5956 6.71494L80.3066 7.4609ZM82.1526 8.18555C82.454 8.30541 82.7603 8.42794 83.0714 8.55317L83.3702 7.81105C83.058 7.68539 82.7506 7.56243 82.4482 7.44216L82.1526 8.18555ZM83.9953 8.92742C84.2963 9.05012 84.6014 9.1752 84.9105 9.30266L85.2155 8.5631C84.9054 8.43521 84.5993 8.3097 84.2972 8.18659L83.9953 8.92742ZM85.8337 9.68574C86.1334 9.81082 86.4364 9.93804 86.7428 10.0674L87.054 9.33042C86.7466 9.20062 86.4425 9.07297 86.1419 8.94747L85.8337 9.68574ZM87.6679 10.4603C87.9656 10.5875 88.2662 10.7166 88.5696 10.8477L88.8868 10.1133C88.5824 9.98179 88.2808 9.85224 87.9822 9.72464L87.6679 10.4603ZM89.4881 11.2468C89.7868 11.3773 90.0881 11.5097 90.3919 11.6439L90.7152 10.9121C90.4104 10.7775 90.1081 10.6447 89.8084 10.5137L89.4881 11.2468ZM91.3 12.0473C91.6012 12.1819 91.9048 12.3183 92.2105 12.4564L92.5398 11.7273C92.2331 11.5887 91.9285 11.4519 91.6263 11.3169L91.3 12.0473ZM93.1084 12.8641C93.4098 13.0017 93.7131 13.141 94.0183 13.2819L94.3536 12.5555C94.0474 12.4141 93.743 12.2744 93.4407 12.1364L93.1084 12.8641ZM94.9141 13.6976C95.2119 13.8365 95.5115 13.977 95.8127 14.1191L96.1539 13.3955C95.8517 13.253 95.5512 13.112 95.2524 12.9726L94.9141 13.6976ZM96.7172 14.548C97.0117 14.6884 97.3077 14.8302 97.6051 14.9735L97.9524 14.2528C97.6539 14.109 97.3569 13.9667 97.0615 13.8258L96.7172 14.548ZM98.5017 15.4078C98.7983 15.5522 99.0963 15.6981 99.3956 15.8454L99.7489 15.1276C99.4486 14.9798 99.1496 14.8334 98.8519 14.6885L98.5017 15.4078ZM100.281 16.2835C100.578 16.4309 100.875 16.5797 101.174 16.7299L101.533 16.0151C101.233 15.8644 100.935 15.7151 100.637 15.5672L100.281 16.2835ZM102.059 17.1772C102.352 17.326 102.646 17.476 102.941 17.6274L103.306 16.9157C103.01 16.7638 102.715 16.6132 102.421 16.4639L102.059 17.1772ZM103.828 18.0855C104.12 18.2369 104.413 18.3895 104.706 18.5434L105.078 17.8349C104.783 17.6805 104.489 17.5273 104.197 17.3754L103.828 18.0855ZM105.583 19.0055C105.876 19.1607 106.169 19.3173 106.464 19.4751L106.842 18.7699C106.546 18.6115 106.251 18.4544 105.957 18.2986L105.583 19.0055ZM107.335 19.9442C107.625 20.101 107.915 20.2589 108.206 20.418L108.59 19.7162C108.298 19.5565 108.007 19.398 107.716 19.2407L107.335 19.9442ZM109.08 20.899C109.368 21.0582 109.657 21.2186 109.946 21.3802L110.336 20.6818C110.046 20.5197 109.756 20.3587 109.467 20.1989L109.08 20.899ZM110.81 21.8656C111.098 22.0286 111.387 22.1928 111.677 22.3581L112.073 21.6634C111.783 21.4974 111.493 21.3327 111.203 21.1691L110.81 21.8656ZM112.536 22.8517C112.822 23.0164 113.107 23.1821 113.393 23.349L113.796 22.658C113.509 22.4905 113.223 22.3241 112.936 22.1589L112.536 22.8517ZM114.252 23.853C114.537 24.0207 114.821 24.1896 115.106 24.3596L115.516 23.6725C115.23 23.5019 114.944 23.3324 114.659 23.1639L114.252 23.853ZM115.955 24.8688C116.239 25.0396 116.522 25.2115 116.806 25.3845L117.222 24.7015C116.937 24.5278 116.653 24.3552 116.368 24.1837L115.955 24.8688ZM117.654 25.9045C117.934 26.0772 118.214 26.251 118.495 26.4258L118.918 25.747C118.637 25.5714 118.355 25.3969 118.074 25.2235L117.654 25.9045ZM119.337 26.9536C119.617 27.1304 119.898 27.3083 120.178 27.4872L120.608 26.8127C120.327 26.633 120.045 26.4544 119.763 26.2768L119.337 26.9536ZM121.011 28.021C121.288 28.1999 121.566 28.3799 121.843 28.561L122.28 27.8909C122.002 27.7091 121.723 27.5284 121.444 27.3487L121.011 28.021ZM122.676 29.1073C122.951 29.2888 123.226 29.4714 123.501 29.6551L123.946 28.9897C123.669 28.8053 123.393 28.6219 123.117 28.4395L122.676 29.1073ZM124.325 30.2077C124.599 30.393 124.873 30.5793 125.147 30.7666L125.599 30.106C125.323 29.9179 125.048 29.7308 124.772 29.5448L124.325 30.2077ZM125.965 31.329C126.237 31.5166 126.508 31.7051 126.779 31.8947L127.237 31.2392C126.965 31.0488 126.693 30.8594 126.42 30.671L125.965 31.329ZM127.591 32.4665C127.861 32.6579 128.131 32.8503 128.401 33.0437L128.867 32.3935C128.596 32.1992 128.325 32.0059 128.053 31.8136L127.591 32.4665ZM129.204 33.6229C129.471 33.8169 129.739 34.012 130.005 34.208L130.479 33.5633C130.211 33.3663 129.943 33.1703 129.674 32.9754L129.204 33.6229ZM130.805 34.7991C131.07 34.9961 131.334 35.1942 131.599 35.3932L132.08 34.7542C131.814 34.5542 131.549 34.3552 131.282 34.1572L130.805 34.7991ZM132.389 35.9921C132.652 36.1928 132.914 36.3944 133.177 36.597L133.666 35.964C133.402 35.7603 133.138 35.5577 132.874 35.3561L132.389 35.9921ZM133.96 37.2066C134.22 37.41 134.48 37.6144 134.739 37.8198L135.236 37.193C134.975 36.9866 134.715 36.7811 134.453 36.5766L133.96 37.2066ZM135.514 38.439C135.772 38.6463 136.03 38.8547 136.287 39.064L136.792 38.4437C136.534 38.2332 136.275 38.0238 136.015 37.8154L135.514 38.439ZM137.053 39.6922C137.308 39.9025 137.562 40.1138 137.816 40.326L138.329 39.7125C138.074 39.4991 137.819 39.2866 137.562 39.0752L137.053 39.6922ZM138.575 40.9657C138.701 41.0728 138.828 41.1802 138.954 41.2878L139.473 40.6795C139.346 40.5713 139.22 40.4634 139.093 40.3557L138.575 40.9657ZM138.82 40.9086C138.794 41.0484 138.763 41.2073 138.728 41.3846L139.512 41.5402C139.548 41.3611 139.579 41.2003 139.606 41.0587L138.82 40.9086ZM138.53 42.3499C138.468 42.6447 138.399 42.9673 138.322 43.3164L139.103 43.4887C139.181 43.137 139.251 42.8119 139.313 42.5145L138.53 42.3499ZM138.106 44.2756C138.036 44.5803 137.961 44.9001 137.881 45.2345L138.66 45.42C138.74 45.0835 138.815 44.7615 138.886 44.4548L138.106 44.2756ZM137.649 46.1941C137.573 46.5032 137.493 46.8226 137.409 47.1519L138.184 47.3491C138.268 47.0179 138.349 46.6965 138.426 46.3855L137.649 46.1941ZM137.162 48.1074C137.081 48.4176 136.996 48.7354 136.909 49.0606L137.681 49.2687C137.769 48.9418 137.854 48.6221 137.936 48.3101L137.162 48.1074ZM136.649 50.012C136.563 50.3228 136.474 50.6395 136.383 50.962L137.152 51.1806C137.244 50.8563 137.334 50.5379 137.42 50.2253L136.649 50.012ZM136.11 51.9113C136.019 52.2228 135.926 52.5392 135.83 52.8602L136.597 53.0888C136.693 52.7661 136.787 52.4481 136.878 52.1349L136.11 51.9113ZM135.545 53.8063C135.45 54.1157 135.353 54.429 135.254 54.7462L136.018 54.9846C136.118 54.6658 136.215 54.3509 136.31 54.0399L135.545 53.8063ZM134.957 55.6866C134.858 55.9971 134.757 56.3109 134.654 56.6279L135.414 56.8761C135.518 56.5574 135.62 56.242 135.72 55.93L134.957 55.6866ZM134.344 57.5663C134.241 57.8744 134.137 58.1853 134.03 58.4989L134.787 58.7566C134.895 58.4414 135 58.1289 135.103 57.8193L134.344 57.5663ZM133.709 59.4329C133.601 59.7419 133.492 60.0534 133.381 60.3672L134.135 60.6346C134.247 60.3191 134.357 60.0061 134.464 59.6955L133.709 59.4329ZM133.049 61.2929C132.938 61.6001 132.825 61.9093 132.71 62.2206L133.461 62.4975C133.576 62.1846 133.69 61.8738 133.802 61.565L133.049 61.2929ZM132.365 63.1476C132.251 63.4524 132.134 63.7591 132.016 64.0674L132.763 64.3539C132.882 64.0439 132.999 63.7357 133.114 63.4293L132.365 63.1476ZM131.659 64.9894C131.54 65.2938 131.419 65.5998 131.297 65.9072L132.04 66.2032C132.163 65.8942 132.284 65.5866 132.404 65.2806L131.659 64.9894ZM130.929 66.8218C130.806 67.1259 130.681 67.4315 130.554 67.7383L131.293 68.044C131.421 67.7355 131.546 67.4284 131.67 67.1226L130.929 66.8218ZM130.175 68.6459C130.048 68.9479 129.919 69.251 129.788 69.5553L130.524 69.8706C130.655 69.5647 130.784 69.26 130.912 68.9564L130.175 68.6459ZM129.397 70.4607C129.266 70.7605 129.133 71.0613 128.999 71.363L129.73 71.6881C129.865 71.3848 129.998 71.0824 130.13 70.781L129.397 70.4607ZM128.594 72.2654C128.459 72.563 128.323 72.8614 128.185 73.1607L128.911 73.4956C129.05 73.1947 129.187 72.8946 129.323 72.5954L128.594 72.2654ZM127.768 74.0576C127.629 74.3535 127.488 74.6501 127.346 74.9473L128.068 75.2923C128.211 74.9933 128.352 74.6951 128.492 74.3975L127.768 74.0576ZM126.917 75.8372C126.774 76.1317 126.629 76.4267 126.483 76.7223L127.2 77.0773C127.347 76.78 127.493 76.4833 127.637 76.1871L126.917 75.8372Z" fill="#44C0D3"/>
<path d="M119.281 49.1917C124.857 49.1917 129.377 44.6716 129.377 39.0958C129.377 33.5201 124.857 29 119.281 29C113.706 29 109.186 33.5201 109.186 39.0958C109.186 44.6716 113.706 49.1917 119.281 49.1917Z" stroke="url(#paint5_linear)" stroke-width="0.8" stroke-dasharray="1"/>
<path d="M6.00001 44.5348C6.00001 50.353 10.7166 55.0696 16.5348 55.0696C22.353 55.0696 27.0696 50.353 27.0696 44.5348C27.0696 38.7166 22.353 34 16.5348 34C10.7166 34 6.00001 38.7166 6.00001 44.5348Z" stroke="url(#paint6_linear)" stroke-width="0.8" stroke-dasharray="1"/>
<path d="M71.5808 126.482C83.9444 126.482 93.9672 116.459 93.9672 104.096C93.9672 91.7319 83.9444 81.7092 71.5808 81.7092C59.2171 81.7092 49.1943 91.7319 49.1943 104.096C49.1943 116.459 59.2171 126.482 71.5808 126.482Z" stroke="url(#paint7_linear)" stroke-width="0.8" stroke-dasharray="1"/>
<defs>
<linearGradient id="paint0_linear" x1="64.0702" y1="91.2661" x2="120.535" y2="55.4716" gradientUnits="userSpaceOnUse">
<stop stop-color="#B0E4EF"/>
<stop offset="1" stop-color="#44C9E6"/>
</linearGradient>
<linearGradient id="paint1_linear" x1="126.644" y1="40.8132" x2="120.594" y2="-2.18266" gradientUnits="userSpaceOnUse">
<stop stop-color="#9CE2F1"/>
<stop offset="1" stop-color="#44C9E6"/>
</linearGradient>
<linearGradient id="paint2_linear" x1="41.8352" y1="1.26323" x2="-7.3096" y2="88.4735" gradientUnits="userSpaceOnUse">
<stop stop-color="#98DEEE"/>
<stop offset="1" stop-color="white"/>
</linearGradient>
<linearGradient id="paint3_linear" x1="62.9958" y1="50.9972" x2="97.8183" y2="16.1166" gradientUnits="userSpaceOnUse">
<stop stop-color="#F9FAFC"/>
<stop offset="1" stop-color="#CCF6FF"/>
</linearGradient>
<linearGradient id="paint4_linear" x1="66.3684" y1="74.8082" x2="142.182" y2="74.8082" gradientUnits="userSpaceOnUse">
<stop stop-color="#44C9E6" stop-opacity="0.01"/>
<stop offset="1" stop-color="#44C9E6"/>
</linearGradient>
<linearGradient id="paint5_linear" x1="116.961" y1="57.9038" x2="138.455" y2="39.7474" gradientUnits="userSpaceOnUse">
<stop stop-color="#5BCFE8" stop-opacity="0.01"/>
<stop offset="1" stop-color="#2CB2E1"/>
</linearGradient>
<linearGradient id="paint6_linear" x1="42.5597" y1="75.6865" x2="42.5597" y2="23.6367" gradientUnits="userSpaceOnUse">
<stop stop-color="#5BCFE8" stop-opacity="0.01"/>
<stop offset="1" stop-color="#2CB2E1"/>
</linearGradient>
<linearGradient id="paint7_linear" x1="63.4495" y1="74.019" x2="48.0691" y2="121.042" gradientUnits="userSpaceOnUse">
<stop stop-color="#5BCFE8" stop-opacity="0.01"/>
<stop offset="1" stop-color="#2CB2E1"/>
</linearGradient>
</defs>
</svg>
