<svg width="46" height="47" viewBox="0 0 46 47" fill="none" xmlns="http://www.w3.org/2000/svg">
<g clip-path="url(#clip0)">
<path d="M22.9997 21.2681C17.7016 21.2681 13.4067 16.9731 13.4067 11.675C13.4067 6.3769 17.7016 2.08194 22.9997 2.08194C28.2978 2.08194 32.5928 6.3769 32.5928 11.675C32.5928 16.9731 28.2978 21.2681 22.9997 21.2681Z" fill="url(#paint0_linear)"/>
<path d="M9.59248 44.2681C4.29438 44.2681 -0.000581741 39.9731 -0.000581741 34.675C-0.000581741 29.3769 4.29438 25.0819 9.59248 25.0819C14.8906 25.0819 19.1855 29.3769 19.1855 34.675C19.1855 39.9731 14.8906 44.2681 9.59248 44.2681Z" fill="url(#paint1_linear)"/>
<path d="M36.4069 44.2681C31.1088 44.2681 26.8139 39.9731 26.8139 34.675C26.8139 29.3769 31.1088 25.0819 36.4069 25.0819C41.705 25.0819 46 29.3769 46 34.675C46 39.9731 41.705 44.2681 36.4069 44.2681Z" fill="url(#paint2_linear)"/>
</g>
<defs>
<linearGradient id="paint0_linear" x1="31.5649" y1="4.3089" x2="14.6058" y2="23.6663" gradientUnits="userSpaceOnUse">
<stop stop-color="white"/>
<stop offset="1" stop-color="white"/>
</linearGradient>
<linearGradient id="paint1_linear" x1="18.1577" y1="27.3089" x2="1.19855" y2="46.6663" gradientUnits="userSpaceOnUse">
<stop stop-color="white"/>
<stop offset="1" stop-color="white"/>
</linearGradient>
<linearGradient id="paint2_linear" x1="44.9722" y1="27.3089" x2="28.013" y2="46.6663" gradientUnits="userSpaceOnUse">
<stop stop-color="white"/>
<stop offset="1" stop-color="white"/>
</linearGradient>
<clipPath id="clip0">
<rect width="46" height="46" fill="white" transform="matrix(-1 0 0 1 46 0.174988)"/>
</clipPath>
</defs>
</svg>
