<svg width="50" height="51" viewBox="0 0 50 51" fill="none" xmlns="http://www.w3.org/2000/svg">
<g clip-path="url(#clip0)">
<path d="M10.3356 35.2775C5.54501 28.3381 6.23177 18.7584 12.4079 12.5832C18.5823 6.40875 28.1621 5.7211 35.1016 10.5117L40.2477 5.36627C30.4421 -2.2006 16.3101 -1.4958 7.31958 7.49478C-1.67179 16.4861 -2.3766 30.6182 5.18959 40.4237L10.3356 35.2775Z" fill="url(#paint0_linear)"/>
<path opacity="0.7" d="M44.8095 9.92731L39.6649 15.0727C44.4548 22.0122 43.7679 31.5919 37.5934 37.7663C31.4182 43.9415 21.8377 44.6292 14.8991 39.8386L9.75293 44.9847C19.5585 52.5516 33.6906 51.846 42.681 42.8546C51.6716 33.8649 52.3772 19.7329 44.8095 9.92731Z" fill="url(#paint1_linear)"/>
</g>
<defs>
<linearGradient id="paint0_linear" x1="-15.7176" y1="-19.2902" x2="41.8202" y2="43.1409" gradientUnits="userSpaceOnUse">
<stop stop-color="#65AAFF"/>
<stop offset="1" stop-color="#5D21D4"/>
</linearGradient>
<linearGradient id="paint1_linear" x1="-10" y1="-6.82501" x2="51.5644" y2="52.8792" gradientUnits="userSpaceOnUse">
<stop stop-color="#FC65FF"/>
<stop offset="1" stop-color="#5D21D4"/>
</linearGradient>
<clipPath id="clip0">
<rect width="50" height="50" fill="white" transform="translate(0 0.174988)"/>
</clipPath>
</defs>
</svg>
