<svg width="51" height="56" viewBox="0 0 51 56" fill="none" xmlns="http://www.w3.org/2000/svg">
<path fill-rule="evenodd" clip-rule="evenodd" d="M0 29.951C0 22.7123 10.7689 17.2516 25.0488 17.2516C39.3287 17.2516 50.0976 22.7123 50.0976 29.951C50.0976 43.9564 38.8611 55.3499 25.0488 55.3499C11.2365 55.3499 0 43.9564 0 29.951ZM45.9752 29.8977C45.9752 25.8932 37.0269 21.4136 25.0484 21.4136C13.0699 21.4136 4.12158 25.8932 4.12158 29.8977C4.12158 33.9022 13.0699 38.3818 25.0484 38.3818C37.0269 38.3818 45.9752 33.9022 45.9752 29.8977Z" fill="url(#paint0_linear)"/>
<path d="M25.2857 1.50001C29.1837 1.50001 32.4096 4.09353 34.58 7.51198C36.7689 10.9595 38.0714 15.5008 38.0714 20.0358C38.0714 29.1641 32.567 35.4204 25.2857 35.4204C18.0044 35.4204 12.5 29.1641 12.5 20.0358C12.5 15.5008 13.8026 10.9595 15.9914 7.51198C18.1618 4.09353 21.3877 1.50001 25.2857 1.50001Z" fill="url(#paint1_linear)" stroke="white" stroke-width="3"/>
<defs>
<linearGradient id="paint0_linear" x1="89.3079" y1="106.272" x2="39.3693" y2="3.22191" gradientUnits="userSpaceOnUse">
<stop stop-color="#FFF886"/>
<stop offset="1" stop-color="#FF4E78"/>
</linearGradient>
<linearGradient id="paint1_linear" x1="54.2376" y1="-38.3283" x2="3.07276" y2="20.284" gradientUnits="userSpaceOnUse">
<stop stop-color="#FFF886"/>
<stop offset="1" stop-color="#FF4E78"/>
</linearGradient>
</defs>
</svg>
