<svg width="46" height="47" viewBox="0 0 46 47" fill="none" xmlns="http://www.w3.org/2000/svg">
<path d="M39.5618 31.2456C39.5618 29.4837 41.0034 28.0547 42.7812 28.0547C44.5602 28.0547 45.9997 29.4837 45.9997 31.2456C45.9997 33.0076 44.5602 34.4366 42.7812 34.4366C41.0043 34.4366 39.5618 33.0075 39.5618 31.2456ZM42.7811 18.0272C44.5601 18.0272 45.9996 16.5983 45.9996 14.837C45.9996 13.0754 44.5601 11.6461 42.7811 11.6461C41.0032 11.6461 39.5617 13.0754 39.5617 14.837C39.5618 16.5983 41.0043 18.0272 42.7811 18.0272ZM30.5785 18.6923C30.5785 20.4544 32.018 21.8827 33.7974 21.8827C35.5749 21.8827 37.0164 20.4545 37.0164 18.6923C37.0164 16.9306 35.5749 15.5013 33.7974 15.5013C32.018 15.5009 30.5785 16.9301 30.5785 18.6923ZM14.6182 39.7937C12.8405 39.7937 11.3993 41.2221 11.3993 42.9841C11.3993 44.7461 12.8406 46.175 14.6182 46.175C16.3957 46.175 17.8371 44.7461 17.8371 42.9841C17.8371 41.2221 16.3953 39.7937 14.6182 39.7937ZM27.3581 15.5009C29.1365 15.5009 30.5784 14.0719 30.5784 12.3103C30.5784 10.5483 29.1369 9.11986 27.3581 9.11986C25.5807 9.11986 24.1397 10.5483 24.1397 12.3103C24.1398 14.0719 25.5813 15.5009 27.3581 15.5009ZM33.7973 24.2758C32.0189 24.2758 30.5784 25.7047 30.5784 27.4663C30.5784 29.2282 32.0179 30.6567 33.7973 30.6567C35.5748 30.6567 37.0163 29.2282 37.0163 27.4663C37.0163 25.7047 35.5749 24.2758 33.7973 24.2758ZM18.6421 30.6576C16.8645 30.6576 15.4233 32.0861 15.4233 33.8481C15.4233 35.61 16.8646 37.0385 18.6421 37.0385C20.4197 37.0385 21.861 35.61 21.861 33.8481C21.861 32.0861 20.4193 30.6576 18.6421 30.6576ZM31.3436 39.7937C29.5663 39.7937 28.1248 41.2221 28.1248 42.9841C28.1248 44.7461 29.5663 46.175 31.3436 46.175C33.1211 46.175 34.5626 44.7461 34.5626 42.9841C34.5626 41.2221 33.1211 39.7937 31.3436 39.7937ZM31.3436 6.55657C33.1211 6.55657 34.5626 5.12756 34.5626 3.36594C34.5626 1.604 33.1211 0.174988 31.3436 0.174988C29.5663 0.174988 28.1248 1.604 28.1248 3.36594C28.1248 5.12756 29.5663 6.55657 31.3436 6.55657ZM12.2042 30.6576C13.9819 30.6576 15.4233 29.2286 15.4233 27.4672C15.4233 25.7053 13.9817 24.2758 12.2042 24.2758C10.4266 24.2758 8.98628 25.7053 8.98628 27.4672C8.98628 29.2286 10.4265 30.6576 12.2042 30.6576ZM3.21887 18.0272C4.99654 18.0272 6.43807 16.5983 6.43807 14.837C6.43807 13.0754 4.99654 11.6461 3.21887 11.6461C1.44121 11.6461 0 13.0754 0 14.837C0 16.5983 1.44121 18.0272 3.21887 18.0272ZM3.21887 34.4366C4.99654 34.4366 6.43807 33.0076 6.43807 31.2456C6.43807 29.4837 4.99654 28.0547 3.21887 28.0547C1.44121 28.0547 0 29.4837 0 31.2456C0 33.0076 1.44121 34.4366 3.21887 34.4366ZM12.2042 21.8827C13.9819 21.8827 15.4233 20.4545 15.4233 18.6923C15.4233 16.9306 13.9817 15.5013 12.2042 15.5013C10.4266 15.5013 8.98628 16.9306 8.98628 18.6923C8.98628 20.4545 10.4265 21.8827 12.2042 21.8827ZM27.3581 37.0385C29.1365 37.0385 30.5784 35.61 30.5784 33.8481C30.5784 32.0861 29.1369 30.6576 27.3581 30.6576C25.5807 30.6576 24.1397 32.0861 24.1397 33.8481C24.1397 35.61 25.5813 37.0385 27.3581 37.0385ZM15.4233 12.3103C15.4233 14.072 16.8646 15.5009 18.6421 15.5009C20.4197 15.5009 21.861 14.0719 21.861 12.3103C21.861 10.5483 20.4197 9.11986 18.6421 9.11986C16.8646 9.11986 15.4233 10.5483 15.4233 12.3103ZM14.6182 6.55657C16.3958 6.55657 17.8371 5.12756 17.8371 3.36594C17.8365 1.604 16.3953 0.175523 14.6182 0.175523C12.8411 0.175523 11.3993 1.60454 11.3993 3.36637C11.3993 5.12756 12.8405 6.55657 14.6182 6.55657Z" fill="url(#paint0_linear)"/>
<defs>
<linearGradient id="paint0_linear" x1="-5.03591" y1="-39.6616" x2="44.234" y2="10.6929" gradientUnits="userSpaceOnUse">
<stop stop-color="#9AFFD8"/>
<stop offset="1" stop-color="#68DFB1"/>
</linearGradient>
</defs>
</svg>
