<svg width="1440" height="861" xmlns="http://www.w3.org/2000/svg" xmlns:xlink="http://www.w3.org/1999/xlink"><g transform="translate(-1294 -769)"><mask id="a"><use xlink:href="#a" transform="translate(1294 769.695)" fill="#FFF"/></mask><g mask="url(#a)"><use xlink:href="#c" transform="translate(1294 770)" fill="url(#d)"/></g><g mask="url(#a)"><use xlink:href="#e" transform="translate(1101 889)" fill="url(#f)"/><use xlink:href="#g" transform="translate(1263 680.5)" fill="url(#h)" opacity=".446"/><use xlink:href="#g" transform="translate(2080 680.5)" fill="url(#i)" opacity=".446"/><use xlink:href="#e" transform="translate(1534 565)" fill="url(#j)" opacity=".446"/><use xlink:href="#e" transform="translate(2509 718)" fill="url(#k)"/><g opacity=".327" fill="#FFF"><use xlink:href="#l" transform="translate(1530.78 938.784)" filter="url(#m)"/><use xlink:href="#n" transform="translate(1532 940)"/></g><g opacity=".186" fill="#FFF"><use xlink:href="#l" transform="translate(1684.78 1087.78)" filter="url(#o)"/><use xlink:href="#n" transform="translate(1686 1089)"/></g><use xlink:href="#l" transform="translate(2505.78 1091.78)" fill="#FFF" filter="url(#p)"/><use xlink:href="#n" transform="translate(2507 1093)" fill="#FFF"/></g></g><defs><filter id="m" filterUnits="userSpaceOnUse" x="1526" y="934" width="16" height="16" color-interpolation-filters="sRGB"><feFlood flood-opacity="0" result="BackgroundImageFix"/><feBlend in="SourceGraphic" in2="BackgroundImageFix" result="shape"/><feGaussianBlur stdDeviation="2.283" result="effect1_foregroundBlur"/></filter><filter id="o" filterUnits="userSpaceOnUse" x="1680" y="1083" width="16" height="16" color-interpolation-filters="sRGB"><feFlood flood-opacity="0" result="BackgroundImageFix"/><feBlend in="SourceGraphic" in2="BackgroundImageFix" result="shape"/><feGaussianBlur stdDeviation="2.283" result="effect1_foregroundBlur"/></filter><filter id="p" filterUnits="userSpaceOnUse" x="2501" y="1087" width="16" height="16" color-interpolation-filters="sRGB"><feFlood flood-opacity="0" result="BackgroundImageFix"/><feBlend in="SourceGraphic" in2="BackgroundImageFix" result="shape"/><feGaussianBlur stdDeviation="2.283" result="effect1_foregroundBlur"/></filter><linearGradient id="d" x2="1" gradientUnits="userSpaceOnUse" gradientTransform="matrix(1162.73 -1223.4 2048.48 694.411 163.516 980.255)"><stop offset="0" stop-color="#0B0B0A"/><stop offset="1" stop-color="#464F51"/></linearGradient><linearGradient id="f" x2="1" gradientUnits="userSpaceOnUse" gradientTransform="rotate(127.341 572.74 -91.282) scale(1214.424)"><stop offset="0" stop-color="#C8C8C8"/><stop offset="1" stop-color="#979797" stop-opacity=".01"/></linearGradient><linearGradient id="h" x2="1" gradientUnits="userSpaceOnUse" gradientTransform="matrix(0 521.378 -539.929 0 276.5 0)"><stop offset="0" stop-color="#C8C8C8"/><stop offset="1" stop-color="#979797" stop-opacity=".01"/></linearGradient><linearGradient id="i" x2="1" gradientUnits="userSpaceOnUse" gradientTransform="matrix(-317.379 -469.84 486.557 -306.474 527.238 516.434)"><stop offset="0" stop-color="#C8C8C8" stop-opacity=".01"/><stop offset="1" stop-color="#979797"/></linearGradient><linearGradient id="j" x2="1" gradientUnits="userSpaceOnUse" gradientTransform="matrix(-553.027 719.48 -719.48 -553.027 188.5 0)"><stop offset="0" stop-color="#C8C8C8" stop-opacity=".01"/><stop offset=".012" stop-color="#C7C7C7" stop-opacity=".012"/><stop offset="1" stop-color="#979797"/></linearGradient><linearGradient id="k" x2="1" gradientUnits="userSpaceOnUse" gradientTransform="rotate(144.717 94.055 105.812) scale(924.239)"><stop offset="0" stop-color="#C8C8C8" stop-opacity=".01"/><stop offset="1" stop-color="#979797"/></linearGradient><path id="a" fill-rule="evenodd" d="M0 859.805h1440V0S805.211 116.617 720 116.617C634.789 116.617 0 0 0 0v859.805z"/><path id="c" fill-rule="evenodd" d="M0 0h1440v860H0V0z"/><path id="e" d="M.146 376.146l-.353.354.707.707.354-.353-.708-.708zM377.208.499l.353-.353-.707-.707-.353.353.707.707zM.854 376.854L377.208.499l-.707-.707L.146 376.146l.708.708z"/><path id="g" d="M.847.14l-.36-.347-.694.72.36.347.694-.72zm551.306 533.72l.359.347.695-.719-.36-.348-.694.72zM.153.86l552 533 .694-.72-552-533-.694.72z"/><path id="l" fill-rule="evenodd" d="M3.216 6.432a3.216 3.216 0 1 0 0-6.432 3.216 3.216 0 0 0 0 6.432z"/><path id="n" fill-rule="evenodd" d="M2 4a2 2 0 1 0 0-4 2 2 0 0 0 0 4z"/></defs></svg>